ISO-10303-21;
HEADER;
FILE_DESCRIPTION (( 'STEP AP214' ),
    '1' );
FILE_NAME ('1314-0016-0250 assembly.STEP.STEP',
    '2026-09-04T22:01:27',
    ( '' ),
    ( '' ),
    'SwSTEP 2.0',
    'SolidWorks 2026',
    '' );
FILE_SCHEMA (( 'AUTOMOTIVE_DESIGN' ));
ENDSEC;

DATA;
#1 = PRODUCT_DEFINITION_CONTEXT ( 'detailed design', #44, 'design' ) ;
#2 = PRODUCT_CONTEXT ( 'NONE', #9, 'mechanical' ) ;
#3 = DOCUMENT_TYPE ( 'geometry' ) ;
#4 = SHAPE_DEFINITION_REPRESENTATION ( #81, #7 ) ;
#5 = DIRECTION ( 'NONE',  ( -0.9237280213470678847, -0.3830490080632379390, -2.116362640691704655E-16 ) ) ;
#6 = PRODUCT_DEFINITION_SHAPE ( 'NONE', 'NONE',  #15 ) ;
#7 = SHAPE_REPRESENTATION ( '1314-0016-0250.STEP', ( #106 ), #36 ) ;
#8 = APPLIED_EXTERNAL_IDENTIFICATION_ASSIGNMENT ( '1314-0016-0250.STEP.STEP' , #96, #14,( #70) ) ;
#9 = APPLICATION_CONTEXT ( 'automotive_design' ) ;
#10 = DIRECTION ( 'NONE',  ( 1.000000000000000000, 0.000000000000000000, 0.000000000000000000 ) ) ;
#11 = PRODUCT_CONTEXT ( 'NONE', #51, 'mechanical' ) ;
#12 = APPLICATION_PROTOCOL_DEFINITION ( 'draft international standard', 'automotive_design', 1998, #44 ) ;
#13 = APPLIED_DOCUMENT_REFERENCE ( #98,'',( #15) ) ;
#14 = EXTERNAL_SOURCE (IDENTIFIER('') ) ;
#15 = PRODUCT_DEFINITION ( 'General', '', #97, #45 ) ;
#16 = ROLE_ASSOCIATION ( #102, #72 ) ;
#17 = CONTEXT_DEPENDENT_SHAPE_REPRESENTATION ( #93, #69 ) ;
#18 = PRODUCT_DEFINITION_FORMATION_WITH_SPECIFIED_SOURCE ( 'Symmetric', '', #75, .NOT_KNOWN. ) ;
#19 = DOCUMENT_TYPE ( 'geometry' ) ;
#20 = DIRECTION ( 'NONE',  ( 1.000000000000000000, 0.000000000000000000, 0.000000000000000000 ) ) ;
#21 = UNCERTAINTY_MEASURE_WITH_UNIT (LENGTH_MEASURE( 1.000000000000000082E-05 ), #77, 'distance_accuracy_value', 'NONE');
#22 = PRODUCT_CONTEXT ( 'NONE', #24, 'mechanical' ) ;
#23 = PRODUCT_RELATED_PRODUCT_CATEGORY ( 'part', '', ( #99 ) ) ;
#24 = APPLICATION_CONTEXT ( 'automotive_design' ) ;
#25 =( LENGTH_UNIT ( ) NAMED_UNIT ( * ) SI_UNIT ( .MILLI., .METRE. ) );
#26 =( REPRESENTATION_RELATIONSHIP ('NONE','NONE', #95, #65 ) REPRESENTATION_RELATIONSHIP_WITH_TRANSFORMATION ( #71 )SHAPE_REPRESENTATION_RELATIONSHIP( ) );
#27 = APPLICATION_PROTOCOL_DEFINITION ( 'draft international standard', 'automotive_design', 1998, #9 ) ;
#28 = CARTESIAN_POINT ( 'NONE',  ( 0.000000000000000000, 0.000000000000000000, 0.000000000000000000 ) ) ;
#29 = PRODUCT_RELATED_PRODUCT_CATEGORY ( 'part', '', ( #41 ) ) ;
#30 = IDENTIFICATION_ROLE ( 'external document id and location', $) ;
#31 = PROPERTY_DEFINITION_REPRESENTATION ( #74, #65 ) ;
#32 = ITEM_DEFINED_TRANSFORMATION ( 'NONE', 'NONE', #100,  #106 ) ;
#33 =( GEOMETRIC_REPRESENTATION_CONTEXT ( 3 ) GLOBAL_UNCERTAINTY_ASSIGNED_CONTEXT ( ( #64 ) ) GLOBAL_UNIT_ASSIGNED_CONTEXT ( ( #101, #34, #91 ) ) REPRESENTATION_CONTEXT ( 'NONE', 'WORKASPACE' ) );
#34 =( NAMED_UNIT ( * ) PLANE_ANGLE_UNIT ( ) SI_UNIT ( $, .RADIAN. ) );
#35 = DIRECTION ( 'NONE',  ( 0.000000000000000000, 0.000000000000000000, 1.000000000000000000 ) ) ;
#36 =( GEOMETRIC_REPRESENTATION_CONTEXT ( 3 ) GLOBAL_UNCERTAINTY_ASSIGNED_CONTEXT ( ( #21 ) ) GLOBAL_UNIT_ASSIGNED_CONTEXT ( ( #77, #82, #37 ) ) REPRESENTATION_CONTEXT ( 'NONE', 'WORKASPACE' ) );
#37 =( NAMED_UNIT ( * ) SI_UNIT ( $, .STERADIAN. ) SOLID_ANGLE_UNIT ( ) );
#38 = PRODUCT_RELATED_PRODUCT_CATEGORY ( 'part', '', ( #75 ) ) ;
#39 = APPLICATION_PROTOCOL_DEFINITION ( 'draft international standard', 'automotive_design', 1998, #24 ) ;
#40 = SHAPE_DEFINITION_REPRESENTATION ( #6, #65 ) ;
#41 = PRODUCT ( '1314-0016-0250.STEP', '1314-0016-0250.STEP', '', ( #22 ) ) ;
#42 = PRODUCT_DEFINITION ( 'General', '', #43, #49 ) ;
#43 = PRODUCT_DEFINITION_FORMATION_WITH_SPECIFIED_SOURCE ( 'Symmetric', '', #41, .NOT_KNOWN. ) ;
#44 = APPLICATION_CONTEXT ( 'automotive_design' ) ;
#45 = PRODUCT_DEFINITION_CONTEXT ( 'detailed design', #57, 'design' ) ;
#46 =( NAMED_UNIT ( * ) SI_UNIT ( $, .STERADIAN. ) SOLID_ANGLE_UNIT ( ) );
#47 = PROPERTY_DEFINITION ('document property','', #70 ) ;
#48 = AXIS2_PLACEMENT_3D ( 'NONE', #66, #103, #20 ) ;
#49 = PRODUCT_DEFINITION_CONTEXT ( 'detailed design', #61, 'design' ) ;
#50 = APPLICATION_PROTOCOL_DEFINITION ( 'draft international standard', 'automotive_design', 1998, #57 ) ;
#51 = APPLICATION_CONTEXT ( 'automotive_design' ) ;
#52 = AXIS2_PLACEMENT_3D ( 'NONE', #73, #90, #5 ) ;
#53 = DIRECTION ( 'NONE',  ( 0.000000000000000000, 0.000000000000000000, 1.000000000000000000 ) ) ;
#54 = PRODUCT_DEFINITION_SHAPE ( 'NONE', 'NONE',  #108 ) ;
#55 = APPLICATION_PROTOCOL_DEFINITION ( 'draft international standard', 'automotive_design', 1998, #51 ) ;
#56 = PROPERTY_DEFINITION_REPRESENTATION ( #85, #7 ) ;
#57 = APPLICATION_CONTEXT ( 'automotive_design' ) ;
#58 = UNCERTAINTY_MEASURE_WITH_UNIT (LENGTH_MEASURE( 1.000000000000000082E-05 ), #25, 'distance_accuracy_value', 'NONE');
#59 = OBJECT_ROLE ('mandatory',$ ) ;
#60 =( GEOMETRIC_REPRESENTATION_CONTEXT ( 3 ) GLOBAL_UNCERTAINTY_ASSIGNED_CONTEXT ( ( #58 ) ) GLOBAL_UNIT_ASSIGNED_CONTEXT ( ( #25, #94, #46 ) ) REPRESENTATION_CONTEXT ( 'NONE', 'WORKASPACE' ) );
#61 = APPLICATION_CONTEXT ( 'automotive_design' ) ;
#62 = APPLICATION_PROTOCOL_DEFINITION ( 'draft international standard', 'automotive_design', 1998, #61 ) ;
#63 = DIRECTION ( 'NONE',  ( 2.220446049250313081E-16, 1.679083331579317618E-17, 1.000000000000000000 ) ) ;
#64 = UNCERTAINTY_MEASURE_WITH_UNIT (LENGTH_MEASURE( 1.000000000000000082E-05 ), #101, 'distance_accuracy_value', 'NONE');
#65 = SHAPE_REPRESENTATION ( '2806-0005-0004_91390A117.STEP', ( #89 ), #33 ) ;
#66 = CARTESIAN_POINT ( 'NONE',  ( 0.000000000000000000, 0.000000000000000000, 0.000000000000000000 ) ) ;
#67 = PRODUCT_DEFINITION_SHAPE ( 'NONE', 'NONE',  #84 ) ;
#68 = EXTERNAL_SOURCE (IDENTIFIER('') ) ;
#69 = PRODUCT_DEFINITION_SHAPE ( 'NONE', 'NONE',  #107 ) ;
#70 = DOCUMENT_FILE ( '1314-0016-0250.STEP.STEP' , '', '', #19, '' ,$ ) ;
#71 = ITEM_DEFINED_TRANSFORMATION ( 'NONE', 'NONE', #52,  #89 ) ;
#72 = APPLIED_DOCUMENT_REFERENCE ( #70,'',( #42) ) ;
#73 = CARTESIAN_POINT ( 'NONE',  ( -39.04062525543799467, 8.719628601947999158, 9.097683970284931476 ) ) ;
#74 = PROPERTY_DEFINITION ('external definition','', #98 ) ;
#75 = PRODUCT ( '1314-0016-0250 assembly.STEP', '1314-0016-0250 assembly.STEP', '', ( #11 ) ) ;
#76 = PROPERTY_DEFINITION ('document property','', #98 ) ;
#77 =( LENGTH_UNIT ( ) NAMED_UNIT ( * ) SI_UNIT ( .MILLI., .METRE. ) );
#78 = DIRECTION ( 'NONE',  ( 0.9999999999999998890, 5.695494202586162754E-18, 2.220446049250313081E-16 ) ) ;
#79 = SHAPE_DEFINITION_REPRESENTATION ( #67, #95 ) ;
#80 = CARTESIAN_POINT ( 'NONE',  ( -39.04062525543798756, 4.719628601947994717, 14.75423100259792797 ) ) ;
#81 = PRODUCT_DEFINITION_SHAPE ( 'NONE', 'NONE',  #42 ) ;
#82 =( NAMED_UNIT ( * ) PLANE_ANGLE_UNIT ( ) SI_UNIT ( $, .RADIAN. ) );
#83 = ROLE_ASSOCIATION ( #59, #13 ) ;
#84 = PRODUCT_DEFINITION ( 'General', '', #18, #1 ) ;
#85 = PROPERTY_DEFINITION ('external definition','', #70 ) ;
#86 = APPLIED_EXTERNAL_IDENTIFICATION_ASSIGNMENT ( '2806-0005-0004_91390A117.STEP.STEP' , #30, #68,( #98) ) ;
#87 = PROPERTY_DEFINITION_REPRESENTATION ( #47, #7 ) ;
#88 = PROPERTY_DEFINITION_REPRESENTATION ( #76, #65 ) ;
#89 = AXIS2_PLACEMENT_3D ( 'NONE', #104, #35, #92 ) ;
#90 = DIRECTION ( 'NONE',  ( -2.220446049250313081E-16, -1.679083331579317618E-17, -1.000000000000000000 ) ) ;
#91 =( NAMED_UNIT ( * ) SI_UNIT ( $, .STERADIAN. ) SOLID_ANGLE_UNIT ( ) );
#92 = DIRECTION ( 'NONE',  ( 1.000000000000000000, 0.000000000000000000, 0.000000000000000000 ) ) ;
#93 =( REPRESENTATION_RELATIONSHIP ('NONE','NONE', #95, #7 ) REPRESENTATION_RELATIONSHIP_WITH_TRANSFORMATION ( #32 )SHAPE_REPRESENTATION_RELATIONSHIP( ) );
#94 =( NAMED_UNIT ( * ) PLANE_ANGLE_UNIT ( ) SI_UNIT ( $, .RADIAN. ) );
#95 = SHAPE_REPRESENTATION ( '1314-0016-0250 assembly.STEP', ( #48, #100, #52 ), #60 ) ;
#96 = IDENTIFICATION_ROLE ( 'external document id and location', $) ;
#97 = PRODUCT_DEFINITION_FORMATION_WITH_SPECIFIED_SOURCE ( 'Symmetric', '', #99, .NOT_KNOWN. ) ;
#98 = DOCUMENT_FILE ( '2806-0005-0004_91390A117.STEP.STEP' , '', '', #3, '' ,$ ) ;
#99 = PRODUCT ( '2806-0005-0004_91390A117.STEP', '2806-0005-0004_91390A117.STEP', '', ( #2 ) ) ;
#100 = AXIS2_PLACEMENT_3D ( 'NONE', #80, #63, #78 ) ;
#101 =( LENGTH_UNIT ( ) NAMED_UNIT ( * ) SI_UNIT ( .MILLI., .METRE. ) );
#102 = OBJECT_ROLE ('mandatory',$ ) ;
#103 = DIRECTION ( 'NONE',  ( 0.000000000000000000, 0.000000000000000000, 1.000000000000000000 ) ) ;
#104 = CARTESIAN_POINT ( 'NONE',  ( 0.000000000000000000, 0.000000000000000000, 0.000000000000000000 ) ) ;
#105 = CONTEXT_DEPENDENT_SHAPE_REPRESENTATION ( #26, #54 ) ;
#106 = AXIS2_PLACEMENT_3D ( 'NONE', #28, #53, #10 ) ;
#107 = NEXT_ASSEMBLY_USAGE_OCCURRENCE ( 'NAUO10', ' ', ' ', #84, #42, $ ) ;
#108 = NEXT_ASSEMBLY_USAGE_OCCURRENCE ( 'NAUO11', ' ', ' ', #84, #15, $ ) ;
ENDSEC;
END-ISO-10303-21;
