ISO-10303-21;
HEADER;
FILE_DESCRIPTION (( 'STEP AP214' ),
    '1' );
FILE_NAME ('1886K1_Rotary Shaft.STEP',
    '2026-09-04T22:01:31',
    ( '' ),
    ( '' ),
    'SwSTEP 2.0',
    'SolidWorks 2026',
    '' );
FILE_SCHEMA (( 'AUTOMOTIVE_DESIGN' ));
ENDSEC;

DATA;
#1 =( NAMED_UNIT ( * ) PLANE_ANGLE_UNIT ( ) SI_UNIT ( $, .RADIAN. ) );
#2 = MANIFOLD_SOLID_BREP ( 'Chamfer1', #68 ) ;
#3 = ORIENTED_EDGE ( 'NONE', *, *, #221, .T. ) ;
#4 = EDGE_CURVE ( 'NONE', #79, #113, #170, .T. ) ;
#5 = DIRECTION ( 'NONE',  ( 0.000000000000000000, 0.000000000000000000, -1.000000000000000000 ) ) ;
#6 = STYLED_ITEM ( 'NONE', ( #57 ), #173 ) ;
#7 = CARTESIAN_POINT ( 'NONE',  ( 0.000000000000000000, 0.000000000000000000, -2.000000000000000000 ) ) ;
#8 = LINE ( 'NONE', #236, #111 ) ;
#9 = ORIENTED_EDGE ( 'NONE', *, *, #248, .T. ) ;
#10 = VERTEX_POINT ( 'NONE', #121 ) ;
#11 = AXIS2_PLACEMENT_3D ( 'NONE', #86, #155, #149 ) ;
#12 = LINE ( 'NONE', #204, #202 ) ;
#13 = CARTESIAN_POINT ( 'NONE',  ( 0.1000000000000005884, 0.000000000000000000, -2.000000000000000000 ) ) ;
#14 = DIRECTION ( 'NONE',  ( 1.000000000000000000, 0.000000000000000000, 0.000000000000000000 ) ) ;
#15 = AXIS2_PLACEMENT_3D ( 'NONE', #237, #220, #207 ) ;
#16 = CARTESIAN_POINT ( 'NONE',  ( -0.1250000000000000555, 0.000000000000000000, -1.975000000000000755 ) ) ;
#17 = AXIS2_PLACEMENT_3D ( 'NONE', #148, #41, #97 ) ;
#18 = DIMENSIONAL_EXPONENTS ( 1.000000000000000000, 0.000000000000000000, 0.000000000000000000, 0.000000000000000000, 0.000000000000000000, 0.000000000000000000, 0.000000000000000000 ) ;
#19 = ORIENTED_EDGE ( 'NONE', *, *, #82, .T. ) ;
#20 = PRESENTATION_LAYER_ASSIGNMENT (  '', '', ( #129 ) ) ;
#21 = EDGE_LOOP ( 'NONE', ( #142, #120 ) ) ;
#22 = ADVANCED_FACE ( 'NONE', ( #232 ), #99, .T. ) ;
#23 = FILL_AREA_STYLE_COLOUR ( '', #218 ) ;
#24 = ADVANCED_FACE ( 'NONE', ( #212 ), #224, .T. ) ;
#25 =( NAMED_UNIT ( * ) SI_UNIT ( $, .STERADIAN. ) SOLID_ANGLE_UNIT ( ) );
#26 = PRESENTATION_STYLE_ASSIGNMENT (( #233 ) ) ;
#27 = ORIENTED_EDGE ( 'NONE', *, *, #4, .F. ) ;
#28 = DIRECTION ( 'NONE',  ( -0.000000000000000000, -0.000000000000000000, 1.000000000000000000 ) ) ;
#29 = CONICAL_SURFACE ( 'NONE', #15, 0.1250000000000000555, 0.7853981633974510546 ) ;
#30 = DIRECTION ( 'NONE',  ( -0.000000000000000000, -0.000000000000000000, -1.000000000000000000 ) ) ;
#31 = LINE ( 'NONE', #85, #83 ) ;
#32 = DIRECTION ( 'NONE',  ( -0.000000000000000000, -0.000000000000000000, 1.000000000000000000 ) ) ;
#33 = AXIS2_PLACEMENT_3D ( 'NONE', #59, #95, #180 ) ;
#34 = CARTESIAN_POINT ( 'NONE',  ( 0.1250000000000000555, 1.530808498934192125E-17, 1.975000000000000089 ) ) ;
#35 = DIRECTION ( 'NONE',  ( -0.7071067811865494601, 8.659560562354955045E-17, 0.7071067811865454633 ) ) ;
#36 = PRODUCT_RELATED_PRODUCT_CATEGORY ( 'part', '', ( #162 ) ) ;
#37 =( CONVERSION_BASED_UNIT ( 'INCH', #39 ) LENGTH_UNIT ( ) NAMED_UNIT ( #158 ) );
#38 = EDGE_LOOP ( 'NONE', ( #229, #165 ) ) ;
#39 = LENGTH_MEASURE_WITH_UNIT ( LENGTH_MEASURE( 0.02539999999999999897 ), #243 );
#40 = CONICAL_SURFACE ( 'NONE', #184, 0.1000000000000000472, 0.7853981633974510546 ) ;
#41 = DIRECTION ( 'NONE',  ( 0.000000000000000000, 0.000000000000000000, -1.000000000000000000 ) ) ;
#42 =( NAMED_UNIT ( * ) PLANE_ANGLE_UNIT ( ) SI_UNIT ( $, .RADIAN. ) );
#43 = ORIENTED_EDGE ( 'NONE', *, *, #44, .T. ) ;
#44 = EDGE_CURVE ( 'NONE', #10, #80, #163, .T. ) ;
#45 = AXIS2_PLACEMENT_3D ( 'NONE', #222, #32, #190 ) ;
#46 = SURFACE_SIDE_STYLE ('',( #200 ) ) ;
#47 = CARTESIAN_POINT ( 'NONE',  ( 0.000000000000000000, 0.000000000000000000, 2.000000000000000000 ) ) ;
#48 = EDGE_CURVE ( 'NONE', #113, #79, #71, .T. ) ;
#49 = CARTESIAN_POINT ( 'NONE',  ( 0.000000000000000000, 0.000000000000000000, -2.000000000000000000 ) ) ;
#50 = PRESENTATION_LAYER_ASSIGNMENT (  '', '', ( #6 ) ) ;
#51 = DIRECTION ( 'NONE',  ( -1.000000000000000000, 0.000000000000000000, 0.000000000000000000 ) ) ;
#52 = DIRECTION ( 'NONE',  ( -0.7071067811865493491, 0.000000000000000000, -0.7071067811865454633 ) ) ;
#53 = CARTESIAN_POINT ( 'NONE',  ( -0.1250000000000000555, 1.530808498934191817E-17, -1.975000000000000755 ) ) ;
#54 = AXIS2_PLACEMENT_3D ( 'NONE', #116, #5, #77 ) ;
#55 = PRODUCT_CONTEXT ( 'NONE', #249, 'mechanical' ) ;
#56 = VERTEX_POINT ( 'NONE', #182 ) ;
#57 = PRESENTATION_STYLE_ASSIGNMENT (( #110 ) ) ;
#58 = SURFACE_SIDE_STYLE ('',( #211 ) ) ;
#59 = CARTESIAN_POINT ( 'NONE',  ( 0.000000000000000000, 0.000000000000000000, -2.000000000000000000 ) ) ;
#60 = VECTOR ( 'NONE', #203, 39.37007874015748854 ) ;
#61 = ORIENTED_EDGE ( 'NONE', *, *, #205, .F. ) ;
#62 = DIRECTION ( 'NONE',  ( -0.000000000000000000, -0.000000000000000000, -1.000000000000000000 ) ) ;
#63 = LENGTH_MEASURE_WITH_UNIT ( LENGTH_MEASURE( 0.02539999999999999897 ), #213 );
#64 = AXIS2_PLACEMENT_3D ( 'NONE', #186, #69, #14 ) ;
#65 = PLANE ( 'NONE',  #11 ) ;
#66 = FACE_OUTER_BOUND ( 'NONE', #228, .T. ) ;
#67 = FACE_OUTER_BOUND ( 'NONE', #38, .T. ) ;
#68 = CLOSED_SHELL ( 'NONE', ( #125, #103, #144, #22, #89, #135, #92, #24 ) ) ;
#69 = DIRECTION ( 'NONE',  ( 0.000000000000000000, 0.000000000000000000, 1.000000000000000000 ) ) ;
#70 = LINE ( 'NONE', #53, #106 ) ;
#71 = CIRCLE ( 'NONE', #230, 0.1000000000000005884 ) ;
#72 = EDGE_CURVE ( 'NONE', #178, #10, #8, .T. ) ;
#73 = LENGTH_MEASURE_WITH_UNIT ( LENGTH_MEASURE( 0.02539999999999999897 ), #192 );
#74 = ORIENTED_EDGE ( 'NONE', *, *, #161, .T. ) ;
#75 = VECTOR ( 'NONE', #153, 39.37007874015748143 ) ;
#76 = ORIENTED_EDGE ( 'NONE', *, *, #248, .F. ) ;
#77 = DIRECTION ( 'NONE',  ( 1.000000000000000000, 0.000000000000000000, 0.000000000000000000 ) ) ;
#78 = EDGE_CURVE ( 'NONE', #10, #246, #31, .T. ) ;
#79 = VERTEX_POINT ( 'NONE', #13 ) ;
#80 = VERTEX_POINT ( 'NONE', #34 ) ;
#81 = ORIENTED_EDGE ( 'NONE', *, *, #108, .T. ) ;
#82 = EDGE_CURVE ( 'NONE', #160, #246, #115, .T. ) ;
#83 = VECTOR ( 'NONE', #127, 39.37007874015748143 ) ;
#84 = PLANE ( 'NONE',  #141 ) ;
#85 = CARTESIAN_POINT ( 'NONE',  ( -0.1250000000000000555, 0.000000000000000000, 2.000000000000000000 ) ) ;
#86 = CARTESIAN_POINT ( 'NONE',  ( 0.000000000000000000, 0.000000000000000000, 2.000000000000000000 ) ) ;
#87 = CARTESIAN_POINT ( 'NONE',  ( 0.1250000000000000555, 1.530808498934192125E-17, -1.975000000000000755 ) ) ;
#88 = AXIS2_PLACEMENT_3D ( 'NONE', #139, #197, #118 ) ;
#89 = ADVANCED_FACE ( 'NONE', ( #67 ), #65, .T. ) ;
#90 = FACE_OUTER_BOUND ( 'NONE', #214, .T. ) ;
#91 = AXIS2_PLACEMENT_3D ( 'NONE', #223, #126, #241 ) ;
#92 = ADVANCED_FACE ( 'NONE', ( #174 ), #29, .T. ) ;
#93 = ORIENTED_EDGE ( 'NONE', *, *, #82, .F. ) ;
#94 = ORIENTED_EDGE ( 'NONE', *, *, #154, .F. ) ;
#95 = DIRECTION ( 'NONE',  ( -0.000000000000000000, -0.000000000000000000, -1.000000000000000000 ) ) ;
#96 = EDGE_CURVE ( 'NONE', #80, #10, #199, .T. ) ;
#97 = DIRECTION ( 'NONE',  ( -1.000000000000000000, 0.000000000000000000, 0.000000000000000000 ) ) ;
#98 = ORIENTED_EDGE ( 'NONE', *, *, #72, .F. ) ;
#99 = CYLINDRICAL_SURFACE ( 'NONE', #88, 0.1250000000000000555 ) ;
#100 = AXIS2_PLACEMENT_3D ( 'NONE', #47, #30, #122 ) ;
#101 = CARTESIAN_POINT ( 'NONE',  ( 0.000000000000000000, 0.000000000000000000, 2.000000000000000000 ) ) ;
#102 = DIRECTION ( 'NONE',  ( 0.7071067811865494601, 0.000000000000000000, 0.7071067811865454633 ) ) ;
#103 = ADVANCED_FACE ( 'NONE', ( #66 ), #140, .T. ) ;
#104 = CARTESIAN_POINT ( 'NONE',  ( -0.1000000000000005884, 1.377727649040775933E-17, -2.000000000000000000 ) ) ;
#105 = CYLINDRICAL_SURFACE ( 'NONE', #100, 0.1250000000000000555 ) ;
#106 = VECTOR ( 'NONE', #35, 39.37007874015748854 ) ;
#107 = DIRECTION ( 'NONE',  ( 1.000000000000000000, 0.000000000000000000, 0.000000000000000000 ) ) ;
#108 = EDGE_CURVE ( 'NONE', #56, #80, #185, .T. ) ;
#109 = APPLICATION_CONTEXT ( 'automotive_design' ) ;
#110 = SURFACE_STYLE_USAGE ( .BOTH. , #58 ) ;
#111 = VECTOR ( 'NONE', #52, 39.37007874015748854 ) ;
#112 = UNCERTAINTY_MEASURE_WITH_UNIT (LENGTH_MEASURE( 1.000000000000000082E-05 ), #117, 'distance_accuracy_value', 'NONE');
#113 = VERTEX_POINT ( 'NONE', #104 ) ;
#114 = FILL_AREA_STYLE ('',( #130 ) ) ;
#115 = CIRCLE ( 'NONE', #189, 0.1250000000000000555 ) ;
#116 = CARTESIAN_POINT ( 'NONE',  ( 0.000000000000000000, 0.000000000000000000, 1.975000000000000089 ) ) ;
#117 =( CONVERSION_BASED_UNIT ( 'INCH', #63 ) LENGTH_UNIT ( ) NAMED_UNIT ( #176 ) );
#118 = DIRECTION ( 'NONE',  ( -1.000000000000000000, 0.000000000000000000, 0.000000000000000000 ) ) ;
#119 = CIRCLE ( 'NONE', #91, 0.1000000000000000472 ) ;
#120 = ORIENTED_EDGE ( 'NONE', *, *, #48, .T. ) ;
#121 = CARTESIAN_POINT ( 'NONE',  ( -0.1250000000000000555, 0.000000000000000000, 1.975000000000000089 ) ) ;
#122 = DIRECTION ( 'NONE',  ( -1.000000000000000000, 0.000000000000000000, 0.000000000000000000 ) ) ;
#123 = CIRCLE ( 'NONE', #45, 0.1250000000000000555 ) ;
#124 = CARTESIAN_POINT ( 'NONE',  ( -0.1000000000000000472, 0.000000000000000000, 2.000000000000000000 ) ) ;
#125 = ADVANCED_FACE ( 'NONE', ( #90 ), #40, .T. ) ;
#126 = DIRECTION ( 'NONE',  ( 0.000000000000000000, 0.000000000000000000, 1.000000000000000000 ) ) ;
#127 = DIRECTION ( 'NONE',  ( -0.000000000000000000, -0.000000000000000000, -1.000000000000000000 ) ) ;
#128 = FACE_OUTER_BOUND ( 'NONE', #21, .T. ) ;
#129 = STYLED_ITEM ( 'NONE', ( #26 ), #2 ) ;
#130 = FILL_AREA_STYLE_COLOUR ( '', #167 ) ;
#131 = APPLICATION_PROTOCOL_DEFINITION ( 'draft international standard', 'automotive_design', 1998, #109 ) ;
#132 = PRODUCT_DEFINITION_SHAPE ( 'NONE', 'NONE',  #138 ) ;
#133 = AXIS2_PLACEMENT_3D ( 'NONE', #238, #28, #191 ) ;
#134 = ORIENTED_EDGE ( 'NONE', *, *, #78, .F. ) ;
#135 = ADVANCED_FACE ( 'NONE', ( #128 ), #84, .F. ) ;
#136 = EDGE_LOOP ( 'NONE', ( #61, #210, #231, #3 ) ) ;
#137 = APPLICATION_PROTOCOL_DEFINITION ( 'draft international standard', 'automotive_design', 1998, #249 ) ;
#138 = PRODUCT_DEFINITION ( 'General', '', #219, #152 ) ;
#139 = CARTESIAN_POINT ( 'NONE',  ( 0.000000000000000000, 0.000000000000000000, 2.000000000000000000 ) ) ;
#140 = CONICAL_SURFACE ( 'NONE', #133, 0.1250000000000000555, 0.7853981633974510546 ) ;
#141 = AXIS2_PLACEMENT_3D ( 'NONE', #49, #188, #150 ) ;
#142 = ORIENTED_EDGE ( 'NONE', *, *, #4, .T. ) ;
#143 = ORIENTED_EDGE ( 'NONE', *, *, #44, .F. ) ;
#144 = ADVANCED_FACE ( 'NONE', ( #217 ), #105, .T. ) ;
#145 = ORIENTED_EDGE ( 'NONE', *, *, #221, .F. ) ;
#146 = MECHANICAL_DESIGN_GEOMETRIC_PRESENTATION_REPRESENTATION (  '', ( #6 ), #181 ) ;
#147 = AXIS2_PLACEMENT_3D ( 'NONE', #159, #225, #227 ) ;
#148 = CARTESIAN_POINT ( 'NONE',  ( 0.000000000000000000, 0.000000000000000000, 2.000000000000000000 ) ) ;
#149 = DIRECTION ( 'NONE',  ( 1.000000000000000000, 0.000000000000000000, -0.000000000000000000 ) ) ;
#150 = DIRECTION ( 'NONE',  ( 1.000000000000000000, 0.000000000000000000, -0.000000000000000000 ) ) ;
#151 = DIRECTION ( 'NONE',  ( 0.000000000000000000, 0.000000000000000000, -1.000000000000000000 ) ) ;
#152 = PRODUCT_DEFINITION_CONTEXT ( 'detailed design', #109, 'design' ) ;
#153 = DIRECTION ( 'NONE',  ( -0.000000000000000000, -0.000000000000000000, -1.000000000000000000 ) ) ;
#154 = EDGE_CURVE ( 'NONE', #178, #56, #179, .T. ) ;
#155 = DIRECTION ( 'NONE',  ( 0.000000000000000000, 0.000000000000000000, 1.000000000000000000 ) ) ;
#156 =( NAMED_UNIT ( * ) PLANE_ANGLE_UNIT ( ) SI_UNIT ( $, .RADIAN. ) );
#157 =( GEOMETRIC_REPRESENTATION_CONTEXT ( 3 ) GLOBAL_UNCERTAINTY_ASSIGNED_CONTEXT ( ( #245 ) ) GLOBAL_UNIT_ASSIGNED_CONTEXT ( ( #37, #156, #193 ) ) REPRESENTATION_CONTEXT ( 'NONE', 'WORKASPACE' ) );
#158 = DIMENSIONAL_EXPONENTS ( 1.000000000000000000, 0.000000000000000000, 0.000000000000000000, 0.000000000000000000, 0.000000000000000000, 0.000000000000000000, 0.000000000000000000 ) ;
#159 = CARTESIAN_POINT ( 'NONE',  ( 0.000000000000000000, 0.000000000000000000, 0.000000000000000000 ) ) ;
#160 = VERTEX_POINT ( 'NONE', #87 ) ;
#161 = EDGE_CURVE ( 'NONE', #79, #160, #12, .T. ) ;
#162 = PRODUCT ( '1886K1_Rotary Shaft_1886K1', '1886K1_Rotary Shaft_1886K1', '', ( #55 ) ) ;
#163 = CIRCLE ( 'NONE', #54, 0.1250000000000000555 ) ;
#164 =( NAMED_UNIT ( * ) SI_UNIT ( $, .STERADIAN. ) SOLID_ANGLE_UNIT ( ) );
#165 = ORIENTED_EDGE ( 'NONE', *, *, #187, .T. ) ;
#166 = EDGE_LOOP ( 'NONE', ( #234, #94, #226, #183 ) ) ;
#167 = COLOUR_RGB ( '',0.9568627450980391469, 0.9568627450980391469, 0.9568627450980391469 ) ;
#168 = FILL_AREA_STYLE ('',( #23 ) ) ;
#169 = EDGE_LOOP ( 'NONE', ( #76, #27, #74, #145 ) ) ;
#170 = CIRCLE ( 'NONE', #33, 0.1000000000000005884 ) ;
#171 = CARTESIAN_POINT ( 'NONE',  ( 0.000000000000000000, 0.000000000000000000, 1.975000000000000089 ) ) ;
#172 = DIRECTION ( 'NONE',  ( 1.000000000000000000, 0.000000000000000000, 0.000000000000000000 ) ) ;
#173 = ADVANCED_BREP_SHAPE_REPRESENTATION ( '1886K1_Rotary Shaft_1886K1', ( #2, #147 ), #157 ) ;
#174 = FACE_OUTER_BOUND ( 'NONE', #169, .T. ) ;
#175 = CARTESIAN_POINT ( 'NONE',  ( 0.1000000000000000472, 1.224646799147353731E-17, 2.000000000000000000 ) ) ;
#176 = DIMENSIONAL_EXPONENTS ( 1.000000000000000000, 0.000000000000000000, 0.000000000000000000, 0.000000000000000000, 0.000000000000000000, 0.000000000000000000, 0.000000000000000000 ) ;
#177 = LINE ( 'NONE', #206, #75 ) ;
#178 = VERTEX_POINT ( 'NONE', #124 ) ;
#179 = CIRCLE ( 'NONE', #64, 0.1000000000000000472 ) ;
#180 = DIRECTION ( 'NONE',  ( 1.000000000000000000, 0.000000000000000000, 0.000000000000000000 ) ) ;
#181 =( GEOMETRIC_REPRESENTATION_CONTEXT ( 3 ) GLOBAL_UNCERTAINTY_ASSIGNED_CONTEXT ( ( #240 ) ) GLOBAL_UNIT_ASSIGNED_CONTEXT ( ( #195, #1, #164 ) ) REPRESENTATION_CONTEXT ( 'NONE', 'WORKASPACE' ) );
#182 = CARTESIAN_POINT ( 'NONE',  ( 0.1000000000000000472, 1.377727649040772851E-17, 2.000000000000000000 ) ) ;
#183 = ORIENTED_EDGE ( 'NONE', *, *, #96, .F. ) ;
#184 = AXIS2_PLACEMENT_3D ( 'NONE', #101, #151, #51 ) ;
#185 = LINE ( 'NONE', #175, #60 ) ;
#186 = CARTESIAN_POINT ( 'NONE',  ( 0.000000000000000000, 0.000000000000000000, 2.000000000000000000 ) ) ;
#187 = EDGE_CURVE ( 'NONE', #56, #178, #119, .T. ) ;
#188 = DIRECTION ( 'NONE',  ( 0.000000000000000000, 0.000000000000000000, 1.000000000000000000 ) ) ;
#189 = AXIS2_PLACEMENT_3D ( 'NONE', #201, #242, #172 ) ;
#190 = DIRECTION ( 'NONE',  ( 1.000000000000000000, 0.000000000000000000, 0.000000000000000000 ) ) ;
#191 = DIRECTION ( 'NONE',  ( 1.000000000000000000, 0.000000000000000000, 0.000000000000000000 ) ) ;
#192 =( LENGTH_UNIT ( ) NAMED_UNIT ( * ) SI_UNIT ( $, .METRE. ) );
#193 =( NAMED_UNIT ( * ) SI_UNIT ( $, .STERADIAN. ) SOLID_ANGLE_UNIT ( ) );
#194 = ORIENTED_EDGE ( 'NONE', *, *, #205, .T. ) ;
#195 =( CONVERSION_BASED_UNIT ( 'INCH', #73 ) LENGTH_UNIT ( ) NAMED_UNIT ( #18 ) );
#196 = ORIENTED_EDGE ( 'NONE', *, *, #48, .F. ) ;
#197 = DIRECTION ( 'NONE',  ( -0.000000000000000000, -0.000000000000000000, -1.000000000000000000 ) ) ;
#198 = DIRECTION ( 'NONE',  ( 1.000000000000000000, 0.000000000000000000, 0.000000000000000000 ) ) ;
#199 = CIRCLE ( 'NONE', #239, 0.1250000000000000555 ) ;
#200 = SURFACE_STYLE_FILL_AREA ( #168 ) ;
#201 = CARTESIAN_POINT ( 'NONE',  ( 0.000000000000000000, 0.000000000000000000, -1.975000000000000755 ) ) ;
#202 = VECTOR ( 'NONE', #102, 39.37007874015748854 ) ;
#203 = DIRECTION ( 'NONE',  ( 0.7071067811865493491, 8.659560562354955045E-17, -0.7071067811865454633 ) ) ;
#204 = CARTESIAN_POINT ( 'NONE',  ( 0.1250000000000000555, 0.000000000000000000, -1.975000000000000755 ) ) ;
#205 = EDGE_CURVE ( 'NONE', #80, #160, #177, .T. ) ;
#206 = CARTESIAN_POINT ( 'NONE',  ( 0.1250000000000000555, 1.530808498934192125E-17, 2.000000000000000000 ) ) ;
#207 = DIRECTION ( 'NONE',  ( 1.000000000000000000, 0.000000000000000000, 0.000000000000000000 ) ) ;
#208 = SHAPE_DEFINITION_REPRESENTATION ( #132, #173 ) ;
#209 = EDGE_LOOP ( 'NONE', ( #43, #194, #19, #134 ) ) ;
#210 = ORIENTED_EDGE ( 'NONE', *, *, #96, .T. ) ;
#211 = SURFACE_STYLE_FILL_AREA ( #114 ) ;
#212 = FACE_OUTER_BOUND ( 'NONE', #166, .T. ) ;
#213 =( LENGTH_UNIT ( ) NAMED_UNIT ( * ) SI_UNIT ( $, .METRE. ) );
#214 = EDGE_LOOP ( 'NONE', ( #215, #81, #143, #98 ) ) ;
#215 = ORIENTED_EDGE ( 'NONE', *, *, #187, .F. ) ;
#216 = DIRECTION ( 'NONE',  ( 0.000000000000000000, 0.000000000000000000, -1.000000000000000000 ) ) ;
#217 = FACE_OUTER_BOUND ( 'NONE', #209, .T. ) ;
#218 = COLOUR_RGB ( '',0.9568627450980391469, 0.9568627450980391469, 0.9568627450980391469 ) ;
#219 = PRODUCT_DEFINITION_FORMATION_WITH_SPECIFIED_SOURCE ( 'Symmetric', '', #162, .NOT_KNOWN. ) ;
#220 = DIRECTION ( 'NONE',  ( -0.000000000000000000, -0.000000000000000000, 1.000000000000000000 ) ) ;
#221 = EDGE_CURVE ( 'NONE', #246, #160, #123, .T. ) ;
#222 = CARTESIAN_POINT ( 'NONE',  ( 0.000000000000000000, 0.000000000000000000, -1.975000000000000755 ) ) ;
#223 = CARTESIAN_POINT ( 'NONE',  ( 0.000000000000000000, 0.000000000000000000, 2.000000000000000000 ) ) ;
#224 = CONICAL_SURFACE ( 'NONE', #17, 0.1000000000000000472, 0.7853981633974510546 ) ;
#225 = DIRECTION ( 'NONE',  ( 0.000000000000000000, 0.000000000000000000, 1.000000000000000000 ) ) ;
#226 = ORIENTED_EDGE ( 'NONE', *, *, #72, .T. ) ;
#227 = DIRECTION ( 'NONE',  ( 1.000000000000000000, 0.000000000000000000, 0.000000000000000000 ) ) ;
#228 = EDGE_LOOP ( 'NONE', ( #196, #9, #93, #247 ) ) ;
#229 = ORIENTED_EDGE ( 'NONE', *, *, #154, .T. ) ;
#230 = AXIS2_PLACEMENT_3D ( 'NONE', #7, #62, #198 ) ;
#231 = ORIENTED_EDGE ( 'NONE', *, *, #78, .T. ) ;
#232 = FACE_OUTER_BOUND ( 'NONE', #136, .T. ) ;
#233 = SURFACE_STYLE_USAGE ( .BOTH. , #46 ) ;
#234 = ORIENTED_EDGE ( 'NONE', *, *, #108, .F. ) ;
#235 =( GEOMETRIC_REPRESENTATION_CONTEXT ( 3 ) GLOBAL_UNCERTAINTY_ASSIGNED_CONTEXT ( ( #112 ) ) GLOBAL_UNIT_ASSIGNED_CONTEXT ( ( #117, #42, #25 ) ) REPRESENTATION_CONTEXT ( 'NONE', 'WORKASPACE' ) );
#236 = CARTESIAN_POINT ( 'NONE',  ( -0.1000000000000000472, 0.000000000000000000, 2.000000000000000000 ) ) ;
#237 = CARTESIAN_POINT ( 'NONE',  ( 0.000000000000000000, 0.000000000000000000, -1.975000000000000755 ) ) ;
#238 = CARTESIAN_POINT ( 'NONE',  ( 0.000000000000000000, 0.000000000000000000, -1.975000000000000755 ) ) ;
#239 = AXIS2_PLACEMENT_3D ( 'NONE', #171, #216, #107 ) ;
#240 = UNCERTAINTY_MEASURE_WITH_UNIT (LENGTH_MEASURE( 1.000000000000000082E-05 ), #195, 'distance_accuracy_value', 'NONE');
#241 = DIRECTION ( 'NONE',  ( 1.000000000000000000, 0.000000000000000000, 0.000000000000000000 ) ) ;
#242 = DIRECTION ( 'NONE',  ( -0.000000000000000000, -0.000000000000000000, 1.000000000000000000 ) ) ;
#243 =( LENGTH_UNIT ( ) NAMED_UNIT ( * ) SI_UNIT ( $, .METRE. ) );
#244 = MECHANICAL_DESIGN_GEOMETRIC_PRESENTATION_REPRESENTATION (  '', ( #129 ), #235 ) ;
#245 = UNCERTAINTY_MEASURE_WITH_UNIT (LENGTH_MEASURE( 1.000000000000000082E-05 ), #37, 'distance_accuracy_value', 'NONE');
#246 = VERTEX_POINT ( 'NONE', #16 ) ;
#247 = ORIENTED_EDGE ( 'NONE', *, *, #161, .F. ) ;
#248 = EDGE_CURVE ( 'NONE', #113, #246, #70, .T. ) ;
#249 = APPLICATION_CONTEXT ( 'automotive_design' ) ;
ENDSEC;
END-ISO-10303-21;
