ISO-10303-21;
HEADER;
FILE_DESCRIPTION (( 'STEP AP214' ),
    '1' );
FILE_NAME ('1_8 NPT - 1_4 Inch Push to Connect Elbow Fitting.step.STEP',
    '2026-09-04T22:05:10',
    ( '' ),
    ( '' ),
    'SwSTEP 2.0',
    'SolidWorks 2026',
    '' );
FILE_SCHEMA (( 'AUTOMOTIVE_DESIGN' ));
ENDSEC;

DATA;
#1 = APPLIED_DOCUMENT_REFERENCE ( #90,'',( #139) ) ;
#2 = SHAPE_REPRESENTATION ( '1_8 NPT - 1_4 Inch Push to Connect Elbow Fitting.step', ( #120, #164, #26, #176, #134 ), #14 ) ;
#3 = ITEM_DEFINED_TRANSFORMATION ( 'NONE', 'NONE', #134,  #8 ) ;
#4 = EXTERNAL_SOURCE (IDENTIFIER('') ) ;
#5 =( NAMED_UNIT ( * ) SI_UNIT ( $, .STERADIAN. ) SOLID_ANGLE_UNIT ( ) );
#6 = PROPERTY_DEFINITION ('document property','', #52 ) ;
#7 = DIRECTION ( 'NONE',  ( -1.000000000000000000, -3.189258362495247092E-22, 6.529979999999997958E-10 ) ) ;
#8 = AXIS2_PLACEMENT_3D ( 'NONE', #19, #81, #84 ) ;
#9 = PRODUCT_CONTEXT ( 'NONE', #56, 'mechanical' ) ;
#10 = IDENTIFICATION_ROLE ( 'external document id and location', $) ;
#11 = PRODUCT_CONTEXT ( 'NONE', #101, 'mechanical' ) ;
#12 = PRODUCT_DEFINITION_CONTEXT ( 'detailed design', #146, 'design' ) ;
#13 = SHAPE_DEFINITION_REPRESENTATION ( #96, #179 ) ;
#14 =( GEOMETRIC_REPRESENTATION_CONTEXT ( 3 ) GLOBAL_UNCERTAINTY_ASSIGNED_CONTEXT ( ( #30 ) ) GLOBAL_UNIT_ASSIGNED_CONTEXT ( ( #106, #29, #62 ) ) REPRESENTATION_CONTEXT ( 'NONE', 'WORKASPACE' ) );
#15 = DOCUMENT_TYPE ( 'geometry' ) ;
#16 = APPLIED_DOCUMENT_REFERENCE ( #181,'',( #85) ) ;
#17 = PRODUCT_DEFINITION_SHAPE ( 'NONE', 'NONE',  #192 ) ;
#18 = APPLIED_EXTERNAL_IDENTIFICATION_ASSIGNMENT ( 'Body022.step.STEP' , #99, #173,( #161) ) ;
#19 = CARTESIAN_POINT ( 'NONE',  ( 0.000000000000000000, 0.000000000000000000, 0.000000000000000000 ) ) ;
#20 =( GEOMETRIC_REPRESENTATION_CONTEXT ( 3 ) GLOBAL_UNCERTAINTY_ASSIGNED_CONTEXT ( ( #167 ) ) GLOBAL_UNIT_ASSIGNED_CONTEXT ( ( #166, #100, #165 ) ) REPRESENTATION_CONTEXT ( 'NONE', 'WORKASPACE' ) );
#21 = PRODUCT_DEFINITION ( 'General', '', #94, #128 ) ;
#22 = PRODUCT_DEFINITION_SHAPE ( 'NONE', 'NONE',  #193 ) ;
#23 = PRODUCT_CONTEXT ( 'NONE', #140, 'mechanical' ) ;
#24 = PROPERTY_DEFINITION_REPRESENTATION ( #98, #156 ) ;
#25 = PRODUCT_DEFINITION_CONTEXT ( 'detailed design', #32, 'design' ) ;
#26 = AXIS2_PLACEMENT_3D ( 'NONE', #141, #65, #63 ) ;
#27 = CARTESIAN_POINT ( 'NONE',  ( 0.000000000000000000, 0.000000000000000000, 0.000000000000000000 ) ) ;
#28 = APPLICATION_PROTOCOL_DEFINITION ( 'draft international standard', 'automotive_design', 1998, #140 ) ;
#29 =( NAMED_UNIT ( * ) PLANE_ANGLE_UNIT ( ) SI_UNIT ( $, .RADIAN. ) );
#30 = UNCERTAINTY_MEASURE_WITH_UNIT (LENGTH_MEASURE( 1.000000000000000082E-05 ), #106, 'distance_accuracy_value', 'NONE');
#31 = CONTEXT_DEPENDENT_SHAPE_REPRESENTATION ( #37, #185 ) ;
#32 = APPLICATION_CONTEXT ( 'automotive_design' ) ;
#33 = PRODUCT_DEFINITION_SHAPE ( 'NONE', 'NONE',  #21 ) ;
#34 = ROLE_ASSOCIATION ( #64, #79 ) ;
#35 = PROPERTY_DEFINITION ('external definition','', #90 ) ;
#36 = APPLIED_DOCUMENT_REFERENCE ( #52,'',( #104) ) ;
#37 =( REPRESENTATION_RELATIONSHIP ('NONE','NONE', #2, #179 ) REPRESENTATION_RELATIONSHIP_WITH_TRANSFORMATION ( #3 )SHAPE_REPRESENTATION_RELATIONSHIP( ) );
#38 =( NAMED_UNIT ( * ) PLANE_ANGLE_UNIT ( ) SI_UNIT ( $, .RADIAN. ) );
#39 =( LENGTH_UNIT ( ) NAMED_UNIT ( * ) SI_UNIT ( .MILLI., .METRE. ) );
#40 =( NAMED_UNIT ( * ) PLANE_ANGLE_UNIT ( ) SI_UNIT ( $, .RADIAN. ) );
#41 = PROPERTY_DEFINITION ('document property','', #181 ) ;
#42 = APPLICATION_CONTEXT ( 'automotive_design' ) ;
#43 = DIRECTION ( 'NONE',  ( 1.000000000000000000, 0.000000000000000000, 0.000000000000000000 ) ) ;
#44 = PRODUCT_DEFINITION_FORMATION_WITH_SPECIFIED_SOURCE ( 'Symmetric', '', #150, .NOT_KNOWN. ) ;
#45 = APPLICATION_PROTOCOL_DEFINITION ( 'draft international standard', 'automotive_design', 1998, #153 ) ;
#46 = UNCERTAINTY_MEASURE_WITH_UNIT (LENGTH_MEASURE( 1.000000000000000082E-05 ), #184, 'distance_accuracy_value', 'NONE');
#47 = PRODUCT_RELATED_PRODUCT_CATEGORY ( 'part', '', ( #69 ) ) ;
#48 = DIRECTION ( 'NONE',  ( -3.189983335527906517E-22, -1.000000000000000444, 6.529968889776976349E-10 ) ) ;
#49 = DIRECTION ( 'NONE',  ( 0.000000000000000000, 0.000000000000000000, 1.000000000000000000 ) ) ;
#50 = DIRECTION ( 'NONE',  ( 1.000000000000000000, 3.189983335527906517E-22, 1.285638171674891780E-25 ) ) ;
#51 = PRODUCT ( 'Body023.step', 'Body023.step', '', ( #9 ) ) ;
#52 = DOCUMENT_FILE ( 'Cut.step.STEP' , '', '', #15, '' ,$ ) ;
#53 = CONTEXT_DEPENDENT_SHAPE_REPRESENTATION ( #149, #17 ) ;
#54 = PROPERTY_DEFINITION ('external definition','', #52 ) ;
#55 = PROPERTY_DEFINITION ('external definition','', #161 ) ;
#56 = APPLICATION_CONTEXT ( 'automotive_design' ) ;
#57 = DIRECTION ( 'NONE',  ( 1.000000000000000000, 0.000000000000000000, 0.000000000000000000 ) ) ;
#58 = ROLE_ASSOCIATION ( #117, #1 ) ;
#59 = AXIS2_PLACEMENT_3D ( 'NONE', #72, #123, #57 ) ;
#60 = APPLICATION_PROTOCOL_DEFINITION ( 'draft international standard', 'automotive_design', 1998, #42 ) ;
#61 = PRODUCT_DEFINITION_CONTEXT ( 'detailed design', #109, 'design' ) ;
#62 =( NAMED_UNIT ( * ) SI_UNIT ( $, .STERADIAN. ) SOLID_ANGLE_UNIT ( ) );
#63 = DIRECTION ( 'NONE',  ( -3.189983335527906517E-22, -1.000000000000000444, 6.529968889776976349E-10 ) ) ;
#64 = OBJECT_ROLE ('mandatory',$ ) ;
#65 = DIRECTION ( 'NONE',  ( -1.000000000000000000, -3.189258362495247092E-22, 6.529979999999997958E-10 ) ) ;
#66 = DOCUMENT_TYPE ( 'geometry' ) ;
#67 = ROLE_ASSOCIATION ( #103, #36 ) ;
#68 = PRODUCT_DEFINITION_FORMATION_WITH_SPECIFIED_SOURCE ( 'Symmetric', '', #137, .NOT_KNOWN. ) ;
#69 = PRODUCT ( 'Body003.step', 'Body003.step', '', ( #23 ) ) ;
#70 = PRODUCT_DEFINITION_SHAPE ( 'NONE', 'NONE',  #139 ) ;
#71 = APPLIED_EXTERNAL_IDENTIFICATION_ASSIGNMENT ( 'Body023.step.STEP' , #188, #190,( #181) ) ;
#72 = CARTESIAN_POINT ( 'NONE',  ( 0.000000000000000000, 0.000000000000000000, 0.000000000000000000 ) ) ;
#73 =( NAMED_UNIT ( * ) SI_UNIT ( $, .STERADIAN. ) SOLID_ANGLE_UNIT ( ) );
#74 = ITEM_DEFINED_TRANSFORMATION ( 'NONE', 'NONE', #164,  #108 ) ;
#75 = SHAPE_DEFINITION_REPRESENTATION ( #121, #170 ) ;
#76 = CONTEXT_DEPENDENT_SHAPE_REPRESENTATION ( #113, #83 ) ;
#77 = PRODUCT_RELATED_PRODUCT_CATEGORY ( 'part', '', ( #51 ) ) ;
#78 = PROPERTY_DEFINITION_REPRESENTATION ( #41, #82 ) ;
#79 = APPLIED_DOCUMENT_REFERENCE ( #161,'',( #132) ) ;
#80 =( GEOMETRIC_REPRESENTATION_CONTEXT ( 3 ) GLOBAL_UNCERTAINTY_ASSIGNED_CONTEXT ( ( #89 ) ) GLOBAL_UNIT_ASSIGNED_CONTEXT ( ( #148, #40, #130 ) ) REPRESENTATION_CONTEXT ( 'NONE', 'WORKASPACE' ) );
#81 = DIRECTION ( 'NONE',  ( 0.000000000000000000, 0.000000000000000000, 1.000000000000000000 ) ) ;
#82 = SHAPE_REPRESENTATION ( 'Body023.step', ( #147 ), #20 ) ;
#83 = PRODUCT_DEFINITION_SHAPE ( 'NONE', 'NONE',  #191 ) ;
#84 = DIRECTION ( 'NONE',  ( 1.000000000000000000, 0.000000000000000000, 0.000000000000000000 ) ) ;
#85 = PRODUCT_DEFINITION ( 'General', '', #187, #133 ) ;
#86 = APPLICATION_CONTEXT ( 'automotive_design' ) ;
#87 = APPLICATION_PROTOCOL_DEFINITION ( 'draft international standard', 'automotive_design', 1998, #32 ) ;
#88 = PRODUCT_CONTEXT ( 'NONE', #91, 'mechanical' ) ;
#89 = UNCERTAINTY_MEASURE_WITH_UNIT (LENGTH_MEASURE( 1.000000000000000082E-05 ), #148, 'distance_accuracy_value', 'NONE');
#90 = DOCUMENT_FILE ( 'Body003.step.STEP' , '', '', #162, '' ,$ ) ;
#91 = APPLICATION_CONTEXT ( 'automotive_design' ) ;
#92 = APPLICATION_PROTOCOL_DEFINITION ( 'draft international standard', 'automotive_design', 1998, #91 ) ;
#93 = APPLIED_EXTERNAL_IDENTIFICATION_ASSIGNMENT ( 'Body003.step.STEP' , #142, #180,( #90) ) ;
#94 = PRODUCT_DEFINITION_FORMATION_WITH_SPECIFIED_SOURCE ( 'Symmetric', '', #111, .NOT_KNOWN. ) ;
#95 = PROPERTY_DEFINITION_REPRESENTATION ( #183, #82 ) ;
#96 = PRODUCT_DEFINITION_SHAPE ( 'NONE', 'NONE',  #104 ) ;
#97 = CONTEXT_DEPENDENT_SHAPE_REPRESENTATION ( #124, #22 ) ;
#98 = PROPERTY_DEFINITION ('document property','', #90 ) ;
#99 = IDENTIFICATION_ROLE ( 'external document id and location', $) ;
#100 =( NAMED_UNIT ( * ) PLANE_ANGLE_UNIT ( ) SI_UNIT ( $, .RADIAN. ) );
#101 = APPLICATION_CONTEXT ( 'automotive_design' ) ;
#102 = DIRECTION ( 'NONE',  ( -1.000000000000000000, -3.189258362495247092E-22, 6.529979999999997958E-10 ) ) ;
#103 = OBJECT_ROLE ('mandatory',$ ) ;
#104 = PRODUCT_DEFINITION ( 'General', '', #44, #61 ) ;
#105 = APPLICATION_PROTOCOL_DEFINITION ( 'draft international standard', 'automotive_design', 1998, #86 ) ;
#106 =( LENGTH_UNIT ( ) NAMED_UNIT ( * ) SI_UNIT ( .MILLI., .METRE. ) );
#107 = PRODUCT_DEFINITION_SHAPE ( 'NONE', 'NONE',  #85 ) ;
#108 = AXIS2_PLACEMENT_3D ( 'NONE', #163, #152, #112 ) ;
#109 = APPLICATION_CONTEXT ( 'automotive_design' ) ;
#110 = CARTESIAN_POINT ( 'NONE',  ( 0.000000000000000000, 0.000000000000000000, 0.000000000000000000 ) ) ;
#111 = PRODUCT ( '1_8 NPT - 1_4 Inch Push to Connect Elbow Fitting.step', '1_8 NPT - 1_4 Inch Push to Connect Elbow Fitting.step', '', ( #169 ) ) ;
#112 = DIRECTION ( 'NONE',  ( 1.000000000000000000, 0.000000000000000000, 0.000000000000000000 ) ) ;
#113 =( REPRESENTATION_RELATIONSHIP ('NONE','NONE', #2, #156 ) REPRESENTATION_RELATIONSHIP_WITH_TRANSFORMATION ( #74 )SHAPE_REPRESENTATION_RELATIONSHIP( ) );
#114 =( GEOMETRIC_REPRESENTATION_CONTEXT ( 3 ) GLOBAL_UNCERTAINTY_ASSIGNED_CONTEXT ( ( #125 ) ) GLOBAL_UNIT_ASSIGNED_CONTEXT ( ( #39, #38, #73 ) ) REPRESENTATION_CONTEXT ( 'NONE', 'WORKASPACE' ) );
#115 = PROPERTY_DEFINITION_REPRESENTATION ( #35, #156 ) ;
#116 = CARTESIAN_POINT ( 'NONE',  ( 0.000000000000000000, 0.000000000000000000, 0.000000000000000000 ) ) ;
#117 = OBJECT_ROLE ('mandatory',$ ) ;
#118 = PROPERTY_DEFINITION_REPRESENTATION ( #55, #170 ) ;
#119 =( GEOMETRIC_REPRESENTATION_CONTEXT ( 3 ) GLOBAL_UNCERTAINTY_ASSIGNED_CONTEXT ( ( #46 ) ) GLOBAL_UNIT_ASSIGNED_CONTEXT ( ( #184, #182, #5 ) ) REPRESENTATION_CONTEXT ( 'NONE', 'WORKASPACE' ) );
#120 = AXIS2_PLACEMENT_3D ( 'NONE', #151, #49, #154 ) ;
#121 = PRODUCT_DEFINITION_SHAPE ( 'NONE', 'NONE',  #132 ) ;
#122 = DIRECTION ( 'NONE',  ( 0.000000000000000000, 0.000000000000000000, 1.000000000000000000 ) ) ;
#123 = DIRECTION ( 'NONE',  ( 0.000000000000000000, 0.000000000000000000, 1.000000000000000000 ) ) ;
#124 =( REPRESENTATION_RELATIONSHIP ('NONE','NONE', #2, #82 ) REPRESENTATION_RELATIONSHIP_WITH_TRANSFORMATION ( #145 )SHAPE_REPRESENTATION_RELATIONSHIP( ) );
#125 = UNCERTAINTY_MEASURE_WITH_UNIT (LENGTH_MEASURE( 1.000000000000000082E-05 ), #39, 'distance_accuracy_value', 'NONE');
#126 = APPLICATION_PROTOCOL_DEFINITION ( 'draft international standard', 'automotive_design', 1998, #101 ) ;
#127 = SHAPE_DEFINITION_REPRESENTATION ( #70, #156 ) ;
#128 = PRODUCT_DEFINITION_CONTEXT ( 'detailed design', #153, 'design' ) ;
#129 = PRODUCT_RELATED_PRODUCT_CATEGORY ( 'part', '', ( #111 ) ) ;
#130 =( NAMED_UNIT ( * ) SI_UNIT ( $, .STERADIAN. ) SOLID_ANGLE_UNIT ( ) );
#131 = SHAPE_DEFINITION_REPRESENTATION ( #107, #82 ) ;
#132 = PRODUCT_DEFINITION ( 'General', '', #68, #12 ) ;
#133 = PRODUCT_DEFINITION_CONTEXT ( 'detailed design', #42, 'design' ) ;
#134 = AXIS2_PLACEMENT_3D ( 'NONE', #171, #172, #50 ) ;
#135 = ROLE_ASSOCIATION ( #186, #16 ) ;
#136 = DOCUMENT_TYPE ( 'geometry' ) ;
#137 = PRODUCT ( 'Body022.step', 'Body022.step', '', ( #11 ) ) ;
#138 = SHAPE_DEFINITION_REPRESENTATION ( #33, #2 ) ;
#139 = PRODUCT_DEFINITION ( 'General', '', #168, #25 ) ;
#140 = APPLICATION_CONTEXT ( 'automotive_design' ) ;
#141 = CARTESIAN_POINT ( 'NONE',  ( 0.000000000000000000, 0.000000000000000000, 0.000000000000000000 ) ) ;
#142 = IDENTIFICATION_ROLE ( 'external document id and location', $) ;
#143 = ITEM_DEFINED_TRANSFORMATION ( 'NONE', 'NONE', #26,  #59 ) ;
#144 = APPLIED_EXTERNAL_IDENTIFICATION_ASSIGNMENT ( 'Cut.step.STEP' , #10, #4,( #52) ) ;
#145 = ITEM_DEFINED_TRANSFORMATION ( 'NONE', 'NONE', #176,  #147 ) ;
#146 = APPLICATION_CONTEXT ( 'automotive_design' ) ;
#147 = AXIS2_PLACEMENT_3D ( 'NONE', #110, #122, #43 ) ;
#148 =( LENGTH_UNIT ( ) NAMED_UNIT ( * ) SI_UNIT ( .MILLI., .METRE. ) );
#149 =( REPRESENTATION_RELATIONSHIP ('NONE','NONE', #2, #170 ) REPRESENTATION_RELATIONSHIP_WITH_TRANSFORMATION ( #143 )SHAPE_REPRESENTATION_RELATIONSHIP( ) );
#150 = PRODUCT ( 'Cut.step', 'Cut.step', '', ( #88 ) ) ;
#151 = CARTESIAN_POINT ( 'NONE',  ( 0.000000000000000000, 0.000000000000000000, 0.000000000000000000 ) ) ;
#152 = DIRECTION ( 'NONE',  ( 0.000000000000000000, 0.000000000000000000, 1.000000000000000000 ) ) ;
#153 = APPLICATION_CONTEXT ( 'automotive_design' ) ;
#154 = DIRECTION ( 'NONE',  ( 1.000000000000000000, 0.000000000000000000, 0.000000000000000000 ) ) ;
#155 = APPLICATION_PROTOCOL_DEFINITION ( 'draft international standard', 'automotive_design', 1998, #146 ) ;
#156 = SHAPE_REPRESENTATION ( 'Body003.step', ( #108 ), #114 ) ;
#157 = PRODUCT_RELATED_PRODUCT_CATEGORY ( 'part', '', ( #150 ) ) ;
#158 = APPLICATION_PROTOCOL_DEFINITION ( 'draft international standard', 'automotive_design', 1998, #56 ) ;
#159 = PROPERTY_DEFINITION_REPRESENTATION ( #6, #179 ) ;
#160 = PRODUCT_RELATED_PRODUCT_CATEGORY ( 'part', '', ( #137 ) ) ;
#161 = DOCUMENT_FILE ( 'Body022.step.STEP' , '', '', #136, '' ,$ ) ;
#162 = DOCUMENT_TYPE ( 'geometry' ) ;
#163 = CARTESIAN_POINT ( 'NONE',  ( 0.000000000000000000, 0.000000000000000000, 0.000000000000000000 ) ) ;
#164 = AXIS2_PLACEMENT_3D ( 'NONE', #27, #102, #189 ) ;
#165 =( NAMED_UNIT ( * ) SI_UNIT ( $, .STERADIAN. ) SOLID_ANGLE_UNIT ( ) );
#166 =( LENGTH_UNIT ( ) NAMED_UNIT ( * ) SI_UNIT ( .MILLI., .METRE. ) );
#167 = UNCERTAINTY_MEASURE_WITH_UNIT (LENGTH_MEASURE( 1.000000000000000082E-05 ), #166, 'distance_accuracy_value', 'NONE');
#168 = PRODUCT_DEFINITION_FORMATION_WITH_SPECIFIED_SOURCE ( 'Symmetric', '', #69, .NOT_KNOWN. ) ;
#169 = PRODUCT_CONTEXT ( 'NONE', #86, 'mechanical' ) ;
#170 = SHAPE_REPRESENTATION ( 'Body022.step', ( #59 ), #119 ) ;
#171 = CARTESIAN_POINT ( 'NONE',  ( -28.94074000000000524, -8.673617379884035472E-15, -73.00000000000002842 ) ) ;
#172 = DIRECTION ( 'NONE',  ( 1.285638171674891780E-25, 1.110223023591128266E-16, 1.000000000000000000 ) ) ;
#173 = EXTERNAL_SOURCE (IDENTIFIER('') ) ;
#174 = APPLICATION_PROTOCOL_DEFINITION ( 'draft international standard', 'automotive_design', 1998, #109 ) ;
#175 = PROPERTY_DEFINITION_REPRESENTATION ( #177, #170 ) ;
#176 = AXIS2_PLACEMENT_3D ( 'NONE', #116, #7, #48 ) ;
#177 = PROPERTY_DEFINITION ('document property','', #161 ) ;
#178 = PROPERTY_DEFINITION_REPRESENTATION ( #54, #179 ) ;
#179 = SHAPE_REPRESENTATION ( 'Cut.step', ( #8 ), #80 ) ;
#180 = EXTERNAL_SOURCE (IDENTIFIER('') ) ;
#181 = DOCUMENT_FILE ( 'Body023.step.STEP' , '', '', #66, '' ,$ ) ;
#182 =( NAMED_UNIT ( * ) PLANE_ANGLE_UNIT ( ) SI_UNIT ( $, .RADIAN. ) );
#183 = PROPERTY_DEFINITION ('external definition','', #181 ) ;
#184 =( LENGTH_UNIT ( ) NAMED_UNIT ( * ) SI_UNIT ( .MILLI., .METRE. ) );
#185 = PRODUCT_DEFINITION_SHAPE ( 'NONE', 'NONE',  #194 ) ;
#186 = OBJECT_ROLE ('mandatory',$ ) ;
#187 = PRODUCT_DEFINITION_FORMATION_WITH_SPECIFIED_SOURCE ( 'Symmetric', '', #51, .NOT_KNOWN. ) ;
#188 = IDENTIFICATION_ROLE ( 'external document id and location', $) ;
#189 = DIRECTION ( 'NONE',  ( -3.189983335527906517E-22, -1.000000000000000444, 6.529968889776976349E-10 ) ) ;
#190 = EXTERNAL_SOURCE (IDENTIFIER('') ) ;
#191 = NEXT_ASSEMBLY_USAGE_OCCURRENCE ( 'NAUO91', ' ', ' ', #21, #139, $ ) ;
#192 = NEXT_ASSEMBLY_USAGE_OCCURRENCE ( 'NAUO92', ' ', ' ', #21, #132, $ ) ;
#193 = NEXT_ASSEMBLY_USAGE_OCCURRENCE ( 'NAUO93', ' ', ' ', #21, #85, $ ) ;
#194 = NEXT_ASSEMBLY_USAGE_OCCURRENCE ( 'NAUO94', ' ', ' ', #21, #104, $ ) ;
ENDSEC;
END-ISO-10303-21;
