ISO-10303-21;
HEADER;
FILE_DESCRIPTION (( 'STEP AP214' ),
    '1' );
FILE_NAME ('8585K391_Impact-Resistant Polycarbonate Round Tube.STEP',
    '2026-09-04T22:01:31',
    ( '' ),
    ( '' ),
    'SwSTEP 2.0',
    'SolidWorks 2026',
    '' );
FILE_SCHEMA (( 'AUTOMOTIVE_DESIGN' ));
ENDSEC;

DATA;
#1 = CARTESIAN_POINT ( 'NONE',  ( -1.435830601975521370, -0.06991501078879293340, 0.7707138408643683380 ) ) ;
#2 = CARTESIAN_POINT ( 'NONE',  ( -1.492505993308572032, -0.1498051531801771197, 0.6805327934547897861 ) ) ;
#3 = STYLED_ITEM ( 'NONE', ( #441 ), #676 ) ;
#4 = DIRECTION ( 'NONE',  ( 0.001113134449984923453, -0.9999993804656563956, 0.000000000000000000 ) ) ;
#5 = FACE_OUTER_BOUND ( 'NONE', #430, .T. ) ;
#6 = CARTESIAN_POINT ( 'NONE',  ( -1.492012785796830610, 0.1545892849416828918, 0.6298126523935860810 ) ) ;
#7 =( NAMED_UNIT ( * ) SI_UNIT ( $, .STERADIAN. ) SOLID_ANGLE_UNIT ( ) );
#8 =( LENGTH_UNIT ( ) NAMED_UNIT ( * ) SI_UNIT ( $, .METRE. ) );
#9 = PRESENTATION_LAYER_ASSIGNMENT (  '', '', ( #429 ) ) ;
#10 = CARTESIAN_POINT ( 'NONE',  ( 1.428919950970287900, 0.1568381049423475393, 0.6093312583023859919 ) ) ;
#11 = CARTESIAN_POINT ( 'NONE',  ( -1.492195969225057484, -0.1528245124471692140, 0.5889555161337015621 ) ) ;
#12 = ADVANCED_FACE ( 'NONE', ( #127 ), #873, .F. ) ;
#13 =( LENGTH_UNIT ( ) NAMED_UNIT ( * ) SI_UNIT ( $, .METRE. ) );
#14 = DIRECTION ( 'NONE',  ( 1.000000000000000000, 0.000000000000000000, -0.000000000000000000 ) ) ;
#15 = ORIENTED_EDGE ( 'NONE', *, *, #202, .F. ) ;
#16 = DIRECTION ( 'NONE',  ( -0.9999993804656561736, -0.001113134449984587134, -0.000000000000000000 ) ) ;
#17 = CARTESIAN_POINT ( 'NONE',  ( 1.496936246742879728, 0.09620455671474684167, 0.7546388801752217379 ) ) ;
#18 = SURFACE_STYLE_USAGE ( .BOTH. , #613 ) ;
#19 = EDGE_LOOP ( 'NONE', ( #559, #102, #571, #646, #770, #848 ) ) ;
#20 = CARTESIAN_POINT ( 'NONE',  ( -1.500000000000000222, -0.01025731407032687281, 0.4734619571603965182 ) ) ;
#21 = CARTESIAN_POINT ( 'NONE',  ( 1.435888955315543170, -0.06867945054341795252, 0.4898900036781183576 ) ) ;
#22 = CARTESIAN_POINT ( 'NONE',  ( -1.429264924783493651, 0.1536616563892451992, 0.6501365449457168211 ) ) ;
#23 = ADVANCED_FACE ( 'NONE', ( #810 ), #735, .F. ) ;
#24 = CIRCLE ( 'NONE', #319, 1.500000000000000222 ) ;
#25 = AXIS2_PLACEMENT_3D ( 'NONE', #283, #433, #775 ) ;
#26 = PRESENTATION_STYLE_ASSIGNMENT (( #756 ) ) ;
#27 = ORIENTED_EDGE ( 'NONE', *, *, #490, .T. ) ;
#28 = DIRECTION ( 'NONE',  ( 0.000000000000000000, 0.000000000000000000, 1.000000000000000000 ) ) ;
#29 = MECHANICAL_DESIGN_GEOMETRIC_PRESENTATION_REPRESENTATION (  '', ( #408 ), #435 ) ;
#30 = DIRECTION ( 'NONE',  ( 0.000000000000000000, 0.000000000000000000, 1.000000000000000000 ) ) ;
#31 = FILL_AREA_STYLE_COLOUR ( '', #157 ) ;
#32 = ORIENTED_EDGE ( 'NONE', *, *, #691, .F. ) ;
#33 = SURFACE_SIDE_STYLE ('',( #449 ) ) ;
#34 = PRESENTATION_LAYER_ASSIGNMENT (  '', '', ( #816 ) ) ;
#35 = SURFACE_SIDE_STYLE ('',( #169 ) ) ;
#36 = EDGE_LOOP ( 'NONE', ( #317, #837, #764, #443, #234, #705, #249, #113, #774, #324 ) ) ;
#37 = B_SPLINE_CURVE_WITH_KNOTS ( 'NONE', 3,
 ( #41, #368, #850, #156, #845, #314, #371, #582, #647, #500, #240, #588, #780, #854, #244, #179, #722, #90 ),
 .UNSPECIFIED., .F., .F.,
 ( 4, 2, 2, 2, 2, 2, 2, 2, 4 ),
 ( 0.000000000000000000, 0.0007709184187655507671, 0.001541836837531101534, 0.002312755256296652410, 0.003083673675062203069, 0.003854592093827753727, 0.004625510512593304820, 0.005396428931358855478, 0.006167347350124406137 ),
 .UNSPECIFIED. ) ;
#38 =( LENGTH_UNIT ( ) NAMED_UNIT ( * ) SI_UNIT ( $, .METRE. ) );
#39 = LENGTH_MEASURE_WITH_UNIT ( LENGTH_MEASURE( 0.02539999999999999897 ), #778 );
#40 = VERTEX_POINT ( 'NONE', #740 ) ;
#41 = CARTESIAN_POINT ( 'NONE',  ( 1.492012785796830832, -0.1545892849416831416, 0.6298126523935860810 ) ) ;
#42 = COLOUR_RGB ( '',0.8588235294117646523, 0.8588235294117646523, 0.8588235294117646523 ) ;
#43 = CARTESIAN_POINT ( 'NONE',  ( -1.432597547924807202, -0.1188486326276702171, 0.5260206883145491785 ) ) ;
#44 = ORIENTED_EDGE ( 'NONE', *, *, #387, .T. ) ;
#45 = CARTESIAN_POINT ( 'NONE',  ( -1.492012785796830610, 0.1545892849416828918, 0.6298126523935860810 ) ) ;
#46 = EDGE_CURVE ( 'NONE', #306, #715, #141, .T. ) ;
#47 = PRODUCT_DEFINITION_SHAPE ( 'NONE', 'NONE',  #786 ) ;
#48 = SURFACE_STYLE_USAGE ( .BOTH. , #580 ) ;
#49 = AXIS2_PLACEMENT_3D ( 'NONE', #718, #28, #793 ) ;
#50 = CARTESIAN_POINT ( 'NONE',  ( 1.432786187207816475, -0.1165378033047348993, 0.7325805749787795973 ) ) ;
#51 = CARTESIAN_POINT ( 'NONE',  ( 0.000000000000000000, 1.148106374200643401E-17, 6.000000000000000888 ) ) ;
#52 = CARTESIAN_POINT ( 'NONE',  ( 1.437500000000000000, 1.780266240244977077E-16, 0.4735708459475746479 ) ) ;
#53 = PRODUCT_DEFINITION_CONTEXT ( 'detailed design', #771, 'design' ) ;
#54 = ORIENTED_EDGE ( 'NONE', *, *, #583, .F. ) ;
#55 = CARTESIAN_POINT ( 'NONE',  ( -1.429993400534152803, 0.1467662721817283855, 0.5797343717699890986 ) ) ;
#56 = CARTESIAN_POINT ( 'NONE',  ( -1.429685345775338901, -0.1497390480153927839, 0.6805210204579742461 ) ) ;
#57 = CARTESIAN_POINT ( 'NONE',  ( -1.493995227318219321, 0.1342005146131158011, 0.5519809194513395356 ) ) ;
#58 = DIMENSIONAL_EXPONENTS ( 1.000000000000000000, 0.000000000000000000, 0.000000000000000000, 0.000000000000000000, 0.000000000000000000, 0.000000000000000000, 0.000000000000000000 ) ;
#59 = CARTESIAN_POINT ( 'NONE',  ( 1.492193685224330491, 0.1528468921901990629, 0.5890187085425174773 ) ) ;
#60 = CARTESIAN_POINT ( 'NONE',  ( 1.491664931281210915, 0.1579105214538339130, 0.6298126523935860810 ) ) ;
#61 = CARTESIAN_POINT ( 'NONE',  ( -1.493556090840752582, 0.1389438246637189067, 0.5609088721845160164 ) ) ;
#62 =( GEOMETRIC_REPRESENTATION_CONTEXT ( 3 ) GLOBAL_UNCERTAINTY_ASSIGNED_CONTEXT ( ( #867 ) ) GLOBAL_UNIT_ASSIGNED_CONTEXT ( ( #354, #286, #422 ) ) REPRESENTATION_CONTEXT ( 'NONE', 'WORKASPACE' ) );
#63 = ADVANCED_FACE ( 'NONE', ( #688 ), #833, .F. ) ;
#64 = CARTESIAN_POINT ( 'NONE',  ( 1.500000000000000444, 0.01026021941190352962, 0.7861633786752730835 ) ) ;
#65 = CARTESIAN_POINT ( 'NONE',  ( 1.429362057136007502, 0.1527563605993130513, 0.6706639214111235203 ) ) ;
#66 = CARTESIAN_POINT ( 'NONE',  ( 1.433732088175824648, 0.1042687645355025033, 0.5115857708647499891 ) ) ;
#67 = CARTESIAN_POINT ( 'NONE',  ( -1.500000000000000222, 0.01012215978244604929, 0.4736797463671955644 ) ) ;
#68 = FILL_AREA_STYLE ('',( #475 ) ) ;
#69 = DIMENSIONAL_EXPONENTS ( 1.000000000000000000, 0.000000000000000000, 0.000000000000000000, 0.000000000000000000, 0.000000000000000000, 0.000000000000000000, 0.000000000000000000 ) ;
#70 = CARTESIAN_POINT ( 'NONE',  ( 0.000000000000000000, 1.148106374200643401E-17, 6.000000000000000888 ) ) ;
#71 = STYLED_ITEM ( 'NONE', ( #232 ), #599 ) ;
#72 = FILL_AREA_STYLE_COLOUR ( '', #275 ) ;
#73 = CARTESIAN_POINT ( 'NONE',  ( -1.432229320917977944, 0.1231137833168056139, 0.7244954808051962125 ) ) ;
#74 = CARTESIAN_POINT ( 'NONE',  ( -1.428808108084903550, -0.1578405533151701068, 0.6400878939824569125 ) ) ;
#75 = PRESENTATION_STYLE_ASSIGNMENT (( #692 ) ) ;
#76 = PLANE ( 'NONE',  #695 ) ;
#77 = PRESENTATION_LAYER_ASSIGNMENT (  '', '', ( #287 ) ) ;
#78 = DIRECTION ( 'NONE',  ( -0.000000000000000000, -0.000000000000000000, -1.000000000000000000 ) ) ;
#79 = SURFACE_STYLE_FILL_AREA ( #562 ) ;
#80 = ORIENTED_EDGE ( 'NONE', *, *, #514, .T. ) ;
#81 = CARTESIAN_POINT ( 'NONE',  ( 1.429999628372864873, -0.1467048295664721558, 0.5795704342145931998 ) ) ;
#82 = ADVANCED_FACE ( 'NONE', ( #417 ), #548, .T. ) ;
#83 = DIRECTION ( 'NONE',  ( 0.000000000000000000, 0.000000000000000000, 1.000000000000000000 ) ) ;
#84 = CARTESIAN_POINT ( 'NONE',  ( -1.500000000000000222, 2.132248216411870252E-17, 0.4735715739400740976 ) ) ;
#85 = SURFACE_STYLE_USAGE ( .BOTH. , #410 ) ;
#86 = SURFACE_STYLE_FILL_AREA ( #153 ) ;
#87 = CARTESIAN_POINT ( 'NONE',  ( 0.000000000000000000, 0.000000000000000000, 0.000000000000000000 ) ) ;
#88 = SURFACE_STYLE_USAGE ( .BOTH. , #35 ) ;
#89 = ORIENTED_EDGE ( 'NONE', *, *, #760, .F. ) ;
#90 = CARTESIAN_POINT ( 'NONE',  ( 1.500000000000000222, 2.056001757943647099E-16, 0.7860537308470981754 ) ) ;
#91 = CARTESIAN_POINT ( 'NONE',  ( -1.429682772128772150, -0.1497644422857379309, 0.5791627377194049631 ) ) ;
#92 = EDGE_LOOP ( 'NONE', ( #376, #517, #438, #302, #145, #829 ) ) ;
#93 = AXIS2_PLACEMENT_3D ( 'NONE', #506, #246, #373 ) ;
#94 = CARTESIAN_POINT ( 'NONE',  ( -1.499894894076241769, 0.02038397941872733057, 0.7848360690095314007 ) ) ;
#95 = CARTESIAN_POINT ( 'NONE',  ( -1.493747947818261590, -0.1369310330196984171, 0.5509364023436182922 ) ) ;
#96 = CARTESIAN_POINT ( 'NONE',  ( -1.437500000000000000, -1.806186803113660670E-16, 0.7860544588395975696 ) ) ;
#97 = CARTESIAN_POINT ( 'NONE',  ( -1.496937496984921401, -0.09618820775780521914, 0.7546544665130038299 ) ) ;
#98 = ORIENTED_EDGE ( 'NONE', *, *, #124, .T. ) ;
#99 = VECTOR ( 'NONE', #321, 39.37007874015748143 ) ;
#100 = FACE_OUTER_BOUND ( 'NONE', #641, .T. ) ;
#101 = CARTESIAN_POINT ( 'NONE',  ( -1.430980589550704840, -0.1368715745237827630, 0.5509546759115356851 ) ) ;
#102 = ORIENTED_EDGE ( 'NONE', *, *, #46, .F. ) ;
#103 = CARTESIAN_POINT ( 'NONE',  ( -1.500000000000000222, -2.154558894834617481E-16, 0.7860537308470981754 ) ) ;
#104 = B_SPLINE_CURVE_WITH_KNOTS ( 'NONE', 3,
 ( #474, #409, #826, #751, #551, #21, #279, #690, #487, #478, #416, #813, #821, #81, #353, #285, #421, #201 ),
 .UNSPECIFIED., .F., .F.,
 ( 4, 2, 2, 2, 2, 2, 2, 2, 4 ),
 ( 0.01866748751766980977, 0.01943800652563313497, 0.02020852553359646364, 0.02097904454155978884, 0.02174956354952311405, 0.02252008255748643925, 0.02329060156544976445, 0.02406112057341308966, 0.02483163958137641486 ),
 .UNSPECIFIED. ) ;
#105 =( NAMED_UNIT ( * ) PLANE_ANGLE_UNIT ( ) SI_UNIT ( $, .RADIAN. ) );
#106 = ADVANCED_FACE ( 'NONE', ( #644, #516 ), #447, .F. ) ;
#107 = EDGE_LOOP ( 'NONE', ( #346, #586, #779, #80, #243, #789, #835, #453, #44, #15 ) ) ;
#108 = CARTESIAN_POINT ( 'NONE',  ( -1.499489263746966117, 0.04039984901587984067, 0.7806397775285681684 ) ) ;
#109 = MECHANICAL_DESIGN_GEOMETRIC_PRESENTATION_REPRESENTATION (  '', ( #492 ), #437 ) ;
#110 = DIRECTION ( 'NONE',  ( 1.000000000000000000, 0.000000000000000000, 0.000000000000000000 ) ) ;
#111 = CARTESIAN_POINT ( 'NONE',  ( 1.428808108084903106, 0.1578405533151698570, 0.6298126523935860810 ) ) ;
#112 = CARTESIAN_POINT ( 'NONE',  ( 1.430768413760672875, -0.1390078318949760361, 0.6987272513692522891 ) ) ;
#113 = ORIENTED_EDGE ( 'NONE', *, *, #152, .F. ) ;
#114 = CARTESIAN_POINT ( 'NONE',  ( 1.436953374233388425, 0.04090883114051021424, 0.7813869972771739780 ) ) ;
#115 = AXIS2_PLACEMENT_3D ( 'NONE', #271, #664, #729 ) ;
#116 = CARTESIAN_POINT ( 'NONE',  ( -1.499897543091666119, 0.02019827120829735187, 0.4747617024724388179 ) ) ;
#117 =( NAMED_UNIT ( * ) PLANE_ANGLE_UNIT ( ) SI_UNIT ( $, .RADIAN. ) );
#118 = CARTESIAN_POINT ( 'NONE',  ( -1.436956520636176959, -0.04078955484487341993, 0.7814154107370718805 ) ) ;
#119 = CARTESIAN_POINT ( 'NONE',  ( 1.429993844030077899, -0.1467618382940788779, 0.6799017933199221764 ) ) ;
#120 = CARTESIAN_POINT ( 'NONE',  ( -1.499999070698484482, -0.001669701674977010480, 0.6298126523935860810 ) ) ;
#121 = DIMENSIONAL_EXPONENTS ( 1.000000000000000000, 0.000000000000000000, 0.000000000000000000, 0.000000000000000000, 0.000000000000000000, 0.000000000000000000, 0.000000000000000000 ) ;
#122 = CARTESIAN_POINT ( 'NONE',  ( -1.429265707669965524, 0.1536544252194285975, 0.6094328785076539301 ) ) ;
#123 = PRESENTATION_LAYER_ASSIGNMENT (  '', '', ( #609 ) ) ;
#124 = EDGE_CURVE ( 'NONE', #432, #414, #24, .T. ) ;
#125 = CARTESIAN_POINT ( 'NONE',  ( -1.435354403659129252, -0.07898084549264607068, 0.7659436776655655921 ) ) ;
#126 = CARTESIAN_POINT ( 'NONE',  ( -1.491772273035721019, -0.1569064699998810875, 0.6503011737416288796 ) ) ;
#127 = FACE_OUTER_BOUND ( 'NONE', #298, .T. ) ;
#128 = CARTESIAN_POINT ( 'NONE',  ( 1.433741867355635691, 0.1041402293594862472, 0.7481611272995604134 ) ) ;
#129 = B_SPLINE_CURVE_WITH_KNOTS ( 'NONE', 3,
 ( #207, #753, #22, #288, #355, #476, #759, #73, #137, #144, #434, #709, #777, #216, #407, #680, #824, #96 ),
 .UNSPECIFIED., .F., .F.,
 ( 4, 2, 2, 2, 2, 2, 2, 2, 4 ),
 ( 0.01866751637599440433, 0.01943803704965546206, 0.02020855772331651978, 0.02097907839697758098, 0.02174959907063863870, 0.02252011974429969643, 0.02329064041796075762, 0.02406116109162181535, 0.02483168176528287308 ),
 .UNSPECIFIED. ) ;
#130 = LINE ( 'NONE', #483, #639 ) ;
#131 = CARTESIAN_POINT ( 'NONE',  ( -1.494757353518670229, -0.1254361201404757264, 0.7257385455349726344 ) ) ;
#132 =( NAMED_UNIT ( * ) SI_UNIT ( $, .STERADIAN. ) SOLID_ANGLE_UNIT ( ) );
#133 = LINE ( 'NONE', #386, #738 ) ;
#134 =( GEOMETRIC_REPRESENTATION_CONTEXT ( 3 ) GLOBAL_UNCERTAINTY_ASSIGNED_CONTEXT ( ( #739 ) ) GLOBAL_UNIT_ASSIGNED_CONTEXT ( ( #318, #117, #199 ) ) REPRESENTATION_CONTEXT ( 'NONE', 'WORKASPACE' ) );
#135 = FILL_AREA_STYLE ('',( #750 ) ) ;
#136 =( LENGTH_UNIT ( ) NAMED_UNIT ( * ) SI_UNIT ( $, .METRE. ) );
#137 = CARTESIAN_POINT ( 'NONE',  ( -1.432780531206716557, 0.1166063936371168064, 0.7325003317996339192 ) ) ;
#138 = EDGE_CURVE ( 'NONE', #633, #370, #242, .T. ) ;
#139 = DIRECTION ( 'NONE',  ( -0.000000000000000000, -0.000000000000000000, -1.000000000000000000 ) ) ;
#140 = LENGTH_MEASURE_WITH_UNIT ( LENGTH_MEASURE( 0.02539999999999999897 ), #136 );
#141 = B_SPLINE_CURVE_WITH_KNOTS ( 'NONE', 3,
 ( #398, #64, #331, #604, #220, #357, #827, #17, #679, #553, #488, #683, #561, #763, #215, #626, #149, #479 ),
 .UNSPECIFIED., .F., .F.,
 ( 4, 2, 2, 2, 2, 2, 2, 2, 4 ),
 ( 0.006167347350124406137, 0.006948495895215221242, 0.007729644440306036347, 0.008510792985396850585, 0.009291941530487665690, 0.01007309007557848080, 0.01085423862066929590, 0.01163538716576011101, 0.01241653571085092611 ),
 .UNSPECIFIED. ) ;
#142 = CIRCLE ( 'NONE', #594, 1.500000000000000222 ) ;
#143 =( CONVERSION_BASED_UNIT ( 'INCH', #836 ) LENGTH_UNIT ( ) NAMED_UNIT ( #584 ) );
#144 = CARTESIAN_POINT ( 'NONE',  ( -1.433866889774438214, 0.1023857609759919324, 0.7468770425836941396 ) ) ;
#145 = ORIENTED_EDGE ( 'NONE', *, *, #628, .F. ) ;
#146 = CARTESIAN_POINT ( 'NONE',  ( -1.428808108084903106, -0.1578405533151700513, 0.6298126523935860810 ) ) ;
#147 = ORIENTED_EDGE ( 'NONE', *, *, #174, .T. ) ;
#148 = CARTESIAN_POINT ( 'NONE',  ( 1.437500000000000000, 1.875240411194384175E-16, 6.000000000000000888 ) ) ;
#149 = CARTESIAN_POINT ( 'NONE',  ( 1.491664931281210471, 0.1579105214538339130, 0.6400810017078756298 ) ) ;
#150 = ORIENTED_EDGE ( 'NONE', *, *, #760, .T. ) ;
#151 = CARTESIAN_POINT ( 'NONE',  ( 1.437500000000000000, 1.975961954900897138E-16, 0.7860544588395975696 ) ) ;
#152 = EDGE_CURVE ( 'NONE', #576, #844, #790, .T. ) ;
#153 = FILL_AREA_STYLE ('',( #767 ) ) ;
#154 = CARTESIAN_POINT ( 'NONE',  ( -1.494753502136967782, -0.1254791108686240941, 0.5339546655126905517 ) ) ;
#155 = ORIENTED_EDGE ( 'NONE', *, *, #849, .F. ) ;
#156 = CARTESIAN_POINT ( 'NONE',  ( 1.492516059326951527, -0.1496652895056281019, 0.6700211235380032493 ) ) ;
#157 = COLOUR_RGB ( '',0.8588235294117646523, 0.8588235294117646523, 0.8588235294117646523 ) ;
#158 = LENGTH_MEASURE_WITH_UNIT ( LENGTH_MEASURE( 0.02539999999999999897 ), #415 );
#159 = DIRECTION ( 'NONE',  ( 1.000000000000000000, 0.000000000000000000, 0.000000000000000000 ) ) ;
#160 = ORIENTED_EDGE ( 'NONE', *, *, #359, .F. ) ;
#161 = CARTESIAN_POINT ( 'NONE',  ( -1.492117046219695764, 0.1535922895826840329, 0.6501302297454415458 ) ) ;
#162 = CARTESIAN_POINT ( 'NONE',  ( 1.496938117749270436, 0.09617768776263603547, 0.5049638227024529913 ) ) ;
#163 = CARTESIAN_POINT ( 'NONE',  ( -1.436636039223031291, -0.05073647852002571845, 0.4811337761746068420 ) ) ;
#164 = ORIENTED_EDGE ( 'NONE', *, *, #480, .T. ) ;
#165 = COLOUR_RGB ( '',0.7529411764705882248, 0.7529411764705882248, 0.7529411764705882248 ) ;
#166 = FILL_AREA_STYLE ('',( #572 ) ) ;
#167 = B_SPLINE_CURVE_WITH_KNOTS ( 'NONE', 3,
 ( #259, #334, #404, #118, #392, #1, #125, #682, #667, #663, #535, #329, #602, #56, #264, #400, #74, #270 ),
 .UNSPECIFIED., .F., .F.,
 ( 4, 2, 2, 2, 2, 2, 2, 2, 4 ),
 ( 8.526138376756918784E-18, 0.0007813334059219844427, 0.001562666811843960212, 0.002344000217765936089, 0.003125333623687912184, 0.003906667029609888278, 0.004688000435531863505, 0.005469333841453839599, 0.006250667247375815694 ),
 .UNSPECIFIED. ) ;
#168 = DIRECTION ( 'NONE',  ( -0.000000000000000000, -0.000000000000000000, -1.000000000000000000 ) ) ;
#169 = SURFACE_STYLE_FILL_AREA ( #247 ) ;
#170 = B_SPLINE_CURVE_WITH_KNOTS ( 'NONE', 3,
 ( #436, #640, #301, #574, #233, #501, #710, #97, #743, #590, #131, #184, #802, #2, #393, #126, #798, #265 ),
 .UNSPECIFIED., .F., .F.,
 ( 4, 2, 2, 2, 2, 2, 2, 2, 4 ),
 ( 9.380649471114861570E-18, 0.0007815064799354128717, 0.001563012959870816202, 0.002344519439806218991, 0.003126025919741621997, 0.003907532399677025002, 0.004689038879612426707, 0.005470545359547830146, 0.006252051839483232717 ),
 .UNSPECIFIED. ) ;
#171 = ORIENTED_EDGE ( 'NONE', *, *, #423, .T. ) ;
#172 = CARTESIAN_POINT ( 'NONE',  ( -1.494953873784302445, 0.1230627400420326034, 0.7244703951884802207 ) ) ;
#173 = COLOUR_RGB ( '',0.8588235294117646523, 0.8588235294117646523, 0.8588235294117646523 ) ;
#174 = EDGE_CURVE ( 'NONE', #512, #40, #170, .T. ) ;
#175 = SURFACE_STYLE_USAGE ( .BOTH. , #515 ) ;
#176 = CARTESIAN_POINT ( 'NONE',  ( -1.429362002414813260, -0.1527568605000708679, 0.5889645591789188783 ) ) ;
#177 = UNCERTAINTY_MEASURE_WITH_UNIT (LENGTH_MEASURE( 1.000000000000000082E-05 ), #814, 'distance_accuracy_value', 'NONE');
#178 = EDGE_LOOP ( 'NONE', ( #508, #160 ) ) ;
#179 = CARTESIAN_POINT ( 'NONE',  ( 1.499897469071681755, -0.02019753183737931987, 0.7848628471974444798 ) ) ;
#180 = CARTESIAN_POINT ( 'NONE',  ( 1.437500000000000000, 1.975961954900897138E-16, 0.7860544588395975696 ) ) ;
#181 = CARTESIAN_POINT ( 'NONE',  ( -1.494957900475131218, 0.1230137926373723323, 0.5350914814050825585 ) ) ;
#182 = VERTEX_POINT ( 'NONE', #457 ) ;
#183 = CARTESIAN_POINT ( 'NONE',  ( 1.430980299021019642, 0.1368746145976740547, 0.7086654945029855490 ) ) ;
#184 = CARTESIAN_POINT ( 'NONE',  ( -1.493740648397974269, -0.1370132893468149760, 0.7085627561995344603 ) ) ;
#185 = SURFACE_STYLE_FILL_AREA ( #864 ) ;
#186 = CARTESIAN_POINT ( 'NONE',  ( -1.433874317054043335, 0.1022831234311263049, 0.5126553291211208840 ) ) ;
#187 = CARTESIAN_POINT ( 'NONE',  ( -1.500172997956294552, 0.1545802015227815129, 0.6298126523935860810 ) ) ;
#188 = CARTESIAN_POINT ( 'NONE',  ( -1.495486461753936291, 0.1164959868095935269, 0.5270763753203245860 ) ) ;
#189 = DIRECTION ( 'NONE',  ( -0.9999993804656562846, -0.001113134449984587351, -0.000000000000000000 ) ) ;
#190 = DIRECTION ( 'NONE',  ( -0.000000000000000000, -0.000000000000000000, -1.000000000000000000 ) ) ;
#191 = EDGE_CURVE ( 'NONE', #701, #370, #773, .T. ) ;
#192 = CARTESIAN_POINT ( 'NONE',  ( 1.436633813070952614, 0.05080454301638435283, 0.4811540874319338301 ) ) ;
#193 = CARTESIAN_POINT ( 'NONE',  ( 1.492521986063086503, -0.1496065765735748732, 0.5893569999076864185 ) ) ;
#194 = UNCERTAINTY_MEASURE_WITH_UNIT (LENGTH_MEASURE( 1.000000000000000082E-05 ), #568, 'distance_accuracy_value', 'NONE');
#195 =( NAMED_UNIT ( * ) PLANE_ANGLE_UNIT ( ) SI_UNIT ( $, .RADIAN. ) );
#196 = CARTESIAN_POINT ( 'NONE',  ( 1.430489553785897927, 0.1418506615428926365, 0.5601945444303577659 ) ) ;
#197 = CARTESIAN_POINT ( 'NONE',  ( 1.429265423781302724, -0.1536570645009391056, 0.6501743456743185323 ) ) ;
#198 = DIMENSIONAL_EXPONENTS ( 1.000000000000000000, 0.000000000000000000, 0.000000000000000000, 0.000000000000000000, 0.000000000000000000, 0.000000000000000000, 0.000000000000000000 ) ;
#199 =( NAMED_UNIT ( * ) SI_UNIT ( $, .STERADIAN. ) SOLID_ANGLE_UNIT ( ) );
#200 = CARTESIAN_POINT ( 'NONE',  ( 1.436956221566151326, 0.04079900736604008538, 0.4782126277732332009 ) ) ;
#201 = CARTESIAN_POINT ( 'NONE',  ( 1.429155962600523466, -0.1546592530803472254, 0.6298126523935860810 ) ) ;
#202 = EDGE_CURVE ( 'NONE', #414, #512, #859, .T. ) ;
#203 = CARTESIAN_POINT ( 'NONE',  ( 1.500000000000000222, 1.850482942820062719E-16, 0.4735715739400740421 ) ) ;
#204 = CARTESIAN_POINT ( 'NONE',  ( -1.429155962600523466, 0.1546592530803469479, 0.6298126523935860810 ) ) ;
#205 = CARTESIAN_POINT ( 'NONE',  ( -1.499825143440674191, -0.1579196048727355139, 0.6298126523935860810 ) ) ;
#206 = DIRECTION ( 'NONE',  ( -0.000000000000000000, -0.000000000000000000, -1.000000000000000000 ) ) ;
#207 = CARTESIAN_POINT ( 'NONE',  ( -1.429155962600523466, 0.1546592530803469479, 0.6298126523935860810 ) ) ;
#208 = VERTEX_POINT ( 'NONE', #401 ) ;
#209 = DIRECTION ( 'NONE',  ( -0.000000000000000000, -0.000000000000000000, -1.000000000000000000 ) ) ;
#210 = AXIS2_PLACEMENT_3D ( 'NONE', #70, #209, #396 ) ;
#211 = UNCERTAINTY_MEASURE_WITH_UNIT (LENGTH_MEASURE( 1.000000000000000082E-05 ), #213, 'distance_accuracy_value', 'NONE');
#212 = LINE ( 'NONE', #413, #278 ) ;
#213 =( CONVERSION_BASED_UNIT ( 'INCH', #158 ) LENGTH_UNIT ( ) NAMED_UNIT ( #351 ) );
#214 = CARTESIAN_POINT ( 'NONE',  ( 1.435427693451060582, -0.07762182093529428062, 0.7648769411902709425 ) ) ;
#215 = CARTESIAN_POINT ( 'NONE',  ( 1.492196022445455350, 0.1528240046565064181, 0.6706729566334228565 ) ) ;
#216 = CARTESIAN_POINT ( 'NONE',  ( -1.436654804745698177, 0.05015838703746434285, 0.7775871110382908125 ) ) ;
#217 = PRESENTATION_LAYER_ASSIGNMENT (  '', '', ( #601 ) ) ;
#218 = EDGE_CURVE ( 'NONE', #618, #711, #544, .T. ) ;
#219 = CARTESIAN_POINT ( 'NONE',  ( 1.436971528557316580, -0.04024304436019490033, 0.7807032878431697798 ) ) ;
#220 = CARTESIAN_POINT ( 'NONE',  ( 1.499171627003285323, 0.05075174910242786358, 0.7785104531488756807 ) ) ;
#221 = VERTEX_POINT ( 'NONE', #52 ) ;
#222 = ORIENTED_EDGE ( 'NONE', *, *, #490, .F. ) ;
#223 = CARTESIAN_POINT ( 'NONE',  ( -1.498009802729023843, 0.07770496756774766811, 0.7647872066565351012 ) ) ;
#224 = SURFACE_SIDE_STYLE ('',( #765 ) ) ;
#225 = CARTESIAN_POINT ( 'NONE',  ( -1.497938203644032296, -0.07908622724018017636, 0.4937043893882064882 ) ) ;
#226 = CARTESIAN_POINT ( 'NONE',  ( -1.437500000000000444, -0.01025520298830915125, 0.4734658186435510285 ) ) ;
#227 = EDGE_CURVE ( 'NONE', #633, #462, #531, .T. ) ;
#228 = ORIENTED_EDGE ( 'NONE', *, *, #732, .F. ) ;
#229 = CARTESIAN_POINT ( 'NONE',  ( -1.500000000000000222, 1.148106374200643401E-17, 6.000000000000000888 ) ) ;
#230 = CIRCLE ( 'NONE', #459, 1.437500000000000000 ) ;
#231 = DIRECTION ( 'NONE',  ( 0.001113134449984923453, -0.9999993804656563956, 0.000000000000000000 ) ) ;
#232 = PRESENTATION_STYLE_ASSIGNMENT (( #18 ) ) ;
#233 = CARTESIAN_POINT ( 'NONE',  ( -1.499169066456397692, -0.05082863927936948079, 0.7784857363273249842 ) ) ;
#234 = ORIENTED_EDGE ( 'NONE', *, *, #732, .T. ) ;
#235 = CARTESIAN_POINT ( 'NONE',  ( -1.495481523863582130, 0.1165581257236987245, 0.7324753607424773216 ) ) ;
#236 = LENGTH_MEASURE_WITH_UNIT ( LENGTH_MEASURE( 0.02539999999999999897 ), #724 );
#237 =( NAMED_UNIT ( * ) SI_UNIT ( $, .STERADIAN. ) SOLID_ANGLE_UNIT ( ) );
#238 = EDGE_LOOP ( 'NONE', ( #367, #758, #502, #636, #581, #794 ) ) ;
#239 = VECTOR ( 'NONE', #168, 39.37007874015748143 ) ;
#240 = CARTESIAN_POINT ( 'NONE',  ( 1.497045948971773344, -0.09447165529411601093, 0.7534068436752002773 ) ) ;
#241 = LENGTH_MEASURE_WITH_UNIT ( LENGTH_MEASURE( 0.02539999999999999897 ), #660 );
#242 = LINE ( 'NONE', #511, #260 ) ;
#243 = ORIENTED_EDGE ( 'NONE', *, *, #138, .T. ) ;
#244 = CARTESIAN_POINT ( 'NONE',  ( 1.499493903456935673, -0.04022923707257256010, 0.7806876387211888479 ) ) ;
#245 =( GEOMETRIC_REPRESENTATION_CONTEXT ( 3 ) GLOBAL_UNCERTAINTY_ASSIGNED_CONTEXT ( ( #177 ) ) GLOBAL_UNIT_ASSIGNED_CONTEXT ( ( #814, #195, #591 ) ) REPRESENTATION_CONTEXT ( 'NONE', 'WORKASPACE' ) );
#246 = DIRECTION ( 'NONE',  ( -0.000000000000000000, -0.000000000000000000, -1.000000000000000000 ) ) ;
#247 = FILL_AREA_STYLE ('',( #31 ) ) ;
#248 = CIRCLE ( 'NONE', #791, 1.437500000000000000 ) ;
#249 = ORIENTED_EDGE ( 'NONE', *, *, #719, .F. ) ;
#250 =( CONVERSION_BASED_UNIT ( 'INCH', #236 ) LENGTH_UNIT ( ) NAMED_UNIT ( #455 ) );
#251 = CARTESIAN_POINT ( 'NONE',  ( -1.498014359794464623, 0.07761587140457089362, 0.4947871478008292190 ) ) ;
#252 =( CONVERSION_BASED_UNIT ( 'INCH', #272 ) LENGTH_UNIT ( ) NAMED_UNIT ( #471 ) );
#253 = CARTESIAN_POINT ( 'NONE',  ( -1.437500000000000000, 2.117227111236123943E-17, 0.4735708459475746479 ) ) ;
#254 = PRESENTATION_LAYER_ASSIGNMENT (  '', '', ( #492 ) ) ;
#255 = FACE_OUTER_BOUND ( 'NONE', #418, .T. ) ;
#256 = CARTESIAN_POINT ( 'NONE',  ( 1.494970227588295675, -0.1228661548218269312, 0.5348898317239216826 ) ) ;
#257 = EDGE_CURVE ( 'NONE', #182, #684, #310, .T. ) ;
#258 = CARTESIAN_POINT ( 'NONE',  ( 1.428808108084903550, 0.1578405533151698570, 0.6400784065405210610 ) ) ;
#259 = CARTESIAN_POINT ( 'NONE',  ( -1.437500000000000000, -1.806186803113660670E-16, 0.7860544588395975696 ) ) ;
#260 = VECTOR ( 'NONE', #788, 39.37007874015748143 ) ;
#261 = CARTESIAN_POINT ( 'NONE',  ( 1.498018874937560030, -0.07752532669976586188, 0.4947373054970465311 ) ) ;
#262 = SURFACE_STYLE_FILL_AREA ( #68 ) ;
#263 = CARTESIAN_POINT ( 'NONE',  ( 1.493742236392083589, 0.1369956047902295415, 0.5510344133519420318 ) ) ;
#264 = CARTESIAN_POINT ( 'NONE',  ( -1.429359123253183483, -0.1527838406530394877, 0.6705775370911730704 ) ) ;
#265 = CARTESIAN_POINT ( 'NONE',  ( -1.491664931281210471, -0.1579105214538341351, 0.6298126523935860810 ) ) ;
#266 = PRESENTATION_STYLE_ASSIGNMENT (( #669 ) ) ;
#267 = CARTESIAN_POINT ( 'NONE',  ( -1.435426230876701625, 0.07764736375755884601, 0.4947645538046459013 ) ) ;
#268 = EDGE_CURVE ( 'NONE', #485, #684, #556, .T. ) ;
#269 = AXIS2_PLACEMENT_3D ( 'NONE', #291, #361, #231 ) ;
#270 = CARTESIAN_POINT ( 'NONE',  ( -1.428808108084903106, -0.1578405533151700513, 0.6298126523935860810 ) ) ;
#271 = CARTESIAN_POINT ( 'NONE',  ( 0.000000000000000000, 1.148106374200643401E-17, 0.000000000000000000 ) ) ;
#272 = LENGTH_MEASURE_WITH_UNIT ( LENGTH_MEASURE( 0.02539999999999999897 ), #752 );
#273 = CARTESIAN_POINT ( 'NONE',  ( 1.498398760561631571, 0.06994837310028967359, 0.4888929219257430736 ) ) ;
#274 = CARTESIAN_POINT ( 'NONE',  ( 1.437500000000000222, 0.01038544758348667295, 0.4734644847607685225 ) ) ;
#275 = COLOUR_RGB ( '',0.8588235294117646523, 0.8588235294117646523, 0.8588235294117646523 ) ;
#276 = CARTESIAN_POINT ( 'NONE',  ( 1.429359646347340140, 0.1527789868949400998, 0.5890267041909046375 ) ) ;
#277 = CARTESIAN_POINT ( 'NONE',  ( -1.492503512604729909, -0.1498306901294832461, 0.5791513387070023056 ) ) ;
#278 = VECTOR ( 'NONE', #627, 39.37007874015748854 ) ;
#279 = CARTESIAN_POINT ( 'NONE',  ( 1.435430972950964001, -0.07755636608957917899, 0.4947144215770488684 ) ) ;
#280 = SURFACE_SIDE_STYLE ('',( #822 ) ) ;
#281 = LINE ( 'NONE', #585, #481 ) ;
#282 = EDGE_CURVE ( 'NONE', #576, #40, #348, .T. ) ;
#283 = CARTESIAN_POINT ( 'NONE',  ( 0.000000000000000000, 1.148106374200643401E-17, 0.000000000000000000 ) ) ;
#284 =( CONVERSION_BASED_UNIT ( 'INCH', #300 ) LENGTH_UNIT ( ) NAMED_UNIT ( #69 ) );
#285 = CARTESIAN_POINT ( 'NONE',  ( 1.429265294092981753, -0.1536586596465825127, 0.6094102370447137540 ) ) ;
#286 =( NAMED_UNIT ( * ) PLANE_ANGLE_UNIT ( ) SI_UNIT ( $, .RADIAN. ) );
#287 = STYLED_ITEM ( 'NONE', ( #266 ), #12 ) ;
#288 = CARTESIAN_POINT ( 'NONE',  ( -1.429680667016978823, 0.1497441825866218656, 0.6699868805077300316 ) ) ;
#289 = B_SPLINE_CURVE_WITH_KNOTS ( 'NONE', 3,
 ( #736, #394, #666, #59, #328, #600, #263, #533, #807, #542, #162, #693, #273, #617, #834, #815, #689, #203 ),
 .UNSPECIFIED., .F., .F.,
 ( 4, 2, 2, 2, 2, 2, 2, 2, 4 ),
 ( 0.01241653571085092611, 0.01319798647637580868, 0.01397943724190069126, 0.01476088800742557210, 0.01554233877295045467, 0.01632378953847533898, 0.01710524030400021808, 0.01788669106952510066, 0.01866814183504998323 ),
 .UNSPECIFIED. ) ;
#290 = PRESENTATION_LAYER_ASSIGNMENT (  '', '', ( #749 ) ) ;
#291 = CARTESIAN_POINT ( 'NONE',  ( -1.499999070698484482, -0.001669701674977010480, 0.6298126523935860810 ) ) ;
#292 = CARTESIAN_POINT ( 'NONE',  ( 1.437499999999999556, -0.01012966795609847662, 0.7859507171859902996 ) ) ;
#293 =( LENGTH_UNIT ( ) NAMED_UNIT ( * ) SI_UNIT ( $, .METRE. ) );
#294 = EDGE_LOOP ( 'NONE', ( #312, #379 ) ) ;
#295 = LENGTH_MEASURE_WITH_UNIT ( LENGTH_MEASURE( 0.02539999999999999897 ), #565 );
#296 = EDGE_CURVE ( 'NONE', #221, #182, #104, .T. ) ;
#297 = DIRECTION ( 'NONE',  ( 0.000000000000000000, 0.000000000000000000, 1.000000000000000000 ) ) ;
#298 = EDGE_LOOP ( 'NONE', ( #499, #745, #720, #494, #424, #623 ) ) ;
#299 = CYLINDRICAL_SURFACE ( 'NONE', #338, 0.1562499999999997224 ) ;
#300 = LENGTH_MEASURE_WITH_UNIT ( LENGTH_MEASURE( 0.02539999999999999897 ), #638 );
#301 = CARTESIAN_POINT ( 'NONE',  ( -1.499891849640659691, -0.02064169471400325792, 0.7852454744854243662 ) ) ;
#302 = ORIENTED_EDGE ( 'NONE', *, *, #296, .T. ) ;
#303 = PRESENTATION_STYLE_ASSIGNMENT (( #381 ) ) ;
#304 = MECHANICAL_DESIGN_GEOMETRIC_PRESENTATION_REPRESENTATION (  '', ( #601 ), #563 ) ;
#305 = DIRECTION ( 'NONE',  ( -0.000000000000000000, -0.000000000000000000, -1.000000000000000000 ) ) ;
#306 = VERTEX_POINT ( 'NONE', #484 ) ;
#307 = LENGTH_MEASURE_WITH_UNIT ( LENGTH_MEASURE( 0.02539999999999999897 ), #38 );
#308 = FILL_AREA_STYLE ('',( #521 ) ) ;
#309 = DIRECTION ( 'NONE',  ( -1.000000000000000000, 0.000000000000000000, 0.000000000000000000 ) ) ;
#310 = B_SPLINE_CURVE_WITH_KNOTS ( 'NONE', 3,
 ( #464, #809, #197, #469, #119, #112, #522, #656, #50, #762, #621, #214, #625, #832, #219, #405, #292, #151 ),
 .UNSPECIFIED., .F., .F.,
 ( 4, 2, 2, 2, 2, 2, 2, 2, 4 ),
 ( 0.000000000000000000, 0.0007711864599916559704, 0.001542372919983311941, 0.002313559379974967911, 0.003084745839966623882, 0.003855932299958279852, 0.004627118759949935822, 0.005398305219941591793, 0.006169491679933247763 ),
 .UNSPECIFIED. ) ;
#311 = UNCERTAINTY_MEASURE_WITH_UNIT (LENGTH_MEASURE( 1.000000000000000082E-05 ), #678, 'distance_accuracy_value', 'NONE');
#312 = ORIENTED_EDGE ( 'NONE', *, *, #333, .T. ) ;
#313 = PRODUCT_RELATED_PRODUCT_CATEGORY ( 'part', '', ( #493 ) ) ;
#314 = CARTESIAN_POINT ( 'NONE',  ( 1.493555712399139423, -0.1389477782209725121, 0.6987067814882211847 ) ) ;
#315 =( NAMED_UNIT ( * ) SI_UNIT ( $, .STERADIAN. ) SOLID_ANGLE_UNIT ( ) );
#316 = CARTESIAN_POINT ( 'NONE',  ( -1.434305343930104115, -0.09616583708639257766, 0.5050099249486770248 ) ) ;
#317 = ORIENTED_EDGE ( 'NONE', *, *, #583, .T. ) ;
#318 =( CONVERSION_BASED_UNIT ( 'INCH', #307 ) LENGTH_UNIT ( ) NAMED_UNIT ( #198 ) );
#319 = AXIS2_PLACEMENT_3D ( 'NONE', #843, #297, #159 ) ;
#320 = CARTESIAN_POINT ( 'NONE',  ( 1.500000000000000222, 1.850482942820062719E-16, 0.4735715739400740421 ) ) ;
#321 = DIRECTION ( 'NONE',  ( -0.000000000000000000, -0.000000000000000000, -1.000000000000000000 ) ) ;
#322 = DIRECTION ( 'NONE',  ( 1.000000000000000000, 0.000000000000000000, 0.000000000000000000 ) ) ;
#323 = CARTESIAN_POINT ( 'NONE',  ( 1.499895238105677597, -0.02030597263697470414, 0.4747855331365664622 ) ) ;
#324 = ORIENTED_EDGE ( 'NONE', *, *, #480, .F. ) ;
#325 = CARTESIAN_POINT ( 'NONE',  ( -1.429682256850439925, 0.1497290551558757010, 0.5895811217604381982 ) ) ;
#326 = DIRECTION ( 'NONE',  ( -0.000000000000000000, -0.000000000000000000, -1.000000000000000000 ) ) ;
#327 = CARTESIAN_POINT ( 'NONE',  ( 1.500000000000000222, 1.850482942820062719E-16, 0.4735715739400740421 ) ) ;
#328 = CARTESIAN_POINT ( 'NONE',  ( 1.492505863199037108, 0.1498064581111415161, 0.5790960718720582490 ) ) ;
#329 = CARTESIAN_POINT ( 'NONE',  ( -1.430972954664438079, -0.1369540196474378635, 0.7085440853764293223 ) ) ;
#330 = CARTESIAN_POINT ( 'NONE',  ( 1.498457372658267062, -0.06865227076371781256, 0.4899115123722307952 ) ) ;
#331 = CARTESIAN_POINT ( 'NONE',  ( 1.499891414668530265, 0.02069055834486550893, 0.7852419534945849211 ) ) ;
#332 = DIRECTION ( 'NONE',  ( 0.000000000000000000, 0.000000000000000000, 1.000000000000000000 ) ) ;
#333 = EDGE_CURVE ( 'NONE', #698, #657, #230, .T. ) ;
#334 = CARTESIAN_POINT ( 'NONE',  ( -1.437499999999999556, -0.01040138085468677968, 0.7861609832048926938 ) ) ;
#335 = CARTESIAN_POINT ( 'NONE',  ( -1.497046010903135382, 0.09446950239797213822, 0.5062180416222732404 ) ) ;
#336 = DIRECTION ( 'NONE',  ( -0.9999993804656562846, -0.001113134449984587351, -0.000000000000000000 ) ) ;
#337 = CARTESIAN_POINT ( 'NONE',  ( 1.437500000000000000, 1.975961954900897138E-16, 0.7860544588395975696 ) ) ;
#338 = AXIS2_PLACEMENT_3D ( 'NONE', #860, #518, #391 ) ;
#339 = CARTESIAN_POINT ( 'NONE',  ( 1.430974703580867535, 0.1369353577628726892, 0.5510514967161637134 ) ) ;
#340 =( NAMED_UNIT ( * ) PLANE_ANGLE_UNIT ( ) SI_UNIT ( $, .RADIAN. ) );
#341 = FACE_BOUND ( 'NONE', #363, .T. ) ;
#342 = CARTESIAN_POINT ( 'NONE',  ( 0.000000000000000000, 1.148106374200643401E-17, 6.000000000000000888 ) ) ;
#343 = CARTESIAN_POINT ( 'NONE',  ( -1.491664931281210471, -0.1579105214538341351, 0.6298126523935860810 ) ) ;
#344 = DIRECTION ( 'NONE',  ( -1.000000000000000000, 0.000000000000000000, 0.000000000000000000 ) ) ;
#345 = CARTESIAN_POINT ( 'NONE',  ( 0.000000000000000000, 1.148106374200643401E-17, 6.000000000000000888 ) ) ;
#346 = ORIENTED_EDGE ( 'NONE', *, *, #124, .F. ) ;
#347 = MANIFOLD_SOLID_BREP ( '5/16 (0.3125) Diameter Hole1', #575 ) ;
#348 = LINE ( 'NONE', #205, #614 ) ;
#349 = EDGE_CURVE ( 'NONE', #40, #618, #425, .T. ) ;
#350 =( NAMED_UNIT ( * ) SI_UNIT ( $, .STERADIAN. ) SOLID_ANGLE_UNIT ( ) );
#351 = DIMENSIONAL_EXPONENTS ( 1.000000000000000000, 0.000000000000000000, 0.000000000000000000, 0.000000000000000000, 0.000000000000000000, 0.000000000000000000, 0.000000000000000000 ) ;
#352 = B_SPLINE_CURVE_WITH_KNOTS ( 'NONE', 3,
 ( #337, #728, #662, #114, #592, #874, #466, #741, #128, #857, #472, #183, #795, #403, #65, #456, #258, #746 ),
 .UNSPECIFIED., .F., .F.,
 ( 4, 2, 2, 2, 2, 2, 2, 2, 4 ),
 ( 0.006169491679933247763, 0.006950466015710173376, 0.007731440351487098989, 0.008512414687264026336, 0.009293389023040950214, 0.01007436335881787756, 0.01085533769459480317, 0.01163631203037172879, 0.01241728636614865440 ),
 .UNSPECIFIED. ) ;
#353 = CARTESIAN_POINT ( 'NONE',  ( 1.429688090389190647, -0.1496737411251290728, 0.5893460081480693669 ) ) ;
#354 =( CONVERSION_BASED_UNIT ( 'INCH', #557 ) LENGTH_UNIT ( ) NAMED_UNIT ( #526 ) );
#355 = CARTESIAN_POINT ( 'NONE',  ( -1.429992511864856430, 0.1467745314530081169, 0.6798604251296557210 ) ) ;
#356 = PRESENTATION_STYLE_ASSIGNMENT (( #85 ) ) ;
#357 = CARTESIAN_POINT ( 'NONE',  ( 1.498403372470191064, 0.06984726636449622994, 0.7707798613160230516 ) ) ;
#358 = STYLED_ITEM ( 'NONE', ( #75 ), #63 ) ;
#359 = EDGE_CURVE ( 'NONE', #370, #701, #671, .T. ) ;
#360 = MECHANICAL_DESIGN_GEOMETRIC_PRESENTATION_REPRESENTATION (  '', ( #749 ), #134 ) ;
#361 = DIRECTION ( 'NONE',  ( -0.9999993804656562846, -0.001113134449984587351, -0.000000000000000000 ) ) ;
#362 =( CONVERSION_BASED_UNIT ( 'INCH', #39 ) LENGTH_UNIT ( ) NAMED_UNIT ( #58 ) );
#363 = EDGE_LOOP ( 'NONE', ( #54, #89 ) ) ;
#364 = CARTESIAN_POINT ( 'NONE',  ( -1.492012785796830832, 0.1545892849416828363, 0.6400524428580546266 ) ) ;
#365 = CARTESIAN_POINT ( 'NONE',  ( -1.433742487465725635, -0.1041307420180531129, 0.5114577847052885762 ) ) ;
#366 = MECHANICAL_DESIGN_GEOMETRIC_PRESENTATION_REPRESENTATION (  '', ( #71 ), #507 ) ;
#367 = ORIENTED_EDGE ( 'NONE', *, *, #503, .T. ) ;
#368 = CARTESIAN_POINT ( 'NONE',  ( 1.492012785796831720, -0.1545892849416831138, 0.6400759026376849903 ) ) ;
#369 = CARTESIAN_POINT ( 'NONE',  ( 0.000000000000000000, 1.148106374200643401E-17, 6.000000000000000888 ) ) ;
#370 = VERTEX_POINT ( 'NONE', #431 ) ;
#371 = CARTESIAN_POINT ( 'NONE',  ( 1.493994734959487092, -0.1342062410338084599, 0.7076357638753015822 ) ) ;
#372 = COLOUR_RGB ( '',0.8588235294117646523, 0.8588235294117646523, 0.8588235294117646523 ) ;
#373 = DIRECTION ( 'NONE',  ( -1.000000000000000000, 0.000000000000000000, 0.000000000000000000 ) ) ;
#374 = CARTESIAN_POINT ( 'NONE',  ( -1.435835905629245790, -0.06980366432283149902, 0.4888590729543312863 ) ) ;
#375 = EDGE_CURVE ( 'NONE', #618, #701, #377, .T. ) ;
#376 = ORIENTED_EDGE ( 'NONE', *, *, #514, .F. ) ;
#377 = LINE ( 'NONE', #445, #632 ) ;
#378 = CARTESIAN_POINT ( 'NONE',  ( -1.432029193662354594, -0.1254259306612799385, 0.5339765071286318721 ) ) ;
#379 = ORIENTED_EDGE ( 'NONE', *, *, #440, .T. ) ;
#380 = AXIS2_PLACEMENT_3D ( 'NONE', #828, #489, #608 ) ;
#381 = SURFACE_STYLE_USAGE ( .BOTH. , #33 ) ;
#382 = PRODUCT_CONTEXT ( 'NONE', #543, 'mechanical' ) ;
#383 = CYLINDRICAL_SURFACE ( 'NONE', #210, 1.437500000000000000 ) ;
#384 = CARTESIAN_POINT ( 'NONE',  ( -1.500000000000000222, 2.132248216411870252E-17, 0.4735715739400740976 ) ) ;
#385 = ORIENTED_EDGE ( 'NONE', *, *, #375, .T. ) ;
#386 = CARTESIAN_POINT ( 'NONE',  ( -1.437500000000000000, 1.148106374200643401E-17, 6.000000000000000888 ) ) ;
#387 = EDGE_CURVE ( 'NONE', #711, #512, #748, .T. ) ;
#388 = STYLED_ITEM ( 'NONE', ( #26 ), #82 ) ;
#389 = CARTESIAN_POINT ( 'NONE',  ( -1.496528595617510948, 0.1022410618642417557, 0.5126800882561782791 ) ) ;
#390 = PRESENTATION_STYLE_ASSIGNMENT (( #470 ) ) ;
#391 = DIRECTION ( 'NONE',  ( 0.001113134449984923453, -0.9999993804656563956, 0.000000000000000000 ) ) ;
#392 = CARTESIAN_POINT ( 'NONE',  ( -1.436633424304797790, -0.05081368391739268797, 0.7784674540780321950 ) ) ;
#393 = CARTESIAN_POINT ( 'NONE',  ( -1.492193205984419180, -0.1528515323440577389, 0.6705864458355400570 ) ) ;
#394 = CARTESIAN_POINT ( 'NONE',  ( 1.491664931281210249, 0.1579105214538338853, 0.6195403303330033751 ) ) ;
#395 = COLOUR_RGB ( '',0.8588235294117646523, 0.8588235294117646523, 0.8588235294117646523 ) ;
#396 = DIRECTION ( 'NONE',  ( -1.000000000000000000, 0.000000000000000000, 0.000000000000000000 ) ) ;
#397 = CARTESIAN_POINT ( 'NONE',  ( -1.499493293415118833, 0.04025509825225610100, 0.4789439667428954106 ) ) ;
#398 = CARTESIAN_POINT ( 'NONE',  ( 1.500000000000000222, 2.056001757943647099E-16, 0.7860537308470981754 ) ) ;
#399 = CARTESIAN_POINT ( 'NONE',  ( -1.436661047686585535, 0.04998211871470228940, 0.4819757607130469856 ) ) ;
#400 = CARTESIAN_POINT ( 'NONE',  ( -1.428920069340021248, -0.1568369874395401653, 0.6502964174970568001 ) ) ;
#401 = CARTESIAN_POINT ( 'NONE',  ( -1.437500000000000000, -1.806186803113660670E-16, 0.7860544588395975696 ) ) ;
#402 = COLOUR_RGB ( '',0.8588235294117646523, 0.8588235294117646523, 0.8588235294117646523 ) ;
#403 = CARTESIAN_POINT ( 'NONE',  ( 1.429682810834630668, 0.1497639023142395276, 0.6804612683319988253 ) ) ;
#404 = CARTESIAN_POINT ( 'NONE',  ( -1.437387196761725550, -0.02063677709190347986, 0.7852374076150886451 ) ) ;
#405 = CARTESIAN_POINT ( 'NONE',  ( 1.437392931572558652, -0.02020486993212996726, 0.7848717751300195999 ) ) ;
#406 =( NAMED_UNIT ( * ) PLANE_ANGLE_UNIT ( ) SI_UNIT ( $, .RADIAN. ) );
#407 = CARTESIAN_POINT ( 'NONE',  ( -1.436966697345122279, 0.04041320982532210088, 0.7806556130510673430 ) ) ;
#408 = STYLED_ITEM ( 'NONE', ( #754 ), #875 ) ;
#409 = CARTESIAN_POINT ( 'NONE',  ( 1.437499999999999556, -0.01024246685863596656, 0.4736757428162120531 ) ) ;
#410 = SURFACE_SIDE_STYLE ('',( #697 ) ) ;
#411 =( GEOMETRIC_REPRESENTATION_CONTEXT ( 3 ) GLOBAL_UNCERTAINTY_ASSIGNED_CONTEXT ( ( #611 ) ) GLOBAL_UNIT_ASSIGNED_CONTEXT ( ( #143, #412, #350 ) ) REPRESENTATION_CONTEXT ( 'NONE', 'WORKASPACE' ) );
#412 =( NAMED_UNIT ( * ) PLANE_ANGLE_UNIT ( ) SI_UNIT ( $, .RADIAN. ) );
#413 = CARTESIAN_POINT ( 'NONE',  ( -1.500172997956294552, 0.1545802015227815129, 0.6298126523935860810 ) ) ;
#414 = VERTEX_POINT ( 'NONE', #229 ) ;
#415 =( LENGTH_UNIT ( ) NAMED_UNIT ( * ) SI_UNIT ( $, .METRE. ) );
#416 = CARTESIAN_POINT ( 'NONE',  ( 1.432246345443497937, -0.1229178237884937797, 0.5348656114624764646 ) ) ;
#417 = FACE_OUTER_BOUND ( 'NONE', #107, .T. ) ;
#418 = EDGE_LOOP ( 'NONE', ( #578, #150, #164, #651, #825, #567, #564, #228, #155, #727 ) ) ;
#419 =( NAMED_UNIT ( * ) SI_UNIT ( $, .STERADIAN. ) SOLID_ANGLE_UNIT ( ) );
#420 = COLOUR_RGB ( '',0.8588235294117646523, 0.8588235294117646523, 0.8588235294117646523 ) ;
#421 = CARTESIAN_POINT ( 'NONE',  ( 1.429155962600524132, -0.1546592530803471699, 0.6195546703380105935 ) ) ;
#422 =( NAMED_UNIT ( * ) SI_UNIT ( $, .STERADIAN. ) SOLID_ANGLE_UNIT ( ) );
#423 = EDGE_CURVE ( 'NONE', #462, #306, #37, .T. ) ;
#424 = ORIENTED_EDGE ( 'NONE', *, *, #174, .F. ) ;
#425 = B_SPLINE_CURVE_WITH_KNOTS ( 'NONE', 3,
 ( #343, #766, #616, #11, #277, #708, #95, #154, #505, #427, #579, #225, #712, #852, #566, #619, #20, #84 ),
 .UNSPECIFIED., .F., .F.,
 ( 4, 2, 2, 2, 2, 2, 2, 2, 4 ),
 ( 0.006252051839483232717, 0.007033205527846132961, 0.007814359216209033204, 0.008595512904571932580, 0.009376666592934831956, 0.01015782028129773307, 0.01093897396966063244, 0.01172012765802353355, 0.01250128134638643293 ),
 .UNSPECIFIED. ) ;
#426 = PRESENTATION_STYLE_ASSIGNMENT (( #496 ) ) ;
#427 = CARTESIAN_POINT ( 'NONE',  ( -1.496396588304534481, -0.1041718073726366905, 0.5114326521015918336 ) ) ;
#428 = PRESENTATION_STYLE_ASSIGNMENT (( #88 ) ) ;
#429 = STYLED_ITEM ( 'NONE', ( #390 ), #23 ) ;
#430 = EDGE_LOOP ( 'NONE', ( #27, #98 ) ) ;
#431 = CARTESIAN_POINT ( 'NONE',  ( 1.500000000000000222, 1.951780836141093889E-16, 0.000000000000000000 ) ) ;
#432 = VERTEX_POINT ( 'NONE', #840 ) ;
#433 = DIRECTION ( 'NONE',  ( 0.000000000000000000, 0.000000000000000000, 1.000000000000000000 ) ) ;
#434 = CARTESIAN_POINT ( 'NONE',  ( -1.434407541755636561, 0.09461917156389086647, 0.7533468872098979530 ) ) ;
#435 =( GEOMETRIC_REPRESENTATION_CONTEXT ( 3 ) GLOBAL_UNCERTAINTY_ASSIGNED_CONTEXT ( ( #530 ) ) GLOBAL_UNIT_ASSIGNED_CONTEXT ( ( #284, #841, #634 ) ) REPRESENTATION_CONTEXT ( 'NONE', 'WORKASPACE' ) );
#436 = CARTESIAN_POINT ( 'NONE',  ( -1.500000000000000222, -2.154558894834617481E-16, 0.7860537308470981754 ) ) ;
#437 =( GEOMETRIC_REPRESENTATION_CONTEXT ( 3 ) GLOBAL_UNCERTAINTY_ASSIGNED_CONTEXT ( ( #211 ) ) GLOBAL_UNIT_ASSIGNED_CONTEXT ( ( #213, #831, #419 ) ) REPRESENTATION_CONTEXT ( 'NONE', 'WORKASPACE' ) );
#438 = ORIENTED_EDGE ( 'NONE', *, *, #849, .T. ) ;
#439 = DIRECTION ( 'NONE',  ( 1.000000000000000000, 0.000000000000000000, 0.000000000000000000 ) ) ;
#440 = EDGE_CURVE ( 'NONE', #657, #698, #248, .T. ) ;
#441 = PRESENTATION_STYLE_ASSIGNMENT (( #175 ) ) ;
#442 = CARTESIAN_POINT ( 'NONE',  ( -1.430493285778160040, -0.1418138795695763066, 0.5601092074336833093 ) ) ;
#443 = ORIENTED_EDGE ( 'NONE', *, *, #296, .F. ) ;
#444 = COLOUR_RGB ( '',0.8588235294117646523, 0.8588235294117646523, 0.8588235294117646523 ) ;
#445 = CARTESIAN_POINT ( 'NONE',  ( -1.500000000000000222, 1.148106374200643401E-17, 6.000000000000000888 ) ) ;
#446 = PRESENTATION_STYLE_ASSIGNMENT (( #48 ) ) ;
#447 = PLANE ( 'NONE',  #49 ) ;
#448 = ORIENTED_EDGE ( 'NONE', *, *, #349, .T. ) ;
#449 = SURFACE_STYLE_FILL_AREA ( #166 ) ;
#450 = FILL_AREA_STYLE ('',( #801 ) ) ;
#451 = CARTESIAN_POINT ( 'NONE',  ( 1.500000000000000222, -0.01023932925148478452, 0.4736809985214908703 ) ) ;
#452 = ADVANCED_FACE ( 'NONE', ( #642 ), #299, .F. ) ;
#453 = ORIENTED_EDGE ( 'NONE', *, *, #218, .T. ) ;
#454 = MECHANICAL_DESIGN_GEOMETRIC_PRESENTATION_REPRESENTATION (  '', ( #3 ), #862 ) ;
#455 = DIMENSIONAL_EXPONENTS ( 1.000000000000000000, 0.000000000000000000, 0.000000000000000000, 0.000000000000000000, 0.000000000000000000, 0.000000000000000000, 0.000000000000000000 ) ;
#456 = CARTESIAN_POINT ( 'NONE',  ( 1.428923568822715762, 0.1568050718139513411, 0.6505064907671325170 ) ) ;
#457 = CARTESIAN_POINT ( 'NONE',  ( 1.429155962600523466, -0.1546592530803472254, 0.6298126523935860810 ) ) ;
#458 = CARTESIAN_POINT ( 'NONE',  ( -1.432233460887499366, 0.1230655644632028672, 0.5350674862011374211 ) ) ;
#459 = AXIS2_PLACEMENT_3D ( 'NONE', #560, #491, #755 ) ;
#460 = DIRECTION ( 'NONE',  ( -0.9999993804656561736, -0.001113134449984587134, -0.000000000000000000 ) ) ;
#461 = CARTESIAN_POINT ( 'NONE',  ( 1.492012785796830832, -0.1545892849416831416, 0.6298126523935860810 ) ) ;
#462 = VERTEX_POINT ( 'NONE', #670 ) ;
#463 = CARTESIAN_POINT ( 'NONE',  ( -1.429155962600523688, 0.1546592530803470034, 0.6195617184536389432 ) ) ;
#464 = CARTESIAN_POINT ( 'NONE',  ( 1.429155962600523466, -0.1546592530803472254, 0.6298126523935860810 ) ) ;
#465 = CARTESIAN_POINT ( 'NONE',  ( -1.499999070698484482, -0.001669701674977010480, 0.6298126523935860810 ) ) ;
#466 = CARTESIAN_POINT ( 'NONE',  ( 1.435349463250289004, 0.07906677923684887754, 0.7658918322529023603 ) ) ;
#467 = EDGE_CURVE ( 'NONE', #684, #694, #352, .T. ) ;
#468 = CARTESIAN_POINT ( 'NONE',  ( 1.432597622943896809, 0.1188432861303695826, 0.5260240594947307446 ) ) ;
#469 = CARTESIAN_POINT ( 'NONE',  ( 1.429681957883662813, -0.1497319083887160007, 0.6700344797465199731 ) ) ;
#470 = SURFACE_STYLE_USAGE ( .BOTH. , #806 ) ;
#471 = DIMENSIONAL_EXPONENTS ( 1.000000000000000000, 0.000000000000000000, 0.000000000000000000, 0.000000000000000000, 0.000000000000000000, 0.000000000000000000, 0.000000000000000000 ) ;
#472 = CARTESIAN_POINT ( 'NONE',  ( 1.432028938441692656, 0.1254288474518773788, 0.7256450954491066030 ) ) ;
#473 = CARTESIAN_POINT ( 'NONE',  ( -1.437500000000000000, 1.148106374200643401E-17, 6.000000000000000888 ) ) ;
#474 = CARTESIAN_POINT ( 'NONE',  ( 1.437500000000000000, 1.780266240244977077E-16, 0.4735708459475746479 ) ) ;
#475 = FILL_AREA_STYLE_COLOUR ( '', #587 ) ;
#476 = CARTESIAN_POINT ( 'NONE',  ( -1.430765060666581823, 0.1390420377028623589, 0.6986546927749425206 ) ) ;
#477 = CYLINDRICAL_SURFACE ( 'NONE', #269, 0.1562499999999997224 ) ;
#478 = CARTESIAN_POINT ( 'NONE',  ( 1.432787003814968596, -0.1165271743368925944, 0.5270338631530455675 ) ) ;
#479 = CARTESIAN_POINT ( 'NONE',  ( 1.491664931281210915, 0.1579105214538339130, 0.6298126523935860810 ) ) ;
#480 = EDGE_CURVE ( 'NONE', #856, #208, #133, .T. ) ;
#481 = VECTOR ( 'NONE', #460, 39.37007874015748854 ) ;
#482 = MECHANICAL_DESIGN_GEOMETRIC_PRESENTATION_REPRESENTATION (  '', ( #609 ), #569 ) ;
#483 = CARTESIAN_POINT ( 'NONE',  ( -1.437500000000000000, 1.148106374200643401E-17, 6.000000000000000888 ) ) ;
#484 = CARTESIAN_POINT ( 'NONE',  ( 1.500000000000000222, 2.056001757943647099E-16, 0.7860537308470981754 ) ) ;
#485 = VERTEX_POINT ( 'NONE', #659 ) ;
#486 = FILL_AREA_STYLE ('',( #620 ) ) ;
#487 = CARTESIAN_POINT ( 'NONE',  ( 1.433873364367501679, -0.1022954330233647041, 0.5126680960603717807 ) ) ;
#488 = CARTESIAN_POINT ( 'NONE',  ( 1.494753283690861911, 0.1254817165520624167, 0.7256673374033981716 ) ) ;
#489 = DIRECTION ( 'NONE',  ( 0.000000000000000000, 0.000000000000000000, 1.000000000000000000 ) ) ;
#490 = EDGE_CURVE ( 'NONE', #414, #432, #142, .T. ) ;
#491 = DIRECTION ( 'NONE',  ( 0.000000000000000000, 0.000000000000000000, 1.000000000000000000 ) ) ;
#492 = STYLED_ITEM ( 'NONE', ( #426 ), #648 ) ;
#493 = PRODUCT ( '8585K391_Impact-Resistant Polycarbonate Round Tube_8585K391', '8585K391_Impact-Resistant Polycarbonate Round Tube_8585K391', '', ( #382 ) ) ;
#494 = ORIENTED_EDGE ( 'NONE', *, *, #282, .T. ) ;
#495 = CARTESIAN_POINT ( 'NONE',  ( -1.493552524653155134, 0.1389817411374227596, 0.6986347415940860062 ) ) ;
#496 = SURFACE_STYLE_USAGE ( .BOTH. , #224 ) ;
#497 = CARTESIAN_POINT ( 'NONE',  ( -1.437500000000000000, 2.117227111236123943E-17, 0.4735708459475746479 ) ) ;
#498 =( GEOMETRIC_REPRESENTATION_CONTEXT ( 3 ) GLOBAL_UNCERTAINTY_ASSIGNED_CONTEXT ( ( #784 ) ) GLOBAL_UNIT_ASSIGNED_CONTEXT ( ( #362, #847, #237 ) ) REPRESENTATION_CONTEXT ( 'NONE', 'WORKASPACE' ) );
#499 = ORIENTED_EDGE ( 'NONE', *, *, #534, .F. ) ;
#500 = CARTESIAN_POINT ( 'NONE',  ( 1.496528306186667434, -0.1022449411603656017, 0.7469411394575536933 ) ) ;
#501 = CARTESIAN_POINT ( 'NONE',  ( -1.498399183209945251, -0.06993803075944575454, 0.7707366486991462651 ) ) ;
#502 = ORIENTED_EDGE ( 'NONE', *, *, #218, .F. ) ;
#503 = EDGE_CURVE ( 'NONE', #844, #785, #703, .T. ) ;
#504 = CARTESIAN_POINT ( 'NONE',  ( -1.497039067483136865, 0.09458044980952652614, 0.7533224219046678050 ) ) ;
#505 = CARTESIAN_POINT ( 'NONE',  ( -1.495298576856867179, -0.1188977753810269294, 0.5259970263491613451 ) ) ;
#506 = CARTESIAN_POINT ( 'NONE',  ( 0.000000000000000000, 1.148106374200643401E-17, 6.000000000000000888 ) ) ;
#507 =( GEOMETRIC_REPRESENTATION_CONTEXT ( 3 ) GLOBAL_UNCERTAINTY_ASSIGNED_CONTEXT ( ( #730 ) ) GLOBAL_UNIT_ASSIGNED_CONTEXT ( ( #819, #554, #757 ) ) REPRESENTATION_CONTEXT ( 'NONE', 'WORKASPACE' ) );
#508 = ORIENTED_EDGE ( 'NONE', *, *, #191, .F. ) ;
#509 = APPLICATION_PROTOCOL_DEFINITION ( 'draft international standard', 'automotive_design', 1998, #543 ) ;
#510 = CARTESIAN_POINT ( 'NONE',  ( 1.500000000000000222, 1.951780836141093889E-16, 6.000000000000000888 ) ) ;
#511 = CARTESIAN_POINT ( 'NONE',  ( 1.500000000000000222, 1.951780836141093889E-16, 6.000000000000000888 ) ) ;
#512 = VERTEX_POINT ( 'NONE', #811 ) ;
#513 = CARTESIAN_POINT ( 'NONE',  ( -1.492514834131575929, 0.1496774563380662559, 0.6699738704344473383 ) ) ;
#514 = EDGE_CURVE ( 'NONE', #715, #633, #289, .T. ) ;
#515 = SURFACE_SIDE_STYLE ('',( #524 ) ) ;
#516 = FACE_BOUND ( 'NONE', #294, .T. ) ;
#517 = ORIENTED_EDGE ( 'NONE', *, *, #650, .T. ) ;
#518 = DIRECTION ( 'NONE',  ( -0.9999993804656562846, -0.001113134449984587351, -0.000000000000000000 ) ) ;
#519 = SHAPE_DEFINITION_REPRESENTATION ( #47, #648 ) ;
#520 = DIMENSIONAL_EXPONENTS ( 1.000000000000000000, 0.000000000000000000, 0.000000000000000000, 0.000000000000000000, 0.000000000000000000, 0.000000000000000000, 0.000000000000000000 ) ;
#521 = FILL_AREA_STYLE_COLOUR ( '', #420 ) ;
#522 = CARTESIAN_POINT ( 'NONE',  ( 1.431227151862939806, -0.1342636555372237750, 0.7076578737577193801 ) ) ;
#523 = CARTESIAN_POINT ( 'NONE',  ( -1.437393012075899090, 0.02020559534572186414, 0.4747527424415239339 ) ) ;
#524 = SURFACE_STYLE_FILL_AREA ( #450 ) ;
#525 = CARTESIAN_POINT ( 'NONE',  ( 1.492820016412037987, -0.1466402491393621055, 0.5795867869713478004 ) ) ;
#526 = DIMENSIONAL_EXPONENTS ( 1.000000000000000000, 0.000000000000000000, 0.000000000000000000, 0.000000000000000000, 0.000000000000000000, 0.000000000000000000, 0.000000000000000000 ) ;
#527 = CARTESIAN_POINT ( 'NONE',  ( -1.436970870792690702, 0.04026976211992813748, 0.4789285143728325145 ) ) ;
#528 = CARTESIAN_POINT ( 'NONE',  ( 1.428808108084903106, 0.1578405533151698570, 0.6298126523935860810 ) ) ;
#529 = CARTESIAN_POINT ( 'NONE',  ( 1.495487720023814138, -0.1164789384663287158, 0.5270588321151953304 ) ) ;
#530 = UNCERTAINTY_MEASURE_WITH_UNIT (LENGTH_MEASURE( 1.000000000000000082E-05 ), #284, 'distance_accuracy_value', 'NONE');
#531 = B_SPLINE_CURVE_WITH_KNOTS ( 'NONE', 3,
 ( #327, #451, #323, #866, #863, #330, #261, #598, #603, #529, #256, #607, #805, #525, #193, #734, #726, #461 ),
 .UNSPECIFIED., .F., .F.,
 ( 4, 2, 2, 2, 2, 2, 2, 2, 4 ),
 ( 0.01866814183504998323, 0.01943839274401302358, 0.02020864365297606394, 0.02097889456193910429, 0.02174914547090214118, 0.02251939637986518153, 0.02328964728882822188, 0.02405989819779126224, 0.02483014910675430259 ),
 .UNSPECIFIED. ) ;
#532 = DIMENSIONAL_EXPONENTS ( 1.000000000000000000, 0.000000000000000000, 0.000000000000000000, 0.000000000000000000, 0.000000000000000000, 0.000000000000000000, 0.000000000000000000 ) ;
#533 = CARTESIAN_POINT ( 'NONE',  ( 1.494757341054488542, 0.1254358636004035410, 0.5338882801793282118 ) ) ;
#534 = EDGE_CURVE ( 'NONE', #785, #711, #212, .T. ) ;
#535 = CARTESIAN_POINT ( 'NONE',  ( -1.432033166030041382, -0.1253834593103854145, 0.7257160304654581839 ) ) ;
#536 = CARTESIAN_POINT ( 'NONE',  ( -1.492516339312700113, 0.1496624989642310610, 0.5895946587712094233 ) ) ;
#537 = SURFACE_SIDE_STYLE ('',( #262 ) ) ;
#538 = CARTESIAN_POINT ( 'NONE',  ( -1.432785652886515049, 0.1165447009888822827, 0.5270518964080237456 ) ) ;
#539 = CARTESIAN_POINT ( 'NONE',  ( 1.435353863164497756, 0.07898957151517427278, 0.4936875020864299746 ) ) ;
#540 = CARTESIAN_POINT ( 'NONE',  ( -1.500000000000000222, 1.148106374200643401E-17, 6.000000000000000888 ) ) ;
#541 = LENGTH_MEASURE_WITH_UNIT ( LENGTH_MEASURE( 0.02539999999999999897 ), #675 );
#542 = CARTESIAN_POINT ( 'NONE',  ( 1.496386605098892764, 0.1043100389880939338, 0.5115607829272039719 ) ) ;
#543 = APPLICATION_CONTEXT ( 'automotive_design' ) ;
#544 = B_SPLINE_CURVE_WITH_KNOTS ( 'NONE', 3,
 ( #384, #67, #116, #397, #668, #673, #251, #335, #389, #188, #181, #57, #61, #661, #536, #737, #872, #593 ),
 .UNSPECIFIED., .F., .F.,
 ( 4, 2, 2, 2, 2, 2, 2, 2, 4 ),
 ( 0.01250128134638643293, 0.01327214225539673741, 0.01404300316440704188, 0.01481386407341734636, 0.01558472498242765084, 0.01635558589143795705, 0.01712644680044825979, 0.01789730770945856253, 0.01866816861846886874 ),
 .UNSPECIFIED. ) ;
#545 = MECHANICAL_DESIGN_GEOMETRIC_PRESENTATION_REPRESENTATION (  '', ( #388 ), #411 ) ;
#546 = SURFACE_SIDE_STYLE ('',( #677 ) ) ;
#547 = EDGE_CURVE ( 'NONE', #785, #208, #129, .T. ) ;
#548 = CYLINDRICAL_SURFACE ( 'NONE', #787, 1.500000000000000222 ) ;
#549 = LENGTH_MEASURE_WITH_UNIT ( LENGTH_MEASURE( 0.02539999999999999897 ), #8 );
#550 = CARTESIAN_POINT ( 'NONE',  ( 1.437500000000000000, 1.780266240244977077E-16, 0.4735708459475746479 ) ) ;
#551 = CARTESIAN_POINT ( 'NONE',  ( 1.436661921915839635, -0.04996479802014846400, 0.4819665613078650823 ) ) ;
#552 = UNCERTAINTY_MEASURE_WITH_UNIT (LENGTH_MEASURE( 1.000000000000000082E-05 ), #717, 'distance_accuracy_value', 'NONE');
#553 = CARTESIAN_POINT ( 'NONE',  ( 1.495295931006942691, 0.1189318358753618382, 0.7335917776130652657 ) ) ;
#554 =( NAMED_UNIT ( * ) PLANE_ANGLE_UNIT ( ) SI_UNIT ( $, .RADIAN. ) );
#555 = PRODUCT_DEFINITION_FORMATION_WITH_SPECIFIED_SOURCE ( 'Symmetric', '', #493, .NOT_KNOWN. ) ;
#556 = LINE ( 'NONE', #148, #761 ) ;
#557 = LENGTH_MEASURE_WITH_UNIT ( LENGTH_MEASURE( 0.02539999999999999897 ), #13 );
#558 = FILL_AREA_STYLE_COLOUR ( '', #395 ) ;
#559 = ORIENTED_EDGE ( 'NONE', *, *, #650, .F. ) ;
#560 = CARTESIAN_POINT ( 'NONE',  ( 0.000000000000000000, 1.148106374200643401E-17, 0.000000000000000000 ) ) ;
#561 = CARTESIAN_POINT ( 'NONE',  ( 1.493279569640683091, 0.1418874516186848234, 0.6995071463705924142 ) ) ;
#562 = FILL_AREA_STYLE ('',( #558 ) ) ;
#563 =( GEOMETRIC_REPRESENTATION_CONTEXT ( 3 ) GLOBAL_UNCERTAINTY_ASSIGNED_CONTEXT ( ( #311 ) ) GLOBAL_UNIT_ASSIGNED_CONTEXT ( ( #678, #340, #7 ) ) REPRESENTATION_CONTEXT ( 'NONE', 'WORKASPACE' ) );
#564 = ORIENTED_EDGE ( 'NONE', *, *, #440, .F. ) ;
#565 =( LENGTH_UNIT ( ) NAMED_UNIT ( * ) SI_UNIT ( $, .METRE. ) );
#566 = CARTESIAN_POINT ( 'NONE',  ( -1.499475851394383996, -0.04092277204707980148, 0.4782231786664907780 ) ) ;
#567 = ORIENTED_EDGE ( 'NONE', *, *, #719, .T. ) ;
#568 =( CONVERSION_BASED_UNIT ( 'INCH', #295 ) LENGTH_UNIT ( ) NAMED_UNIT ( #631 ) );
#569 =( GEOMETRIC_REPRESENTATION_CONTEXT ( 3 ) GLOBAL_UNCERTAINTY_ASSIGNED_CONTEXT ( ( #552 ) ) GLOBAL_UNIT_ASSIGNED_CONTEXT ( ( #717, #105, #315 ) ) REPRESENTATION_CONTEXT ( 'NONE', 'WORKASPACE' ) );
#570 = CARTESIAN_POINT ( 'NONE',  ( -1.435349935703019053, -0.07905852216124022169, 0.4937285264971630339 ) ) ;
#571 = ORIENTED_EDGE ( 'NONE', *, *, #423, .F. ) ;
#572 = FILL_AREA_STYLE_COLOUR ( '', #402 ) ;
#573 =( NAMED_UNIT ( * ) SI_UNIT ( $, .STERADIAN. ) SOLID_ANGLE_UNIT ( ) );
#574 = CARTESIAN_POINT ( 'NONE',  ( -1.499478887339634969, -0.04080081619079193450, 0.7814306435531690465 ) ) ;
#575 = CLOSED_SHELL ( 'NONE', ( #23, #452, #63, #82, #599, #106, #676, #702, #875, #12 ) ) ;
#576 = VERTEX_POINT ( 'NONE', #146 ) ;
#577 = CARTESIAN_POINT ( 'NONE',  ( -1.496521503451880841, 0.1023434150088980282, 0.7468525376068352317 ) ) ;
#578 = ORIENTED_EDGE ( 'NONE', *, *, #268, .F. ) ;
#579 = CARTESIAN_POINT ( 'NONE',  ( -1.496936390503206482, -0.09620257825353165093, 0.5049846619125748504 ) ) ;
#580 = SURFACE_SIDE_STYLE ('',( #655 ) ) ;
#581 = ORIENTED_EDGE ( 'NONE', *, *, #282, .F. ) ;
#582 = CARTESIAN_POINT ( 'NONE',  ( 1.494958412364385758, -0.1230078392625751221, 0.7245427874918641820 ) ) ;
#583 = EDGE_CURVE ( 'NONE', #856, #485, #725, .T. ) ;
#584 = DIMENSIONAL_EXPONENTS ( 1.000000000000000000, 0.000000000000000000, 0.000000000000000000, 0.000000000000000000, 0.000000000000000000, 0.000000000000000000, 0.000000000000000000 ) ;
#585 = CARTESIAN_POINT ( 'NONE',  ( -1.499825143440674191, -0.1579196048727355139, 0.6298126523935860810 ) ) ;
#586 = ORIENTED_EDGE ( 'NONE', *, *, #691, .T. ) ;
#587 = COLOUR_RGB ( '',0.8588235294117646523, 0.8588235294117646523, 0.8588235294117646523 ) ;
#588 = CARTESIAN_POINT ( 'NONE',  ( 1.498015677700277548, -0.07759185750441821572, 0.7648534022477023742 ) ) ;
#589 = CARTESIAN_POINT ( 'NONE',  ( 1.437500000000000000, 1.875240411194384175E-16, 0.000000000000000000 ) ) ;
#590 = CARTESIAN_POINT ( 'NONE',  ( -1.495298987838980631, -0.1188878834588864425, 0.7336294026432171878 ) ) ;
#591 =( NAMED_UNIT ( * ) SI_UNIT ( $, .STERADIAN. ) SOLID_ANGLE_UNIT ( ) );
#592 = CARTESIAN_POINT ( 'NONE',  ( 1.436636106068088337, 0.05073663031767539772, 0.7784923110808492641 ) ) ;
#593 = CARTESIAN_POINT ( 'NONE',  ( -1.492012785796830610, 0.1545892849416828918, 0.6298126523935860810 ) ) ;
#594 = AXIS2_PLACEMENT_3D ( 'NONE', #51, #332, #322 ) ;
#595 = ORIENTED_EDGE ( 'NONE', *, *, #191, .T. ) ;
#596 = CARTESIAN_POINT ( 'NONE',  ( -1.429155962600523466, 0.1546592530803469479, 0.6298126523935860810 ) ) ;
#597 = DIRECTION ( 'NONE',  ( 1.000000000000000000, 0.000000000000000000, 0.000000000000000000 ) ) ;
#598 = CARTESIAN_POINT ( 'NONE',  ( 1.497055424393746170, -0.09431745460072712972, 0.5061035127248858512 ) ) ;
#599 = ADVANCED_FACE ( 'NONE', ( #5, #341 ), #76, .T. ) ;
#600 = CARTESIAN_POINT ( 'NONE',  ( 1.493277105364545054, 0.1419126955892036634, 0.5601783039941596876 ) ) ;
#601 = STYLED_ITEM ( 'NONE', ( #356 ), #347 ) ;
#602 = CARTESIAN_POINT ( 'NONE',  ( -1.430489604366735001, -0.1418501400211072960, 0.6994315998422303560 ) ) ;
#603 = CARTESIAN_POINT ( 'NONE',  ( 1.496527701955680634, -0.1022531228252590019, 0.5126925947348212054 ) ) ;
#604 = CARTESIAN_POINT ( 'NONE',  ( 1.499475866489817788, 0.04092042052076470121, 0.7814022364665594855 ) ) ;
#605 = CARTESIAN_POINT ( 'NONE',  ( -1.435891846005644901, 0.06861329831476462027, 0.4898601347773322012 ) ) ;
#606 = LINE ( 'NONE', #812, #624 ) ;
#607 = CARTESIAN_POINT ( 'NONE',  ( 1.493999843871933075, -0.1341511829494604624, 0.5518855574590287860 ) ) ;
#608 = DIRECTION ( 'NONE',  ( 1.000000000000000000, 0.000000000000000000, 0.000000000000000000 ) ) ;
#609 = STYLED_ITEM ( 'NONE', ( #446 ), #702 ) ;
#610 = CARTESIAN_POINT ( 'NONE',  ( 1.437386904406818378, 0.02065499308909370113, 0.4743904121061104373 ) ) ;
#611 = UNCERTAINTY_MEASURE_WITH_UNIT (LENGTH_MEASURE( 1.000000000000000082E-05 ), #143, 'distance_accuracy_value', 'NONE');
#612 = CARTESIAN_POINT ( 'NONE',  ( 0.000000000000000000, 1.148106374200643401E-17, 6.000000000000000888 ) ) ;
#613 = SURFACE_SIDE_STYLE ('',( #79 ) ) ;
#614 = VECTOR ( 'NONE', #16, 39.37007874015748854 ) ;
#615 = DIRECTION ( 'NONE',  ( 0.000000000000000000, 0.000000000000000000, 1.000000000000000000 ) ) ;
#616 = CARTESIAN_POINT ( 'NONE',  ( -1.491775764366585433, -0.1568732323397288297, 0.6091067963124560114 ) ) ;
#617 = CARTESIAN_POINT ( 'NONE',  ( 1.499169413797460493, 0.05082016613698581153, 0.4811360606115678840 ) ) ;
#618 = VERTEX_POINT ( 'NONE', #622 ) ;
#619 = CARTESIAN_POINT ( 'NONE',  ( -1.499891631839600725, -0.02067836851572293563, 0.4743813737567792455 ) ) ;
#620 = FILL_AREA_STYLE_COLOUR ( '', #165 ) ;
#621 = CARTESIAN_POINT ( 'NONE',  ( 1.434414740136714661, -0.09451012374377450176, 0.7534314090587639345 ) ) ;
#622 = CARTESIAN_POINT ( 'NONE',  ( -1.500000000000000222, 2.132248216411870252E-17, 0.4735715739400740976 ) ) ;
#623 = ORIENTED_EDGE ( 'NONE', *, *, #387, .F. ) ;
#624 = VECTOR ( 'NONE', #139, 39.37007874015748143 ) ;
#625 = CARTESIAN_POINT ( 'NONE',  ( 1.435891909659170906, -0.06861159673970866624, 0.7697658125838621190 ) ) ;
#626 = CARTESIAN_POINT ( 'NONE',  ( 1.491775632728356449, 0.1568744956938529500, 0.6505115797863785243 ) ) ;
#627 = DIRECTION ( 'NONE',  ( -0.9999993804656561736, -0.001113134449984587134, -0.000000000000000000 ) ) ;
#628 = EDGE_CURVE ( 'NONE', #462, #182, #281, .T. ) ;
#629 =( GEOMETRIC_REPRESENTATION_CONTEXT ( 3 ) GLOBAL_UNCERTAINTY_ASSIGNED_CONTEXT ( ( #674 ) ) GLOBAL_UNIT_ASSIGNED_CONTEXT ( ( #252, #406, #132 ) ) REPRESENTATION_CONTEXT ( 'NONE', 'WORKASPACE' ) );
#630 = SURFACE_SIDE_STYLE ('',( #86 ) ) ;
#631 = DIMENSIONAL_EXPONENTS ( 1.000000000000000000, 0.000000000000000000, 0.000000000000000000, 0.000000000000000000, 0.000000000000000000, 0.000000000000000000, 0.000000000000000000 ) ;
#632 = VECTOR ( 'NONE', #652, 39.37007874015748143 ) ;
#633 = VERTEX_POINT ( 'NONE', #320 ) ;
#634 =( NAMED_UNIT ( * ) SI_UNIT ( $, .STERADIAN. ) SOLID_ANGLE_UNIT ( ) );
#635 = CARTESIAN_POINT ( 'NONE',  ( -1.428808108084903106, -0.1578405533151700513, 0.6298126523935860810 ) ) ;
#636 = ORIENTED_EDGE ( 'NONE', *, *, #349, .F. ) ;
#637 = CARTESIAN_POINT ( 'NONE',  ( 0.000000000000000000, 1.148106374200643401E-17, 0.000000000000000000 ) ) ;
#638 =( LENGTH_UNIT ( ) NAMED_UNIT ( * ) SI_UNIT ( $, .METRE. ) );
#639 = VECTOR ( 'NONE', #326, 39.37007874015748143 ) ;
#640 = CARTESIAN_POINT ( 'NONE',  ( -1.500000000000000444, -0.01040358895717499906, 0.7861649108217743098 ) ) ;
#641 = EDGE_LOOP ( 'NONE', ( #32, #222, #853, #147, #448, #385, #595, #654, #839, #171 ) ) ;
#642 = FACE_OUTER_BOUND ( 'NONE', #92, .T. ) ;
#643 =( NAMED_UNIT ( * ) SI_UNIT ( $, .STERADIAN. ) SOLID_ANGLE_UNIT ( ) );
#644 = FACE_OUTER_BOUND ( 'NONE', #178, .T. ) ;
#645 = PRESENTATION_LAYER_ASSIGNMENT (  '', '', ( #358 ) ) ;
#646 = ORIENTED_EDGE ( 'NONE', *, *, #628, .T. ) ;
#647 = CARTESIAN_POINT ( 'NONE',  ( 1.495486929184017155, -0.1164896727207248295, 0.7325554654509669472 ) ) ;
#648 = ADVANCED_BREP_SHAPE_REPRESENTATION ( '8585K391_Impact-Resistant Polycarbonate Round Tube_8585K391', ( #347, #696 ), #768 ) ;
#649 = UNCERTAINTY_MEASURE_WITH_UNIT (LENGTH_MEASURE( 1.000000000000000082E-05 ), #250, 'distance_accuracy_value', 'NONE');
#650 = EDGE_CURVE ( 'NONE', #715, #694, #733, .T. ) ;
#651 = ORIENTED_EDGE ( 'NONE', *, *, #547, .F. ) ;
#652 = DIRECTION ( 'NONE',  ( -0.000000000000000000, -0.000000000000000000, -1.000000000000000000 ) ) ;
#653 =( NAMED_UNIT ( * ) PLANE_ANGLE_UNIT ( ) SI_UNIT ( $, .RADIAN. ) );
#654 = ORIENTED_EDGE ( 'NONE', *, *, #138, .F. ) ;
#655 = SURFACE_STYLE_FILL_AREA ( #308 ) ;
#656 = CARTESIAN_POINT ( 'NONE',  ( 1.432234047629833196, -0.1230590193272464578, 0.7245676191457013360 ) ) ;
#657 = VERTEX_POINT ( 'NONE', #589 ) ;
#658 = AXIS2_PLACEMENT_3D ( 'NONE', #120, #336, #868 ) ;
#659 = CARTESIAN_POINT ( 'NONE',  ( 1.437500000000000000, 1.875240411194384175E-16, 6.000000000000000888 ) ) ;
#660 =( LENGTH_UNIT ( ) NAMED_UNIT ( * ) SI_UNIT ( $, .METRE. ) );
#661 = CARTESIAN_POINT ( 'NONE',  ( -1.492814075008326968, 0.1467014667845049081, 0.5797501891708320976 ) ) ;
#662 = CARTESIAN_POINT ( 'NONE',  ( 1.437386725671946808, 0.02068654268080132724, 0.7852337138750270507 ) ) ;
#663 = CARTESIAN_POINT ( 'NONE',  ( -1.432597956362908320, -0.1188389791411409574, 0.7336054654235485417 ) ) ;
#664 = DIRECTION ( 'NONE',  ( 0.000000000000000000, 0.000000000000000000, 1.000000000000000000 ) ) ;
#665 = PRESENTATION_LAYER_ASSIGNMENT (  '', '', ( #3 ) ) ;
#666 = CARTESIAN_POINT ( 'NONE',  ( 1.491772162355829323, 0.1569075597152114199, 0.6093265226718835859 ) ) ;
#667 = CARTESIAN_POINT ( 'NONE',  ( -1.433731698956886902, -0.1042737883875331090, 0.7480346036269782672 ) ) ;
#668 = CARTESIAN_POINT ( 'NONE',  ( -1.499196651597912933, 0.04996239822253770169, 0.4819933791283601554 ) ) ;
#669 = SURFACE_STYLE_USAGE ( .BOTH. , #537 ) ;
#670 = CARTESIAN_POINT ( 'NONE',  ( 1.492012785796830832, -0.1545892849416831416, 0.6298126523935860810 ) ) ;
#671 = CIRCLE ( 'NONE', #25, 1.500000000000000222 ) ;
#672 = CARTESIAN_POINT ( 'NONE',  ( 1.432033171708714026, 0.1253829718098841139, 0.5339105806494807149 ) ) ;
#673 = CARTESIAN_POINT ( 'NONE',  ( -1.498460162496537240, 0.06858558747572271463, 0.4898813946065540548 ) ) ;
#674 = UNCERTAINTY_MEASURE_WITH_UNIT (LENGTH_MEASURE( 1.000000000000000082E-05 ), #252, 'distance_accuracy_value', 'NONE');
#675 =( LENGTH_UNIT ( ) NAMED_UNIT ( * ) SI_UNIT ( $, .METRE. ) );
#676 = ADVANCED_FACE ( 'NONE', ( #100 ), #846, .T. ) ;
#677 = SURFACE_STYLE_FILL_AREA ( #135 ) ;
#678 =( CONVERSION_BASED_UNIT ( 'INCH', #140 ) LENGTH_UNIT ( ) NAMED_UNIT ( #121 ) );
#679 = CARTESIAN_POINT ( 'NONE',  ( 1.496396044337479747, 0.1041805229481427564, 0.7481868386913482771 ) ) ;
#680 = CARTESIAN_POINT ( 'NONE',  ( -1.437390247238200969, 0.02039102625757655343, 0.7848451087523947711 ) ) ;
#681 = CIRCLE ( 'NONE', #851, 1.437500000000000000 ) ;
#682 = CARTESIAN_POINT ( 'NONE',  ( -1.434306452693917544, -0.09615215972081039841, 0.7546287008238315996 ) ) ;
#683 = CARTESIAN_POINT ( 'NONE',  ( 1.493747695459265667, 0.1369337891230609783, 0.7086842532069316247 ) ) ;
#684 = VERTEX_POINT ( 'NONE', #180 ) ;
#685 = MECHANICAL_DESIGN_GEOMETRIC_PRESENTATION_REPRESENTATION (  '', ( #429 ), #245 ) ;
#686 =( NAMED_UNIT ( * ) PLANE_ANGLE_UNIT ( ) SI_UNIT ( $, .RADIAN. ) );
#687 = FILL_AREA_STYLE_COLOUR ( '', #372 ) ;
#688 = FACE_OUTER_BOUND ( 'NONE', #36, .T. ) ;
#689 = CARTESIAN_POINT ( 'NONE',  ( 1.500000000000000222, 0.01038821452714210926, 0.4734605582672324342 ) ) ;
#690 = CARTESIAN_POINT ( 'NONE',  ( 1.434424566176345506, -0.09435693921368425163, 0.5060797963195364790 ) ) ;
#691 = EDGE_CURVE ( 'NONE', #432, #306, #782, .T. ) ;
#692 = SURFACE_STYLE_USAGE ( .BOTH. , #280 ) ;
#693 = CARTESIAN_POINT ( 'NONE',  ( 1.497941995520077452, 0.07901679600833676209, 0.4936630917411297670 ) ) ;
#694 = VERTEX_POINT ( 'NONE', #111 ) ;
#695 = AXIS2_PLACEMENT_3D ( 'NONE', #345, #83, #14 ) ;
#696 = AXIS2_PLACEMENT_3D ( 'NONE', #87, #861, #110 ) ;
#697 = SURFACE_STYLE_FILL_AREA ( #818 ) ;
#698 = VERTEX_POINT ( 'NONE', #713 ) ;
#699 = MECHANICAL_DESIGN_GEOMETRIC_PRESENTATION_REPRESENTATION (  '', ( #816 ), #498 ) ;
#700 = CARTESIAN_POINT ( 'NONE',  ( -1.428923711291677279, -0.1568037617072417789, 0.6091116045598762296 ) ) ;
#701 = VERTEX_POINT ( 'NONE', #796 ) ;
#702 = ADVANCED_FACE ( 'NONE', ( #255 ), #383, .F. ) ;
#703 = B_SPLINE_CURVE_WITH_KNOTS ( 'NONE', 3,
 ( #253, #870, #523, #527, #399, #605, #267, #800, #186, #538, #458, #731, #803, #55, #325, #122, #463, #596 ),
 .UNSPECIFIED., .F., .F.,
 ( 4, 2, 2, 2, 2, 2, 2, 2, 4 ),
 ( 0.01249850313691277214, 0.01326962979179797594, 0.01404075644668317975, 0.01481188310156838356, 0.01558300975645358910, 0.01635413641133879117, 0.01712526306622399672, 0.01789638972110919879, 0.01866751637599440433 ),
 .UNSPECIFIED. ) ;
#704 = CARTESIAN_POINT ( 'NONE',  ( -1.499190684478868718, 0.05013829976031058955, 0.7775695634850868787 ) ) ;
#705 = ORIENTED_EDGE ( 'NONE', *, *, #333, .F. ) ;
#706 = CARTESIAN_POINT ( 'NONE',  ( -1.493990748953244463, 0.1342503808987887959, 0.7075585341896512004 ) ) ;
#707 = PRESENTATION_LAYER_ASSIGNMENT (  '', '', ( #408 ) ) ;
#708 = CARTESIAN_POINT ( 'NONE',  ( -1.493280687612564828, -0.1418758571620958864, 0.5600928297675082934 ) ) ;
#709 = CARTESIAN_POINT ( 'NONE',  ( -1.435421608029877394, 0.07773410238632584568, 0.7648113256415282057 ) ) ;
#710 = CARTESIAN_POINT ( 'NONE',  ( -1.497942507228694042, -0.07900814026764831077, 0.7659680009658117461 ) ) ;
#711 = VERTEX_POINT ( 'NONE', #6 ) ;
#712 = CARTESIAN_POINT ( 'NONE',  ( -1.498404265916887912, -0.06982668571180254691, 0.4888363246455714739 ) ) ;
#713 = CARTESIAN_POINT ( 'NONE',  ( -1.437500000000000000, 1.148106374200643401E-17, 0.000000000000000000 ) ) ;
#714 = PRESENTATION_LAYER_ASSIGNMENT (  '', '', ( #388 ) ) ;
#715 = VERTEX_POINT ( 'NONE', #60 ) ;
#716 = CARTESIAN_POINT ( 'NONE',  ( -1.500000000000000222, 0.01025377338335006078, 0.7859441519056606928 ) ) ;
#717 =( CONVERSION_BASED_UNIT ( 'INCH', #241 ) LENGTH_UNIT ( ) NAMED_UNIT ( #520 ) );
#718 = CARTESIAN_POINT ( 'NONE',  ( 0.000000000000000000, 1.148106374200643401E-17, 0.000000000000000000 ) ) ;
#719 = EDGE_CURVE ( 'NONE', #844, #698, #130, .T. ) ;
#720 = ORIENTED_EDGE ( 'NONE', *, *, #744, .T. ) ;
#721 = DIMENSIONAL_EXPONENTS ( 1.000000000000000000, 0.000000000000000000, 0.000000000000000000, 0.000000000000000000, 0.000000000000000000, 0.000000000000000000, 0.000000000000000000 ) ;
#722 = CARTESIAN_POINT ( 'NONE',  ( 1.500000000000000222, -0.01012584888613263234, 0.7859455189956532362 ) ) ;
#723 = APPLICATION_PROTOCOL_DEFINITION ( 'draft international standard', 'automotive_design', 1998, #771 ) ;
#724 =( LENGTH_UNIT ( ) NAMED_UNIT ( * ) SI_UNIT ( $, .METRE. ) );
#725 = CIRCLE ( 'NONE', #380, 1.437500000000000000 ) ;
#726 = CARTESIAN_POINT ( 'NONE',  ( 1.492012785796831942, -0.1545892849416831416, 0.6195582887190345112 ) ) ;
#727 = ORIENTED_EDGE ( 'NONE', *, *, #467, .F. ) ;
#728 = CARTESIAN_POINT ( 'NONE',  ( 1.437499999999999556, 0.01025823340277615126, 0.7861595171792099546 ) ) ;
#729 = DIRECTION ( 'NONE',  ( 1.000000000000000000, 0.000000000000000000, 0.000000000000000000 ) ) ;
#730 = UNCERTAINTY_MEASURE_WITH_UNIT (LENGTH_MEASURE( 1.000000000000000082E-05 ), #819, 'distance_accuracy_value', 'NONE');
#731 = CARTESIAN_POINT ( 'NONE',  ( -1.431227673323752780, 0.1342578368465273675, 0.5519587268070794694 ) ) ;
#732 = EDGE_CURVE ( 'NONE', #221, #657, #606, .T. ) ;
#733 = LINE ( 'NONE', #187, #823 ) ;
#734 = CARTESIAN_POINT ( 'NONE',  ( 1.492117389583428988, -0.1535893952670506490, 0.6094167546043518513 ) ) ;
#735 = CYLINDRICAL_SURFACE ( 'NONE', #658, 0.1562499999999997224 ) ;
#736 = CARTESIAN_POINT ( 'NONE',  ( 1.491664931281210915, 0.1579105214538339130, 0.6298126523935860810 ) ) ;
#737 = CARTESIAN_POINT ( 'NONE',  ( -1.492117775845496430, 0.1535852522786289864, 0.6094404698078218496 ) ) ;
#738 = VECTOR ( 'NONE', #190, 39.37007874015748143 ) ;
#739 = UNCERTAINTY_MEASURE_WITH_UNIT (LENGTH_MEASURE( 1.000000000000000082E-05 ), #318, 'distance_accuracy_value', 'NONE');
#740 = CARTESIAN_POINT ( 'NONE',  ( -1.491664931281210471, -0.1579105214538341351, 0.6298126523935860810 ) ) ;
#741 = CARTESIAN_POINT ( 'NONE',  ( 1.434305168282076881, 0.09616819365623738292, 0.7546133264099119664 ) ) ;
#742 = CARTESIAN_POINT ( 'NONE',  ( 1.435830155508990513, 0.06992552453087112763, 0.4889157844676360054 ) ) ;
#743 = CARTESIAN_POINT ( 'NONE',  ( -1.496386276851814801, -0.1043144396293108483, 0.7480601662667867302 ) ) ;
#744 = EDGE_CURVE ( 'NONE', #208, #576, #167, .T. ) ;
#745 = ORIENTED_EDGE ( 'NONE', *, *, #547, .T. ) ;
#746 = CARTESIAN_POINT ( 'NONE',  ( 1.428808108084903106, 0.1578405533151698570, 0.6298126523935860810 ) ) ;
#747 = AXIS2_PLACEMENT_3D ( 'NONE', #465, #189, #4 ) ;
#748 = B_SPLINE_CURVE_WITH_KNOTS ( 'NONE', 3,
 ( #45, #364, #161, #513, #792, #495, #706, #172, #235, #577, #504, #223, #772, #704, #108, #94, #716, #103 ),
 .UNSPECIFIED., .F., .F.,
 ( 4, 2, 2, 2, 2, 2, 2, 2, 4 ),
 ( 0.01866816861846886874, 0.01943842111266709874, 0.02020867360686532874, 0.02097892610106355873, 0.02174917859526179220, 0.02251943108946002220, 0.02328968358365825220, 0.02405993607785648219, 0.02483018857205471219 ),
 .UNSPECIFIED. ) ;
#749 = STYLED_ITEM ( 'NONE', ( #303 ), #452 ) ;
#750 = FILL_AREA_STYLE_COLOUR ( '', #797 ) ;
#751 = CARTESIAN_POINT ( 'NONE',  ( 1.436974115469801694, -0.04012215351621239295, 0.4788964316601458937 ) ) ;
#752 =( LENGTH_UNIT ( ) NAMED_UNIT ( * ) SI_UNIT ( $, .METRE. ) );
#753 = CARTESIAN_POINT ( 'NONE',  ( -1.429155962600523466, 0.1546592530803469756, 0.6400555307521861303 ) ) ;
#754 = PRESENTATION_STYLE_ASSIGNMENT (( #817 ) ) ;
#755 = DIRECTION ( 'NONE',  ( 1.000000000000000000, 0.000000000000000000, 0.000000000000000000 ) ) ;
#756 = SURFACE_STYLE_USAGE ( .BOTH. , #630 ) ;
#757 =( NAMED_UNIT ( * ) SI_UNIT ( $, .STERADIAN. ) SOLID_ANGLE_UNIT ( ) );
#758 = ORIENTED_EDGE ( 'NONE', *, *, #534, .T. ) ;
#759 = CARTESIAN_POINT ( 'NONE',  ( -1.431222962055809456, 0.1343080944096283758, 0.7075802042078009890 ) ) ;
#760 = EDGE_CURVE ( 'NONE', #485, #856, #681, .T. ) ;
#761 = VECTOR ( 'NONE', #78, 39.37007874015748143 ) ;
#762 = CARTESIAN_POINT ( 'NONE',  ( 1.433874020405278227, -0.1022869075659618154, 0.7469659520418339138 ) ) ;
#763 = CARTESIAN_POINT ( 'NONE',  ( 1.492503553798604665, 0.1498301169045935799, 0.6804728862174724835 ) ) ;
#764 = ORIENTED_EDGE ( 'NONE', *, *, #257, .F. ) ;
#765 = SURFACE_STYLE_FILL_AREA ( #486 ) ;
#766 = CARTESIAN_POINT ( 'NONE',  ( -1.491664931281210249, -0.1579105214538340796, 0.6195395723113903408 ) ) ;
#767 = FILL_AREA_STYLE_COLOUR ( '', #173 ) ;
#768 =( GEOMETRIC_REPRESENTATION_CONTEXT ( 3 ) GLOBAL_UNCERTAINTY_ASSIGNED_CONTEXT ( ( #194 ) ) GLOBAL_UNIT_ASSIGNED_CONTEXT ( ( #568, #686, #573 ) ) REPRESENTATION_CONTEXT ( 'NONE', 'WORKASPACE' ) );
#769 = FILL_AREA_STYLE ('',( #72 ) ) ;
#770 = ORIENTED_EDGE ( 'NONE', *, *, #257, .T. ) ;
#771 = APPLICATION_CONTEXT ( 'automotive_design' ) ;
#772 = CARTESIAN_POINT ( 'NONE',  ( -1.498453407483222088, 0.06873094741814354813, 0.7696699876439775379 ) ) ;
#773 = CIRCLE ( 'NONE', #115, 1.500000000000000222 ) ;
#774 = ORIENTED_EDGE ( 'NONE', *, *, #744, .F. ) ;
#775 = DIRECTION ( 'NONE',  ( 1.000000000000000000, 0.000000000000000000, 0.000000000000000000 ) ) ;
#776 = B_SPLINE_CURVE_WITH_KNOTS ( 'NONE', 3,
 ( #528, #871, #10, #276, #865, #196, #339, #672, #468, #66, #804, #539, #742, #192, #200, #610, #274, #550 ),
 .UNSPECIFIED., .F., .F.,
 ( 4, 2, 2, 2, 2, 2, 2, 2, 4 ),
 ( 0.01241728636614865440, 0.01319856151008879860, 0.01397983665402894281, 0.01476111179796908701, 0.01554238694190923122, 0.01632366208584937542, 0.01710493722978952136, 0.01788621237372966383, 0.01866748751766980977 ),
 .UNSPECIFIED. ) ;
#777 = CARTESIAN_POINT ( 'NONE',  ( -1.435884787647455196, 0.06875876956230976556, 0.7696912366205483913 ) ) ;
#778 =( LENGTH_UNIT ( ) NAMED_UNIT ( * ) SI_UNIT ( $, .METRE. ) );
#779 = ORIENTED_EDGE ( 'NONE', *, *, #46, .T. ) ;
#780 = CARTESIAN_POINT ( 'NONE',  ( 1.498460211253204166, -0.06858417607101179037, 0.7697444213959145909 ) ) ;
#781 = PRESENTATION_LAYER_ASSIGNMENT (  '', '', ( #71 ) ) ;
#782 = LINE ( 'NONE', #510, #239 ) ;
#783 = CARTESIAN_POINT ( 'NONE',  ( -1.428808108084903772, -0.1578405533151701068, 0.6195420651695482395 ) ) ;
#784 = UNCERTAINTY_MEASURE_WITH_UNIT (LENGTH_MEASURE( 1.000000000000000082E-05 ), #362, 'distance_accuracy_value', 'NONE');
#785 = VERTEX_POINT ( 'NONE', #204 ) ;
#786 = PRODUCT_DEFINITION ( 'General', '', #555, #53 ) ;
#787 = AXIS2_PLACEMENT_3D ( 'NONE', #369, #305, #309 ) ;
#788 = DIRECTION ( 'NONE',  ( -0.000000000000000000, -0.000000000000000000, -1.000000000000000000 ) ) ;
#789 = ORIENTED_EDGE ( 'NONE', *, *, #359, .T. ) ;
#790 = B_SPLINE_CURVE_WITH_KNOTS ( 'NONE', 3,
 ( #635, #783, #700, #176, #91, #442, #101, #378, #43, #365, #316, #570, #374, #163, #855, #838, #226, #497 ),
 .UNSPECIFIED., .F., .F.,
 ( 4, 2, 2, 2, 2, 2, 2, 2, 4 ),
 ( 0.006250667247375815694, 0.007031646733567935466, 0.007812626219760055238, 0.008593605705952175877, 0.009374585192144294782, 0.01015556467833641369, 0.01093654416452853433, 0.01171752365072065323, 0.01249850313691277214 ),
 .UNSPECIFIED. ) ;
#791 = AXIS2_PLACEMENT_3D ( 'NONE', #637, #30, #439 ) ;
#792 = CARTESIAN_POINT ( 'NONE',  ( -1.492813194986995162, 0.1467100308094951566, 0.6798438547532318355 ) ) ;
#793 = DIRECTION ( 'NONE',  ( 1.000000000000000000, 0.000000000000000000, -0.000000000000000000 ) ) ;
#794 = ORIENTED_EDGE ( 'NONE', *, *, #152, .T. ) ;
#795 = CARTESIAN_POINT ( 'NONE',  ( 1.430492059762274559, 0.1418260659733773521, 0.6994894816034674667 ) ) ;
#796 = CARTESIAN_POINT ( 'NONE',  ( -1.500000000000000222, 1.148106374200643401E-17, 0.000000000000000000 ) ) ;
#797 = COLOUR_RGB ( '',0.8588235294117646523, 0.8588235294117646523, 0.8588235294117646523 ) ;
#798 = CARTESIAN_POINT ( 'NONE',  ( -1.491664931281210471, -0.1579105214538341906, 0.6400903720955269938 ) ) ;
#799 = FILL_AREA_STYLE_COLOUR ( '', #444 ) ;
#800 = CARTESIAN_POINT ( 'NONE',  ( -1.434414788202347024, 0.09450816247187185382, 0.5061936887655857920 ) ) ;
#801 = FILL_AREA_STYLE_COLOUR ( '', #42 ) ;
#802 = CARTESIAN_POINT ( 'NONE',  ( -1.493277166686892699, -0.1419120411836473916, 0.6994481357866015880 ) ) ;
#803 = CARTESIAN_POINT ( 'NONE',  ( -1.430768814808073941, 0.1390038229476170950, 0.5608882248058668640 ) ) ;
#804 = CARTESIAN_POINT ( 'NONE',  ( 1.434307154985363875, 0.09614078253888801162, 0.5049889820457198475 ) ) ;
#805 = CARTESIAN_POINT ( 'NONE',  ( 1.493556494395853029, -0.1389386991304456254, 0.5609112713104749126 ) ) ;
#806 = SURFACE_SIDE_STYLE ('',( #185 ) ) ;
#807 = CARTESIAN_POINT ( 'NONE',  ( 1.495298661844855603, 0.1188922539027238712, 0.5260002278354070082 ) ) ;
#808 = CARTESIAN_POINT ( 'NONE',  ( -1.437500000000000000, 2.117227111236123943E-17, 0.4735708459475746479 ) ) ;
#809 = CARTESIAN_POINT ( 'NONE',  ( 1.429155962600524354, -0.1546592530803471421, 0.6400795202921568672 ) ) ;
#810 = FACE_OUTER_BOUND ( 'NONE', #238, .T. ) ;
#811 = CARTESIAN_POINT ( 'NONE',  ( -1.500000000000000222, -2.154558894834617481E-16, 0.7860537308470981754 ) ) ;
#812 = CARTESIAN_POINT ( 'NONE',  ( 1.437500000000000000, 1.875240411194384175E-16, 6.000000000000000888 ) ) ;
#813 = CARTESIAN_POINT ( 'NONE',  ( 1.431232356125553995, -0.1342100153507541638, 0.5518658239877297644 ) ) ;
#814 =( CONVERSION_BASED_UNIT ( 'INCH', #541 ) LENGTH_UNIT ( ) NAMED_UNIT ( #532 ) );
#815 = CARTESIAN_POINT ( 'NONE',  ( 1.499891578818820959, 0.02065932590276998645, 0.4743822528320955634 ) ) ;
#816 = STYLED_ITEM ( 'NONE', ( #428 ), #106 ) ;
#817 = SURFACE_STYLE_USAGE ( .BOTH. , #546 ) ;
#818 = FILL_AREA_STYLE ('',( #687 ) ) ;
#819 =( CONVERSION_BASED_UNIT ( 'INCH', #549 ) LENGTH_UNIT ( ) NAMED_UNIT ( #721 ) );
#820 = FACE_OUTER_BOUND ( 'NONE', #19, .T. ) ;
#821 = CARTESIAN_POINT ( 'NONE',  ( 1.430769235174005116, -0.1389987044696898433, 0.5608906894442072799 ) ) ;
#822 = SURFACE_STYLE_FILL_AREA ( #769 ) ;
#823 = VECTOR ( 'NONE', #858, 39.37007874015748854 ) ;
#824 = CARTESIAN_POINT ( 'NONE',  ( -1.437500000000000000, 0.01025743801866682223, 0.7859494086458073125 ) ) ;
#825 = ORIENTED_EDGE ( 'NONE', *, *, #503, .F. ) ;
#826 = CARTESIAN_POINT ( 'NONE',  ( 1.437390616650551012, -0.02031282594679367434, 0.4747764244286507007 ) ) ;
#827 = CARTESIAN_POINT ( 'NONE',  ( 1.497937776599032267, 0.07909400092858037690, 0.7659162508300532135 ) ) ;
#828 = CARTESIAN_POINT ( 'NONE',  ( 0.000000000000000000, 1.148106374200643401E-17, 6.000000000000000888 ) ) ;
#829 = ORIENTED_EDGE ( 'NONE', *, *, #227, .F. ) ;
#830 = MECHANICAL_DESIGN_GEOMETRIC_PRESENTATION_REPRESENTATION (  '', ( #358 ), #62 ) ;
#831 =( NAMED_UNIT ( * ) PLANE_ANGLE_UNIT ( ) SI_UNIT ( $, .RADIAN. ) );
#832 = CARTESIAN_POINT ( 'NONE',  ( 1.436660900167040289, -0.04998585162886238359, 0.7776480418661371186 ) ) ;
#833 = CYLINDRICAL_SURFACE ( 'NONE', #842, 1.437500000000000000 ) ;
#834 = CARTESIAN_POINT ( 'NONE',  ( 1.499478606891333499, 0.04081008985041573861, 0.4781973312898287753 ) ) ;
#835 = ORIENTED_EDGE ( 'NONE', *, *, #375, .F. ) ;
#836 = LENGTH_MEASURE_WITH_UNIT ( LENGTH_MEASURE( 0.02539999999999999897 ), #293 );
#837 = ORIENTED_EDGE ( 'NONE', *, *, #268, .T. ) ;
#838 = CARTESIAN_POINT ( 'NONE',  ( -1.437386956634195467, -0.02067411636232502695, 0.4743895697411569801 ) ) ;
#839 = ORIENTED_EDGE ( 'NONE', *, *, #227, .T. ) ;
#840 = CARTESIAN_POINT ( 'NONE',  ( 1.500000000000000222, 1.951780836141093889E-16, 6.000000000000000888 ) ) ;
#841 =( NAMED_UNIT ( * ) PLANE_ANGLE_UNIT ( ) SI_UNIT ( $, .RADIAN. ) );
#842 = AXIS2_PLACEMENT_3D ( 'NONE', #612, #206, #344 ) ;
#843 = CARTESIAN_POINT ( 'NONE',  ( 0.000000000000000000, 1.148106374200643401E-17, 6.000000000000000888 ) ) ;
#844 = VERTEX_POINT ( 'NONE', #808 ) ;
#845 = CARTESIAN_POINT ( 'NONE',  ( 1.492814474284240633, -0.1466972954083028136, 0.6798852957555908683 ) ) ;
#846 = CYLINDRICAL_SURFACE ( 'NONE', #93, 1.500000000000000222 ) ;
#847 =( NAMED_UNIT ( * ) PLANE_ANGLE_UNIT ( ) SI_UNIT ( $, .RADIAN. ) );
#848 = ORIENTED_EDGE ( 'NONE', *, *, #467, .T. ) ;
#849 = EDGE_CURVE ( 'NONE', #694, #221, #776, .T. ) ;
#850 = CARTESIAN_POINT ( 'NONE',  ( 1.492117513452855926, -0.1535877999026084018, 0.6501673446028028991 ) ) ;
#851 = AXIS2_PLACEMENT_3D ( 'NONE', #342, #615, #597 ) ;
#852 = CARTESIAN_POINT ( 'NONE',  ( -1.499171560093192079, -0.05075178384222207850, 0.4811156535448649629 ) ) ;
#853 = ORIENTED_EDGE ( 'NONE', *, *, #202, .T. ) ;
#854 = CARTESIAN_POINT ( 'NONE',  ( 1.499196513079343429, -0.04996607936465442823, 0.7776304530657335290 ) ) ;
#855 = CARTESIAN_POINT ( 'NONE',  ( -1.436953358145631965, -0.04091122955215410056, 0.4782384213259559536 ) ) ;
#856 = VERTEX_POINT ( 'NONE', #473 ) ;
#857 = CARTESIAN_POINT ( 'NONE',  ( 1.432594616686637901, 0.1188847922147203834, 0.7335658337278109231 ) ) ;
#858 = DIRECTION ( 'NONE',  ( -0.9999993804656561736, -0.001113134449984587134, -0.000000000000000000 ) ) ;
#859 = LINE ( 'NONE', #540, #99 ) ;
#860 = CARTESIAN_POINT ( 'NONE',  ( -1.499999070698484482, -0.001669701674977010480, 0.6298126523935860810 ) ) ;
#861 = DIRECTION ( 'NONE',  ( 0.000000000000000000, 0.000000000000000000, 1.000000000000000000 ) ) ;
#862 =( GEOMETRIC_REPRESENTATION_CONTEXT ( 3 ) GLOBAL_UNCERTAINTY_ASSIGNED_CONTEXT ( ( #649 ) ) GLOBAL_UNIT_ASSIGNED_CONTEXT ( ( #250, #653, #643 ) ) REPRESENTATION_CONTEXT ( 'NONE', 'WORKASPACE' ) );
#863 = CARTESIAN_POINT ( 'NONE',  ( 1.499197511030663899, -0.04994451796138295319, 0.4819839371944045214 ) ) ;
#864 = FILL_AREA_STYLE ('',( #799 ) ) ;
#865 = CARTESIAN_POINT ( 'NONE',  ( 1.429685207058692953, 0.1497403832914652178, 0.5791078958889502859 ) ) ;
#866 = CARTESIAN_POINT ( 'NONE',  ( 1.499496416646543429, -0.04010678597189874794, 0.4789116706867064255 ) ) ;
#867 = UNCERTAINTY_MEASURE_WITH_UNIT (LENGTH_MEASURE( 1.000000000000000082E-05 ), #354, 'distance_accuracy_value', 'NONE');
#868 = DIRECTION ( 'NONE',  ( 0.001113134449984923453, -0.9999993804656563956, 0.000000000000000000 ) ) ;
#869 = MECHANICAL_DESIGN_GEOMETRIC_PRESENTATION_REPRESENTATION (  '', ( #287 ), #629 ) ;
#870 = CARTESIAN_POINT ( 'NONE',  ( -1.437499999999999556, 0.01012582342476310918, 0.4736745482279230979 ) ) ;
#871 = CARTESIAN_POINT ( 'NONE',  ( 1.428808108084903550, 0.1578405533151698847, 0.6195429441824682470 ) ) ;
#872 = CARTESIAN_POINT ( 'NONE',  ( -1.492012785796830832, 0.1545892849416828918, 0.6195647736201045364 ) ) ;
#873 = CYLINDRICAL_SURFACE ( 'NONE', #747, 0.1562499999999997224 ) ;
#874 = CARTESIAN_POINT ( 'NONE',  ( 1.435834915134315271, 0.06982552109153464248, 0.7707565313589102018 ) ) ;
#875 = ADVANCED_FACE ( 'NONE', ( #820 ), #477, .F. ) ;
ENDSEC;
END-ISO-10303-21;
