ISO-10303-21;
HEADER;
FILE_DESCRIPTION (( 'STEP AP214' ),
    '1' );
FILE_NAME ('8632T139_D-Profile Rotary Shaft.STEP',
    '2026-09-04T22:01:24',
    ( '' ),
    ( '' ),
    'SwSTEP 2.0',
    'SolidWorks 2026',
    '' );
FILE_SCHEMA (( 'AUTOMOTIVE_DESIGN' ));
ENDSEC;

DATA;
#1 = CARTESIAN_POINT ( 'NONE',  ( 0.000000000000000000, 0.000000000000000000, 3.000000000000000444 ) ) ;
#2 = ORIENTED_EDGE ( 'NONE', *, *, #258, .T. ) ;
#3 = PRODUCT_DEFINITION_FORMATION_WITH_SPECIFIED_SOURCE ( 'Symmetric', '', #263, .NOT_KNOWN. ) ;
#4 = CARTESIAN_POINT ( 'NONE',  ( 0.000000000000000000, 0.000000000000000000, 2.987500000000004707 ) ) ;
#5 = EDGE_LOOP ( 'NONE', ( #40, #184, #300, #330 ) ) ;
#6 = CARTESIAN_POINT ( 'NONE',  ( 0.000000000000000000, 0.000000000000000000, 3.000000000000000444 ) ) ;
#7 = EDGE_CURVE ( 'NONE', #36, #154, #143, .T. ) ;
#8 = ORIENTED_EDGE ( 'NONE', *, *, #369, .T. ) ;
#9 = PRODUCT_CONTEXT ( 'NONE', #217, 'mechanical' ) ;
#10 = EDGE_LOOP ( 'NONE', ( #90, #159, #305, #122 ) ) ;
#11 = DIRECTION ( 'NONE',  ( 0.000000000000000000, 0.000000000000000000, -1.000000000000000000 ) ) ;
#12 = DIRECTION ( 'NONE',  ( 1.000000000000000000, 0.000000000000000000, 0.000000000000000000 ) ) ;
#13 = PRESENTATION_STYLE_ASSIGNMENT (( #195 ) ) ;
#14 = FACE_OUTER_BOUND ( 'NONE', #364, .T. ) ;
#15 = CARTESIAN_POINT ( 'NONE',  ( -0.04169720930533982878, 0.1082531754730548246, -2.996984790389316089 ) ) ;
#16 = CIRCLE ( 'NONE', #226, 0.1250000000000000000 ) ;
#17 = FACE_OUTER_BOUND ( 'NONE', #287, .T. ) ;
#18 = CARTESIAN_POINT ( 'NONE',  ( 0.000000000000000000, 0.000000000000000000, -2.987499999999992717 ) ) ;
#19 = EDGE_CURVE ( 'NONE', #48, #57, #361, .T. ) ;
#20 = DIRECTION ( 'NONE',  ( 1.000000000000000000, 0.000000000000000000, 0.000000000000000000 ) ) ;
#21 = CIRCLE ( 'NONE', #324, 0.1250000000000000000 ) ;
#22 = DIRECTION ( 'NONE',  ( -1.000000000000000000, 0.000000000000000000, 0.000000000000000000 ) ) ;
#23 = UNCERTAINTY_MEASURE_WITH_UNIT (LENGTH_MEASURE( 1.000000000000000082E-05 ), #376, 'distance_accuracy_value', 'NONE');
#24 = CARTESIAN_POINT ( 'NONE',  ( -0.06250000000000000000, 0.1082531754730548246, 2.987500000000002487 ) ) ;
#25 = LINE ( 'NONE', #323, #337 ) ;
#26 = CONICAL_SURFACE ( 'NONE', #218, 0.1125000000000043188, 0.7853981633974530530 ) ;
#27 = B_SPLINE_CURVE_WITH_KNOTS ( 'NONE', 3,
 ( #196, #255, #375, #103 ),
 .UNSPECIFIED., .F., .F.,
 ( 4, 4 ),
 ( 2.341977079507140220E-17, 0.0008698052920998517639 ),
 .UNSPECIFIED. ) ;
#28 = CYLINDRICAL_SURFACE ( 'NONE', #356, 0.1250000000000000000 ) ;
#29 = DIMENSIONAL_EXPONENTS ( 1.000000000000000000, 0.000000000000000000, 0.000000000000000000, 0.000000000000000000, 0.000000000000000000, 0.000000000000000000, 0.000000000000000000 ) ;
#30 = FACE_OUTER_BOUND ( 'NONE', #10, .T. ) ;
#31 = ORIENTED_EDGE ( 'NONE', *, *, #198, .T. ) ;
#32 = DIRECTION ( 'NONE',  ( 0.000000000000000000, 0.000000000000000000, -1.000000000000000000 ) ) ;
#33 = VERTEX_POINT ( 'NONE', #225 ) ;
#34 = CARTESIAN_POINT ( 'NONE',  ( -0.1124999999999923006, 1.454268073987434648E-17, -3.000000000000000444 ) ) ;
#35 = AXIS2_PLACEMENT_3D ( 'NONE', #253, #257, #227 ) ;
#36 = VERTEX_POINT ( 'NONE', #69 ) ;
#37 = DIRECTION ( 'NONE',  ( -0.000000000000000000, -0.000000000000000000, 1.000000000000000000 ) ) ;
#38 = VERTEX_POINT ( 'NONE', #370 ) ;
#39 = APPLICATION_PROTOCOL_DEFINITION ( 'draft international standard', 'automotive_design', 1998, #311 ) ;
#40 = ORIENTED_EDGE ( 'NONE', *, *, #188, .F. ) ;
#41 = ADVANCED_FACE ( 'NONE', ( #106 ), #281, .T. ) ;
#42 = AXIS2_PLACEMENT_3D ( 'NONE', #274, #144, #299 ) ;
#43 = CARTESIAN_POINT ( 'NONE',  ( 0.000000000000000000, 0.000000000000000000, -3.000000000000000444 ) ) ;
#44 =( NAMED_UNIT ( * ) SI_UNIT ( $, .STERADIAN. ) SOLID_ANGLE_UNIT ( ) );
#45 = ORIENTED_EDGE ( 'NONE', *, *, #51, .T. ) ;
#46 = EDGE_LOOP ( 'NONE', ( #65, #101, #309, #97 ) ) ;
#47 = MECHANICAL_DESIGN_GEOMETRIC_PRESENTATION_REPRESENTATION (  '', ( #249 ), #185 ) ;
#48 = VERTEX_POINT ( 'NONE', #100 ) ;
#49 = LINE ( 'NONE', #139, #158 ) ;
#50 = CARTESIAN_POINT ( 'NONE',  ( 0.1250000000000000000, 1.530808498934191201E-17, -2.987499999999992717 ) ) ;
#51 = EDGE_CURVE ( 'NONE', #117, #319, #366, .T. ) ;
#52 = FACE_OUTER_BOUND ( 'NONE', #146, .T. ) ;
#53 = SURFACE_STYLE_FILL_AREA ( #85 ) ;
#54 = CARTESIAN_POINT ( 'NONE',  ( 0.000000000000000000, 0.000000000000000000, 3.000000000000000444 ) ) ;
#55 = CONICAL_SURFACE ( 'NONE', #350, 0.1250000000000000000, 0.7853981633974530530 ) ;
#56 = EDGE_CURVE ( 'NONE', #57, #33, #316, .T. ) ;
#57 = VERTEX_POINT ( 'NONE', #99 ) ;
#58 = CARTESIAN_POINT ( 'NONE',  ( 0.000000000000000000, 0.000000000000000000, -2.987499999999992717 ) ) ;
#59 = ORIENTED_EDGE ( 'NONE', *, *, #173, .T. ) ;
#60 = DIRECTION ( 'NONE',  ( -0.000000000000000000, -0.000000000000000000, -1.000000000000000000 ) ) ;
#61 = ORIENTED_EDGE ( 'NONE', *, *, #241, .T. ) ;
#62 = EDGE_CURVE ( 'NONE', #214, #94, #70, .T. ) ;
#63 = ADVANCED_BREP_SHAPE_REPRESENTATION ( '8632T139_D-Profile Rotary Shaft_8632T139', ( #256, #171 ), #71 ) ;
#64 = AXIS2_PLACEMENT_3D ( 'NONE', #246, #66, #334 ) ;
#65 = ORIENTED_EDGE ( 'NONE', *, *, #56, .F. ) ;
#66 = DIRECTION ( 'NONE',  ( 0.000000000000000000, 0.000000000000000000, -1.000000000000000000 ) ) ;
#67 = ORIENTED_EDGE ( 'NONE', *, *, #293, .F. ) ;
#68 = EDGE_LOOP ( 'NONE', ( #276, #333, #335, #365 ) ) ;
#69 = CARTESIAN_POINT ( 'NONE',  ( 0.06250000000000000000, 0.1082531754730548246, 2.987500000000002487 ) ) ;
#70 = CIRCLE ( 'NONE', #284, 0.1124999999999923006 ) ;
#71 =( GEOMETRIC_REPRESENTATION_CONTEXT ( 3 ) GLOBAL_UNCERTAINTY_ASSIGNED_CONTEXT ( ( #23 ) ) GLOBAL_UNIT_ASSIGNED_CONTEXT ( ( #376, #129, #134 ) ) REPRESENTATION_CONTEXT ( 'NONE', 'WORKASPACE' ) );
#72 = ORIENTED_EDGE ( 'NONE', *, *, #241, .F. ) ;
#73 = CARTESIAN_POINT ( 'NONE',  ( 0.000000000000000000, 0.000000000000000000, 2.987500000000004707 ) ) ;
#74 = EDGE_CURVE ( 'NONE', #57, #248, #384, .T. ) ;
#75 = CARTESIAN_POINT ( 'NONE',  ( 0.000000000000000000, 0.000000000000000000, 3.000000000000000444 ) ) ;
#76 = AXIS2_PLACEMENT_3D ( 'NONE', #107, #112, #20 ) ;
#77 = AXIS2_PLACEMENT_3D ( 'NONE', #4, #11, #157 ) ;
#78 = CARTESIAN_POINT ( 'NONE',  ( 0.04169720930533980102, 0.1082531754730548246, -2.996984790389316089 ) ) ;
#79 = PRODUCT_DEFINITION_SHAPE ( 'NONE', 'NONE',  #382 ) ;
#80 = PRODUCT_RELATED_PRODUCT_CATEGORY ( 'part', '', ( #263 ) ) ;
#81 = CARTESIAN_POINT ( 'NONE',  ( 0.1250000000000000000, 1.530808498934191201E-17, 3.000000000000000444 ) ) ;
#82 = CARTESIAN_POINT ( 'NONE',  ( -0.06250000000000000000, 0.1082531754730548246, -3.000000000000000444 ) ) ;
#83 = AXIS2_PLACEMENT_3D ( 'NONE', #73, #251, #163 ) ;
#84 = UNCERTAINTY_MEASURE_WITH_UNIT (LENGTH_MEASURE( 1.000000000000000082E-05 ), #120, 'distance_accuracy_value', 'NONE');
#85 = FILL_AREA_STYLE ('',( #111 ) ) ;
#86 = ADVANCED_FACE ( 'NONE', ( #14 ), #132, .F. ) ;
#87 =( NAMED_UNIT ( * ) SI_UNIT ( $, .STERADIAN. ) SOLID_ANGLE_UNIT ( ) );
#88 = DIRECTION ( 'NONE',  ( 0.000000000000000000, 0.000000000000000000, 1.000000000000000000 ) ) ;
#89 = DIMENSIONAL_EXPONENTS ( 1.000000000000000000, 0.000000000000000000, 0.000000000000000000, 0.000000000000000000, 0.000000000000000000, 0.000000000000000000, 0.000000000000000000 ) ;
#90 = ORIENTED_EDGE ( 'NONE', *, *, #168, .F. ) ;
#91 = CARTESIAN_POINT ( 'NONE',  ( -0.06250000000000000000, 0.1082531754730548246, -3.000000000000000444 ) ) ;
#92 = ORIENTED_EDGE ( 'NONE', *, *, #279, .T. ) ;
#93 = CARTESIAN_POINT ( 'NONE',  ( -0.1250000000000000000, 1.530808498934191509E-17, -2.987499999999992717 ) ) ;
#94 = VERTEX_POINT ( 'NONE', #314 ) ;
#95 = CARTESIAN_POINT ( 'NONE',  ( -0.06250000000000000000, 0.1082531754730548246, -2.987499999999992717 ) ) ;
#96 = VECTOR ( 'NONE', #244, 39.37007874015748143 ) ;
#97 = ORIENTED_EDGE ( 'NONE', *, *, #369, .F. ) ;
#98 = B_SPLINE_CURVE_WITH_KNOTS ( 'NONE', 3,
 ( #260, #200, #110, #233 ),
 .UNSPECIFIED., .F., .F.,
 ( 4, 4 ),
 ( 1.084202172485504434E-19, 0.0008698052920998743153 ),
 .UNSPECIFIED. ) ;
#99 = CARTESIAN_POINT ( 'NONE',  ( -0.1125000000000043188, 0.000000000000000000, 3.000000000000000444 ) ) ;
#100 = CARTESIAN_POINT ( 'NONE',  ( -0.03061862178480558722, 0.1082531754730548246, 3.000000000000000444 ) ) ;
#101 = ORIENTED_EDGE ( 'NONE', *, *, #19, .F. ) ;
#102 = AXIS2_PLACEMENT_3D ( 'NONE', #280, #164, #286 ) ;
#103 = CARTESIAN_POINT ( 'NONE',  ( -0.03061862178480558722, 0.1082531754730548246, 3.000000000000000444 ) ) ;
#104 = EDGE_CURVE ( 'NONE', #221, #48, #27, .T. ) ;
#105 = LENGTH_MEASURE_WITH_UNIT ( LENGTH_MEASURE( 0.02539999999999999897 ), #228 );
#106 = FACE_OUTER_BOUND ( 'NONE', #367, .T. ) ;
#107 = CARTESIAN_POINT ( 'NONE',  ( 0.000000000000000000, 0.000000000000000000, 3.000000000000000444 ) ) ;
#108 = VECTOR ( 'NONE', #312, 39.37007874015748143 ) ;
#109 = CONICAL_SURFACE ( 'NONE', #285, 0.1125000000000043188, 0.7853981633974530530 ) ;
#110 = CARTESIAN_POINT ( 'NONE',  ( 0.05224884262612374680, 0.1082531754730548246, 2.992625578686942678 ) ) ;
#111 = FILL_AREA_STYLE_COLOUR ( '', #119 ) ;
#112 = DIRECTION ( 'NONE',  ( 0.000000000000000000, 0.000000000000000000, 1.000000000000000000 ) ) ;
#113 = AXIS2_PLACEMENT_3D ( 'NONE', #201, #235, #114 ) ;
#114 = DIRECTION ( 'NONE',  ( 1.000000000000000000, 0.000000000000000000, 0.000000000000000000 ) ) ;
#115 = FACE_OUTER_BOUND ( 'NONE', #247, .T. ) ;
#116 = LINE ( 'NONE', #239, #379 ) ;
#117 = VERTEX_POINT ( 'NONE', #229 ) ;
#118 = B_SPLINE_CURVE_WITH_KNOTS ( 'NONE', 3,
 ( #351, #383, #78, #169 ),
 .UNSPECIFIED., .F., .F.,
 ( 4, 4 ),
 ( 0.000000000000000000, 0.0008698052921010078486 ),
 .UNSPECIFIED. ) ;
#119 = COLOUR_RGB ( '',0.7529411764705882248, 0.7529411764705882248, 0.7529411764705882248 ) ;
#120 =( CONVERSION_BASED_UNIT ( 'INCH', #358 ) LENGTH_UNIT ( ) NAMED_UNIT ( #212 ) );
#121 = EDGE_LOOP ( 'NONE', ( #303, #59, #336, #197 ) ) ;
#122 = ORIENTED_EDGE ( 'NONE', *, *, #155, .F. ) ;
#123 = FACE_OUTER_BOUND ( 'NONE', #180, .T. ) ;
#124 = EDGE_LOOP ( 'NONE', ( #182, #298, #152, #190 ) ) ;
#125 = LENGTH_MEASURE_WITH_UNIT ( LENGTH_MEASURE( 0.02539999999999999897 ), #131 );
#126 = AXIS2_PLACEMENT_3D ( 'NONE', #385, #199, #262 ) ;
#127 = ORIENTED_EDGE ( 'NONE', *, *, #293, .T. ) ;
#128 = ADVANCED_FACE ( 'NONE', ( #17 ), #377, .F. ) ;
#129 =( NAMED_UNIT ( * ) PLANE_ANGLE_UNIT ( ) SI_UNIT ( $, .RADIAN. ) );
#130 = ORIENTED_EDGE ( 'NONE', *, *, #301, .T. ) ;
#131 =( LENGTH_UNIT ( ) NAMED_UNIT ( * ) SI_UNIT ( $, .METRE. ) );
#132 = PLANE ( 'NONE',  #35 ) ;
#133 = DIRECTION ( 'NONE',  ( 1.000000000000000000, 8.881784197001252323E-16, 0.000000000000000000 ) ) ;
#134 =( NAMED_UNIT ( * ) SI_UNIT ( $, .STERADIAN. ) SOLID_ANGLE_UNIT ( ) );
#135 = VERTEX_POINT ( 'NONE', #142 ) ;
#136 = CARTESIAN_POINT ( 'NONE',  ( 0.1250000000000000000, 1.530808498934191201E-17, 2.987500000000004707 ) ) ;
#137 = DIRECTION ( 'NONE',  ( 0.7071067811865509034, 0.000000000000000000, 0.7071067811865441310 ) ) ;
#138 = PRESENTATION_LAYER_ASSIGNMENT (  '', '', ( #249 ) ) ;
#139 = CARTESIAN_POINT ( 'NONE',  ( -0.06250000000000000000, 0.1082531754730548246, 3.000000000000000444 ) ) ;
#140 = DIRECTION ( 'NONE',  ( -0.000000000000000000, -0.000000000000000000, 1.000000000000000000 ) ) ;
#141 = ADVANCED_FACE ( 'NONE', ( #52 ), #170, .T. ) ;
#142 = CARTESIAN_POINT ( 'NONE',  ( 0.06250000000000000000, 0.1082531754730548246, -2.987499999999992717 ) ) ;
#143 = CIRCLE ( 'NONE', #83, 0.1250000000000000000 ) ;
#144 = DIRECTION ( 'NONE',  ( -0.000000000000000000, -0.000000000000000000, -1.000000000000000000 ) ) ;
#145 = FACE_OUTER_BOUND ( 'NONE', #121, .T. ) ;
#146 = EDGE_LOOP ( 'NONE', ( #346, #130, #242, #389 ) ) ;
#147 = EDGE_CURVE ( 'NONE', #38, #211, #277, .T. ) ;
#148 = CYLINDRICAL_SURFACE ( 'NONE', #250, 0.1250000000000000000 ) ;
#149 = VECTOR ( 'NONE', #353, 39.37007874015748143 ) ;
#150 = DIRECTION ( 'NONE',  ( -0.000000000000000000, -0.000000000000000000, -1.000000000000000000 ) ) ;
#151 = PRESENTATION_LAYER_ASSIGNMENT (  '', '', ( #178 ) ) ;
#152 = ORIENTED_EDGE ( 'NONE', *, *, #168, .T. ) ;
#153 = DIRECTION ( 'NONE',  ( 1.000000000000000000, 0.000000000000000000, 0.000000000000000000 ) ) ;
#154 = VERTEX_POINT ( 'NONE', #136 ) ;
#155 = EDGE_CURVE ( 'NONE', #211, #135, #21, .T. ) ;
#156 = ORIENTED_EDGE ( 'NONE', *, *, #74, .T. ) ;
#157 = DIRECTION ( 'NONE',  ( 1.000000000000000000, 0.000000000000000000, 0.000000000000000000 ) ) ;
#158 = VECTOR ( 'NONE', #261, 39.37007874015748143 ) ;
#159 = ORIENTED_EDGE ( 'NONE', *, *, #62, .F. ) ;
#160 = CARTESIAN_POINT ( 'NONE',  ( 0.000000000000000000, 0.000000000000000000, 0.000000000000000000 ) ) ;
#161 = ORIENTED_EDGE ( 'NONE', *, *, #231, .T. ) ;
#162 = SURFACE_STYLE_FILL_AREA ( #313 ) ;
#163 = DIRECTION ( 'NONE',  ( 1.000000000000000000, 0.000000000000000000, 0.000000000000000000 ) ) ;
#164 = DIRECTION ( 'NONE',  ( 0.000000000000000000, 0.000000000000000000, 1.000000000000000000 ) ) ;
#165 = CIRCLE ( 'NONE', #386, 0.1250000000000000000 ) ;
#166 = CARTESIAN_POINT ( 'NONE',  ( -0.03061862178476142116, 0.1082531754730548246, -3.000000000000000444 ) ) ;
#167 = DIRECTION ( 'NONE',  ( -0.000000000000000000, -0.000000000000000000, -1.000000000000000000 ) ) ;
#168 = EDGE_CURVE ( 'NONE', #94, #211, #25, .T. ) ;
#169 = CARTESIAN_POINT ( 'NONE',  ( 0.03061862178476142116, 0.1082531754730548246, -3.000000000000000444 ) ) ;
#170 = CONICAL_SURFACE ( 'NONE', #345, 0.1250000000000000000, 0.7853981633974530530 ) ;
#171 = AXIS2_PLACEMENT_3D ( 'NONE', #160, #308, #282 ) ;
#172 = CARTESIAN_POINT ( 'NONE',  ( 0.1125000000000043188, 1.377727649040825236E-17, 3.000000000000000444 ) ) ;
#173 = EDGE_CURVE ( 'NONE', #154, #33, #165, .T. ) ;
#174 = LINE ( 'NONE', #81, #204 ) ;
#175 = UNCERTAINTY_MEASURE_WITH_UNIT (LENGTH_MEASURE( 1.000000000000000082E-05 ), #222, 'distance_accuracy_value', 'NONE');
#176 = SURFACE_SIDE_STYLE ('',( #53 ) ) ;
#177 = CONICAL_SURFACE ( 'NONE', #329, 0.1250000000000000000, 0.7853981633974530530 ) ;
#178 = STYLED_ITEM ( 'NONE', ( #13 ), #63 ) ;
#179 = DIRECTION ( 'NONE',  ( 1.000000000000000000, 0.000000000000000000, -0.000000000000000000 ) ) ;
#180 = EDGE_LOOP ( 'NONE', ( #72, #189, #156, #270 ) ) ;
#181 = DIRECTION ( 'NONE',  ( -0.000000000000000000, -0.000000000000000000, 1.000000000000000000 ) ) ;
#182 = ORIENTED_EDGE ( 'NONE', *, *, #301, .F. ) ;
#183 = FACE_OUTER_BOUND ( 'NONE', #68, .T. ) ;
#184 = ORIENTED_EDGE ( 'NONE', *, *, #74, .F. ) ;
#185 =( GEOMETRIC_REPRESENTATION_CONTEXT ( 3 ) GLOBAL_UNCERTAINTY_ASSIGNED_CONTEXT ( ( #84 ) ) GLOBAL_UNIT_ASSIGNED_CONTEXT ( ( #120, #220, #87 ) ) REPRESENTATION_CONTEXT ( 'NONE', 'WORKASPACE' ) );
#186 = DIRECTION ( 'NONE',  ( -0.000000000000000000, -0.000000000000000000, 1.000000000000000000 ) ) ;
#187 = COLOUR_RGB ( '',0.7529411764705882248, 0.7529411764705882248, 0.7529411764705882248 ) ;
#188 = EDGE_CURVE ( 'NONE', #248, #154, #380, .T. ) ;
#189 = ORIENTED_EDGE ( 'NONE', *, *, #19, .T. ) ;
#190 = ORIENTED_EDGE ( 'NONE', *, *, #147, .F. ) ;
#191 = AXIS2_PLACEMENT_3D ( 'NONE', #297, #88, #179 ) ;
#192 = CARTESIAN_POINT ( 'NONE',  ( -0.1125000000000043188, 0.000000000000000000, 3.000000000000000444 ) ) ;
#193 = EDGE_CURVE ( 'NONE', #248, #240, #373, .T. ) ;
#194 = DIRECTION ( 'NONE',  ( -1.000000000000000000, 0.000000000000000000, 0.000000000000000000 ) ) ;
#195 = SURFACE_STYLE_USAGE ( .BOTH. , #310 ) ;
#196 = CARTESIAN_POINT ( 'NONE',  ( -0.06250000000000000000, 0.1082531754730548246, 2.987500000000002487 ) ) ;
#197 = ORIENTED_EDGE ( 'NONE', *, *, #147, .T. ) ;
#198 = EDGE_CURVE ( 'NONE', #154, #211, #174, .T. ) ;
#199 = DIRECTION ( 'NONE',  ( -0.000000000000000000, -0.000000000000000000, -1.000000000000000000 ) ) ;
#200 = CARTESIAN_POINT ( 'NONE',  ( 0.04169720930536830600, 0.1082531754730548246, 2.996984790389316089 ) ) ;
#201 = CARTESIAN_POINT ( 'NONE',  ( 0.000000000000000000, 0.000000000000000000, -2.987499999999992717 ) ) ;
#202 = PRODUCT_DEFINITION_CONTEXT ( 'detailed design', #311, 'design' ) ;
#203 = EDGE_CURVE ( 'NONE', #319, #221, #288, .T. ) ;
#204 = VECTOR ( 'NONE', #167, 39.37007874015748143 ) ;
#205 = SURFACE_STYLE_USAGE ( .BOTH. , #176 ) ;
#206 = PLANE ( 'NONE',  #191 ) ;
#207 = ORIENTED_EDGE ( 'NONE', *, *, #62, .T. ) ;
#208 = CIRCLE ( 'NONE', #42, 0.1124999999999923006 ) ;
#209 = EDGE_CURVE ( 'NONE', #240, #36, #98, .T. ) ;
#210 = DIRECTION ( 'NONE',  ( -0.000000000000000000, -0.000000000000000000, 1.000000000000000000 ) ) ;
#211 = VERTEX_POINT ( 'NONE', #50 ) ;
#212 = DIMENSIONAL_EXPONENTS ( 1.000000000000000000, 0.000000000000000000, 0.000000000000000000, 0.000000000000000000, 0.000000000000000000, 0.000000000000000000, 0.000000000000000000 ) ;
#213 = LINE ( 'NONE', #93, #317 ) ;
#214 = VERTEX_POINT ( 'NONE', #291 ) ;
#215 = DIRECTION ( 'NONE',  ( -0.7071067811865509034, 8.659560562354974766E-17, 0.7071067811865441310 ) ) ;
#216 = ORIENTED_EDGE ( 'NONE', *, *, #352, .F. ) ;
#217 = APPLICATION_CONTEXT ( 'automotive_design' ) ;
#218 = AXIS2_PLACEMENT_3D ( 'NONE', #54, #320, #22 ) ;
#219 = VECTOR ( 'NONE', #321, 39.37007874015748143 ) ;
#220 =( NAMED_UNIT ( * ) PLANE_ANGLE_UNIT ( ) SI_UNIT ( $, .RADIAN. ) );
#221 = VERTEX_POINT ( 'NONE', #24 ) ;
#222 =( CONVERSION_BASED_UNIT ( 'INCH', #105 ) LENGTH_UNIT ( ) NAMED_UNIT ( #29 ) );
#223 = CARTESIAN_POINT ( 'NONE',  ( -0.05224884262611025759, 0.1082531754730548246, -2.992625578686937349 ) ) ;
#224 = EDGE_CURVE ( 'NONE', #135, #214, #118, .T. ) ;
#225 = CARTESIAN_POINT ( 'NONE',  ( -0.1250000000000000000, 0.000000000000000000, 2.987500000000004707 ) ) ;
#226 = AXIS2_PLACEMENT_3D ( 'NONE', #18, #186, #363 ) ;
#227 = DIRECTION ( 'NONE',  ( 1.000000000000000000, 0.000000000000000000, -0.000000000000000000 ) ) ;
#228 =( LENGTH_UNIT ( ) NAMED_UNIT ( * ) SI_UNIT ( $, .METRE. ) );
#229 = CARTESIAN_POINT ( 'NONE',  ( -0.03061862178476142116, 0.1082531754730548246, -3.000000000000000444 ) ) ;
#230 = CARTESIAN_POINT ( 'NONE',  ( -0.06250000000000000000, 0.1082531754730548246, -3.000000000000000444 ) ) ;
#231 = EDGE_CURVE ( 'NONE', #94, #362, #254, .T. ) ;
#232 = DIRECTION ( 'NONE',  ( 1.000000000000000000, 0.000000000000000000, 0.000000000000000000 ) ) ;
#233 = CARTESIAN_POINT ( 'NONE',  ( 0.06250000000000000000, 0.1082531754730548246, 2.987500000000002487 ) ) ;
#234 = ADVANCED_FACE ( 'NONE', ( #357 ), #26, .T. ) ;
#235 = DIRECTION ( 'NONE',  ( -0.000000000000000000, -0.000000000000000000, 1.000000000000000000 ) ) ;
#236 = DIRECTION ( 'NONE',  ( 1.000000000000000000, 0.000000000000000000, 0.000000000000000000 ) ) ;
#237 = AXIS2_PLACEMENT_3D ( 'NONE', #230, #349, #264 ) ;
#238 = CARTESIAN_POINT ( 'NONE',  ( 0.000000000000000000, 0.000000000000000000, 2.987500000000004707 ) ) ;
#239 = CARTESIAN_POINT ( 'NONE',  ( 0.06250000000000000000, 0.1082531754730548246, -3.000000000000000444 ) ) ;
#240 = VERTEX_POINT ( 'NONE', #325 ) ;
#241 = EDGE_CURVE ( 'NONE', #48, #240, #49, .T. ) ;
#242 = ORIENTED_EDGE ( 'NONE', *, *, #258, .F. ) ;
#243 = AXIS2_PLACEMENT_3D ( 'NONE', #75, #278, #12 ) ;
#244 = DIRECTION ( 'NONE',  ( 1.000000000000000000, 0.000000000000000000, 0.000000000000000000 ) ) ;
#245 = ORIENTED_EDGE ( 'NONE', *, *, #155, .T. ) ;
#246 = CARTESIAN_POINT ( 'NONE',  ( 0.000000000000000000, 0.000000000000000000, 3.000000000000000444 ) ) ;
#247 = EDGE_LOOP ( 'NONE', ( #348, #31, #245, #92 ) ) ;
#248 = VERTEX_POINT ( 'NONE', #355 ) ;
#249 = STYLED_ITEM ( 'NONE', ( #327 ), #256 ) ;
#250 = AXIS2_PLACEMENT_3D ( 'NONE', #1, #388, #269 ) ;
#251 = DIRECTION ( 'NONE',  ( 0.000000000000000000, 0.000000000000000000, -1.000000000000000000 ) ) ;
#252 = CARTESIAN_POINT ( 'NONE',  ( 0.000000000000000000, 0.000000000000000000, 3.000000000000000444 ) ) ;
#253 = CARTESIAN_POINT ( 'NONE',  ( 0.000000000000000000, 0.000000000000000000, -3.000000000000000444 ) ) ;
#254 = CIRCLE ( 'NONE', #126, 0.1124999999999923006 ) ;
#255 = CARTESIAN_POINT ( 'NONE',  ( -0.05224884262612430191, 0.1082531754730548246, 2.992625578686942678 ) ) ;
#256 = MANIFOLD_SOLID_BREP ( 'Chamfer1', #295 ) ;
#257 = DIRECTION ( 'NONE',  ( 0.000000000000000000, 0.000000000000000000, 1.000000000000000000 ) ) ;
#258 = EDGE_CURVE ( 'NONE', #319, #38, #16, .T. ) ;
#259 = DIRECTION ( 'NONE',  ( 0.000000000000000000, 0.000000000000000000, -1.000000000000000000 ) ) ;
#260 = CARTESIAN_POINT ( 'NONE',  ( 0.03061862178480559069, 0.1082531754730548246, 3.000000000000000444 ) ) ;
#261 = DIRECTION ( 'NONE',  ( 1.000000000000000000, 0.000000000000000000, 0.000000000000000000 ) ) ;
#262 = DIRECTION ( 'NONE',  ( 1.000000000000000000, 0.000000000000000000, 0.000000000000000000 ) ) ;
#263 = PRODUCT ( '8632T139_D-Profile Rotary Shaft_8632T139', '8632T139_D-Profile Rotary Shaft_8632T139', '', ( #9 ) ) ;
#264 = DIRECTION ( 'NONE',  ( 0.000000000000000000, -0.000000000000000000, -1.000000000000000000 ) ) ;
#265 = AXIS2_PLACEMENT_3D ( 'NONE', #252, #371, #194 ) ;
#266 = DIRECTION ( 'NONE',  ( -1.000000000000000000, 0.000000000000000000, 0.000000000000000000 ) ) ;
#267 = CARTESIAN_POINT ( 'NONE',  ( 0.000000000000000000, 0.000000000000000000, 3.000000000000000444 ) ) ;
#268 = ORIENTED_EDGE ( 'NONE', *, *, #104, .T. ) ;
#269 = DIRECTION ( 'NONE',  ( -1.000000000000000000, 0.000000000000000000, 0.000000000000000000 ) ) ;
#270 = ORIENTED_EDGE ( 'NONE', *, *, #193, .T. ) ;
#271 = CIRCLE ( 'NONE', #77, 0.1250000000000000000 ) ;
#272 = CARTESIAN_POINT ( 'NONE',  ( -0.1250000000000000000, 0.000000000000000000, 3.000000000000000444 ) ) ;
#273 = ORIENTED_EDGE ( 'NONE', *, *, #203, .F. ) ;
#274 = CARTESIAN_POINT ( 'NONE',  ( 0.000000000000000000, 0.000000000000000000, -3.000000000000000444 ) ) ;
#275 = ORIENTED_EDGE ( 'NONE', *, *, #224, .T. ) ;
#276 = ORIENTED_EDGE ( 'NONE', *, *, #193, .F. ) ;
#277 = CIRCLE ( 'NONE', #113, 0.1250000000000000000 ) ;
#278 = DIRECTION ( 'NONE',  ( 0.000000000000000000, 0.000000000000000000, 1.000000000000000000 ) ) ;
#279 = EDGE_CURVE ( 'NONE', #135, #36, #116, .T. ) ;
#280 = CARTESIAN_POINT ( 'NONE',  ( 0.000000000000000000, 0.000000000000000000, 3.000000000000000444 ) ) ;
#281 = CYLINDRICAL_SURFACE ( 'NONE', #265, 0.1250000000000000000 ) ;
#282 = DIRECTION ( 'NONE',  ( 1.000000000000000000, 0.000000000000000000, 0.000000000000000000 ) ) ;
#283 = ADVANCED_FACE ( 'NONE', ( #123 ), #206, .T. ) ;
#284 = AXIS2_PLACEMENT_3D ( 'NONE', #43, #342, #133 ) ;
#285 = AXIS2_PLACEMENT_3D ( 'NONE', #6, #32, #294 ) ;
#286 = DIRECTION ( 'NONE',  ( 1.000000000000000000, 0.000000000000000000, 0.000000000000000000 ) ) ;
#287 = EDGE_LOOP ( 'NONE', ( #359, #275, #67, #45, #372, #268, #61, #339 ) ) ;
#288 = LINE ( 'NONE', #82, #219 ) ;
#289 = ADVANCED_FACE ( 'NONE', ( #338 ), #368, .T. ) ;
#290 = DIRECTION ( 'NONE',  ( 1.000000000000000000, 0.000000000000000000, 0.000000000000000000 ) ) ;
#291 = CARTESIAN_POINT ( 'NONE',  ( 0.03061862178476142116, 0.1082531754730548246, -3.000000000000000444 ) ) ;
#292 =( LENGTH_UNIT ( ) NAMED_UNIT ( * ) SI_UNIT ( $, .METRE. ) );
#293 = EDGE_CURVE ( 'NONE', #117, #214, #331, .T. ) ;
#294 = DIRECTION ( 'NONE',  ( -1.000000000000000000, 0.000000000000000000, 0.000000000000000000 ) ) ;
#295 = CLOSED_SHELL ( 'NONE', ( #347, #289, #141, #322, #360, #340, #41, #283, #86, #128, #326, #234 ) ) ;
#296 =( GEOMETRIC_REPRESENTATION_CONTEXT ( 3 ) GLOBAL_UNCERTAINTY_ASSIGNED_CONTEXT ( ( #175 ) ) GLOBAL_UNIT_ASSIGNED_CONTEXT ( ( #222, #315, #44 ) ) REPRESENTATION_CONTEXT ( 'NONE', 'WORKASPACE' ) );
#297 = CARTESIAN_POINT ( 'NONE',  ( 0.000000000000000000, 0.000000000000000000, 3.000000000000000444 ) ) ;
#298 = ORIENTED_EDGE ( 'NONE', *, *, #231, .F. ) ;
#299 = DIRECTION ( 'NONE',  ( 1.000000000000000000, 0.000000000000000000, 0.000000000000000000 ) ) ;
#300 = ORIENTED_EDGE ( 'NONE', *, *, #56, .T. ) ;
#301 = EDGE_CURVE ( 'NONE', #362, #38, #213, .T. ) ;
#302 = LINE ( 'NONE', #272, #318 ) ;
#303 = ORIENTED_EDGE ( 'NONE', *, *, #198, .F. ) ;
#304 = DIRECTION ( 'NONE',  ( 1.000000000000000000, 0.000000000000000000, 0.000000000000000000 ) ) ;
#305 = ORIENTED_EDGE ( 'NONE', *, *, #224, .F. ) ;
#306 = FILL_AREA_STYLE_COLOUR ( '', #187 ) ;
#307 = ORIENTED_EDGE ( 'NONE', *, *, #332, .T. ) ;
#308 = DIRECTION ( 'NONE',  ( 0.000000000000000000, 0.000000000000000000, 1.000000000000000000 ) ) ;
#309 = ORIENTED_EDGE ( 'NONE', *, *, #104, .F. ) ;
#310 = SURFACE_SIDE_STYLE ('',( #162 ) ) ;
#311 = APPLICATION_CONTEXT ( 'automotive_design' ) ;
#312 = DIRECTION ( 'NONE',  ( -0.7071067811865509034, 0.000000000000000000, -0.7071067811865441310 ) ) ;
#313 = FILL_AREA_STYLE ('',( #306 ) ) ;
#314 = CARTESIAN_POINT ( 'NONE',  ( 0.1124999999999923006, 0.000000000000000000, -3.000000000000000444 ) ) ;
#315 =( NAMED_UNIT ( * ) PLANE_ANGLE_UNIT ( ) SI_UNIT ( $, .RADIAN. ) );
#316 = LINE ( 'NONE', #192, #108 ) ;
#317 = VECTOR ( 'NONE', #215, 39.37007874015748143 ) ;
#318 = VECTOR ( 'NONE', #150, 39.37007874015748143 ) ;
#319 = VERTEX_POINT ( 'NONE', #95 ) ;
#320 = DIRECTION ( 'NONE',  ( 0.000000000000000000, 0.000000000000000000, -1.000000000000000000 ) ) ;
#321 = DIRECTION ( 'NONE',  ( -0.000000000000000000, -0.000000000000000000, 1.000000000000000000 ) ) ;
#322 = ADVANCED_FACE ( 'NONE', ( #328 ), #55, .T. ) ;
#323 = CARTESIAN_POINT ( 'NONE',  ( 0.1250000000000000000, 0.000000000000000000, -2.987499999999992717 ) ) ;
#324 = AXIS2_PLACEMENT_3D ( 'NONE', #354, #381, #236 ) ;
#325 = CARTESIAN_POINT ( 'NONE',  ( 0.03061862178480559069, 0.1082531754730548246, 3.000000000000000444 ) ) ;
#326 = ADVANCED_FACE ( 'NONE', ( #30 ), #177, .T. ) ;
#327 = PRESENTATION_STYLE_ASSIGNMENT (( #205 ) ) ;
#328 = FACE_OUTER_BOUND ( 'NONE', #124, .T. ) ;
#329 = AXIS2_PLACEMENT_3D ( 'NONE', #387, #37, #153 ) ;
#330 = ORIENTED_EDGE ( 'NONE', *, *, #173, .F. ) ;
#331 = LINE ( 'NONE', #91, #96 ) ;
#332 = EDGE_CURVE ( 'NONE', #362, #117, #208, .T. ) ;
#333 = ORIENTED_EDGE ( 'NONE', *, *, #188, .T. ) ;
#334 = DIRECTION ( 'NONE',  ( -1.000000000000000000, 0.000000000000000000, 0.000000000000000000 ) ) ;
#335 = ORIENTED_EDGE ( 'NONE', *, *, #7, .F. ) ;
#336 = ORIENTED_EDGE ( 'NONE', *, *, #352, .T. ) ;
#337 = VECTOR ( 'NONE', #137, 39.37007874015748143 ) ;
#338 = FACE_OUTER_BOUND ( 'NONE', #5, .T. ) ;
#339 = ORIENTED_EDGE ( 'NONE', *, *, #209, .T. ) ;
#340 = ADVANCED_FACE ( 'NONE', ( #145 ), #28, .T. ) ;
#341 = APPLICATION_PROTOCOL_DEFINITION ( 'draft international standard', 'automotive_design', 1998, #217 ) ;
#342 = DIRECTION ( 'NONE',  ( -0.000000000000000000, -0.000000000000000000, -1.000000000000000000 ) ) ;
#343 = SHAPE_DEFINITION_REPRESENTATION ( #79, #63 ) ;
#344 = CARTESIAN_POINT ( 'NONE',  ( -0.06250000000000000000, 0.1082531754730548246, -2.987499999999992717 ) ) ;
#345 = AXIS2_PLACEMENT_3D ( 'NONE', #378, #140, #232 ) ;
#346 = ORIENTED_EDGE ( 'NONE', *, *, #332, .F. ) ;
#347 = ADVANCED_FACE ( 'NONE', ( #183 ), #109, .T. ) ;
#348 = ORIENTED_EDGE ( 'NONE', *, *, #7, .T. ) ;
#349 = DIRECTION ( 'NONE',  ( 0.000000000000000000, -1.000000000000000000, 0.000000000000000000 ) ) ;
#350 = AXIS2_PLACEMENT_3D ( 'NONE', #58, #181, #304 ) ;
#351 = CARTESIAN_POINT ( 'NONE',  ( 0.06250000000000000000, 0.1082531754730548246, -2.987499999999992717 ) ) ;
#352 = EDGE_CURVE ( 'NONE', #33, #38, #302, .T. ) ;
#353 = DIRECTION ( 'NONE',  ( 0.7071067811865509034, 8.659560562354974766E-17, -0.7071067811865441310 ) ) ;
#354 = CARTESIAN_POINT ( 'NONE',  ( 0.000000000000000000, 0.000000000000000000, -2.987499999999992717 ) ) ;
#355 = CARTESIAN_POINT ( 'NONE',  ( 0.1125000000000043188, 1.454268073987508296E-17, 3.000000000000000444 ) ) ;
#356 = AXIS2_PLACEMENT_3D ( 'NONE', #267, #60, #266 ) ;
#357 = FACE_OUTER_BOUND ( 'NONE', #46, .T. ) ;
#358 = LENGTH_MEASURE_WITH_UNIT ( LENGTH_MEASURE( 0.02539999999999999897 ), #292 );
#359 = ORIENTED_EDGE ( 'NONE', *, *, #279, .F. ) ;
#360 = ADVANCED_FACE ( 'NONE', ( #115 ), #148, .T. ) ;
#361 = CIRCLE ( 'NONE', #243, 0.1125000000000043188 ) ;
#362 = VERTEX_POINT ( 'NONE', #34 ) ;
#363 = DIRECTION ( 'NONE',  ( 1.000000000000000000, 0.000000000000000000, 0.000000000000000000 ) ) ;
#364 = EDGE_LOOP ( 'NONE', ( #127, #207, #161, #307 ) ) ;
#365 = ORIENTED_EDGE ( 'NONE', *, *, #209, .F. ) ;
#366 = B_SPLINE_CURVE_WITH_KNOTS ( 'NONE', 3,
 ( #166, #15, #223, #344 ),
 .UNSPECIFIED., .F., .F.,
 ( 4, 4 ),
 ( 0.000000000000000000, 0.0008698052921010076318 ),
 .UNSPECIFIED. ) ;
#367 = EDGE_LOOP ( 'NONE', ( #216, #8, #273, #2 ) ) ;
#368 = CONICAL_SURFACE ( 'NONE', #64, 0.1125000000000043188, 0.7853981633974530530 ) ;
#369 = EDGE_CURVE ( 'NONE', #33, #221, #271, .T. ) ;
#370 = CARTESIAN_POINT ( 'NONE',  ( -0.1250000000000000000, 0.000000000000000000, -2.987499999999992717 ) ) ;
#371 = DIRECTION ( 'NONE',  ( -0.000000000000000000, -0.000000000000000000, -1.000000000000000000 ) ) ;
#372 = ORIENTED_EDGE ( 'NONE', *, *, #203, .T. ) ;
#373 = CIRCLE ( 'NONE', #76, 0.1125000000000043188 ) ;
#374 = MECHANICAL_DESIGN_GEOMETRIC_PRESENTATION_REPRESENTATION (  '', ( #178 ), #296 ) ;
#375 = CARTESIAN_POINT ( 'NONE',  ( -0.04169720930536773007, 0.1082531754730548246, 2.996984790389316533 ) ) ;
#376 =( CONVERSION_BASED_UNIT ( 'INCH', #125 ) LENGTH_UNIT ( ) NAMED_UNIT ( #89 ) );
#377 = PLANE ( 'NONE',  #237 ) ;
#378 = CARTESIAN_POINT ( 'NONE',  ( 0.000000000000000000, 0.000000000000000000, -2.987499999999992717 ) ) ;
#379 = VECTOR ( 'NONE', #210, 39.37007874015748143 ) ;
#380 = LINE ( 'NONE', #172, #149 ) ;
#381 = DIRECTION ( 'NONE',  ( -0.000000000000000000, -0.000000000000000000, 1.000000000000000000 ) ) ;
#382 = PRODUCT_DEFINITION ( 'General', '', #3, #202 ) ;
#383 = CARTESIAN_POINT ( 'NONE',  ( 0.05224884262611026453, 0.1082531754730548246, -2.992625578686937349 ) ) ;
#384 = CIRCLE ( 'NONE', #102, 0.1125000000000043188 ) ;
#385 = CARTESIAN_POINT ( 'NONE',  ( 0.000000000000000000, 0.000000000000000000, -3.000000000000000444 ) ) ;
#386 = AXIS2_PLACEMENT_3D ( 'NONE', #238, #259, #290 ) ;
#387 = CARTESIAN_POINT ( 'NONE',  ( 0.000000000000000000, 0.000000000000000000, -2.987499999999992717 ) ) ;
#388 = DIRECTION ( 'NONE',  ( -0.000000000000000000, -0.000000000000000000, -1.000000000000000000 ) ) ;
#389 = ORIENTED_EDGE ( 'NONE', *, *, #51, .F. ) ;
ENDSEC;
END-ISO-10303-21;
