ISO-10303-21;
HEADER;
FILE_DESCRIPTION (( 'STEP AP214' ),
    '1' );
FILE_NAME ('BearingPlateLarge.STEP',
    '2026-09-04T22:01:20',
    ( '' ),
    ( '' ),
    'SwSTEP 2.0',
    'SolidWorks 2026',
    '' );
FILE_SCHEMA (( 'AUTOMOTIVE_DESIGN' ));
ENDSEC;

DATA;
#1 =( NAMED_UNIT ( * ) PLANE_ANGLE_UNIT ( ) SI_UNIT ( $, .RADIAN. ) );
#2 = FACE_OUTER_BOUND ( 'NONE', #59, .T. ) ;
#3 = COLOUR_RGB ( '',0.8588235294117646523, 0.8588235294117646523, 0.8588235294117646523 ) ;
#4 = DIMENSIONAL_EXPONENTS ( 1.000000000000000000, 0.000000000000000000, 0.000000000000000000, 0.000000000000000000, 0.000000000000000000, 0.000000000000000000, 0.000000000000000000 ) ;
#5 = ORIENTED_EDGE ( 'NONE', *, *, #1024, .T. ) ;
#6 = STYLED_ITEM ( 'NONE', ( #407 ), #72 ) ;
#7 = STYLED_ITEM ( 'NONE', ( #1009 ), #194 ) ;
#8 = CARTESIAN_POINT ( 'NONE',  ( 0.5000000000002787770, -2.375000000000000000, 0.2500000000000000000 ) ) ;
#9 = EDGE_LOOP ( 'NONE', ( #658, #632, #130, #664 ) ) ;
#10 = AXIS2_PLACEMENT_3D ( 'NONE', #1190, #895, #448 ) ;
#11 = CARTESIAN_POINT ( 'NONE',  ( 0.000000000000000000, 5.375000000000000888, 0.000000000000000000 ) ) ;
#12 = CARTESIAN_POINT ( 'NONE',  ( 0.000000000000000000, 2.375000000000000000, 0.2500000000000000000 ) ) ;
#13 = LINE ( 'NONE', #574, #555 ) ;
#14 = LENGTH_MEASURE_WITH_UNIT ( LENGTH_MEASURE( 0.02539999999999999897 ), #646 );
#15 = FILL_AREA_STYLE_COLOUR ( '', #1197 ) ;
#16 = DIMENSIONAL_EXPONENTS ( 1.000000000000000000, 0.000000000000000000, 0.000000000000000000, 0.000000000000000000, 0.000000000000000000, 0.000000000000000000, 0.000000000000000000 ) ;
#17 = EDGE_LOOP ( 'NONE', ( #716, #124 ) ) ;
#18 = SURFACE_SIDE_STYLE ('',( #492 ) ) ;
#19 = FILL_AREA_STYLE ('',( #858 ) ) ;
#20 = EDGE_CURVE ( 'NONE', #965, #1170, #65, .T. ) ;
#21 = CARTESIAN_POINT ( 'NONE',  ( -2.374999999999932943, -6.750155989720951766E-14, 0.000000000000000000 ) ) ;
#22 = EDGE_LOOP ( 'NONE', ( #981, #866 ) ) ;
#23 =( CONVERSION_BASED_UNIT ( 'INCH', #49 ) LENGTH_UNIT ( ) NAMED_UNIT ( #842 ) );
#24 = CARTESIAN_POINT ( 'NONE',  ( 5.500000000000048850, 4.854251745881226443E-14, 0.2500000000000000000 ) ) ;
#25 = PRODUCT_RELATED_PRODUCT_CATEGORY ( 'part', '', ( #272 ) ) ;
#26 = AXIS2_PLACEMENT_3D ( 'NONE', #77, #1201, #157 ) ;
#27 = VERTEX_POINT ( 'NONE', #107 ) ;
#28 = AXIS2_PLACEMENT_3D ( 'NONE', #341, #541, #460 ) ;
#29 = CARTESIAN_POINT ( 'NONE',  ( -5.374999999999952038, -4.918545702836461765E-14, 0.000000000000000000 ) ) ;
#30 = DIMENSIONAL_EXPONENTS ( 1.000000000000000000, 0.000000000000000000, 0.000000000000000000, 0.000000000000000000, 0.000000000000000000, 0.000000000000000000, 0.000000000000000000 ) ;
#31 =( CONVERSION_BASED_UNIT ( 'INCH', #325 ) LENGTH_UNIT ( ) NAMED_UNIT ( #599 ) );
#32 = CARTESIAN_POINT ( 'NONE',  ( 1.344214125648240244E-13, -2.375000000000000000, 0.000000000000000000 ) ) ;
#33 = UNCERTAINTY_MEASURE_WITH_UNIT (LENGTH_MEASURE( 1.000000000000000082E-05 ), #1030, 'distance_accuracy_value', 'NONE');
#34 = ORIENTED_EDGE ( 'NONE', *, *, #999, .T. ) ;
#35 = EDGE_CURVE ( 'NONE', #562, #1120, #13, .T. ) ;
#36 = AXIS2_PLACEMENT_3D ( 'NONE', #988, #962, #1159 ) ;
#37 = DIRECTION ( 'NONE',  ( 1.000000000000000000, 0.000000000000000000, 0.000000000000000000 ) ) ;
#38 =( CONVERSION_BASED_UNIT ( 'INCH', #793 ) LENGTH_UNIT ( ) NAMED_UNIT ( #129 ) );
#39 = AXIS2_PLACEMENT_3D ( 'NONE', #641, #718, #253 ) ;
#40 = CARTESIAN_POINT ( 'NONE',  ( 9.705441874764581352E-14, -5.375000000000000888, 0.2500000000000000000 ) ) ;
#41 = DIRECTION ( 'NONE',  ( 0.000000000000000000, 0.000000000000000000, 1.000000000000000000 ) ) ;
#42 = EDGE_LOOP ( 'NONE', ( #480, #34, #894, #323 ) ) ;
#43 = ADVANCED_FACE ( 'NONE', ( #925 ), #940, .F. ) ;
#44 = CARTESIAN_POINT ( 'NONE',  ( -5.750000000000000000, 0.000000000000000000, 0.2500000000000000000 ) ) ;
#45 = STYLED_ITEM ( 'NONE', ( #233 ), #919 ) ;
#46 = CYLINDRICAL_SURFACE ( 'NONE', #719, 0.5000000000001443290 ) ;
#47 = DIRECTION ( 'NONE',  ( -1.000000000000000000, 0.000000000000000000, 0.000000000000000000 ) ) ;
#48 = CIRCLE ( 'NONE', #1040, 0.5000000000001443290 ) ;
#49 = LENGTH_MEASURE_WITH_UNIT ( LENGTH_MEASURE( 0.02539999999999999897 ), #750 );
#50 = COLOUR_RGB ( '',0.8588235294117646523, 0.8588235294117646523, 0.8588235294117646523 ) ;
#51 = SURFACE_SIDE_STYLE ('',( #1168 ) ) ;
#52 = LENGTH_MEASURE_WITH_UNIT ( LENGTH_MEASURE( 0.02539999999999999897 ), #971 );
#53 = ORIENTED_EDGE ( 'NONE', *, *, #959, .F. ) ;
#54 =( NAMED_UNIT ( * ) PLANE_ANGLE_UNIT ( ) SI_UNIT ( $, .RADIAN. ) );
#55 = FILL_AREA_STYLE_COLOUR ( '', #677 ) ;
#56 = DIRECTION ( 'NONE',  ( 1.000000000000000000, 0.000000000000000000, 0.000000000000000000 ) ) ;
#57 = ADVANCED_FACE ( 'NONE', ( #838 ), #751, .F. ) ;
#58 =( NAMED_UNIT ( * ) PLANE_ANGLE_UNIT ( ) SI_UNIT ( $, .RADIAN. ) );
#59 = EDGE_LOOP ( 'NONE', ( #655, #604, #848, #1013 ) ) ;
#60 = CARTESIAN_POINT ( 'NONE',  ( 5.750000000000000000, 7.041719095097280880E-16, 0.2500000000000000000 ) ) ;
#61 = SURFACE_STYLE_USAGE ( .BOTH. , #1204 ) ;
#62 = CARTESIAN_POINT ( 'NONE',  ( -2.374999999999932943, -6.750155989720951766E-14, 0.000000000000000000 ) ) ;
#63 = EDGE_LOOP ( 'NONE', ( #1182, #687 ) ) ;
#64 =( NAMED_UNIT ( * ) SI_UNIT ( $, .STERADIAN. ) SOLID_ANGLE_UNIT ( ) );
#65 = CIRCLE ( 'NONE', #1176, 0.5000000000001078027 ) ;
#66 = STYLED_ITEM ( 'NONE', ( #874 ), #245 ) ;
#67 = FILL_AREA_STYLE_COLOUR ( '', #826 ) ;
#68 = FACE_BOUND ( 'NONE', #259, .T. ) ;
#69 = LENGTH_MEASURE_WITH_UNIT ( LENGTH_MEASURE( 0.02539999999999999897 ), #1105 );
#70 = SURFACE_STYLE_FILL_AREA ( #720 ) ;
#71 = ORIENTED_EDGE ( 'NONE', *, *, #707, .T. ) ;
#72 = ADVANCED_FACE ( 'NONE', ( #515 ), #120, .F. ) ;
#73 = DIRECTION ( 'NONE',  ( 1.000000000000000000, 0.000000000000000000, 0.000000000000000000 ) ) ;
#74 = LINE ( 'NONE', #539, #929 ) ;
#75 = PRESENTATION_LAYER_ASSIGNMENT (  '', '', ( #607 ) ) ;
#76 = DIRECTION ( 'NONE',  ( 0.000000000000000000, 0.000000000000000000, 1.000000000000000000 ) ) ;
#77 = CARTESIAN_POINT ( 'NONE',  ( 1.344214125648240244E-13, -2.375000000000000000, 0.000000000000000000 ) ) ;
#78 = ORIENTED_EDGE ( 'NONE', *, *, #629, .F. ) ;
#79 = DIRECTION ( 'NONE',  ( 0.000000000000000000, 0.000000000000000000, 1.000000000000000000 ) ) ;
#80 = FACE_BOUND ( 'NONE', #472, .T. ) ;
#81 =( NAMED_UNIT ( * ) PLANE_ANGLE_UNIT ( ) SI_UNIT ( $, .RADIAN. ) );
#82 = DIRECTION ( 'NONE',  ( -0.000000000000000000, -0.000000000000000000, -1.000000000000000000 ) ) ;
#83 = VECTOR ( 'NONE', #1147, 39.37007874015748143 ) ;
#84 = VERTEX_POINT ( 'NONE', #221 ) ;
#85 = AXIS2_PLACEMENT_3D ( 'NONE', #219, #312, #969 ) ;
#86 = CARTESIAN_POINT ( 'NONE',  ( 0.1300000000000000044, 1.592040838891559342E-17, 0.2500000000000000000 ) ) ;
#87 = CLOSED_SHELL ( 'NONE', ( #310, #914, #585, #1014, #1156, #57, #804, #872, #245, #317, #946, #532, #1174, #617, #690, #194, #72, #232, #43, #164, #127, #602 ) ) ;
#88 = PRESENTATION_LAYER_ASSIGNMENT (  '', '', ( #131 ) ) ;
#89 = AXIS2_PLACEMENT_3D ( 'NONE', #62, #258, #1181 ) ;
#90 = CARTESIAN_POINT ( 'NONE',  ( 5.250000000000047962, 4.852720937382291938E-14, 0.2500000000000000000 ) ) ;
#91 = ORIENTED_EDGE ( 'NONE', *, *, #488, .F. ) ;
#92 = DIRECTION ( 'NONE',  ( 1.000000000000000000, 0.000000000000000000, 0.000000000000000000 ) ) ;
#93 = DIRECTION ( 'NONE',  ( -0.000000000000000000, -0.000000000000000000, -1.000000000000000000 ) ) ;
#94 = DIRECTION ( 'NONE',  ( 0.000000000000000000, 0.000000000000000000, 1.000000000000000000 ) ) ;
#95 = EDGE_CURVE ( 'NONE', #332, #290, #582, .T. ) ;
#96 = ORIENTED_EDGE ( 'NONE', *, *, #833, .F. ) ;
#97 = DIRECTION ( 'NONE',  ( 1.000000000000000000, 0.000000000000000000, 0.000000000000000000 ) ) ;
#98 = SURFACE_STYLE_FILL_AREA ( #19 ) ;
#99 = VERTEX_POINT ( 'NONE', #1055 ) ;
#100 = DIRECTION ( 'NONE',  ( 0.000000000000000000, 0.000000000000000000, 1.000000000000000000 ) ) ;
#101 = EDGE_CURVE ( 'NONE', #956, #913, #494, .T. ) ;
#102 = CARTESIAN_POINT ( 'NONE',  ( 0.000000000000000000, 0.000000000000000000, 0.000000000000000000 ) ) ;
#103 = VERTEX_POINT ( 'NONE', #126 ) ;
#104 = CARTESIAN_POINT ( 'NONE',  ( 2.875000000000119460, 6.727193862236940503E-14, 0.2500000000000000000 ) ) ;
#105 = CIRCLE ( 'NONE', #236, 0.1249999999999999306 ) ;
#106 = MECHANICAL_DESIGN_GEOMETRIC_PRESENTATION_REPRESENTATION (  '', ( #320 ), #732 ) ;
#107 = CARTESIAN_POINT ( 'NONE',  ( -1.874999999999825251, -6.744032755725213746E-14, 0.000000000000000000 ) ) ;
#108 = CARTESIAN_POINT ( 'NONE',  ( 0.000000000000000000, 2.375000000000000000, 0.000000000000000000 ) ) ;
#109 = UNCERTAINTY_MEASURE_WITH_UNIT (LENGTH_MEASURE( 1.000000000000000082E-05 ), #383, 'distance_accuracy_value', 'NONE');
#110 = COLOUR_RGB ( '',0.8588235294117646523, 0.8588235294117646523, 0.8588235294117646523 ) ;
#111 = CYLINDRICAL_SURFACE ( 'NONE', #159, 0.5000000000000526246 ) ;
#112 = ORIENTED_EDGE ( 'NONE', *, *, #113, .F. ) ;
#113 = EDGE_CURVE ( 'NONE', #103, #361, #713, .T. ) ;
#114 = CARTESIAN_POINT ( 'NONE',  ( -5.249999999999952038, -4.917014894337527260E-14, 0.2500000000000000000 ) ) ;
#115 = FACE_BOUND ( 'NONE', #17, .T. ) ;
#116 = ORIENTED_EDGE ( 'NONE', *, *, #238, .F. ) ;
#117 = AXIS2_PLACEMENT_3D ( 'NONE', #1124, #1039, #589 ) ;
#118 = DIRECTION ( 'NONE',  ( -1.000000000000000000, 0.000000000000000000, 0.000000000000000000 ) ) ;
#119 = DIMENSIONAL_EXPONENTS ( 1.000000000000000000, 0.000000000000000000, 0.000000000000000000, 0.000000000000000000, 0.000000000000000000, 0.000000000000000000, 0.000000000000000000 ) ;
#120 = CYLINDRICAL_SURFACE ( 'NONE', #1116, 0.1249999999999999306 ) ;
#121 = DIRECTION ( 'NONE',  ( -1.000000000000000000, 0.000000000000000000, 0.000000000000000000 ) ) ;
#122 = UNCERTAINTY_MEASURE_WITH_UNIT (LENGTH_MEASURE( 1.000000000000000082E-05 ), #31, 'distance_accuracy_value', 'NONE');
#123 =( CONVERSION_BASED_UNIT ( 'INCH', #847 ) LENGTH_UNIT ( ) NAMED_UNIT ( #4 ) );
#124 = ORIENTED_EDGE ( 'NONE', *, *, #724, .T. ) ;
#125 = FILL_AREA_STYLE ('',( #1044 ) ) ;
#126 = CARTESIAN_POINT ( 'NONE',  ( 0.5000000000000000000, 2.375000000000000000, 0.2500000000000000000 ) ) ;
#127 = ADVANCED_FACE ( 'NONE', ( #138 ), #430, .F. ) ;
#128 = MECHANICAL_DESIGN_GEOMETRIC_PRESENTATION_REPRESENTATION (  '', ( #6 ), #276 ) ;
#129 = DIMENSIONAL_EXPONENTS ( 1.000000000000000000, 0.000000000000000000, 0.000000000000000000, 0.000000000000000000, 0.000000000000000000, 0.000000000000000000, 0.000000000000000000 ) ;
#130 = ORIENTED_EDGE ( 'NONE', *, *, #807, .T. ) ;
#131 = STYLED_ITEM ( 'NONE', ( #821 ), #317 ) ;
#132 = DIRECTION ( 'NONE',  ( -0.000000000000000000, -0.000000000000000000, -1.000000000000000000 ) ) ;
#133 = UNCERTAINTY_MEASURE_WITH_UNIT (LENGTH_MEASURE( 1.000000000000000082E-05 ), #1104, 'distance_accuracy_value', 'NONE');
#134 = DIRECTION ( 'NONE',  ( -1.000000000000000000, 0.000000000000000000, 0.000000000000000000 ) ) ;
#135 = ORIENTED_EDGE ( 'NONE', *, *, #1075, .T. ) ;
#136 = AXIS2_PLACEMENT_3D ( 'NONE', #1056, #496, #697 ) ;
#137 = DIRECTION ( 'NONE',  ( -0.000000000000000000, -0.000000000000000000, -1.000000000000000000 ) ) ;
#138 = FACE_OUTER_BOUND ( 'NONE', #9, .T. ) ;
#139 = SURFACE_STYLE_USAGE ( .BOTH. , #425 ) ;
#140 =( CONVERSION_BASED_UNIT ( 'INCH', #608 ) LENGTH_UNIT ( ) NAMED_UNIT ( #1157 ) );
#141 = MECHANICAL_DESIGN_GEOMETRIC_PRESENTATION_REPRESENTATION (  '', ( #673 ), #867 ) ;
#142 = COLOUR_RGB ( '',0.8588235294117646523, 0.8588235294117646523, 0.8588235294117646523 ) ;
#143 = ORIENTED_EDGE ( 'NONE', *, *, #452, .T. ) ;
#144 = PRESENTATION_LAYER_ASSIGNMENT (  '', '', ( #7 ) ) ;
#145 = EDGE_CURVE ( 'NONE', #84, #638, #825, .T. ) ;
#146 = PRESENTATION_STYLE_ASSIGNMENT (( #717 ) ) ;
#147 = CARTESIAN_POINT ( 'NONE',  ( 0.000000000000000000, 0.000000000000000000, 0.000000000000000000 ) ) ;
#148 = SURFACE_STYLE_FILL_AREA ( #125 ) ;
#149 = ORIENTED_EDGE ( 'NONE', *, *, #35, .T. ) ;
#150 = FILL_AREA_STYLE_COLOUR ( '', #1173 ) ;
#151 = COLOUR_RGB ( '',0.8588235294117646523, 0.8588235294117646523, 0.8588235294117646523 ) ;
#152 = DIRECTION ( 'NONE',  ( -1.000000000000000000, 0.000000000000000000, 0.000000000000000000 ) ) ;
#153 = SURFACE_STYLE_USAGE ( .BOTH. , #442 ) ;
#154 =( NAMED_UNIT ( * ) SI_UNIT ( $, .STERADIAN. ) SOLID_ANGLE_UNIT ( ) );
#155 = CYLINDRICAL_SURFACE ( 'NONE', #1198, 0.1300000000000000044 ) ;
#156 = EDGE_CURVE ( 'NONE', #501, #775, #733, .T. ) ;
#157 = DIRECTION ( 'NONE',  ( 1.000000000000000000, 0.000000000000000000, 0.000000000000000000 ) ) ;
#158 = VERTEX_POINT ( 'NONE', #234 ) ;
#159 = AXIS2_PLACEMENT_3D ( 'NONE', #1152, #331, #134 ) ;
#160 = AXIS2_PLACEMENT_3D ( 'NONE', #197, #931, #749 ) ;
#161 =( NAMED_UNIT ( * ) PLANE_ANGLE_UNIT ( ) SI_UNIT ( $, .RADIAN. ) );
#162 = FACE_OUTER_BOUND ( 'NONE', #889, .T. ) ;
#163 = FILL_AREA_STYLE ('',( #347 ) ) ;
#164 = ADVANCED_FACE ( 'NONE', ( #622 ), #634, .F. ) ;
#165 = DIRECTION ( 'NONE',  ( 1.000000000000000000, 0.000000000000000000, 0.000000000000000000 ) ) ;
#166 = ORIENTED_EDGE ( 'NONE', *, *, #452, .F. ) ;
#167 = PRODUCT_CONTEXT ( 'NONE', #500, 'mechanical' ) ;
#168 =( NAMED_UNIT ( * ) SI_UNIT ( $, .STERADIAN. ) SOLID_ANGLE_UNIT ( ) );
#169 = CIRCLE ( 'NONE', #386, 0.1250000000000004441 ) ;
#170 = ORIENTED_EDGE ( 'NONE', *, *, #176, .F. ) ;
#171 = DIRECTION ( 'NONE',  ( 0.000000000000000000, 0.000000000000000000, 1.000000000000000000 ) ) ;
#172 = ORIENTED_EDGE ( 'NONE', *, *, #1211, .F. ) ;
#173 = PRESENTATION_STYLE_ASSIGNMENT (( #816 ) ) ;
#174 = EDGE_LOOP ( 'NONE', ( #845, #280, #1095, #991 ) ) ;
#175 = AXIS2_PLACEMENT_3D ( 'NONE', #1155, #137, #215 ) ;
#176 = EDGE_CURVE ( 'NONE', #638, #84, #1144, .T. ) ;
#177 = DIRECTION ( 'NONE',  ( 0.000000000000000000, 0.000000000000000000, 1.000000000000000000 ) ) ;
#178 =( GEOMETRIC_REPRESENTATION_CONTEXT ( 3 ) GLOBAL_UNCERTAINTY_ASSIGNED_CONTEXT ( ( #498 ) ) GLOBAL_UNIT_ASSIGNED_CONTEXT ( ( #349, #252, #154 ) ) REPRESENTATION_CONTEXT ( 'NONE', 'WORKASPACE' ) );
#179 =( GEOMETRIC_REPRESENTATION_CONTEXT ( 3 ) GLOBAL_UNCERTAINTY_ASSIGNED_CONTEXT ( ( #186 ) ) GLOBAL_UNIT_ASSIGNED_CONTEXT ( ( #1195, #552, #637 ) ) REPRESENTATION_CONTEXT ( 'NONE', 'WORKASPACE' ) );
#180 = FILL_AREA_STYLE ('',( #763 ) ) ;
#181 = CARTESIAN_POINT ( 'NONE',  ( -1.874999999999825251, -6.744032755725213746E-14, 0.2500000000000000000 ) ) ;
#182 = ORIENTED_EDGE ( 'NONE', *, *, #543, .T. ) ;
#183 = FACE_OUTER_BOUND ( 'NONE', #342, .T. ) ;
#184 = VERTEX_POINT ( 'NONE', #434 ) ;
#185 = AXIS2_PLACEMENT_3D ( 'NONE', #147, #522, #412 ) ;
#186 = UNCERTAINTY_MEASURE_WITH_UNIT (LENGTH_MEASURE( 1.000000000000000082E-05 ), #1195, 'distance_accuracy_value', 'NONE');
#187 = FACE_BOUND ( 'NONE', #268, .T. ) ;
#188 = ORIENTED_EDGE ( 'NONE', *, *, #652, .F. ) ;
#189 = CIRCLE ( 'NONE', #876, 0.5000000000000522915 ) ;
#190 =( NAMED_UNIT ( * ) SI_UNIT ( $, .STERADIAN. ) SOLID_ANGLE_UNIT ( ) );
#191 = CARTESIAN_POINT ( 'NONE',  ( 0.000000000000000000, 0.000000000000000000, 0.2500000000000000000 ) ) ;
#192 = ORIENTED_EDGE ( 'NONE', *, *, #238, .T. ) ;
#193 = DIRECTION ( 'NONE',  ( -1.000000000000000000, 0.000000000000000000, 0.000000000000000000 ) ) ;
#194 = ADVANCED_FACE ( 'NONE', ( #260 ), #653, .F. ) ;
#195 = ORIENTED_EDGE ( 'NONE', *, *, #176, .T. ) ;
#196 = MECHANICAL_DESIGN_GEOMETRIC_PRESENTATION_REPRESENTATION (  '', ( #45 ), #269 ) ;
#197 = CARTESIAN_POINT ( 'NONE',  ( 5.375000000000048850, 4.852720937382291938E-14, 0.2500000000000000000 ) ) ;
#198 = CIRCLE ( 'NONE', #299, 0.5000000000000000000 ) ;
#199 = AXIS2_PLACEMENT_3D ( 'NONE', #435, #1194, #1011 ) ;
#200 = LENGTH_MEASURE_WITH_UNIT ( LENGTH_MEASURE( 0.02539999999999999897 ), #1038 );
#201 = CARTESIAN_POINT ( 'NONE',  ( 0.000000000000000000, 2.375000000000000000, 0.2500000000000000000 ) ) ;
#202 = AXIS2_PLACEMENT_3D ( 'NONE', #725, #1092, #73 ) ;
#203 = PRESENTATION_LAYER_ASSIGNMENT (  '', '', ( #986 ) ) ;
#204 = PRESENTATION_STYLE_ASSIGNMENT (( #1041 ) ) ;
#205 = ORIENTED_EDGE ( 'NONE', *, *, #959, .T. ) ;
#206 = PRODUCT_DEFINITION ( 'General', '', #511, #413 ) ;
#207 =( NAMED_UNIT ( * ) SI_UNIT ( $, .STERADIAN. ) SOLID_ANGLE_UNIT ( ) );
#208 = APPLICATION_CONTEXT ( 'automotive_design' ) ;
#209 = SURFACE_SIDE_STYLE ('',( #504 ) ) ;
#210 = CARTESIAN_POINT ( 'NONE',  ( -5.750000000000000000, 0.000000000000000000, 0.2500000000000000000 ) ) ;
#211 = FILL_AREA_STYLE_COLOUR ( '', #3 ) ;
#212 = DIMENSIONAL_EXPONENTS ( 1.000000000000000000, 0.000000000000000000, 0.000000000000000000, 0.000000000000000000, 0.000000000000000000, 0.000000000000000000, 0.000000000000000000 ) ;
#213 = EDGE_LOOP ( 'NONE', ( #904, #143 ) ) ;
#214 = PRESENTATION_LAYER_ASSIGNMENT (  '', '', ( #484 ) ) ;
#215 = DIRECTION ( 'NONE',  ( -1.000000000000000000, 0.000000000000000000, 0.000000000000000000 ) ) ;
#216 = CARTESIAN_POINT ( 'NONE',  ( -0.5000000000000099920, -2.375000000000000000, 0.2500000000000000000 ) ) ;
#217 = VERTEX_POINT ( 'NONE', #1022 ) ;
#218 =( NAMED_UNIT ( * ) PLANE_ANGLE_UNIT ( ) SI_UNIT ( $, .RADIAN. ) );
#219 = CARTESIAN_POINT ( 'NONE',  ( -5.374999999999952038, -4.918545702836461765E-14, 0.2500000000000000000 ) ) ;
#220 = EDGE_CURVE ( 'NONE', #223, #348, #477, .T. ) ;
#221 = CARTESIAN_POINT ( 'NONE',  ( -0.1249999999999028832, -5.375000000000000888, 0.2500000000000000000 ) ) ;
#222 = FILL_AREA_STYLE_COLOUR ( '', #953 ) ;
#223 = VERTEX_POINT ( 'NONE', #114 ) ;
#224 = DIMENSIONAL_EXPONENTS ( 1.000000000000000000, 0.000000000000000000, 0.000000000000000000, 0.000000000000000000, 0.000000000000000000, 0.000000000000000000, 0.000000000000000000 ) ;
#225 =( NAMED_UNIT ( * ) PLANE_ANGLE_UNIT ( ) SI_UNIT ( $, .RADIAN. ) );
#226 =( LENGTH_UNIT ( ) NAMED_UNIT ( * ) SI_UNIT ( $, .METRE. ) );
#227 =( NAMED_UNIT ( * ) SI_UNIT ( $, .STERADIAN. ) SOLID_ANGLE_UNIT ( ) );
#228 = VECTOR ( 'NONE', #567, 39.37007874015748143 ) ;
#229 = CARTESIAN_POINT ( 'NONE',  ( -2.875000000000040856, -6.750155989720951766E-14, 0.2500000000000000000 ) ) ;
#230 = CARTESIAN_POINT ( 'NONE',  ( -5.374999999999952038, -4.918545702836461765E-14, 0.000000000000000000 ) ) ;
#231 = PRESENTATION_STYLE_ASSIGNMENT (( #139 ) ) ;
#232 = ADVANCED_FACE ( 'NONE', ( #183 ), #474, .F. ) ;
#233 = PRESENTATION_STYLE_ASSIGNMENT (( #153 ) ) ;
#234 = CARTESIAN_POINT ( 'NONE',  ( 5.500000000000048850, 4.854251745881226443E-14, 0.000000000000000000 ) ) ;
#235 = VECTOR ( 'NONE', #1140, 39.37007874015748143 ) ;
#236 = AXIS2_PLACEMENT_3D ( 'NONE', #384, #852, #363 ) ;
#237 = ORIENTED_EDGE ( 'NONE', *, *, #327, .T. ) ;
#238 = EDGE_CURVE ( 'NONE', #415, #1120, #678, .T. ) ;
#239 = CIRCLE ( 'NONE', #89, 0.5000000000001078027 ) ;
#240 = SURFACE_SIDE_STYLE ('',( #998 ) ) ;
#241 = DIRECTION ( 'NONE',  ( -0.000000000000000000, -0.000000000000000000, -1.000000000000000000 ) ) ;
#242 = DIRECTION ( 'NONE',  ( 1.000000000000000000, 0.000000000000000000, 0.000000000000000000 ) ) ;
#243 = EDGE_LOOP ( 'NONE', ( #455, #549, #372, #682 ) ) ;
#244 = STYLED_ITEM ( 'NONE', ( #326 ), #872 ) ;
#245 = ADVANCED_FACE ( 'NONE', ( #924 ), #462, .F. ) ;
#246 = SURFACE_SIDE_STYLE ('',( #344 ) ) ;
#247 = CARTESIAN_POINT ( 'NONE',  ( 2.375000000000067057, 6.721070628241202484E-14, 0.000000000000000000 ) ) ;
#248 = MECHANICAL_DESIGN_GEOMETRIC_PRESENTATION_REPRESENTATION (  '', ( #346 ), #1137 ) ;
#249 =( CONVERSION_BASED_UNIT ( 'INCH', #351 ) LENGTH_UNIT ( ) NAMED_UNIT ( #391 ) );
#250 = CARTESIAN_POINT ( 'NONE',  ( 2.375000000000067057, 6.721070628241202484E-14, 0.2500000000000000000 ) ) ;
#251 = ORIENTED_EDGE ( 'NONE', *, *, #367, .F. ) ;
#252 =( NAMED_UNIT ( * ) PLANE_ANGLE_UNIT ( ) SI_UNIT ( $, .RADIAN. ) );
#253 = DIRECTION ( 'NONE',  ( 1.000000000000000000, 0.000000000000000000, 0.000000000000000000 ) ) ;
#254 =( LENGTH_UNIT ( ) NAMED_UNIT ( * ) SI_UNIT ( $, .METRE. ) );
#255 = ORIENTED_EDGE ( 'NONE', *, *, #416, .T. ) ;
#256 = PRESENTATION_LAYER_ASSIGNMENT (  '', '', ( #66 ) ) ;
#257 = FACE_BOUND ( 'NONE', #1007, .T. ) ;
#258 = DIRECTION ( 'NONE',  ( 0.000000000000000000, 0.000000000000000000, 1.000000000000000000 ) ) ;
#259 = EDGE_LOOP ( 'NONE', ( #188, #973 ) ) ;
#260 = FACE_OUTER_BOUND ( 'NONE', #382, .T. ) ;
#261 = DIRECTION ( 'NONE',  ( 1.000000000000000000, 0.000000000000000000, 0.000000000000000000 ) ) ;
#262 = VECTOR ( 'NONE', #278, 39.37007874015748143 ) ;
#263 =( NAMED_UNIT ( * ) SI_UNIT ( $, .STERADIAN. ) SOLID_ANGLE_UNIT ( ) );
#264 = CARTESIAN_POINT ( 'NONE',  ( 5.750000000000000000, 7.041719095097280880E-16, 0.000000000000000000 ) ) ;
#265 = ORIENTED_EDGE ( 'NONE', *, *, #145, .F. ) ;
#266 = EDGE_CURVE ( 'NONE', #913, #956, #920, .T. ) ;
#267 = CARTESIAN_POINT ( 'NONE',  ( -0.1249999999999999306, 5.375000000000000888, 0.000000000000000000 ) ) ;
#268 = EDGE_LOOP ( 'NONE', ( #1111, #813 ) ) ;
#269 =( GEOMETRIC_REPRESENTATION_CONTEXT ( 3 ) GLOBAL_UNCERTAINTY_ASSIGNED_CONTEXT ( ( #776 ) ) GLOBAL_UNIT_ASSIGNED_CONTEXT ( ( #529, #54, #64 ) ) REPRESENTATION_CONTEXT ( 'NONE', 'WORKASPACE' ) );
#270 = FILL_AREA_STYLE_COLOUR ( '', #556 ) ;
#271 = ORIENTED_EDGE ( 'NONE', *, *, #266, .T. ) ;
#272 = PRODUCT ( 'BearingPlateLarge', 'BearingPlateLarge', '', ( #167 ) ) ;
#273 = MECHANICAL_DESIGN_GEOMETRIC_PRESENTATION_REPRESENTATION (  '', ( #1065 ), #1017 ) ;
#274 =( NAMED_UNIT ( * ) SI_UNIT ( $, .STERADIAN. ) SOLID_ANGLE_UNIT ( ) );
#275 = CARTESIAN_POINT ( 'NONE',  ( 0.1300000000000000044, 1.592040838891559342E-17, 0.2500000000000000000 ) ) ;
#276 =( GEOMETRIC_REPRESENTATION_CONTEXT ( 3 ) GLOBAL_UNCERTAINTY_ASSIGNED_CONTEXT ( ( #122 ) ) GLOBAL_UNIT_ASSIGNED_CONTEXT ( ( #31, #588, #1072 ) ) REPRESENTATION_CONTEXT ( 'NONE', 'WORKASPACE' ) );
#277 = CIRCLE ( 'NONE', #715, 0.5000000000000522915 ) ;
#278 = DIRECTION ( 'NONE',  ( -0.000000000000000000, -0.000000000000000000, -1.000000000000000000 ) ) ;
#279 = PLANE ( 'NONE',  #1200 ) ;
#280 = ORIENTED_EDGE ( 'NONE', *, *, #768, .T. ) ;
#281 = SURFACE_STYLE_USAGE ( .BOTH. , #857 ) ;
#282 = CARTESIAN_POINT ( 'NONE',  ( 0.000000000000000000, 2.375000000000000000, 0.000000000000000000 ) ) ;
#283 = EDGE_CURVE ( 'NONE', #348, #956, #593, .T. ) ;
#284 = DIMENSIONAL_EXPONENTS ( 1.000000000000000000, 0.000000000000000000, 0.000000000000000000, 0.000000000000000000, 0.000000000000000000, 0.000000000000000000, 0.000000000000000000 ) ;
#285 = ORIENTED_EDGE ( 'NONE', *, *, #367, .T. ) ;
#286 = AXIS2_PLACEMENT_3D ( 'NONE', #662, #1033, #193 ) ;
#287 = FACE_OUTER_BOUND ( 'NONE', #174, .T. ) ;
#288 = UNCERTAINTY_MEASURE_WITH_UNIT (LENGTH_MEASURE( 1.000000000000000082E-05 ), #249, 'distance_accuracy_value', 'NONE');
#289 = CARTESIAN_POINT ( 'NONE',  ( 0.000000000000000000, 0.000000000000000000, 0.2500000000000000000 ) ) ;
#290 = VERTEX_POINT ( 'NONE', #787 ) ;
#291 = LENGTH_MEASURE_WITH_UNIT ( LENGTH_MEASURE( 0.02539999999999999897 ), #837 );
#292 =( NAMED_UNIT ( * ) PLANE_ANGLE_UNIT ( ) SI_UNIT ( $, .RADIAN. ) );
#293 = EDGE_LOOP ( 'NONE', ( #856, #791, #693, #1208 ) ) ;
#294 = DIRECTION ( 'NONE',  ( 0.000000000000000000, 0.000000000000000000, 1.000000000000000000 ) ) ;
#295 = EDGE_CURVE ( 'NONE', #1170, #965, #441, .T. ) ;
#296 = FACE_BOUND ( 'NONE', #649, .T. ) ;
#297 = EDGE_LOOP ( 'NONE', ( #390, #841, #469, #304 ) ) ;
#298 = CIRCLE ( 'NONE', #199, 0.1250000000000004441 ) ;
#299 = AXIS2_PLACEMENT_3D ( 'NONE', #282, #177, #1123 ) ;
#300 = CARTESIAN_POINT ( 'NONE',  ( 5.750000000000000000, 7.041719095097280880E-16, 0.2500000000000000000 ) ) ;
#301 = UNCERTAINTY_MEASURE_WITH_UNIT (LENGTH_MEASURE( 1.000000000000000082E-05 ), #654, 'distance_accuracy_value', 'NONE');
#302 =( GEOMETRIC_REPRESENTATION_CONTEXT ( 3 ) GLOBAL_UNCERTAINTY_ASSIGNED_CONTEXT ( ( #33 ) ) GLOBAL_UNIT_ASSIGNED_CONTEXT ( ( #1030, #743, #190 ) ) REPRESENTATION_CONTEXT ( 'NONE', 'WORKASPACE' ) );
#303 = DIRECTION ( 'NONE',  ( 1.000000000000000000, 0.000000000000000000, 0.000000000000000000 ) ) ;
#304 = ORIENTED_EDGE ( 'NONE', *, *, #1086, .F. ) ;
#305 = CARTESIAN_POINT ( 'NONE',  ( -5.750000000000000000, 0.000000000000000000, 0.000000000000000000 ) ) ;
#306 = CARTESIAN_POINT ( 'NONE',  ( 0.000000000000000000, 0.000000000000000000, 0.000000000000000000 ) ) ;
#307 = CARTESIAN_POINT ( 'NONE',  ( 0.000000000000000000, 0.000000000000000000, 0.000000000000000000 ) ) ;
#308 = ORIENTED_EDGE ( 'NONE', *, *, #1051, .T. ) ;
#309 = STYLED_ITEM ( 'NONE', ( #231 ), #914 ) ;
#310 = ADVANCED_FACE ( 'NONE', ( #311 ), #615, .F. ) ;
#311 = FACE_OUTER_BOUND ( 'NONE', #243, .T. ) ;
#312 = DIRECTION ( 'NONE',  ( -0.000000000000000000, -0.000000000000000000, -1.000000000000000000 ) ) ;
#313 = FACE_OUTER_BOUND ( 'NONE', #928, .T. ) ;
#314 = UNCERTAINTY_MEASURE_WITH_UNIT (LENGTH_MEASURE( 1.000000000000000082E-05 ), #140, 'distance_accuracy_value', 'NONE');
#315 = SURFACE_STYLE_FILL_AREA ( #789 ) ;
#316 = VERTEX_POINT ( 'NONE', #305 ) ;
#317 = ADVANCED_FACE ( 'NONE', ( #683 ), #631, .T. ) ;
#318 = CARTESIAN_POINT ( 'NONE',  ( -2.875000000000040856, -6.750155989720951766E-14, 0.2500000000000000000 ) ) ;
#319 = SURFACE_STYLE_FILL_AREA ( #612 ) ;
#320 = STYLED_ITEM ( 'NONE', ( #1074 ), #617 ) ;
#321 = LENGTH_MEASURE_WITH_UNIT ( LENGTH_MEASURE( 0.02539999999999999897 ), #706 );
#322 = AXIS2_PLACEMENT_3D ( 'NONE', #696, #1067, #600 ) ;
#323 = ORIENTED_EDGE ( 'NONE', *, *, #1191, .F. ) ;
#324 = DIRECTION ( 'NONE',  ( -0.000000000000000000, -0.000000000000000000, -1.000000000000000000 ) ) ;
#325 = LENGTH_MEASURE_WITH_UNIT ( LENGTH_MEASURE( 0.02539999999999999897 ), #887 );
#326 = PRESENTATION_STYLE_ASSIGNMENT (( #402 ) ) ;
#327 = EDGE_CURVE ( 'NONE', #99, #1043, #277, .T. ) ;
#328 = FILL_AREA_STYLE_COLOUR ( '', #473 ) ;
#329 = AXIS2_PLACEMENT_3D ( 'NONE', #863, #294, #846 ) ;
#330 = FILL_AREA_STYLE_COLOUR ( '', #983 ) ;
#331 = DIRECTION ( 'NONE',  ( -0.000000000000000000, -0.000000000000000000, -1.000000000000000000 ) ) ;
#332 = VERTEX_POINT ( 'NONE', #90 ) ;
#333 = FILL_AREA_STYLE ('',( #150 ) ) ;
#334 =( NAMED_UNIT ( * ) SI_UNIT ( $, .STERADIAN. ) SOLID_ANGLE_UNIT ( ) );
#335 = SURFACE_SIDE_STYLE ('',( #1097 ) ) ;
#336 = AXIS2_PLACEMENT_3D ( 'NONE', #1180, #76, #366 ) ;
#337 = AXIS2_PLACEMENT_3D ( 'NONE', #12, #645, #666 ) ;
#338 = CARTESIAN_POINT ( 'NONE',  ( -2.374999999999932943, -6.750155989720951766E-14, 0.2500000000000000000 ) ) ;
#339 = EDGE_LOOP ( 'NONE', ( #805, #461, #1004, #1064 ) ) ;
#340 =( NAMED_UNIT ( * ) SI_UNIT ( $, .STERADIAN. ) SOLID_ANGLE_UNIT ( ) );
#341 = CARTESIAN_POINT ( 'NONE',  ( 2.375000000000067057, 6.721070628241202484E-14, 0.2500000000000000000 ) ) ;
#342 = EDGE_LOOP ( 'NONE', ( #571, #797, #808, #1036 ) ) ;
#343 = COLOUR_RGB ( '',0.8588235294117646523, 0.8588235294117646523, 0.8588235294117646523 ) ;
#344 = SURFACE_STYLE_FILL_AREA ( #611 ) ;
#345 = CARTESIAN_POINT ( 'NONE',  ( -1.874999999999825251, -6.744032755725213746E-14, 0.2500000000000000000 ) ) ;
#346 = STYLED_ITEM ( 'NONE', ( #1023 ), #1014 ) ;
#347 = FILL_AREA_STYLE_COLOUR ( '', #817 ) ;
#348 = VERTEX_POINT ( 'NONE', #740 ) ;
#349 =( CONVERSION_BASED_UNIT ( 'INCH', #1192 ) LENGTH_UNIT ( ) NAMED_UNIT ( #468 ) );
#350 = FILL_AREA_STYLE ('',( #710 ) ) ;
#351 = LENGTH_MEASURE_WITH_UNIT ( LENGTH_MEASURE( 0.02539999999999999897 ), #1089 );
#352 = LINE ( 'NONE', #181, #1083 ) ;
#353 = ORIENTED_EDGE ( 'NONE', *, *, #101, .T. ) ;
#354 = VECTOR ( 'NONE', #1129, 39.37007874015748143 ) ;
#355 = SURFACE_STYLE_FILL_AREA ( #333 ) ;
#356 = AXIS2_PLACEMENT_3D ( 'NONE', #1178, #1185, #891 ) ;
#357 = SURFACE_STYLE_FILL_AREA ( #481 ) ;
#358 = DIRECTION ( 'NONE',  ( -0.000000000000000000, -0.000000000000000000, -1.000000000000000000 ) ) ;
#359 = EDGE_CURVE ( 'NONE', #27, #756, #239, .T. ) ;
#360 = DIRECTION ( 'NONE',  ( 1.000000000000000000, 0.000000000000000000, 0.000000000000000000 ) ) ;
#361 = VERTEX_POINT ( 'NONE', #746 ) ;
#362 = FILL_AREA_STYLE_COLOUR ( '', #110 ) ;
#363 = DIRECTION ( 'NONE',  ( 1.000000000000000000, 0.000000000000000000, 0.000000000000000000 ) ) ;
#364 = CIRCLE ( 'NONE', #684, 0.5000000000001443290 ) ;
#365 =( NAMED_UNIT ( * ) SI_UNIT ( $, .STERADIAN. ) SOLID_ANGLE_UNIT ( ) );
#366 = DIRECTION ( 'NONE',  ( 1.000000000000000000, 0.000000000000000000, 0.000000000000000000 ) ) ;
#367 = EDGE_CURVE ( 'NONE', #1021, #451, #783, .T. ) ;
#368 = ORIENTED_EDGE ( 'NONE', *, *, #671, .F. ) ;
#369 = SURFACE_STYLE_USAGE ( .BOTH. , #393 ) ;
#370 = ORIENTED_EDGE ( 'NONE', *, *, #526, .T. ) ;
#371 = FACE_OUTER_BOUND ( 'NONE', #554, .T. ) ;
#372 = ORIENTED_EDGE ( 'NONE', *, *, #729, .F. ) ;
#373 = EDGE_CURVE ( 'NONE', #1043, #99, #923, .T. ) ;
#374 = AXIS2_PLACEMENT_3D ( 'NONE', #1078, #1172, #47 ) ;
#375 = DIRECTION ( 'NONE',  ( -0.000000000000000000, -0.000000000000000000, -1.000000000000000000 ) ) ;
#376 = PRESENTATION_LAYER_ASSIGNMENT (  '', '', ( #422 ) ) ;
#377 = AXIS2_PLACEMENT_3D ( 'NONE', #545, #443, #530 ) ;
#378 = FILL_AREA_STYLE_COLOUR ( '', #967 ) ;
#379 =( CONVERSION_BASED_UNIT ( 'INCH', #14 ) LENGTH_UNIT ( ) NAMED_UNIT ( #490 ) );
#380 = SURFACE_STYLE_FILL_AREA ( #927 ) ;
#381 = DIMENSIONAL_EXPONENTS ( 1.000000000000000000, 0.000000000000000000, 0.000000000000000000, 0.000000000000000000, 0.000000000000000000, 0.000000000000000000, 0.000000000000000000 ) ;
#382 = EDGE_LOOP ( 'NONE', ( #579, #1175, #71, #945 ) ) ;
#383 =( CONVERSION_BASED_UNIT ( 'INCH', #291 ) LENGTH_UNIT ( ) NAMED_UNIT ( #1046 ) );
#384 = CARTESIAN_POINT ( 'NONE',  ( 0.000000000000000000, 5.375000000000000888, 0.2500000000000000000 ) ) ;
#385 = ORIENTED_EDGE ( 'NONE', *, *, #568, .T. ) ;
#386 = AXIS2_PLACEMENT_3D ( 'NONE', #1109, #100, #387 ) ;
#387 = DIRECTION ( 'NONE',  ( 1.000000000000000000, 0.000000000000000000, 0.000000000000000000 ) ) ;
#388 = UNCERTAINTY_MEASURE_WITH_UNIT (LENGTH_MEASURE( 1.000000000000000082E-05 ), #547, 'distance_accuracy_value', 'NONE');
#389 = CARTESIAN_POINT ( 'NONE',  ( -0.1249999999999999306, 5.375000000000000888, 0.2500000000000000000 ) ) ;
#390 = ORIENTED_EDGE ( 'NONE', *, *, #145, .T. ) ;
#391 = DIMENSIONAL_EXPONENTS ( 1.000000000000000000, 0.000000000000000000, 0.000000000000000000, 0.000000000000000000, 0.000000000000000000, 0.000000000000000000, 0.000000000000000000 ) ;
#392 =( LENGTH_UNIT ( ) NAMED_UNIT ( * ) SI_UNIT ( $, .METRE. ) );
#393 = SURFACE_SIDE_STYLE ('',( #98 ) ) ;
#394 = EDGE_LOOP ( 'NONE', ( #172, #135, #149, #116 ) ) ;
#395 = CARTESIAN_POINT ( 'NONE',  ( 5.250000000000047962, 4.852720937382291938E-14, 0.000000000000000000 ) ) ;
#396 = DIRECTION ( 'NONE',  ( 1.000000000000000000, 0.000000000000000000, -0.000000000000000000 ) ) ;
#397 = EDGE_LOOP ( 'NONE', ( #873, #528 ) ) ;
#398 =( LENGTH_UNIT ( ) NAMED_UNIT ( * ) SI_UNIT ( $, .METRE. ) );
#399 = STYLED_ITEM ( 'NONE', ( #943 ), #585 ) ;
#400 = MECHANICAL_DESIGN_GEOMETRIC_PRESENTATION_REPRESENTATION (  '', ( #917 ), #1079 ) ;
#401 = FILL_AREA_STYLE ('',( #1114 ) ) ;
#402 = SURFACE_STYLE_USAGE ( .BOTH. , #1165 ) ;
#403 = AXIS2_PLACEMENT_3D ( 'NONE', #338, #954, #1146 ) ;
#404 = AXIS2_PLACEMENT_3D ( 'NONE', #548, #1020, #165 ) ;
#405 = EDGE_CURVE ( 'NONE', #965, #27, #352, .T. ) ;
#406 = ORIENTED_EDGE ( 'NONE', *, *, #113, .T. ) ;
#407 = PRESENTATION_STYLE_ASSIGNMENT (( #870 ) ) ;
#408 = MECHANICAL_DESIGN_GEOMETRIC_PRESENTATION_REPRESENTATION (  '', ( #607 ), #1149 ) ;
#409 = ORIENTED_EDGE ( 'NONE', *, *, #1086, .T. ) ;
#410 = AXIS2_PLACEMENT_3D ( 'NONE', #823, #1199, #261 ) ;
#411 = CARTESIAN_POINT ( 'NONE',  ( 9.705441874764581352E-14, -5.375000000000000888, 0.2500000000000000000 ) ) ;
#412 = DIRECTION ( 'NONE',  ( 1.000000000000000000, 0.000000000000000000, 0.000000000000000000 ) ) ;
#413 = PRODUCT_DEFINITION_CONTEXT ( 'detailed design', #208, 'design' ) ;
#414 = SURFACE_SIDE_STYLE ('',( #499 ) ) ;
#415 = VERTEX_POINT ( 'NONE', #439 ) ;
#416 = EDGE_CURVE ( 'NONE', #1043, #1058, #834, .T. ) ;
#417 = CARTESIAN_POINT ( 'NONE',  ( 0.000000000000000000, 2.375000000000000000, 0.2500000000000000000 ) ) ;
#418 = FILL_AREA_STYLE ('',( #601 ) ) ;
#419 =( GEOMETRIC_REPRESENTATION_CONTEXT ( 3 ) GLOBAL_UNCERTAINTY_ASSIGNED_CONTEXT ( ( #875 ) ) GLOBAL_UNIT_ASSIGNED_CONTEXT ( ( #23, #1162, #1059 ) ) REPRESENTATION_CONTEXT ( 'NONE', 'WORKASPACE' ) );
#420 = CIRCLE ( 'NONE', #336, 0.1250000000000004441 ) ;
#421 = FACE_OUTER_BOUND ( 'NONE', #293, .T. ) ;
#422 = STYLED_ITEM ( 'NONE', ( #1151 ), #57 ) ;
#423 =( GEOMETRIC_REPRESENTATION_CONTEXT ( 3 ) GLOBAL_UNCERTAINTY_ASSIGNED_CONTEXT ( ( #705 ) ) GLOBAL_UNIT_ASSIGNED_CONTEXT ( ( #527, #218, #207 ) ) REPRESENTATION_CONTEXT ( 'NONE', 'WORKASPACE' ) );
#424 = EDGE_CURVE ( 'NONE', #536, #1058, #1145, .T. ) ;
#425 = SURFACE_SIDE_STYLE ('',( #1073 ) ) ;
#426 = LENGTH_MEASURE_WITH_UNIT ( LENGTH_MEASURE( 0.02539999999999999897 ), #871 );
#427 = AXIS2_PLACEMENT_3D ( 'NONE', #201, #668, #121 ) ;
#428 = ORIENTED_EDGE ( 'NONE', *, *, #373, .T. ) ;
#429 = PRESENTATION_LAYER_ASSIGNMENT (  '', '', ( #1029 ) ) ;
#430 = CYLINDRICAL_SURFACE ( 'NONE', #356, 0.5000000000001443290 ) ;
#431 = DIRECTION ( 'NONE',  ( 0.000000000000000000, 0.000000000000000000, 1.000000000000000000 ) ) ;
#432 = LENGTH_MEASURE_WITH_UNIT ( LENGTH_MEASURE( 0.02539999999999999897 ), #996 );
#433 = ORIENTED_EDGE ( 'NONE', *, *, #467, .F. ) ;
#434 = CARTESIAN_POINT ( 'NONE',  ( 0.5000000000000000000, 2.375000000000000000, 0.000000000000000000 ) ) ;
#435 = CARTESIAN_POINT ( 'NONE',  ( -5.374999999999952038, -4.918545702836461765E-14, 0.2500000000000000000 ) ) ;
#436 = COLOUR_RGB ( '',0.8588235294117646523, 0.8588235294117646523, 0.8588235294117646523 ) ;
#437 = EDGE_CURVE ( 'NONE', #217, #786, #457, .T. ) ;
#438 =( GEOMETRIC_REPRESENTATION_CONTEXT ( 3 ) GLOBAL_UNCERTAINTY_ASSIGNED_CONTEXT ( ( #963 ) ) GLOBAL_UNIT_ASSIGNED_CONTEXT ( ( #975, #225, #1060 ) ) REPRESENTATION_CONTEXT ( 'NONE', 'WORKASPACE' ) );
#439 = CARTESIAN_POINT ( 'NONE',  ( 0.1249999999999999306, 5.375000000000000888, 0.000000000000000000 ) ) ;
#440 = EDGE_LOOP ( 'NONE', ( #594, #708 ) ) ;
#441 = CIRCLE ( 'NONE', #759, 0.5000000000001078027 ) ;
#442 = SURFACE_SIDE_STYLE ('',( #355 ) ) ;
#443 = DIRECTION ( 'NONE',  ( -0.000000000000000000, -0.000000000000000000, -1.000000000000000000 ) ) ;
#444 = FILL_AREA_STYLE ('',( #812 ) ) ;
#445 = CARTESIAN_POINT ( 'NONE',  ( 0.000000000000000000, 0.000000000000000000, 0.000000000000000000 ) ) ;
#446 = ORIENTED_EDGE ( 'NONE', *, *, #568, .F. ) ;
#447 = MECHANICAL_DESIGN_GEOMETRIC_PRESENTATION_REPRESENTATION (  '', ( #309 ), #993 ) ;
#448 = DIRECTION ( 'NONE',  ( 1.000000000000000000, 0.000000000000000000, 0.000000000000000000 ) ) ;
#449 = PLANE ( 'NONE',  #932 ) ;
#450 = DIRECTION ( 'NONE',  ( 1.000000000000000000, 0.000000000000000000, 0.000000000000000000 ) ) ;
#451 = VERTEX_POINT ( 'NONE', #535 ) ;
#452 = EDGE_CURVE ( 'NONE', #775, #501, #533, .T. ) ;
#453 = DIRECTION ( 'NONE',  ( 1.000000000000000000, 0.000000000000000000, 0.000000000000000000 ) ) ;
#454 = AXIS2_PLACEMENT_3D ( 'NONE', #102, #471, #570 ) ;
#455 = ORIENTED_EDGE ( 'NONE', *, *, #295, .T. ) ;
#456 =( GEOMETRIC_REPRESENTATION_CONTEXT ( 3 ) GLOBAL_UNCERTAINTY_ASSIGNED_CONTEXT ( ( #1117 ) ) GLOBAL_UNIT_ASSIGNED_CONTEXT ( ( #773, #1084, #781 ) ) REPRESENTATION_CONTEXT ( 'NONE', 'WORKASPACE' ) );
#457 = CIRCLE ( 'NONE', #26, 0.5000000000001443290 ) ;
#458 = LINE ( 'NONE', #1016, #354 ) ;
#459 = CARTESIAN_POINT ( 'NONE',  ( -2.374999999999932943, -6.750155989720951766E-14, 0.2500000000000000000 ) ) ;
#460 = DIRECTION ( 'NONE',  ( 1.000000000000000000, 0.000000000000000000, 0.000000000000000000 ) ) ;
#461 = ORIENTED_EDGE ( 'NONE', *, *, #748, .F. ) ;
#462 = CYLINDRICAL_SURFACE ( 'NONE', #497, 0.1249999999999999306 ) ;
#463 = CARTESIAN_POINT ( 'NONE',  ( 0.1249999999999999306, 5.375000000000000888, 0.2500000000000000000 ) ) ;
#464 = DIRECTION ( 'NONE',  ( -1.000000000000000000, 0.000000000000000000, 0.000000000000000000 ) ) ;
#465 = DIRECTION ( 'NONE',  ( 1.000000000000000000, 0.000000000000000000, 0.000000000000000000 ) ) ;
#466 = CARTESIAN_POINT ( 'NONE',  ( 0.1300000000000000044, 1.592040838891559342E-17, 0.000000000000000000 ) ) ;
#467 = EDGE_CURVE ( 'NONE', #520, #542, #581, .T. ) ;
#468 = DIMENSIONAL_EXPONENTS ( 1.000000000000000000, 0.000000000000000000, 0.000000000000000000, 0.000000000000000000, 0.000000000000000000, 0.000000000000000000, 0.000000000000000000 ) ;
#469 = ORIENTED_EDGE ( 'NONE', *, *, #156, .F. ) ;
#470 = DIRECTION ( 'NONE',  ( 1.000000000000000000, 0.000000000000000000, 0.000000000000000000 ) ) ;
#471 = DIRECTION ( 'NONE',  ( 0.000000000000000000, 0.000000000000000000, 1.000000000000000000 ) ) ;
#472 = EDGE_LOOP ( 'NONE', ( #1103, #112 ) ) ;
#473 = COLOUR_RGB ( '',0.8588235294117646523, 0.8588235294117646523, 0.8588235294117646523 ) ;
#474 = CYLINDRICAL_SURFACE ( 'NONE', #1118, 0.1250000000000004441 ) ;
#475 = DIRECTION ( 'NONE',  ( -0.000000000000000000, -0.000000000000000000, -1.000000000000000000 ) ) ;
#476 = AXIS2_PLACEMENT_3D ( 'NONE', #417, #700, #609 ) ;
#477 = CIRCLE ( 'NONE', #1163, 0.1250000000000004441 ) ;
#478 = ORIENTED_EDGE ( 'NONE', *, *, #1141, .T. ) ;
#479 = DIRECTION ( 'NONE',  ( 0.000000000000000000, 0.000000000000000000, 1.000000000000000000 ) ) ;
#480 = ORIENTED_EDGE ( 'NONE', *, *, #1102, .F. ) ;
#481 = FILL_AREA_STYLE ('',( #362 ) ) ;
#482 = DIRECTION ( 'NONE',  ( -0.000000000000000000, -0.000000000000000000, -1.000000000000000000 ) ) ;
#483 =( CONVERSION_BASED_UNIT ( 'INCH', #200 ) LENGTH_UNIT ( ) NAMED_UNIT ( #755 ) );
#484 = STYLED_ITEM ( 'NONE', ( #1131 ), #804 ) ;
#485 = FACE_BOUND ( 'NONE', #213, .T. ) ;
#486 = VERTEX_POINT ( 'NONE', #264 ) ;
#487 = LENGTH_MEASURE_WITH_UNIT ( LENGTH_MEASURE( 0.02539999999999999897 ), #392 );
#488 = EDGE_CURVE ( 'NONE', #451, #520, #643, .T. ) ;
#489 = DIRECTION ( 'NONE',  ( -0.000000000000000000, -0.000000000000000000, -1.000000000000000000 ) ) ;
#490 = DIMENSIONAL_EXPONENTS ( 1.000000000000000000, 0.000000000000000000, 0.000000000000000000, 0.000000000000000000, 0.000000000000000000, 0.000000000000000000, 0.000000000000000000 ) ;
#491 = ORIENTED_EDGE ( 'NONE', *, *, #424, .F. ) ;
#492 = SURFACE_STYLE_FILL_AREA ( #957 ) ;
#493 =( NAMED_UNIT ( * ) PLANE_ANGLE_UNIT ( ) SI_UNIT ( $, .RADIAN. ) );
#494 = CIRCLE ( 'NONE', #1002, 0.1250000000000004441 ) ;
#495 = FILL_AREA_STYLE_COLOUR ( '', #811 ) ;
#496 = DIRECTION ( 'NONE',  ( 0.000000000000000000, 0.000000000000000000, 1.000000000000000000 ) ) ;
#497 = AXIS2_PLACEMENT_3D ( 'NONE', #1053, #502, #118 ) ;
#498 = UNCERTAINTY_MEASURE_WITH_UNIT (LENGTH_MEASURE( 1.000000000000000082E-05 ), #349, 'distance_accuracy_value', 'NONE');
#499 = SURFACE_STYLE_FILL_AREA ( #1166 ) ;
#500 = APPLICATION_CONTEXT ( 'automotive_design' ) ;
#501 = VERTEX_POINT ( 'NONE', #590 ) ;
#502 = DIRECTION ( 'NONE',  ( -0.000000000000000000, -0.000000000000000000, -1.000000000000000000 ) ) ;
#503 = FACE_OUTER_BOUND ( 'NONE', #339, .T. ) ;
#504 = SURFACE_STYLE_FILL_AREA ( #1158 ) ;
#505 =( NAMED_UNIT ( * ) SI_UNIT ( $, .STERADIAN. ) SOLID_ANGLE_UNIT ( ) );
#506 = SURFACE_STYLE_USAGE ( .BOTH. , #977 ) ;
#507 = ORIENTED_EDGE ( 'NONE', *, *, #327, .F. ) ;
#508 = EDGE_CURVE ( 'NONE', #316, #486, #800, .T. ) ;
#509 = PRESENTATION_LAYER_ASSIGNMENT (  '', '', ( #346 ) ) ;
#510 = LINE ( 'NONE', #44, #868 ) ;
#511 = PRODUCT_DEFINITION_FORMATION_WITH_SPECIFIED_SOURCE ( 'Symmetric', '', #272, .NOT_KNOWN. ) ;
#512 = FILL_AREA_STYLE_COLOUR ( '', #902 ) ;
#513 =( GEOMETRIC_REPRESENTATION_CONTEXT ( 3 ) GLOBAL_UNCERTAINTY_ASSIGNED_CONTEXT ( ( #990 ) ) GLOBAL_UNIT_ASSIGNED_CONTEXT ( ( #803, #493, #737 ) ) REPRESENTATION_CONTEXT ( 'NONE', 'WORKASPACE' ) );
#514 = CYLINDRICAL_SURFACE ( 'NONE', #175, 5.750000000000000000 ) ;
#515 = FACE_OUTER_BOUND ( 'NONE', #938, .T. ) ;
#516 = VECTOR ( 'NONE', #475, 39.37007874015748143 ) ;
#517 = PRESENTATION_LAYER_ASSIGNMENT (  '', '', ( #399 ) ) ;
#518 =( CONVERSION_BASED_UNIT ( 'INCH', #321 ) LENGTH_UNIT ( ) NAMED_UNIT ( #1121 ) );
#519 = MECHANICAL_DESIGN_GEOMETRIC_PRESENTATION_REPRESENTATION (  '', ( #780 ), #178 ) ;
#520 = VERTEX_POINT ( 'NONE', #840 ) ;
#521 =( CONVERSION_BASED_UNIT ( 'INCH', #905 ) LENGTH_UNIT ( ) NAMED_UNIT ( #119 ) );
#522 = DIRECTION ( 'NONE',  ( 0.000000000000000000, 0.000000000000000000, 1.000000000000000000 ) ) ;
#523 = AXIS2_PLACEMENT_3D ( 'NONE', #306, #41, #888 ) ;
#524 = VERTEX_POINT ( 'NONE', #8 ) ;
#525 =( NAMED_UNIT ( * ) PLANE_ANGLE_UNIT ( ) SI_UNIT ( $, .RADIAN. ) );
#526 = EDGE_CURVE ( 'NONE', #524, #786, #1119, .T. ) ;
#527 =( CONVERSION_BASED_UNIT ( 'INCH', #432 ) LENGTH_UNIT ( ) NAMED_UNIT ( #972 ) );
#528 = ORIENTED_EDGE ( 'NONE', *, *, #20, .F. ) ;
#529 =( CONVERSION_BASED_UNIT ( 'INCH', #1184 ) LENGTH_UNIT ( ) NAMED_UNIT ( #381 ) );
#530 = DIRECTION ( 'NONE',  ( -1.000000000000000000, 0.000000000000000000, 0.000000000000000000 ) ) ;
#531 = CARTESIAN_POINT ( 'NONE',  ( 1.875000000000014655, 6.721070628241202484E-14, 0.2500000000000000000 ) ) ;
#532 = ADVANCED_FACE ( 'NONE', ( #1027, #859, #187, #115, #485, #771, #1049, #1132, #296, #855 ), #279, .F. ) ;
#533 = CIRCLE ( 'NONE', #648, 0.1249999999999999306 ) ;
#534 = AXIS2_PLACEMENT_3D ( 'NONE', #40, #132, #605 ) ;
#535 = CARTESIAN_POINT ( 'NONE',  ( -0.1300000000000000044, 0.000000000000000000, 0.2500000000000000000 ) ) ;
#536 = VERTEX_POINT ( 'NONE', #764 ) ;
#537 = MECHANICAL_DESIGN_GEOMETRIC_PRESENTATION_REPRESENTATION (  '', ( #7 ), #698 ) ;
#538 = PRESENTATION_STYLE_ASSIGNMENT (( #625 ) ) ;
#539 = CARTESIAN_POINT ( 'NONE',  ( -5.249999999999952038, -4.917014894337527260E-14, 0.2500000000000000000 ) ) ;
#540 = FACE_OUTER_BOUND ( 'NONE', #1133, .T. ) ;
#541 = DIRECTION ( 'NONE',  ( 0.000000000000000000, 0.000000000000000000, 1.000000000000000000 ) ) ;
#542 = VERTEX_POINT ( 'NONE', #466 ) ;
#543 = EDGE_CURVE ( 'NONE', #361, #772, #777, .T. ) ;
#544 =( GEOMETRIC_REPRESENTATION_CONTEXT ( 3 ) GLOBAL_UNCERTAINTY_ASSIGNED_CONTEXT ( ( #1048 ) ) GLOBAL_UNIT_ASSIGNED_CONTEXT ( ( #379, #926, #752 ) ) REPRESENTATION_CONTEXT ( 'NONE', 'WORKASPACE' ) );
#545 = CARTESIAN_POINT ( 'NONE',  ( 2.375000000000067057, 6.721070628241202484E-14, 0.2500000000000000000 ) ) ;
#546 = CARTESIAN_POINT ( 'NONE',  ( 0.000000000000000000, 0.000000000000000000, 0.2500000000000000000 ) ) ;
#547 =( CONVERSION_BASED_UNIT ( 'INCH', #69 ) LENGTH_UNIT ( ) NAMED_UNIT ( #934 ) );
#548 = CARTESIAN_POINT ( 'NONE',  ( 0.000000000000000000, 0.000000000000000000, 0.2500000000000000000 ) ) ;
#549 = ORIENTED_EDGE ( 'NONE', *, *, #405, .T. ) ;
#550 = FACE_BOUND ( 'NONE', #877, .T. ) ;
#551 =( NAMED_UNIT ( * ) PLANE_ANGLE_UNIT ( ) SI_UNIT ( $, .RADIAN. ) );
#552 =( NAMED_UNIT ( * ) PLANE_ANGLE_UNIT ( ) SI_UNIT ( $, .RADIAN. ) );
#553 = AXIS2_PLACEMENT_3D ( 'NONE', #289, #865, #303 ) ;
#554 = EDGE_LOOP ( 'NONE', ( #237, #255, #491, #78 ) ) ;
#555 = VECTOR ( 'NONE', #1135, 39.37007874015748143 ) ;
#556 = COLOUR_RGB ( '',0.8588235294117646523, 0.8588235294117646523, 0.8588235294117646523 ) ;
#557 = VECTOR ( 'NONE', #1205, 39.37007874015748143 ) ;
#558 = CARTESIAN_POINT ( 'NONE',  ( -5.374999999999952038, -4.918545702836461765E-14, 0.2500000000000000000 ) ) ;
#559 = DIRECTION ( 'NONE',  ( 0.000000000000000000, 0.000000000000000000, 1.000000000000000000 ) ) ;
#560 = CARTESIAN_POINT ( 'NONE',  ( 0.000000000000000000, 0.000000000000000000, 0.2500000000000000000 ) ) ;
#561 = CARTESIAN_POINT ( 'NONE',  ( -0.5000000000000000000, 2.375000000000000000, 0.000000000000000000 ) ) ;
#562 = VERTEX_POINT ( 'NONE', #389 ) ;
#563 = PRESENTATION_LAYER_ASSIGNMENT (  '', '', ( #244 ) ) ;
#564 = SURFACE_STYLE_USAGE ( .BOTH. , #1128 ) ;
#565 = CARTESIAN_POINT ( 'NONE',  ( 2.875000000000119460, 6.727193862236940503E-14, 0.000000000000000000 ) ) ;
#566 = ORIENTED_EDGE ( 'NONE', *, *, #437, .T. ) ;
#567 = DIRECTION ( 'NONE',  ( -0.000000000000000000, -0.000000000000000000, -1.000000000000000000 ) ) ;
#568 = EDGE_CURVE ( 'NONE', #451, #1021, #966, .T. ) ;
#569 = CIRCLE ( 'NONE', #39, 0.5000000000001443290 ) ;
#570 = DIRECTION ( 'NONE',  ( 1.000000000000000000, 0.000000000000000000, 0.000000000000000000 ) ) ;
#571 = ORIENTED_EDGE ( 'NONE', *, *, #937, .F. ) ;
#572 = FILL_AREA_STYLE ('',( #760 ) ) ;
#573 = DIRECTION ( 'NONE',  ( 1.000000000000000000, 0.000000000000000000, 0.000000000000000000 ) ) ;
#574 = CARTESIAN_POINT ( 'NONE',  ( -0.1249999999999999306, 5.375000000000000888, 0.2500000000000000000 ) ) ;
#575 = LINE ( 'NONE', #1047, #742 ) ;
#576 = PRESENTATION_LAYER_ASSIGNMENT (  '', '', ( #45 ) ) ;
#577 = UNCERTAINTY_MEASURE_WITH_UNIT (LENGTH_MEASURE( 1.000000000000000082E-05 ), #980, 'distance_accuracy_value', 'NONE');
#578 = SURFACE_STYLE_FILL_AREA ( #1209 ) ;
#579 = ORIENTED_EDGE ( 'NONE', *, *, #768, .F. ) ;
#580 = AXIS2_PLACEMENT_3D ( 'NONE', #191, #559, #573 ) ;
#581 = CIRCLE ( 'NONE', #711, 0.1300000000000000044 ) ;
#582 = CIRCLE ( 'NONE', #322, 0.1250000000000004441 ) ;
#583 = COLOUR_RGB ( '',0.8588235294117646523, 0.8588235294117646523, 0.8588235294117646523 ) ;
#584 = ORIENTED_EDGE ( 'NONE', *, *, #1211, .T. ) ;
#585 = ADVANCED_FACE ( 'NONE', ( #371 ), #111, .F. ) ;
#586 = DIRECTION ( 'NONE',  ( 0.000000000000000000, 0.000000000000000000, 1.000000000000000000 ) ) ;
#587 = FILL_AREA_STYLE ('',( #330 ) ) ;
#588 =( NAMED_UNIT ( * ) PLANE_ANGLE_UNIT ( ) SI_UNIT ( $, .RADIAN. ) );
#589 = DIRECTION ( 'NONE',  ( 1.000000000000000000, 0.000000000000000000, 0.000000000000000000 ) ) ;
#590 = CARTESIAN_POINT ( 'NONE',  ( -0.1249999999999028832, -5.375000000000000888, 0.000000000000000000 ) ) ;
#591 = ORIENTED_EDGE ( 'NONE', *, *, #1069, .F. ) ;
#592 = DIMENSIONAL_EXPONENTS ( 1.000000000000000000, 0.000000000000000000, 0.000000000000000000, 0.000000000000000000, 0.000000000000000000, 0.000000000000000000, 0.000000000000000000 ) ;
#593 = LINE ( 'NONE', #1150, #1177 ) ;
#594 = ORIENTED_EDGE ( 'NONE', *, *, #978, .F. ) ;
#595 = SURFACE_SIDE_STYLE ('',( #148 ) ) ;
#596 = SURFACE_STYLE_USAGE ( .BOTH. , #878 ) ;
#597 = VECTOR ( 'NONE', #241, 39.37007874015748143 ) ;
#598 = STYLED_ITEM ( 'NONE', ( #1018 ), #43 ) ;
#599 = DIMENSIONAL_EXPONENTS ( 1.000000000000000000, 0.000000000000000000, 0.000000000000000000, 0.000000000000000000, 0.000000000000000000, 0.000000000000000000, 0.000000000000000000 ) ;
#600 = DIRECTION ( 'NONE',  ( 1.000000000000000000, 0.000000000000000000, 0.000000000000000000 ) ) ;
#601 = FILL_AREA_STYLE_COLOUR ( '', #151 ) ;
#602 = ADVANCED_FACE ( 'NONE', ( #421 ), #881, .F. ) ;
#603 = UNCERTAINTY_MEASURE_WITH_UNIT (LENGTH_MEASURE( 1.000000000000000082E-05 ), #976, 'distance_accuracy_value', 'NONE');
#604 = ORIENTED_EDGE ( 'NONE', *, *, #937, .T. ) ;
#605 = DIRECTION ( 'NONE',  ( -1.000000000000000000, 0.000000000000000000, 0.000000000000000000 ) ) ;
#606 = LENGTH_MEASURE_WITH_UNIT ( LENGTH_MEASURE( 0.02539999999999999897 ), #226 );
#607 = STYLED_ITEM ( 'NONE', ( #636 ), #690 ) ;
#608 = LENGTH_MEASURE_WITH_UNIT ( LENGTH_MEASURE( 0.02539999999999999897 ), #714 );
#609 = DIRECTION ( 'NONE',  ( 1.000000000000000000, 0.000000000000000000, 0.000000000000000000 ) ) ;
#610 =( NAMED_UNIT ( * ) PLANE_ANGLE_UNIT ( ) SI_UNIT ( $, .RADIAN. ) );
#611 = FILL_AREA_STYLE ('',( #67 ) ) ;
#612 = FILL_AREA_STYLE ('',( #222 ) ) ;
#613 = PRESENTATION_LAYER_ASSIGNMENT (  '', '', ( #673 ) ) ;
#614 = AXIS2_PLACEMENT_3D ( 'NONE', #912, #909, #827 ) ;
#615 = CYLINDRICAL_SURFACE ( 'NONE', #403, 0.5000000000001078027 ) ;
#616 = EDGE_LOOP ( 'NONE', ( #778, #584, #53, #621 ) ) ;
#617 = ADVANCED_FACE ( 'NONE', ( #802 ), #964, .F. ) ;
#618 = SURFACE_STYLE_FILL_AREA ( #1171 ) ;
#619 = CYLINDRICAL_SURFACE ( 'NONE', #427, 0.5000000000000000000 ) ;
#620 = CIRCLE ( 'NONE', #329, 5.750000000000000000 ) ;
#621 = ORIENTED_EDGE ( 'NONE', *, *, #35, .F. ) ;
#622 = FACE_OUTER_BOUND ( 'NONE', #1025, .T. ) ;
#623 = SURFACE_STYLE_USAGE ( .BOTH. , #1179 ) ;
#624 = EDGE_LOOP ( 'NONE', ( #205, #192 ) ) ;
#625 = SURFACE_STYLE_USAGE ( .BOTH. , #246 ) ;
#626 = DIRECTION ( 'NONE',  ( -0.000000000000000000, -0.000000000000000000, -1.000000000000000000 ) ) ;
#627 = SURFACE_STYLE_FILL_AREA ( #444 ) ;
#628 = MECHANICAL_DESIGN_GEOMETRIC_PRESENTATION_REPRESENTATION (  '', ( #1139 ), #419 ) ;
#629 = EDGE_CURVE ( 'NONE', #99, #536, #1100, .T. ) ;
#630 = MECHANICAL_DESIGN_GEOMETRIC_PRESENTATION_REPRESENTATION (  '', ( #1142 ), #650 ) ;
#631 = CYLINDRICAL_SURFACE ( 'NONE', #970, 5.750000000000000000 ) ;
#632 = ORIENTED_EDGE ( 'NONE', *, *, #1091, .T. ) ;
#633 = PRESENTATION_LAYER_ASSIGNMENT (  '', '', ( #736 ) ) ;
#634 = CYLINDRICAL_SURFACE ( 'NONE', #377, 0.5000000000000526246 ) ;
#635 = SURFACE_STYLE_USAGE ( .BOTH. , #335 ) ;
#636 = PRESENTATION_STYLE_ASSIGNMENT (( #61 ) ) ;
#637 =( NAMED_UNIT ( * ) SI_UNIT ( $, .STERADIAN. ) SOLID_ANGLE_UNIT ( ) );
#638 = VERTEX_POINT ( 'NONE', #1187 ) ;
#639 = AXIS2_PLACEMENT_3D ( 'NONE', #108, #479, #853 ) ;
#640 = SURFACE_STYLE_FILL_AREA ( #572 ) ;
#641 = CARTESIAN_POINT ( 'NONE',  ( 1.344214125648240244E-13, -2.375000000000000000, 0.2500000000000000000 ) ) ;
#642 = SURFACE_SIDE_STYLE ('',( #627 ) ) ;
#643 = LINE ( 'NONE', #1012, #754 ) ;
#644 = EDGE_LOOP ( 'NONE', ( #741, #1148 ) ) ;
#645 = DIRECTION ( 'NONE',  ( 0.000000000000000000, 0.000000000000000000, 1.000000000000000000 ) ) ;
#646 =( LENGTH_UNIT ( ) NAMED_UNIT ( * ) SI_UNIT ( $, .METRE. ) );
#647 = DIRECTION ( 'NONE',  ( 1.000000000000000000, 0.000000000000000000, 0.000000000000000000 ) ) ;
#648 = AXIS2_PLACEMENT_3D ( 'NONE', #1106, #903, #450 ) ;
#649 = EDGE_LOOP ( 'NONE', ( #566, #910 ) ) ;
#650 =( GEOMETRIC_REPRESENTATION_CONTEXT ( 3 ) GLOBAL_UNCERTAINTY_ASSIGNED_CONTEXT ( ( #854 ) ) GLOBAL_UNIT_ASSIGNED_CONTEXT ( ( #521, #161, #334 ) ) REPRESENTATION_CONTEXT ( 'NONE', 'WORKASPACE' ) );
#651 = MECHANICAL_DESIGN_GEOMETRIC_PRESENTATION_REPRESENTATION (  '', ( #986 ), #456 ) ;
#652 = EDGE_CURVE ( 'NONE', #348, #223, #298, .T. ) ;
#653 = CYLINDRICAL_SURFACE ( 'NONE', #160, 0.1250000000000004441 ) ;
#654 =( CONVERSION_BASED_UNIT ( 'INCH', #1045 ) LENGTH_UNIT ( ) NAMED_UNIT ( #30 ) );
#655 = ORIENTED_EDGE ( 'NONE', *, *, #652, .T. ) ;
#656 = SURFACE_STYLE_USAGE ( .BOTH. , #770 ) ;
#657 = SURFACE_STYLE_USAGE ( .BOTH. , #753 ) ;
#658 = ORIENTED_EDGE ( 'NONE', *, *, #526, .F. ) ;
#659 =( GEOMETRIC_REPRESENTATION_CONTEXT ( 3 ) GLOBAL_UNCERTAINTY_ASSIGNED_CONTEXT ( ( #603 ) ) GLOBAL_UNIT_ASSIGNED_CONTEXT ( ( #976, #1077, #795 ) ) REPRESENTATION_CONTEXT ( 'NONE', 'WORKASPACE' ) );
#660 = LENGTH_MEASURE_WITH_UNIT ( LENGTH_MEASURE( 0.02539999999999999897 ), #665 );
#661 = LINE ( 'NONE', #86, #731 ) ;
#662 = CARTESIAN_POINT ( 'NONE',  ( 5.375000000000048850, 4.852720937382291938E-14, 0.2500000000000000000 ) ) ;
#663 = DIRECTION ( 'NONE',  ( -0.000000000000000000, -0.000000000000000000, -1.000000000000000000 ) ) ;
#664 = ORIENTED_EDGE ( 'NONE', *, *, #897, .F. ) ;
#665 =( LENGTH_UNIT ( ) NAMED_UNIT ( * ) SI_UNIT ( $, .METRE. ) );
#666 = DIRECTION ( 'NONE',  ( 1.000000000000000000, 0.000000000000000000, 0.000000000000000000 ) ) ;
#667 = EDGE_LOOP ( 'NONE', ( #507, #1028 ) ) ;
#668 = DIRECTION ( 'NONE',  ( -0.000000000000000000, -0.000000000000000000, -1.000000000000000000 ) ) ;
#669 = UNCERTAINTY_MEASURE_WITH_UNIT (LENGTH_MEASURE( 1.000000000000000082E-05 ), #123, 'distance_accuracy_value', 'NONE');
#670 =( LENGTH_UNIT ( ) NAMED_UNIT ( * ) SI_UNIT ( $, .METRE. ) );
#671 = EDGE_CURVE ( 'NONE', #290, #332, #420, .T. ) ;
#672 = EDGE_LOOP ( 'NONE', ( #353, #271 ) ) ;
#673 = STYLED_ITEM ( 'NONE', ( #1070 ), #602 ) ;
#674 =( GEOMETRIC_REPRESENTATION_CONTEXT ( 3 ) GLOBAL_UNCERTAINTY_ASSIGNED_CONTEXT ( ( #314 ) ) GLOBAL_UNIT_ASSIGNED_CONTEXT ( ( #140, #1063, #703 ) ) REPRESENTATION_CONTEXT ( 'NONE', 'WORKASPACE' ) );
#675 = DIRECTION ( 'NONE',  ( 0.000000000000000000, 0.000000000000000000, 1.000000000000000000 ) ) ;
#676 =( NAMED_UNIT ( * ) SI_UNIT ( $, .STERADIAN. ) SOLID_ANGLE_UNIT ( ) );
#677 = COLOUR_RGB ( '',0.8588235294117646523, 0.8588235294117646523, 0.8588235294117646523 ) ;
#678 = CIRCLE ( 'NONE', #829, 0.1249999999999999306 ) ;
#679 = SURFACE_STYLE_FILL_AREA ( #769 ) ;
#680 = SURFACE_STYLE_FILL_AREA ( #180 ) ;
#681 = DIRECTION ( 'NONE',  ( -0.000000000000000000, -0.000000000000000000, -1.000000000000000000 ) ) ;
#682 = ORIENTED_EDGE ( 'NONE', *, *, #1183, .F. ) ;
#683 = FACE_OUTER_BOUND ( 'NONE', #42, .T. ) ;
#684 = AXIS2_PLACEMENT_3D ( 'NONE', #32, #1068, #692 ) ;
#685 = CARTESIAN_POINT ( 'NONE',  ( 0.5000000000002787770, -2.375000000000000000, 0.2500000000000000000 ) ) ;
#686 = MANIFOLD_SOLID_BREP ( 'Boss-Extrude1', #87 ) ;
#687 = ORIENTED_EDGE ( 'NONE', *, *, #359, .T. ) ;
#688 = SURFACE_STYLE_USAGE ( .BOTH. , #18 ) ;
#689 = LINE ( 'NONE', #318, #712 ) ;
#690 = ADVANCED_FACE ( 'NONE', ( #540 ), #619, .F. ) ;
#691 =( LENGTH_UNIT ( ) NAMED_UNIT ( * ) SI_UNIT ( $, .METRE. ) );
#692 = DIRECTION ( 'NONE',  ( 1.000000000000000000, 0.000000000000000000, 0.000000000000000000 ) ) ;
#693 = ORIENTED_EDGE ( 'NONE', *, *, #1183, .T. ) ;
#694 = DIRECTION ( 'NONE',  ( -0.000000000000000000, -0.000000000000000000, -1.000000000000000000 ) ) ;
#695 = PRESENTATION_LAYER_ASSIGNMENT (  '', '', ( #6 ) ) ;
#696 = CARTESIAN_POINT ( 'NONE',  ( 5.375000000000048850, 4.852720937382291938E-14, 0.2500000000000000000 ) ) ;
#697 = DIRECTION ( 'NONE',  ( 1.000000000000000000, 0.000000000000000000, 0.000000000000000000 ) ) ;
#698 =( GEOMETRIC_REPRESENTATION_CONTEXT ( 3 ) GLOBAL_UNCERTAINTY_ASSIGNED_CONTEXT ( ( #109 ) ) GLOBAL_UNIT_ASSIGNED_CONTEXT ( ( #383, #1, #274 ) ) REPRESENTATION_CONTEXT ( 'NONE', 'WORKASPACE' ) );
#699 = ORIENTED_EDGE ( 'NONE', *, *, #1102, .T. ) ;
#700 = DIRECTION ( 'NONE',  ( 0.000000000000000000, 0.000000000000000000, 1.000000000000000000 ) ) ;
#701 = FACE_OUTER_BOUND ( 'NONE', #747, .T. ) ;
#702 = MECHANICAL_DESIGN_GEOMETRIC_PRESENTATION_REPRESENTATION (  '', ( #244 ), #659 ) ;
#703 =( NAMED_UNIT ( * ) SI_UNIT ( $, .STERADIAN. ) SOLID_ANGLE_UNIT ( ) );
#704 = SURFACE_STYLE_FILL_AREA ( #587 ) ;
#705 = UNCERTAINTY_MEASURE_WITH_UNIT (LENGTH_MEASURE( 1.000000000000000082E-05 ), #527, 'distance_accuracy_value', 'NONE');
#706 =( LENGTH_UNIT ( ) NAMED_UNIT ( * ) SI_UNIT ( $, .METRE. ) );
#707 = EDGE_CURVE ( 'NONE', #332, #762, #1115, .T. ) ;
#708 = ORIENTED_EDGE ( 'NONE', *, *, #1091, .F. ) ;
#709 = FILL_AREA_STYLE ('',( #55 ) ) ;
#710 = FILL_AREA_STYLE_COLOUR ( '', #343 ) ;
#711 = AXIS2_PLACEMENT_3D ( 'NONE', #445, #818, #360 ) ;
#712 = VECTOR ( 'NONE', #694, 39.37007874015748143 ) ;
#713 = CIRCLE ( 'NONE', #476, 0.5000000000000000000 ) ;
#714 =( LENGTH_UNIT ( ) NAMED_UNIT ( * ) SI_UNIT ( $, .METRE. ) );
#715 = AXIS2_PLACEMENT_3D ( 'NONE', #250, #1003, #647 ) ;
#716 = ORIENTED_EDGE ( 'NONE', *, *, #884, .T. ) ;
#717 = SURFACE_STYLE_USAGE ( .BOTH. , #240 ) ;
#718 = DIRECTION ( 'NONE',  ( 0.000000000000000000, 0.000000000000000000, 1.000000000000000000 ) ) ;
#719 = AXIS2_PLACEMENT_3D ( 'NONE', #820, #1193, #152 ) ;
#720 = FILL_AREA_STYLE ('',( #270 ) ) ;
#721 = ORIENTED_EDGE ( 'NONE', *, *, #488, .T. ) ;
#722 = SHAPE_DEFINITION_REPRESENTATION ( #1096, #919 ) ;
#723 = VECTOR ( 'NONE', #726, 39.37007874015748143 ) ;
#724 = EDGE_CURVE ( 'NONE', #158, #762, #169, .T. ) ;
#725 = CARTESIAN_POINT ( 'NONE',  ( 9.705441874764581352E-14, -5.375000000000000888, 0.000000000000000000 ) ) ;
#726 = DIRECTION ( 'NONE',  ( -0.000000000000000000, -0.000000000000000000, -1.000000000000000000 ) ) ;
#727 = ORIENTED_EDGE ( 'NONE', *, *, #978, .T. ) ;
#728 = PRESENTATION_STYLE_ASSIGNMENT (( #635 ) ) ;
#729 = EDGE_CURVE ( 'NONE', #756, #27, #1127, .T. ) ;
#730 = SURFACE_STYLE_FILL_AREA ( #163 ) ;
#731 = VECTOR ( 'NONE', #831, 39.37007874015748143 ) ;
#732 =( GEOMETRIC_REPRESENTATION_CONTEXT ( 3 ) GLOBAL_UNCERTAINTY_ASSIGNED_CONTEXT ( ( #577 ) ) GLOBAL_UNIT_ASSIGNED_CONTEXT ( ( #980, #58, #263 ) ) REPRESENTATION_CONTEXT ( 'NONE', 'WORKASPACE' ) );
#733 = CIRCLE ( 'NONE', #202, 0.1249999999999999306 ) ;
#734 = SURFACE_STYLE_USAGE ( .BOTH. , #1094 ) ;
#735 = VERTEX_POINT ( 'NONE', #210 ) ;
#736 = STYLED_ITEM ( 'NONE', ( #843 ), #232 ) ;
#737 =( NAMED_UNIT ( * ) SI_UNIT ( $, .STERADIAN. ) SOLID_ANGLE_UNIT ( ) );
#738 = LENGTH_MEASURE_WITH_UNIT ( LENGTH_MEASURE( 0.02539999999999999897 ), #1093 );
#739 = DIRECTION ( 'NONE',  ( -1.000000000000000000, 0.000000000000000000, 0.000000000000000000 ) ) ;
#740 = CARTESIAN_POINT ( 'NONE',  ( -5.499999999999952927, -4.918545702836461765E-14, 0.2500000000000000000 ) ) ;
#741 = ORIENTED_EDGE ( 'NONE', *, *, #467, .T. ) ;
#742 = VECTOR ( 'NONE', #955, 39.37007874015748143 ) ;
#743 =( NAMED_UNIT ( * ) PLANE_ANGLE_UNIT ( ) SI_UNIT ( $, .RADIAN. ) );
#744 = LINE ( 'NONE', #1032, #516 ) ;
#745 = CARTESIAN_POINT ( 'NONE',  ( 0.5000000000002787770, -2.375000000000000000, 0.000000000000000000 ) ) ;
#746 = CARTESIAN_POINT ( 'NONE',  ( -0.5000000000000000000, 2.375000000000000000, 0.2500000000000000000 ) ) ;
#747 = EDGE_LOOP ( 'NONE', ( #727, #370, #1206, #860 ) ) ;
#748 = EDGE_CURVE ( 'NONE', #735, #765, #620, .T. ) ;
#749 = DIRECTION ( 'NONE',  ( -1.000000000000000000, 0.000000000000000000, 0.000000000000000000 ) ) ;
#750 =( LENGTH_UNIT ( ) NAMED_UNIT ( * ) SI_UNIT ( $, .METRE. ) );
#751 = CYLINDRICAL_SURFACE ( 'NONE', #534, 0.1249999999999999306 ) ;
#752 =( NAMED_UNIT ( * ) SI_UNIT ( $, .STERADIAN. ) SOLID_ANGLE_UNIT ( ) );
#753 = SURFACE_SIDE_STYLE ('',( #578 ) ) ;
#754 = VECTOR ( 'NONE', #681, 39.37007874015748143 ) ;
#755 = DIMENSIONAL_EXPONENTS ( 1.000000000000000000, 0.000000000000000000, 0.000000000000000000, 0.000000000000000000, 0.000000000000000000, 0.000000000000000000, 0.000000000000000000 ) ;
#756 = VERTEX_POINT ( 'NONE', #941 ) ;
#757 =( GEOMETRIC_REPRESENTATION_CONTEXT ( 3 ) GLOBAL_UNCERTAINTY_ASSIGNED_CONTEXT ( ( #788 ) ) GLOBAL_UNIT_ASSIGNED_CONTEXT ( ( #483, #551, #365 ) ) REPRESENTATION_CONTEXT ( 'NONE', 'WORKASPACE' ) );
#758 = EDGE_CURVE ( 'NONE', #562, #1143, #974, .T. ) ;
#759 = AXIS2_PLACEMENT_3D ( 'NONE', #893, #586, #242 ) ;
#760 = FILL_AREA_STYLE_COLOUR ( '', #1066 ) ;
#761 = DIRECTION ( 'NONE',  ( 0.000000000000000000, 0.000000000000000000, 1.000000000000000000 ) ) ;
#762 = VERTEX_POINT ( 'NONE', #395 ) ;
#763 = FILL_AREA_STYLE_COLOUR ( '', #1005 ) ;
#764 = CARTESIAN_POINT ( 'NONE',  ( 1.875000000000014655, 6.721070628241202484E-14, 0.000000000000000000 ) ) ;
#765 = VERTEX_POINT ( 'NONE', #300 ) ;
#766 = DIMENSIONAL_EXPONENTS ( 1.000000000000000000, 0.000000000000000000, 0.000000000000000000, 0.000000000000000000, 0.000000000000000000, 0.000000000000000000, 0.000000000000000000 ) ;
#767 = DIRECTION ( 'NONE',  ( 0.000000000000000000, 0.000000000000000000, 1.000000000000000000 ) ) ;
#768 = EDGE_CURVE ( 'NONE', #290, #158, #1136, .T. ) ;
#769 = FILL_AREA_STYLE ('',( #378 ) ) ;
#770 = SURFACE_SIDE_STYLE ('',( #680 ) ) ;
#771 = FACE_BOUND ( 'NONE', #672, .T. ) ;
#772 = VERTEX_POINT ( 'NONE', #561 ) ;
#773 =( CONVERSION_BASED_UNIT ( 'INCH', #487 ) LENGTH_UNIT ( ) NAMED_UNIT ( #766 ) );
#774 = PRESENTATION_STYLE_ASSIGNMENT (( #369 ) ) ;
#775 = VERTEX_POINT ( 'NONE', #839 ) ;
#776 = UNCERTAINTY_MEASURE_WITH_UNIT (LENGTH_MEASURE( 1.000000000000000082E-05 ), #529, 'distance_accuracy_value', 'NONE');
#777 = LINE ( 'NONE', #936, #235 ) ;
#778 = ORIENTED_EDGE ( 'NONE', *, *, #758, .T. ) ;
#779 = PRESENTATION_LAYER_ASSIGNMENT (  '', '', ( #1139 ) ) ;
#780 = STYLED_ITEM ( 'NONE', ( #146 ), #164 ) ;
#781 =( NAMED_UNIT ( * ) SI_UNIT ( $, .STERADIAN. ) SOLID_ANGLE_UNIT ( ) );
#782 =( NAMED_UNIT ( * ) SI_UNIT ( $, .STERADIAN. ) SOLID_ANGLE_UNIT ( ) );
#783 = CIRCLE ( 'NONE', #404, 0.1300000000000000044 ) ;
#784 =( NAMED_UNIT ( * ) PLANE_ANGLE_UNIT ( ) SI_UNIT ( $, .RADIAN. ) );
#785 = DIMENSIONAL_EXPONENTS ( 1.000000000000000000, 0.000000000000000000, 0.000000000000000000, 0.000000000000000000, 0.000000000000000000, 0.000000000000000000, 0.000000000000000000 ) ;
#786 = VERTEX_POINT ( 'NONE', #745 ) ;
#787 = CARTESIAN_POINT ( 'NONE',  ( 5.500000000000048850, 4.854251745881226443E-14, 0.2500000000000000000 ) ) ;
#788 = UNCERTAINTY_MEASURE_WITH_UNIT (LENGTH_MEASURE( 1.000000000000000082E-05 ), #483, 'distance_accuracy_value', 'NONE');
#789 = FILL_AREA_STYLE ('',( #512 ) ) ;
#790 = MECHANICAL_DESIGN_GEOMETRIC_PRESENTATION_REPRESENTATION (  '', ( #1029 ), #930 ) ;
#791 = ORIENTED_EDGE ( 'NONE', *, *, #20, .T. ) ;
#792 = FILL_AREA_STYLE_COLOUR ( '', #50 ) ;
#793 = LENGTH_MEASURE_WITH_UNIT ( LENGTH_MEASURE( 0.02539999999999999897 ), #398 );
#794 = DIRECTION ( 'NONE',  ( -1.000000000000000000, 0.000000000000000000, 0.000000000000000000 ) ) ;
#795 =( NAMED_UNIT ( * ) SI_UNIT ( $, .STERADIAN. ) SOLID_ANGLE_UNIT ( ) );
#796 = SURFACE_STYLE_USAGE ( .BOTH. , #414 ) ;
#797 = ORIENTED_EDGE ( 'NONE', *, *, #220, .T. ) ;
#798 = VECTOR ( 'NONE', #482, 39.37007874015748143 ) ;
#799 = LINE ( 'NONE', #861, #83 ) ;
#800 = CIRCLE ( 'NONE', #454, 5.750000000000000000 ) ;
#801 = PRESENTATION_LAYER_ASSIGNMENT (  '', '', ( #1142 ) ) ;
#802 = FACE_OUTER_BOUND ( 'NONE', #394, .T. ) ;
#803 =( CONVERSION_BASED_UNIT ( 'INCH', #883 ) LENGTH_UNIT ( ) NAMED_UNIT ( #284 ) );
#804 = ADVANCED_FACE ( 'NONE', ( #287 ), #1026, .F. ) ;
#805 = ORIENTED_EDGE ( 'NONE', *, *, #999, .F. ) ;
#806 = FILL_AREA_STYLE_COLOUR ( '', #1031 ) ;
#807 = EDGE_CURVE ( 'NONE', #822, #217, #575, .T. ) ;
#808 = ORIENTED_EDGE ( 'NONE', *, *, #283, .T. ) ;
#809 = FACE_OUTER_BOUND ( 'NONE', #828, .T. ) ;
#810 = MECHANICAL_DESIGN_GEOMETRIC_PRESENTATION_REPRESENTATION (  '', ( #399 ), #674 ) ;
#811 = COLOUR_RGB ( '',0.8588235294117646523, 0.8588235294117646523, 0.8588235294117646523 ) ;
#812 = FILL_AREA_STYLE_COLOUR ( '', #436 ) ;
#813 = ORIENTED_EDGE ( 'NONE', *, *, #1069, .T. ) ;
#814 = EDGE_CURVE ( 'NONE', #772, #184, #1186, .T. ) ;
#815 = CARTESIAN_POINT ( 'NONE',  ( 9.705441874764581352E-14, -5.375000000000000888, 0.2500000000000000000 ) ) ;
#816 = SURFACE_STYLE_USAGE ( .BOTH. , #642 ) ;
#817 = COLOUR_RGB ( '',0.8588235294117646523, 0.8588235294117646523, 0.8588235294117646523 ) ;
#818 = DIRECTION ( 'NONE',  ( 0.000000000000000000, 0.000000000000000000, 1.000000000000000000 ) ) ;
#819 = ORIENTED_EDGE ( 'NONE', *, *, #758, .F. ) ;
#820 = CARTESIAN_POINT ( 'NONE',  ( 1.344214125648240244E-13, -2.375000000000000000, 0.2500000000000000000 ) ) ;
#821 = PRESENTATION_STYLE_ASSIGNMENT (( #734 ) ) ;
#822 = VERTEX_POINT ( 'NONE', #216 ) ;
#823 = CARTESIAN_POINT ( 'NONE',  ( 0.000000000000000000, 5.375000000000000888, 0.000000000000000000 ) ) ;
#824 = PRESENTATION_LAYER_ASSIGNMENT (  '', '', ( #917 ) ) ;
#825 = CIRCLE ( 'NONE', #918, 0.1249999999999999306 ) ;
#826 = COLOUR_RGB ( '',0.8588235294117646523, 0.8588235294117646523, 0.8588235294117646523 ) ;
#827 = DIRECTION ( 'NONE',  ( 1.000000000000000000, 0.000000000000000000, 0.000000000000000000 ) ) ;
#828 = EDGE_LOOP ( 'NONE', ( #385, #308, #433, #91 ) ) ;
#829 = AXIS2_PLACEMENT_3D ( 'NONE', #11, #767, #830 ) ;
#830 = DIRECTION ( 'NONE',  ( 1.000000000000000000, 0.000000000000000000, 0.000000000000000000 ) ) ;
#831 = DIRECTION ( 'NONE',  ( -0.000000000000000000, -0.000000000000000000, -1.000000000000000000 ) ) ;
#832 =( NAMED_UNIT ( * ) PLANE_ANGLE_UNIT ( ) SI_UNIT ( $, .RADIAN. ) );
#833 = EDGE_CURVE ( 'NONE', #542, #520, #836, .T. ) ;
#834 = LINE ( 'NONE', #1006, #557 ) ;
#835 = ORIENTED_EDGE ( 'NONE', *, *, #543, .F. ) ;
#836 = CIRCLE ( 'NONE', #185, 0.1300000000000000044 ) ;
#837 =( LENGTH_UNIT ( ) NAMED_UNIT ( * ) SI_UNIT ( $, .METRE. ) );
#838 = FACE_OUTER_BOUND ( 'NONE', #297, .T. ) ;
#839 = CARTESIAN_POINT ( 'NONE',  ( 0.1250000000000969780, -5.375000000000000888, 0.000000000000000000 ) ) ;
#840 = CARTESIAN_POINT ( 'NONE',  ( -0.1300000000000000044, 0.000000000000000000, 0.000000000000000000 ) ) ;
#841 = ORIENTED_EDGE ( 'NONE', *, *, #1112, .T. ) ;
#842 = DIMENSIONAL_EXPONENTS ( 1.000000000000000000, 0.000000000000000000, 0.000000000000000000, 0.000000000000000000, 0.000000000000000000, 0.000000000000000000, 0.000000000000000000 ) ;
#843 = PRESENTATION_STYLE_ASSIGNMENT (( #281 ) ) ;
#844 =( LENGTH_UNIT ( ) NAMED_UNIT ( * ) SI_UNIT ( $, .METRE. ) );
#845 = ORIENTED_EDGE ( 'NONE', *, *, #95, .T. ) ;
#846 = DIRECTION ( 'NONE',  ( 1.000000000000000000, 0.000000000000000000, 0.000000000000000000 ) ) ;
#847 = LENGTH_MEASURE_WITH_UNIT ( LENGTH_MEASURE( 0.02539999999999999897 ), #670 );
#848 = ORIENTED_EDGE ( 'NONE', *, *, #101, .F. ) ;
#849 = AXIS2_PLACEMENT_3D ( 'NONE', #815, #79, #453 ) ;
#850 = EDGE_CURVE ( 'NONE', #486, #316, #1071, .T. ) ;
#851 = CARTESIAN_POINT ( 'NONE',  ( -5.374999999999952038, -4.918545702836461765E-14, 0.2500000000000000000 ) ) ;
#852 = DIRECTION ( 'NONE',  ( 0.000000000000000000, 0.000000000000000000, 1.000000000000000000 ) ) ;
#853 = DIRECTION ( 'NONE',  ( 1.000000000000000000, 0.000000000000000000, 0.000000000000000000 ) ) ;
#854 = UNCERTAINTY_MEASURE_WITH_UNIT (LENGTH_MEASURE( 1.000000000000000082E-05 ), #521, 'distance_accuracy_value', 'NONE');
#855 = FACE_BOUND ( 'NONE', #63, .T. ) ;
#856 = ORIENTED_EDGE ( 'NONE', *, *, #405, .F. ) ;
#857 = SURFACE_SIDE_STYLE ('',( #357 ) ) ;
#858 = FILL_AREA_STYLE_COLOUR ( '', #142 ) ;
#859 = FACE_BOUND ( 'NONE', #624, .T. ) ;
#860 = ORIENTED_EDGE ( 'NONE', *, *, #807, .F. ) ;
#861 = CARTESIAN_POINT ( 'NONE',  ( 0.1249999999999999306, 5.375000000000000888, 0.2500000000000000000 ) ) ;
#862 = SURFACE_STYLE_USAGE ( .BOTH. , #51 ) ;
#863 = CARTESIAN_POINT ( 'NONE',  ( 0.000000000000000000, 0.000000000000000000, 0.2500000000000000000 ) ) ;
#864 = UNCERTAINTY_MEASURE_WITH_UNIT (LENGTH_MEASURE( 1.000000000000000082E-05 ), #38, 'distance_accuracy_value', 'NONE');
#865 = DIRECTION ( 'NONE',  ( 0.000000000000000000, 0.000000000000000000, 1.000000000000000000 ) ) ;
#866 = ORIENTED_EDGE ( 'NONE', *, *, #1008, .T. ) ;
#867 =( GEOMETRIC_REPRESENTATION_CONTEXT ( 3 ) GLOBAL_UNCERTAINTY_ASSIGNED_CONTEXT ( ( #1062 ) ) GLOBAL_UNIT_ASSIGNED_CONTEXT ( ( #518, #610, #227 ) ) REPRESENTATION_CONTEXT ( 'NONE', 'WORKASPACE' ) );
#868 = VECTOR ( 'NONE', #324, 39.37007874015748143 ) ;
#869 = PRESENTATION_LAYER_ASSIGNMENT (  '', '', ( #598 ) ) ;
#870 = SURFACE_STYLE_USAGE ( .BOTH. , #209 ) ;
#871 =( LENGTH_UNIT ( ) NAMED_UNIT ( * ) SI_UNIT ( $, .METRE. ) );
#872 = ADVANCED_FACE ( 'NONE', ( #313 ), #880, .F. ) ;
#873 = ORIENTED_EDGE ( 'NONE', *, *, #295, .F. ) ;
#874 = PRESENTATION_STYLE_ASSIGNMENT (( #1134 ) ) ;
#875 = UNCERTAINTY_MEASURE_WITH_UNIT (LENGTH_MEASURE( 1.000000000000000082E-05 ), #23, 'distance_accuracy_value', 'NONE');
#876 = AXIS2_PLACEMENT_3D ( 'NONE', #247, #171, #56 ) ;
#877 = EDGE_LOOP ( 'NONE', ( #819, #922 ) ) ;
#878 = SURFACE_SIDE_STYLE ('',( #704 ) ) ;
#879 = DIRECTION ( 'NONE',  ( 0.000000000000000000, 0.000000000000000000, 1.000000000000000000 ) ) ;
#880 = CYLINDRICAL_SURFACE ( 'NONE', #36, 0.5000000000000000000 ) ;
#881 = CYLINDRICAL_SURFACE ( 'NONE', #374, 0.5000000000001078027 ) ;
#882 = CIRCLE ( 'NONE', #580, 5.750000000000000000 ) ;
#883 = LENGTH_MEASURE_WITH_UNIT ( LENGTH_MEASURE( 0.02539999999999999897 ), #958 );
#884 = EDGE_CURVE ( 'NONE', #762, #158, #1052, .T. ) ;
#885 = MECHANICAL_DESIGN_GEOMETRIC_PRESENTATION_REPRESENTATION (  '', ( #1098 ), #1113 ) ;
#886 = PRESENTATION_LAYER_ASSIGNMENT (  '', '', ( #780 ) ) ;
#887 =( LENGTH_UNIT ( ) NAMED_UNIT ( * ) SI_UNIT ( $, .METRE. ) );
#888 = DIRECTION ( 'NONE',  ( 1.000000000000000000, 0.000000000000000000, 0.000000000000000000 ) ) ;
#889 = EDGE_LOOP ( 'NONE', ( #1000, #699 ) ) ;
#890 = APPLICATION_PROTOCOL_DEFINITION ( 'draft international standard', 'automotive_design', 1998, #500 ) ;
#891 = DIRECTION ( 'NONE',  ( -1.000000000000000000, 0.000000000000000000, 0.000000000000000000 ) ) ;
#892 =( CONVERSION_BASED_UNIT ( 'INCH', #52 ) LENGTH_UNIT ( ) NAMED_UNIT ( #960 ) );
#893 = CARTESIAN_POINT ( 'NONE',  ( -2.374999999999932943, -6.750155989720951766E-14, 0.2500000000000000000 ) ) ;
#894 = ORIENTED_EDGE ( 'NONE', *, *, #850, .T. ) ;
#895 = DIRECTION ( 'NONE',  ( 0.000000000000000000, 0.000000000000000000, 1.000000000000000000 ) ) ;
#896 = DIRECTION ( 'NONE',  ( 1.000000000000000000, 0.000000000000000000, -0.000000000000000000 ) ) ;
#897 = EDGE_CURVE ( 'NONE', #786, #217, #364, .T. ) ;
#898 = DIRECTION ( 'NONE',  ( -0.000000000000000000, -0.000000000000000000, -1.000000000000000000 ) ) ;
#899 = EDGE_LOOP ( 'NONE', ( #446, #251 ) ) ;
#900 = CARTESIAN_POINT ( 'NONE',  ( 9.705441874764581352E-14, -5.375000000000000888, 0.2500000000000000000 ) ) ;
#901 = FACE_BOUND ( 'NONE', #1107, .T. ) ;
#902 = COLOUR_RGB ( '',0.8588235294117646523, 0.8588235294117646523, 0.8588235294117646523 ) ;
#903 = DIRECTION ( 'NONE',  ( 0.000000000000000000, 0.000000000000000000, 1.000000000000000000 ) ) ;
#904 = ORIENTED_EDGE ( 'NONE', *, *, #156, .T. ) ;
#905 = LENGTH_MEASURE_WITH_UNIT ( LENGTH_MEASURE( 0.02539999999999999897 ), #1001 );
#906 = FACE_BOUND ( 'NONE', #667, .T. ) ;
#907 = CARTESIAN_POINT ( 'NONE',  ( 0.000000000000000000, 5.375000000000000888, 0.2500000000000000000 ) ) ;
#908 = AXIS2_PLACEMENT_3D ( 'NONE', #21, #94, #465 ) ;
#909 = DIRECTION ( 'NONE',  ( 0.000000000000000000, 0.000000000000000000, 1.000000000000000000 ) ) ;
#910 = ORIENTED_EDGE ( 'NONE', *, *, #897, .T. ) ;
#911 = CARTESIAN_POINT ( 'NONE',  ( -5.499999999999952927, -4.918545702836461765E-14, 0.000000000000000000 ) ) ;
#912 = CARTESIAN_POINT ( 'NONE',  ( 2.375000000000067057, 6.721070628241202484E-14, 0.000000000000000000 ) ) ;
#913 = VERTEX_POINT ( 'NONE', #1061 ) ;
#914 = ADVANCED_FACE ( 'NONE', ( #701 ), #46, .F. ) ;
#915 = DIRECTION ( 'NONE',  ( -0.000000000000000000, -0.000000000000000000, -1.000000000000000000 ) ) ;
#916 = DIRECTION ( 'NONE',  ( 0.000000000000000000, 0.000000000000000000, 1.000000000000000000 ) ) ;
#917 = STYLED_ITEM ( 'NONE', ( #979 ), #1174 ) ;
#918 = AXIS2_PLACEMENT_3D ( 'NONE', #900, #987, #1076 ) ;
#919 = ADVANCED_BREP_SHAPE_REPRESENTATION ( 'BearingPlateLarge', ( #686, #10 ), #513 ) ;
#920 = CIRCLE ( 'NONE', #1101, 0.1250000000000004441 ) ;
#921 = CARTESIAN_POINT ( 'NONE',  ( 0.000000000000000000, 0.000000000000000000, 0.2500000000000000000 ) ) ;
#922 = ORIENTED_EDGE ( 'NONE', *, *, #1075, .F. ) ;
#923 = CIRCLE ( 'NONE', #28, 0.5000000000000522915 ) ;
#924 = FACE_OUTER_BOUND ( 'NONE', #616, .T. ) ;
#925 = FACE_OUTER_BOUND ( 'NONE', #952, .T. ) ;
#926 =( NAMED_UNIT ( * ) PLANE_ANGLE_UNIT ( ) SI_UNIT ( $, .RADIAN. ) );
#927 = FILL_AREA_STYLE ('',( #15 ) ) ;
#928 = EDGE_LOOP ( 'NONE', ( #478, #5, #1160, #835 ) ) ;
#929 = VECTOR ( 'NONE', #626, 39.37007874015748143 ) ;
#930 =( GEOMETRIC_REPRESENTATION_CONTEXT ( 3 ) GLOBAL_UNCERTAINTY_ASSIGNED_CONTEXT ( ( #133 ) ) GLOBAL_UNIT_ASSIGNED_CONTEXT ( ( #1104, #525, #168 ) ) REPRESENTATION_CONTEXT ( 'NONE', 'WORKASPACE' ) );
#931 = DIRECTION ( 'NONE',  ( -0.000000000000000000, -0.000000000000000000, -1.000000000000000000 ) ) ;
#932 = AXIS2_PLACEMENT_3D ( 'NONE', #546, #431, #896 ) ;
#933 = CARTESIAN_POINT ( 'NONE',  ( 0.1250000000000969780, -5.375000000000000888, 0.2500000000000000000 ) ) ;
#934 = DIMENSIONAL_EXPONENTS ( 1.000000000000000000, 0.000000000000000000, 0.000000000000000000, 0.000000000000000000, 0.000000000000000000, 0.000000000000000000, 0.000000000000000000 ) ;
#935 = CARTESIAN_POINT ( 'NONE',  ( 5.250000000000047962, 4.852720937382291938E-14, 0.2500000000000000000 ) ) ;
#936 = CARTESIAN_POINT ( 'NONE',  ( -0.5000000000000000000, 2.375000000000000000, 0.2500000000000000000 ) ) ;
#937 = EDGE_CURVE ( 'NONE', #223, #913, #74, .T. ) ;
#938 = EDGE_LOOP ( 'NONE', ( #1085, #195, #409, #166 ) ) ;
#939 = LINE ( 'NONE', #933, #798 ) ;
#940 = CYLINDRICAL_SURFACE ( 'NONE', #1019, 0.1300000000000000044 ) ;
#941 = CARTESIAN_POINT ( 'NONE',  ( -2.875000000000040856, -6.750155989720951766E-14, 0.000000000000000000 ) ) ;
#942 = CIRCLE ( 'NONE', #337, 0.5000000000000000000 ) ;
#943 = PRESENTATION_STYLE_ASSIGNMENT (( #657 ) ) ;
#944 = AXIS2_PLACEMENT_3D ( 'NONE', #907, #358, #739 ) ;
#945 = ORIENTED_EDGE ( 'NONE', *, *, #724, .F. ) ;
#946 = ADVANCED_FACE ( 'NONE', ( #992, #1088, #257, #80, #162, #550, #901, #68, #906, #1082 ), #449, .T. ) ;
#947 = MECHANICAL_DESIGN_GEOMETRIC_PRESENTATION_REPRESENTATION (  '', ( #598 ), #757 ) ;
#948 = MECHANICAL_DESIGN_GEOMETRIC_PRESENTATION_REPRESENTATION (  '', ( #66 ), #423 ) ;
#949 = CYLINDRICAL_SURFACE ( 'NONE', #85, 0.1250000000000004441 ) ;
#950 = ORIENTED_EDGE ( 'NONE', *, *, #416, .F. ) ;
#951 =( NAMED_UNIT ( * ) SI_UNIT ( $, .STERADIAN. ) SOLID_ANGLE_UNIT ( ) );
#952 = EDGE_LOOP ( 'NONE', ( #1210, #285, #721, #96 ) ) ;
#953 = COLOUR_RGB ( '',0.8588235294117646523, 0.8588235294117646523, 0.8588235294117646523 ) ;
#954 = DIRECTION ( 'NONE',  ( -0.000000000000000000, -0.000000000000000000, -1.000000000000000000 ) ) ;
#955 = DIRECTION ( 'NONE',  ( -0.000000000000000000, -0.000000000000000000, -1.000000000000000000 ) ) ;
#956 = VERTEX_POINT ( 'NONE', #911 ) ;
#957 = FILL_AREA_STYLE ('',( #792 ) ) ;
#958 =( LENGTH_UNIT ( ) NAMED_UNIT ( * ) SI_UNIT ( $, .METRE. ) );
#959 = EDGE_CURVE ( 'NONE', #1120, #415, #1090, .T. ) ;
#960 = DIMENSIONAL_EXPONENTS ( 1.000000000000000000, 0.000000000000000000, 0.000000000000000000, 0.000000000000000000, 0.000000000000000000, 0.000000000000000000, 0.000000000000000000 ) ;
#961 = DIRECTION ( 'NONE',  ( 1.000000000000000000, 0.000000000000000000, 0.000000000000000000 ) ) ;
#962 = DIRECTION ( 'NONE',  ( -0.000000000000000000, -0.000000000000000000, -1.000000000000000000 ) ) ;
#963 = UNCERTAINTY_MEASURE_WITH_UNIT (LENGTH_MEASURE( 1.000000000000000082E-05 ), #975, 'distance_accuracy_value', 'NONE');
#964 = CYLINDRICAL_SURFACE ( 'NONE', #944, 0.1249999999999999306 ) ;
#965 = VERTEX_POINT ( 'NONE', #345 ) ;
#966 = CIRCLE ( 'NONE', #553, 0.1300000000000000044 ) ;
#967 = COLOUR_RGB ( '',0.8588235294117646523, 0.8588235294117646523, 0.8588235294117646523 ) ;
#968 = DIRECTION ( 'NONE',  ( -0.000000000000000000, -0.000000000000000000, -1.000000000000000000 ) ) ;
#969 = DIRECTION ( 'NONE',  ( -1.000000000000000000, 0.000000000000000000, 0.000000000000000000 ) ) ;
#970 = AXIS2_PLACEMENT_3D ( 'NONE', #921, #82, #1110 ) ;
#971 =( LENGTH_UNIT ( ) NAMED_UNIT ( * ) SI_UNIT ( $, .METRE. ) );
#972 = DIMENSIONAL_EXPONENTS ( 1.000000000000000000, 0.000000000000000000, 0.000000000000000000, 0.000000000000000000, 0.000000000000000000, 0.000000000000000000, 0.000000000000000000 ) ;
#973 = ORIENTED_EDGE ( 'NONE', *, *, #220, .F. ) ;
#974 = CIRCLE ( 'NONE', #117, 0.1249999999999999306 ) ;
#975 =( CONVERSION_BASED_UNIT ( 'INCH', #1164 ) LENGTH_UNIT ( ) NAMED_UNIT ( #224 ) );
#976 =( CONVERSION_BASED_UNIT ( 'INCH', #606 ) LENGTH_UNIT ( ) NAMED_UNIT ( #785 ) );
#977 = SURFACE_SIDE_STYLE ('',( #315 ) ) ;
#978 = EDGE_CURVE ( 'NONE', #822, #524, #569, .T. ) ;
#979 = PRESENTATION_STYLE_ASSIGNMENT (( #596 ) ) ;
#980 =( CONVERSION_BASED_UNIT ( 'INCH', #426 ) LENGTH_UNIT ( ) NAMED_UNIT ( #16 ) );
#981 = ORIENTED_EDGE ( 'NONE', *, *, #424, .T. ) ;
#982 = PRESENTATION_LAYER_ASSIGNMENT (  '', '', ( #1098 ) ) ;
#983 = COLOUR_RGB ( '',0.8588235294117646523, 0.8588235294117646523, 0.8588235294117646523 ) ;
#984 =( LENGTH_UNIT ( ) NAMED_UNIT ( * ) SI_UNIT ( $, .METRE. ) );
#985 = COLOUR_RGB ( '',0.8588235294117646523, 0.8588235294117646523, 0.8588235294117646523 ) ;
#986 = STYLED_ITEM ( 'NONE', ( #1154 ), #310 ) ;
#987 = DIRECTION ( 'NONE',  ( 0.000000000000000000, 0.000000000000000000, 1.000000000000000000 ) ) ;
#988 = CARTESIAN_POINT ( 'NONE',  ( 0.000000000000000000, 2.375000000000000000, 0.2500000000000000000 ) ) ;
#989 = MECHANICAL_DESIGN_GEOMETRIC_PRESENTATION_REPRESENTATION (  '', ( #736 ), #302 ) ;
#990 = UNCERTAINTY_MEASURE_WITH_UNIT (LENGTH_MEASURE( 1.000000000000000082E-05 ), #803, 'distance_accuracy_value', 'NONE');
#991 = ORIENTED_EDGE ( 'NONE', *, *, #707, .F. ) ;
#992 = FACE_BOUND ( 'NONE', #440, .T. ) ;
#993 =( GEOMETRIC_REPRESENTATION_CONTEXT ( 3 ) GLOBAL_UNCERTAINTY_ASSIGNED_CONTEXT ( ( #1034 ) ) GLOBAL_UNIT_ASSIGNED_CONTEXT ( ( #892, #1169, #505 ) ) REPRESENTATION_CONTEXT ( 'NONE', 'WORKASPACE' ) );
#994 = PRESENTATION_LAYER_ASSIGNMENT (  '', '', ( #309 ) ) ;
#995 =( NAMED_UNIT ( * ) SI_UNIT ( $, .STERADIAN. ) SOLID_ANGLE_UNIT ( ) );
#996 =( LENGTH_UNIT ( ) NAMED_UNIT ( * ) SI_UNIT ( $, .METRE. ) );
#997 = ORIENTED_EDGE ( 'NONE', *, *, #629, .T. ) ;
#998 = SURFACE_STYLE_FILL_AREA ( #709 ) ;
#999 = EDGE_CURVE ( 'NONE', #765, #486, #1010, .T. ) ;
#1000 = ORIENTED_EDGE ( 'NONE', *, *, #748, .T. ) ;
#1001 =( LENGTH_UNIT ( ) NAMED_UNIT ( * ) SI_UNIT ( $, .METRE. ) );
#1002 = AXIS2_PLACEMENT_3D ( 'NONE', #230, #879, #961 ) ;
#1003 = DIRECTION ( 'NONE',  ( 0.000000000000000000, 0.000000000000000000, 1.000000000000000000 ) ) ;
#1004 = ORIENTED_EDGE ( 'NONE', *, *, #1191, .T. ) ;
#1005 = COLOUR_RGB ( '',0.8588235294117646523, 0.8588235294117646523, 0.8588235294117646523 ) ;
#1006 = CARTESIAN_POINT ( 'NONE',  ( 2.875000000000119460, 6.727193862236940503E-14, 0.2500000000000000000 ) ) ;
#1007 = EDGE_LOOP ( 'NONE', ( #265, #170 ) ) ;
#1008 = EDGE_CURVE ( 'NONE', #1058, #536, #189, .T. ) ;
#1009 = PRESENTATION_STYLE_ASSIGNMENT (( #564 ) ) ;
#1010 = LINE ( 'NONE', #60, #723 ) ;
#1011 = DIRECTION ( 'NONE',  ( 1.000000000000000000, 0.000000000000000000, 0.000000000000000000 ) ) ;
#1012 = CARTESIAN_POINT ( 'NONE',  ( -0.1300000000000000044, 0.000000000000000000, 0.2500000000000000000 ) ) ;
#1013 = ORIENTED_EDGE ( 'NONE', *, *, #283, .F. ) ;
#1014 = ADVANCED_FACE ( 'NONE', ( #809 ), #155, .F. ) ;
#1015 = DIRECTION ( 'NONE',  ( -1.000000000000000000, 0.000000000000000000, 0.000000000000000000 ) ) ;
#1016 = CARTESIAN_POINT ( 'NONE',  ( 0.5000000000000000000, 2.375000000000000000, 0.2500000000000000000 ) ) ;
#1017 =( GEOMETRIC_REPRESENTATION_CONTEXT ( 3 ) GLOBAL_UNCERTAINTY_ASSIGNED_CONTEXT ( ( #669 ) ) GLOBAL_UNIT_ASSIGNED_CONTEXT ( ( #123, #784, #951 ) ) REPRESENTATION_CONTEXT ( 'NONE', 'WORKASPACE' ) );
#1018 = PRESENTATION_STYLE_ASSIGNMENT (( #1203 ) ) ;
#1019 = AXIS2_PLACEMENT_3D ( 'NONE', #560, #93, #464 ) ;
#1020 = DIRECTION ( 'NONE',  ( 0.000000000000000000, 0.000000000000000000, 1.000000000000000000 ) ) ;
#1021 = VERTEX_POINT ( 'NONE', #275 ) ;
#1022 = CARTESIAN_POINT ( 'NONE',  ( -0.5000000000000099920, -2.375000000000000000, 0.000000000000000000 ) ) ;
#1023 = PRESENTATION_STYLE_ASSIGNMENT (( #623 ) ) ;
#1024 = EDGE_CURVE ( 'NONE', #103, #184, #458, .T. ) ;
#1025 = EDGE_LOOP ( 'NONE', ( #950, #428, #997, #1050 ) ) ;
#1026 = CYLINDRICAL_SURFACE ( 'NONE', #286, 0.1250000000000004441 ) ;
#1027 = FACE_OUTER_BOUND ( 'NONE', #1189, .T. ) ;
#1028 = ORIENTED_EDGE ( 'NONE', *, *, #373, .F. ) ;
#1029 = STYLED_ITEM ( 'NONE', ( #728 ), #946 ) ;
#1030 =( CONVERSION_BASED_UNIT ( 'INCH', #660 ) LENGTH_UNIT ( ) NAMED_UNIT ( #212 ) );
#1031 = COLOUR_RGB ( '',0.8588235294117646523, 0.8588235294117646523, 0.8588235294117646523 ) ;
#1032 = CARTESIAN_POINT ( 'NONE',  ( -0.1249999999999028832, -5.375000000000000888, 0.2500000000000000000 ) ) ;
#1033 = DIRECTION ( 'NONE',  ( -0.000000000000000000, -0.000000000000000000, -1.000000000000000000 ) ) ;
#1034 = UNCERTAINTY_MEASURE_WITH_UNIT (LENGTH_MEASURE( 1.000000000000000082E-05 ), #892, 'distance_accuracy_value', 'NONE');
#1035 = DIRECTION ( 'NONE',  ( 0.000000000000000000, 0.000000000000000000, 1.000000000000000000 ) ) ;
#1036 = ORIENTED_EDGE ( 'NONE', *, *, #266, .F. ) ;
#1037 = DIRECTION ( 'NONE',  ( -1.000000000000000000, 0.000000000000000000, 0.000000000000000000 ) ) ;
#1038 =( LENGTH_UNIT ( ) NAMED_UNIT ( * ) SI_UNIT ( $, .METRE. ) );
#1039 = DIRECTION ( 'NONE',  ( 0.000000000000000000, 0.000000000000000000, 1.000000000000000000 ) ) ;
#1040 = AXIS2_PLACEMENT_3D ( 'NONE', #1108, #761, #92 ) ;
#1041 = SURFACE_STYLE_USAGE ( .BOTH. , #1125 ) ;
#1042 = PRESENTATION_LAYER_ASSIGNMENT (  '', '', ( #1065 ) ) ;
#1043 = VERTEX_POINT ( 'NONE', #104 ) ;
#1044 = FILL_AREA_STYLE_COLOUR ( '', #583 ) ;
#1045 = LENGTH_MEASURE_WITH_UNIT ( LENGTH_MEASURE( 0.02539999999999999897 ), #844 );
#1046 = DIMENSIONAL_EXPONENTS ( 1.000000000000000000, 0.000000000000000000, 0.000000000000000000, 0.000000000000000000, 0.000000000000000000, 0.000000000000000000, 0.000000000000000000 ) ;
#1047 = CARTESIAN_POINT ( 'NONE',  ( -0.5000000000000099920, -2.375000000000000000, 0.2500000000000000000 ) ) ;
#1048 = UNCERTAINTY_MEASURE_WITH_UNIT (LENGTH_MEASURE( 1.000000000000000082E-05 ), #379, 'distance_accuracy_value', 'NONE');
#1049 = FACE_BOUND ( 'NONE', #644, .T. ) ;
#1050 = ORIENTED_EDGE ( 'NONE', *, *, #1008, .F. ) ;
#1051 = EDGE_CURVE ( 'NONE', #1021, #542, #661, .T. ) ;
#1052 = CIRCLE ( 'NONE', #136, 0.1250000000000004441 ) ;
#1053 = CARTESIAN_POINT ( 'NONE',  ( 0.000000000000000000, 5.375000000000000888, 0.2500000000000000000 ) ) ;
#1054 =( NAMED_UNIT ( * ) PLANE_ANGLE_UNIT ( ) SI_UNIT ( $, .RADIAN. ) );
#1055 = CARTESIAN_POINT ( 'NONE',  ( 1.875000000000014655, 6.721070628241202484E-14, 0.2500000000000000000 ) ) ;
#1056 = CARTESIAN_POINT ( 'NONE',  ( 5.375000000000048850, 4.852720937382291938E-14, 0.000000000000000000 ) ) ;
#1057 = DIMENSIONAL_EXPONENTS ( 1.000000000000000000, 0.000000000000000000, 0.000000000000000000, 0.000000000000000000, 0.000000000000000000, 0.000000000000000000, 0.000000000000000000 ) ;
#1058 = VERTEX_POINT ( 'NONE', #565 ) ;
#1059 =( NAMED_UNIT ( * ) SI_UNIT ( $, .STERADIAN. ) SOLID_ANGLE_UNIT ( ) );
#1060 =( NAMED_UNIT ( * ) SI_UNIT ( $, .STERADIAN. ) SOLID_ANGLE_UNIT ( ) );
#1061 = CARTESIAN_POINT ( 'NONE',  ( -5.249999999999952038, -4.917014894337527260E-14, 0.000000000000000000 ) ) ;
#1062 = UNCERTAINTY_MEASURE_WITH_UNIT (LENGTH_MEASURE( 1.000000000000000082E-05 ), #518, 'distance_accuracy_value', 'NONE');
#1063 =( NAMED_UNIT ( * ) PLANE_ANGLE_UNIT ( ) SI_UNIT ( $, .RADIAN. ) );
#1064 = ORIENTED_EDGE ( 'NONE', *, *, #508, .T. ) ;
#1065 = STYLED_ITEM ( 'NONE', ( #204 ), #532 ) ;
#1066 = COLOUR_RGB ( '',0.8588235294117646523, 0.8588235294117646523, 0.8588235294117646523 ) ;
#1067 = DIRECTION ( 'NONE',  ( 0.000000000000000000, 0.000000000000000000, 1.000000000000000000 ) ) ;
#1068 = DIRECTION ( 'NONE',  ( 0.000000000000000000, 0.000000000000000000, 1.000000000000000000 ) ) ;
#1069 = EDGE_CURVE ( 'NONE', #184, #772, #198, .T. ) ;
#1070 = PRESENTATION_STYLE_ASSIGNMENT (( #506 ) ) ;
#1071 = CIRCLE ( 'NONE', #523, 5.750000000000000000 ) ;
#1072 =( NAMED_UNIT ( * ) SI_UNIT ( $, .STERADIAN. ) SOLID_ANGLE_UNIT ( ) );
#1073 = SURFACE_STYLE_FILL_AREA ( #418 ) ;
#1074 = PRESENTATION_STYLE_ASSIGNMENT (( #796 ) ) ;
#1075 = EDGE_CURVE ( 'NONE', #1143, #562, #105, .T. ) ;
#1076 = DIRECTION ( 'NONE',  ( 1.000000000000000000, 0.000000000000000000, 0.000000000000000000 ) ) ;
#1077 =( NAMED_UNIT ( * ) PLANE_ANGLE_UNIT ( ) SI_UNIT ( $, .RADIAN. ) );
#1078 = CARTESIAN_POINT ( 'NONE',  ( -2.374999999999932943, -6.750155989720951766E-14, 0.2500000000000000000 ) ) ;
#1079 =( GEOMETRIC_REPRESENTATION_CONTEXT ( 3 ) GLOBAL_UNCERTAINTY_ASSIGNED_CONTEXT ( ( #864 ) ) GLOBAL_UNIT_ASSIGNED_CONTEXT ( ( #38, #1054, #782 ) ) REPRESENTATION_CONTEXT ( 'NONE', 'WORKASPACE' ) );
#1080 = APPLICATION_PROTOCOL_DEFINITION ( 'draft international standard', 'automotive_design', 1998, #208 ) ;
#1081 = MECHANICAL_DESIGN_GEOMETRIC_PRESENTATION_REPRESENTATION (  '', ( #131 ), #179 ) ;
#1082 = FACE_BOUND ( 'NONE', #397, .T. ) ;
#1083 = VECTOR ( 'NONE', #898, 39.37007874015748143 ) ;
#1084 =( NAMED_UNIT ( * ) PLANE_ANGLE_UNIT ( ) SI_UNIT ( $, .RADIAN. ) );
#1085 = ORIENTED_EDGE ( 'NONE', *, *, #1112, .F. ) ;
#1086 = EDGE_CURVE ( 'NONE', #84, #501, #744, .T. ) ;
#1087 =( LENGTH_UNIT ( ) NAMED_UNIT ( * ) SI_UNIT ( $, .METRE. ) );
#1088 = FACE_BOUND ( 'NONE', #899, .T. ) ;
#1089 =( LENGTH_UNIT ( ) NAMED_UNIT ( * ) SI_UNIT ( $, .METRE. ) );
#1090 = CIRCLE ( 'NONE', #410, 0.1249999999999999306 ) ;
#1091 = EDGE_CURVE ( 'NONE', #524, #822, #48, .T. ) ;
#1092 = DIRECTION ( 'NONE',  ( 0.000000000000000000, 0.000000000000000000, 1.000000000000000000 ) ) ;
#1093 =( LENGTH_UNIT ( ) NAMED_UNIT ( * ) SI_UNIT ( $, .METRE. ) );
#1094 = SURFACE_SIDE_STYLE ('',( #70 ) ) ;
#1095 = ORIENTED_EDGE ( 'NONE', *, *, #884, .F. ) ;
#1096 = PRODUCT_DEFINITION_SHAPE ( 'NONE', 'NONE',  #206 ) ;
#1097 = SURFACE_STYLE_FILL_AREA ( #350 ) ;
#1098 = STYLED_ITEM ( 'NONE', ( #173 ), #686 ) ;
#1099 = MECHANICAL_DESIGN_GEOMETRIC_PRESENTATION_REPRESENTATION (  '', ( #422 ), #438 ) ;
#1100 = LINE ( 'NONE', #531, #597 ) ;
#1101 = AXIS2_PLACEMENT_3D ( 'NONE', #29, #675, #37 ) ;
#1102 = EDGE_CURVE ( 'NONE', #765, #735, #882, .T. ) ;
#1103 = ORIENTED_EDGE ( 'NONE', *, *, #1141, .F. ) ;
#1104 =( CONVERSION_BASED_UNIT ( 'INCH', #738 ) LENGTH_UNIT ( ) NAMED_UNIT ( #1057 ) );
#1105 =( LENGTH_UNIT ( ) NAMED_UNIT ( * ) SI_UNIT ( $, .METRE. ) );
#1106 = CARTESIAN_POINT ( 'NONE',  ( 9.705441874764581352E-14, -5.375000000000000888, 0.000000000000000000 ) ) ;
#1107 = EDGE_LOOP ( 'NONE', ( #1196, #368 ) ) ;
#1108 = CARTESIAN_POINT ( 'NONE',  ( 1.344214125648240244E-13, -2.375000000000000000, 0.2500000000000000000 ) ) ;
#1109 = CARTESIAN_POINT ( 'NONE',  ( 5.375000000000048850, 4.852720937382291938E-14, 0.000000000000000000 ) ) ;
#1110 = DIRECTION ( 'NONE',  ( -1.000000000000000000, 0.000000000000000000, 0.000000000000000000 ) ) ;
#1111 = ORIENTED_EDGE ( 'NONE', *, *, #814, .T. ) ;
#1112 = EDGE_CURVE ( 'NONE', #638, #775, #939, .T. ) ;
#1113 =( GEOMETRIC_REPRESENTATION_CONTEXT ( 3 ) GLOBAL_UNCERTAINTY_ASSIGNED_CONTEXT ( ( #288 ) ) GLOBAL_UNIT_ASSIGNED_CONTEXT ( ( #249, #832, #340 ) ) REPRESENTATION_CONTEXT ( 'NONE', 'WORKASPACE' ) );
#1114 = FILL_AREA_STYLE_COLOUR ( '', #985 ) ;
#1115 = LINE ( 'NONE', #935, #228 ) ;
#1116 = AXIS2_PLACEMENT_3D ( 'NONE', #411, #489, #794 ) ;
#1117 = UNCERTAINTY_MEASURE_WITH_UNIT (LENGTH_MEASURE( 1.000000000000000082E-05 ), #773, 'distance_accuracy_value', 'NONE');
#1118 = AXIS2_PLACEMENT_3D ( 'NONE', #851, #915, #1015 ) ;
#1119 = LINE ( 'NONE', #685, #1138 ) ;
#1120 = VERTEX_POINT ( 'NONE', #267 ) ;
#1121 = DIMENSIONAL_EXPONENTS ( 1.000000000000000000, 0.000000000000000000, 0.000000000000000000, 0.000000000000000000, 0.000000000000000000, 0.000000000000000000, 0.000000000000000000 ) ;
#1122 = DIRECTION ( 'NONE',  ( 0.000000000000000000, 0.000000000000000000, 1.000000000000000000 ) ) ;
#1123 = DIRECTION ( 'NONE',  ( 1.000000000000000000, 0.000000000000000000, 0.000000000000000000 ) ) ;
#1124 = CARTESIAN_POINT ( 'NONE',  ( 0.000000000000000000, 5.375000000000000888, 0.2500000000000000000 ) ) ;
#1125 = SURFACE_SIDE_STYLE ('',( #380 ) ) ;
#1126 = ORIENTED_EDGE ( 'NONE', *, *, #1024, .F. ) ;
#1127 = CIRCLE ( 'NONE', #908, 0.5000000000001078027 ) ;
#1128 = SURFACE_SIDE_STYLE ('',( #640 ) ) ;
#1129 = DIRECTION ( 'NONE',  ( -0.000000000000000000, -0.000000000000000000, -1.000000000000000000 ) ) ;
#1130 = SURFACE_SIDE_STYLE ('',( #679 ) ) ;
#1131 = PRESENTATION_STYLE_ASSIGNMENT (( #656 ) ) ;
#1132 = FACE_BOUND ( 'NONE', #22, .T. ) ;
#1133 = EDGE_LOOP ( 'NONE', ( #1126, #406, #182, #591 ) ) ;
#1134 = SURFACE_STYLE_USAGE ( .BOTH. , #595 ) ;
#1135 = DIRECTION ( 'NONE',  ( -0.000000000000000000, -0.000000000000000000, -1.000000000000000000 ) ) ;
#1136 = LINE ( 'NONE', #24, #262 ) ;
#1137 =( GEOMETRIC_REPRESENTATION_CONTEXT ( 3 ) GLOBAL_UNCERTAINTY_ASSIGNED_CONTEXT ( ( #301 ) ) GLOBAL_UNIT_ASSIGNED_CONTEXT ( ( #654, #292, #676 ) ) REPRESENTATION_CONTEXT ( 'NONE', 'WORKASPACE' ) );
#1138 = VECTOR ( 'NONE', #663, 39.37007874015748143 ) ;
#1139 = STYLED_ITEM ( 'NONE', ( #774 ), #1156 ) ;
#1140 = DIRECTION ( 'NONE',  ( -0.000000000000000000, -0.000000000000000000, -1.000000000000000000 ) ) ;
#1141 = EDGE_CURVE ( 'NONE', #361, #103, #942, .T. ) ;
#1142 = STYLED_ITEM ( 'NONE', ( #538 ), #127 ) ;
#1143 = VERTEX_POINT ( 'NONE', #463 ) ;
#1144 = CIRCLE ( 'NONE', #849, 0.1249999999999999306 ) ;
#1145 = CIRCLE ( 'NONE', #614, 0.5000000000000522915 ) ;
#1146 = DIRECTION ( 'NONE',  ( -1.000000000000000000, 0.000000000000000000, 0.000000000000000000 ) ) ;
#1147 = DIRECTION ( 'NONE',  ( -0.000000000000000000, -0.000000000000000000, -1.000000000000000000 ) ) ;
#1148 = ORIENTED_EDGE ( 'NONE', *, *, #833, .T. ) ;
#1149 =( GEOMETRIC_REPRESENTATION_CONTEXT ( 3 ) GLOBAL_UNCERTAINTY_ASSIGNED_CONTEXT ( ( #388 ) ) GLOBAL_UNIT_ASSIGNED_CONTEXT ( ( #547, #81, #995 ) ) REPRESENTATION_CONTEXT ( 'NONE', 'WORKASPACE' ) );
#1150 = CARTESIAN_POINT ( 'NONE',  ( -5.499999999999952927, -4.918545702836461765E-14, 0.2500000000000000000 ) ) ;
#1151 = PRESENTATION_STYLE_ASSIGNMENT (( #862 ) ) ;
#1152 = CARTESIAN_POINT ( 'NONE',  ( 2.375000000000067057, 6.721070628241202484E-14, 0.2500000000000000000 ) ) ;
#1153 = ORIENTED_EDGE ( 'NONE', *, *, #850, .F. ) ;
#1154 = PRESENTATION_STYLE_ASSIGNMENT (( #688 ) ) ;
#1155 = CARTESIAN_POINT ( 'NONE',  ( 0.000000000000000000, 0.000000000000000000, 0.2500000000000000000 ) ) ;
#1156 = ADVANCED_FACE ( 'NONE', ( #2 ), #949, .F. ) ;
#1157 = DIMENSIONAL_EXPONENTS ( 1.000000000000000000, 0.000000000000000000, 0.000000000000000000, 0.000000000000000000, 0.000000000000000000, 0.000000000000000000, 0.000000000000000000 ) ;
#1158 = FILL_AREA_STYLE ('',( #495 ) ) ;
#1159 = DIRECTION ( 'NONE',  ( -1.000000000000000000, 0.000000000000000000, 0.000000000000000000 ) ) ;
#1160 = ORIENTED_EDGE ( 'NONE', *, *, #814, .F. ) ;
#1161 = PRESENTATION_LAYER_ASSIGNMENT (  '', '', ( #320 ) ) ;
#1162 =( NAMED_UNIT ( * ) PLANE_ANGLE_UNIT ( ) SI_UNIT ( $, .RADIAN. ) );
#1163 = AXIS2_PLACEMENT_3D ( 'NONE', #558, #1122, #97 ) ;
#1164 = LENGTH_MEASURE_WITH_UNIT ( LENGTH_MEASURE( 0.02539999999999999897 ), #691 );
#1165 = SURFACE_SIDE_STYLE ('',( #319 ) ) ;
#1166 = FILL_AREA_STYLE ('',( #328 ) ) ;
#1167 = MECHANICAL_DESIGN_GEOMETRIC_PRESENTATION_REPRESENTATION (  '', ( #484 ), #544 ) ;
#1168 = SURFACE_STYLE_FILL_AREA ( #401 ) ;
#1169 =( NAMED_UNIT ( * ) PLANE_ANGLE_UNIT ( ) SI_UNIT ( $, .RADIAN. ) );
#1170 = VERTEX_POINT ( 'NONE', #229 ) ;
#1171 = FILL_AREA_STYLE ('',( #806 ) ) ;
#1172 = DIRECTION ( 'NONE',  ( -0.000000000000000000, -0.000000000000000000, -1.000000000000000000 ) ) ;
#1173 = COLOUR_RGB ( '',0.8941176470588234615, 0.8941176470588234615, 0.8941176470588234615 ) ;
#1174 = ADVANCED_FACE ( 'NONE', ( #503 ), #514, .T. ) ;
#1175 = ORIENTED_EDGE ( 'NONE', *, *, #671, .T. ) ;
#1176 = AXIS2_PLACEMENT_3D ( 'NONE', #459, #916, #470 ) ;
#1177 = VECTOR ( 'NONE', #968, 39.37007874015748143 ) ;
#1178 = CARTESIAN_POINT ( 'NONE',  ( 1.344214125648240244E-13, -2.375000000000000000, 0.2500000000000000000 ) ) ;
#1179 = SURFACE_SIDE_STYLE ('',( #618 ) ) ;
#1180 = CARTESIAN_POINT ( 'NONE',  ( 5.375000000000048850, 4.852720937382291938E-14, 0.2500000000000000000 ) ) ;
#1181 = DIRECTION ( 'NONE',  ( 1.000000000000000000, 0.000000000000000000, 0.000000000000000000 ) ) ;
#1182 = ORIENTED_EDGE ( 'NONE', *, *, #729, .T. ) ;
#1183 = EDGE_CURVE ( 'NONE', #1170, #756, #689, .T. ) ;
#1184 = LENGTH_MEASURE_WITH_UNIT ( LENGTH_MEASURE( 0.02539999999999999897 ), #984 );
#1185 = DIRECTION ( 'NONE',  ( -0.000000000000000000, -0.000000000000000000, -1.000000000000000000 ) ) ;
#1186 = CIRCLE ( 'NONE', #639, 0.5000000000000000000 ) ;
#1187 = CARTESIAN_POINT ( 'NONE',  ( 0.1250000000000969780, -5.375000000000000888, 0.2500000000000000000 ) ) ;
#1188 = LENGTH_MEASURE_WITH_UNIT ( LENGTH_MEASURE( 0.02539999999999999897 ), #254 );
#1189 = EDGE_LOOP ( 'NONE', ( #1202, #1153 ) ) ;
#1190 = CARTESIAN_POINT ( 'NONE',  ( 0.000000000000000000, 0.000000000000000000, 0.000000000000000000 ) ) ;
#1191 = EDGE_CURVE ( 'NONE', #735, #316, #510, .T. ) ;
#1192 = LENGTH_MEASURE_WITH_UNIT ( LENGTH_MEASURE( 0.02539999999999999897 ), #1087 );
#1193 = DIRECTION ( 'NONE',  ( -0.000000000000000000, -0.000000000000000000, -1.000000000000000000 ) ) ;
#1194 = DIRECTION ( 'NONE',  ( 0.000000000000000000, 0.000000000000000000, 1.000000000000000000 ) ) ;
#1195 =( CONVERSION_BASED_UNIT ( 'INCH', #1188 ) LENGTH_UNIT ( ) NAMED_UNIT ( #592 ) );
#1196 = ORIENTED_EDGE ( 'NONE', *, *, #95, .F. ) ;
#1197 = COLOUR_RGB ( '',0.8588235294117646523, 0.8588235294117646523, 0.8588235294117646523 ) ;
#1198 = AXIS2_PLACEMENT_3D ( 'NONE', #1207, #375, #1037 ) ;
#1199 = DIRECTION ( 'NONE',  ( 0.000000000000000000, 0.000000000000000000, 1.000000000000000000 ) ) ;
#1200 = AXIS2_PLACEMENT_3D ( 'NONE', #307, #1035, #396 ) ;
#1201 = DIRECTION ( 'NONE',  ( 0.000000000000000000, 0.000000000000000000, 1.000000000000000000 ) ) ;
#1202 = ORIENTED_EDGE ( 'NONE', *, *, #508, .F. ) ;
#1203 = SURFACE_STYLE_USAGE ( .BOTH. , #1130 ) ;
#1204 = SURFACE_SIDE_STYLE ('',( #730 ) ) ;
#1205 = DIRECTION ( 'NONE',  ( -0.000000000000000000, -0.000000000000000000, -1.000000000000000000 ) ) ;
#1206 = ORIENTED_EDGE ( 'NONE', *, *, #437, .F. ) ;
#1207 = CARTESIAN_POINT ( 'NONE',  ( 0.000000000000000000, 0.000000000000000000, 0.2500000000000000000 ) ) ;
#1208 = ORIENTED_EDGE ( 'NONE', *, *, #359, .F. ) ;
#1209 = FILL_AREA_STYLE ('',( #211 ) ) ;
#1210 = ORIENTED_EDGE ( 'NONE', *, *, #1051, .F. ) ;
#1211 = EDGE_CURVE ( 'NONE', #1143, #415, #799, .T. ) ;
ENDSEC;
END-ISO-10303-21;
