ISO-10303-21;
HEADER;
FILE_DESCRIPTION (( 'STEP AP214' ),
    '1' );
FILE_NAME ('BearingHolder.STEP',
    '2026-09-04T22:01:20',
    ( '' ),
    ( '' ),
    'SwSTEP 2.0',
    'SolidWorks 2026',
    '' );
FILE_SCHEMA (( 'AUTOMOTIVE_DESIGN' ));
ENDSEC;

DATA;
#1 = DIMENSIONAL_EXPONENTS ( 1.000000000000000000, 0.000000000000000000, 0.000000000000000000, 0.000000000000000000, 0.000000000000000000, 0.000000000000000000, 0.000000000000000000 ) ;
#2 = COLOUR_RGB ( '',0.8588235294117646523, 0.8588235294117646523, 0.8588235294117646523 ) ;
#3 = UNCERTAINTY_MEASURE_WITH_UNIT (LENGTH_MEASURE( 1.000000000000000082E-05 ), #266, 'distance_accuracy_value', 'NONE');
#4 =( GEOMETRIC_REPRESENTATION_CONTEXT ( 3 ) GLOBAL_UNCERTAINTY_ASSIGNED_CONTEXT ( ( #80 ) ) GLOBAL_UNIT_ASSIGNED_CONTEXT ( ( #106, #97, #128 ) ) REPRESENTATION_CONTEXT ( 'NONE', 'WORKASPACE' ) );
#5 =( NAMED_UNIT ( * ) SI_UNIT ( $, .STERADIAN. ) SOLID_ANGLE_UNIT ( ) );
#6 =( LENGTH_UNIT ( ) NAMED_UNIT ( * ) SI_UNIT ( $, .METRE. ) );
#7 = ORIENTED_EDGE ( 'NONE', *, *, #186, .T. ) ;
#8 = MECHANICAL_DESIGN_GEOMETRIC_PRESENTATION_REPRESENTATION (  '', ( #313 ), #195 ) ;
#9 = AXIS2_PLACEMENT_3D ( 'NONE', #40, #131, #264 ) ;
#10 = DIMENSIONAL_EXPONENTS ( 1.000000000000000000, 0.000000000000000000, 0.000000000000000000, 0.000000000000000000, 0.000000000000000000, 0.000000000000000000, 0.000000000000000000 ) ;
#11 = CARTESIAN_POINT ( 'NONE',  ( 0.6250000000000000000, 7.654042494670957853E-17, 0.000000000000000000 ) ) ;
#12 = FILL_AREA_STYLE_COLOUR ( '', #328 ) ;
#13 = PRESENTATION_STYLE_ASSIGNMENT (( #283 ) ) ;
#14 = ORIENTED_EDGE ( 'NONE', *, *, #175, .F. ) ;
#15 = PRODUCT_DEFINITION_CONTEXT ( 'detailed design', #134, 'design' ) ;
#16 = FACE_BOUND ( 'NONE', #98, .T. ) ;
#17 = AXIS2_PLACEMENT_3D ( 'NONE', #216, #146, #287 ) ;
#18 = DIRECTION ( 'NONE',  ( 1.000000000000000000, 0.000000000000000000, -0.000000000000000000 ) ) ;
#19 = FILL_AREA_STYLE_COLOUR ( '', #2 ) ;
#20 = FILL_AREA_STYLE_COLOUR ( '', #233 ) ;
#21 = ADVANCED_FACE ( 'NONE', ( #102 ), #294, .T. ) ;
#22 = LENGTH_MEASURE_WITH_UNIT ( LENGTH_MEASURE( 0.02539999999999999897 ), #33 );
#23 = PRESENTATION_LAYER_ASSIGNMENT (  '', '', ( #45 ) ) ;
#24 = PRODUCT_DEFINITION_FORMATION_WITH_SPECIFIED_SOURCE ( 'Symmetric', '', #91, .NOT_KNOWN. ) ;
#25 = FILL_AREA_STYLE ('',( #155 ) ) ;
#26 =( NAMED_UNIT ( * ) SI_UNIT ( $, .STERADIAN. ) SOLID_ANGLE_UNIT ( ) );
#27 = ORIENTED_EDGE ( 'NONE', *, *, #169, .T. ) ;
#28 = LINE ( 'NONE', #276, #137 ) ;
#29 = ORIENTED_EDGE ( 'NONE', *, *, #122, .T. ) ;
#30 = SURFACE_STYLE_USAGE ( .BOTH. , #278 ) ;
#31 = EDGE_LOOP ( 'NONE', ( #54, #227 ) ) ;
#32 =( LENGTH_UNIT ( ) NAMED_UNIT ( * ) SI_UNIT ( $, .METRE. ) );
#33 =( LENGTH_UNIT ( ) NAMED_UNIT ( * ) SI_UNIT ( $, .METRE. ) );
#34 = VERTEX_POINT ( 'NONE', #79 ) ;
#35 = DIMENSIONAL_EXPONENTS ( 1.000000000000000000, 0.000000000000000000, 0.000000000000000000, 0.000000000000000000, 0.000000000000000000, 0.000000000000000000, 0.000000000000000000 ) ;
#36 = CARTESIAN_POINT ( 'NONE',  ( 0.000000000000000000, -0.01589299422362085504, 0.000000000000000000 ) ) ;
#37 = DIRECTION ( 'NONE',  ( 0.000000000000000000, 0.000000000000000000, 1.000000000000000000 ) ) ;
#38 = SURFACE_STYLE_FILL_AREA ( #160 ) ;
#39 = MECHANICAL_DESIGN_GEOMETRIC_PRESENTATION_REPRESENTATION (  '', ( #204 ), #118 ) ;
#40 = CARTESIAN_POINT ( 'NONE',  ( 0.000000000000000000, -0.01589299422362085504, 0.2500000000000000000 ) ) ;
#41 = EDGE_LOOP ( 'NONE', ( #166, #194, #280, #65 ) ) ;
#42 = CARTESIAN_POINT ( 'NONE',  ( 0.6250000000000000000, 7.654042494670957853E-17, 0.2500000000000000000 ) ) ;
#43 = FACE_OUTER_BOUND ( 'NONE', #331, .T. ) ;
#44 = SURFACE_STYLE_USAGE ( .BOTH. , #210 ) ;
#45 = STYLED_ITEM ( 'NONE', ( #271 ), #116 ) ;
#46 = DIRECTION ( 'NONE',  ( -0.000000000000000000, -0.000000000000000000, -1.000000000000000000 ) ) ;
#47 = PRESENTATION_LAYER_ASSIGNMENT (  '', '', ( #313 ) ) ;
#48 = AXIS2_PLACEMENT_3D ( 'NONE', #282, #250, #123 ) ;
#49 = FACE_OUTER_BOUND ( 'NONE', #31, .T. ) ;
#50 = SURFACE_STYLE_FILL_AREA ( #251 ) ;
#51 = LENGTH_MEASURE_WITH_UNIT ( LENGTH_MEASURE( 0.02539999999999999897 ), #32 );
#52 =( NAMED_UNIT ( * ) PLANE_ANGLE_UNIT ( ) SI_UNIT ( $, .RADIAN. ) );
#53 = SURFACE_STYLE_USAGE ( .BOTH. , #145 ) ;
#54 = ORIENTED_EDGE ( 'NONE', *, *, #234, .F. ) ;
#55 = ADVANCED_BREP_SHAPE_REPRESENTATION ( 'BearingHolder', ( #289, #48 ), #262 ) ;
#56 = AXIS2_PLACEMENT_3D ( 'NONE', #236, #323, #315 ) ;
#57 = ORIENTED_EDGE ( 'NONE', *, *, #225, .T. ) ;
#58 = CARTESIAN_POINT ( 'NONE',  ( 0.000000000000000000, 0.000000000000000000, 0.000000000000000000 ) ) ;
#59 = EDGE_CURVE ( 'NONE', #157, #198, #214, .T. ) ;
#60 = VECTOR ( 'NONE', #46, 39.37007874015748143 ) ;
#61 = FILL_AREA_STYLE ('',( #179 ) ) ;
#62 = CIRCLE ( 'NONE', #248, 0.3125000000000000000 ) ;
#63 = PRESENTATION_STYLE_ASSIGNMENT (( #82 ) ) ;
#64 = PRODUCT_RELATED_PRODUCT_CATEGORY ( 'part', '', ( #91 ) ) ;
#65 = ORIENTED_EDGE ( 'NONE', *, *, #234, .T. ) ;
#66 = LENGTH_MEASURE_WITH_UNIT ( LENGTH_MEASURE( 0.02539999999999999897 ), #327 );
#67 = DIRECTION ( 'NONE',  ( -0.000000000000000000, -0.000000000000000000, -1.000000000000000000 ) ) ;
#68 = LINE ( 'NONE', #272, #183 ) ;
#69 = COLOUR_RGB ( '',0.8588235294117646523, 0.8588235294117646523, 0.8588235294117646523 ) ;
#70 = ADVANCED_FACE ( 'NONE', ( #43, #16 ), #135, .T. ) ;
#71 = PRODUCT_CONTEXT ( 'NONE', #293, 'mechanical' ) ;
#72 = CARTESIAN_POINT ( 'NONE',  ( -0.6250000000000000000, 0.000000000000000000, 0.2500000000000000000 ) ) ;
#73 =( CONVERSION_BASED_UNIT ( 'INCH', #22 ) LENGTH_UNIT ( ) NAMED_UNIT ( #1 ) );
#74 = EDGE_LOOP ( 'NONE', ( #7, #148, #219, #252 ) ) ;
#75 = COLOUR_RGB ( '',0.8588235294117646523, 0.8588235294117646523, 0.8588235294117646523 ) ;
#76 = CIRCLE ( 'NONE', #274, 0.6250000000000000000 ) ;
#77 = AXIS2_PLACEMENT_3D ( 'NONE', #58, #37, #260 ) ;
#78 = DIRECTION ( 'NONE',  ( 0.000000000000000000, 0.000000000000000000, 1.000000000000000000 ) ) ;
#79 = CARTESIAN_POINT ( 'NONE',  ( -0.3125000000000000000, -0.01589299422362085504, 0.000000000000000000 ) ) ;
#80 = UNCERTAINTY_MEASURE_WITH_UNIT (LENGTH_MEASURE( 1.000000000000000082E-05 ), #106, 'distance_accuracy_value', 'NONE');
#81 = SURFACE_SIDE_STYLE ('',( #103 ) ) ;
#82 = SURFACE_STYLE_USAGE ( .BOTH. , #286 ) ;
#83 = DIRECTION ( 'NONE',  ( 1.000000000000000000, 0.000000000000000000, 0.000000000000000000 ) ) ;
#84 = FILL_AREA_STYLE_COLOUR ( '', #69 ) ;
#85 = FILL_AREA_STYLE ('',( #19 ) ) ;
#86 =( GEOMETRIC_REPRESENTATION_CONTEXT ( 3 ) GLOBAL_UNCERTAINTY_ASSIGNED_CONTEXT ( ( #239 ) ) GLOBAL_UNIT_ASSIGNED_CONTEXT ( ( #96, #218, #312 ) ) REPRESENTATION_CONTEXT ( 'NONE', 'WORKASPACE' ) );
#87 = FILL_AREA_STYLE ('',( #20 ) ) ;
#88 = PRESENTATION_LAYER_ASSIGNMENT (  '', '', ( #204 ) ) ;
#89 = FACE_OUTER_BOUND ( 'NONE', #322, .T. ) ;
#90 = VERTEX_POINT ( 'NONE', #209 ) ;
#91 = PRODUCT ( 'BearingHolder', 'BearingHolder', '', ( #71 ) ) ;
#92 = DIMENSIONAL_EXPONENTS ( 1.000000000000000000, 0.000000000000000000, 0.000000000000000000, 0.000000000000000000, 0.000000000000000000, 0.000000000000000000, 0.000000000000000000 ) ;
#93 = ORIENTED_EDGE ( 'NONE', *, *, #298, .T. ) ;
#94 =( NAMED_UNIT ( * ) PLANE_ANGLE_UNIT ( ) SI_UNIT ( $, .RADIAN. ) );
#95 = UNCERTAINTY_MEASURE_WITH_UNIT (LENGTH_MEASURE( 1.000000000000000082E-05 ), #73, 'distance_accuracy_value', 'NONE');
#96 =( CONVERSION_BASED_UNIT ( 'INCH', #303 ) LENGTH_UNIT ( ) NAMED_UNIT ( #259 ) );
#97 =( NAMED_UNIT ( * ) PLANE_ANGLE_UNIT ( ) SI_UNIT ( $, .RADIAN. ) );
#98 = EDGE_LOOP ( 'NONE', ( #288, #200 ) ) ;
#99 = PRESENTATION_LAYER_ASSIGNMENT (  '', '', ( #304 ) ) ;
#100 = EDGE_CURVE ( 'NONE', #90, #256, #240, .T. ) ;
#101 = DIRECTION ( 'NONE',  ( -0.000000000000000000, -0.000000000000000000, -1.000000000000000000 ) ) ;
#102 = FACE_OUTER_BOUND ( 'NONE', #41, .T. ) ;
#103 = SURFACE_STYLE_FILL_AREA ( #61 ) ;
#104 = SURFACE_SIDE_STYLE ('',( #38 ) ) ;
#105 = UNCERTAINTY_MEASURE_WITH_UNIT (LENGTH_MEASURE( 1.000000000000000082E-05 ), #111, 'distance_accuracy_value', 'NONE');
#106 =( CONVERSION_BASED_UNIT ( 'INCH', #205 ) LENGTH_UNIT ( ) NAMED_UNIT ( #263 ) );
#107 =( LENGTH_UNIT ( ) NAMED_UNIT ( * ) SI_UNIT ( $, .METRE. ) );
#108 = EDGE_CURVE ( 'NONE', #198, #157, #255, .T. ) ;
#109 = COLOUR_RGB ( '',0.8941176470588234615, 0.8941176470588234615, 0.8941176470588234615 ) ;
#110 = SURFACE_STYLE_USAGE ( .BOTH. , #104 ) ;
#111 =( CONVERSION_BASED_UNIT ( 'INCH', #242 ) LENGTH_UNIT ( ) NAMED_UNIT ( #307 ) );
#112 = DIRECTION ( 'NONE',  ( -1.000000000000000000, 0.000000000000000000, 0.000000000000000000 ) ) ;
#113 =( GEOMETRIC_REPRESENTATION_CONTEXT ( 3 ) GLOBAL_UNCERTAINTY_ASSIGNED_CONTEXT ( ( #136 ) ) GLOBAL_UNIT_ASSIGNED_CONTEXT ( ( #213, #139, #5 ) ) REPRESENTATION_CONTEXT ( 'NONE', 'WORKASPACE' ) );
#114 = DIRECTION ( 'NONE',  ( -0.000000000000000000, -0.000000000000000000, -1.000000000000000000 ) ) ;
#115 = CIRCLE ( 'NONE', #196, 0.3125000000000000000 ) ;
#116 = ADVANCED_FACE ( 'NONE', ( #326 ), #168, .T. ) ;
#117 = CARTESIAN_POINT ( 'NONE',  ( 0.000000000000000000, -0.01589299422362085504, 0.2500000000000000000 ) ) ;
#118 =( GEOMETRIC_REPRESENTATION_CONTEXT ( 3 ) GLOBAL_UNCERTAINTY_ASSIGNED_CONTEXT ( ( #269 ) ) GLOBAL_UNIT_ASSIGNED_CONTEXT ( ( #295, #181, #319 ) ) REPRESENTATION_CONTEXT ( 'NONE', 'WORKASPACE' ) );
#119 = CIRCLE ( 'NONE', #9, 0.3125000000000000000 ) ;
#120 = CARTESIAN_POINT ( 'NONE',  ( 0.000000000000000000, 0.000000000000000000, 0.000000000000000000 ) ) ;
#121 = ORIENTED_EDGE ( 'NONE', *, *, #175, .T. ) ;
#122 = EDGE_CURVE ( 'NONE', #198, #310, #68, .T. ) ;
#123 = DIRECTION ( 'NONE',  ( 1.000000000000000000, 0.000000000000000000, 0.000000000000000000 ) ) ;
#124 = PRESENTATION_LAYER_ASSIGNMENT (  '', '', ( #325 ) ) ;
#125 = ORIENTED_EDGE ( 'NONE', *, *, #199, .T. ) ;
#126 = SURFACE_STYLE_FILL_AREA ( #317 ) ;
#127 = ADVANCED_FACE ( 'NONE', ( #49, #171 ), #270, .F. ) ;
#128 =( NAMED_UNIT ( * ) SI_UNIT ( $, .STERADIAN. ) SOLID_ANGLE_UNIT ( ) );
#129 =( LENGTH_UNIT ( ) NAMED_UNIT ( * ) SI_UNIT ( $, .METRE. ) );
#130 = AXIS2_PLACEMENT_3D ( 'NONE', #120, #305, #192 ) ;
#131 = DIRECTION ( 'NONE',  ( 0.000000000000000000, 0.000000000000000000, 1.000000000000000000 ) ) ;
#132 = DIRECTION ( 'NONE',  ( 1.000000000000000000, 0.000000000000000000, 0.000000000000000000 ) ) ;
#133 = ADVANCED_FACE ( 'NONE', ( #197 ), #246, .F. ) ;
#134 = APPLICATION_CONTEXT ( 'automotive_design' ) ;
#135 = PLANE ( 'NONE',  #243 ) ;
#136 = UNCERTAINTY_MEASURE_WITH_UNIT (LENGTH_MEASURE( 1.000000000000000082E-05 ), #213, 'distance_accuracy_value', 'NONE');
#137 = VECTOR ( 'NONE', #153, 39.37007874015748143 ) ;
#138 = CIRCLE ( 'NONE', #77, 0.6250000000000000000 ) ;
#139 =( NAMED_UNIT ( * ) PLANE_ANGLE_UNIT ( ) SI_UNIT ( $, .RADIAN. ) );
#140 = SURFACE_SIDE_STYLE ('',( #324 ) ) ;
#141 = PRESENTATION_LAYER_ASSIGNMENT (  '', '', ( #268 ) ) ;
#142 = CARTESIAN_POINT ( 'NONE',  ( 0.000000000000000000, 0.000000000000000000, 0.2500000000000000000 ) ) ;
#143 = MECHANICAL_DESIGN_GEOMETRIC_PRESENTATION_REPRESENTATION (  '', ( #291 ), #4 ) ;
#144 = EDGE_CURVE ( 'NONE', #157, #330, #28, .T. ) ;
#145 = SURFACE_SIDE_STYLE ('',( #222 ) ) ;
#146 = DIRECTION ( 'NONE',  ( -0.000000000000000000, -0.000000000000000000, -1.000000000000000000 ) ) ;
#147 = PRESENTATION_LAYER_ASSIGNMENT (  '', '', ( #296 ) ) ;
#148 = ORIENTED_EDGE ( 'NONE', *, *, #100, .T. ) ;
#149 = AXIS2_PLACEMENT_3D ( 'NONE', #159, #237, #321 ) ;
#150 = DIRECTION ( 'NONE',  ( -0.000000000000000000, -0.000000000000000000, -1.000000000000000000 ) ) ;
#151 = ORIENTED_EDGE ( 'NONE', *, *, #108, .T. ) ;
#152 =( CONVERSION_BASED_UNIT ( 'INCH', #51 ) LENGTH_UNIT ( ) NAMED_UNIT ( #35 ) );
#153 = DIRECTION ( 'NONE',  ( -0.000000000000000000, -0.000000000000000000, -1.000000000000000000 ) ) ;
#154 = ORIENTED_EDGE ( 'NONE', *, *, #144, .F. ) ;
#155 = FILL_AREA_STYLE_COLOUR ( '', #109 ) ;
#156 = FILL_AREA_STYLE_COLOUR ( '', #75 ) ;
#157 = VERTEX_POINT ( 'NONE', #72 ) ;
#158 = DIRECTION ( 'NONE',  ( 1.000000000000000000, 0.000000000000000000, 0.000000000000000000 ) ) ;
#159 = CARTESIAN_POINT ( 'NONE',  ( 0.000000000000000000, -0.01589299422362085504, 0.2500000000000000000 ) ) ;
#160 = FILL_AREA_STYLE ('',( #84 ) ) ;
#161 = CLOSED_SHELL ( 'NONE', ( #133, #116, #70, #127, #21, #163 ) ) ;
#162 = MECHANICAL_DESIGN_GEOMETRIC_PRESENTATION_REPRESENTATION (  '', ( #304 ), #188 ) ;
#163 = ADVANCED_FACE ( 'NONE', ( #89 ), #172, .F. ) ;
#164 =( LENGTH_UNIT ( ) NAMED_UNIT ( * ) SI_UNIT ( $, .METRE. ) );
#165 =( NAMED_UNIT ( * ) SI_UNIT ( $, .STERADIAN. ) SOLID_ANGLE_UNIT ( ) );
#166 = ORIENTED_EDGE ( 'NONE', *, *, #122, .F. ) ;
#167 = VECTOR ( 'NONE', #101, 39.37007874015748143 ) ;
#168 = CYLINDRICAL_SURFACE ( 'NONE', #178, 0.6250000000000000000 ) ;
#169 = EDGE_CURVE ( 'NONE', #310, #330, #138, .T. ) ;
#170 = CARTESIAN_POINT ( 'NONE',  ( 0.000000000000000000, 0.000000000000000000, 0.2500000000000000000 ) ) ;
#171 = FACE_BOUND ( 'NONE', #185, .T. ) ;
#172 = CYLINDRICAL_SURFACE ( 'NONE', #17, 0.3125000000000000000 ) ;
#173 = PRODUCT_DEFINITION_SHAPE ( 'NONE', 'NONE',  #292 ) ;
#174 = MECHANICAL_DESIGN_GEOMETRIC_PRESENTATION_REPRESENTATION (  '', ( #325 ), #86 ) ;
#175 = EDGE_CURVE ( 'NONE', #256, #34, #62, .T. ) ;
#176 =( NAMED_UNIT ( * ) SI_UNIT ( $, .STERADIAN. ) SOLID_ANGLE_UNIT ( ) );
#177 = PRESENTATION_STYLE_ASSIGNMENT (( #30 ) ) ;
#178 = AXIS2_PLACEMENT_3D ( 'NONE', #142, #114, #112 ) ;
#179 = FILL_AREA_STYLE_COLOUR ( '', #217 ) ;
#180 = ORIENTED_EDGE ( 'NONE', *, *, #100, .F. ) ;
#181 =( NAMED_UNIT ( * ) PLANE_ANGLE_UNIT ( ) SI_UNIT ( $, .RADIAN. ) );
#182 =( NAMED_UNIT ( * ) PLANE_ANGLE_UNIT ( ) SI_UNIT ( $, .RADIAN. ) );
#183 = VECTOR ( 'NONE', #67, 39.37007874015748143 ) ;
#184 = DIRECTION ( 'NONE',  ( 0.000000000000000000, 0.000000000000000000, 1.000000000000000000 ) ) ;
#185 = EDGE_LOOP ( 'NONE', ( #93, #121 ) ) ;
#186 = EDGE_CURVE ( 'NONE', #306, #90, #297, .T. ) ;
#187 = DIRECTION ( 'NONE',  ( 0.000000000000000000, 0.000000000000000000, 1.000000000000000000 ) ) ;
#188 =( GEOMETRIC_REPRESENTATION_CONTEXT ( 3 ) GLOBAL_UNCERTAINTY_ASSIGNED_CONTEXT ( ( #202 ) ) GLOBAL_UNIT_ASSIGNED_CONTEXT ( ( #152, #94, #201 ) ) REPRESENTATION_CONTEXT ( 'NONE', 'WORKASPACE' ) );
#189 =( NAMED_UNIT ( * ) SI_UNIT ( $, .STERADIAN. ) SOLID_ANGLE_UNIT ( ) );
#190 =( LENGTH_UNIT ( ) NAMED_UNIT ( * ) SI_UNIT ( $, .METRE. ) );
#191 = CARTESIAN_POINT ( 'NONE',  ( 0.3125000000000000000, -0.01589299422362081687, 0.2500000000000000000 ) ) ;
#192 = DIRECTION ( 'NONE',  ( 1.000000000000000000, 0.000000000000000000, -0.000000000000000000 ) ) ;
#193 =( LENGTH_UNIT ( ) NAMED_UNIT ( * ) SI_UNIT ( $, .METRE. ) );
#194 = ORIENTED_EDGE ( 'NONE', *, *, #59, .F. ) ;
#195 =( GEOMETRIC_REPRESENTATION_CONTEXT ( 3 ) GLOBAL_UNCERTAINTY_ASSIGNED_CONTEXT ( ( #95 ) ) GLOBAL_UNIT_ASSIGNED_CONTEXT ( ( #73, #301, #26 ) ) REPRESENTATION_CONTEXT ( 'NONE', 'WORKASPACE' ) );
#196 = AXIS2_PLACEMENT_3D ( 'NONE', #36, #285, #158 ) ;
#197 = FACE_OUTER_BOUND ( 'NONE', #74, .T. ) ;
#198 = VERTEX_POINT ( 'NONE', #42 ) ;
#199 = EDGE_CURVE ( 'NONE', #90, #306, #119, .T. ) ;
#200 = ORIENTED_EDGE ( 'NONE', *, *, #199, .F. ) ;
#201 =( NAMED_UNIT ( * ) SI_UNIT ( $, .STERADIAN. ) SOLID_ANGLE_UNIT ( ) );
#202 = UNCERTAINTY_MEASURE_WITH_UNIT (LENGTH_MEASURE( 1.000000000000000082E-05 ), #152, 'distance_accuracy_value', 'NONE');
#203 = LENGTH_MEASURE_WITH_UNIT ( LENGTH_MEASURE( 0.02539999999999999897 ), #107 );
#204 = STYLED_ITEM ( 'NONE', ( #207 ), #70 ) ;
#205 = LENGTH_MEASURE_WITH_UNIT ( LENGTH_MEASURE( 0.02539999999999999897 ), #6 );
#206 = LENGTH_MEASURE_WITH_UNIT ( LENGTH_MEASURE( 0.02539999999999999897 ), #129 );
#207 = PRESENTATION_STYLE_ASSIGNMENT (( #110 ) ) ;
#208 =( GEOMETRIC_REPRESENTATION_CONTEXT ( 3 ) GLOBAL_UNCERTAINTY_ASSIGNED_CONTEXT ( ( #3 ) ) GLOBAL_UNIT_ASSIGNED_CONTEXT ( ( #266, #182, #165 ) ) REPRESENTATION_CONTEXT ( 'NONE', 'WORKASPACE' ) );
#209 = CARTESIAN_POINT ( 'NONE',  ( 0.3125000000000000000, -0.01589299422362081687, 0.2500000000000000000 ) ) ;
#210 = SURFACE_SIDE_STYLE ('',( #245 ) ) ;
#211 = AXIS2_PLACEMENT_3D ( 'NONE', #275, #187, #299 ) ;
#212 = PRESENTATION_STYLE_ASSIGNMENT (( #44 ) ) ;
#213 =( CONVERSION_BASED_UNIT ( 'INCH', #66 ) LENGTH_UNIT ( ) NAMED_UNIT ( #10 ) );
#214 = CIRCLE ( 'NONE', #247, 0.6250000000000000000 ) ;
#215 = MECHANICAL_DESIGN_GEOMETRIC_PRESENTATION_REPRESENTATION (  '', ( #296 ), #113 ) ;
#216 = CARTESIAN_POINT ( 'NONE',  ( 0.000000000000000000, -0.01589299422362085504, 0.2500000000000000000 ) ) ;
#217 = COLOUR_RGB ( '',0.8588235294117646523, 0.8588235294117646523, 0.8588235294117646523 ) ;
#218 =( NAMED_UNIT ( * ) PLANE_ANGLE_UNIT ( ) SI_UNIT ( $, .RADIAN. ) );
#219 = ORIENTED_EDGE ( 'NONE', *, *, #298, .F. ) ;
#220 = PRESENTATION_STYLE_ASSIGNMENT (( #53 ) ) ;
#221 = APPLICATION_PROTOCOL_DEFINITION ( 'draft international standard', 'automotive_design', 1998, #134 ) ;
#222 = SURFACE_STYLE_FILL_AREA ( #279 ) ;
#223 = COLOUR_RGB ( '',0.8588235294117646523, 0.8588235294117646523, 0.8588235294117646523 ) ;
#224 = ORIENTED_EDGE ( 'NONE', *, *, #59, .T. ) ;
#225 = EDGE_CURVE ( 'NONE', #306, #34, #232, .T. ) ;
#226 = SURFACE_SIDE_STYLE ('',( #50 ) ) ;
#227 = ORIENTED_EDGE ( 'NONE', *, *, #169, .F. ) ;
#228 =( CONVERSION_BASED_UNIT ( 'INCH', #308 ) LENGTH_UNIT ( ) NAMED_UNIT ( #320 ) );
#229 = CARTESIAN_POINT ( 'NONE',  ( -0.3125000000000000000, -0.01589299422362085504, 0.2500000000000000000 ) ) ;
#230 = DIRECTION ( 'NONE',  ( 1.000000000000000000, 0.000000000000000000, 0.000000000000000000 ) ) ;
#231 = UNCERTAINTY_MEASURE_WITH_UNIT (LENGTH_MEASURE( 1.000000000000000082E-05 ), #228, 'distance_accuracy_value', 'NONE');
#232 = LINE ( 'NONE', #316, #167 ) ;
#233 = COLOUR_RGB ( '',0.8588235294117646523, 0.8588235294117646523, 0.8588235294117646523 ) ;
#234 = EDGE_CURVE ( 'NONE', #330, #310, #76, .T. ) ;
#235 = CARTESIAN_POINT ( 'NONE',  ( 0.3125000000000000000, -0.01589299422362081687, 0.000000000000000000 ) ) ;
#236 = CARTESIAN_POINT ( 'NONE',  ( 0.000000000000000000, 0.000000000000000000, 0.2500000000000000000 ) ) ;
#237 = DIRECTION ( 'NONE',  ( 0.000000000000000000, 0.000000000000000000, 1.000000000000000000 ) ) ;
#238 = MECHANICAL_DESIGN_GEOMETRIC_PRESENTATION_REPRESENTATION (  '', ( #45 ), #300 ) ;
#239 = UNCERTAINTY_MEASURE_WITH_UNIT (LENGTH_MEASURE( 1.000000000000000082E-05 ), #96, 'distance_accuracy_value', 'NONE');
#240 = LINE ( 'NONE', #191, #60 ) ;
#241 = SURFACE_STYLE_USAGE ( .BOTH. , #140 ) ;
#242 = LENGTH_MEASURE_WITH_UNIT ( LENGTH_MEASURE( 0.02539999999999999897 ), #190 );
#243 = AXIS2_PLACEMENT_3D ( 'NONE', #170, #244, #18 ) ;
#244 = DIRECTION ( 'NONE',  ( 0.000000000000000000, 0.000000000000000000, 1.000000000000000000 ) ) ;
#245 = SURFACE_STYLE_FILL_AREA ( #87 ) ;
#246 = CYLINDRICAL_SURFACE ( 'NONE', #273, 0.3125000000000000000 ) ;
#247 = AXIS2_PLACEMENT_3D ( 'NONE', #265, #258, #230 ) ;
#248 = AXIS2_PLACEMENT_3D ( 'NONE', #257, #78, #83 ) ;
#249 = DIRECTION ( 'NONE',  ( -1.000000000000000000, 0.000000000000000000, 0.000000000000000000 ) ) ;
#250 = DIRECTION ( 'NONE',  ( 0.000000000000000000, 0.000000000000000000, 1.000000000000000000 ) ) ;
#251 = FILL_AREA_STYLE ('',( #156 ) ) ;
#252 = ORIENTED_EDGE ( 'NONE', *, *, #225, .F. ) ;
#253 = SURFACE_STYLE_USAGE ( .BOTH. , #226 ) ;
#254 = EDGE_LOOP ( 'NONE', ( #261, #29, #27, #154 ) ) ;
#255 = CIRCLE ( 'NONE', #211, 0.6250000000000000000 ) ;
#256 = VERTEX_POINT ( 'NONE', #235 ) ;
#257 = CARTESIAN_POINT ( 'NONE',  ( 0.000000000000000000, -0.01589299422362085504, 0.000000000000000000 ) ) ;
#258 = DIRECTION ( 'NONE',  ( 0.000000000000000000, 0.000000000000000000, 1.000000000000000000 ) ) ;
#259 = DIMENSIONAL_EXPONENTS ( 1.000000000000000000, 0.000000000000000000, 0.000000000000000000, 0.000000000000000000, 0.000000000000000000, 0.000000000000000000, 0.000000000000000000 ) ;
#260 = DIRECTION ( 'NONE',  ( 1.000000000000000000, 0.000000000000000000, 0.000000000000000000 ) ) ;
#261 = ORIENTED_EDGE ( 'NONE', *, *, #108, .F. ) ;
#262 =( GEOMETRIC_REPRESENTATION_CONTEXT ( 3 ) GLOBAL_UNCERTAINTY_ASSIGNED_CONTEXT ( ( #231 ) ) GLOBAL_UNIT_ASSIGNED_CONTEXT ( ( #228, #52, #176 ) ) REPRESENTATION_CONTEXT ( 'NONE', 'WORKASPACE' ) );
#263 = DIMENSIONAL_EXPONENTS ( 1.000000000000000000, 0.000000000000000000, 0.000000000000000000, 0.000000000000000000, 0.000000000000000000, 0.000000000000000000, 0.000000000000000000 ) ;
#264 = DIRECTION ( 'NONE',  ( 1.000000000000000000, 0.000000000000000000, 0.000000000000000000 ) ) ;
#265 = CARTESIAN_POINT ( 'NONE',  ( 0.000000000000000000, 0.000000000000000000, 0.2500000000000000000 ) ) ;
#266 =( CONVERSION_BASED_UNIT ( 'INCH', #203 ) LENGTH_UNIT ( ) NAMED_UNIT ( #284 ) );
#267 =( NAMED_UNIT ( * ) PLANE_ANGLE_UNIT ( ) SI_UNIT ( $, .RADIAN. ) );
#268 = STYLED_ITEM ( 'NONE', ( #63 ), #21 ) ;
#269 = UNCERTAINTY_MEASURE_WITH_UNIT (LENGTH_MEASURE( 1.000000000000000082E-05 ), #295, 'distance_accuracy_value', 'NONE');
#270 = PLANE ( 'NONE',  #130 ) ;
#271 = PRESENTATION_STYLE_ASSIGNMENT (( #241 ) ) ;
#272 = CARTESIAN_POINT ( 'NONE',  ( 0.6250000000000000000, 7.654042494670957853E-17, 0.2500000000000000000 ) ) ;
#273 = AXIS2_PLACEMENT_3D ( 'NONE', #117, #150, #249 ) ;
#274 = AXIS2_PLACEMENT_3D ( 'NONE', #318, #184, #132 ) ;
#275 = CARTESIAN_POINT ( 'NONE',  ( 0.000000000000000000, 0.000000000000000000, 0.2500000000000000000 ) ) ;
#276 = CARTESIAN_POINT ( 'NONE',  ( -0.6250000000000000000, 0.000000000000000000, 0.2500000000000000000 ) ) ;
#277 = MECHANICAL_DESIGN_GEOMETRIC_PRESENTATION_REPRESENTATION (  '', ( #268 ), #208 ) ;
#278 = SURFACE_SIDE_STYLE ('',( #311 ) ) ;
#279 = FILL_AREA_STYLE ('',( #309 ) ) ;
#280 = ORIENTED_EDGE ( 'NONE', *, *, #144, .T. ) ;
#281 = SHAPE_DEFINITION_REPRESENTATION ( #173, #55 ) ;
#282 = CARTESIAN_POINT ( 'NONE',  ( 0.000000000000000000, 0.000000000000000000, 0.000000000000000000 ) ) ;
#283 = SURFACE_STYLE_USAGE ( .BOTH. , #81 ) ;
#284 = DIMENSIONAL_EXPONENTS ( 1.000000000000000000, 0.000000000000000000, 0.000000000000000000, 0.000000000000000000, 0.000000000000000000, 0.000000000000000000, 0.000000000000000000 ) ;
#285 = DIRECTION ( 'NONE',  ( 0.000000000000000000, 0.000000000000000000, 1.000000000000000000 ) ) ;
#286 = SURFACE_SIDE_STYLE ('',( #126 ) ) ;
#287 = DIRECTION ( 'NONE',  ( -1.000000000000000000, 0.000000000000000000, 0.000000000000000000 ) ) ;
#288 = ORIENTED_EDGE ( 'NONE', *, *, #186, .F. ) ;
#289 = MANIFOLD_SOLID_BREP ( 'Boss-Extrude1', #161 ) ;
#290 = CARTESIAN_POINT ( 'NONE',  ( -0.6250000000000000000, 0.000000000000000000, 0.000000000000000000 ) ) ;
#291 = STYLED_ITEM ( 'NONE', ( #13 ), #289 ) ;
#292 = PRODUCT_DEFINITION ( 'General', '', #24, #15 ) ;
#293 = APPLICATION_CONTEXT ( 'automotive_design' ) ;
#294 = CYLINDRICAL_SURFACE ( 'NONE', #56, 0.6250000000000000000 ) ;
#295 =( CONVERSION_BASED_UNIT ( 'INCH', #206 ) LENGTH_UNIT ( ) NAMED_UNIT ( #92 ) );
#296 = STYLED_ITEM ( 'NONE', ( #212 ), #127 ) ;
#297 = CIRCLE ( 'NONE', #149, 0.3125000000000000000 ) ;
#298 = EDGE_CURVE ( 'NONE', #34, #256, #115, .T. ) ;
#299 = DIRECTION ( 'NONE',  ( 1.000000000000000000, 0.000000000000000000, 0.000000000000000000 ) ) ;
#300 =( GEOMETRIC_REPRESENTATION_CONTEXT ( 3 ) GLOBAL_UNCERTAINTY_ASSIGNED_CONTEXT ( ( #105 ) ) GLOBAL_UNIT_ASSIGNED_CONTEXT ( ( #111, #267, #189 ) ) REPRESENTATION_CONTEXT ( 'NONE', 'WORKASPACE' ) );
#301 =( NAMED_UNIT ( * ) PLANE_ANGLE_UNIT ( ) SI_UNIT ( $, .RADIAN. ) );
#302 = APPLICATION_PROTOCOL_DEFINITION ( 'draft international standard', 'automotive_design', 1998, #293 ) ;
#303 = LENGTH_MEASURE_WITH_UNIT ( LENGTH_MEASURE( 0.02539999999999999897 ), #193 );
#304 = STYLED_ITEM ( 'NONE', ( #177 ), #55 ) ;
#305 = DIRECTION ( 'NONE',  ( 0.000000000000000000, 0.000000000000000000, 1.000000000000000000 ) ) ;
#306 = VERTEX_POINT ( 'NONE', #229 ) ;
#307 = DIMENSIONAL_EXPONENTS ( 1.000000000000000000, 0.000000000000000000, 0.000000000000000000, 0.000000000000000000, 0.000000000000000000, 0.000000000000000000, 0.000000000000000000 ) ;
#308 = LENGTH_MEASURE_WITH_UNIT ( LENGTH_MEASURE( 0.02539999999999999897 ), #164 );
#309 = FILL_AREA_STYLE_COLOUR ( '', #223 ) ;
#310 = VERTEX_POINT ( 'NONE', #11 ) ;
#311 = SURFACE_STYLE_FILL_AREA ( #25 ) ;
#312 =( NAMED_UNIT ( * ) SI_UNIT ( $, .STERADIAN. ) SOLID_ANGLE_UNIT ( ) );
#313 = STYLED_ITEM ( 'NONE', ( #220 ), #133 ) ;
#314 = PRESENTATION_LAYER_ASSIGNMENT (  '', '', ( #291 ) ) ;
#315 = DIRECTION ( 'NONE',  ( -1.000000000000000000, 0.000000000000000000, 0.000000000000000000 ) ) ;
#316 = CARTESIAN_POINT ( 'NONE',  ( -0.3125000000000000000, -0.01589299422362085504, 0.2500000000000000000 ) ) ;
#317 = FILL_AREA_STYLE ('',( #12 ) ) ;
#318 = CARTESIAN_POINT ( 'NONE',  ( 0.000000000000000000, 0.000000000000000000, 0.000000000000000000 ) ) ;
#319 =( NAMED_UNIT ( * ) SI_UNIT ( $, .STERADIAN. ) SOLID_ANGLE_UNIT ( ) );
#320 = DIMENSIONAL_EXPONENTS ( 1.000000000000000000, 0.000000000000000000, 0.000000000000000000, 0.000000000000000000, 0.000000000000000000, 0.000000000000000000, 0.000000000000000000 ) ;
#321 = DIRECTION ( 'NONE',  ( 1.000000000000000000, 0.000000000000000000, 0.000000000000000000 ) ) ;
#322 = EDGE_LOOP ( 'NONE', ( #180, #125, #57, #14 ) ) ;
#323 = DIRECTION ( 'NONE',  ( -0.000000000000000000, -0.000000000000000000, -1.000000000000000000 ) ) ;
#324 = SURFACE_STYLE_FILL_AREA ( #85 ) ;
#325 = STYLED_ITEM ( 'NONE', ( #329 ), #163 ) ;
#326 = FACE_OUTER_BOUND ( 'NONE', #254, .T. ) ;
#327 =( LENGTH_UNIT ( ) NAMED_UNIT ( * ) SI_UNIT ( $, .METRE. ) );
#328 = COLOUR_RGB ( '',0.8588235294117646523, 0.8588235294117646523, 0.8588235294117646523 ) ;
#329 = PRESENTATION_STYLE_ASSIGNMENT (( #253 ) ) ;
#330 = VERTEX_POINT ( 'NONE', #290 ) ;
#331 = EDGE_LOOP ( 'NONE', ( #224, #151 ) ) ;
ENDSEC;
END-ISO-10303-21;
