ISO-10303-21;
HEADER;
FILE_DESCRIPTION (( 'STEP AP214' ),
    '1' );
FILE_NAME ('Body003.step.STEP',
    '2026-09-04T22:05:09',
    ( '' ),
    ( '' ),
    'SwSTEP 2.0',
    'SolidWorks 2026',
    '' );
FILE_SCHEMA (( 'AUTOMOTIVE_DESIGN' ));
ENDSEC;

DATA;
#1 = FACE_OUTER_BOUND ( 'NONE', #516, .T. ) ;
#2 = AXIS2_PLACEMENT_3D ( 'NONE', #869, #401, #124 ) ;
#3 = FACE_OUTER_BOUND ( 'NONE', #320, .T. ) ;
#4 = CARTESIAN_POINT ( 'NONE',  ( -6.000000000000000000, 4.698788079488412192E-15, -22.10000000000000142 ) ) ;
#5 = CIRCLE ( 'NONE', #420, 3.900000000000000799 ) ;
#6 = CARTESIAN_POINT ( 'NONE',  ( -3.600000069047000206, 4.799999999999999822, -22.10000005178000038 ) ) ;
#7 = ORIENTED_EDGE ( 'NONE', *, *, #1203, .T. ) ;
#8 = CARTESIAN_POINT ( 'NONE',  ( -2.615339366124000087, 4.143669871020000173, -21.50000000000000000 ) ) ;
#9 = CARTESIAN_POINT ( 'NONE',  ( 7.619999999999999969E-15, 13.40000000000000213, -20.90000000000000213 ) ) ;
#10 = AXIS2_PLACEMENT_3D ( 'NONE', #1142, #661, #371 ) ;
#11 = LINE ( 'NONE', #281, #1202 ) ;
#12 = EDGE_CURVE ( 'NONE', #668, #1063, #683, .T. ) ;
#13 = CARTESIAN_POINT ( 'NONE',  ( 0.5395971737660000267, 4.982419374918000798, -20.91465059784999880 ) ) ;
#14 = LINE ( 'NONE', #573, #325 ) ;
#15 = EDGE_LOOP ( 'NONE', ( #1188, #177, #812, #232, #1086 ) ) ;
#16 = DIRECTION ( 'NONE',  ( -2.200000000000000003E-16, 2.800000000000000139E-16, 1.000000000000000000 ) ) ;
#17 = ORIENTED_EDGE ( 'NONE', *, *, #165, .F. ) ;
#18 = DIRECTION ( 'NONE',  ( 3.094087772700190125E-29, 2.200000000000254904E-16, -1.000000000000000000 ) ) ;
#19 = EDGE_CURVE ( 'NONE', #151, #604, #447, .T. ) ;
#20 = DIRECTION ( 'NONE',  ( 0.000000000000000000, -2.200000000000000003E-16, 1.000000000000000000 ) ) ;
#21 = CIRCLE ( 'NONE', #657, 4.899999999999999467 ) ;
#22 = ORIENTED_EDGE ( 'NONE', *, *, #185, .T. ) ;
#23 = VECTOR ( 'NONE', #844, 1000.000000000000000 ) ;
#24 = LINE ( 'NONE', #610, #673 ) ;
#25 = EDGE_LOOP ( 'NONE', ( #1022, #324 ) ) ;
#26 = CARTESIAN_POINT ( 'NONE',  ( 7.570000000000001129E-15, 4.799999999999999822, -26.89999999999999858 ) ) ;
#27 =( BOUNDED_CURVE ( )  B_SPLINE_CURVE ( 3, ( #726, #258, #636, #660 ),
 .UNSPECIFIED., .F., .F. ) 
 B_SPLINE_CURVE_WITH_KNOTS ( ( 4, 4 ),
 ( 0.6832734971921876621, 1.570796326794899667 ),
 .UNSPECIFIED. ) 
 CURVE ( )  GEOMETRIC_REPRESENTATION_ITEM ( )  RATIONAL_B_SPLINE_CURVE ( ( 1.000000000000000000, 0.9354287544497315032, 0.9354287544497315032, 1.000000000000000000 ) ) 
 REPRESENTATION_ITEM ( '' )  );
#28 = DIRECTION ( 'NONE',  ( 0.000000000000000000, 2.200000000000000003E-16, -1.000000000000000000 ) ) ;
#29 = EDGE_CURVE ( 'NONE', #867, #1015, #745, .T. ) ;
#30 = VERTEX_POINT ( 'NONE', #1101 ) ;
#31 = CIRCLE ( 'NONE', #226, 4.899999999999999467 ) ;
#32 = CARTESIAN_POINT ( 'NONE',  ( 0.000000000000000000, 4.909999999999999715E-15, -22.10000000000000142 ) ) ;
#33 = AXIS2_PLACEMENT_3D ( 'NONE', #886, #66, #744 ) ;
#34 = ORIENTED_EDGE ( 'NONE', *, *, #873, .F. ) ;
#35 = DIRECTION ( 'NONE',  ( -3.299999999999999882E-16, -1.000000000000000000, 2.200000000000000003E-16 ) ) ;
#36 = CARTESIAN_POINT ( 'NONE',  ( 0.000000000000000000, 4.769999999999999807E-15, -21.50000000000000000 ) ) ;
#37 = ORIENTED_EDGE ( 'NONE', *, *, #1091, .T. ) ;
#38 = EDGE_CURVE ( 'NONE', #454, #377, #1019, .T. ) ;
#39 = CARTESIAN_POINT ( 'NONE',  ( -4.899999999999999467, 6.152076931582203459E-15, -23.09999999999999787 ) ) ;
#40 = VERTEX_POINT ( 'NONE', #474 ) ;
#41 = CARTESIAN_POINT ( 'NONE',  ( 5.500000000000000230E-15, 3.800000000000001155, -20.90000000000000213 ) ) ;
#42 =( NAMED_UNIT ( * ) PLANE_ANGLE_UNIT ( ) SI_UNIT ( $, .RADIAN. ) );
#43 = VERTEX_POINT ( 'NONE', #1096 ) ;
#44 = CYLINDRICAL_SURFACE ( 'NONE', #868, 5.000000000000000000 ) ;
#45 = AXIS2_PLACEMENT_3D ( 'NONE', #501, #419, #871 ) ;
#46 = VERTEX_POINT ( 'NONE', #1115 ) ;
#47 = CYLINDRICAL_SURFACE ( 'NONE', #429, 4.899999999999999467 ) ;
#48 = EDGE_LOOP ( 'NONE', ( #155, #400 ) ) ;
#49 = PRODUCT_CONTEXT ( 'NONE', #404, 'mechanical' ) ;
#50 = AXIS2_PLACEMENT_3D ( 'NONE', #486, #20, #295 ) ;
#51 = ORIENTED_EDGE ( 'NONE', *, *, #92, .F. ) ;
#52 = DIRECTION ( 'NONE',  ( -0.000000000000000000, 1.000000000000000000, 2.200000000000000003E-16 ) ) ;
#53 = DIRECTION ( 'NONE',  ( -1.000000000000000000, 0.000000000000000000, 0.000000000000000000 ) ) ;
#54 = EDGE_LOOP ( 'NONE', ( #410, #477 ) ) ;
#55 =( LENGTH_UNIT ( ) NAMED_UNIT ( * ) SI_UNIT ( .MILLI., .METRE. ) );
#56 = ORIENTED_EDGE ( 'NONE', *, *, #1098, .F. ) ;
#57 = CARTESIAN_POINT ( 'NONE',  ( -1.000000000000000000, 8.583920216899999289, -20.98392021689999964 ) ) ;
#58 = CARTESIAN_POINT ( 'NONE',  ( 0.000000000000000000, 4.769999999999999807E-15, -21.50000000000000000 ) ) ;
#59 = ADVANCED_FACE ( 'NONE', ( #931 ), #73, .F. ) ;
#60 = ORIENTED_EDGE ( 'NONE', *, *, #581, .F. ) ;
#61 = AXIS2_PLACEMENT_3D ( 'NONE', #273, #493, #742 ) ;
#62 = FACE_OUTER_BOUND ( 'NONE', #534, .T. ) ;
#63 = ORIENTED_EDGE ( 'NONE', *, *, #1033, .F. ) ;
#64 = AXIS2_PLACEMENT_3D ( 'NONE', #632, #365, #654 ) ;
#65 = CYLINDRICAL_SURFACE ( 'NONE', #811, 4.899999999999999467 ) ;
#66 = DIRECTION ( 'NONE',  ( 0.000000000000000000, -2.200000000000000003E-16, 1.000000000000000000 ) ) ;
#67 = CARTESIAN_POINT ( 'NONE',  ( 5.500000000000000230E-15, 3.800000000000001155, -20.90000000000000213 ) ) ;
#68 = EDGE_CURVE ( 'NONE', #210, #142, #1123, .T. ) ;
#69 = UNCERTAINTY_MEASURE_WITH_UNIT (LENGTH_MEASURE( 1.000000000000000082E-05 ), #241, 'distance_accuracy_value', 'NONE');
#70 = ORIENTED_EDGE ( 'NONE', *, *, #979, .F. ) ;
#71 = CARTESIAN_POINT ( 'NONE',  ( 0.000000000000000000, 2.999999999999999839E-15, -13.50000000000000000 ) ) ;
#72 = FACE_OUTER_BOUND ( 'NONE', #1053, .T. ) ;
#73 = CYLINDRICAL_SURFACE ( 'NONE', #645, 3.900000000000000799 ) ;
#74 = DIRECTION ( 'NONE',  ( 1.000000000000000000, 0.000000000000000000, 0.000000000000000000 ) ) ;
#75 = EDGE_CURVE ( 'NONE', #43, #216, #1018, .T. ) ;
#76 = EDGE_LOOP ( 'NONE', ( #313, #1132, #628, #145, #748, #414, #1002, #1044 ) ) ;
#77 = LINE ( 'NONE', #456, #122 ) ;
#78 = CARTESIAN_POINT ( 'NONE',  ( 2.615339366124000087, 4.143669871020000173, -21.50000000000000000 ) ) ;
#79 = CYLINDRICAL_SURFACE ( 'NONE', #91, 3.900000000000000799 ) ;
#80 = CIRCLE ( 'NONE', #1104, 5.000000000000000888 ) ;
#81 = VERTEX_POINT ( 'NONE', #1122 ) ;
#82 = DIRECTION ( 'NONE',  ( 0.000000000000000000, 2.200000000000000003E-16, -1.000000000000000000 ) ) ;
#83 = CIRCLE ( 'NONE', #714, 6.000000000000000000 ) ;
#84 = CYLINDRICAL_SURFACE ( 'NONE', #262, 3.899999999999999911 ) ;
#85 = AXIS2_PLACEMENT_3D ( 'NONE', #571, #948, #99 ) ;
#86 = CARTESIAN_POINT ( 'NONE',  ( 4.073387748332531182E-15, -3.900000000000007461, -26.89999999999999858 ) ) ;
#87 = VERTEX_POINT ( 'NONE', #353 ) ;
#88 = CARTESIAN_POINT ( 'NONE',  ( -6.000000000000000000, 5.864788079488411812E-15, -23.09999999999999787 ) ) ;
#89 = VERTEX_POINT ( 'NONE', #826 ) ;
#90 = FACE_OUTER_BOUND ( 'NONE', #393, .T. ) ;
#91 = AXIS2_PLACEMENT_3D ( 'NONE', #939, #445, #553 ) ;
#92 = EDGE_CURVE ( 'NONE', #653, #46, #367, .T. ) ;
#93 = FACE_OUTER_BOUND ( 'NONE', #76, .T. ) ;
#94 = CARTESIAN_POINT ( 'NONE',  ( -4.899999999999999467, 3.552713678800999489E-15, -21.80000000000000071 ) ) ;
#95 = ORIENTED_EDGE ( 'NONE', *, *, #185, .F. ) ;
#96 = DIRECTION ( 'NONE',  ( -4.700000000000002416E-16, 2.891205793294679312E-16, 1.000000000000000000 ) ) ;
#97 = EDGE_CURVE ( 'NONE', #750, #944, #265, .T. ) ;
#98 = FACE_BOUND ( 'NONE', #247, .T. ) ;
#99 = DIRECTION ( 'NONE',  ( -2.900000000000000778E-16, 2.168404344971009608E-16, 1.000000000000000000 ) ) ;
#100 = AXIS2_PLACEMENT_3D ( 'NONE', #369, #487, #749 ) ;
#101 = FACE_OUTER_BOUND ( 'NONE', #743, .T. ) ;
#102 = DIRECTION ( 'NONE',  ( 0.7738791177499200202, -1.445602896647339163E-16, 0.6333333333329339565 ) ) ;
#103 = EDGE_CURVE ( 'NONE', #112, #555, #1113, .T. ) ;
#104 = CARTESIAN_POINT ( 'NONE',  ( -1.000000000000000000, 5.916079783099999823, -18.31607978310000107 ) ) ;
#105 = ORIENTED_EDGE ( 'NONE', *, *, #784, .F. ) ;
#106 = DIRECTION ( 'NONE',  ( -1.000000000000000000, 0.000000000000000000, 0.000000000000000000 ) ) ;
#107 = CARTESIAN_POINT ( 'NONE',  ( 0.000000000000000000, 2.999999999999999839E-15, -13.50000000000000000 ) ) ;
#108 = AXIS2_PLACEMENT_3D ( 'NONE', #36, #218, #245 ) ;
#109 = ORIENTED_EDGE ( 'NONE', *, *, #731, .F. ) ;
#110 = ADVANCED_FACE ( 'NONE', ( #644 ), #79, .F. ) ;
#111 = DIRECTION ( 'NONE',  ( 3.299999999999999882E-16, 1.000000000000000000, -2.200000000000000003E-16 ) ) ;
#112 = VERTEX_POINT ( 'NONE', #86 ) ;
#113 = CARTESIAN_POINT ( 'NONE',  ( 5.999999999999999677E-15, 5.000000000000000000, -20.89999999999999858 ) ) ;
#114 = DIRECTION ( 'NONE',  ( -2.200000000000000003E-16, 2.800000000000000139E-16, 1.000000000000000000 ) ) ;
#115 = ORIENTED_EDGE ( 'NONE', *, *, #747, .F. ) ;
#116 = CARTESIAN_POINT ( 'NONE',  ( 5.000000000000000000, 1.199999999999999935E-14, -23.09999999999999787 ) ) ;
#117 = ORIENTED_EDGE ( 'NONE', *, *, #912, .F. ) ;
#118 = DIRECTION ( 'NONE',  ( 0.000000000000000000, -2.200000000000000003E-16, 1.000000000000000000 ) ) ;
#119 = ADVANCED_FACE ( 'NONE', ( #342, #465 ), #837, .T. ) ;
#120 = CONICAL_SURFACE ( 'NONE', #374, 6.000000000000000000, 0.7853981633970000820 ) ;
#121 = CARTESIAN_POINT ( 'NONE',  ( 7.839999999999999599E-15, 13.40000000000000213, -21.89999999999999858 ) ) ;
#122 = VECTOR ( 'NONE', #828, 1000.000000000000000 ) ;
#123 = EDGE_LOOP ( 'NONE', ( #1175, #997, #318, #786 ) ) ;
#124 = DIRECTION ( 'NONE',  ( -3.099999999999999590E-16, 1.770125995894700709E-16, 1.000000000000000000 ) ) ;
#125 = ORIENTED_EDGE ( 'NONE', *, *, #873, .T. ) ;
#126 = B_SPLINE_CURVE_WITH_KNOTS ( 'NONE', 2,
 ( #1216, #1134, #955 ),
 .UNSPECIFIED., .F., .F.,
 ( 3, 3 ),
 ( 0.000000000000000000, 1.000000000000000000 ),
 .UNSPECIFIED. ) ;
#127 = PLANE ( 'NONE',  #459 ) ;
#128 = DIRECTION ( 'NONE',  ( 0.000000000000000000, -2.200000000000000003E-16, 1.000000000000000000 ) ) ;
#129 = EDGE_CURVE ( 'NONE', #1099, #161, #957, .T. ) ;
#130 = EDGE_LOOP ( 'NONE', ( #439, #299 ) ) ;
#131 = AXIS2_PLACEMENT_3D ( 'NONE', #795, #28, #53 ) ;
#132 = CARTESIAN_POINT ( 'NONE',  ( 1.000000000000000000, 8.583920216899999289, -20.98392021689999964 ) ) ;
#133 = ORIENTED_EDGE ( 'NONE', *, *, #569, .T. ) ;
#134 = CARTESIAN_POINT ( 'NONE',  ( 3.093541659652000231, 3.799999999999999822, -23.09999999999999787 ) ) ;
#135 = DIRECTION ( 'NONE',  ( -0.7071067811865474617, -6.999999999995512468E-17, -0.7071067811865474617 ) ) ;
#136 = ORIENTED_EDGE ( 'NONE', *, *, #331, .T. ) ;
#137 = LINE ( 'NONE', #875, #848 ) ;
#138 = VERTEX_POINT ( 'NONE', #1212 ) ;
#139 = CARTESIAN_POINT ( 'NONE',  ( -2.615339366124000087, 4.261455150533000058, -21.50000000000000000 ) ) ;
#140 = SURFACE_STYLE_USAGE ( .BOTH. , #984 ) ;
#141 = VECTOR ( 'NONE', #1146, 1000.000000000000000 ) ;
#142 = VERTEX_POINT ( 'NONE', #1192 ) ;
#143 = FACE_OUTER_BOUND ( 'NONE', #1200, .T. ) ;
#144 = ADVANCED_FACE ( 'NONE', ( #93 ), #253, .T. ) ;
#145 = ORIENTED_EDGE ( 'NONE', *, *, #694, .F. ) ;
#146 = SPHERICAL_SURFACE ( 'NONE', #523, 4.899999999999999467 ) ;
#147 = VERTEX_POINT ( 'NONE', #541 ) ;
#148 = SURFACE_STYLE_USAGE ( .BOTH. , #710 ) ;
#149 = VECTOR ( 'NONE', #171, 1000.000000000000000 ) ;
#150 = EDGE_CURVE ( 'NONE', #213, #138, #913, .T. ) ;
#151 = VERTEX_POINT ( 'NONE', #9 ) ;
#152 = CYLINDRICAL_SURFACE ( 'NONE', #338, 5.000000000000000888 ) ;
#153 = ORIENTED_EDGE ( 'NONE', *, *, #150, .F. ) ;
#154 = DIRECTION ( 'NONE',  ( -5.199999999999998708E-16, 3.469446951953613696E-16, 1.000000000000000000 ) ) ;
#155 = ORIENTED_EDGE ( 'NONE', *, *, #417, .T. ) ;
#156 = CARTESIAN_POINT ( 'NONE',  ( -0.5402313333679999996, 4.982380160146000492, -20.91468327364000146 ) ) ;
#157 = EDGE_CURVE ( 'NONE', #653, #433, #284, .T. ) ;
#158 = EDGE_CURVE ( 'NONE', #808, #989, #950, .T. ) ;
#159 = CARTESIAN_POINT ( 'NONE',  ( 0.3364707442037979668, 6.028236697834526758, -18.42823669783452090 ) ) ;
#160 = CIRCLE ( 'NONE', #656, 6.000000000000000000 ) ;
#161 = VERTEX_POINT ( 'NONE', #1046 ) ;
#162 = CIRCLE ( 'NONE', #850, 5.999999999999998224 ) ;
#163 = CARTESIAN_POINT ( 'NONE',  ( 0.000000000000000000, 4.659999999999999991E-15, -21.50000000000000000 ) ) ;
#164 = CARTESIAN_POINT ( 'NONE',  ( 5.000000000000000000, 2.999999999999999839E-15, -13.50000000000000000 ) ) ;
#165 = EDGE_CURVE ( 'NONE', #186, #877, #1170, .T. ) ;
#166 =( NAMED_UNIT ( * ) SI_UNIT ( $, .STERADIAN. ) SOLID_ANGLE_UNIT ( ) );
#167 = EDGE_LOOP ( 'NONE', ( #884, #1124, #7 ) ) ;
#168 = DIRECTION ( 'NONE',  ( 1.000000000000000000, 0.000000000000000000, 0.000000000000000000 ) ) ;
#169 = CIRCLE ( 'NONE', #780, 6.000000000000000000 ) ;
#170 = CARTESIAN_POINT ( 'NONE',  ( -2.113899899084000111, 4.428692693544000747, -21.27876755468000169 ) ) ;
#171 = DIRECTION ( 'NONE',  ( 3.299999999999999882E-16, 1.000000000000000000, -2.200000000000000003E-16 ) ) ;
#172 = ORIENTED_EDGE ( 'NONE', *, *, #239, .F. ) ;
#173 = DIRECTION ( 'NONE',  ( 0.000000000000000000, -2.200000000000000003E-16, 1.000000000000000000 ) ) ;
#174 = LINE ( 'NONE', #1011, #794 ) ;
#175 = DIRECTION ( 'NONE',  ( 3.299999999999999882E-16, 1.000000000000000000, -2.200000000000000003E-16 ) ) ;
#176 = STYLED_ITEM ( 'NONE', ( #549 ), #1006 ) ;
#177 = ORIENTED_EDGE ( 'NONE', *, *, #1107, .T. ) ;
#178 = ADVANCED_FACE ( 'NONE', ( #1149 ), #285, .T. ) ;
#179 = DIRECTION ( 'NONE',  ( 3.099999999998013140E-16, 0.7071067811865474617, -0.7071067811865474617 ) ) ;
#180 = CIRCLE ( 'NONE', #969, 5.000000000000000000 ) ;
#181 = CARTESIAN_POINT ( 'NONE',  ( 3.899999999999999911, 7.700000000000000007E-14, -26.89999999999999858 ) ) ;
#182 = B_SPLINE_CURVE_WITH_KNOTS ( 'NONE', 6,
 ( #635, #712, #537, #809, #834, #1184, #631, #1093, #1003, #156, #551, #907 ),
 .UNSPECIFIED., .F., .F.,
 ( 7, 5, 7 ),
 ( 0.000000000000000000, 0.4630089389179999904, 1.000000000000000000 ),
 .UNSPECIFIED. ) ;
#183 = DIRECTION ( 'NONE',  ( 2.199999999999998771E-16, 1.000000000000000000, 0.000000000000000000 ) ) ;
#184 = CARTESIAN_POINT ( 'NONE',  ( 4.899999999999999467, 4.016329068417797160E-15, -21.50000000000000000 ) ) ;
#185 = EDGE_CURVE ( 'NONE', #407, #266, #703, .T. ) ;
#186 = VERTEX_POINT ( 'NONE', #206 ) ;
#187 = CARTESIAN_POINT ( 'NONE',  ( 0.8038250099699999485, 4.947674526850999399, -20.94360430809000206 ) ) ;
#188 = AXIS2_PLACEMENT_3D ( 'NONE', #1052, #1128, #280 ) ;
#189 = CARTESIAN_POINT ( 'NONE',  ( 5.969999999999998795E-15, 3.899999999999993694, -23.00000000000000000 ) ) ;
#190 = AXIS2_PLACEMENT_3D ( 'NONE', #58, #444, #917 ) ;
#191 = FACE_OUTER_BOUND ( 'NONE', #583, .T. ) ;
#192 = CARTESIAN_POINT ( 'NONE',  ( 2.284567106744918696, 3.899999999999943512, -23.00000000000005684 ) ) ;
#193 = DIRECTION ( 'NONE',  ( 1.000000000000000000, 0.000000000000000000, 0.000000000000000000 ) ) ;
#194 = EDGE_CURVE ( 'NONE', #630, #30, #946, .T. ) ;
#195 = DIRECTION ( 'NONE',  ( -2.900000000000000778E-16, 2.168404344971009608E-16, 1.000000000000000000 ) ) ;
#196 = ORIENTED_EDGE ( 'NONE', *, *, #1033, .T. ) ;
#197 =( GEOMETRIC_REPRESENTATION_CONTEXT ( 3 ) GLOBAL_UNCERTAINTY_ASSIGNED_CONTEXT ( ( #69 ) ) GLOBAL_UNIT_ASSIGNED_CONTEXT ( ( #241, #448, #166 ) ) REPRESENTATION_CONTEXT ( 'NONE', 'WORKASPACE' ) );
#198 = CARTESIAN_POINT ( 'NONE',  ( 1.933108303561000163, 4.618428919062000482, -21.21432878234000086 ) ) ;
#199 = DIRECTION ( 'NONE',  ( 0.000000000000000000, -2.200000000000000003E-16, 1.000000000000000000 ) ) ;
#200 = AXIS2_PLACEMENT_3D ( 'NONE', #959, #938, #279 ) ;
#201 = EDGE_CURVE ( 'NONE', #332, #741, #585, .T. ) ;
#202 = ORIENTED_EDGE ( 'NONE', *, *, #663, .T. ) ;
#203 = FACE_OUTER_BOUND ( 'NONE', #1183, .T. ) ;
#204 = ORIENTED_EDGE ( 'NONE', *, *, #927, .F. ) ;
#205 = CARTESIAN_POINT ( 'NONE',  ( 1.146378807948841306E-14, 13.39999999999999858, -32.89999999999999858 ) ) ;
#206 = CARTESIAN_POINT ( 'NONE',  ( 5.697999999999999898E-15, 3.899999999999993694, -21.80000000000000071 ) ) ;
#207 = AXIS2_PLACEMENT_3D ( 'NONE', #1059, #847, #385 ) ;
#208 = EDGE_LOOP ( 'NONE', ( #418, #646, #1147 ) ) ;
#209 = CARTESIAN_POINT ( 'NONE',  ( 0.000000000000000000, 2.999999999999999839E-15, -13.50000000000000000 ) ) ;
#210 = VERTEX_POINT ( 'NONE', #189 ) ;
#211 = CARTESIAN_POINT ( 'NONE',  ( 9.714788079488412447E-15, 3.799999999999998490, -32.89999999999999858 ) ) ;
#212 = DIRECTION ( 'NONE',  ( 3.299999999998145073E-16, 1.000000000000000000, -2.200000000001520040E-16 ) ) ;
#213 = VERTEX_POINT ( 'NONE', #759 ) ;
#214 = FACE_OUTER_BOUND ( 'NONE', #468, .T. ) ;
#215 = EDGE_CURVE ( 'NONE', #989, #492, #998, .T. ) ;
#216 = VERTEX_POINT ( 'NONE', #579 ) ;
#217 = CARTESIAN_POINT ( 'NONE',  ( -6.000000000000000000, 4.698788085184212754E-15, -13.50000000000000000 ) ) ;
#218 = DIRECTION ( 'NONE',  ( 0.000000000000000000, 2.200000000000000003E-16, -1.000000000000000000 ) ) ;
#219 = AXIS2_PLACEMENT_3D ( 'NONE', #910, #738, #1112 ) ;
#220 = ORIENTED_EDGE ( 'NONE', *, *, #231, .T. ) ;
#221 = CARTESIAN_POINT ( 'NONE',  ( -1.000000000000000000, 5.000000000000000000, -17.39999999999999858 ) ) ;
#222 = ORIENTED_EDGE ( 'NONE', *, *, #623, .F. ) ;
#223 = CARTESIAN_POINT ( 'NONE',  ( 2.290659596842000045, 4.338478782462000360, -21.34960489922999827 ) ) ;
#224 = CARTESIAN_POINT ( 'NONE',  ( 4.256281515559911632, 2.853425214844673707, -24.04657478515533597 ) ) ;
#225 = ORIENTED_EDGE ( 'NONE', *, *, #475, .T. ) ;
#226 = AXIS2_PLACEMENT_3D ( 'NONE', #684, #843, #193 ) ;
#227 = DIRECTION ( 'NONE',  ( 3.299999999998145073E-16, 1.000000000000000000, -2.200000000001520040E-16 ) ) ;
#228 = ORIENTED_EDGE ( 'NONE', *, *, #446, .F. ) ;
#229 = DIRECTION ( 'NONE',  ( -3.299999999999999882E-16, -1.000000000000000000, 2.200000000000000003E-16 ) ) ;
#230 = SURFACE_STYLE_FILL_AREA ( #1065 ) ;
#231 = EDGE_CURVE ( 'NONE', #216, #807, #169, .T. ) ;
#232 = ORIENTED_EDGE ( 'NONE', *, *, #75, .F. ) ;
#233 = DIRECTION ( 'NONE',  ( 0.000000000000000000, -2.200000000000000003E-16, 1.000000000000000000 ) ) ;
#234 = ORIENTED_EDGE ( 'NONE', *, *, #158, .T. ) ;
#235 = DIRECTION ( 'NONE',  ( 0.000000000000000000, -2.200000000000000003E-16, 1.000000000000000000 ) ) ;
#236 = DIRECTION ( 'NONE',  ( 1.000000000000000000, 0.000000000000000000, 5.656854249488759346E-17 ) ) ;
#237 = VECTOR ( 'NONE', #469, 1000.000000000000000 ) ;
#238 = CARTESIAN_POINT ( 'NONE',  ( 0.000000000000000000, 5.129999999999999345E-15, -23.09999999999999787 ) ) ;
#239 = EDGE_CURVE ( 'NONE', #337, #30, #919, .T. ) ;
#240 = VECTOR ( 'NONE', #235, 1000.000000000000000 ) ;
#241 =( LENGTH_UNIT ( ) NAMED_UNIT ( * ) SI_UNIT ( .MILLI., .METRE. ) );
#242 = AXIS2_PLACEMENT_3D ( 'NONE', #278, #1139, #1209 ) ;
#243 = EDGE_LOOP ( 'NONE', ( #51, #488, #1084, #1048 ) ) ;
#244 = CARTESIAN_POINT ( 'NONE',  ( -1.000000000000000000, 5.916079783099999823, -20.98392021689999964 ) ) ;
#245 = DIRECTION ( 'NONE',  ( 1.000000000000000000, 0.000000000000000000, 0.000000000000000000 ) ) ;
#246 = ORIENTED_EDGE ( 'NONE', *, *, #12, .T. ) ;
#247 = EDGE_LOOP ( 'NONE', ( #204, #228 ) ) ;
#248 = ADVANCED_FACE ( 'NONE', ( #861 ), #940, .T. ) ;
#249 = CARTESIAN_POINT ( 'NONE',  ( 7.051000000000000387E-15, 8.500000000000003553, -20.90000000000000213 ) ) ;
#250 = PRODUCT_DEFINITION_SHAPE ( 'NONE', 'NONE',  #1173 ) ;
#251 = CIRCLE ( 'NONE', #33, 4.899999999999999467 ) ;
#252 = CARTESIAN_POINT ( 'NONE',  ( -1.734544322404000027, 4.587733992030999630, -21.15233044020000008 ) ) ;
#253 = CYLINDRICAL_SURFACE ( 'NONE', #529, 5.999999999999998224 ) ;
#254 = CARTESIAN_POINT ( 'NONE',  ( 0.000000000000000000, 5.129999999999999345E-15, -23.09999999999999787 ) ) ;
#255 = ORIENTED_EDGE ( 'NONE', *, *, #881, .F. ) ;
#256 = CARTESIAN_POINT ( 'NONE',  ( 0.000000000000000000, 5.129999999999999345E-15, -23.09999999999999787 ) ) ;
#257 = EDGE_CURVE ( 'NONE', #519, #944, #126, .T. ) ;
#258 = CARTESIAN_POINT ( 'NONE',  ( -4.256281515559916073, 2.853425214844670599, -24.04657478515533597 ) ) ;
#259 = DIRECTION ( 'NONE',  ( -4.700000000000002416E-16, 2.891205793294679312E-16, 1.000000000000000000 ) ) ;
#260 = MECHANICAL_DESIGN_GEOMETRIC_PRESENTATION_REPRESENTATION (  '', ( #176 ), #197 ) ;
#261 = ORIENTED_EDGE ( 'NONE', *, *, #480, .F. ) ;
#262 = AXIS2_PLACEMENT_3D ( 'NONE', #732, #825, #818 ) ;
#263 = DIRECTION ( 'NONE',  ( 2.199999999999998771E-16, 1.000000000000000000, 0.000000000000000000 ) ) ;
#264 = CARTESIAN_POINT ( 'NONE',  ( -4.899999999999999467, 4.616405999999999544E-15, -21.50000000000000000 ) ) ;
#265 = LINE ( 'NONE', #920, #856 ) ;
#266 = VERTEX_POINT ( 'NONE', #4 ) ;
#267 = FACE_OUTER_BOUND ( 'NONE', #333, .T. ) ;
#268 = CLOSED_SHELL ( 'NONE', ( #110, #806, #857, #532, #144, #1072, #248, #1130, #821, #963, #1026, #629, #596, #762, #178, #1004, #1150, #637, #380, #687, #560, #438, #678, #768, #119, #372, #1061, #554, #1143, #1195, #373, #588, #947, #344, #1020, #463, #59, #282 ) ) ;
#269 = CARTESIAN_POINT ( 'NONE',  ( -4.899999999999999467, 2.890000000000000023E-15, -13.50000000000000000 ) ) ;
#270 = CARTESIAN_POINT ( 'NONE',  ( 5.969999999999999584E-15, -6.599999999999999961E-15, -26.89999999999999858 ) ) ;
#271 = EDGE_CURVE ( 'NONE', #89, #87, #31, .T. ) ;
#272 = ORIENTED_EDGE ( 'NONE', *, *, #754, .T. ) ;
#273 = CARTESIAN_POINT ( 'NONE',  ( 0.000000000000000000, 5.129999999999999345E-15, -23.09999999999999787 ) ) ;
#274 = CARTESIAN_POINT ( 'NONE',  ( -0.5370132040969999299, 4.882226437277999764, -20.91451516639000019 ) ) ;
#275 = CARTESIAN_POINT ( 'NONE',  ( -5.000000000000000000, 2.387676600426323309E-15, -13.50000000000000000 ) ) ;
#276 = EDGE_CURVE ( 'NONE', #630, #328, #720, .T. ) ;
#277 = ORIENTED_EDGE ( 'NONE', *, *, #194, .F. ) ;
#278 = CARTESIAN_POINT ( 'NONE',  ( 0.000000000000000000, 5.129999999999999345E-15, -23.09999999999999787 ) ) ;
#279 = DIRECTION ( 'NONE',  ( 0.7738791177499200202, -1.445602896647339163E-16, 0.6333333333329339565 ) ) ;
#280 = DIRECTION ( 'NONE',  ( -5.199999999999998708E-16, 3.469446951953613696E-16, 1.000000000000000000 ) ) ;
#281 = CARTESIAN_POINT ( 'NONE',  ( 1.242767660042632316E-14, 13.39999999999999858, -31.89999999999999858 ) ) ;
#282 = ADVANCED_FACE ( 'NONE', ( #98, #479 ), #966, .T. ) ;
#283 = DIRECTION ( 'NONE',  ( 0.000000000000000000, -2.200000000000000003E-16, 1.000000000000000000 ) ) ;
#284 = CIRCLE ( 'NONE', #467, 5.000000000000000000 ) ;
#285 = CYLINDRICAL_SURFACE ( 'NONE', #1094, 4.899999999999999467 ) ;
#286 = CYLINDRICAL_SURFACE ( 'NONE', #461, 5.999999999999998224 ) ;
#287 = ORIENTED_EDGE ( 'NONE', *, *, #1079, .T. ) ;
#288 = DIRECTION ( 'NONE',  ( -3.299999999999999882E-16, -1.000000000000000000, 2.200000000000000003E-16 ) ) ;
#289 = EDGE_CURVE ( 'NONE', #407, #332, #14, .T. ) ;
#290 = LINE ( 'NONE', #1138, #740 ) ;
#291 = DIRECTION ( 'NONE',  ( 0.5472151719793858504, 0.4478342947509968419, 0.7071067811868645414 ) ) ;
#292 = AXIS2_PLACEMENT_3D ( 'NONE', #32, #409, #535 ) ;
#293 = CARTESIAN_POINT ( 'NONE',  ( 5.000000000000000000, 3.880000066000000242E-15, -21.50000000000000000 ) ) ;
#294 = CIRCLE ( 'NONE', #619, 5.000000000000000000 ) ;
#295 = DIRECTION ( 'NONE',  ( -1.000000000000000000, 0.000000000000000000, 0.000000000000000000 ) ) ;
#296 = CIRCLE ( 'NONE', #993, 4.899999999999999467 ) ;
#297 = ORIENTED_EDGE ( 'NONE', *, *, #480, .T. ) ;
#298 = CARTESIAN_POINT ( 'NONE',  ( 4.634387748332532212E-15, -3.900000000000007017, -26.89999999999999858 ) ) ;
#299 = ORIENTED_EDGE ( 'NONE', *, *, #608, .T. ) ;
#300 = FACE_OUTER_BOUND ( 'NONE', #123, .T. ) ;
#301 = DIRECTION ( 'NONE',  ( 0.000000000000000000, -2.200000000000000003E-16, 1.000000000000000000 ) ) ;
#302 = VECTOR ( 'NONE', #727, 1000.000000000000000 ) ;
#303 = ORIENTED_EDGE ( 'NONE', *, *, #129, .F. ) ;
#304 = EDGE_CURVE ( 'NONE', #492, #705, #290, .T. ) ;
#305 = CARTESIAN_POINT ( 'NONE',  ( 0.000000000000000000, 2.999999999999999839E-15, -13.50000000000000000 ) ) ;
#306 = ORIENTED_EDGE ( 'NONE', *, *, #600, .F. ) ;
#307 = CARTESIAN_POINT ( 'NONE',  ( 2.615339366124000087, 4.143669871020000173, -21.50000000000000000 ) ) ;
#308 = LINE ( 'NONE', #601, #363 ) ;
#309 = ORIENTED_EDGE ( 'NONE', *, *, #406, .F. ) ;
#310 = B_SPLINE_CURVE_WITH_KNOTS ( 'NONE', 2,
 ( #6, #1214, #659 ),
 .UNSPECIFIED., .F., .F.,
 ( 3, 3 ),
 ( 0.000000000000000000, 1.000000000000000000 ),
 .UNSPECIFIED. ) ;
#311 = EDGE_CURVE ( 'NONE', #597, #46, #897, .T. ) ;
#312 = CARTESIAN_POINT ( 'NONE',  ( 0.000000000000000000, 5.129999999999999345E-15, -23.09999999999999787 ) ) ;
#313 = ORIENTED_EDGE ( 'NONE', *, *, #75, .T. ) ;
#314 = DIRECTION ( 'NONE',  ( 3.299999999999999882E-16, 1.000000000000000000, -2.200000000000000003E-16 ) ) ;
#315 = AXIS2_PLACEMENT_3D ( 'NONE', #319, #1169, #692 ) ;
#316 = CARTESIAN_POINT ( 'NONE',  ( 4.899999999999999467, 1.199999999999999935E-14, -26.89999999999999858 ) ) ;
#317 = VECTOR ( 'NONE', #1077, 1000.000000000000114 ) ;
#318 = ORIENTED_EDGE ( 'NONE', *, *, #539, .F. ) ;
#319 = CARTESIAN_POINT ( 'NONE',  ( 7.570000000000001129E-15, 4.799999999999999822, -26.89999999999999858 ) ) ;
#320 = EDGE_LOOP ( 'NONE', ( #833, #105, #202, #246 ) ) ;
#321 = LINE ( 'NONE', #41, #395 ) ;
#322 = EDGE_CURVE ( 'NONE', #808, #915, #876, .T. ) ;
#323 = CARTESIAN_POINT ( 'NONE',  ( 1.000000000000000000, 8.583920216899999289, -20.98392021689999964 ) ) ;
#324 = ORIENTED_EDGE ( 'NONE', *, *, #239, .T. ) ;
#325 = VECTOR ( 'NONE', #765, 1000.000000000000000 ) ;
#326 = SPHERICAL_SURFACE ( 'NONE', #1085, 3.899999999999999911 ) ;
#327 = PRODUCT ( 'Body003.step', 'Body003.step', '', ( #49 ) ) ;
#328 = VERTEX_POINT ( 'NONE', #1174 ) ;
#329 = DIRECTION ( 'NONE',  ( 3.299999999998145073E-16, 1.000000000000000000, -2.200000000001520040E-16 ) ) ;
#330 = DIRECTION ( 'NONE',  ( -3.096279052992470215E-29, -2.200000000000254904E-16, 1.000000000000000000 ) ) ;
#331 = EDGE_CURVE ( 'NONE', #407, #1159, #308, .T. ) ;
#332 = VERTEX_POINT ( 'NONE', #1161 ) ;
#333 = EDGE_LOOP ( 'NONE', ( #1080, #234, #460, #580, #297, #1162, #1110 ) ) ;
#334 = DIRECTION ( 'NONE',  ( -2.200000000000000003E-16, 2.800000000000000139E-16, 1.000000000000000000 ) ) ;
#335 = FILL_AREA_STYLE_COLOUR ( '', #943 ) ;
#336 = AXIS2_PLACEMENT_3D ( 'NONE', #381, #958, #761 ) ;
#337 = VERTEX_POINT ( 'NONE', #800 ) ;
#338 = AXIS2_PLACEMENT_3D ( 'NONE', #1088, #1023, #824 ) ;
#339 = ORIENTED_EDGE ( 'NONE', *, *, #842, .F. ) ;
#340 = CARTESIAN_POINT ( 'NONE',  ( -0.3352880080321654077, 8.499999999999692690, -20.89999999999969305 ) ) ;
#341 = DIRECTION ( 'NONE',  ( 0.000000000000000000, -2.200000000000000003E-16, 1.000000000000000000 ) ) ;
#342 = FACE_BOUND ( 'NONE', #54, .T. ) ;
#343 = AXIS2_PLACEMENT_3D ( 'NONE', #1042, #752, #855 ) ;
#344 = ADVANCED_FACE ( 'NONE', ( #788 ), #819, .T. ) ;
#345 = ORIENTED_EDGE ( 'NONE', *, *, #716, .F. ) ;
#346 = FACE_OUTER_BOUND ( 'NONE', #536, .T. ) ;
#347 =( GEOMETRIC_REPRESENTATION_CONTEXT ( 3 ) GLOBAL_UNCERTAINTY_ASSIGNED_CONTEXT ( ( #1032 ) ) GLOBAL_UNIT_ASSIGNED_CONTEXT ( ( #522, #42, #892 ) ) REPRESENTATION_CONTEXT ( 'NONE', 'WORKASPACE' ) );
#348 = CARTESIAN_POINT ( 'NONE',  ( 7.570000000000001129E-15, 4.799999999999999822, -26.89999999999999858 ) ) ;
#349 = DIRECTION ( 'NONE',  ( 1.000000000000000000, 0.000000000000000000, 0.000000000000000000 ) ) ;
#350 = ORIENTED_EDGE ( 'NONE', *, *, #894, .T. ) ;
#351 = CARTESIAN_POINT ( 'NONE',  ( -0.6694015656941758596, 8.528038882228049289, -20.92803888222804787 ) ) ;
#352 = FACE_OUTER_BOUND ( 'NONE', #1171, .T. ) ;
#353 = CARTESIAN_POINT ( 'NONE',  ( 4.899999999999999467, 1.199999999999999935E-14, -26.89999999999999858 ) ) ;
#354 = AXIS2_PLACEMENT_3D ( 'NONE', #1014, #921, #74 ) ;
#355 = APPLICATION_PROTOCOL_DEFINITION ( 'draft international standard', 'automotive_design', 1998, #594 ) ;
#356 = ORIENTED_EDGE ( 'NONE', *, *, #289, .T. ) ;
#357 = CIRCLE ( 'NONE', #1205, 6.000000000000000000 ) ;
#358 = CARTESIAN_POINT ( 'NONE',  ( 4.073387748332531971E-15, -3.900000000000005684, -21.80000000000000071 ) ) ;
#359 = DIRECTION ( 'NONE',  ( 3.299999999999999882E-16, 1.000000000000000000, -2.200000000000000003E-16 ) ) ;
#360 = CARTESIAN_POINT ( 'NONE',  ( 7.239999999999999316E-15, 3.799999999999999822, -26.89999999999999858 ) ) ;
#361 = ORIENTED_EDGE ( 'NONE', *, *, #304, .F. ) ;
#362 = LINE ( 'NONE', #1125, #933 ) ;
#363 = VECTOR ( 'NONE', #135, 1000.000000000000114 ) ;
#364 = ORIENTED_EDGE ( 'NONE', *, *, #694, .T. ) ;
#365 = DIRECTION ( 'NONE',  ( -3.096279052992470215E-29, -2.200000000000254904E-16, 1.000000000000000000 ) ) ;
#366 = EDGE_CURVE ( 'NONE', #87, #750, #396, .T. ) ;
#367 = LINE ( 'NONE', #275, #627 ) ;
#368 = VERTEX_POINT ( 'NONE', #898 ) ;
#369 = CARTESIAN_POINT ( 'NONE',  ( 0.000000000000000000, 5.969999999999999584E-15, -26.89999999999999858 ) ) ;
#370 = CARTESIAN_POINT ( 'NONE',  ( 1.060373282237000225, 4.897013986392999563, -20.98570414394000139 ) ) ;
#371 = DIRECTION ( 'NONE',  ( 1.000000000000000000, 0.000000000000000000, 0.000000000000000000 ) ) ;
#372 = ADVANCED_FACE ( 'NONE', ( #999 ), #698, .T. ) ;
#373 = ADVANCED_FACE ( 'NONE', ( #1167 ), #690, .T. ) ;
#374 = AXIS2_PLACEMENT_3D ( 'NONE', #1062, #233, #615 ) ;
#375 = CYLINDRICAL_SURFACE ( 'NONE', #61, 6.000000000000000000 ) ;
#376 = VECTOR ( 'NONE', #341, 1000.000000000000000 ) ;
#377 = VERTEX_POINT ( 'NONE', #323 ) ;
#378 = CYLINDRICAL_SURFACE ( 'NONE', #734, 4.899999999999999467 ) ;
#379 = DIRECTION ( 'NONE',  ( 2.200000000000000989E-16, 1.000000000000000000, 0.000000000000000000 ) ) ;
#380 = ADVANCED_FACE ( 'NONE', ( #1073 ), #47, .F. ) ;
#381 = CARTESIAN_POINT ( 'NONE',  ( 0.000000000000000000, 5.129999999999999345E-15, -23.09999999999999787 ) ) ;
#382 = ORIENTED_EDGE ( 'NONE', *, *, #836, .F. ) ;
#383 = DIRECTION ( 'NONE',  ( 0.7738791177499200202, 0.6333333333329340675, 0.000000000000000000 ) ) ;
#384 = AXIS2_PLACEMENT_3D ( 'NONE', #1037, #677, #389 ) ;
#385 = DIRECTION ( 'NONE',  ( 1.000000000000000000, -3.599999999999999826E-16, 0.000000000000000000 ) ) ;
#386 = CARTESIAN_POINT ( 'NONE',  ( 4.250000000000000034E-15, 3.799999999999999822, -23.09999999999999787 ) ) ;
#387 = EDGE_CURVE ( 'NONE', #944, #368, #491, .T. ) ;
#388 = CARTESIAN_POINT ( 'NONE',  ( 2.291314083924000045, 4.450654974277999720, -21.34990466504999773 ) ) ;
#389 = DIRECTION ( 'NONE',  ( 1.000000000000000000, 0.000000000000000000, 0.000000000000000000 ) ) ;
#390 = ORIENTED_EDGE ( 'NONE', *, *, #92, .T. ) ;
#391 = CARTESIAN_POINT ( 'NONE',  ( 7.570000000000001129E-15, 4.799999999999999822, -26.89999999999999858 ) ) ;
#392 = CIRCLE ( 'NONE', #574, 5.000000000000000000 ) ;
#393 = EDGE_LOOP ( 'NONE', ( #961, #980, #1168 ) ) ;
#394 = CARTESIAN_POINT ( 'NONE',  ( 0.000000000000000000, 2.999999999999999839E-15, -13.50000000000000000 ) ) ;
#395 = VECTOR ( 'NONE', #431, 1000.000000000000000 ) ;
#396 =( BOUNDED_CURVE ( )  B_SPLINE_CURVE ( 3, ( #316, #1089, #224, #994 ),
 .UNSPECIFIED., .F., .F. ) 
 B_SPLINE_CURVE_WITH_KNOTS ( ( 4, 4 ),
 ( 4.712388980384690562, 5.599911809987399458 ),
 .UNSPECIFIED. ) 
 CURVE ( )  GEOMETRIC_REPRESENTATION_ITEM ( )  RATIONAL_B_SPLINE_CURVE ( ( 1.000000000000000000, 0.9354287544497319473, 0.9354287544497319473, 1.000000000000000000 ) ) 
 REPRESENTATION_ITEM ( '' )  );
#397 = DIRECTION ( 'NONE',  ( 0.7738791177499200202, -1.445602896647339163E-16, 0.6333333333329339565 ) ) ;
#398 = AXIS2_PLACEMENT_3D ( 'NONE', #1119, #935, #582 ) ;
#399 = EDGE_CURVE ( 'NONE', #705, #597, #1116, .T. ) ;
#400 = ORIENTED_EDGE ( 'NONE', *, *, #322, .T. ) ;
#401 = DIRECTION ( 'NONE',  ( 3.299999999999999882E-16, 1.000000000000000000, -2.200000000000000003E-16 ) ) ;
#402 = ORIENTED_EDGE ( 'NONE', *, *, #387, .F. ) ;
#403 = DIRECTION ( 'NONE',  ( 0.7738791177499200202, -1.445602896647339163E-16, 0.6333333333329339565 ) ) ;
#404 = APPLICATION_CONTEXT ( 'automotive_design' ) ;
#405 = AXIS2_PLACEMENT_3D ( 'NONE', #777, #114, #379 ) ;
#406 = EDGE_CURVE ( 'NONE', #40, #555, #473, .T. ) ;
#407 = VERTEX_POINT ( 'NONE', #1178 ) ;
#408 = MECHANICAL_DESIGN_GEOMETRIC_PRESENTATION_REPRESENTATION (  '', ( #1039 ), #347 ) ;
#409 = DIRECTION ( 'NONE',  ( 0.000000000000000000, 2.200000000000000003E-16, -1.000000000000000000 ) ) ;
#410 = ORIENTED_EDGE ( 'NONE', *, *, #276, .F. ) ;
#411 = DIRECTION ( 'NONE',  ( 1.000000000000000000, 0.000000000000000000, 0.000000000000000000 ) ) ;
#412 = DIRECTION ( 'NONE',  ( -1.000000000000000000, 0.000000000000000000, 0.000000000000000000 ) ) ;
#413 = MANIFOLD_SOLID_BREP ( '1_8 NPT - 1_4 Inch Push to Connect Elbow Fitting.step<1>', #268 ) ;
#414 = ORIENTED_EDGE ( 'NONE', *, *, #38, .F. ) ;
#415 =( BOUNDED_CURVE ( )  B_SPLINE_CURVE ( 3, ( #181, #489, #192, #1127 ),
 .UNSPECIFIED., .F., .F. ) 
 B_SPLINE_CURVE_WITH_KNOTS ( ( 4, 4 ),
 ( 4.712388980384700332, 6.283185307179586232 ),
 .UNSPECIFIED. ) 
 CURVE ( )  GEOMETRIC_REPRESENTATION_ITEM ( )  RATIONAL_B_SPLINE_CURVE ( ( 1.000000000000000000, 0.8047378541243676020, 0.8047378541243676020, 1.000000000000000000 ) ) 
 REPRESENTATION_ITEM ( '' )  );
#416 = DIRECTION ( 'NONE',  ( 1.000000000000000000, 0.000000000000000000, 0.000000000000000000 ) ) ;
#417 = EDGE_CURVE ( 'NONE', #915, #808, #251, .T. ) ;
#418 = ORIENTED_EDGE ( 'NONE', *, *, #663, .F. ) ;
#419 = DIRECTION ( 'NONE',  ( 0.000000000000000000, -6.400000000000000458E-16, 1.000000000000000000 ) ) ;
#420 = AXIS2_PLACEMENT_3D ( 'NONE', #557, #642, #464 ) ;
#421 = ORIENTED_EDGE ( 'NONE', *, *, #29, .T. ) ;
#422 = DIRECTION ( 'NONE',  ( -2.200000000000000003E-16, 2.800000000000000139E-16, 1.000000000000000000 ) ) ;
#423 = EDGE_CURVE ( 'NONE', #433, #597, #1005, .T. ) ;
#424 = ORIENTED_EDGE ( 'NONE', *, *, #1217, .F. ) ;
#425 = CARTESIAN_POINT ( 'NONE',  ( 5.999999999999999677E-15, 4.899999999999999467, -20.89999999999999858 ) ) ;
#426 = DIRECTION ( 'NONE',  ( -3.999999999997440186E-17, 0.7071067811865475727, 0.7071067811865475727 ) ) ;
#427 = ORIENTED_EDGE ( 'NONE', *, *, #311, .F. ) ;
#428 = VECTOR ( 'NONE', #301, 1000.000000000000000 ) ;
#429 = AXIS2_PLACEMENT_3D ( 'NONE', #515, #128, #432 ) ;
#430 = ORIENTED_EDGE ( 'NONE', *, *, #129, .T. ) ;
#431 = DIRECTION ( 'NONE',  ( 3.299999999999999882E-16, 1.000000000000000000, -2.200000000000000003E-16 ) ) ;
#432 = DIRECTION ( 'NONE',  ( -1.000000000000000000, 0.000000000000000000, 0.000000000000000000 ) ) ;
#433 = VERTEX_POINT ( 'NONE', #164 ) ;
#434 = ORIENTED_EDGE ( 'NONE', *, *, #1041, .T. ) ;
#435 = DIRECTION ( 'NONE',  ( -1.000000000000000000, 0.000000000000000000, 0.000000000000000000 ) ) ;
#436 = DIRECTION ( 'NONE',  ( 3.299999999999999882E-16, 1.000000000000000000, -2.200000000000000003E-16 ) ) ;
#437 = VECTOR ( 'NONE', #512, 1000.000000000000114 ) ;
#438 = ADVANCED_FACE ( 'NONE', ( #352 ), #538, .F. ) ;
#439 = ORIENTED_EDGE ( 'NONE', *, *, #19, .T. ) ;
#440 = AXIS2_PLACEMENT_3D ( 'NONE', #256, #543, #168 ) ;
#441 = PLANE ( 'NONE',  #791 ) ;
#442 = VERTEX_POINT ( 'NONE', #264 ) ;
#443 = CARTESIAN_POINT ( 'NONE',  ( 0.000000000000000000, 2.890000000000000023E-15, -13.50000000000000000 ) ) ;
#444 = DIRECTION ( 'NONE',  ( 0.000000000000000000, 2.200000000000000003E-16, -1.000000000000000000 ) ) ;
#445 = DIRECTION ( 'NONE',  ( 3.299999999999999882E-16, 1.000000000000000000, -2.200000000000000003E-16 ) ) ;
#446 = EDGE_CURVE ( 'NONE', #706, #498, #5, .T. ) ;
#447 = CIRCLE ( 'NONE', #470, 5.999999999999998224 ) ;
#448 =( NAMED_UNIT ( * ) PLANE_ANGLE_UNIT ( ) SI_UNIT ( $, .RADIAN. ) );
#449 = VERTEX_POINT ( 'NONE', #1185 ) ;
#450 = CARTESIAN_POINT ( 'NONE',  ( 0.000000000000000000, 5.969999999999999584E-15, -26.89999999999999858 ) ) ;
#451 = CARTESIAN_POINT ( 'NONE',  ( -1.054941636151000228, 4.795953526819999979, -20.98484036063999980 ) ) ;
#452 = CARTESIAN_POINT ( 'NONE',  ( 5.969999999999998795E-15, 3.899999999999993694, -23.00000000000000000 ) ) ;
#453 = APPLICATION_PROTOCOL_DEFINITION ( 'draft international standard', 'automotive_design', 1998, #404 ) ;
#454 = VERTEX_POINT ( 'NONE', #544 ) ;
#455 = EDGE_CURVE ( 'NONE', #40, #706, #174, .T. ) ;
#456 = CARTESIAN_POINT ( 'NONE',  ( -1.000000000000000000, 3.799999999999999822, -20.98392021689999964 ) ) ;
#457 = LINE ( 'NONE', #830, #773 ) ;
#458 = CARTESIAN_POINT ( 'NONE',  ( 7.239999999999999316E-15, 3.799999999999999822, -26.89999999999999858 ) ) ;
#459 = AXIS2_PLACEMENT_3D ( 'NONE', #591, #229, #696 ) ;
#460 = ORIENTED_EDGE ( 'NONE', *, *, #215, .T. ) ;
#461 = AXIS2_PLACEMENT_3D ( 'NONE', #652, #111, #1135 ) ;
#462 = DIRECTION ( 'NONE',  ( 1.000000000000000000, 0.000000000000000000, 0.000000000000000000 ) ) ;
#463 = ADVANCED_FACE ( 'NONE', ( #72 ), #84, .F. ) ;
#464 = DIRECTION ( 'NONE',  ( -2.199999999999998278E-16, 2.224004456380521410E-16, 1.000000000000000000 ) ) ;
#465 = FACE_OUTER_BOUND ( 'NONE', #130, .T. ) ;
#466 = B_SPLINE_CURVE_WITH_KNOTS ( 'NONE', 6,
 ( #113, #1140, #13, #187, #370, #758, #1045, #198, #568, #388, #846, #1051 ),
 .UNSPECIFIED., .F., .F.,
 ( 7, 5, 7 ),
 ( 0.000000000000000000, 0.5363490002079999153, 1.000000000000000000 ),
 .UNSPECIFIED. ) ;
#467 = AXIS2_PLACEMENT_3D ( 'NONE', #107, #670, #592 ) ;
#468 = EDGE_LOOP ( 'NONE', ( #115, #37, #859, #309 ) ) ;
#469 = DIRECTION ( 'NONE',  ( 0.000000000000000000, -2.200000000000000003E-16, 1.000000000000000000 ) ) ;
#470 = AXIS2_PLACEMENT_3D ( 'NONE', #899, #1180, #259 ) ;
#471 = ORIENTED_EDGE ( 'NONE', *, *, #215, .F. ) ;
#472 = DIRECTION ( 'NONE',  ( 1.000000000000000000, -2.200000000000000003E-16, 2.200000000000000003E-16 ) ) ;
#473 = CIRCLE ( 'NONE', #941, 3.900000000000000799 ) ;
#474 = CARTESIAN_POINT ( 'NONE',  ( 8.147112251667455880E-15, -7.457999999999997731E-15, -30.80000000000000071 ) ) ;
#475 = EDGE_CURVE ( 'NONE', #210, #498, #719, .T. ) ;
#476 = CARTESIAN_POINT ( 'NONE',  ( 4.643274706499520121, 3.799999999997609290, -22.10000000000000142 ) ) ;
#477 = ORIENTED_EDGE ( 'NONE', *, *, #1187, .F. ) ;
#478 = DIRECTION ( 'NONE',  ( -2.200000000000000003E-16, 2.800000000000000139E-16, 1.000000000000000000 ) ) ;
#479 = FACE_OUTER_BOUND ( 'NONE', #25, .T. ) ;
#480 = EDGE_CURVE ( 'NONE', #213, #561, #815, .T. ) ;
#481 = COLOUR_RGB ( '',0.2274509803921568596, 0.2274509803921568596, 0.2274509803921568596 ) ;
#482 = LINE ( 'NONE', #476, #620 ) ;
#483 = VECTOR ( 'NONE', #314, 1000.000000000000000 ) ;
#484 = ORIENTED_EDGE ( 'NONE', *, *, #158, .F. ) ;
#485 = CARTESIAN_POINT ( 'NONE',  ( 0.000000000000000000, 4.909999999999999715E-15, -22.10000000000000142 ) ) ;
#486 = CARTESIAN_POINT ( 'NONE',  ( 0.000000000000000000, 4.659999999999999991E-15, -21.50000000000000000 ) ) ;
#487 = DIRECTION ( 'NONE',  ( 0.000000000000000000, -2.200000000000000003E-16, 1.000000000000000000 ) ) ;
#488 = ORIENTED_EDGE ( 'NONE', *, *, #1069, .F. ) ;
#489 = CARTESIAN_POINT ( 'NONE',  ( 3.899999999999987921, 2.284567106744913811, -24.61543289325507899 ) ) ;
#490 = DIRECTION ( 'NONE',  ( 3.299999999999999882E-16, 1.000000000000000000, -2.200000000000000003E-16 ) ) ;
#491 = CIRCLE ( 'NONE', #1001, 4.999999999999999112 ) ;
#492 = VERTEX_POINT ( 'NONE', #78 ) ;
#493 = DIRECTION ( 'NONE',  ( 0.000000000000000000, -2.200000000000000003E-16, 1.000000000000000000 ) ) ;
#494 = EDGE_CURVE ( 'NONE', #454, #867, #457, .T. ) ;
#495 = ORIENTED_EDGE ( 'NONE', *, *, #799, .F. ) ;
#496 = CARTESIAN_POINT ( 'NONE',  ( -3.600000069047000206, 4.799999999999999822, -22.10000005178000038 ) ) ;
#497 = CARTESIAN_POINT ( 'NONE',  ( 4.899999999999999467, 2.289923068417796851E-15, -13.50000000000000000 ) ) ;
#498 = VERTEX_POINT ( 'NONE', #1204 ) ;
#499 = FACE_OUTER_BOUND ( 'NONE', #862, .T. ) ;
#500 = EDGE_LOOP ( 'NONE', ( #882, #602, #350, #1057, #823, #651, #699, #1102 ) ) ;
#501 = CARTESIAN_POINT ( 'NONE',  ( 2.800000000000000139E-16, 8.881784197000999888E-15, -21.80000000000000071 ) ) ;
#502 = EDGE_CURVE ( 'NONE', #368, #1099, #990, .T. ) ;
#503 = CIRCLE ( 'NONE', #911, 6.000000000000000000 ) ;
#504 = DIRECTION ( 'NONE',  ( -3.299999999999999882E-16, -1.000000000000000000, 2.200000000000000003E-16 ) ) ;
#505 = ORIENTED_EDGE ( 'NONE', *, *, #1164, .T. ) ;
#506 = CARTESIAN_POINT ( 'NONE',  ( 7.051000000000000387E-15, 8.500000000000003553, -20.90000000000000213 ) ) ;
#507 = ORIENTED_EDGE ( 'NONE', *, *, #257, .T. ) ;
#508 = CARTESIAN_POINT ( 'NONE',  ( 0.000000000000000000, 5.969999999999999584E-15, -26.89999999999999858 ) ) ;
#509 = AXIS2_PLACEMENT_3D ( 'NONE', #1155, #527, #412 ) ;
#510 = CARTESIAN_POINT ( 'NONE',  ( 7.239999999999999316E-15, 3.799999999999999822, -26.89999999999999858 ) ) ;
#511 = ORIENTED_EDGE ( 'NONE', *, *, #271, .T. ) ;
#512 = DIRECTION ( 'NONE',  ( 3.099999999998013140E-16, 0.7071067811865474617, -0.7071067811865474617 ) ) ;
#513 = ORIENTED_EDGE ( 'NONE', *, *, #547, .T. ) ;
#514 = CARTESIAN_POINT ( 'NONE',  ( 4.643274706499528115, 4.799999999999998934, -23.10000000000239595 ) ) ;
#515 = CARTESIAN_POINT ( 'NONE',  ( 0.000000000000000000, 2.890000000000000023E-15, -13.50000000000000000 ) ) ;
#516 = EDGE_LOOP ( 'NONE', ( #1156, #95, #356, #974 ) ) ;
#517 = EDGE_CURVE ( 'NONE', #915, #442, #810, .T. ) ;
#518 = DIRECTION ( 'NONE',  ( -0.5472151719793856284, 0.7071067811868645414, -0.4478342947509972305 ) ) ;
#519 = VERTEX_POINT ( 'NONE', #1024 ) ;
#520 = CARTESIAN_POINT ( 'NONE',  ( 0.2699221620940000510, 4.899999999999999467, -20.89999999999999858 ) ) ;
#521 = AXIS2_PLACEMENT_3D ( 'NONE', #1043, #567, #195 ) ;
#522 =( LENGTH_UNIT ( ) NAMED_UNIT ( * ) SI_UNIT ( .MILLI., .METRE. ) );
#523 = AXIS2_PLACEMENT_3D ( 'NONE', #508, #52, #411 ) ;
#524 = EDGE_LOOP ( 'NONE', ( #616, #664, #60, #507 ) ) ;
#525 = ORIENTED_EDGE ( 'NONE', *, *, #289, .F. ) ;
#526 = CARTESIAN_POINT ( 'NONE',  ( 1.947764254627067038, 5.755878384644385726, -21.14412161535561907 ) ) ;
#527 = DIRECTION ( 'NONE',  ( 0.000000000000000000, -2.200000000000000003E-16, 1.000000000000000000 ) ) ;
#528 = DIRECTION ( 'NONE',  ( 1.000000000000000000, 0.000000000000000000, 0.000000000000000000 ) ) ;
#529 = AXIS2_PLACEMENT_3D ( 'NONE', #360, #746, #1007 ) ;
#530 = ORIENTED_EDGE ( 'NONE', *, *, #849, .F. ) ;
#531 = DIRECTION ( 'NONE',  ( 0.000000000000000000, 2.200000000000000003E-16, -1.000000000000000000 ) ) ;
#532 = ADVANCED_FACE ( 'NONE', ( #1210 ), #697, .T. ) ;
#533 = DIRECTION ( 'NONE',  ( 0.000000000000000000, 2.200000000000000003E-16, -1.000000000000000000 ) ) ;
#534 = EDGE_LOOP ( 'NONE', ( #34, #542, #1029 ) ) ;
#535 = DIRECTION ( 'NONE',  ( 1.000000000000000000, 0.000000000000000000, 0.000000000000000000 ) ) ;
#536 = EDGE_LOOP ( 'NONE', ( #1145, #904, #1120, #525, #306, #424, #272, #685, #421, #70, #845 ) ) ;
#537 = CARTESIAN_POINT ( 'NONE',  ( -2.291792833984000133, 4.450388873379000465, -21.35011691768000119 ) ) ;
#538 = PLANE ( 'NONE',  #190 ) ;
#539 = EDGE_CURVE ( 'NONE', #1070, #89, #27, .T. ) ;
#540 = CIRCLE ( 'NONE', #2, 4.900000000000001243 ) ;
#541 = CARTESIAN_POINT ( 'NONE',  ( 3.869395588750296877, 3.166666666665244989, -23.09999999999999787 ) ) ;
#542 = ORIENTED_EDGE ( 'NONE', *, *, #979, .T. ) ;
#543 = DIRECTION ( 'NONE',  ( 0.000000000000000000, -2.200000000000000003E-16, 1.000000000000000000 ) ) ;
#544 = CARTESIAN_POINT ( 'NONE',  ( 1.000000000000000000, 5.916079783099999823, -20.98392021689999964 ) ) ;
#545 = EDGE_CURVE ( 'NONE', #797, #81, #918, .T. ) ;
#546 = DIRECTION ( 'NONE',  ( 1.000000000000000000, -3.299999999999999882E-16, 0.000000000000000000 ) ) ;
#547 = EDGE_CURVE ( 'NONE', #877, #186, #1144, .T. ) ;
#548 = AXIS2_PLACEMENT_3D ( 'NONE', #238, #995, #528 ) ;
#549 = PRESENTATION_STYLE_ASSIGNMENT (( #148 ) ) ;
#550 = ORIENTED_EDGE ( 'NONE', *, *, #68, .T. ) ;
#551 = CARTESIAN_POINT ( 'NONE',  ( -0.2709520977529999985, 5.000000000000000000, -20.89999999999999858 ) ) ;
#552 = CARTESIAN_POINT ( 'NONE',  ( -2.456883735228000187, 4.243681518223000104, -21.42325643531999901 ) ) ;
#553 = DIRECTION ( 'NONE',  ( -2.199999999999998278E-16, 2.199999999999998278E-16, 1.000000000000000000 ) ) ;
#554 = ADVANCED_FACE ( 'NONE', ( #584, #854 ), #751, .F. ) ;
#555 = VERTEX_POINT ( 'NONE', #669 ) ;
#556 = DIRECTION ( 'NONE',  ( -1.000000000000000000, 0.000000000000000000, 0.000000000000000000 ) ) ;
#557 = CARTESIAN_POINT ( 'NONE',  ( 7.670000000000000387E-15, 5.100000000000000533, -26.89999999999999858 ) ) ;
#558 = CARTESIAN_POINT ( 'NONE',  ( -0.3364707442037973562, 6.028236697834526758, -18.42823669783452090 ) ) ;
#559 =( GEOMETRIC_REPRESENTATION_CONTEXT ( 3 ) GLOBAL_UNCERTAINTY_ASSIGNED_CONTEXT ( ( #1117 ) ) GLOBAL_UNIT_ASSIGNED_CONTEXT ( ( #55, #633, #996 ) ) REPRESENTATION_CONTEXT ( 'NONE', 'WORKASPACE' ) );
#560 = ADVANCED_FACE ( 'NONE', ( #300 ), #776, .T. ) ;
#561 = VERTEX_POINT ( 'NONE', #8 ) ;
#562 = AXIS2_PLACEMENT_3D ( 'NONE', #674, #954, #756 ) ;
#563 = FACE_OUTER_BOUND ( 'NONE', #1082, .T. ) ;
#564 = CARTESIAN_POINT ( 'NONE',  ( -2.831033344281460806, 5.376725004497207472, -21.52327499550279555 ) ) ;
#565 = CARTESIAN_POINT ( 'NONE',  ( 1.000000000000000000, 3.799999999999999822, -20.98392021689999964 ) ) ;
#566 = VECTOR ( 'NONE', #866, 1000.000000000000000 ) ;
#567 = DIRECTION ( 'NONE',  ( 3.299999999999999882E-16, 1.000000000000000000, -2.200000000000000003E-16 ) ) ;
#568 = CARTESIAN_POINT ( 'NONE',  ( 2.116597287436000396, 4.537644913457000939, -21.27987095761999825 ) ) ;
#569 = EDGE_CURVE ( 'NONE', #555, #210, #415, .T. ) ;
#570 = CARTESIAN_POINT ( 'NONE',  ( 7.570000000000001129E-15, 4.799999999999999822, -26.89999999999999858 ) ) ;
#571 = CARTESIAN_POINT ( 'NONE',  ( 7.239999999999999316E-15, 3.799999999999999822, -26.89999999999999858 ) ) ;
#572 = DIRECTION ( 'NONE',  ( 1.000000000000000000, 0.000000000000000000, 0.000000000000000000 ) ) ;
#573 = CARTESIAN_POINT ( 'NONE',  ( 6.000000000000000000, 5.129999999999999345E-15, -23.09999999999999787 ) ) ;
#574 = AXIS2_PLACEMENT_3D ( 'NONE', #312, #962, #968 ) ;
#575 = CYLINDRICAL_SURFACE ( 'NONE', #100, 4.899999999999999467 ) ;
#576 = CIRCLE ( 'NONE', #200, 6.000000000000000000 ) ;
#577 = EDGE_LOOP ( 'NONE', ( #789, #803, #816, #681, #550 ) ) ;
#578 = CARTESIAN_POINT ( 'NONE',  ( -1.000000000000000000, 5.916079783099999823, -20.98392021689999964 ) ) ;
#579 = CARTESIAN_POINT ( 'NONE',  ( 1.146378807948841306E-14, 4.799999999999998046, -32.89999999999999858 ) ) ;
#580 = ORIENTED_EDGE ( 'NONE', *, *, #731, .T. ) ;
#581 = EDGE_CURVE ( 'NONE', #519, #43, #576, .T. ) ;
#582 = DIRECTION ( 'NONE',  ( -1.000000000000000000, 0.000000000000000000, 0.000000000000000000 ) ) ;
#583 = EDGE_LOOP ( 'NONE', ( #261, #1074, #530, #614 ) ) ;
#584 = FACE_BOUND ( 'NONE', #609, .T. ) ;
#585 = CIRCLE ( 'NONE', #10, 6.000000000000000000 ) ;
#586 = CARTESIAN_POINT ( 'NONE',  ( 0.000000000000000000, 5.969999999999999584E-15, -26.89999999999999858 ) ) ;
#587 = ORIENTED_EDGE ( 'NONE', *, *, #399, .F. ) ;
#588 = ADVANCED_FACE ( 'NONE', ( #90 ), #1036, .T. ) ;
#589 = CARTESIAN_POINT ( 'NONE',  ( 0.000000000000000000, 5.129999999999999345E-15, -23.09999999999999787 ) ) ;
#590 = EDGE_LOOP ( 'NONE', ( #1136, #339 ) ) ;
#591 = CARTESIAN_POINT ( 'NONE',  ( 7.239999999999999316E-15, 3.799999999999999822, -26.89999999999999858 ) ) ;
#592 = DIRECTION ( 'NONE',  ( 1.000000000000000000, 0.000000000000000000, 0.000000000000000000 ) ) ;
#593 = ORIENTED_EDGE ( 'NONE', *, *, #68, .F. ) ;
#594 = APPLICATION_CONTEXT ( 'automotive_design' ) ;
#595 = CARTESIAN_POINT ( 'NONE',  ( -3.093541659652000231, 3.799999999999999822, -23.09999999999999787 ) ) ;
#596 = ADVANCED_FACE ( 'NONE', ( #101 ), #764, .F. ) ;
#597 = VERTEX_POINT ( 'NONE', #293 ) ;
#598 = CARTESIAN_POINT ( 'NONE',  ( 7.839999999999999599E-15, 13.40000000000000213, -21.89999999999999858 ) ) ;
#599 = CIRCLE ( 'NONE', #242, 5.000000000000000000 ) ;
#600 = EDGE_CURVE ( 'NONE', #449, #407, #503, .T. ) ;
#601 = CARTESIAN_POINT ( 'NONE',  ( 6.000000000000000000, 6.679999999999999683E-15, -22.10000000000000142 ) ) ;
#602 = ORIENTED_EDGE ( 'NONE', *, *, #986, .T. ) ;
#603 = LINE ( 'NONE', #975, #1141 ) ;
#604 = VERTEX_POINT ( 'NONE', #205 ) ;
#605 = CARTESIAN_POINT ( 'NONE',  ( 2.115209262933000378, 4.428024551742000270, -21.27929220246000241 ) ) ;
#606 = AXIS2_PLACEMENT_3D ( 'NONE', #733, #1025, #183 ) ;
#607 = PRESENTATION_STYLE_ASSIGNMENT (( #140 ) ) ;
#608 = EDGE_CURVE ( 'NONE', #604, #151, #162, .T. ) ;
#609 = EDGE_LOOP ( 'NONE', ( #1208, #679 ) ) ;
#610 = CARTESIAN_POINT ( 'NONE',  ( -2.615339366124000087, 3.799999999999999822, -21.50000000000000000 ) ) ;
#611 = ORIENTED_EDGE ( 'NONE', *, *, #276, .T. ) ;
#612 = CARTESIAN_POINT ( 'NONE',  ( 1.057169742799999979, 4.795508608914999193, -20.98520267402999906 ) ) ;
#613 = DIRECTION ( 'NONE',  ( 0.000000000000000000, 2.200000000000000003E-16, -1.000000000000000000 ) ) ;
#614 = ORIENTED_EDGE ( 'NONE', *, *, #1079, .F. ) ;
#615 = DIRECTION ( 'NONE',  ( 1.000000000000000000, 0.000000000000000000, 0.000000000000000000 ) ) ;
#616 = ORIENTED_EDGE ( 'NONE', *, *, #387, .T. ) ;
#617 = CARTESIAN_POINT ( 'NONE',  ( 4.899999999999999467, 5.969999999999999584E-15, -26.89999999999999858 ) ) ;
#618 = CARTESIAN_POINT ( 'NONE',  ( 0.000000000000000000, 4.909999999999999715E-15, -22.10000000000000142 ) ) ;
#619 = AXIS2_PLACEMENT_3D ( 'NONE', #1103, #531, #625 ) ;
#620 = VECTOR ( 'NONE', #291, 1000.000000000000114 ) ;
#621 = EDGE_LOOP ( 'NONE', ( #691, #967, #801, #1118, #1153 ) ) ;
#622 = DIRECTION ( 'NONE',  ( -2.200000000000000003E-16, 0.000000000000000000, 1.000000000000000000 ) ) ;
#623 = EDGE_CURVE ( 'NONE', #138, #705, #466, .T. ) ;
#624 = EDGE_LOOP ( 'NONE', ( #1194, #640, #133, #225, #1060 ) ) ;
#625 = DIRECTION ( 'NONE',  ( 1.000000000000000000, 0.000000000000000000, 0.000000000000000000 ) ) ;
#626 = CARTESIAN_POINT ( 'NONE',  ( -1.000000000000000000, 5.000000000000000000, -17.39999999999999858 ) ) ;
#627 = VECTOR ( 'NONE', #1031, 1000.000000000000000 ) ;
#628 = ORIENTED_EDGE ( 'NONE', *, *, #19, .F. ) ;
#629 = ADVANCED_FACE ( 'NONE', ( #3 ), #378, .T. ) ;
#630 = VERTEX_POINT ( 'NONE', #598 ) ;
#631 = CARTESIAN_POINT ( 'NONE',  ( -1.307971407152999976, 4.832107253046000750, -21.03933499448999811 ) ) ;
#632 = CARTESIAN_POINT ( 'NONE',  ( 0.000000000000000000, 4.909999999999999715E-15, -22.10000000000000142 ) ) ;
#633 =( NAMED_UNIT ( * ) PLANE_ANGLE_UNIT ( ) SI_UNIT ( $, .RADIAN. ) );
#634 = ORIENTED_EDGE ( 'NONE', *, *, #157, .F. ) ;
#635 = CARTESIAN_POINT ( 'NONE',  ( -2.615339366124000087, 4.261455150533000058, -21.50000000000000000 ) ) ;
#636 = CARTESIAN_POINT ( 'NONE',  ( -4.900000000000011902, 1.499322445776267054, -25.40067755422374418 ) ) ;
#637 = ADVANCED_FACE ( 'NONE', ( #1172, #1177 ), #682, .T. ) ;
#638 = CARTESIAN_POINT ( 'NONE',  ( -3.899999999999999911, 1.000000000000000078E-15, -26.89999999999999858 ) ) ;
#639 = VECTOR ( 'NONE', #359, 1000.000000000000000 ) ;
#640 = ORIENTED_EDGE ( 'NONE', *, *, #406, .T. ) ;
#641 = DIRECTION ( 'NONE',  ( 3.299999999999999882E-16, 1.000000000000000000, -2.200000000000000003E-16 ) ) ;
#642 = DIRECTION ( 'NONE',  ( 3.299999999999999882E-16, 1.000000000000000000, -2.200000000000000003E-16 ) ) ;
#643 = EDGE_CURVE ( 'NONE', #368, #43, #971, .T. ) ;
#644 = FACE_OUTER_BOUND ( 'NONE', #577, .T. ) ;
#645 = AXIS2_PLACEMENT_3D ( 'NONE', #270, #175, #1198 ) ;
#646 = ORIENTED_EDGE ( 'NONE', *, *, #366, .T. ) ;
#647 = CYLINDRICAL_SURFACE ( 'NONE', #832, 5.000000000000000000 ) ;
#648 = CARTESIAN_POINT ( 'NONE',  ( -1.299500389218000151, 4.730818957640999578, -21.03752747216000074 ) ) ;
#649 = CARTESIAN_POINT ( 'NONE',  ( -2.284567106744924025, 3.899999999999945288, -23.00000000000004974 ) ) ;
#650 = PRODUCT_RELATED_PRODUCT_CATEGORY ( 'part', '', ( #327 ) ) ;
#651 = ORIENTED_EDGE ( 'NONE', *, *, #12, .F. ) ;
#652 = CARTESIAN_POINT ( 'NONE',  ( 7.239999999999999316E-15, 3.799999999999999822, -26.89999999999999858 ) ) ;
#653 = VERTEX_POINT ( 'NONE', #1154 ) ;
#654 = DIRECTION ( 'NONE',  ( 0.7738791177499200202, 0.6333333333329340675, 0.000000000000000000 ) ) ;
#655 = CARTESIAN_POINT ( 'NONE',  ( -3.899999999999996358, 2.284567106744896492, -24.61543289325509676 ) ) ;
#656 = AXIS2_PLACEMENT_3D ( 'NONE', #1021, #1182, #814 ) ;
#657 = AXIS2_PLACEMENT_3D ( 'NONE', #163, #730, #435 ) ;
#658 = EDGE_CURVE ( 'NONE', #89, #1063, #793, .T. ) ;
#659 = CARTESIAN_POINT ( 'NONE',  ( -3.249615361854000017, 3.799999999999999822, -23.09999999999999787 ) ) ;
#660 = CARTESIAN_POINT ( 'NONE',  ( -4.899999999999999467, -2.200000000000000092E-14, -26.89999999999999858 ) ) ;
#661 = DIRECTION ( 'NONE',  ( 0.000000000000000000, 2.200000000000000003E-16, -1.000000000000000000 ) ) ;
#662 = DIRECTION ( 'NONE',  ( -3.299999999999999882E-16, -1.000000000000000000, 2.200000000000000003E-16 ) ) ;
#663 = EDGE_CURVE ( 'NONE', #87, #668, #1058, .T. ) ;
#664 = ORIENTED_EDGE ( 'NONE', *, *, #643, .T. ) ;
#665 = CARTESIAN_POINT ( 'NONE',  ( 0.000000000000000000, 5.969999999999999584E-15, -26.89999999999999858 ) ) ;
#666 = CARTESIAN_POINT ( 'NONE',  ( 7.570000000000001129E-15, 4.799999999999999822, -26.89999999999999858 ) ) ;
#667 = LINE ( 'NONE', #1050, #237 ) ;
#668 = VERTEX_POINT ( 'NONE', #804 ) ;
#669 = CARTESIAN_POINT ( 'NONE',  ( 3.899999999999999911, 7.700000000000000007E-14, -26.89999999999999858 ) ) ;
#670 = DIRECTION ( 'NONE',  ( 0.000000000000000000, 2.200000000000000003E-16, -1.000000000000000000 ) ) ;
#671 = EDGE_CURVE ( 'NONE', #216, #604, #787, .T. ) ;
#672 = ORIENTED_EDGE ( 'NONE', *, *, #784, .T. ) ;
#673 = VECTOR ( 'NONE', #779, 1000.000000000000000 ) ;
#674 = CARTESIAN_POINT ( 'NONE',  ( 7.670000000000000387E-15, 5.100000000000000533, -26.89999999999999858 ) ) ;
#675 = CIRCLE ( 'NONE', #1012, 3.900000000000000799 ) ;
#676 = CARTESIAN_POINT ( 'NONE',  ( 1.043999999999999925E-14, 13.40000000000000036, -26.89999999999999858 ) ) ;
#677 = DIRECTION ( 'NONE',  ( 0.000000000000000000, 2.200000000000000003E-16, -1.000000000000000000 ) ) ;
#678 = ADVANCED_FACE ( 'NONE', ( #1160 ), #127, .T. ) ;
#679 = ORIENTED_EDGE ( 'NONE', *, *, #157, .T. ) ;
#680 = DIRECTION ( 'NONE',  ( 2.199999999999998771E-16, 1.000000000000000000, 0.000000000000000000 ) ) ;
#681 = ORIENTED_EDGE ( 'NONE', *, *, #475, .F. ) ;
#682 = PLANE ( 'NONE',  #45 ) ;
#683 = CIRCLE ( 'NONE', #548, 4.899999999999999467 ) ;
#684 = CARTESIAN_POINT ( 'NONE',  ( 0.000000000000000000, 5.969999999999999584E-15, -26.89999999999999858 ) ) ;
#685 = ORIENTED_EDGE ( 'NONE', *, *, #494, .T. ) ;
#686 = DIRECTION ( 'NONE',  ( 0.000000000000000000, 2.200000000000000003E-16, -1.000000000000000000 ) ) ;
#687 = ADVANCED_FACE ( 'NONE', ( #1071 ), #146, .T. ) ;
#688 = ORIENTED_EDGE ( 'NONE', *, *, #103, .F. ) ;
#689 = CARTESIAN_POINT ( 'NONE',  ( 1.736954026632000270, 4.586793962844000205, -21.15308053636000096 ) ) ;
#690 = PLANE ( 'NONE',  #760 ) ;
#691 = ORIENTED_EDGE ( 'NONE', *, *, #1035, .F. ) ;
#692 = DIRECTION ( 'NONE',  ( 0.7738791177499200202, -1.445602896647339163E-16, 0.6333333333329339565 ) ) ;
#693 = CIRCLE ( 'NONE', #1010, 4.899999999999999467 ) ;
#694 = EDGE_CURVE ( 'NONE', #900, #151, #321, .T. ) ;
#695 = ORIENTED_EDGE ( 'NONE', *, *, #1091, .F. ) ;
#696 = DIRECTION ( 'NONE',  ( -1.000000000000000000, 3.299999999999999882E-16, 0.000000000000000000 ) ) ;
#697 = CONICAL_SURFACE ( 'NONE', #64, 6.000000000000000000, 0.7853981633970000820 ) ;
#698 = PLANE ( 'NONE',  #131 ) ;
#699 = ORIENTED_EDGE ( 'NONE', *, *, #1114, .F. ) ;
#700 = CARTESIAN_POINT ( 'NONE',  ( 0.3352880080321723466, 8.499999999999692690, -20.89999999999969305 ) ) ;
#701 = ORIENTED_EDGE ( 'NONE', *, *, #623, .T. ) ;
#702 = CARTESIAN_POINT ( 'NONE',  ( 8.147112251667471657E-15, 5.099999999999999645, -30.80000000000000071 ) ) ;
#703 = CIRCLE ( 'NONE', #384, 6.000000000000000000 ) ;
#704 = CARTESIAN_POINT ( 'NONE',  ( 0.000000000000000000, 4.769999999999999807E-15, -21.50000000000000000 ) ) ;
#705 = VERTEX_POINT ( 'NONE', #965 ) ;
#706 = VERTEX_POINT ( 'NONE', #702 ) ;
#707 = CARTESIAN_POINT ( 'NONE',  ( 1.930692187733000109, 4.511153230881000731, -21.21343572053000059 ) ) ;
#708 = DIRECTION ( 'NONE',  ( 3.299999999998145073E-16, 1.000000000000000000, -2.200000000001520040E-16 ) ) ;
#709 = EDGE_LOOP ( 'NONE', ( #1165, #763, #874, #22, #1151 ) ) ;
#710 = SURFACE_SIDE_STYLE ('',( #914 ) ) ;
#711 = ORIENTED_EDGE ( 'NONE', *, *, #569, .F. ) ;
#712 = CARTESIAN_POINT ( 'NONE',  ( -2.457701084693999949, 4.358200946820000254, -21.42365225108000359 ) ) ;
#713 = CIRCLE ( 'NONE', #292, 6.000000000000000000 ) ;
#714 = AXIS2_PLACEMENT_3D ( 'NONE', #71, #1009, #462 ) ;
#715 = CIRCLE ( 'NONE', #562, 3.900000000000000799 ) ;
#716 = EDGE_CURVE ( 'NONE', #807, #81, #357, .T. ) ;
#717 = ORIENTED_EDGE ( 'NONE', *, *, #547, .F. ) ;
#718 = CARTESIAN_POINT ( 'NONE',  ( -4.643274706499512128, 4.800000000000000711, -30.69999999999760476 ) ) ;
#719 = LINE ( 'NONE', #902, #639 ) ;
#720 = CIRCLE ( 'NONE', #188, 5.000000000000000888 ) ;
#721 = CARTESIAN_POINT ( 'NONE',  ( -1.000000000000000000, 5.916079783099999823, -18.31607978310000107 ) ) ;
#722 = CARTESIAN_POINT ( 'NONE',  ( 1.043999999999999925E-14, 13.40000000000000036, -26.89999999999999858 ) ) ;
#723 = VECTOR ( 'NONE', #533, 1000.000000000000000 ) ;
#724 = VERTEX_POINT ( 'NONE', #139 ) ;
#725 = CYLINDRICAL_SURFACE ( 'NONE', #440, 6.000000000000000000 ) ;
#726 = CARTESIAN_POINT ( 'NONE',  ( -3.093541659652000231, 3.799999999999999822, -23.09999999999999787 ) ) ;
#727 = DIRECTION ( 'NONE',  ( 3.299999999999999882E-16, 1.000000000000000000, -2.200000000000000003E-16 ) ) ;
#728 = FILL_AREA_STYLE_COLOUR ( '', #481 ) ;
#729 = ORIENTED_EDGE ( 'NONE', *, *, #972, .T. ) ;
#730 = DIRECTION ( 'NONE',  ( 0.000000000000000000, -2.200000000000000003E-16, 1.000000000000000000 ) ) ;
#731 = EDGE_CURVE ( 'NONE', #492, #213, #1197, .T. ) ;
#732 = CARTESIAN_POINT ( 'NONE',  ( 5.969999999999999584E-15, -7.470000000000000293E-15, -26.89999999999999858 ) ) ;
#733 = CARTESIAN_POINT ( 'NONE',  ( 5.969999999999999584E-15, -7.470000000000000293E-15, -26.89999999999999858 ) ) ;
#734 = AXIS2_PLACEMENT_3D ( 'NONE', #665, #283, #572 ) ;
#735 = CARTESIAN_POINT ( 'NONE',  ( -1.000000000000000000, 6.590990257670000574, -20.30900974233000156 ) ) ;
#736 = EDGE_LOOP ( 'NONE', ( #985, #1213, #887, #889 ) ) ;
#737 = CARTESIAN_POINT ( 'NONE',  ( 5.969999999999999584E-15, -7.470000000000000293E-15, -26.89999999999999858 ) ) ;
#738 = DIRECTION ( 'NONE',  ( 3.299999999998145073E-16, 1.000000000000000000, -2.200000000001520040E-16 ) ) ;
#739 = CARTESIAN_POINT ( 'NONE',  ( 1.000000000000000000, 5.916079783099999823, -18.31607978310000107 ) ) ;
#740 = VECTOR ( 'NONE', #490, 1000.000000000000000 ) ;
#741 = VERTEX_POINT ( 'NONE', #217 ) ;
#742 = DIRECTION ( 'NONE',  ( 1.000000000000000000, 0.000000000000000000, 0.000000000000000000 ) ) ;
#743 = EDGE_LOOP ( 'NONE', ( #611, #196, #757, #277 ) ) ;
#744 = DIRECTION ( 'NONE',  ( -1.000000000000000000, 0.000000000000000000, 0.000000000000000000 ) ) ;
#745 =( BOUNDED_CURVE ( )  B_SPLINE_CURVE ( 3, ( #739, #159, #558, #721 ),
 .UNSPECIFIED., .F., .F. ) 
 B_SPLINE_CURVE_WITH_KNOTS ( ( 4, 4 ),
 ( 2.974144574370106042, 3.309040732809480190 ),
 .UNSPECIFIED. ) 
 CURVE ( )  GEOMETRIC_REPRESENTATION_ITEM ( )  RATIONAL_B_SPLINE_CURVE ( ( 1.000000000000000000, 0.9906755314555131253, 0.9906755314555131253, 1.000000000000000000 ) ) 
 REPRESENTATION_ITEM ( '' )  );
#746 = DIRECTION ( 'NONE',  ( 3.299999999999999882E-16, 1.000000000000000000, -2.200000000000000003E-16 ) ) ;
#747 = EDGE_CURVE ( 'NONE', #142, #40, #675, .T. ) ;
#748 = ORIENTED_EDGE ( 'NONE', *, *, #1054, .T. ) ;
#749 = DIRECTION ( 'NONE',  ( 1.000000000000000000, 0.000000000000000000, 0.000000000000000000 ) ) ;
#750 = VERTEX_POINT ( 'NONE', #134 ) ;
#751 = PLANE ( 'NONE',  #1106 ) ;
#752 = DIRECTION ( 'NONE',  ( 3.299999999999999882E-16, 1.000000000000000000, -2.200000000000000003E-16 ) ) ;
#753 = AXIS2_PLACEMENT_3D ( 'NONE', #209, #1075, #416 ) ;
#754 = EDGE_CURVE ( 'NONE', #519, #454, #909, .T. ) ;
#755 = AXIS2_PLACEMENT_3D ( 'NONE', #1215, #288, #1137 ) ;
#756 = DIRECTION ( 'NONE',  ( -2.199999999999998278E-16, 2.224004456380521410E-16, 1.000000000000000000 ) ) ;
#757 = ORIENTED_EDGE ( 'NONE', *, *, #851, .F. ) ;
#758 = CARTESIAN_POINT ( 'NONE',  ( 1.306422006053999940, 4.832514643071999849, -21.03899841243999802 ) ) ;
#759 = CARTESIAN_POINT ( 'NONE',  ( 5.999999999999999677E-15, 4.899999999999999467, -20.89999999999999858 ) ) ;
#760 = AXIS2_PLACEMENT_3D ( 'NONE', #626, #426, #236 ) ;
#761 = DIRECTION ( 'NONE',  ( 0.7738791177499200202, 0.6333333333329340675, 0.000000000000000000 ) ) ;
#762 = ADVANCED_FACE ( 'NONE', ( #798 ), #152, .F. ) ;
#763 = ORIENTED_EDGE ( 'NONE', *, *, #894, .F. ) ;
#764 = CYLINDRICAL_SURFACE ( 'NONE', #755, 5.000000000000000888 ) ;
#765 = DIRECTION ( 'NONE',  ( 0.000000000000000000, -2.200000000000000003E-16, 1.000000000000000000 ) ) ;
#766 = LINE ( 'NONE', #386, #1129 ) ;
#767 = DIRECTION ( 'NONE',  ( -2.199999999999999264E-16, 2.199999999999999264E-16, 1.000000000000000000 ) ) ;
#768 = ADVANCED_FACE ( 'NONE', ( #1111 ), #647, .F. ) ;
#769 = DIRECTION ( 'NONE',  ( 1.000000000000000000, 0.000000000000000000, 0.000000000000000000 ) ) ;
#770 = ORIENTED_EDGE ( 'NONE', *, *, #545, .F. ) ;
#771 = PRODUCT_DEFINITION_FORMATION_WITH_SPECIFIED_SOURCE ( 'Symmetric', '', #327, .NOT_KNOWN. ) ;
#772 = DIRECTION ( 'NONE',  ( 2.199999999999999017E-16, 1.000000000000000000, 0.000000000000000000 ) ) ;
#773 = VECTOR ( 'NONE', #1191, 1000.000000000000000 ) ;
#774 = CIRCLE ( 'NONE', #398, 4.899999999999999467 ) ;
#775 = ORIENTED_EDGE ( 'NONE', *, *, #417, .F. ) ;
#776 = CYLINDRICAL_SURFACE ( 'NONE', #953, 4.900000000000001243 ) ;
#777 = CARTESIAN_POINT ( 'NONE',  ( 4.839999999999999761E-15, -6.050000000000000095E-15, -21.80000000000000071 ) ) ;
#778 = EDGE_LOOP ( 'NONE', ( #63, #906, #977, #172 ) ) ;
#779 = DIRECTION ( 'NONE',  ( 3.299999999999999882E-16, 1.000000000000000000, -2.200000000000000003E-16 ) ) ;
#780 = AXIS2_PLACEMENT_3D ( 'NONE', #666, #960, #397 ) ;
#781 = ORIENTED_EDGE ( 'NONE', *, *, #423, .F. ) ;
#782 = AXIS2_PLACEMENT_3D ( 'NONE', #704, #613, #1078 ) ;
#783 = EDGE_LOOP ( 'NONE', ( #17, #717 ) ) ;
#784 = EDGE_CURVE ( 'NONE', #87, #89, #296, .T. ) ;
#785 = CARTESIAN_POINT ( 'NONE',  ( -3.869395588750285775, 3.800000000000000266, -30.06666666666523469 ) ) ;
#786 = ORIENTED_EDGE ( 'NONE', *, *, #1164, .F. ) ;
#787 = LINE ( 'NONE', #211, #483 ) ;
#788 = FACE_OUTER_BOUND ( 'NONE', #736, .T. ) ;
#789 = ORIENTED_EDGE ( 'NONE', *, *, #747, .T. ) ;
#790 = FACE_OUTER_BOUND ( 'NONE', #15, .T. ) ;
#791 = AXIS2_PLACEMENT_3D ( 'NONE', #735, #1097, #622 ) ;
#792 = ORIENTED_EDGE ( 'NONE', *, *, #936, .T. ) ;
#793 = LINE ( 'NONE', #1166, #240 ) ;
#794 = VECTOR ( 'NONE', #436, 1000.000000000000000 ) ;
#795 = CARTESIAN_POINT ( 'NONE',  ( 0.000000000000000000, 5.129999999999999345E-15, -23.09999999999999787 ) ) ;
#796 = ORIENTED_EDGE ( 'NONE', *, *, #399, .T. ) ;
#797 = VERTEX_POINT ( 'NONE', #244 ) ;
#798 = FACE_OUTER_BOUND ( 'NONE', #778, .T. ) ;
#799 = EDGE_CURVE ( 'NONE', #46, #724, #294, .T. ) ;
#800 = CARTESIAN_POINT ( 'NONE',  ( 1.105817660042632802E-14, 5.099999999999999645, -31.89999999999999858 ) ) ;
#801 = ORIENTED_EDGE ( 'NONE', *, *, #903, .T. ) ;
#802 = SHAPE_DEFINITION_REPRESENTATION ( #250, #1006 ) ;
#803 = ORIENTED_EDGE ( 'NONE', *, *, #455, .T. ) ;
#804 = CARTESIAN_POINT ( 'NONE',  ( 4.899999999999999467, 5.551999999999999497E-15, -23.09999999999999787 ) ) ;
#805 = DIRECTION ( 'NONE',  ( 0.7738791177499201313, -8.673617379884036705E-17, 0.6333333333329340675 ) ) ;
#806 = ADVANCED_FACE ( 'NONE', ( #901 ), #916, .F. ) ;
#807 = VERTEX_POINT ( 'NONE', #718 ) ;
#808 = VERTEX_POINT ( 'NONE', #1196 ) ;
#809 = CARTESIAN_POINT ( 'NONE',  ( -2.117353907824999659, 4.537268038121999858, -21.28017436304000043 ) ) ;
#810 = LINE ( 'NONE', #269, #376 ) ;
#811 = AXIS2_PLACEMENT_3D ( 'NONE', #443, #173, #556 ) ;
#812 = ORIENTED_EDGE ( 'NONE', *, *, #231, .F. ) ;
#813 = EDGE_CURVE ( 'NONE', #926, #900, #1207, .T. ) ;
#814 = DIRECTION ( 'NONE',  ( 0.7738791177499200202, 0.6333333333329340675, 0.000000000000000000 ) ) ;
#815 = B_SPLINE_CURVE_WITH_KNOTS ( 'NONE', 6,
 ( #1017, #1121, #274, #835, #451, #648, #252, #1105, #170, #1095, #552, #924 ),
 .UNSPECIFIED., .F., .F.,
 ( 7, 5, 7 ),
 ( 0.000000000000000000, 0.5319498073580000153, 1.000000000000000000 ),
 .UNSPECIFIED. ) ;
#816 = ORIENTED_EDGE ( 'NONE', *, *, #446, .T. ) ;
#817 = CARTESIAN_POINT ( 'NONE',  ( 1.700000000000000014E-15, 5.100000000000000533, -26.89999999999999858 ) ) ;
#818 = DIRECTION ( 'NONE',  ( 2.199999999999998771E-16, 1.000000000000000000, 0.000000000000000000 ) ) ;
#819 = CONICAL_SURFACE ( 'NONE', #976, 6.000000000000000000, 0.7853981633970000820 ) ;
#820 = DIRECTION ( 'NONE',  ( 3.299999999998145073E-16, 1.000000000000000000, -2.200000000001520040E-16 ) ) ;
#821 = ADVANCED_FACE ( 'NONE', ( #267 ), #65, .F. ) ;
#822 = PRODUCT_DEFINITION_CONTEXT ( 'detailed design', #594, 'design' ) ;
#823 = ORIENTED_EDGE ( 'NONE', *, *, #1203, .F. ) ;
#824 = DIRECTION ( 'NONE',  ( -5.199999999999998708E-16, 3.469446951953613696E-16, 1.000000000000000000 ) ) ;
#825 = DIRECTION ( 'NONE',  ( -2.200000000000000003E-16, 2.800000000000000139E-16, 1.000000000000000000 ) ) ;
#826 = CARTESIAN_POINT ( 'NONE',  ( -4.899999999999999467, -2.200000000000000092E-14, -26.89999999999999858 ) ) ;
#827 = EDGE_LOOP ( 'NONE', ( #672, #511 ) ) ;
#828 = DIRECTION ( 'NONE',  ( 3.299999999999999882E-16, 1.000000000000000000, -2.200000000000000003E-16 ) ) ;
#829 = CIRCLE ( 'NONE', #929, 4.899999999999999467 ) ;
#830 = CARTESIAN_POINT ( 'NONE',  ( 1.000000000000000000, 5.916079783099999823, -23.09999999999999787 ) ) ;
#831 = DIRECTION ( 'NONE',  ( 3.299999999999999882E-16, 1.000000000000000000, -2.200000000000000003E-16 ) ) ;
#832 = AXIS2_PLACEMENT_3D ( 'NONE', #1189, #1201, #1016 ) ;
#833 = ORIENTED_EDGE ( 'NONE', *, *, #658, .F. ) ;
#834 = CARTESIAN_POINT ( 'NONE',  ( -1.934168512370999959, 4.617962026278999765, -21.21470758202999818 ) ) ;
#835 = CARTESIAN_POINT ( 'NONE',  ( -0.7998444619339999395, 4.847121045777999626, -20.94318418757000089 ) ) ;
#836 = EDGE_CURVE ( 'NONE', #561, #442, #21, .T. ) ;
#837 = PLANE ( 'NONE',  #1211 ) ;
#838 = AXIS2_PLACEMENT_3D ( 'NONE', #458, #820, #1206 ) ;
#839 = ORIENTED_EDGE ( 'NONE', *, *, #600, .T. ) ;
#840 = CYLINDRICAL_SURFACE ( 'NONE', #521, 5.999999999999998224 ) ;
#841 = CARTESIAN_POINT ( 'NONE',  ( -1.947764254627063929, 5.755878384644386614, -21.14412161535561907 ) ) ;
#842 = EDGE_CURVE ( 'NONE', #741, #332, #83, .T. ) ;
#843 = DIRECTION ( 'NONE',  ( 0.000000000000000000, -1.000000000000000000, -2.200000000000000003E-16 ) ) ;
#844 = DIRECTION ( 'NONE',  ( 0.000000000000000000, -2.200000000000000003E-16, 1.000000000000000000 ) ) ;
#845 = ORIENTED_EDGE ( 'NONE', *, *, #545, .T. ) ;
#846 = CARTESIAN_POINT ( 'NONE',  ( 2.457474473893000333, 4.358340022444000539, -21.42354249839999980 ) ) ;
#847 = DIRECTION ( 'NONE',  ( 3.599999999999999826E-16, 1.000000000000000000, 2.000000000000000143E-17 ) ) ;
#848 = VECTOR ( 'NONE', #518, 1000.000000000000114 ) ;
#849 = EDGE_CURVE ( 'NONE', #724, #138, #182, .T. ) ;
#850 = AXIS2_PLACEMENT_3D ( 'NONE', #676, #1030, #96 ) ;
#851 = EDGE_CURVE ( 'NONE', #30, #337, #180, .T. ) ;
#852 = CARTESIAN_POINT ( 'NONE',  ( 7.051000000000000387E-15, 8.500000000000003553, -20.90000000000000213 ) ) ;
#853 = ORIENTED_EDGE ( 'NONE', *, *, #799, .T. ) ;
#854 = FACE_OUTER_BOUND ( 'NONE', #590, .T. ) ;
#855 = DIRECTION ( 'NONE',  ( 1.000000000000000000, -3.469446951953614189E-16, 0.000000000000000000 ) ) ;
#856 = VECTOR ( 'NONE', #546, 1000.000000000000000 ) ;
#857 = ADVANCED_FACE ( 'NONE', ( #346 ), #725, .T. ) ;
#858 = CARTESIAN_POINT ( 'NONE',  ( 3.249615361854000017, 3.799999999999999822, -23.09999999999999787 ) ) ;
#859 = ORIENTED_EDGE ( 'NONE', *, *, #103, .T. ) ;
#860 = DIRECTION ( 'NONE',  ( -2.200000000000000003E-16, 0.000000000000000000, 1.000000000000000000 ) ) ;
#861 = FACE_OUTER_BOUND ( 'NONE', #524, .T. ) ;
#862 = EDGE_LOOP ( 'NONE', ( #895, #430, #117, #345 ) ) ;
#863 = CARTESIAN_POINT ( 'NONE',  ( 0.6694015656941784131, 8.528038882228049289, -20.92803888222804787 ) ) ;
#864 = ORIENTED_EDGE ( 'NONE', *, *, #671, .F. ) ;
#865 = DIRECTION ( 'NONE',  ( 3.299999999999999882E-16, 1.000000000000000000, -2.200000000000000003E-16 ) ) ;
#866 = DIRECTION ( 'NONE',  ( -3.299999999999999882E-16, -1.000000000000000000, 2.200000000000000003E-16 ) ) ;
#867 = VERTEX_POINT ( 'NONE', #923 ) ;
#868 = AXIS2_PLACEMENT_3D ( 'NONE', #305, #686, #1068 ) ;
#869 = CARTESIAN_POINT ( 'NONE',  ( 7.239999999999999316E-15, 3.799999999999999822, -26.89999999999999858 ) ) ;
#870 = ORIENTED_EDGE ( 'NONE', *, *, #608, .F. ) ;
#871 = DIRECTION ( 'NONE',  ( 0.000000000000000000, -1.000000000000000000, -6.400000000000000458E-16 ) ) ;
#872 = DIRECTION ( 'NONE',  ( -2.199999999999998278E-16, 2.199999999999998278E-16, 1.000000000000000000 ) ) ;
#873 = EDGE_CURVE ( 'NONE', #797, #926, #77, .T. ) ;
#874 = ORIENTED_EDGE ( 'NONE', *, *, #331, .F. ) ;
#875 = CARTESIAN_POINT ( 'NONE',  ( -4.643274706499512128, 4.800000000000000711, -30.69999999999760476 ) ) ;
#876 = CIRCLE ( 'NONE', #509, 4.899999999999999467 ) ;
#877 = VERTEX_POINT ( 'NONE', #358 ) ;
#878 = CARTESIAN_POINT ( 'NONE',  ( 2.457276106114000047, 4.243433867455999930, -21.42344646920999907 ) ) ;
#879 = CARTESIAN_POINT ( 'NONE',  ( 5.969999999999999584E-15, -6.599999999999999961E-15, -26.89999999999999858 ) ) ;
#880 = PRESENTATION_LAYER_ASSIGNMENT (  '', '', ( #1039 ) ) ;
#881 = EDGE_CURVE ( 'NONE', #161, #1070, #766, .T. ) ;
#882 = ORIENTED_EDGE ( 'NONE', *, *, #1158, .T. ) ;
#883 = DIRECTION ( 'NONE',  ( 0.7738791177499200202, -1.445602896647339163E-16, 0.6333333333329339565 ) ) ;
#884 = ORIENTED_EDGE ( 'NONE', *, *, #539, .T. ) ;
#885 = CARTESIAN_POINT ( 'NONE',  ( 1.302188452193000057, 4.730100897038999719, -21.03810824921000133 ) ) ;
#886 = CARTESIAN_POINT ( 'NONE',  ( 0.000000000000000000, 3.552713678800999489E-15, -21.80000000000000071 ) ) ;
#887 = ORIENTED_EDGE ( 'NONE', *, *, #257, .F. ) ;
#888 = DIRECTION ( 'NONE',  ( 0.000000000000000000, 2.200000000000000003E-16, -1.000000000000000000 ) ) ;
#889 = ORIENTED_EDGE ( 'NONE', *, *, #1217, .T. ) ;
#890 = CARTESIAN_POINT ( 'NONE',  ( 5.969999999999999584E-15, -6.599999999999999961E-15, -26.89999999999999858 ) ) ;
#891 = VECTOR ( 'NONE', #118, 1000.000000000000000 ) ;
#892 =( NAMED_UNIT ( * ) SI_UNIT ( $, .STERADIAN. ) SOLID_ANGLE_UNIT ( ) );
#893 = ORIENTED_EDGE ( 'NONE', *, *, #1041, .F. ) ;
#894 = EDGE_CURVE ( 'NONE', #1159, #161, #599, .T. ) ;
#895 = ORIENTED_EDGE ( 'NONE', *, *, #1107, .F. ) ;
#896 = CARTESIAN_POINT ( 'NONE',  ( 1.000000000000000000, 5.916079783099999823, -20.98392021689999964 ) ) ;
#897 = CIRCLE ( 'NONE', #108, 5.000000000000000000 ) ;
#898 = CARTESIAN_POINT ( 'NONE',  ( 3.869395588750302650, 3.799999999999999378, -23.73333333333476247 ) ) ;
#899 = CARTESIAN_POINT ( 'NONE',  ( 1.043999999999999925E-14, 13.40000000000000036, -26.89999999999999858 ) ) ;
#900 = VERTEX_POINT ( 'NONE', #852 ) ;
#901 = FACE_OUTER_BOUND ( 'NONE', #934, .T. ) ;
#902 = CARTESIAN_POINT ( 'NONE',  ( 5.112000000000000236E-15, -5.742000000000000613E-15, -23.00000000000000000 ) ) ;
#903 = EDGE_CURVE ( 'NONE', #867, #377, #362, .T. ) ;
#904 = ORIENTED_EDGE ( 'NONE', *, *, #952, .T. ) ;
#905 = DIRECTION ( 'NONE',  ( 0.000000000000000000, 2.200000000000000003E-16, -1.000000000000000000 ) ) ;
#906 = ORIENTED_EDGE ( 'NONE', *, *, #1187, .T. ) ;
#907 = CARTESIAN_POINT ( 'NONE',  ( 5.999999999999999677E-15, 5.000000000000000000, -20.89999999999999858 ) ) ;
#908 = CIRCLE ( 'NONE', #753, 5.000000000000000000 ) ;
#909 =( BOUNDED_CURVE ( )  B_SPLINE_CURVE ( 3, ( #1083, #991, #526, #896 ),
 .UNSPECIFIED., .F., .F. ) 
 B_SPLINE_CURVE_WITH_KNOTS ( ( 4, 4 ),
 ( 5.639684187809598903, 6.115737227959899158 ),
 .UNSPECIFIED. ) 
 CURVE ( )  GEOMETRIC_REPRESENTATION_ITEM ( )  RATIONAL_B_SPLINE_CURVE ( ( 1.000000000000000000, 0.9812034562745802768, 0.9812034562745802768, 1.000000000000000000 ) ) 
 REPRESENTATION_ITEM ( '' )  );
#910 = CARTESIAN_POINT ( 'NONE',  ( 7.239999999999999316E-15, 3.799999999999999822, -26.89999999999999858 ) ) ;
#911 = AXIS2_PLACEMENT_3D ( 'NONE', #485, #18, #383 ) ;
#912 = EDGE_CURVE ( 'NONE', #81, #161, #310, .T. ) ;
#913 = LINE ( 'NONE', #67, #302 ) ;
#914 = SURFACE_STYLE_FILL_AREA ( #1109 ) ;
#915 = VERTEX_POINT ( 'NONE', #94 ) ;
#916 = CYLINDRICAL_SURFACE ( 'NONE', #1087, 3.899999999999999911 ) ;
#917 = DIRECTION ( 'NONE',  ( -1.000000000000000000, 0.000000000000000000, 0.000000000000000000 ) ) ;
#918 =( BOUNDED_CURVE ( )  B_SPLINE_CURVE ( 3, ( #578, #841, #564, #496 ),
 .UNSPECIFIED., .F., .F. ) 
 B_SPLINE_CURVE_WITH_KNOTS ( ( 4, 4 ),
 ( 0.1674480792196874901, 0.6435011193699875509 ),
 .UNSPECIFIED. ) 
 CURVE ( )  GEOMETRIC_REPRESENTATION_ITEM ( )  RATIONAL_B_SPLINE_CURVE ( ( 1.000000000000000000, 0.9812034562745802768, 0.9812034562745802768, 1.000000000000000000 ) ) 
 REPRESENTATION_ITEM ( '' )  );
#919 = CIRCLE ( 'NONE', #343, 5.000000000000000000 ) ;
#920 = CARTESIAN_POINT ( 'NONE',  ( 4.250000000000000034E-15, 3.799999999999999822, -23.09999999999999787 ) ) ;
#921 = DIRECTION ( 'NONE',  ( 0.000000000000000000, 0.000000000000000000, 1.000000000000000000 ) ) ;
#922 = ORIENTED_EDGE ( 'NONE', *, *, #716, .T. ) ;
#923 = CARTESIAN_POINT ( 'NONE',  ( 1.000000000000000000, 5.916079783099999823, -18.31607978310000107 ) ) ;
#924 = CARTESIAN_POINT ( 'NONE',  ( -2.615339366124000087, 4.143669871020000173, -21.50000000000000000 ) ) ;
#925 = CARTESIAN_POINT ( 'NONE',  ( 1.043999999999999925E-14, 13.40000000000000036, -26.89999999999999858 ) ) ;
#926 = VERTEX_POINT ( 'NONE', #942 ) ;
#927 = EDGE_CURVE ( 'NONE', #498, #706, #715, .T. ) ;
#928 = DIRECTION ( 'NONE',  ( 1.000000000000000000, 0.000000000000000000, 0.000000000000000000 ) ) ;
#929 = AXIS2_PLACEMENT_3D ( 'NONE', #589, #888, #1152 ) ;
#930 = CARTESIAN_POINT ( 'NONE',  ( 5.000000000000000000, 2.999999999999999839E-15, -13.50000000000000000 ) ) ;
#931 = FACE_OUTER_BOUND ( 'NONE', #624, .T. ) ;
#932 = AXIS2_PLACEMENT_3D ( 'NONE', #945, #472, #860 ) ;
#933 = VECTOR ( 'NONE', #179, 1000.000000000000114 ) ;
#934 = EDGE_LOOP ( 'NONE', ( #688, #1027, #513, #893, #711 ) ) ;
#935 = DIRECTION ( 'NONE',  ( 0.000000000000000000, -2.200000000000000003E-16, 1.000000000000000000 ) ) ;
#936 = EDGE_CURVE ( 'NONE', #442, #989, #774, .T. ) ;
#937 = ORIENTED_EDGE ( 'NONE', *, *, #502, .F. ) ;
#938 = DIRECTION ( 'NONE',  ( 3.299999999998145073E-16, 1.000000000000000000, -2.200000000001520040E-16 ) ) ;
#939 = CARTESIAN_POINT ( 'NONE',  ( 5.969999999999999584E-15, -6.599999999999999961E-15, -26.89999999999999858 ) ) ;
#940 = CONICAL_SURFACE ( 'NONE', #1190, 6.000000000000000000, 0.7853981633970000820 ) ;
#941 = AXIS2_PLACEMENT_3D ( 'NONE', #879, #504, #872 ) ;
#942 = CARTESIAN_POINT ( 'NONE',  ( -1.000000000000000000, 8.583920216899999289, -20.98392021689999964 ) ) ;
#943 = COLOUR_RGB ( '',0.2274509803921568596, 0.2274509803921568596, 0.2274509803921568596 ) ;
#944 = VERTEX_POINT ( 'NONE', #858 ) ;
#945 = CARTESIAN_POINT ( 'NONE',  ( 1.000000000000000000, 6.590990257670000574, -20.30900974233000156 ) ) ;
#946 = LINE ( 'NONE', #121, #566 ) ;
#947 = ADVANCED_FACE ( 'NONE', ( #563 ), #286, .T. ) ;
#948 = DIRECTION ( 'NONE',  ( 3.299999999999999882E-16, 1.000000000000000000, -2.200000000000000003E-16 ) ) ;
#949 = DIRECTION ( 'NONE',  ( 2.200000000000000989E-16, 1.000000000000000000, 0.000000000000000000 ) ) ;
#950 = LINE ( 'NONE', #497, #428 ) ;
#951 = CONICAL_SURFACE ( 'NONE', #315, 6.000000000000000000, 0.7853981633970000820 ) ;
#952 = EDGE_CURVE ( 'NONE', #266, #741, #1028, .T. ) ;
#953 = AXIS2_PLACEMENT_3D ( 'NONE', #1148, #865, #767 ) ;
#954 = DIRECTION ( 'NONE',  ( 3.299999999999999882E-16, 1.000000000000000000, -2.200000000000000003E-16 ) ) ;
#955 = CARTESIAN_POINT ( 'NONE',  ( 3.249615361854000017, 3.799999999999999822, -23.09999999999999787 ) ) ;
#956 = ORIENTED_EDGE ( 'NONE', *, *, #936, .F. ) ;
#957 = CIRCLE ( 'NONE', #838, 4.999999999999999112 ) ;
#958 = DIRECTION ( 'NONE',  ( 3.097067913897689949E-29, 2.200000000000254904E-16, -1.000000000000000000 ) ) ;
#959 = CARTESIAN_POINT ( 'NONE',  ( 7.570000000000001129E-15, 4.799999999999999822, -26.89999999999999858 ) ) ;
#960 = DIRECTION ( 'NONE',  ( 3.299999999998145073E-16, 1.000000000000000000, -2.200000000001520040E-16 ) ) ;
#961 = ORIENTED_EDGE ( 'NONE', *, *, #903, .F. ) ;
#962 = DIRECTION ( 'NONE',  ( 3.097067913897689949E-29, 2.200000000000254904E-16, -1.000000000000000000 ) ) ;
#963 = ADVANCED_FACE ( 'NONE', ( #191 ), #1034, .T. ) ;
#964 = ORIENTED_EDGE ( 'NONE', *, *, #517, .T. ) ;
#965 = CARTESIAN_POINT ( 'NONE',  ( 2.615339366124000087, 4.261455150533000058, -21.50000000000000000 ) ) ;
#966 = PLANE ( 'NONE',  #207 ) ;
#967 = ORIENTED_EDGE ( 'NONE', *, *, #29, .F. ) ;
#968 = DIRECTION ( 'NONE',  ( 0.7738791177499200202, 0.6333333333329340675, 0.000000000000000000 ) ) ;
#969 = AXIS2_PLACEMENT_3D ( 'NONE', #817, #641, #1100 ) ;
#970 = ORIENTED_EDGE ( 'NONE', *, *, #304, .T. ) ;
#971 = LINE ( 'NONE', #514, #317 ) ;
#972 = EDGE_CURVE ( 'NONE', #147, #449, #482, .T. ) ;
#973 = DIRECTION ( 'NONE',  ( 0.7738791177499200202, 0.6333333333329340675, 0.000000000000000000 ) ) ;
#974 = ORIENTED_EDGE ( 'NONE', *, *, #201, .T. ) ;
#975 = CARTESIAN_POINT ( 'NONE',  ( 6.827999999999999721E-15, 3.899999999999992362, -26.89999999999999858 ) ) ;
#976 = AXIS2_PLACEMENT_3D ( 'NONE', #618, #330, #973 ) ;
#977 = ORIENTED_EDGE ( 'NONE', *, *, #194, .T. ) ;
#978 = DIRECTION ( 'NONE',  ( -2.199999999999998278E-16, 2.199999999999998278E-16, 1.000000000000000000 ) ) ;
#979 = EDGE_CURVE ( 'NONE', #797, #1015, #667, .T. ) ;
#980 = ORIENTED_EDGE ( 'NONE', *, *, #494, .F. ) ;
#981 = LINE ( 'NONE', #298, #141 ) ;
#982 = ORIENTED_EDGE ( 'NONE', *, *, #97, .F. ) ;
#983 = CARTESIAN_POINT ( 'NONE',  ( 0.5381166185439999472, 4.882156989159000204, -20.91457187592999745 ) ) ;
#984 = SURFACE_SIDE_STYLE ('',( #230 ) ) ;
#985 = ORIENTED_EDGE ( 'NONE', *, *, #972, .F. ) ;
#986 = EDGE_CURVE ( 'NONE', #147, #1159, #1067, .T. ) ;
#987 = CIRCLE ( 'NONE', #1126, 3.899999999999999911 ) ;
#988 = DIRECTION ( 'NONE',  ( -1.000000000000000000, 2.199999999999999017E-16, -2.200000000000000496E-16 ) ) ;
#989 = VERTEX_POINT ( 'NONE', #184 ) ;
#990 = CIRCLE ( 'NONE', #219, 4.999999999999999112 ) ;
#991 = CARTESIAN_POINT ( 'NONE',  ( 2.831033344281464359, 5.376725004497206584, -21.52327499550279555 ) ) ;
#992 =( BOUNDED_CURVE ( )  B_SPLINE_CURVE ( 3, ( #506, #700, #863, #132 ),
 .UNSPECIFIED., .F., .F. ) 
 B_SPLINE_CURVE_WITH_KNOTS ( ( 4, 4 ),
 ( 3.141592653589793116, 3.309040732809478857 ),
 .UNSPECIFIED. ) 
 CURVE ( )  GEOMETRIC_REPRESENTATION_ITEM ( )  RATIONAL_B_SPLINE_CURVE ( ( 1.000000000000000000, 0.9976647929699735684, 0.9976647929699735684, 1.000000000000000000 ) ) 
 REPRESENTATION_ITEM ( '' )  );
#993 = AXIS2_PLACEMENT_3D ( 'NONE', #450, #82, #928 ) ;
#994 = CARTESIAN_POINT ( 'NONE',  ( 3.093541659652000231, 3.799999999999999822, -23.09999999999999787 ) ) ;
#995 = DIRECTION ( 'NONE',  ( 0.000000000000000000, 2.200000000000000003E-16, -1.000000000000000000 ) ) ;
#996 =( NAMED_UNIT ( * ) SI_UNIT ( $, .STERADIAN. ) SOLID_ANGLE_UNIT ( ) );
#997 = ORIENTED_EDGE ( 'NONE', *, *, #271, .F. ) ;
#998 = CIRCLE ( 'NONE', #50, 4.899999999999999467 ) ;
#999 = FACE_OUTER_BOUND ( 'NONE', #500, .T. ) ;
#1000 = ORIENTED_EDGE ( 'NONE', *, *, #165, .T. ) ;
#1001 = AXIS2_PLACEMENT_3D ( 'NONE', #510, #708, #805 ) ;
#1002 = ORIENTED_EDGE ( 'NONE', *, *, #754, .F. ) ;
#1003 = CARTESIAN_POINT ( 'NONE',  ( -0.8047955071219999867, 4.947549851485999461, -20.94370820804000033 ) ) ;
#1004 = ADVANCED_FACE ( 'NONE', ( #203 ), #840, .T. ) ;
#1005 = LINE ( 'NONE', #930, #723 ) ;
#1006 = ADVANCED_BREP_SHAPE_REPRESENTATION ( 'Body003.step', ( #413, #354 ), #559 ) ;
#1007 = DIRECTION ( 'NONE',  ( -2.900000000000000778E-16, 2.168404344971009608E-16, 1.000000000000000000 ) ) ;
#1008 = EDGE_LOOP ( 'NONE', ( #982, #505, #255, #303, #937, #402 ) ) ;
#1009 = DIRECTION ( 'NONE',  ( 0.000000000000000000, 2.200000000000000003E-16, -1.000000000000000000 ) ) ;
#1010 = AXIS2_PLACEMENT_3D ( 'NONE', #254, #905, #349 ) ;
#1011 = CARTESIAN_POINT ( 'NONE',  ( 7.305612251667467746E-15, -7.457999999999999309E-15, -30.80000000000000071 ) ) ;
#1012 = AXIS2_PLACEMENT_3D ( 'NONE', #890, #35, #978 ) ;
#1013 = DIRECTION ( 'NONE',  ( 3.299999999998145073E-16, 1.000000000000000000, -2.200000000001520040E-16 ) ) ;
#1014 = CARTESIAN_POINT ( 'NONE',  ( 0.000000000000000000, 0.000000000000000000, 0.000000000000000000 ) ) ;
#1015 = VERTEX_POINT ( 'NONE', #104 ) ;
#1016 = DIRECTION ( 'NONE',  ( 1.000000000000000000, 0.000000000000000000, 0.000000000000000000 ) ) ;
#1017 = CARTESIAN_POINT ( 'NONE',  ( 5.999999999999999677E-15, 4.899999999999999467, -20.89999999999999858 ) ) ;
#1018 = CIRCLE ( 'NONE', #1055, 6.000000000000000000 ) ;
#1019 = LINE ( 'NONE', #565, #149 ) ;
#1020 = ADVANCED_FACE ( 'NONE', ( #1 ), #375, .T. ) ;
#1021 = CARTESIAN_POINT ( 'NONE',  ( 0.000000000000000000, 4.909999999999999715E-15, -22.10000000000000142 ) ) ;
#1022 = ORIENTED_EDGE ( 'NONE', *, *, #851, .T. ) ;
#1023 = DIRECTION ( 'NONE',  ( -3.299999999999999882E-16, -1.000000000000000000, 2.200000000000000003E-16 ) ) ;
#1024 = CARTESIAN_POINT ( 'NONE',  ( 3.600000069047000206, 4.799999999999999822, -22.10000005178000038 ) ) ;
#1025 = DIRECTION ( 'NONE',  ( -2.200000000000000003E-16, 2.800000000000000139E-16, 1.000000000000000000 ) ) ;
#1026 = ADVANCED_FACE ( 'NONE', ( #1131 ), #575, .T. ) ;
#1027 = ORIENTED_EDGE ( 'NONE', *, *, #1098, .T. ) ;
#1028 = LINE ( 'NONE', #88, #23 ) ;
#1029 = ORIENTED_EDGE ( 'NONE', *, *, #1035, .T. ) ;
#1030 = DIRECTION ( 'NONE',  ( 3.299999999999999882E-16, 1.000000000000000000, -2.200000000000000003E-16 ) ) ;
#1031 = DIRECTION ( 'NONE',  ( 0.000000000000000000, 2.200000000000000003E-16, -1.000000000000000000 ) ) ;
#1032 = UNCERTAINTY_MEASURE_WITH_UNIT (LENGTH_MEASURE( 1.000000000000000082E-05 ), #522, 'distance_accuracy_value', 'NONE');
#1033 = EDGE_CURVE ( 'NONE', #328, #337, #11, .T. ) ;
#1034 = CYLINDRICAL_SURFACE ( 'NONE', #85, 5.999999999999998224 ) ;
#1035 = EDGE_CURVE ( 'NONE', #1015, #926, #1056, .T. ) ;
#1036 = PLANE ( 'NONE',  #932 ) ;
#1037 = CARTESIAN_POINT ( 'NONE',  ( 0.000000000000000000, 4.909999999999999715E-15, -22.10000000000000142 ) ) ;
#1038 = DIRECTION ( 'NONE',  ( 1.000000000000000000, -3.299999999999999882E-16, 0.000000000000000000 ) ) ;
#1039 = STYLED_ITEM ( 'NONE', ( #607 ), #413 ) ;
#1040 = CARTESIAN_POINT ( 'NONE',  ( 4.839999999999999761E-15, -6.050000000000000095E-15, -21.80000000000000071 ) ) ;
#1041 = EDGE_CURVE ( 'NONE', #210, #186, #603, .T. ) ;
#1042 = CARTESIAN_POINT ( 'NONE',  ( 1.700000000000000014E-15, 5.100000000000000533, -26.89999999999999858 ) ) ;
#1043 = CARTESIAN_POINT ( 'NONE',  ( 7.239999999999999316E-15, 3.799999999999999822, -26.89999999999999858 ) ) ;
#1044 = ORIENTED_EDGE ( 'NONE', *, *, #581, .T. ) ;
#1045 = CARTESIAN_POINT ( 'NONE',  ( 1.740705563879000106, 4.691986115743000063, -21.15427592666999956 ) ) ;
#1046 = CARTESIAN_POINT ( 'NONE',  ( -3.249615361854000017, 3.799999999999999822, -23.09999999999999787 ) ) ;
#1047 = AXIS2_PLACEMENT_3D ( 'NONE', #391, #227, #883 ) ;
#1048 = ORIENTED_EDGE ( 'NONE', *, *, #311, .T. ) ;
#1049 = AXIS2_PLACEMENT_3D ( 'NONE', #1040, #478, #949 ) ;
#1050 = CARTESIAN_POINT ( 'NONE',  ( -1.000000000000000000, 5.916079783099999823, -23.09999999999999787 ) ) ;
#1051 = CARTESIAN_POINT ( 'NONE',  ( 2.615339366124000087, 4.261455150533000058, -21.50000000000000000 ) ) ;
#1052 = CARTESIAN_POINT ( 'NONE',  ( 1.043999999999999925E-14, 13.40000000000000036, -26.89999999999999858 ) ) ;
#1053 = EDGE_LOOP ( 'NONE', ( #56, #695, #593, #434, #1000 ) ) ;
#1054 = EDGE_CURVE ( 'NONE', #900, #377, #992, .T. ) ;
#1055 = AXIS2_PLACEMENT_3D ( 'NONE', #348, #1013, #1108 ) ;
#1056 = LINE ( 'NONE', #221, #437 ) ;
#1057 = ORIENTED_EDGE ( 'NONE', *, *, #881, .T. ) ;
#1058 = LINE ( 'NONE', #617, #891 ) ;
#1059 = CARTESIAN_POINT ( 'NONE',  ( 1.240000000000000033E-15, 5.100000000000000533, -26.89999999999999858 ) ) ;
#1060 = ORIENTED_EDGE ( 'NONE', *, *, #927, .T. ) ;
#1061 = ADVANCED_FACE ( 'NONE', ( #499 ), #1199, .T. ) ;
#1062 = CARTESIAN_POINT ( 'NONE',  ( 0.000000000000000000, 4.909999999999999715E-15, -22.10000000000000142 ) ) ;
#1063 = VERTEX_POINT ( 'NONE', #39 ) ;
#1064 = CARTESIAN_POINT ( 'NONE',  ( 0.8015302939939999982, 4.846900749505000050, -20.94336410490999967 ) ) ;
#1065 = FILL_AREA_STYLE ('',( #335 ) ) ;
#1066 = EDGE_LOOP ( 'NONE', ( #484, #775, #964, #792 ) ) ;
#1067 = CIRCLE ( 'NONE', #336, 5.000000000000000000 ) ;
#1068 = DIRECTION ( 'NONE',  ( 1.000000000000000000, 0.000000000000000000, 0.000000000000000000 ) ) ;
#1069 = EDGE_CURVE ( 'NONE', #433, #653, #908, .T. ) ;
#1070 = VERTEX_POINT ( 'NONE', #595 ) ;
#1071 = FACE_OUTER_BOUND ( 'NONE', #827, .T. ) ;
#1072 = ADVANCED_FACE ( 'NONE', ( #790 ), #951, .T. ) ;
#1073 = FACE_OUTER_BOUND ( 'NONE', #1066, .T. ) ;
#1074 = ORIENTED_EDGE ( 'NONE', *, *, #150, .T. ) ;
#1075 = DIRECTION ( 'NONE',  ( 0.000000000000000000, 2.200000000000000003E-16, -1.000000000000000000 ) ) ;
#1076 = ORIENTED_EDGE ( 'NONE', *, *, #813, .T. ) ;
#1077 = DIRECTION ( 'NONE',  ( 0.5472151719793860725, 0.7071067811868644304, 0.4478342947509968974 ) ) ;
#1078 = DIRECTION ( 'NONE',  ( 1.000000000000000000, 0.000000000000000000, 0.000000000000000000 ) ) ;
#1079 = EDGE_CURVE ( 'NONE', #561, #724, #24, .T. ) ;
#1080 = ORIENTED_EDGE ( 'NONE', *, *, #322, .F. ) ;
#1081 = CARTESIAN_POINT ( 'NONE',  ( 5.969999999999999584E-15, -5.969999999999999584E-15, -26.89999999999999858 ) ) ;
#1082 = EDGE_LOOP ( 'NONE', ( #864, #220, #922, #770, #125, #1076, #364, #870 ) ) ;
#1083 = CARTESIAN_POINT ( 'NONE',  ( 3.600000069047000206, 4.799999999999999822, -22.10000005178000038 ) ) ;
#1084 = ORIENTED_EDGE ( 'NONE', *, *, #423, .T. ) ;
#1085 = AXIS2_PLACEMENT_3D ( 'NONE', #1081, #988, #772 ) ;
#1086 = ORIENTED_EDGE ( 'NONE', *, *, #643, .F. ) ;
#1087 = AXIS2_PLACEMENT_3D ( 'NONE', #737, #334, #263 ) ;
#1088 = CARTESIAN_POINT ( 'NONE',  ( 1.043999999999999925E-14, 13.40000000000000036, -26.89999999999999858 ) ) ;
#1089 = CARTESIAN_POINT ( 'NONE',  ( 4.900000000000004796, 1.499322445776276602, -25.40067755422372642 ) ) ;
#1090 = EDGE_LOOP ( 'NONE', ( #1092, #729, #839, #136 ) ) ;
#1091 = EDGE_CURVE ( 'NONE', #142, #112, #987, .T. ) ;
#1092 = ORIENTED_EDGE ( 'NONE', *, *, #986, .F. ) ;
#1093 = CARTESIAN_POINT ( 'NONE',  ( -1.061657447753000083, 4.896761684540000381, -20.98591386738999987 ) ) ;
#1094 = AXIS2_PLACEMENT_3D ( 'NONE', #586, #199, #769 ) ;
#1095 = CARTESIAN_POINT ( 'NONE',  ( -2.289831254510999781, 4.338951308089000314, -21.34923779002999922 ) ) ;
#1096 = CARTESIAN_POINT ( 'NONE',  ( 4.643274706499528115, 4.799999999999998934, -23.10000000000239595 ) ) ;
#1097 = DIRECTION ( 'NONE',  ( 1.000000000000000000, -2.200000000000000003E-16, 2.200000000000000003E-16 ) ) ;
#1098 = EDGE_CURVE ( 'NONE', #112, #877, #981, .T. ) ;
#1099 = VERTEX_POINT ( 'NONE', #785 ) ;
#1100 = DIRECTION ( 'NONE',  ( 1.000000000000000000, -3.469446951953614189E-16, 0.000000000000000000 ) ) ;
#1101 = CARTESIAN_POINT ( 'NONE',  ( 6.470499999999998941E-15, 5.100000000000001421, -21.89999999999999858 ) ) ;
#1102 = ORIENTED_EDGE ( 'NONE', *, *, #97, .T. ) ;
#1103 = CARTESIAN_POINT ( 'NONE',  ( 0.000000000000000000, 4.769999999999999807E-15, -21.50000000000000000 ) ) ;
#1104 = AXIS2_PLACEMENT_3D ( 'NONE', #722, #1193, #154 ) ;
#1105 = CARTESIAN_POINT ( 'NONE',  ( -1.928855747867000092, 4.511980166819999916, -21.21278057382999904 ) ) ;
#1106 = AXIS2_PLACEMENT_3D ( 'NONE', #394, #1133, #106 ) ;
#1107 = EDGE_CURVE ( 'NONE', #1099, #807, #137, .T. ) ;
#1108 = DIRECTION ( 'NONE',  ( 0.7738791177499200202, -1.445602896647339163E-16, 0.6333333333329339565 ) ) ;
#1109 = FILL_AREA_STYLE ('',( #728 ) ) ;
#1110 = ORIENTED_EDGE ( 'NONE', *, *, #517, .F. ) ;
#1111 = FACE_OUTER_BOUND ( 'NONE', #243, .T. ) ;
#1112 = DIRECTION ( 'NONE',  ( 0.7738791177499201313, -8.673617379884036705E-17, 0.6333333333329340675 ) ) ;
#1113 = CIRCLE ( 'NONE', #606, 3.899999999999999911 ) ;
#1114 = EDGE_CURVE ( 'NONE', #750, #668, #829, .T. ) ;
#1115 = CARTESIAN_POINT ( 'NONE',  ( -5.000000000000000000, 3.267676666426323713E-15, -21.50000000000000000 ) ) ;
#1116 = CIRCLE ( 'NONE', #782, 5.000000000000000000 ) ;
#1117 = UNCERTAINTY_MEASURE_WITH_UNIT (LENGTH_MEASURE( 1.000000000000000082E-05 ), #55, 'distance_accuracy_value', 'NONE');
#1118 = ORIENTED_EDGE ( 'NONE', *, *, #1054, .F. ) ;
#1119 = CARTESIAN_POINT ( 'NONE',  ( 0.000000000000000000, 4.659999999999999991E-15, -21.50000000000000000 ) ) ;
#1120 = ORIENTED_EDGE ( 'NONE', *, *, #842, .T. ) ;
#1121 = CARTESIAN_POINT ( 'NONE',  ( -0.2693963228089999995, 4.899999999999999467, -20.89999999999999858 ) ) ;
#1122 = CARTESIAN_POINT ( 'NONE',  ( -3.600000069047000206, 4.799999999999999822, -22.10000005178000038 ) ) ;
#1123 =( BOUNDED_CURVE ( )  B_SPLINE_CURVE ( 3, ( #452, #649, #655, #638 ),
 .UNSPECIFIED., .F., .F. ) 
 B_SPLINE_CURVE_WITH_KNOTS ( ( 4, 4 ),
 ( 1.131370849897739050E-16, 1.570796326794895670 ),
 .UNSPECIFIED. ) 
 CURVE ( )  GEOMETRIC_REPRESENTATION_ITEM ( )  RATIONAL_B_SPLINE_CURVE ( ( 1.000000000000000000, 0.8047378541243652705, 0.8047378541243652705, 1.000000000000000000 ) ) 
 REPRESENTATION_ITEM ( '' )  );
#1124 = ORIENTED_EDGE ( 'NONE', *, *, #658, .T. ) ;
#1125 = CARTESIAN_POINT ( 'NONE',  ( 1.000000000000000000, 5.000000000000000000, -17.39999999999999858 ) ) ;
#1126 = AXIS2_PLACEMENT_3D ( 'NONE', #1163, #16, #680 ) ;
#1127 = CARTESIAN_POINT ( 'NONE',  ( 5.969999999999998795E-15, 3.899999999999993694, -23.00000000000000000 ) ) ;
#1128 = DIRECTION ( 'NONE',  ( 3.299999999999999882E-16, 1.000000000000000000, -2.200000000000000003E-16 ) ) ;
#1129 = VECTOR ( 'NONE', #1038, 1000.000000000000000 ) ;
#1130 = ADVANCED_FACE ( 'NONE', ( #143 ), #44, .F. ) ;
#1131 = FACE_OUTER_BOUND ( 'NONE', #167, .T. ) ;
#1132 = ORIENTED_EDGE ( 'NONE', *, *, #671, .T. ) ;
#1133 = DIRECTION ( 'NONE',  ( 0.000000000000000000, 2.200000000000000003E-16, -1.000000000000000000 ) ) ;
#1134 = CARTESIAN_POINT ( 'NONE',  ( 3.424807715459269986, 4.274423136285784963, -22.62557686371425092 ) ) ;
#1135 = DIRECTION ( 'NONE',  ( -2.900000000000000778E-16, 2.168404344971009608E-16, 1.000000000000000000 ) ) ;
#1136 = ORIENTED_EDGE ( 'NONE', *, *, #201, .F. ) ;
#1137 = DIRECTION ( 'NONE',  ( -5.199999999999998708E-16, 3.469446951953613696E-16, 1.000000000000000000 ) ) ;
#1138 = CARTESIAN_POINT ( 'NONE',  ( 2.615339366124000087, 3.799999999999999822, -21.50000000000000000 ) ) ;
#1139 = DIRECTION ( 'NONE',  ( 0.000000000000000000, 2.200000000000000003E-16, -1.000000000000000000 ) ) ;
#1140 = CARTESIAN_POINT ( 'NONE',  ( 0.2706503847149999697, 5.000000000000000000, -20.89999999999999858 ) ) ;
#1141 = VECTOR ( 'NONE', #422, 1000.000000000000000 ) ;
#1142 = CARTESIAN_POINT ( 'NONE',  ( 0.000000000000000000, 2.999999999999999839E-15, -13.50000000000000000 ) ) ;
#1143 = ADVANCED_FACE ( 'NONE', ( #1157 ), #120, .T. ) ;
#1144 = CIRCLE ( 'NONE', #1049, 3.899999999999999911 ) ;
#1145 = ORIENTED_EDGE ( 'NONE', *, *, #1179, .F. ) ;
#1146 = DIRECTION ( 'NONE',  ( -2.200000000000000003E-16, 2.800000000000000139E-16, 1.000000000000000000 ) ) ;
#1147 = ORIENTED_EDGE ( 'NONE', *, *, #1114, .T. ) ;
#1148 = CARTESIAN_POINT ( 'NONE',  ( 5.969999999999999584E-15, -6.760000000000000194E-15, -26.89999999999999858 ) ) ;
#1149 = FACE_OUTER_BOUND ( 'NONE', #208, .T. ) ;
#1150 = ADVANCED_FACE ( 'NONE', ( #214 ), #326, .F. ) ;
#1151 = ORIENTED_EDGE ( 'NONE', *, *, #1179, .T. ) ;
#1152 = DIRECTION ( 'NONE',  ( 1.000000000000000000, 0.000000000000000000, 0.000000000000000000 ) ) ;
#1153 = ORIENTED_EDGE ( 'NONE', *, *, #813, .F. ) ;
#1154 = CARTESIAN_POINT ( 'NONE',  ( -5.000000000000000000, 3.267676666426323713E-15, -13.50000000000000000 ) ) ;
#1155 = CARTESIAN_POINT ( 'NONE',  ( 0.000000000000000000, 3.552713678800999489E-15, -21.80000000000000071 ) ) ;
#1156 = ORIENTED_EDGE ( 'NONE', *, *, #952, .F. ) ;
#1157 = FACE_OUTER_BOUND ( 'NONE', #709, .T. ) ;
#1158 = EDGE_CURVE ( 'NONE', #944, #147, #392, .T. ) ;
#1159 = VERTEX_POINT ( 'NONE', #116 ) ;
#1160 = FACE_OUTER_BOUND ( 'NONE', #1008, .T. ) ;
#1161 = CARTESIAN_POINT ( 'NONE',  ( 6.000000000000000000, 2.999999999999999839E-15, -13.50000000000000000 ) ) ;
#1162 = ORIENTED_EDGE ( 'NONE', *, *, #836, .T. ) ;
#1163 = CARTESIAN_POINT ( 'NONE',  ( 5.969999999999999584E-15, -7.470000000000000293E-15, -26.89999999999999858 ) ) ;
#1164 = EDGE_CURVE ( 'NONE', #750, #1070, #540, .T. ) ;
#1165 = ORIENTED_EDGE ( 'NONE', *, *, #912, .T. ) ;
#1166 = CARTESIAN_POINT ( 'NONE',  ( -4.899999999999999467, 6.570076931582202757E-15, -26.89999999999999858 ) ) ;
#1167 = FACE_OUTER_BOUND ( 'NONE', #621, .T. ) ;
#1168 = ORIENTED_EDGE ( 'NONE', *, *, #38, .T. ) ;
#1169 = DIRECTION ( 'NONE',  ( 3.299999999998145073E-16, 1.000000000000000000, -2.200000000001520040E-16 ) ) ;
#1170 = CIRCLE ( 'NONE', #405, 3.899999999999999911 ) ;
#1171 = EDGE_LOOP ( 'NONE', ( #382, #287, #495, #427, #587, #361, #471, #956 ) ) ;
#1172 = FACE_BOUND ( 'NONE', #783, .T. ) ;
#1173 = PRODUCT_DEFINITION ( 'General', '', #771, #822 ) ;
#1174 = CARTESIAN_POINT ( 'NONE',  ( 1.105817660042632329E-14, 13.39999999999999858, -31.89999999999999858 ) ) ;
#1175 = ORIENTED_EDGE ( 'NONE', *, *, #366, .F. ) ;
#1176 = ORIENTED_EDGE ( 'NONE', *, *, #849, .T. ) ;
#1177 = FACE_OUTER_BOUND ( 'NONE', #48, .T. ) ;
#1178 = CARTESIAN_POINT ( 'NONE',  ( 6.000000000000000000, 1.199999999999999935E-14, -22.10000000000000142 ) ) ;
#1179 = EDGE_CURVE ( 'NONE', #266, #81, #713, .T. ) ;
#1180 = DIRECTION ( 'NONE',  ( 3.299999999999999882E-16, 1.000000000000000000, -2.200000000000000003E-16 ) ) ;
#1181 = PRESENTATION_LAYER_ASSIGNMENT (  '', '', ( #176 ) ) ;
#1182 = DIRECTION ( 'NONE',  ( 3.094087772700190125E-29, 2.200000000000254904E-16, -1.000000000000000000 ) ) ;
#1183 = EDGE_LOOP ( 'NONE', ( #153, #109, #970, #222 ) ) ;
#1184 = CARTESIAN_POINT ( 'NONE',  ( -1.742094639675000112, 4.691454943654999710, -21.15470957339000080 ) ) ;
#1185 = CARTESIAN_POINT ( 'NONE',  ( 4.643274706499521010, 3.799999999997609734, -22.10000000000000142 ) ) ;
#1186 = DIRECTION ( 'NONE',  ( 1.000000000000000000, -3.299999999999999882E-16, 0.000000000000000000 ) ) ;
#1187 = EDGE_CURVE ( 'NONE', #328, #630, #80, .T. ) ;
#1188 = ORIENTED_EDGE ( 'NONE', *, *, #502, .T. ) ;
#1189 = CARTESIAN_POINT ( 'NONE',  ( 0.000000000000000000, 2.999999999999999839E-15, -13.50000000000000000 ) ) ;
#1190 = AXIS2_PLACEMENT_3D ( 'NONE', #570, #212, #102 ) ;
#1191 = DIRECTION ( 'NONE',  ( 0.000000000000000000, -2.200000000000000003E-16, 1.000000000000000000 ) ) ;
#1192 = CARTESIAN_POINT ( 'NONE',  ( -3.899999999999999911, 1.000000000000000078E-15, -26.89999999999999858 ) ) ;
#1193 = DIRECTION ( 'NONE',  ( 3.299999999999999882E-16, 1.000000000000000000, -2.200000000000000003E-16 ) ) ;
#1194 = ORIENTED_EDGE ( 'NONE', *, *, #455, .F. ) ;
#1195 = ADVANCED_FACE ( 'NONE', ( #62 ), #441, .F. ) ;
#1196 = CARTESIAN_POINT ( 'NONE',  ( 4.899999999999999467, 4.016329068417797160E-15, -21.80000000000000071 ) ) ;
#1197 = B_SPLINE_CURVE_WITH_KNOTS ( 'NONE', 6,
 ( #307, #878, #223, #605, #707, #689, #885, #612, #1064, #983, #520, #425 ),
 .UNSPECIFIED., .F., .F.,
 ( 7, 5, 7 ),
 ( 0.000000000000000000, 0.4669277380040000036, 1.000000000000000000 ),
 .UNSPECIFIED. ) ;
#1198 = DIRECTION ( 'NONE',  ( -2.199999999999998278E-16, 2.199999999999998278E-16, 1.000000000000000000 ) ) ;
#1199 = CONICAL_SURFACE ( 'NONE', #1047, 6.000000000000000000, 0.7853981633970000820 ) ;
#1200 = EDGE_LOOP ( 'NONE', ( #634, #390, #853, #1176, #701, #796, #781 ) ) ;
#1201 = DIRECTION ( 'NONE',  ( 0.000000000000000000, 2.200000000000000003E-16, -1.000000000000000000 ) ) ;
#1202 = VECTOR ( 'NONE', #662, 1000.000000000000000 ) ;
#1203 = EDGE_CURVE ( 'NONE', #1063, #1070, #693, .T. ) ;
#1204 = CARTESIAN_POINT ( 'NONE',  ( 6.812000000000000250E-15, 5.100000000000001421, -23.00000000000000000 ) ) ;
#1205 = AXIS2_PLACEMENT_3D ( 'NONE', #26, #329, #403 ) ;
#1206 = DIRECTION ( 'NONE',  ( 0.7738791177499201313, -8.673617379884036705E-17, 0.6333333333329340675 ) ) ;
#1207 =( BOUNDED_CURVE ( )  B_SPLINE_CURVE ( 3, ( #57, #351, #340, #249 ),
 .UNSPECIFIED., .F., .F. ) 
 B_SPLINE_CURVE_WITH_KNOTS ( ( 4, 4 ),
 ( 2.974144574370105154, 3.141592653589793116 ),
 .UNSPECIFIED. ) 
 CURVE ( )  GEOMETRIC_REPRESENTATION_ITEM ( )  RATIONAL_B_SPLINE_CURVE ( ( 1.000000000000000000, 0.9976647929699733464, 0.9976647929699733464, 1.000000000000000000 ) ) 
 REPRESENTATION_ITEM ( '' )  );
#1208 = ORIENTED_EDGE ( 'NONE', *, *, #1069, .T. ) ;
#1209 = DIRECTION ( 'NONE',  ( 1.000000000000000000, 0.000000000000000000, 0.000000000000000000 ) ) ;
#1210 = FACE_OUTER_BOUND ( 'NONE', #1090, .T. ) ;
#1211 = AXIS2_PLACEMENT_3D ( 'NONE', #925, #831, #1186 ) ;
#1212 = CARTESIAN_POINT ( 'NONE',  ( 5.999999999999999677E-15, 5.000000000000000000, -20.89999999999999858 ) ) ;
#1213 = ORIENTED_EDGE ( 'NONE', *, *, #1158, .F. ) ;
#1214 = CARTESIAN_POINT ( 'NONE',  ( -3.424807715459265101, 4.274423136285935065, -22.62557686371405197 ) ) ;
#1215 = CARTESIAN_POINT ( 'NONE',  ( 1.043999999999999925E-14, 13.40000000000000036, -26.89999999999999858 ) ) ;
#1216 = CARTESIAN_POINT ( 'NONE',  ( 3.600000069047000206, 4.799999999999999822, -22.10000005178000038 ) ) ;
#1217 = EDGE_CURVE ( 'NONE', #519, #449, #160, .T. ) ;
ENDSEC;
END-ISO-10303-21;
