ISO-10303-21;
HEADER;
FILE_DESCRIPTION (( 'STEP AP214' ),
    '1' );
FILE_NAME ('Body023.step.STEP',
    '2026-09-04T22:05:09',
    ( '' ),
    ( '' ),
    'SwSTEP 2.0',
    'SolidWorks 2026',
    '' );
FILE_SCHEMA (( 'AUTOMOTIVE_DESIGN' ));
ENDSEC;

DATA;
#1 = FACE_OUTER_BOUND ( 'NONE', #100, .T. ) ;
#2 = CARTESIAN_POINT ( 'NONE',  ( 1.785999999999999912E-14, 16.28347531752299915, -23.59999999999999787 ) ) ;
#3 = ORIENTED_EDGE ( 'NONE', *, *, #219, .F. ) ;
#4 = EDGE_CURVE ( 'NONE', #369, #367, #215, .T. ) ;
#5 = CARTESIAN_POINT ( 'NONE',  ( 1.993000000000000002E-14, 15.00000000000000000, -26.89999999999999858 ) ) ;
#6 = CARTESIAN_POINT ( 'NONE',  ( 10.54193801672526298, 16.65478943552366431, -32.17096900836262563 ) ) ;
#7 = UNCERTAINTY_MEASURE_WITH_UNIT (LENGTH_MEASURE( 1.000000000000000082E-05 ), #222, 'distance_accuracy_value', 'NONE');
#8 = CYLINDRICAL_SURFACE ( 'NONE', #343, 4.500000000000000888 ) ;
#9 = VECTOR ( 'NONE', #420, 1000.000000000000000 ) ;
#10 = CARTESIAN_POINT ( 'NONE',  ( 4.183231013068829718, 16.77385993290930699, -26.38375686616272375 ) ) ;
#11 = FACE_OUTER_BOUND ( 'NONE', #218, .T. ) ;
#12 = EDGE_CURVE ( 'NONE', #440, #367, #297, .T. ) ;
#13 = CARTESIAN_POINT ( 'NONE',  ( 9.062694091910227456, 16.74646997279975835, -31.43134704595510343 ) ) ;
#14 = FACE_BOUND ( 'NONE', #141, .T. ) ;
#15 = DIRECTION ( 'NONE',  ( -8.600000000000002680E-16, 5.782411586589358625E-16, 1.000000000000000000 ) ) ;
#16 = CARTESIAN_POINT ( 'NONE',  ( -1.491819609329000151, 16.28347531758600297, -31.82992065999999554 ) ) ;
#17 = APPLICATION_CONTEXT ( 'automotive_design' ) ;
#18 = CARTESIAN_POINT ( 'NONE',  ( 1.996164322826455027E-14, 16.28347531752397970, -30.19999286574749675 ) ) ;
#19 = AXIS2_PLACEMENT_3D ( 'NONE', #88, #374, #191 ) ;
#20 = CARTESIAN_POINT ( 'NONE',  ( 1.783777342739129508E-14, 16.28347531752299915, -23.60000000000000142 ) ) ;
#21 = CARTESIAN_POINT ( 'NONE',  ( -10.54193571497826909, 16.65478967987962378, -21.62903214251087647 ) ) ;
#22 = CARTESIAN_POINT ( 'NONE',  ( -0.4319689898685652452, 16.28347531752300270, -23.60000000000000497 ) ) ;
#23 = CARTESIAN_POINT ( 'NONE',  ( 7.573173621523870302, 16.77436571332131621, -23.11341318923807719 ) ) ;
#24 = EDGE_LOOP ( 'NONE', ( #325, #335 ) ) ;
#25 = CIRCLE ( 'NONE', #355, 4.500000000000000888 ) ;
#26 = CARTESIAN_POINT ( 'NONE',  ( 1.783777342739129508E-14, 16.28347531752299915, -23.60000000000000142 ) ) ;
#27 = ORIENTED_EDGE ( 'NONE', *, *, #318, .F. ) ;
#28 = ADVANCED_FACE ( 'NONE', ( #1 ), #77, .T. ) ;
#29 = CARTESIAN_POINT ( 'NONE',  ( 2.883495081569070528, 16.28347531752299560, -28.56194263522397847 ) ) ;
#30 = ORIENTED_EDGE ( 'NONE', *, *, #95, .T. ) ;
#31 = FACE_OUTER_BOUND ( 'NONE', #24, .T. ) ;
#32 = ORIENTED_EDGE ( 'NONE', *, *, #484, .F. ) ;
#33 = CARTESIAN_POINT ( 'NONE',  ( 12.00000000000003908, 16.49999999999998934, -32.90000000000001279 ) ) ;
#34 = ORIENTED_EDGE ( 'NONE', *, *, #386, .F. ) ;
#35 = LINE ( 'NONE', #149, #417 ) ;
#36 = CARTESIAN_POINT ( 'NONE',  ( 5.189197593833999811, 16.77385993290399924, -28.60978524512000121 ) ) ;
#37 = CARTESIAN_POINT ( 'NONE',  ( 0.000000000000000000, 0.000000000000000000, 0.000000000000000000 ) ) ;
#38 = DIRECTION ( 'NONE',  ( -3.299999999999999882E-16, -1.000000000000000000, 5.600000000000000277E-16 ) ) ;
#39 = PRODUCT_DEFINITION_SHAPE ( 'NONE', 'NONE',  #58 ) ;
#40 = CARTESIAN_POINT ( 'NONE',  ( -3.661762833467000267, 16.77385993291500199, -24.03556602474000314 ) ) ;
#41 = AXIS2_PLACEMENT_3D ( 'NONE', #5, #381, #346 ) ;
#42 = ADVANCED_FACE ( 'NONE', ( #449 ), #383, .T. ) ;
#43 = CARTESIAN_POINT ( 'NONE',  ( -1.717811083517999826, 16.77385993294199906, -32.57674020210000521 ) ) ;
#44 = SURFACE_STYLE_FILL_AREA ( #306 ) ;
#45 = DIRECTION ( 'NONE',  ( 3.299999999999999882E-16, 1.000000000000000000, -5.600000000000000277E-16 ) ) ;
#46 = CARTESIAN_POINT ( 'NONE',  ( 1.495000000000000193E-14, 15.00000000000000355, -20.90000000000000213 ) ) ;
#47 = CARTESIAN_POINT ( 'NONE',  ( -4.985843965852000181, 16.77385993289599853, -25.96063962324999963 ) ) ;
#48 = CLOSED_SHELL ( 'NONE', ( #42, #269, #361, #28, #169, #232, #186, #132, #298, #125, #114, #413 ) ) ;
#49 =( GEOMETRIC_REPRESENTATION_CONTEXT ( 3 ) GLOBAL_UNCERTAINTY_ASSIGNED_CONTEXT ( ( #336 ) ) GLOBAL_UNIT_ASSIGNED_CONTEXT ( ( #216, #261, #333 ) ) REPRESENTATION_CONTEXT ( 'NONE', 'WORKASPACE' ) );
#50 = SURFACE_STYLE_USAGE ( .BOTH. , #480 ) ;
#51 = DIRECTION ( 'NONE',  ( -8.600000000000002680E-16, 5.782411586589358625E-16, 1.000000000000000000 ) ) ;
#52 =( NAMED_UNIT ( * ) PLANE_ANGLE_UNIT ( ) SI_UNIT ( $, .RADIAN. ) );
#53 = CARTESIAN_POINT ( 'NONE',  ( 3.661762833467000267, 16.77385993290999622, -24.03556602474000314 ) ) ;
#54 = CARTESIAN_POINT ( 'NONE',  ( 1.810011304389999909, 16.77385993290899791, -23.10009246417000028 ) ) ;
#55 = MECHANICAL_DESIGN_GEOMETRIC_PRESENTATION_REPRESENTATION (  '', ( #66 ), #442 ) ;
#56 = CARTESIAN_POINT ( 'NONE',  ( -1.661942635223939257, 16.28347531752300270, -24.01650491843095026 ) ) ;
#57 = B_SPLINE_CURVE_WITH_KNOTS ( 'NONE', 1,
 ( #310, #235 ),
 .UNSPECIFIED., .F., .F.,
 ( 2, 2 ),
 ( 0.000000000000000000, 20.73451151369300050 ),
 .UNSPECIFIED. ) ;
#58 = PRODUCT_DEFINITION ( 'General', '', #156, #373 ) ;
#59 = DIRECTION ( 'NONE',  ( -3.299999999999999882E-16, -1.000000000000000000, 5.600000000000000277E-16 ) ) ;
#60 = CARTESIAN_POINT ( 'NONE',  ( -1.661942635223952802, 16.28347531752299560, -29.78349508156905401 ) ) ;
#61 = CARTESIAN_POINT ( 'NONE',  ( 2.474521192051159451E-14, 16.49999999999999289, -32.90000000000001990 ) ) ;
#62 = ORIENTED_EDGE ( 'NONE', *, *, #408, .F. ) ;
#63 = DIRECTION ( 'NONE',  ( 3.299999999999999882E-16, 1.000000000000000000, -5.600000000000000277E-16 ) ) ;
#64 = CARTESIAN_POINT ( 'NONE',  ( 1.442199999999999966E-14, 6.000000000000001776, -23.59999999999999787 ) ) ;
#65 = ORIENTED_EDGE ( 'NONE', *, *, #95, .F. ) ;
#66 = STYLED_ITEM ( 'NONE', ( #199 ), #330 ) ;
#67 = CARTESIAN_POINT ( 'NONE',  ( -9.062689433016263507, 16.74647026154841711, -22.36865528349187215 ) ) ;
#68 = VERTEX_POINT ( 'NONE', #263 ) ;
#69 = CARTESIAN_POINT ( 'NONE',  ( 1.692999999999999703E-14, 6.000000000000000000, -26.89999999999999858 ) ) ;
#70 = VERTEX_POINT ( 'NONE', #411 ) ;
#71 = LINE ( 'NONE', #262, #9 ) ;
#72 = VERTEX_POINT ( 'NONE', #158 ) ;
#73 = APPLICATION_PROTOCOL_DEFINITION ( 'draft international standard', 'automotive_design', 1998, #17 ) ;
#74 = AXIS2_PLACEMENT_3D ( 'NONE', #181, #441, #444 ) ;
#75 = UNCERTAINTY_MEASURE_WITH_UNIT (LENGTH_MEASURE( 1.000000000000000082E-05 ), #101, 'distance_accuracy_value', 'NONE');
#76 = CYLINDRICAL_SURFACE ( 'NONE', #84, 3.300000000000000711 ) ;
#77 = CYLINDRICAL_SURFACE ( 'NONE', #108, 4.500000000000000888 ) ;
#78 = CARTESIAN_POINT ( 'NONE',  ( -2.686201450850147499, 16.77385993290954502, -29.97873089013772940 ) ) ;
#79 = CARTESIAN_POINT ( 'NONE',  ( -4.183231013069029558, 16.77385993290948463, -26.38375686616040383 ) ) ;
#80 = EDGE_CURVE ( 'NONE', #70, #470, #25, .T. ) ;
#81 = PRODUCT ( 'Body023.step', 'Body023.step', '', ( #258 ) ) ;
#82 = CARTESIAN_POINT ( 'NONE',  ( -1.491819609329000151, 16.28347531758600297, -31.82992065999999554 ) ) ;
#83 = B_SPLINE_CURVE_WITH_KNOTS ( 'NONE', 3,
 ( #26, #467, #358, #400, #177, #363, #477, #469, #434, #291, #437, #29, #185, #253, #111, #183, #143, #471 ),
 .UNSPECIFIED., .F., .F.,
 ( 4, 2, 2, 2, 2, 2, 2, 2, 4 ),
 ( 0.000000000000000000, 0.06250000000000000000, 0.1250000000000000000, 0.1875000000000000000, 0.2500000000000000000, 0.3125000000000000000, 0.3750000000000000000, 0.4375000000000000000, 0.5000000000000000000 ),
 .UNSPECIFIED. ) ;
#84 = AXIS2_PLACEMENT_3D ( 'NONE', #224, #299, #382 ) ;
#85 = CARTESIAN_POINT ( 'NONE',  ( 1.654999999999999953E-14, 16.77385993290899791, -23.10009246416000295 ) ) ;
#86 = CARTESIAN_POINT ( 'NONE',  ( 1.993000000000000002E-14, 15.00000000000000000, -26.89999999999999858 ) ) ;
#87 = CARTESIAN_POINT ( 'NONE',  ( 1.785999999999999912E-14, 16.28347531752299915, -23.59999999999999787 ) ) ;
#88 = CARTESIAN_POINT ( 'NONE',  ( 1.993000000000000002E-14, 15.00000000000000000, -26.89999999999999858 ) ) ;
#89 = CARTESIAN_POINT ( 'NONE',  ( 3.180029312952000087, 16.28347531751999711, -24.41240470216000347 ) ) ;
#90 = CIRCLE ( 'NONE', #395, 3.300000000000000711 ) ;
#91 = CARTESIAN_POINT ( 'NONE',  ( 1.692999999999999703E-14, 6.000000000000000000, -26.89999999999999858 ) ) ;
#92 = CARTESIAN_POINT ( 'NONE',  ( -3.661762833467000267, 16.77385993291500199, -24.03556602474000314 ) ) ;
#93 = CYLINDRICAL_SURFACE ( 'NONE', #476, 3.300000000000000711 ) ;
#94 = CARTESIAN_POINT ( 'NONE',  ( 1.571890170527999953, 16.28347531752600119, -23.59999999999000053 ) ) ;
#95 = EDGE_CURVE ( 'NONE', #465, #438, #392, .T. ) ;
#96 = SURFACE_SIDE_STYLE ('',( #280 ) ) ;
#97 = CARTESIAN_POINT ( 'NONE',  ( 1.692999999999999703E-14, 6.000000000000000000, -26.89999999999999858 ) ) ;
#98 = AXIS2_PLACEMENT_3D ( 'NONE', #463, #63, #433 ) ;
#99 = CARTESIAN_POINT ( 'NONE',  ( -10.54193571497825310, 16.65478967987961667, -32.17096785748915266 ) ) ;
#100 = EDGE_LOOP ( 'NONE', ( #257, #468, #290, #321 ) ) ;
#101 =( LENGTH_UNIT ( ) NAMED_UNIT ( * ) SI_UNIT ( .MILLI., .METRE. ) );
#102 = CARTESIAN_POINT ( 'NONE',  ( 2.394185095599426347E-14, 16.77436571332131976, -30.68658681076193417 ) ) ;
#103 = EDGE_CURVE ( 'NONE', #367, #369, #350, .T. ) ;
#104 = ORIENTED_EDGE ( 'NONE', *, *, #247, .T. ) ;
#105 = DIRECTION ( 'NONE',  ( 0.000000000000000000, 0.000000000000000000, 1.000000000000000000 ) ) ;
#106 = CARTESIAN_POINT ( 'NONE',  ( -7.573166601926518027, 16.77436584478388326, -23.11341669903675111 ) ) ;
#107 = EDGE_LOOP ( 'NONE', ( #65, #252, #267, #249 ) ) ;
#108 = AXIS2_PLACEMENT_3D ( 'NONE', #86, #38, #160 ) ;
#109 = DIRECTION ( 'NONE',  ( 3.299999999999999882E-16, 1.000000000000000000, -5.600000000000000277E-16 ) ) ;
#110 = EDGE_LOOP ( 'NONE', ( #301, #145, #260, #189 ) ) ;
#111 = CARTESIAN_POINT ( 'NONE',  ( 1.661942635223986109, 16.28347531752299560, -29.78349508156906111 ) ) ;
#112 = ORIENTED_EDGE ( 'NONE', *, *, #12, .T. ) ;
#113 = PRESENTATION_STYLE_ASSIGNMENT (( #394 ) ) ;
#114 = ADVANCED_FACE ( 'NONE', ( #126 ), #305, .T. ) ;
#115 = CARTESIAN_POINT ( 'NONE',  ( 2.454020821222259428E-14, 16.65386319055055253, -32.17533145912658910 ) ) ;
#116 = ADVANCED_BREP_SHAPE_REPRESENTATION ( 'Body023.step', ( #330, #453 ), #138 ) ;
#117 = CARTESIAN_POINT ( 'NONE',  ( 2.675145797427655125, 16.77385993290949884, -23.80846344427001782 ) ) ;
#118 = CARTESIAN_POINT ( 'NONE',  ( -4.329917223558000572, 16.28347531750399924, -26.08421982271000061 ) ) ;
#119 = EDGE_CURVE ( 'NONE', #438, #184, #246, .T. ) ;
#120 = CARTESIAN_POINT ( 'NONE',  ( 2.455717920679667543E-14, 16.77385993290951660, -30.69989110582915615 ) ) ;
#121 = CARTESIAN_POINT ( 'NONE',  ( 1.654999999999999953E-14, 16.77385993290899791, -23.10009246416000295 ) ) ;
#122 = VECTOR ( 'NONE', #366, 1000.000000000000000 ) ;
#123 = CARTESIAN_POINT ( 'NONE',  ( 3.661762833467000267, 16.77385993290999622, -24.03556602474000314 ) ) ;
#124 = DIRECTION ( 'NONE',  ( -9.299999999999999263E-16, 3.854941057726237111E-16, 1.000000000000000000 ) ) ;
#125 = ADVANCED_FACE ( 'NONE', ( #14, #167 ), #205, .F. ) ;
#126 = FACE_OUTER_BOUND ( 'NONE', #142, .T. ) ;
#127 = LINE ( 'NONE', #240, #270 ) ;
#128 = CARTESIAN_POINT ( 'NONE',  ( -5.189197593831999633, 16.77385993293300004, -28.60978524515000032 ) ) ;
#129 = AXIS2_PLACEMENT_3D ( 'NONE', #173, #279, #430 ) ;
#130 = CARTESIAN_POINT ( 'NONE',  ( 2.460771192051158627E-14, 16.49999999999999645, -32.89999999999999858 ) ) ;
#131 = CARTESIAN_POINT ( 'NONE',  ( -4.506518092393999808, 16.28347531756200084, -28.38484963274000350 ) ) ;
#132 = ADVANCED_FACE ( 'NONE', ( #198 ), #8, .T. ) ;
#133 = FILL_AREA_STYLE ('',( #461 ) ) ;
#134 = CARTESIAN_POINT ( 'NONE',  ( -1.810011304389999909, 16.77385993290799959, -23.10009246417000028 ) ) ;
#135 = DIRECTION ( 'NONE',  ( 3.299999999999999882E-16, 1.000000000000000000, -5.600000000000000277E-16 ) ) ;
#136 = CARTESIAN_POINT ( 'NONE',  ( -9.062689433016242191, 16.74647026154841001, -31.43134471650814632 ) ) ;
#137 = EDGE_LOOP ( 'NONE', ( #182, #409, #443, #329 ) ) ;
#138 =( GEOMETRIC_REPRESENTATION_CONTEXT ( 3 ) GLOBAL_UNCERTAINTY_ASSIGNED_CONTEXT ( ( #75 ) ) GLOBAL_UNIT_ASSIGNED_CONTEXT ( ( #101, #52, #322 ) ) REPRESENTATION_CONTEXT ( 'NONE', 'WORKASPACE' ) );
#139 = CARTESIAN_POINT ( 'NONE',  ( -3.214109833005422523, 16.28347531752300270, -27.76376801838561903 ) ) ;
#140 = CARTESIAN_POINT ( 'NONE',  ( 7.573173621523870302, 16.77436571332131265, -30.68658681076193062 ) ) ;
#141 = EDGE_LOOP ( 'NONE', ( #104, #285 ) ) ;
#142 = EDGE_LOOP ( 'NONE', ( #445, #287, #473, #227 ) ) ;
#143 = CARTESIAN_POINT ( 'NONE',  ( 0.4319689898686127072, 16.28347531752299560, -30.20000000000001705 ) ) ;
#144 = VERTEX_POINT ( 'NONE', #163 ) ;
#145 = ORIENTED_EDGE ( 'NONE', *, *, #247, .F. ) ;
#146 = CIRCLE ( 'NONE', #478, 4.500000000000000888 ) ;
#147 = CARTESIAN_POINT ( 'NONE',  ( 1.993000000000000002E-14, 15.00000000000000000, -26.89999999999999858 ) ) ;
#148 = ORIENTED_EDGE ( 'NONE', *, *, #327, .T. ) ;
#149 = CARTESIAN_POINT ( 'NONE',  ( 1.984213344371862543E-14, 5.999999999999998224, -30.20000000000000284 ) ) ;
#150 = ORIENTED_EDGE ( 'NONE', *, *, #472, .T. ) ;
#151 = CARTESIAN_POINT ( 'NONE',  ( 1.654999999999999953E-14, 16.77385993290899791, -23.10009246416000295 ) ) ;
#152 =( BOUNDED_SURFACE ( )  B_SPLINE_SURFACE ( 3, 3, ( 
 ( #289, #106, #175, #402 ),
 ( #320, #67, #136, #406 ),
 ( #283, #21, #99, #217 ),
 ( #248, #368, #398, #61 ) ),
 .UNSPECIFIED., .F., .F., .F. ) 
 B_SPLINE_SURFACE_WITH_KNOTS ( ( 4, 4 ),
 ( 4, 4 ),
 ( 7.248620044496278947E-06, 1.000000000000000000 ),
 ( 0.000000000000000000, 1.000000000000000000 ),
 .UNSPECIFIED. ) 
 GEOMETRIC_REPRESENTATION_ITEM ( )  RATIONAL_B_SPLINE_SURFACE ( (
 ( 0.9999999465606060900, 0.3333333155202021225, 0.3333333155202021225, 0.9999999465606060900),
 ( 0.9975425308156501414, 0.3325141769385501211, 0.3325141769385501211, 0.9975425308156501414),
 ( 0.9975425486287814447, 0.3325141828762605556, 0.3325141828762605556, 0.9975425486287814447),
 ( 1.000000000000000000, 0.3333333333333334259, 0.3333333333333334259, 1.000000000000000000) ) ) 
 REPRESENTATION_ITEM ( '' )  SURFACE ( )  );
#153 = B_SPLINE_CURVE_WITH_KNOTS ( 'NONE', 1,
 ( #20, #436 ),
 .UNSPECIFIED., .F., .F.,
 ( 2, 2 ),
 ( 0.000000000000000000, 20.73451151369300050 ),
 .UNSPECIFIED. ) ;
#154 = EDGE_CURVE ( 'NONE', #144, #465, #57, .T. ) ;
#155 = AXIS2_PLACEMENT_3D ( 'NONE', #308, #200, #51 ) ;
#156 = PRODUCT_DEFINITION_FORMATION_WITH_SPECIFIED_SOURCE ( 'Symmetric', '', #81, .NOT_KNOWN. ) ;
#157 = CARTESIAN_POINT ( 'NONE',  ( 1.491819609331000107, 16.28347531746599941, -31.82992065993999731 ) ) ;
#158 = CARTESIAN_POINT ( 'NONE',  ( 1.574500000000000006E-14, 15.00000000000000178, -22.39999999999999858 ) ) ;
#159 = ORIENTED_EDGE ( 'NONE', *, *, #339, .F. ) ;
#160 = DIRECTION ( 'NONE',  ( -9.299999999999999263E-16, 3.854941057726237111E-16, 1.000000000000000000 ) ) ;
#161 = FILL_AREA_STYLE_COLOUR ( '', #277 ) ;
#162 = CIRCLE ( 'NONE', #98, 5.999999999999998224 ) ;
#163 = CARTESIAN_POINT ( 'NONE',  ( 1.996164322826455027E-14, 16.28347531752397970, -30.19999286574749675 ) ) ;
#164 = CARTESIAN_POINT ( 'NONE',  ( 0.9050056521950181621, 16.77385993290899791, -23.10009246416500162 ) ) ;
#165 = CARTESIAN_POINT ( 'NONE',  ( 1.717811083518999915, 16.77385993288499932, -32.57674020205000431 ) ) ;
#166 = CARTESIAN_POINT ( 'NONE',  ( 10.54193801672525588, 16.65478943552366786, -21.62903099163738219 ) ) ;
#167 = FACE_OUTER_BOUND ( 'NONE', #401, .T. ) ;
#168 = CARTESIAN_POINT ( 'NONE',  ( -2.638900579913976863, 16.28347531752299915, -28.92800417591721285 ) ) ;
#169 = ADVANCED_FACE ( 'NONE', ( #11 ), #387, .T. ) ;
#170 = CARTESIAN_POINT ( 'NONE',  ( 4.329917223556000394, 16.28347531753900057, -26.08421982271999795 ) ) ;
#171 = CIRCLE ( 'NONE', #19, 4.500000000000000888 ) ;
#172 = CARTESIAN_POINT ( 'NONE',  ( -2.028004175917202723, 16.28347531752299560, -29.53890057991399232 ) ) ;
#173 = CARTESIAN_POINT ( 'NONE',  ( 1.993000000000000002E-14, 15.00000000000000000, -26.89999999999999858 ) ) ;
#174 = CARTESIAN_POINT ( 'NONE',  ( 1.654999999999999953E-14, 16.77385993290899791, -23.10009246416000295 ) ) ;
#175 = CARTESIAN_POINT ( 'NONE',  ( -7.573166601926502040, 16.77436584478387260, -30.68658330096328157 ) ) ;
#176 = CARTESIAN_POINT ( 'NONE',  ( 2.043000000000000105E-14, 16.50000000000000000, -26.89999999999999858 ) ) ;
#177 = CARTESIAN_POINT ( 'NONE',  ( 2.028004175917238250, 16.28347531752299915, -24.26109942008600839 ) ) ;
#178 = B_SPLINE_CURVE_WITH_KNOTS ( 'NONE', 3,
 ( #18, #354, #245, #60, #172, #168, #397, #139, #431, #206, #276, #429, #357, #250, #56, #242, #22, #180 ),
 .UNSPECIFIED., .F., .F.,
 ( 4, 2, 2, 2, 2, 2, 2, 2, 4 ),
 ( 0.5000000000000000000, 0.5625000000000000000, 0.6250000000000001110, 0.6875000000000000000, 0.7500000000000000000, 0.8125000000000000000, 0.8750000000000000000, 0.9375000000000000000, 1.000000000000000000 ),
 .UNSPECIFIED. ) ;
#179 = ORIENTED_EDGE ( 'NONE', *, *, #378, .F. ) ;
#180 = CARTESIAN_POINT ( 'NONE',  ( 1.783777342739129508E-14, 16.28347531752299915, -23.60000000000000142 ) ) ;
#181 = CARTESIAN_POINT ( 'NONE',  ( 1.993000000000000002E-14, 15.00000000000000000, -26.89999999999999858 ) ) ;
#182 = ORIENTED_EDGE ( 'NONE', *, *, #12, .F. ) ;
#183 = CARTESIAN_POINT ( 'NONE',  ( 0.8637680183856418781, 16.28347531752299915, -30.11410983300545396 ) ) ;
#184 = VERTEX_POINT ( 'NONE', #278 ) ;
#185 = CARTESIAN_POINT ( 'NONE',  ( 2.638900579914013722, 16.28347531752299915, -28.92800417591723061 ) ) ;
#186 = ADVANCED_FACE ( 'NONE', ( #239 ), #275, .T. ) ;
#187 = ORIENTED_EDGE ( 'NONE', *, *, #119, .T. ) ;
#188 = CARTESIAN_POINT ( 'NONE',  ( 2.460771192051158627E-14, 16.49999999999999645, -32.89999999999999858 ) ) ;
#189 = ORIENTED_EDGE ( 'NONE', *, *, #211, .T. ) ;
#190 = CARTESIAN_POINT ( 'NONE',  ( 1.654999999999999953E-14, 16.77385993290899791, -23.10009246416000295 ) ) ;
#191 = DIRECTION ( 'NONE',  ( -9.299999999999999263E-16, 3.854941057726237111E-16, 1.000000000000000000 ) ) ;
#192 = CARTESIAN_POINT ( 'NONE',  ( -1.810011304389999909, 16.77385993290799959, -23.10009246417000028 ) ) ;
#193 = EDGE_CURVE ( 'NONE', #184, #369, #312, .T. ) ;
#194 = CARTESIAN_POINT ( 'NONE',  ( 1.571890170527999953, 16.28347531752600119, -23.59999999999000053 ) ) ;
#195 = CARTESIAN_POINT ( 'NONE',  ( -3.396449729725091959, 16.77385993290925370, -24.51038763796434594 ) ) ;
#196 = CARTESIAN_POINT ( 'NONE',  ( -3.280919599354999772, 16.28347531747300181, -30.37231995353999991 ) ) ;
#197 = CARTESIAN_POINT ( 'NONE',  ( 2.455717920679667543E-14, 16.77385993290951660, -30.69989110582915615 ) ) ;
#198 = FACE_OUTER_BOUND ( 'NONE', #407, .T. ) ;
#199 = PRESENTATION_STYLE_ASSIGNMENT (( #50 ) ) ;
#200 = DIRECTION ( 'NONE',  ( -3.299999999999999882E-16, -1.000000000000000000, 5.600000000000000277E-16 ) ) ;
#201 =( NAMED_UNIT ( * ) PLANE_ANGLE_UNIT ( ) SI_UNIT ( $, .RADIAN. ) );
#202 =( BOUNDED_SURFACE ( )  B_SPLINE_SURFACE ( 3, 3, ( 
 ( #102, #140, #23, #251 ),
 ( #213, #13, #274, #231 ),
 ( #347, #6, #166, #423 ),
 ( #385, #33, #311, #234 ) ),
 .UNSPECIFIED., .F., .F., .F. ) 
 B_SPLINE_SURFACE_WITH_KNOTS ( ( 4, 4 ),
 ( 4, 4 ),
 ( 8.823361237653322420E-06, 1.000000000000000000 ),
 ( 0.000000000000000000, 1.000000000000000000 ),
 .UNSPECIFIED. ) 
 GEOMETRIC_REPRESENTATION_ITEM ( )  RATIONAL_B_SPLINE_SURFACE ( (
 ( 0.9999999349511590196, 0.3333333116503864324, 0.3333333116503864324, 0.9999999349511590196),
 ( 0.9975425308157125359, 0.3325141769385709378, 0.3325141769385709378, 0.9975425308157125359),
 ( 0.9975425524986594183, 0.3325141841662199171, 0.3325141841662199171, 0.9975425524986594183),
 ( 1.000000000000000000, 0.3333333333333334259, 0.3333333333333334259, 1.000000000000000000) ) ) 
 REPRESENTATION_ITEM ( '' )  SURFACE ( )  );
#203 = DIRECTION ( 'NONE',  ( -8.600000000000002680E-16, 5.782411586589358625E-16, 1.000000000000000000 ) ) ;
#204 = CARTESIAN_POINT ( 'NONE',  ( 1.692999999999999703E-14, 6.000000000000000000, -26.89999999999999858 ) ) ;
#205 = PLANE ( 'NONE',  #244 ) ;
#206 = CARTESIAN_POINT ( 'NONE',  ( -3.299999999999978506, 16.28347531752300270, -26.46803101013140846 ) ) ;
#207 = CARTESIAN_POINT ( 'NONE',  ( 3.777936700005000148, 16.77385993292299915, -30.89833174497999835 ) ) ;
#208 = FACE_OUTER_BOUND ( 'NONE', #107, .T. ) ;
#209 = DIRECTION ( 'NONE',  ( 3.299999999999999882E-16, 1.000000000000000000, -5.600000000000000277E-16 ) ) ;
#210 = FACE_OUTER_BOUND ( 'NONE', #479, .T. ) ;
#211 = EDGE_CURVE ( 'NONE', #212, #144, #83, .T. ) ;
#212 = VERTEX_POINT ( 'NONE', #286 ) ;
#213 = CARTESIAN_POINT ( 'NONE',  ( 2.425543573805679611E-14, 16.74646997279976190, -31.43134704595511053 ) ) ;
#214 = EDGE_LOOP ( 'NONE', ( #384, #435 ) ) ;
#215 = CIRCLE ( 'NONE', #41, 5.999999999999998224 ) ;
#216 =( LENGTH_UNIT ( ) NAMED_UNIT ( * ) SI_UNIT ( .MILLI., .METRE. ) );
#217 = CARTESIAN_POINT ( 'NONE',  ( 2.449973260073494439E-14, 16.65478967987961312, -32.17096785748914556 ) ) ;
#218 = EDGE_LOOP ( 'NONE', ( #32, #112, #360, #221 ) ) ;
#219 = EDGE_CURVE ( 'NONE', #68, #254, #90, .T. ) ;
#220 = FACE_BOUND ( 'NONE', #214, .T. ) ;
#221 = ORIENTED_EDGE ( 'NONE', *, *, #193, .F. ) ;
#222 =( LENGTH_UNIT ( ) NAMED_UNIT ( * ) SI_UNIT ( .MILLI., .METRE. ) );
#223 = ORIENTED_EDGE ( 'NONE', *, *, #302, .F. ) ;
#224 = CARTESIAN_POINT ( 'NONE',  ( 1.692999999999999703E-14, 6.000000000000000000, -26.89999999999999858 ) ) ;
#225 = CARTESIAN_POINT ( 'NONE',  ( 3.180029312952000087, 16.28347531751999711, -24.41240470216000347 ) ) ;
#226 = CARTESIAN_POINT ( 'NONE',  ( -3.912512826557957624, 16.77385993290947397, -28.40369149870913290 ) ) ;
#227 = ORIENTED_EDGE ( 'NONE', *, *, #318, .T. ) ;
#228 = DIRECTION ( 'NONE',  ( 3.299999999999999882E-16, 1.000000000000000000, -5.600000000000000277E-16 ) ) ;
#229 = AXIS2_PLACEMENT_3D ( 'NONE', #454, #424, #203 ) ;
#230 = CARTESIAN_POINT ( 'NONE',  ( 1.785999999999999912E-14, 16.28347531752299915, -23.59999999999999787 ) ) ;
#231 = CARTESIAN_POINT ( 'NONE',  ( 1.721216440955652766E-14, 16.74646997279976546, -22.36865295404490439 ) ) ;
#232 = ADVANCED_FACE ( 'NONE', ( #220, #31 ), #328, .F. ) ;
#233 = CARTESIAN_POINT ( 'NONE',  ( 3.280919599350999860, 16.28347531757099986, -30.37231995357999992 ) ) ;
#234 = CARTESIAN_POINT ( 'NONE',  ( 1.669521158912132243E-14, 16.50000000000000000, -20.90000000000000213 ) ) ;
#235 = CARTESIAN_POINT ( 'NONE',  ( 2.455717920679667543E-14, 16.77385993290951660, -30.69989110582915615 ) ) ;
#236 = CARTESIAN_POINT ( 'NONE',  ( 1.820446360561774224, 16.77385993290925015, -23.33396085431000699 ) ) ;
#237 = CARTESIAN_POINT ( 'NONE',  ( -4.329917223558000572, 16.28347531750399924, -26.08421982271000061 ) ) ;
#238 = EDGE_CURVE ( 'NONE', #399, #72, #324, .T. ) ;
#239 = FACE_OUTER_BOUND ( 'NONE', #137, .T. ) ;
#240 = CARTESIAN_POINT ( 'NONE',  ( 1.574500000000000006E-14, 15.00000000000000178, -22.39999999999999858 ) ) ;
#241 = CARTESIAN_POINT ( 'NONE',  ( -3.280919599354999772, 16.28347531747300181, -30.37231995353999991 ) ) ;
#242 = CARTESIAN_POINT ( 'NONE',  ( -0.8637680183855939164, 16.28347531752300981, -23.68589016699456806 ) ) ;
#243 = CARTESIAN_POINT ( 'NONE',  ( 1.491819609331000107, 16.28347531746599941, -31.82992065993999731 ) ) ;
#244 = AXIS2_PLACEMENT_3D ( 'NONE', #97, #45, #351 ) ;
#245 = CARTESIAN_POINT ( 'NONE',  ( -0.8637680183856094596, 16.28347531752299560, -30.11410983300544331 ) ) ;
#246 =( BOUNDED_CURVE ( )  B_SPLINE_CURVE ( 3, ( #315, #281, #432, #422 ),
 .UNSPECIFIED., .F., .F. ) 
 B_SPLINE_CURVE_WITH_KNOTS ( ( 4, 4 ),
 ( 0.005985417095429736850, 1.000000000000000000 ),
 .UNSPECIFIED. ) 
 CURVE ( )  GEOMETRIC_REPRESENTATION_ITEM ( )  RATIONAL_B_SPLINE_CURVE ( ( 0.9999561371839014168, 0.9975426188548898176, 0.9975572397935893454, 1.000000000000000000 ) ) 
 REPRESENTATION_ITEM ( '' )  );
#247 = EDGE_CURVE ( 'NONE', #254, #68, #426, .T. ) ;
#248 = CARTESIAN_POINT ( 'NONE',  ( 1.526999999999999451E-14, 16.50000000000000000, -20.89999999999999858 ) ) ;
#249 = ORIENTED_EDGE ( 'NONE', *, *, #119, .F. ) ;
#250 = CARTESIAN_POINT ( 'NONE',  ( -2.028004175917192065, 16.28347531752300981, -24.26109942008601195 ) ) ;
#251 = CARTESIAN_POINT ( 'NONE',  ( 1.745295355654712652E-14, 16.77436571332132331, -23.11341318923808075 ) ) ;
#252 = ORIENTED_EDGE ( 'NONE', *, *, #339, .T. ) ;
#253 = CARTESIAN_POINT ( 'NONE',  ( 2.028004175917237806, 16.28347531752299560, -29.53890057991401363 ) ) ;
#254 = VERTEX_POINT ( 'NONE', #64 ) ;
#255 = EDGE_CURVE ( 'NONE', #399, #70, #256, .T. ) ;
#256 = LINE ( 'NONE', #323, #452 ) ;
#257 = ORIENTED_EDGE ( 'NONE', *, *, #238, .F. ) ;
#258 = PRODUCT_CONTEXT ( 'NONE', #370, 'mechanical' ) ;
#259 = DIRECTION ( 'NONE',  ( 3.299999999999999882E-16, 1.000000000000000000, -5.600000000000000277E-16 ) ) ;
#260 = ORIENTED_EDGE ( 'NONE', *, *, #344, .T. ) ;
#261 =( NAMED_UNIT ( * ) PLANE_ANGLE_UNIT ( ) SI_UNIT ( $, .RADIAN. ) );
#262 = CARTESIAN_POINT ( 'NONE',  ( 1.442199999999999966E-14, 6.000000000000001776, -23.59999999999999787 ) ) ;
#263 = CARTESIAN_POINT ( 'NONE',  ( 2.153890687110991639E-14, 5.999999999999998224, -30.20000000000000284 ) ) ;
#264 = PRESENTATION_LAYER_ASSIGNMENT (  '', '', ( #466 ) ) ;
#265 = CARTESIAN_POINT ( 'NONE',  ( 3.777936700005000148, 16.77385993292299915, -30.89833174497999835 ) ) ;
#266 = CARTESIAN_POINT ( 'NONE',  ( -1.836568793616518036, 16.77385993290955568, -30.45950436726531407 ) ) ;
#267 = ORIENTED_EDGE ( 'NONE', *, *, #484, .T. ) ;
#268 = CARTESIAN_POINT ( 'NONE',  ( 1.810011304389999909, 16.77385993290899791, -23.10009246417000028 ) ) ;
#269 = ADVANCED_FACE ( 'NONE', ( #208 ), #152, .F. ) ;
#270 = VECTOR ( 'NONE', #359, 1000.000000000000000 ) ;
#271 = CARTESIAN_POINT ( 'NONE',  ( 1.717811083518999915, 16.77385993288499932, -32.57674020205000431 ) ) ;
#272 = CARTESIAN_POINT ( 'NONE',  ( 2.425881648474696800E-14, 16.74537316787963093, -31.44017682649550949 ) ) ;
#273 = CARTESIAN_POINT ( 'NONE',  ( -3.180029312950999998, 16.28347531753300004, -24.41240470216000347 ) ) ;
#274 = CARTESIAN_POINT ( 'NONE',  ( 9.062694091910220351, 16.74646997279976546, -22.36865295404490084 ) ) ;
#275 = CYLINDRICAL_SURFACE ( 'NONE', #229, 5.999999999999998224 ) ;
#276 = CARTESIAN_POINT ( 'NONE',  ( -3.214109833005418526, 16.28347531752299915, -26.03623198161437458 ) ) ;
#277 = COLOUR_RGB ( '',0.2274509803921568596, 0.2274509803921568596, 0.2274509803921568596 ) ;
#278 = CARTESIAN_POINT ( 'NONE',  ( 1.527000000000000082E-14, 16.50000000000000355, -20.90000000000000213 ) ) ;
#279 = DIRECTION ( 'NONE',  ( 3.299999999999999882E-16, 1.000000000000000000, -5.600000000000000277E-16 ) ) ;
#280 = SURFACE_STYLE_FILL_AREA ( #133 ) ;
#281 = CARTESIAN_POINT ( 'NONE',  ( 1.609711210892430275E-14, 16.74537181259658780, -22.35981228572958912 ) ) ;
#282 = CARTESIAN_POINT ( 'NONE',  ( 1.377999999999999909E-14, 6.000000000000002665, -22.39999999999999858 ) ) ;
#283 = CARTESIAN_POINT ( 'NONE',  ( 1.570692119647733751E-14, 16.65478967987962022, -21.62903214251086936 ) ) ;
#284 = AXIS2_PLACEMENT_3D ( 'NONE', #176, #425, #15 ) ;
#285 = ORIENTED_EDGE ( 'NONE', *, *, #219, .T. ) ;
#286 = CARTESIAN_POINT ( 'NONE',  ( 1.783777342739129508E-14, 16.28347531752299915, -23.60000000000000142 ) ) ;
#287 = ORIENTED_EDGE ( 'NONE', *, *, #211, .F. ) ;
#288 = DIRECTION ( 'NONE',  ( 1.000000000000000000, 0.000000000000000000, 0.000000000000000000 ) ) ;
#289 = CARTESIAN_POINT ( 'NONE',  ( 1.655350762401904347E-14, 16.77436584478387260, -23.11341669903674401 ) ) ;
#290 = ORIENTED_EDGE ( 'NONE', *, *, #80, .T. ) ;
#291 = CARTESIAN_POINT ( 'NONE',  ( 3.300000000000019806, 16.28347531752300270, -27.33196898986860290 ) ) ;
#292 = ORIENTED_EDGE ( 'NONE', *, *, #421, .T. ) ;
#293 = EDGE_LOOP ( 'NONE', ( #3, #148, #332, #474 ) ) ;
#294 = DIRECTION ( 'NONE',  ( -7.599999999999996291E-16, 5.256737805990323064E-16, 1.000000000000000000 ) ) ;
#295 = ORIENTED_EDGE ( 'NONE', *, *, #80, .F. ) ;
#296 =( BOUNDED_CURVE ( )  B_SPLINE_CURVE ( 3, ( #371, #272, #115, #188 ),
 .UNSPECIFIED., .F., .T. ) 
 B_SPLINE_CURVE_WITH_KNOTS ( ( 4, 4 ),
 ( 0.005978056379293402930, 1.000000000000000000 ),
 .UNSPECIFIED. ) 
 CURVE ( )  GEOMETRIC_REPRESENTATION_ITEM ( )  RATIONAL_B_SPLINE_CURVE ( ( 0.9999561908008886002, 0.9975426186384857008, 0.9975572217048561674, 1.000000000000000000 ) ) 
 REPRESENTATION_ITEM ( '' )  );
#297 = LINE ( 'NONE', #448, #314 ) ;
#298 = ADVANCED_FACE ( 'NONE', ( #210 ), #202, .F. ) ;
#299 = DIRECTION ( 'NONE',  ( 3.299999999999999882E-16, 1.000000000000000000, -5.600000000000000277E-16 ) ) ;
#300 = CARTESIAN_POINT ( 'NONE',  ( 4.985843965850000004, 16.77385993290999622, -25.96063962327000141 ) ) ;
#301 = ORIENTED_EDGE ( 'NONE', *, *, #327, .F. ) ;
#302 = EDGE_CURVE ( 'NONE', #72, #399, #171, .T. ) ;
#303 = CARTESIAN_POINT ( 'NONE',  ( -1.820446360561725818, 16.77385993290999977, -23.33396085430999634 ) ) ;
#304 = CARTESIAN_POINT ( 'NONE',  ( 4.329917223556000394, 16.28347531753900057, -26.08421982271999795 ) ) ;
#305 = B_SPLINE_SURFACE_WITH_KNOTS ( 'NONE', 1, 13, ( 
 ( #87, #94, #89, #170, #317, #391, #243, #16, #241, #131, #237, #273, #462, #352 ),
 ( #460, #54, #53, #356, #393, #207, #165, #457, #459, #128, #47, #92, #134, #353 ) ),
 .UNSPECIFIED., .F., .T., .F.,
 ( 2, 2 ),
 ( 14, 14 ),
 ( 0.000000000000000000, 20.73451151369300050 ),
 ( 0.000000000000000000, 20.73451151369300050 ),
 .UNSPECIFIED. ) ;
#306 = FILL_AREA_STYLE ('',( #161 ) ) ;
#307 = CIRCLE ( 'NONE', #284, 5.999999999999998224 ) ;
#308 = CARTESIAN_POINT ( 'NONE',  ( 2.043000000000000105E-14, 16.50000000000000000, -26.89999999999999858 ) ) ;
#309 = CARTESIAN_POINT ( 'NONE',  ( 4.182321018935132528, 16.77385993290930699, -27.41399519443422150 ) ) ;
#310 = CARTESIAN_POINT ( 'NONE',  ( 1.996164322826455027E-14, 16.28347531752397970, -30.19999286574749675 ) ) ;
#311 = CARTESIAN_POINT ( 'NONE',  ( 12.00000000000003197, 16.49999999999999645, -20.89999999999999503 ) ) ;
#312 = LINE ( 'NONE', #427, #122 ) ;
#313 = CARTESIAN_POINT ( 'NONE',  ( 2.207890894038368919E-14, 14.99999999999999822, -31.39999999999999858 ) ) ;
#314 = VECTOR ( 'NONE', #419, 1000.000000000000000 ) ;
#315 = CARTESIAN_POINT ( 'NONE',  ( 1.654999999999999953E-14, 16.77385993290899791, -23.10009246416000295 ) ) ;
#316 = DIRECTION ( 'NONE',  ( -6.999999999999997388E-16, 5.782411586589355667E-16, 1.000000000000000000 ) ) ;
#317 = CARTESIAN_POINT ( 'NONE',  ( 4.506518092398000164, 16.28347531749600208, -28.38484963271000439 ) ) ;
#318 = EDGE_CURVE ( 'NONE', #438, #465, #456, .T. ) ;
#319 = FACE_OUTER_BOUND ( 'NONE', #110, .T. ) ;
#320 = CARTESIAN_POINT ( 'NONE',  ( 1.613581103964306371E-14, 16.74647026154841001, -22.36865528349187571 ) ) ;
#321 = ORIENTED_EDGE ( 'NONE', *, *, #421, .F. ) ;
#322 =( NAMED_UNIT ( * ) SI_UNIT ( $, .STERADIAN. ) SOLID_ANGLE_UNIT ( ) );
#323 = CARTESIAN_POINT ( 'NONE',  ( 2.356390894038369182E-14, 14.99999999999999822, -31.39999999999999858 ) ) ;
#324 = CIRCLE ( 'NONE', #364, 4.500000000000000888 ) ;
#325 = ORIENTED_EDGE ( 'NONE', *, *, #4, .F. ) ;
#326 = DIRECTION ( 'NONE',  ( -7.599999999999996291E-16, 5.256737805990323064E-16, 1.000000000000000000 ) ) ;
#327 = EDGE_CURVE ( 'NONE', #68, #144, #35, .T. ) ;
#328 = PLANE ( 'NONE',  #74 ) ;
#329 = ORIENTED_EDGE ( 'NONE', *, *, #4, .T. ) ;
#330 = MANIFOLD_SOLID_BREP ( '1_8 NPT - 1_4 Inch Push to Connect Elbow Fitting.step<1>', #48 ) ;
#331 = CARTESIAN_POINT ( 'NONE',  ( 1.692999999999999703E-14, 6.000000000000000000, -26.89999999999999858 ) ) ;
#332 = ORIENTED_EDGE ( 'NONE', *, *, #378, .T. ) ;
#333 =( NAMED_UNIT ( * ) SI_UNIT ( $, .STERADIAN. ) SOLID_ANGLE_UNIT ( ) );
#334 = DIRECTION ( 'NONE',  ( 3.299999999999999882E-16, 1.000000000000000000, -5.600000000000000277E-16 ) ) ;
#335 = ORIENTED_EDGE ( 'NONE', *, *, #103, .F. ) ;
#336 = UNCERTAINTY_MEASURE_WITH_UNIT (LENGTH_MEASURE( 1.000000000000000082E-05 ), #216, 'distance_accuracy_value', 'NONE');
#337 = CARTESIAN_POINT ( 'NONE',  ( 3.912512826557937640, 16.77385993290930344, -28.40369149871016674 ) ) ;
#338 = CARTESIAN_POINT ( 'NONE',  ( -3.777936700006000237, 16.77385993287800048, -30.89833174493999834 ) ) ;
#339 = EDGE_CURVE ( 'NONE', #465, #440, #296, .T. ) ;
#340 = CARTESIAN_POINT ( 'NONE',  ( 3.396449729724782429, 16.77385993290930699, -24.51038763796753273 ) ) ;
#341 = CARTESIAN_POINT ( 'NONE',  ( 1.692999999999999703E-14, 6.000000000000000000, -26.89999999999999858 ) ) ;
#342 = CARTESIAN_POINT ( 'NONE',  ( -4.506518092393999808, 16.28347531756200084, -28.38484963274000350 ) ) ;
#343 = AXIS2_PLACEMENT_3D ( 'NONE', #348, #390, #124 ) ;
#344 = EDGE_CURVE ( 'NONE', #254, #212, #71, .T. ) ;
#345 = CARTESIAN_POINT ( 'NONE',  ( -2.675145797427845196, 16.77385993290925370, -23.80846344426748473 ) ) ;
#346 = DIRECTION ( 'NONE',  ( -8.300000000000001749E-16, 5.782411586589358625E-16, 1.000000000000000000 ) ) ;
#347 = CARTESIAN_POINT ( 'NONE',  ( 2.453870703371939995E-14, 16.65478943552367497, -32.17096900836262563 ) ) ;
#348 = CARTESIAN_POINT ( 'NONE',  ( 1.993000000000000002E-14, 15.00000000000000000, -26.89999999999999858 ) ) ;
#349 = CARTESIAN_POINT ( 'NONE',  ( 2.686201450850218553, 16.77385993290938515, -29.97873089013803494 ) ) ;
#350 = CIRCLE ( 'NONE', #129, 5.999999999999998224 ) ;
#351 = DIRECTION ( 'NONE',  ( 0.000000000000000000, -5.600000000000000277E-16, -1.000000000000000000 ) ) ;
#352 = CARTESIAN_POINT ( 'NONE',  ( 1.785999999999999912E-14, 16.28347531752299915, -23.59999999999999787 ) ) ;
#353 = CARTESIAN_POINT ( 'NONE',  ( 1.654999999999999953E-14, 16.77385993290899791, -23.10009246416000295 ) ) ;
#354 = CARTESIAN_POINT ( 'NONE',  ( -0.4319689898685810103, 16.28347531752298849, -30.20000000000000284 ) ) ;
#355 = AXIS2_PLACEMENT_3D ( 'NONE', #341, #228, #483 ) ;
#356 = CARTESIAN_POINT ( 'NONE',  ( 4.985843965850000004, 16.77385993290999622, -25.96063962327000141 ) ) ;
#357 = CARTESIAN_POINT ( 'NONE',  ( -2.638900579913969313, 16.28347531752300625, -24.87199582408278431 ) ) ;
#358 = CARTESIAN_POINT ( 'NONE',  ( 0.8637680183856432103, 16.28347531752300270, -23.68589016699456806 ) ) ;
#359 = DIRECTION ( 'NONE',  ( -3.299999999999999882E-16, -1.000000000000000000, 5.600000000000000277E-16 ) ) ;
#360 = ORIENTED_EDGE ( 'NONE', *, *, #103, .T. ) ;
#361 = ADVANCED_FACE ( 'NONE', ( #410 ), #76, .F. ) ;
#362 = CARTESIAN_POINT ( 'NONE',  ( 2.455717920679667543E-14, 16.77385993290951660, -30.69989110582915615 ) ) ;
#363 = CARTESIAN_POINT ( 'NONE',  ( 2.638900579914014166, 16.28347531752300270, -24.87199582408278076 ) ) ;
#364 = AXIS2_PLACEMENT_3D ( 'NONE', #147, #334, #464 ) ;
#365 = EDGE_LOOP ( 'NONE', ( #179, #375, #30, #62 ) ) ;
#366 = DIRECTION ( 'NONE',  ( -3.299999999999999882E-16, -1.000000000000000000, 5.600000000000000277E-16 ) ) ;
#367 = VERTEX_POINT ( 'NONE', #447 ) ;
#368 = CARTESIAN_POINT ( 'NONE',  ( -12.00000000000000533, 16.50000000000000711, -20.90000000000000924 ) ) ;
#369 = VERTEX_POINT ( 'NONE', #46 ) ;
#370 = APPLICATION_CONTEXT ( 'automotive_design' ) ;
#371 = CARTESIAN_POINT ( 'NONE',  ( 2.455717920679667543E-14, 16.77385993290951660, -30.69989110582915615 ) ) ;
#372 = ORIENTED_EDGE ( 'NONE', *, *, #255, .F. ) ;
#373 = PRODUCT_DEFINITION_CONTEXT ( 'detailed design', #17, 'design' ) ;
#374 = DIRECTION ( 'NONE',  ( 3.299999999999999882E-16, 1.000000000000000000, -5.600000000000000277E-16 ) ) ;
#375 = ORIENTED_EDGE ( 'NONE', *, *, #154, .T. ) ;
#376 = CARTESIAN_POINT ( 'NONE',  ( 4.506518092398000164, 16.28347531749600208, -28.38484963271000439 ) ) ;
#377 = CARTESIAN_POINT ( 'NONE',  ( -4.182321018935234669, 16.77385993290946686, -27.41399519443257660 ) ) ;
#378 = EDGE_CURVE ( 'NONE', #144, #212, #178, .T. ) ;
#379 = CARTESIAN_POINT ( 'NONE',  ( -3.914064037009533426, 16.77385993290943844, -25.39093341361245493 ) ) ;
#380 = AXIS2_PLACEMENT_3D ( 'NONE', #69, #439, #294 ) ;
#381 = DIRECTION ( 'NONE',  ( 3.299999999999999882E-16, 1.000000000000000000, -5.600000000000000277E-16 ) ) ;
#382 = DIRECTION ( 'NONE',  ( -7.599999999999996291E-16, 5.256737805990323064E-16, 1.000000000000000000 ) ) ;
#383 = B_SPLINE_SURFACE_WITH_KNOTS ( 'NONE', 1, 13, ( 
 ( #2, #194, #225, #304, #376, #233, #157, #82, #196, #342, #118, #451, #416, #230 ),
 ( #190, #268, #123, #300, #36, #265, #271, #43, #338, #446, #481, #40, #192, #151 ) ),
 .UNSPECIFIED., .F., .T., .F.,
 ( 2, 2 ),
 ( 14, 14 ),
 ( 0.000000000000000000, 20.73451151369300050 ),
 ( 0.000000000000000000, 20.73451151369300050 ),
 .UNSPECIFIED. ) ;
#384 = ORIENTED_EDGE ( 'NONE', *, *, #302, .T. ) ;
#385 = CARTESIAN_POINT ( 'NONE',  ( 2.478957649036708837E-14, 16.49999999999999289, -32.90000000000001990 ) ) ;
#386 = EDGE_CURVE ( 'NONE', #470, #70, #146, .T. ) ;
#387 = CYLINDRICAL_SURFACE ( 'NONE', #155, 5.999999999999998224 ) ;
#388 = CARTESIAN_POINT ( 'NONE',  ( 3.914064037009247432, 16.77385993290927502, -25.39093341361536105 ) ) ;
#389 = MECHANICAL_DESIGN_GEOMETRIC_PRESENTATION_REPRESENTATION (  '', ( #466 ), #49 ) ;
#390 = DIRECTION ( 'NONE',  ( -3.299999999999999882E-16, -1.000000000000000000, 5.600000000000000277E-16 ) ) ;
#391 = CARTESIAN_POINT ( 'NONE',  ( 3.280919599350999860, 16.28347531757099986, -30.37231995357999992 ) ) ;
#392 = B_SPLINE_CURVE_WITH_KNOTS ( 'NONE', 13,
 ( #120, #414, #266, #78, #415, #226, #377, #79, #379, #195, #345, #303, #450, #121 ),
 .UNSPECIFIED., .F., .F.,
 ( 14, 14 ),
 ( 10.36725575684661393, 20.73451151369300050 ),
 .UNSPECIFIED. ) ;
#393 = CARTESIAN_POINT ( 'NONE',  ( 5.189197593833999811, 16.77385993290399924, -28.60978524512000121 ) ) ;
#394 = SURFACE_STYLE_USAGE ( .BOTH. , #96 ) ;
#395 = AXIS2_PLACEMENT_3D ( 'NONE', #331, #109, #396 ) ;
#396 = DIRECTION ( 'NONE',  ( -7.599999999999996291E-16, 5.256737805990323064E-16, 1.000000000000000000 ) ) ;
#397 = CARTESIAN_POINT ( 'NONE',  ( -2.883495081569033669, 16.28347531752299560, -28.56194263522396781 ) ) ;
#398 = CARTESIAN_POINT ( 'NONE',  ( -11.99999999999998934, 16.49999999999999645, -32.90000000000002700 ) ) ;
#399 = VERTEX_POINT ( 'NONE', #313 ) ;
#400 = CARTESIAN_POINT ( 'NONE',  ( 1.661942635223986997, 16.28347531752299560, -24.01650491843095381 ) ) ;
#401 = EDGE_LOOP ( 'NONE', ( #34, #295 ) ) ;
#402 = CARTESIAN_POINT ( 'NONE',  ( 2.391385112161536631E-14, 16.77436584478386550, -30.68658330096327447 ) ) ;
#403 = PRESENTATION_LAYER_ASSIGNMENT (  '', '', ( #66 ) ) ;
#404 = ORIENTED_EDGE ( 'NONE', *, *, #386, .T. ) ;
#405 = APPLICATION_PROTOCOL_DEFINITION ( 'draft international standard', 'automotive_design', 1998, #370 ) ;
#406 = CARTESIAN_POINT ( 'NONE',  ( 2.422192965268840128E-14, 16.74647026154840646, -31.43134471650813921 ) ) ;
#407 = EDGE_LOOP ( 'NONE', ( #372, #223, #292, #404 ) ) ;
#408 = EDGE_CURVE ( 'NONE', #212, #438, #153, .T. ) ;
#409 = ORIENTED_EDGE ( 'NONE', *, *, #472, .F. ) ;
#410 = FACE_OUTER_BOUND ( 'NONE', #293, .T. ) ;
#411 = CARTESIAN_POINT ( 'NONE',  ( 2.207890894038368919E-14, 5.999999999999997335, -31.39999999999999858 ) ) ;
#412 = COLOUR_RGB ( '',0.2274509803921568596, 0.2274509803921568596, 0.2274509803921568596 ) ;
#413 = ADVANCED_FACE ( 'NONE', ( #319 ), #93, .F. ) ;
#414 = CARTESIAN_POINT ( 'NONE',  ( -0.9182843968082421426, 16.77385993290954858, -30.69989110582910996 ) ) ;
#415 = CARTESIAN_POINT ( 'NONE',  ( -3.398530628934478326, 16.77385993290950950, -29.27910423014993313 ) ) ;
#416 = CARTESIAN_POINT ( 'NONE',  ( -1.571890170527999953, 16.28347531752299915, -23.59999999999000053 ) ) ;
#417 = VECTOR ( 'NONE', #259, 1000.000000000000000 ) ;
#418 =( NAMED_UNIT ( * ) SI_UNIT ( $, .STERADIAN. ) SOLID_ANGLE_UNIT ( ) );
#419 = DIRECTION ( 'NONE',  ( -3.299999999999999882E-16, -1.000000000000000000, 5.600000000000000277E-16 ) ) ;
#420 = DIRECTION ( 'NONE',  ( 3.299999999999999882E-16, 1.000000000000000000, -5.600000000000000277E-16 ) ) ;
#421 = EDGE_CURVE ( 'NONE', #72, #470, #127, .T. ) ;
#422 = CARTESIAN_POINT ( 'NONE',  ( 1.527000000000000082E-14, 16.50000000000000355, -20.90000000000000213 ) ) ;
#423 = CARTESIAN_POINT ( 'NONE',  ( 1.695896152617585190E-14, 16.65478943552367497, -21.62903099163738929 ) ) ;
#424 = DIRECTION ( 'NONE',  ( -3.299999999999999882E-16, -1.000000000000000000, 5.600000000000000277E-16 ) ) ;
#425 = DIRECTION ( 'NONE',  ( 3.299999999999999882E-16, 1.000000000000000000, -5.600000000000000277E-16 ) ) ;
#426 = CIRCLE ( 'NONE', #380, 3.300000000000000711 ) ;
#427 = CARTESIAN_POINT ( 'NONE',  ( 1.527000000000000082E-14, 16.50000000000000355, -20.90000000000000213 ) ) ;
#428 = PRODUCT_RELATED_PRODUCT_CATEGORY ( 'part', '', ( #81 ) ) ;
#429 = CARTESIAN_POINT ( 'NONE',  ( -2.883495081569026564, 16.28347531752300625, -25.23805736477603645 ) ) ;
#430 = DIRECTION ( 'NONE',  ( -8.300000000000001749E-16, 5.782411586589358625E-16, 1.000000000000000000 ) ) ;
#431 = CARTESIAN_POINT ( 'NONE',  ( -3.299999999999980727, 16.28347531752299915, -27.33196898986859935 ) ) ;
#432 = CARTESIAN_POINT ( 'NONE',  ( 1.566529645127552558E-14, 16.65386204840617879, -21.62466316157447110 ) ) ;
#433 = DIRECTION ( 'NONE',  ( -8.600000000000002680E-16, 5.782411586589358625E-16, 1.000000000000000000 ) ) ;
#434 = CARTESIAN_POINT ( 'NONE',  ( 3.300000000000021139, 16.28347531752299915, -26.46803101013141202 ) ) ;
#435 = ORIENTED_EDGE ( 'NONE', *, *, #238, .T. ) ;
#436 = CARTESIAN_POINT ( 'NONE',  ( 1.654999999999999953E-14, 16.77385993290899791, -23.10009246416000295 ) ) ;
#437 = CARTESIAN_POINT ( 'NONE',  ( 3.214109833005462491, 16.28347531752299915, -27.76376801838562969 ) ) ;
#438 = VERTEX_POINT ( 'NONE', #174 ) ;
#439 = DIRECTION ( 'NONE',  ( 3.299999999999999882E-16, 1.000000000000000000, -5.600000000000000277E-16 ) ) ;
#440 = VERTEX_POINT ( 'NONE', #130 ) ;
#441 = DIRECTION ( 'NONE',  ( 3.299999999999999882E-16, 1.000000000000000000, -5.600000000000000277E-16 ) ) ;
#442 =( GEOMETRIC_REPRESENTATION_CONTEXT ( 3 ) GLOBAL_UNCERTAINTY_ASSIGNED_CONTEXT ( ( #7 ) ) GLOBAL_UNIT_ASSIGNED_CONTEXT ( ( #222, #201, #418 ) ) REPRESENTATION_CONTEXT ( 'NONE', 'WORKASPACE' ) );
#443 = ORIENTED_EDGE ( 'NONE', *, *, #193, .T. ) ;
#444 = DIRECTION ( 'NONE',  ( 0.000000000000000000, -5.600000000000000277E-16, -1.000000000000000000 ) ) ;
#445 = ORIENTED_EDGE ( 'NONE', *, *, #154, .F. ) ;
#446 = CARTESIAN_POINT ( 'NONE',  ( -5.189197593831999633, 16.77385993293300004, -28.60978524515000032 ) ) ;
#447 = CARTESIAN_POINT ( 'NONE',  ( 2.460771192051158311E-14, 14.99999999999999645, -32.89999999999999858 ) ) ;
#448 = CARTESIAN_POINT ( 'NONE',  ( 2.485521192051158723E-14, 16.49999999999999645, -32.89999999999999858 ) ) ;
#449 = FACE_OUTER_BOUND ( 'NONE', #365, .T. ) ;
#450 = CARTESIAN_POINT ( 'NONE',  ( -0.9050056521949818578, 16.77385993290850053, -23.10009246416500162 ) ) ;
#451 = CARTESIAN_POINT ( 'NONE',  ( -3.180029312950999998, 16.28347531753300004, -24.41240470216000347 ) ) ;
#452 = VECTOR ( 'NONE', #59, 1000.000000000000000 ) ;
#453 = AXIS2_PLACEMENT_3D ( 'NONE', #37, #105, #288 ) ;
#454 = CARTESIAN_POINT ( 'NONE',  ( 2.043000000000000105E-14, 16.50000000000000000, -26.89999999999999858 ) ) ;
#455 = CARTESIAN_POINT ( 'NONE',  ( 1.836568793616599748, 16.77385993290944199, -30.45950436726548105 ) ) ;
#456 = B_SPLINE_CURVE_WITH_KNOTS ( 'NONE', 13,
 ( #85, #164, #236, #117, #340, #388, #10, #309, #337, #458, #349, #455, #482, #197 ),
 .UNSPECIFIED., .F., .F.,
 ( 14, 14 ),
 ( 0.000000000000000000, 10.36725575684661393 ),
 .UNSPECIFIED. ) ;
#457 = CARTESIAN_POINT ( 'NONE',  ( -1.717811083517999826, 16.77385993294199906, -32.57674020210000521 ) ) ;
#458 = CARTESIAN_POINT ( 'NONE',  ( 3.398530628934516518, 16.77385993290932831, -29.27910423015051578 ) ) ;
#459 = CARTESIAN_POINT ( 'NONE',  ( -3.777936700006000237, 16.77385993287800048, -30.89833174493999834 ) ) ;
#460 = CARTESIAN_POINT ( 'NONE',  ( 1.654999999999999953E-14, 16.77385993290899791, -23.10009246416000295 ) ) ;
#461 = FILL_AREA_STYLE_COLOUR ( '', #412 ) ;
#462 = CARTESIAN_POINT ( 'NONE',  ( -1.571890170527999953, 16.28347531752299915, -23.59999999999000053 ) ) ;
#463 = CARTESIAN_POINT ( 'NONE',  ( 2.043000000000000105E-14, 16.50000000000000000, -26.89999999999999858 ) ) ;
#464 = DIRECTION ( 'NONE',  ( -9.299999999999999263E-16, 3.854941057726237111E-16, 1.000000000000000000 ) ) ;
#465 = VERTEX_POINT ( 'NONE', #362 ) ;
#466 = STYLED_ITEM ( 'NONE', ( #113 ), #116 ) ;
#467 = CARTESIAN_POINT ( 'NONE',  ( 0.4319689898686146501, 16.28347531752300270, -23.60000000000000497 ) ) ;
#468 = ORIENTED_EDGE ( 'NONE', *, *, #255, .T. ) ;
#469 = CARTESIAN_POINT ( 'NONE',  ( 3.214109833005461603, 16.28347531752300270, -26.03623198161438523 ) ) ;
#470 = VERTEX_POINT ( 'NONE', #282 ) ;
#471 = CARTESIAN_POINT ( 'NONE',  ( 1.996164322826455027E-14, 16.28347531752397970, -30.19999286574749675 ) ) ;
#472 = EDGE_CURVE ( 'NONE', #184, #440, #307, .T. ) ;
#473 = ORIENTED_EDGE ( 'NONE', *, *, #408, .T. ) ;
#474 = ORIENTED_EDGE ( 'NONE', *, *, #344, .F. ) ;
#475 = SHAPE_DEFINITION_REPRESENTATION ( #39, #116 ) ;
#476 = AXIS2_PLACEMENT_3D ( 'NONE', #91, #209, #326 ) ;
#477 = CARTESIAN_POINT ( 'NONE',  ( 2.883495081569071417, 16.28347531752299915, -25.23805736477604356 ) ) ;
#478 = AXIS2_PLACEMENT_3D ( 'NONE', #204, #135, #316 ) ;
#479 = EDGE_LOOP ( 'NONE', ( #159, #27, #187, #150 ) ) ;
#480 = SURFACE_SIDE_STYLE ('',( #44 ) ) ;
#481 = CARTESIAN_POINT ( 'NONE',  ( -4.985843965852000181, 16.77385993289599853, -25.96063962324999963 ) ) ;
#482 = CARTESIAN_POINT ( 'NONE',  ( 0.9182843968083167496, 16.77385993290948818, -30.69989110582919523 ) ) ;
#483 = DIRECTION ( 'NONE',  ( -6.999999999999997388E-16, 5.782411586589355667E-16, 1.000000000000000000 ) ) ;
#484 = EDGE_CURVE ( 'NONE', #440, #184, #162, .T. ) ;
ENDSEC;
END-ISO-10303-21;
