ISO-10303-21;
HEADER;
FILE_DESCRIPTION (( 'STEP AP214' ),
    '1' );
FILE_NAME ('Body022.step.STEP',
    '2026-09-04T22:05:09',
    ( '' ),
    ( '' ),
    'SwSTEP 2.0',
    'SolidWorks 2026',
    '' );
FILE_SCHEMA (( 'AUTOMOTIVE_DESIGN' ));
ENDSEC;

DATA;
#1 = CYLINDRICAL_SURFACE ( 'NONE', #79, 5.000000000000000888 ) ;
#2 = AXIS2_PLACEMENT_3D ( 'NONE', #280, #270, #265 ) ;
#3 = FACE_BOUND ( 'NONE', #168, .T. ) ;
#4 = ORIENTED_EDGE ( 'NONE', *, *, #258, .T. ) ;
#5 = CARTESIAN_POINT ( 'NONE',  ( 1.855999999999999867E-14, 10.90000000000000036, -26.89999999999999858 ) ) ;
#6 = LINE ( 'NONE', #54, #31 ) ;
#7 = PRODUCT ( 'Body022.step', 'Body022.step', '', ( #18 ) ) ;
#8 = AXIS2_PLACEMENT_3D ( 'NONE', #203, #183, #136 ) ;
#9 = DIRECTION ( 'NONE',  ( -3.299999999999999882E-16, -1.000000000000000000, 5.600000000000000277E-16 ) ) ;
#10 = CYLINDRICAL_SURFACE ( 'NONE', #21, 5.499999999999998224 ) ;
#11 = CIRCLE ( 'NONE', #289, 5.000000000000000888 ) ;
#12 = DIRECTION ( 'NONE',  ( -1.000000000000000000, 3.299999999999999882E-16, 0.000000000000000000 ) ) ;
#13 = CARTESIAN_POINT ( 'NONE',  ( 1.939999999999999812E-14, 13.40000000000000036, -26.89999999999999858 ) ) ;
#14 = AXIS2_PLACEMENT_3D ( 'NONE', #227, #71, #251 ) ;
#15 = ORIENTED_EDGE ( 'NONE', *, *, #219, .F. ) ;
#16 = CARTESIAN_POINT ( 'NONE',  ( 2.303767660042632004E-14, 13.39999999999999680, -31.89999999999999858 ) ) ;
#17 = EDGE_CURVE ( 'NONE', #152, #244, #11, .T. ) ;
#18 = PRODUCT_CONTEXT ( 'NONE', #248, 'mechanical' ) ;
#19 = ORIENTED_EDGE ( 'NONE', *, *, #258, .F. ) ;
#20 = EDGE_LOOP ( 'NONE', ( #238, #37, #40, #59 ) ) ;
#21 = AXIS2_PLACEMENT_3D ( 'NONE', #278, #9, #228 ) ;
#22 = DIRECTION ( 'NONE',  ( 3.299999999999999882E-16, 1.000000000000000000, -5.600000000000000277E-16 ) ) ;
#23 = DIRECTION ( 'NONE',  ( -3.299999999999999882E-16, -1.000000000000000000, 5.600000000000000277E-16 ) ) ;
#24 = ADVANCED_FACE ( 'NONE', ( #105 ), #85, .F. ) ;
#25 = CARTESIAN_POINT ( 'NONE',  ( 2.262517660042632054E-14, 13.39999999999999680, -31.89999999999999858 ) ) ;
#26 =( NAMED_UNIT ( * ) PLANE_ANGLE_UNIT ( ) SI_UNIT ( $, .RADIAN. ) );
#27 = AXIS2_PLACEMENT_3D ( 'NONE', #191, #165, #188 ) ;
#28 = DIRECTION ( 'NONE',  ( 3.299999999999999882E-16, 1.000000000000000000, -5.600000000000000277E-16 ) ) ;
#29 = DIRECTION ( 'NONE',  ( 0.000000000000000000, 0.000000000000000000, 1.000000000000000000 ) ) ;
#30 = ADVANCED_FACE ( 'NONE', ( #185 ), #64, .T. ) ;
#31 = VECTOR ( 'NONE', #138, 1000.000000000000000 ) ;
#32 = FILL_AREA_STYLE_COLOUR ( '', #120 ) ;
#33 = DIRECTION ( 'NONE',  ( -8.199999999999999138E-16, 3.854941057768212400E-16, 1.000000000000000000 ) ) ;
#34 = VECTOR ( 'NONE', #140, 1000.000000000000000 ) ;
#35 = EDGE_CURVE ( 'NONE', #211, #130, #115, .T. ) ;
#36 = DIRECTION ( 'NONE',  ( -8.999999999999996361E-16, 3.854941057768212400E-16, 1.000000000000000000 ) ) ;
#37 = ORIENTED_EDGE ( 'NONE', *, *, #113, .F. ) ;
#38 = CARTESIAN_POINT ( 'NONE',  ( 1.956000000000000072E-14, 13.89999999999999858, -26.89999999999999858 ) ) ;
#39 = AXIS2_PLACEMENT_3D ( 'NONE', #249, #223, #12 ) ;
#40 = ORIENTED_EDGE ( 'NONE', *, *, #219, .T. ) ;
#41 = VERTEX_POINT ( 'NONE', #288 ) ;
#42 = EDGE_LOOP ( 'NONE', ( #19, #283 ) ) ;
#43 = CARTESIAN_POINT ( 'NONE',  ( 1.514999999999999729E-14, 13.40000000000000391, -21.89999999999999858 ) ) ;
#44 = ORIENTED_EDGE ( 'NONE', *, *, #139, .F. ) ;
#45 = ORIENTED_EDGE ( 'NONE', *, *, #94, .T. ) ;
#46 = EDGE_CURVE ( 'NONE', #244, #152, #221, .T. ) ;
#47 = ORIENTED_EDGE ( 'NONE', *, *, #269, .T. ) ;
#48 = MECHANICAL_DESIGN_GEOMETRIC_PRESENTATION_REPRESENTATION (  '', ( #199 ), #145 ) ;
#49 = CARTESIAN_POINT ( 'NONE',  ( 2.350644426046895753E-14, 13.89999999999999503, -32.39999999999999858 ) ) ;
#50 =( LENGTH_UNIT ( ) NAMED_UNIT ( * ) SI_UNIT ( .MILLI., .METRE. ) );
#51 = STYLED_ITEM ( 'NONE', ( #91 ), #175 ) ;
#52 = FILL_AREA_STYLE_COLOUR ( '', #55 ) ;
#53 = DIRECTION ( 'NONE',  ( 3.299999999999999882E-16, 1.000000000000000000, -5.600000000000000277E-16 ) ) ;
#54 = CARTESIAN_POINT ( 'NONE',  ( 2.280109105957012495E-14, 10.89999999999999858, -31.39999999995100310 ) ) ;
#55 = COLOUR_RGB ( '',0.8274509803921568096, 0.8274509803921568096, 0.8274509803921568096 ) ;
#56 = PRESENTATION_STYLE_ASSIGNMENT (( #77 ) ) ;
#57 = CLOSED_SHELL ( 'NONE', ( #231, #24, #30, #242, #236, #254, #184, #133, #153 ) ) ;
#58 = DIRECTION ( 'NONE',  ( -3.299999999999999882E-16, -1.000000000000000000, 5.600000000000000277E-16 ) ) ;
#59 = ORIENTED_EDGE ( 'NONE', *, *, #66, .T. ) ;
#60 = APPLICATION_PROTOCOL_DEFINITION ( 'draft international standard', 'automotive_design', 1998, #201 ) ;
#61 = DIRECTION ( 'NONE',  ( 3.299999999999999882E-16, 1.000000000000000000, -5.600000000000000277E-16 ) ) ;
#62 = VECTOR ( 'NONE', #58, 1000.000000000000000 ) ;
#63 = ORIENTED_EDGE ( 'NONE', *, *, #73, .F. ) ;
#64 = CYLINDRICAL_SURFACE ( 'NONE', #27, 5.499999999999998224 ) ;
#65 = DIRECTION ( 'NONE',  ( -8.500000000000002041E-16, 6.938893903907227392E-16, 1.000000000000000000 ) ) ;
#66 = EDGE_CURVE ( 'NONE', #130, #211, #75, .T. ) ;
#67 = LINE ( 'NONE', #49, #282 ) ;
#68 = PRODUCT_RELATED_PRODUCT_CATEGORY ( 'part', '', ( #7 ) ) ;
#69 = FILL_AREA_STYLE ('',( #52 ) ) ;
#70 = CIRCLE ( 'NONE', #246, 4.499999999951001861 ) ;
#71 = DIRECTION ( 'NONE',  ( 3.299999999999999882E-16, 1.000000000000000000, -5.600000000000000277E-16 ) ) ;
#72 = DIRECTION ( 'NONE',  ( 3.299999999999999882E-16, 1.000000000000000000, -5.600000000000000277E-16 ) ) ;
#73 = EDGE_CURVE ( 'NONE', #244, #149, #241, .T. ) ;
#74 = DIRECTION ( 'NONE',  ( -8.999999999999996361E-16, 3.854941057768212400E-16, 1.000000000000000000 ) ) ;
#75 = CIRCLE ( 'NONE', #279, 5.499999999999998224 ) ;
#76 = SURFACE_STYLE_FILL_AREA ( #230 ) ;
#77 = SURFACE_STYLE_USAGE ( .BOTH. , #158 ) ;
#78 = CARTESIAN_POINT ( 'NONE',  ( 1.939999999999999812E-14, 13.40000000000000036, -26.89999999999999858 ) ) ;
#79 = AXIS2_PLACEMENT_3D ( 'NONE', #128, #23, #109 ) ;
#80 = DIRECTION ( 'NONE',  ( -8.400000000000000416E-16, 6.308085367188391227E-16, 1.000000000000000000 ) ) ;
#81 = SHAPE_DEFINITION_REPRESENTATION ( #99, #116 ) ;
#82 = ORIENTED_EDGE ( 'NONE', *, *, #197, .T. ) ;
#83 = DIRECTION ( 'NONE',  ( -8.500000000000002041E-16, 6.938893903907227392E-16, 1.000000000000000000 ) ) ;
#84 = DIRECTION ( 'NONE',  ( 3.299999999999999882E-16, 1.000000000000000000, -5.600000000000000277E-16 ) ) ;
#85 = CYLINDRICAL_SURFACE ( 'NONE', #97, 4.499999999951001861 ) ;
#86 = CARTESIAN_POINT ( 'NONE',  ( 1.455999999999999993E-14, 10.90000000000000391, -21.89999999999999858 ) ) ;
#87 = PLANE ( 'NONE',  #39 ) ;
#88 = DIRECTION ( 'NONE',  ( 3.299999999999999882E-16, 1.000000000000000000, -5.600000000000000277E-16 ) ) ;
#89 = PLANE ( 'NONE',  #267 ) ;
#90 = ORIENTED_EDGE ( 'NONE', *, *, #35, .F. ) ;
#91 = PRESENTATION_STYLE_ASSIGNMENT (( #273 ) ) ;
#92 = AXIS2_PLACEMENT_3D ( 'NONE', #159, #72, #33 ) ;
#93 =( NAMED_UNIT ( * ) PLANE_ANGLE_UNIT ( ) SI_UNIT ( $, .RADIAN. ) );
#94 = EDGE_CURVE ( 'NONE', #161, #166, #286, .T. ) ;
#95 = CARTESIAN_POINT ( 'NONE',  ( 1.514999999999999729E-14, 13.40000000000000391, -21.89999999999999858 ) ) ;
#96 = CARTESIAN_POINT ( 'NONE',  ( 1.855999999999999867E-14, 10.90000000000000036, -26.89999999999999858 ) ) ;
#97 = AXIS2_PLACEMENT_3D ( 'NONE', #106, #169, #268 ) ;
#98 = CYLINDRICAL_SURFACE ( 'NONE', #92, 4.499999999951001861 ) ;
#99 = PRODUCT_DEFINITION_SHAPE ( 'NONE', 'NONE',  #281 ) ;
#100 = ORIENTED_EDGE ( 'NONE', *, *, #269, .F. ) ;
#101 = CIRCLE ( 'NONE', #261, 4.499999999951001861 ) ;
#102 = EDGE_CURVE ( 'NONE', #287, #166, #156, .T. ) ;
#103 = DIRECTION ( 'NONE',  ( -3.299999999999999882E-16, -1.000000000000000000, 5.600000000000000277E-16 ) ) ;
#104 = ORIENTED_EDGE ( 'NONE', *, *, #139, .T. ) ;
#105 = FACE_OUTER_BOUND ( 'NONE', #144, .T. ) ;
#106 = CARTESIAN_POINT ( 'NONE',  ( 1.855999999999999867E-14, 10.90000000000000036, -26.89999999999999858 ) ) ;
#107 = ORIENTED_EDGE ( 'NONE', *, *, #207, .T. ) ;
#108 = CARTESIAN_POINT ( 'NONE',  ( 2.342394426046895511E-14, 13.39999999999999680, -32.39999999999999858 ) ) ;
#109 = DIRECTION ( 'NONE',  ( -8.500000000000002041E-16, 6.938893903907227392E-16, 1.000000000000000000 ) ) ;
#110 = CARTESIAN_POINT ( 'NONE',  ( 2.262517660042632054E-14, 10.89999999999999680, -31.89999999999999858 ) ) ;
#111 = CARTESIAN_POINT ( 'NONE',  ( 2.342394426046895826E-14, 13.89999999999999503, -32.39999999999999858 ) ) ;
#112 = CARTESIAN_POINT ( 'NONE',  ( 1.494000000000000374E-14, 13.90000000000000213, -21.40000000000000213 ) ) ;
#113 = EDGE_CURVE ( 'NONE', #162, #214, #275, .T. ) ;
#114 = DIRECTION ( 'NONE',  ( -8.199999999999999138E-16, 3.854941057768212400E-16, 1.000000000000000000 ) ) ;
#115 = CIRCLE ( 'NONE', #2, 5.499999999999998224 ) ;
#116 = ADVANCED_BREP_SHAPE_REPRESENTATION ( 'Body022.step', ( #175, #182 ), #257 ) ;
#117 = CARTESIAN_POINT ( 'NONE',  ( 1.956000000000000072E-14, 13.89999999999999858, -26.89999999999999858 ) ) ;
#118 = ORIENTED_EDGE ( 'NONE', *, *, #17, .T. ) ;
#119 = DIRECTION ( 'NONE',  ( -3.299999999999999882E-16, -1.000000000000000000, 5.600000000000000277E-16 ) ) ;
#120 = COLOUR_RGB ( '',0.8274509803921568096, 0.8274509803921568096, 0.8274509803921568096 ) ;
#121 = UNCERTAINTY_MEASURE_WITH_UNIT (LENGTH_MEASURE( 1.000000000000000082E-05 ), #181, 'distance_accuracy_value', 'NONE');
#122 = EDGE_LOOP ( 'NONE', ( #195, #146 ) ) ;
#123 = ORIENTED_EDGE ( 'NONE', *, *, #213, .T. ) ;
#124 = EDGE_LOOP ( 'NONE', ( #167, #82 ) ) ;
#125 = ORIENTED_EDGE ( 'NONE', *, *, #294, .F. ) ;
#126 = ORIENTED_EDGE ( 'NONE', *, *, #276, .F. ) ;
#127 = CIRCLE ( 'NONE', #135, 4.499999999951001861 ) ;
#128 = CARTESIAN_POINT ( 'NONE',  ( 1.939999999999999812E-14, 13.40000000000000036, -26.89999999999999858 ) ) ;
#129 = SURFACE_STYLE_FILL_AREA ( #69 ) ;
#130 = VERTEX_POINT ( 'NONE', #163 ) ;
#131 = AXIS2_PLACEMENT_3D ( 'NONE', #117, #212, #80 ) ;
#132 = FACE_OUTER_BOUND ( 'NONE', #42, .T. ) ;
#133 = ADVANCED_FACE ( 'NONE', ( #263 ), #142, .T. ) ;
#134 = FACE_BOUND ( 'NONE', #124, .T. ) ;
#135 = AXIS2_PLACEMENT_3D ( 'NONE', #96, #157, #114 ) ;
#136 = DIRECTION ( 'NONE',  ( -7.999999999999998847E-16, 6.938893903907227392E-16, 1.000000000000000000 ) ) ;
#137 = CARTESIAN_POINT ( 'NONE',  ( 1.956000000000000072E-14, 13.89999999999999858, -26.89999999999999858 ) ) ;
#138 = DIRECTION ( 'NONE',  ( 3.299999999999999882E-16, 1.000000000000000000, -5.600000000000000277E-16 ) ) ;
#139 = EDGE_CURVE ( 'NONE', #152, #143, #190, .T. ) ;
#140 = DIRECTION ( 'NONE',  ( 3.299999999999999882E-16, 1.000000000000000000, -5.600000000000000277E-16 ) ) ;
#141 = ORIENTED_EDGE ( 'NONE', *, *, #73, .T. ) ;
#142 = CYLINDRICAL_SURFACE ( 'NONE', #225, 5.000000000000000888 ) ;
#143 = VERTEX_POINT ( 'NONE', #110 ) ;
#144 = EDGE_LOOP ( 'NONE', ( #217, #186, #222, #291 ) ) ;
#145 =( GEOMETRIC_REPRESENTATION_CONTEXT ( 3 ) GLOBAL_UNCERTAINTY_ASSIGNED_CONTEXT ( ( #179 ) ) GLOBAL_UNIT_ASSIGNED_CONTEXT ( ( #260, #208, #256 ) ) REPRESENTATION_CONTEXT ( 'NONE', 'WORKASPACE' ) );
#146 = ORIENTED_EDGE ( 'NONE', *, *, #189, .T. ) ;
#147 = EDGE_LOOP ( 'NONE', ( #100, #240 ) ) ;
#148 = CARTESIAN_POINT ( 'NONE',  ( 1.939999999999999812E-14, 13.40000000000000036, -26.89999999999999858 ) ) ;
#149 = VERTEX_POINT ( 'NONE', #86 ) ;
#150 = PLANE ( 'NONE',  #215 ) ;
#151 = CARTESIAN_POINT ( 'NONE',  ( 1.939999999999999812E-14, 13.40000000000000036, -26.89999999999999858 ) ) ;
#152 = VERTEX_POINT ( 'NONE', #25 ) ;
#153 = ADVANCED_FACE ( 'NONE', ( #3, #274 ), #89, .F. ) ;
#154 = LINE ( 'NONE', #177, #204 ) ;
#155 = CARTESIAN_POINT ( 'NONE',  ( 2.329609105957012372E-14, 13.89999999999999680, -31.39999999995100310 ) ) ;
#156 = CIRCLE ( 'NONE', #252, 4.499999999951001861 ) ;
#157 = DIRECTION ( 'NONE',  ( 3.299999999999999882E-16, 1.000000000000000000, -5.600000000000000277E-16 ) ) ;
#158 = SURFACE_SIDE_STYLE ('',( #76 ) ) ;
#159 = CARTESIAN_POINT ( 'NONE',  ( 1.855999999999999867E-14, 10.90000000000000036, -26.89999999999999858 ) ) ;
#160 = CIRCLE ( 'NONE', #173, 5.000000000000000888 ) ;
#161 = VERTEX_POINT ( 'NONE', #170 ) ;
#162 = VERTEX_POINT ( 'NONE', #112 ) ;
#163 = CARTESIAN_POINT ( 'NONE',  ( 1.483499999999999750E-14, 13.40000000000000391, -21.40000000000000213 ) ) ;
#164 = EDGE_LOOP ( 'NONE', ( #264, #104, #123, #63 ) ) ;
#165 = DIRECTION ( 'NONE',  ( -3.299999999999999882E-16, -1.000000000000000000, 5.600000000000000277E-16 ) ) ;
#166 = VERTEX_POINT ( 'NONE', #174 ) ;
#167 = ORIENTED_EDGE ( 'NONE', *, *, #276, .T. ) ;
#168 = EDGE_LOOP ( 'NONE', ( #235, #118 ) ) ;
#169 = DIRECTION ( 'NONE',  ( 3.299999999999999882E-16, 1.000000000000000000, -5.600000000000000277E-16 ) ) ;
#170 = CARTESIAN_POINT ( 'NONE',  ( 1.487000000004017889E-14, 10.90000000000000213, -22.40000000004899761 ) ) ;
#171 = PRODUCT_DEFINITION_CONTEXT ( 'detailed design', #201, 'design' ) ;
#172 =( NAMED_UNIT ( * ) SI_UNIT ( $, .STERADIAN. ) SOLID_ANGLE_UNIT ( ) );
#173 = AXIS2_PLACEMENT_3D ( 'NONE', #5, #28, #196 ) ;
#174 = CARTESIAN_POINT ( 'NONE',  ( 1.551000000004410204E-14, 13.90000000000000036, -22.40000000004899761 ) ) ;
#175 = MANIFOLD_SOLID_BREP ( '1_8 NPT - 1_4 Inch Push to Connect Elbow Fitting.step<1>', #57 ) ;
#176 = SURFACE_SIDE_STYLE ('',( #129 ) ) ;
#177 = CARTESIAN_POINT ( 'NONE',  ( 1.494000000000000374E-14, 13.90000000000000213, -21.40000000000000213 ) ) ;
#178 = CIRCLE ( 'NONE', #8, 5.000000000000000888 ) ;
#179 = UNCERTAINTY_MEASURE_WITH_UNIT (LENGTH_MEASURE( 1.000000000000000082E-05 ), #260, 'distance_accuracy_value', 'NONE');
#180 = VECTOR ( 'NONE', #103, 1000.000000000000000 ) ;
#181 =( LENGTH_UNIT ( ) NAMED_UNIT ( * ) SI_UNIT ( .MILLI., .METRE. ) );
#182 = AXIS2_PLACEMENT_3D ( 'NONE', #255, #29, #206 ) ;
#183 = DIRECTION ( 'NONE',  ( 3.299999999999999882E-16, 1.000000000000000000, -5.600000000000000277E-16 ) ) ;
#184 = ADVANCED_FACE ( 'NONE', ( #134, #132 ), #150, .F. ) ;
#185 = FACE_OUTER_BOUND ( 'NONE', #285, .T. ) ;
#186 = ORIENTED_EDGE ( 'NONE', *, *, #294, .T. ) ;
#187 = CIRCLE ( 'NONE', #14, 5.499999999999998224 ) ;
#188 = DIRECTION ( 'NONE',  ( -8.400000000000000416E-16, 6.308085367188391227E-16, 1.000000000000000000 ) ) ;
#189 = EDGE_CURVE ( 'NONE', #214, #162, #187, .T. ) ;
#190 = LINE ( 'NONE', #16, #180 ) ;
#191 = CARTESIAN_POINT ( 'NONE',  ( 1.956000000000000072E-14, 13.89999999999999858, -26.89999999999999858 ) ) ;
#192 = ORIENTED_EDGE ( 'NONE', *, *, #46, .F. ) ;
#193 = ORIENTED_EDGE ( 'NONE', *, *, #35, .T. ) ;
#194 =( GEOMETRIC_REPRESENTATION_CONTEXT ( 3 ) GLOBAL_UNCERTAINTY_ASSIGNED_CONTEXT ( ( #247 ) ) GLOBAL_UNIT_ASSIGNED_CONTEXT ( ( #50, #26, #172 ) ) REPRESENTATION_CONTEXT ( 'NONE', 'WORKASPACE' ) );
#195 = ORIENTED_EDGE ( 'NONE', *, *, #113, .T. ) ;
#196 = DIRECTION ( 'NONE',  ( -7.999999999999998847E-16, 6.938893903907227392E-16, 1.000000000000000000 ) ) ;
#197 = EDGE_CURVE ( 'NONE', #41, #161, #70, .T. ) ;
#198 = DIRECTION ( 'NONE',  ( 3.299999999999999882E-16, 1.000000000000000000, -5.600000000000000277E-16 ) ) ;
#199 = STYLED_ITEM ( 'NONE', ( #56 ), #116 ) ;
#200 = FACE_OUTER_BOUND ( 'NONE', #122, .T. ) ;
#201 = APPLICATION_CONTEXT ( 'automotive_design' ) ;
#202 = CARTESIAN_POINT ( 'NONE',  ( 1.855999999999999867E-14, 10.90000000000000036, -26.89999999999999858 ) ) ;
#203 = CARTESIAN_POINT ( 'NONE',  ( 1.855999999999999867E-14, 10.90000000000000036, -26.89999999999999858 ) ) ;
#204 = VECTOR ( 'NONE', #292, 1000.000000000000000 ) ;
#205 = PRODUCT_DEFINITION_FORMATION_WITH_SPECIFIED_SOURCE ( 'Symmetric', '', #7, .NOT_KNOWN. ) ;
#206 = DIRECTION ( 'NONE',  ( 1.000000000000000000, 0.000000000000000000, 0.000000000000000000 ) ) ;
#207 = EDGE_CURVE ( 'NONE', #214, #211, #67, .T. ) ;
#208 =( NAMED_UNIT ( * ) PLANE_ANGLE_UNIT ( ) SI_UNIT ( $, .RADIAN. ) );
#209 = MECHANICAL_DESIGN_GEOMETRIC_PRESENTATION_REPRESENTATION (  '', ( #51 ), #194 ) ;
#210 = FACE_OUTER_BOUND ( 'NONE', #20, .T. ) ;
#211 = VERTEX_POINT ( 'NONE', #108 ) ;
#212 = DIRECTION ( 'NONE',  ( 3.299999999999999882E-16, 1.000000000000000000, -5.600000000000000277E-16 ) ) ;
#213 = EDGE_CURVE ( 'NONE', #143, #149, #160, .T. ) ;
#214 = VERTEX_POINT ( 'NONE', #111 ) ;
#215 = AXIS2_PLACEMENT_3D ( 'NONE', #271, #198, #272 ) ;
#216 = DIRECTION ( 'NONE',  ( -8.500000000000002041E-16, 6.938893903907227392E-16, 1.000000000000000000 ) ) ;
#217 = ORIENTED_EDGE ( 'NONE', *, *, #197, .F. ) ;
#218 = EDGE_LOOP ( 'NONE', ( #125, #126, #45, #47 ) ) ;
#219 = EDGE_CURVE ( 'NONE', #162, #130, #154, .T. ) ;
#220 = EDGE_LOOP ( 'NONE', ( #284, #90 ) ) ;
#221 = CIRCLE ( 'NONE', #232, 5.000000000000000888 ) ;
#222 = ORIENTED_EDGE ( 'NONE', *, *, #102, .T. ) ;
#223 = DIRECTION ( 'NONE',  ( -3.299999999999999882E-16, -1.000000000000000000, 5.600000000000000277E-16 ) ) ;
#224 = DIRECTION ( 'NONE',  ( -3.299999999999999882E-16, -1.000000000000000000, 5.600000000000000277E-16 ) ) ;
#225 = AXIS2_PLACEMENT_3D ( 'NONE', #237, #119, #216 ) ;
#226 = DIRECTION ( 'NONE',  ( -8.199999999999999138E-16, 3.854941057768212400E-16, 1.000000000000000000 ) ) ;
#227 = CARTESIAN_POINT ( 'NONE',  ( 1.956000000000000072E-14, 13.89999999999999858, -26.89999999999999858 ) ) ;
#228 = DIRECTION ( 'NONE',  ( -8.400000000000000416E-16, 6.308085367188391227E-16, 1.000000000000000000 ) ) ;
#229 = PRESENTATION_LAYER_ASSIGNMENT (  '', '', ( #199 ) ) ;
#230 = FILL_AREA_STYLE ('',( #32 ) ) ;
#231 = ADVANCED_FACE ( 'NONE', ( #245 ), #1, .T. ) ;
#232 = AXIS2_PLACEMENT_3D ( 'NONE', #78, #61, #65 ) ;
#233 = DIRECTION ( 'NONE',  ( 3.299999999999999882E-16, 1.000000000000000000, -5.600000000000000277E-16 ) ) ;
#234 = APPLICATION_PROTOCOL_DEFINITION ( 'draft international standard', 'automotive_design', 1998, #248 ) ;
#235 = ORIENTED_EDGE ( 'NONE', *, *, #46, .T. ) ;
#236 = ADVANCED_FACE ( 'NONE', ( #200, #293 ), #87, .F. ) ;
#237 = CARTESIAN_POINT ( 'NONE',  ( 1.939999999999999812E-14, 13.40000000000000036, -26.89999999999999858 ) ) ;
#238 = ORIENTED_EDGE ( 'NONE', *, *, #207, .F. ) ;
#239 = ORIENTED_EDGE ( 'NONE', *, *, #189, .F. ) ;
#240 = ORIENTED_EDGE ( 'NONE', *, *, #102, .F. ) ;
#241 = LINE ( 'NONE', #43, #62 ) ;
#242 = ADVANCED_FACE ( 'NONE', ( #210 ), #10, .T. ) ;
#243 = CARTESIAN_POINT ( 'NONE',  ( 1.487000000004017889E-14, 10.90000000000000213, -22.40000000004899761 ) ) ;
#244 = VERTEX_POINT ( 'NONE', #95 ) ;
#245 = FACE_OUTER_BOUND ( 'NONE', #164, .T. ) ;
#246 = AXIS2_PLACEMENT_3D ( 'NONE', #202, #88, #226 ) ;
#247 = UNCERTAINTY_MEASURE_WITH_UNIT (LENGTH_MEASURE( 1.000000000000000082E-05 ), #50, 'distance_accuracy_value', 'NONE');
#248 = APPLICATION_CONTEXT ( 'automotive_design' ) ;
#249 = CARTESIAN_POINT ( 'NONE',  ( 1.956000000000000072E-14, 13.89999999999999858, -26.89999999999999858 ) ) ;
#250 = DIRECTION ( 'NONE',  ( 3.299999999999999882E-16, 1.000000000000000000, -5.600000000000000277E-16 ) ) ;
#251 = DIRECTION ( 'NONE',  ( -8.400000000000000416E-16, 6.308085367188391227E-16, 1.000000000000000000 ) ) ;
#252 = AXIS2_PLACEMENT_3D ( 'NONE', #38, #233, #36 ) ;
#253 = DIRECTION ( 'NONE',  ( 0.000000000000000000, -5.600000000000000277E-16, -1.000000000000000000 ) ) ;
#254 = ADVANCED_FACE ( 'NONE', ( #277 ), #98, .F. ) ;
#255 = CARTESIAN_POINT ( 'NONE',  ( 0.000000000000000000, 0.000000000000000000, 0.000000000000000000 ) ) ;
#256 =( NAMED_UNIT ( * ) SI_UNIT ( $, .STERADIAN. ) SOLID_ANGLE_UNIT ( ) );
#257 =( GEOMETRIC_REPRESENTATION_CONTEXT ( 3 ) GLOBAL_UNCERTAINTY_ASSIGNED_CONTEXT ( ( #121 ) ) GLOBAL_UNIT_ASSIGNED_CONTEXT ( ( #181, #93, #259 ) ) REPRESENTATION_CONTEXT ( 'NONE', 'WORKASPACE' ) );
#258 = EDGE_CURVE ( 'NONE', #149, #143, #178, .T. ) ;
#259 =( NAMED_UNIT ( * ) SI_UNIT ( $, .STERADIAN. ) SOLID_ANGLE_UNIT ( ) );
#260 =( LENGTH_UNIT ( ) NAMED_UNIT ( * ) SI_UNIT ( .MILLI., .METRE. ) );
#261 = AXIS2_PLACEMENT_3D ( 'NONE', #137, #53, #74 ) ;
#262 = DIRECTION ( 'NONE',  ( -8.300000000000002735E-16, 6.308085367188391227E-16, 1.000000000000000000 ) ) ;
#263 = FACE_OUTER_BOUND ( 'NONE', #266, .T. ) ;
#264 = ORIENTED_EDGE ( 'NONE', *, *, #17, .F. ) ;
#265 = DIRECTION ( 'NONE',  ( -8.300000000000002735E-16, 6.308085367188391227E-16, 1.000000000000000000 ) ) ;
#266 = EDGE_LOOP ( 'NONE', ( #44, #192, #141, #4 ) ) ;
#267 = AXIS2_PLACEMENT_3D ( 'NONE', #151, #250, #253 ) ;
#268 = DIRECTION ( 'NONE',  ( -8.199999999999999138E-16, 3.854941057768212400E-16, 1.000000000000000000 ) ) ;
#269 = EDGE_CURVE ( 'NONE', #166, #287, #101, .T. ) ;
#270 = DIRECTION ( 'NONE',  ( 3.299999999999999882E-16, 1.000000000000000000, -5.600000000000000277E-16 ) ) ;
#271 = CARTESIAN_POINT ( 'NONE',  ( 1.855999999999999867E-14, 10.90000000000000036, -26.89999999999999858 ) ) ;
#272 = DIRECTION ( 'NONE',  ( 0.000000000000000000, -5.600000000000000277E-16, -1.000000000000000000 ) ) ;
#273 = SURFACE_STYLE_USAGE ( .BOTH. , #176 ) ;
#274 = FACE_OUTER_BOUND ( 'NONE', #220, .T. ) ;
#275 = CIRCLE ( 'NONE', #131, 5.499999999999998224 ) ;
#276 = EDGE_CURVE ( 'NONE', #161, #41, #127, .T. ) ;
#277 = FACE_OUTER_BOUND ( 'NONE', #218, .T. ) ;
#278 = CARTESIAN_POINT ( 'NONE',  ( 1.956000000000000072E-14, 13.89999999999999858, -26.89999999999999858 ) ) ;
#279 = AXIS2_PLACEMENT_3D ( 'NONE', #148, #84, #262 ) ;
#280 = CARTESIAN_POINT ( 'NONE',  ( 1.939999999999999812E-14, 13.40000000000000036, -26.89999999999999858 ) ) ;
#281 = PRODUCT_DEFINITION ( 'General', '', #205, #171 ) ;
#282 = VECTOR ( 'NONE', #224, 1000.000000000000000 ) ;
#283 = ORIENTED_EDGE ( 'NONE', *, *, #213, .F. ) ;
#284 = ORIENTED_EDGE ( 'NONE', *, *, #66, .F. ) ;
#285 = EDGE_LOOP ( 'NONE', ( #239, #107, #193, #15 ) ) ;
#286 = LINE ( 'NONE', #243, #34 ) ;
#287 = VERTEX_POINT ( 'NONE', #155 ) ;
#288 = CARTESIAN_POINT ( 'NONE',  ( 2.329609105957012372E-14, 10.89999999999999858, -31.39999999995100310 ) ) ;
#289 = AXIS2_PLACEMENT_3D ( 'NONE', #13, #22, #83 ) ;
#290 = PRESENTATION_LAYER_ASSIGNMENT (  '', '', ( #51 ) ) ;
#291 = ORIENTED_EDGE ( 'NONE', *, *, #94, .F. ) ;
#292 = DIRECTION ( 'NONE',  ( -3.299999999999999882E-16, -1.000000000000000000, 5.600000000000000277E-16 ) ) ;
#293 = FACE_BOUND ( 'NONE', #147, .T. ) ;
#294 = EDGE_CURVE ( 'NONE', #41, #287, #6, .T. ) ;
ENDSEC;
END-ISO-10303-21;
