ISO-10303-21;
HEADER;
FILE_DESCRIPTION (( 'STEP AP214' ),
    '1' );
FILE_NAME ('bottom_panel.STEP',
    '2026-09-04T22:08:39',
    ( '' ),
    ( '' ),
    'SwSTEP 2.0',
    'SolidWorks 2026',
    '' );
FILE_SCHEMA (( 'AUTOMOTIVE_DESIGN' ));
ENDSEC;

DATA;
#1 = CARTESIAN_POINT ( 'NONE',  ( 4.999488188976380698, -7.874999999999998224, 0.08499999999999999223 ) ) ;
#2 = EDGE_CURVE ( 'NONE', #813, #682, #138, .T. ) ;
#3 = VERTEX_POINT ( 'NONE', #437 ) ;
#4 = LENGTH_MEASURE_WITH_UNIT ( LENGTH_MEASURE( 0.02539999999999999897 ), #367 );
#5 = UNCERTAINTY_MEASURE_WITH_UNIT (LENGTH_MEASURE( 1.000000000000000082E-05 ), #358, 'distance_accuracy_value', 'NONE');
#6 = ORIENTED_EDGE ( 'NONE', *, *, #112, .T. ) ;
#7 = CARTESIAN_POINT ( 'NONE',  ( -3.499999999999998668, 5.500000000000000000, 0.2649999999999999578 ) ) ;
#8 = DIRECTION ( 'NONE',  ( 0.7071067811865487940, -0.7071067811865462405, 0.000000000000000000 ) ) ;
#9 = EDGE_LOOP ( 'NONE', ( #96, #803, #310, #376 ) ) ;
#10 = CARTESIAN_POINT ( 'NONE',  ( -2.999999999999998224, -5.000000000000000000, 0.2649999999999999578 ) ) ;
#11 = EDGE_CURVE ( 'NONE', #731, #780, #295, .T. ) ;
#12 = DIRECTION ( 'NONE',  ( 0.000000000000000000, -0.000000000000000000, 1.000000000000000000 ) ) ;
#13 = AXIS2_PLACEMENT_3D ( 'NONE', #154, #450, #716 ) ;
#14 = EDGE_CURVE ( 'NONE', #670, #625, #426, .T. ) ;
#15 = DIRECTION ( 'NONE',  ( 0.000000000000000000, 0.000000000000000000, -1.000000000000000000 ) ) ;
#16 = ORIENTED_EDGE ( 'NONE', *, *, #451, .T. ) ;
#17 = FILL_AREA_STYLE_COLOUR ( '', #441 ) ;
#18 = CARTESIAN_POINT ( 'NONE',  ( 3.500000000000001332, -5.500000000000000000, 0.2649999999999999578 ) ) ;
#19 = EDGE_CURVE ( 'NONE', #740, #455, #714, .T. ) ;
#20 = DIRECTION ( 'NONE',  ( 0.000000000000000000, -1.000000000000000000, 0.000000000000000000 ) ) ;
#21 = EDGE_LOOP ( 'NONE', ( #584, #300, #689, #296 ) ) ;
#22 = DIRECTION ( 'NONE',  ( 0.000000000000000000, 0.000000000000000000, -1.000000000000000000 ) ) ;
#23 = LINE ( 'NONE', #524, #362 ) ;
#24 = VERTEX_POINT ( 'NONE', #215 ) ;
#25 = DIRECTION ( 'NONE',  ( 0.000000000000000000, 0.000000000000000000, -1.000000000000000000 ) ) ;
#26 = DIRECTION ( 'NONE',  ( -0.000000000000000000, -0.000000000000000000, -1.000000000000000000 ) ) ;
#27 = ORIENTED_EDGE ( 'NONE', *, *, #381, .T. ) ;
#28 = APPLICATION_PROTOCOL_DEFINITION ( 'draft international standard', 'automotive_design', 1998, #39 ) ;
#29 = AXIS2_PLACEMENT_3D ( 'NONE', #634, #128, #918 ) ;
#30 = CARTESIAN_POINT ( 'NONE',  ( -5.905000000000003801, 6.969488188976378673, -0.08499999999999999223 ) ) ;
#31 =( GEOMETRIC_REPRESENTATION_CONTEXT ( 3 ) GLOBAL_UNCERTAINTY_ASSIGNED_CONTEXT ( ( #782 ) ) GLOBAL_UNIT_ASSIGNED_CONTEXT ( ( #589, #883, #877 ) ) REPRESENTATION_CONTEXT ( 'NONE', 'WORKASPACE' ) );
#32 = VECTOR ( 'NONE', #371, 39.37007874015748143 ) ;
#33 = VECTOR ( 'NONE', #474, 39.37007874015748143 ) ;
#34 = CARTESIAN_POINT ( 'NONE',  ( 5.904999999999998472, -6.969488188976377785, -0.08499999999999999223 ) ) ;
#35 = ORIENTED_EDGE ( 'NONE', *, *, #638, .T. ) ;
#36 = SURFACE_STYLE_USAGE ( .BOTH. , #732 ) ;
#37 = DIRECTION ( 'NONE',  ( -0.000000000000000000, -0.000000000000000000, -1.000000000000000000 ) ) ;
#38 = DIRECTION ( 'NONE',  ( -1.000000000000000000, 0.000000000000000000, 0.000000000000000000 ) ) ;
#39 = APPLICATION_CONTEXT ( 'automotive_design' ) ;
#40 = ORIENTED_EDGE ( 'NONE', *, *, #693, .F. ) ;
#41 = ORIENTED_EDGE ( 'NONE', *, *, #868, .T. ) ;
#42 = DIRECTION ( 'NONE',  ( 0.000000000000000000, 0.000000000000000000, -1.000000000000000000 ) ) ;
#43 = ADVANCED_FACE ( 'NONE', ( #147, #363, #430, #276, #142 ), #347, .T. ) ;
#44 = MANIFOLD_SOLID_BREP ( 'Cut-Extrude2', #785 ) ;
#45 = ADVANCED_FACE ( 'NONE', ( #711 ), #781, .F. ) ;
#46 = VECTOR ( 'NONE', #172, 39.37007874015748143 ) ;
#47 = CARTESIAN_POINT ( 'NONE',  ( -5.373110236220470348, 7.044999999999999929, 0.08499999999999997835 ) ) ;
#48 = EDGE_LOOP ( 'NONE', ( #595, #369, #494, #27 ) ) ;
#49 = ORIENTED_EDGE ( 'NONE', *, *, #98, .T. ) ;
#50 = FACE_OUTER_BOUND ( 'NONE', #234, .T. ) ;
#51 = PLANE ( 'NONE',  #240 ) ;
#52 = CIRCLE ( 'NONE', #854, 0.1181102362204725503 ) ;
#53 = ORIENTED_EDGE ( 'NONE', *, *, #596, .T. ) ;
#54 = CARTESIAN_POINT ( 'NONE',  ( 3.500000000000001332, -5.500000000000000000, 0.2649999999999999578 ) ) ;
#55 = LINE ( 'NONE', #743, #525 ) ;
#56 = ORIENTED_EDGE ( 'NONE', *, *, #145, .T. ) ;
#57 = VERTEX_POINT ( 'NONE', #790 ) ;
#58 = CYLINDRICAL_SURFACE ( 'NONE', #470, 0.1181102362204725503 ) ;
#59 = DIRECTION ( 'NONE',  ( 1.000000000000000000, 1.092851064110060823E-16, 0.000000000000000000 ) ) ;
#60 = ORIENTED_EDGE ( 'NONE', *, *, #251, .T. ) ;
#61 = VECTOR ( 'NONE', #687, 39.37007874015748143 ) ;
#62 = ORIENTED_EDGE ( 'NONE', *, *, #419, .T. ) ;
#63 = CARTESIAN_POINT ( 'NONE',  ( -5.373110236220470348, -7.044999999999999929, -0.08499999999999999223 ) ) ;
#64 = CARTESIAN_POINT ( 'NONE',  ( 5.373110236220473901, -7.044999999999999929, 0.08499999999999997835 ) ) ;
#65 = ORIENTED_EDGE ( 'NONE', *, *, #542, .T. ) ;
#66 = FACE_OUTER_BOUND ( 'NONE', #526, .T. ) ;
#67 = CARTESIAN_POINT ( 'NONE',  ( -4.999488188976394021, -7.874999999999999112, -0.08499999999999999223 ) ) ;
#68 = CARTESIAN_POINT ( 'NONE',  ( 5.904999999999997584, 6.969488188976370679, -0.08499999999999999223 ) ) ;
#69 = ORIENTED_EDGE ( 'NONE', *, *, #111, .T. ) ;
#70 = DIRECTION ( 'NONE',  ( -1.000000000000000000, 0.000000000000000000, 0.000000000000000000 ) ) ;
#71 = EDGE_CURVE ( 'NONE', #592, #715, #635, .T. ) ;
#72 = EDGE_CURVE ( 'NONE', #314, #636, #718, .T. ) ;
#73 = CARTESIAN_POINT ( 'NONE',  ( -5.254999999999997229, -7.044999999999999929, 0.2649999999999999578 ) ) ;
#74 = PRODUCT_DEFINITION_CONTEXT ( 'detailed design', #893, 'design' ) ;
#75 = ORIENTED_EDGE ( 'NONE', *, *, #761, .T. ) ;
#76 = AXIS2_PLACEMENT_3D ( 'NONE', #824, #404, #888 ) ;
#77 = VECTOR ( 'NONE', #639, 39.37007874015748854 ) ;
#78 = EDGE_LOOP ( 'NONE', ( #383, #327, #229, #401 ) ) ;
#79 = DIRECTION ( 'NONE',  ( -1.000000000000000000, 0.000000000000000000, 0.000000000000000000 ) ) ;
#80 = AXIS2_PLACEMENT_3D ( 'NONE', #403, #25, #733 ) ;
#81 = DIRECTION ( 'NONE',  ( 0.000000000000000000, 0.000000000000000000, -1.000000000000000000 ) ) ;
#82 = EDGE_CURVE ( 'NONE', #550, #712, #152, .T. ) ;
#83 = ORIENTED_EDGE ( 'NONE', *, *, #745, .F. ) ;
#84 = EDGE_CURVE ( 'NONE', #780, #481, #95, .T. ) ;
#85 = DIRECTION ( 'NONE',  ( -0.000000000000000000, 1.000000000000000000, -0.000000000000000000 ) ) ;
#86 = ADVANCED_FACE ( 'NONE', ( #867 ), #651, .T. ) ;
#87 = DIRECTION ( 'NONE',  ( -0.000000000000000000, -0.000000000000000000, -1.000000000000000000 ) ) ;
#88 = LINE ( 'NONE', #375, #290 ) ;
#89 = EDGE_LOOP ( 'NONE', ( #139, #411 ) ) ;
#90 = DIRECTION ( 'NONE',  ( 0.000000000000000000, 0.000000000000000000, -1.000000000000000000 ) ) ;
#91 = DIRECTION ( 'NONE',  ( -0.7071067811865491270, 0.7071067811865459074, 0.000000000000000000 ) ) ;
#92 = FACE_OUTER_BOUND ( 'NONE', #852, .T. ) ;
#93 = VERTEX_POINT ( 'NONE', #242 ) ;
#94 = PLANE ( 'NONE',  #600 ) ;
#95 = LINE ( 'NONE', #583, #795 ) ;
#96 = ORIENTED_EDGE ( 'NONE', *, *, #279, .F. ) ;
#97 = CARTESIAN_POINT ( 'NONE',  ( -5.254999999999997229, -7.044999999999999929, -0.08499999999999999223 ) ) ;
#98 = EDGE_CURVE ( 'NONE', #731, #117, #157, .T. ) ;
#99 = CARTESIAN_POINT ( 'NONE',  ( -5.373110236220470348, -7.044999999999999929, 0.08499999999999997835 ) ) ;
#100 = ORIENTED_EDGE ( 'NONE', *, *, #119, .T. ) ;
#101 = VECTOR ( 'NONE', #564, 39.37007874015748143 ) ;
#102 = DIRECTION ( 'NONE',  ( -1.000000000000000000, 0.000000000000000000, 0.000000000000000000 ) ) ;
#103 = VECTOR ( 'NONE', #547, 39.37007874015748143 ) ;
#104 = DIRECTION ( 'NONE',  ( -0.000000000000000000, -1.000000000000000000, -0.000000000000000000 ) ) ;
#105 = ORIENTED_EDGE ( 'NONE', *, *, #802, .F. ) ;
#106 = CIRCLE ( 'NONE', #440, 0.1181102362204725503 ) ;
#107 = DIRECTION ( 'NONE',  ( -1.000000000000000000, 0.000000000000000000, 0.000000000000000000 ) ) ;
#108 = VECTOR ( 'NONE', #747, 39.37007874015748143 ) ;
#109 = DIRECTION ( 'NONE',  ( 1.000000000000000000, 7.839450816446527355E-17, -0.000000000000000000 ) ) ;
#110 = ORIENTED_EDGE ( 'NONE', *, *, #337, .F. ) ;
#111 = EDGE_CURVE ( 'NONE', #491, #592, #801, .T. ) ;
#112 = EDGE_CURVE ( 'NONE', #715, #359, #812, .T. ) ;
#113 = DIRECTION ( 'NONE',  ( 1.000000000000000000, -0.000000000000000000, -0.000000000000000000 ) ) ;
#114 = EDGE_CURVE ( 'NONE', #3, #502, #52, .T. ) ;
#115 = LINE ( 'NONE', #124, #317 ) ;
#116 = VERTEX_POINT ( 'NONE', #515 ) ;
#117 = VERTEX_POINT ( 'NONE', #664 ) ;
#118 = DIRECTION ( 'NONE',  ( -0.000000000000000000, -0.000000000000000000, -1.000000000000000000 ) ) ;
#119 = EDGE_CURVE ( 'NONE', #709, #122, #453, .T. ) ;
#120 = CIRCLE ( 'NONE', #922, 0.1181102362204725503 ) ;
#121 = LINE ( 'NONE', #763, #454 ) ;
#122 = VERTEX_POINT ( 'NONE', #807 ) ;
#123 = DIRECTION ( 'NONE',  ( 0.000000000000000000, 1.000000000000000000, 0.000000000000000000 ) ) ;
#124 = CARTESIAN_POINT ( 'NONE',  ( -5.905000000000003801, -6.969488188976378673, -0.08499999999999999223 ) ) ;
#125 = VERTEX_POINT ( 'NONE', #99 ) ;
#126 = ORIENTED_EDGE ( 'NONE', *, *, #638, .F. ) ;
#127 = CARTESIAN_POINT ( 'NONE',  ( 3.500000000000001332, 5.500000000000000000, 0.2649999999999999578 ) ) ;
#128 = DIRECTION ( 'NONE',  ( 0.000000000000000000, 0.000000000000000000, -1.000000000000000000 ) ) ;
#129 = EDGE_LOOP ( 'NONE', ( #56, #339, #473, #372 ) ) ;
#130 = EDGE_LOOP ( 'NONE', ( #248, #41, #60, #100 ) ) ;
#131 = DIRECTION ( 'NONE',  ( 0.000000000000000000, 0.000000000000000000, -1.000000000000000000 ) ) ;
#132 = LINE ( 'NONE', #870, #486 ) ;
#133 = DIRECTION ( 'NONE',  ( -1.000000000000000000, 0.000000000000000000, 0.000000000000000000 ) ) ;
#134 = VECTOR ( 'NONE', #519, 39.37007874015748854 ) ;
#135 = ORIENTED_EDGE ( 'NONE', *, *, #570, .T. ) ;
#136 = LINE ( 'NONE', #492, #395 ) ;
#137 = LINE ( 'NONE', #156, #351 ) ;
#138 = LINE ( 'NONE', #630, #101 ) ;
#139 = ORIENTED_EDGE ( 'NONE', *, *, #114, .T. ) ;
#140 = DIRECTION ( 'NONE',  ( 0.000000000000000000, 1.000000000000000000, 0.000000000000000000 ) ) ;
#141 = EDGE_CURVE ( 'NONE', #359, #676, #447, .T. ) ;
#142 = FACE_OUTER_BOUND ( 'NONE', #216, .T. ) ;
#143 = ORIENTED_EDGE ( 'NONE', *, *, #419, .F. ) ;
#144 = CARTESIAN_POINT ( 'NONE',  ( -3.499999999999998668, 0.000000000000000000, 0.08499999999999999223 ) ) ;
#145 = EDGE_CURVE ( 'NONE', #438, #537, #88, .T. ) ;
#146 = AXIS2_PLACEMENT_3D ( 'NONE', #73, #855, #645 ) ;
#147 = FACE_BOUND ( 'NONE', #758, .T. ) ;
#148 = ORIENTED_EDGE ( 'NONE', *, *, #540, .F. ) ;
#149 = LINE ( 'NONE', #230, #538 ) ;
#150 = CIRCLE ( 'NONE', #29, 0.1181102362204725503 ) ;
#151 = ADVANCED_FACE ( 'NONE', ( #739 ), #382, .T. ) ;
#152 = CIRCLE ( 'NONE', #273, 0.1181102362204725503 ) ;
#153 = ORIENTED_EDGE ( 'NONE', *, *, #477, .F. ) ;
#154 = CARTESIAN_POINT ( 'NONE',  ( -5.254999999999997229, 7.044999999999999929, 0.08499999999999997835 ) ) ;
#155 = VECTOR ( 'NONE', #457, 39.37007874015748143 ) ;
#156 = CARTESIAN_POINT ( 'NONE',  ( 4.999488188976380698, -7.874999999999998224, -0.08499999999999999223 ) ) ;
#157 = LINE ( 'NONE', #875, #319 ) ;
#158 = EDGE_LOOP ( 'NONE', ( #65, #699, #737, #557 ) ) ;
#159 = CARTESIAN_POINT ( 'NONE',  ( -2.999999999999998224, 5.000000000000000000, 0.2649999999999999578 ) ) ;
#160 = DIRECTION ( 'NONE',  ( -1.000000000000000000, 0.000000000000000000, 0.000000000000000000 ) ) ;
#161 = DIRECTION ( 'NONE',  ( -1.000000000000000000, 0.000000000000000000, 0.000000000000000000 ) ) ;
#162 = ORIENTED_EDGE ( 'NONE', *, *, #112, .F. ) ;
#163 = EDGE_CURVE ( 'NONE', #709, #24, #23, .T. ) ;
#164 = CARTESIAN_POINT ( 'NONE',  ( -4.999488188976386027, 7.875000000000000888, -0.08499999999999999223 ) ) ;
#165 = CARTESIAN_POINT ( 'NONE',  ( -5.254999999999997229, -7.044999999999999929, 0.08499999999999997835 ) ) ;
#166 = DIMENSIONAL_EXPONENTS ( 1.000000000000000000, 0.000000000000000000, 0.000000000000000000, 0.000000000000000000, 0.000000000000000000, 0.000000000000000000, 0.000000000000000000 ) ;
#167 = ORIENTED_EDGE ( 'NONE', *, *, #19, .T. ) ;
#168 = SHAPE_DEFINITION_REPRESENTATION ( #913, #214 ) ;
#169 = VECTOR ( 'NONE', #236, 39.37007874015748143 ) ;
#170 = CARTESIAN_POINT ( 'NONE',  ( 3.500000000000001332, 5.500000000000000000, 0.2649999999999999578 ) ) ;
#171 = EDGE_CURVE ( 'NONE', #518, #125, #286, .T. ) ;
#172 = DIRECTION ( 'NONE',  ( 0.000000000000000000, 0.000000000000000000, 1.000000000000000000 ) ) ;
#173 = EDGE_LOOP ( 'NONE', ( #872, #646, #499, #615 ) ) ;
#174 = CARTESIAN_POINT ( 'NONE',  ( 3.000000000000001776, -5.000000000000000000, 0.2649999999999999578 ) ) ;
#175 = DIRECTION ( 'NONE',  ( -1.000000000000000000, 0.000000000000000000, 0.000000000000000000 ) ) ;
#176 = ORIENTED_EDGE ( 'NONE', *, *, #571, .T. ) ;
#177 = LENGTH_MEASURE_WITH_UNIT ( LENGTH_MEASURE( 0.02539999999999999897 ), #817 );
#178 = DIRECTION ( 'NONE',  ( 0.000000000000000000, 1.000000000000000000, 0.000000000000000000 ) ) ;
#179 = VECTOR ( 'NONE', #301, 39.37007874015748143 ) ;
#180 = EDGE_CURVE ( 'NONE', #266, #204, #529, .T. ) ;
#181 = DIRECTION ( 'NONE',  ( -0.000000000000000000, -0.000000000000000000, -1.000000000000000000 ) ) ;
#182 = EDGE_CURVE ( 'NONE', #829, #904, #120, .T. ) ;
#183 = ORIENTED_EDGE ( 'NONE', *, *, #352, .T. ) ;
#184 = LINE ( 'NONE', #30, #633 ) ;
#185 = CARTESIAN_POINT ( 'NONE',  ( 5.255000000000001670, -7.044999999999999929, 0.2649999999999999578 ) ) ;
#186 = ORIENTED_EDGE ( 'NONE', *, *, #436, .F. ) ;
#187 = EDGE_LOOP ( 'NONE', ( #808, #546, #324, #167 ) ) ;
#188 = DIRECTION ( 'NONE',  ( -1.000000000000000000, 0.000000000000000000, -0.000000000000000000 ) ) ;
#189 = DIRECTION ( 'NONE',  ( 0.000000000000000000, 0.000000000000000000, -1.000000000000000000 ) ) ;
#190 = VERTEX_POINT ( 'NONE', #594 ) ;
#191 = EDGE_LOOP ( 'NONE', ( #387, #396 ) ) ;
#192 = CARTESIAN_POINT ( 'NONE',  ( 4.999488188976386027, 7.875000000000000888, 0.08499999999999999223 ) ) ;
#193 = FACE_OUTER_BOUND ( 'NONE', #485, .T. ) ;
#194 = ORIENTED_EDGE ( 'NONE', *, *, #82, .T. ) ;
#195 = ORIENTED_EDGE ( 'NONE', *, *, #868, .F. ) ;
#196 = FACE_OUTER_BOUND ( 'NONE', #459, .T. ) ;
#197 = VECTOR ( 'NONE', #842, 39.37007874015748143 ) ;
#198 = DIRECTION ( 'NONE',  ( -0.7071067811865402453, 0.7071067811865546782, 0.000000000000000000 ) ) ;
#199 = AXIS2_PLACEMENT_3D ( 'NONE', #18, #493, #306 ) ;
#200 = ORIENTED_EDGE ( 'NONE', *, *, #843, .T. ) ;
#201 = CARTESIAN_POINT ( 'NONE',  ( 5.904999999999997584, 6.969488188976370679, 0.08499999999999999223 ) ) ;
#202 = CARTESIAN_POINT ( 'NONE',  ( -5.254999999999997229, 7.044999999999999929, -0.08499999999999999223 ) ) ;
#203 = SURFACE_SIDE_STYLE ('',( #779 ) ) ;
#204 = VERTEX_POINT ( 'NONE', #599 ) ;
#205 = CARTESIAN_POINT ( 'NONE',  ( 4.999488188976380698, -7.874999999999998224, -0.08499999999999999223 ) ) ;
#206 = DIRECTION ( 'NONE',  ( 0.000000000000000000, 1.000000000000000000, 0.000000000000000000 ) ) ;
#207 = ADVANCED_FACE ( 'NONE', ( #92 ), #669, .F. ) ;
#208 = VECTOR ( 'NONE', #253, 39.37007874015748143 ) ;
#209 = CARTESIAN_POINT ( 'NONE',  ( 5.255000000000001670, 7.044999999999999929, -0.08499999999999999223 ) ) ;
#210 = EDGE_CURVE ( 'NONE', #780, #813, #247, .T. ) ;
#211 = EDGE_CURVE ( 'NONE', #551, #427, #521, .T. ) ;
#212 = VERTEX_POINT ( 'NONE', #270 ) ;
#213 = CARTESIAN_POINT ( 'NONE',  ( 3.500000000000001332, 0.000000000000000000, 0.08499999999999999223 ) ) ;
#214 = ADVANCED_BREP_SHAPE_REPRESENTATION ( 'bottom_panel_7335K41', ( #44, #412 ), #31 ) ;
#215 = CARTESIAN_POINT ( 'NONE',  ( 3.000000000000001776, 5.000000000000000000, 0.08499999999999997835 ) ) ;
#216 = EDGE_LOOP ( 'NONE', ( #110, #869, #886, #775, #783, #288, #186, #344 ) ) ;
#217 = DIRECTION ( 'NONE',  ( 0.000000000000000000, -1.000000000000000000, 0.000000000000000000 ) ) ;
#218 = DIRECTION ( 'NONE',  ( -1.000000000000000000, 0.000000000000000000, 0.000000000000000000 ) ) ;
#219 = ORIENTED_EDGE ( 'NONE', *, *, #735, .F. ) ;
#220 = DIRECTION ( 'NONE',  ( 0.000000000000000000, 0.000000000000000000, -1.000000000000000000 ) ) ;
#221 = PRESENTATION_LAYER_ASSIGNMENT (  '', '', ( #623 ) ) ;
#222 =( NAMED_UNIT ( * ) PLANE_ANGLE_UNIT ( ) SI_UNIT ( $, .RADIAN. ) );
#223 = ORIENTED_EDGE ( 'NONE', *, *, #309, .T. ) ;
#224 = CARTESIAN_POINT ( 'NONE',  ( 4.999488188976386027, 7.875000000000000888, -0.08499999999999999223 ) ) ;
#225 = FACE_OUTER_BOUND ( 'NONE', #129, .T. ) ;
#226 = AXIS2_PLACEMENT_3D ( 'NONE', #452, #91, #658 ) ;
#227 = DIRECTION ( 'NONE',  ( -1.000000000000000000, 0.000000000000000000, 0.000000000000000000 ) ) ;
#228 = VECTOR ( 'NONE', #79, 39.37007874015748143 ) ;
#229 = ORIENTED_EDGE ( 'NONE', *, *, #607, .F. ) ;
#230 = CARTESIAN_POINT ( 'NONE',  ( 0.000000000000000000, 5.500000000000000000, 0.08499999999999999223 ) ) ;
#231 = VECTOR ( 'NONE', #738, 39.37007874015748143 ) ;
#232 = CARTESIAN_POINT ( 'NONE',  ( 5.255000000000001670, -7.044999999999999929, 0.08499999999999997835 ) ) ;
#233 = DIRECTION ( 'NONE',  ( -0.000000000000000000, 1.000000000000000000, -0.000000000000000000 ) ) ;
#234 = EDGE_LOOP ( 'NONE', ( #754, #522, #342, #704 ) ) ;
#235 = FACE_BOUND ( 'NONE', #130, .T. ) ;
#236 = DIRECTION ( 'NONE',  ( -7.839450816446527355E-17, 1.000000000000000000, -0.000000000000000000 ) ) ;
#237 = EDGE_LOOP ( 'NONE', ( #822, #223, #764, #726 ) ) ;
#238 = EDGE_CURVE ( 'NONE', #740, #359, #604, .T. ) ;
#239 = ADVANCED_FACE ( 'NONE', ( #193 ), #331, .F. ) ;
#240 = AXIS2_PLACEMENT_3D ( 'NONE', #613, #897, #198 ) ;
#241 = CARTESIAN_POINT ( 'NONE',  ( 3.000000000000001776, -5.000000000000000000, 0.2649999999999999578 ) ) ;
#242 = CARTESIAN_POINT ( 'NONE',  ( -5.136889763779524998, -7.044999999999999929, -0.08499999999999999223 ) ) ;
#243 = EDGE_LOOP ( 'NONE', ( #332, #890 ) ) ;
#244 = ADVANCED_FACE ( 'NONE', ( #622 ), #619, .F. ) ;
#245 = LINE ( 'NONE', #164, #839 ) ;
#246 = CIRCLE ( 'NONE', #880, 0.1181102362204725503 ) ;
#247 = LINE ( 'NONE', #533, #567 ) ;
#248 = ORIENTED_EDGE ( 'NONE', *, *, #579, .T. ) ;
#249 = LENGTH_MEASURE_WITH_UNIT ( LENGTH_MEASURE( 0.02539999999999999897 ), #647 );
#250 = CARTESIAN_POINT ( 'NONE',  ( -5.136889763779524998, -7.044999999999999929, 0.08499999999999997835 ) ) ;
#251 = EDGE_CURVE ( 'NONE', #438, #709, #472, .T. ) ;
#252 = EDGE_CURVE ( 'NONE', #212, #57, #330, .T. ) ;
#253 = DIRECTION ( 'NONE',  ( 0.000000000000000000, 0.000000000000000000, 1.000000000000000000 ) ) ;
#254 = ORIENTED_EDGE ( 'NONE', *, *, #894, .T. ) ;
#255 = SURFACE_STYLE_FILL_AREA ( #397 ) ;
#256 = CARTESIAN_POINT ( 'NONE',  ( -5.136889763779524998, 7.044999999999999929, -0.08499999999999999223 ) ) ;
#257 = VECTOR ( 'NONE', #140, 39.37007874015748143 ) ;
#258 = DIRECTION ( 'NONE',  ( -7.839450816446527355E-17, 1.000000000000000000, 0.000000000000000000 ) ) ;
#259 = ORIENTED_EDGE ( 'NONE', *, *, #267, .F. ) ;
#260 = EDGE_LOOP ( 'NONE', ( #847, #153 ) ) ;
#261 = LINE ( 'NONE', #696, #392 ) ;
#262 = DIRECTION ( 'NONE',  ( 0.000000000000000000, 0.000000000000000000, 1.000000000000000000 ) ) ;
#263 = EDGE_LOOP ( 'NONE', ( #283, #681, #62, #35 ) ) ;
#264 = DIRECTION ( 'NONE',  ( 0.000000000000000000, 0.000000000000000000, 1.000000000000000000 ) ) ;
#265 = CARTESIAN_POINT ( 'NONE',  ( -5.254999999999997229, -7.044999999999999929, 0.08499999999999997835 ) ) ;
#266 = VERTEX_POINT ( 'NONE', #326 ) ;
#267 = EDGE_CURVE ( 'NONE', #882, #786, #827, .T. ) ;
#268 = ORIENTED_EDGE ( 'NONE', *, *, #14, .F. ) ;
#269 = FACE_OUTER_BOUND ( 'NONE', #816, .T. ) ;
#270 = CARTESIAN_POINT ( 'NONE',  ( 5.136889763779529439, -7.044999999999999929, -0.08499999999999999223 ) ) ;
#271 = ORIENTED_EDGE ( 'NONE', *, *, #114, .F. ) ;
#272 = CARTESIAN_POINT ( 'NONE',  ( 0.000000000000000000, 0.000000000000000000, 0.08499999999999999223 ) ) ;
#273 = AXIS2_PLACEMENT_3D ( 'NONE', #209, #591, #175 ) ;
#274 = DIRECTION ( 'NONE',  ( 0.000000000000000000, 0.000000000000000000, -1.000000000000000000 ) ) ;
#275 = VECTOR ( 'NONE', #113, 39.37007874015748143 ) ;
#276 = FACE_BOUND ( 'NONE', #260, .T. ) ;
#277 = DIRECTION ( 'NONE',  ( -1.000000000000000000, 0.000000000000000000, 0.000000000000000000 ) ) ;
#278 = EDGE_CURVE ( 'NONE', #125, #518, #729, .T. ) ;
#279 = EDGE_CURVE ( 'NONE', #766, #537, #121, .T. ) ;
#280 = CARTESIAN_POINT ( 'NONE',  ( 5.904999999999998472, -6.969488188976377785, 0.08499999999999999223 ) ) ;
#281 = EDGE_CURVE ( 'NONE', #57, #212, #496, .T. ) ;
#282 = DIRECTION ( 'NONE',  ( 0.000000000000000000, 0.000000000000000000, -1.000000000000000000 ) ) ;
#283 = ORIENTED_EDGE ( 'NONE', *, *, #831, .F. ) ;
#284 = LINE ( 'NONE', #439, #701 ) ;
#285 = LINE ( 'NONE', #909, #197 ) ;
#286 = CIRCLE ( 'NONE', #759, 0.1181102362204725503 ) ;
#287 = EDGE_LOOP ( 'NONE', ( #695, #652, #577, #863 ) ) ;
#288 = ORIENTED_EDGE ( 'NONE', *, *, #352, .F. ) ;
#289 = LINE ( 'NONE', #585, #179 ) ;
#290 = VECTOR ( 'NONE', #389, 39.37007874015748143 ) ;
#291 = DIRECTION ( 'NONE',  ( -1.000000000000000000, -0.000000000000000000, -0.000000000000000000 ) ) ;
#292 = UNCERTAINTY_MEASURE_WITH_UNIT (LENGTH_MEASURE( 1.000000000000000082E-05 ), #469, 'distance_accuracy_value', 'NONE');
#293 = ORIENTED_EDGE ( 'NONE', *, *, #309, .F. ) ;
#294 = CARTESIAN_POINT ( 'NONE',  ( -5.905000000000003801, -6.969488188976378673, -0.08499999999999999223 ) ) ;
#295 = LINE ( 'NONE', #433, #819 ) ;
#296 = ORIENTED_EDGE ( 'NONE', *, *, #436, .T. ) ;
#297 = DIRECTION ( 'NONE',  ( 0.000000000000000000, 0.000000000000000000, -1.000000000000000000 ) ) ;
#298 = COLOUR_RGB ( '',0.7529411764705882248, 0.7529411764705882248, 0.7529411764705882248 ) ;
#299 = DIRECTION ( 'NONE',  ( 0.000000000000000000, 0.000000000000000000, -1.000000000000000000 ) ) ;
#300 = ORIENTED_EDGE ( 'NONE', *, *, #71, .F. ) ;
#301 = DIRECTION ( 'NONE',  ( -0.000000000000000000, -0.000000000000000000, -1.000000000000000000 ) ) ;
#302 = VECTOR ( 'NONE', #217, 39.37007874015748143 ) ;
#303 = CARTESIAN_POINT ( 'NONE',  ( -4.999488188976394021, -7.874999999999999112, -0.08499999999999999223 ) ) ;
#304 = CARTESIAN_POINT ( 'NONE',  ( -5.905000000000003801, 6.969488188976378673, -0.08499999999999999223 ) ) ;
#305 = ORIENTED_EDGE ( 'NONE', *, *, #381, .F. ) ;
#306 = DIRECTION ( 'NONE',  ( 0.000000000000000000, 0.000000000000000000, -1.000000000000000000 ) ) ;
#307 = ADVANCED_FACE ( 'NONE', ( #688 ), #51, .T. ) ;
#308 = CARTESIAN_POINT ( 'NONE',  ( 5.904999999999998472, -6.969488188976377785, -0.08499999999999999223 ) ) ;
#309 = EDGE_CURVE ( 'NONE', #502, #57, #55, .T. ) ;
#310 = ORIENTED_EDGE ( 'NONE', *, *, #571, .F. ) ;
#311 = DIRECTION ( 'NONE',  ( 0.000000000000000000, 0.000000000000000000, 1.000000000000000000 ) ) ;
#312 = DIRECTION ( 'NONE',  ( -0.000000000000000000, 0.000000000000000000, 1.000000000000000000 ) ) ;
#313 = CARTESIAN_POINT ( 'NONE',  ( -4.999488188976394021, -7.874999999999999112, -0.08499999999999999223 ) ) ;
#314 = VERTEX_POINT ( 'NONE', #47 ) ;
#315 = CARTESIAN_POINT ( 'NONE',  ( 5.373110236220473901, 7.044999999999999929, 0.2649999999999999578 ) ) ;
#316 = DIRECTION ( 'NONE',  ( -1.000000000000000000, 0.000000000000000000, 0.000000000000000000 ) ) ;
#317 = VECTOR ( 'NONE', #104, 39.37007874015748143 ) ;
#318 = ORIENTED_EDGE ( 'NONE', *, *, #210, .T. ) ;
#319 = VECTOR ( 'NONE', #81, 39.37007874015748143 ) ;
#320 = CARTESIAN_POINT ( 'NONE',  ( 3.000000000000001776, 0.000000000000000000, 0.08499999999999999223 ) ) ;
#321 = VECTOR ( 'NONE', #667, 39.37007874015748143 ) ;
#322 = EDGE_CURVE ( 'NONE', #204, #786, #892, .T. ) ;
#323 = DIRECTION ( 'NONE',  ( -1.000000000000000000, 0.000000000000000000, 0.000000000000000000 ) ) ;
#324 = ORIENTED_EDGE ( 'NONE', *, *, #238, .F. ) ;
#325 = DIRECTION ( 'NONE',  ( 0.000000000000000000, -0.000000000000000000, 1.000000000000000000 ) ) ;
#326 = CARTESIAN_POINT ( 'NONE',  ( -5.905000000000003801, 6.969488188976378673, -0.08499999999999999223 ) ) ;
#327 = ORIENTED_EDGE ( 'NONE', *, *, #11, .F. ) ;
#328 = ORIENTED_EDGE ( 'NONE', *, *, #831, .T. ) ;
#329 = CARTESIAN_POINT ( 'NONE',  ( 5.136889763779529439, -7.044999999999999929, 0.2649999999999999578 ) ) ;
#330 = CIRCLE ( 'NONE', #848, 0.1181102362204725503 ) ;
#331 = PLANE ( 'NONE',  #76 ) ;
#332 = ORIENTED_EDGE ( 'NONE', *, *, #456, .T. ) ;
#333 = VERTEX_POINT ( 'NONE', #832 ) ;
#334 = FACE_OUTER_BOUND ( 'NONE', #572, .T. ) ;
#335 = PRODUCT ( 'bottom_panel_7335K41', 'bottom_panel_7335K41', '', ( #384 ) ) ;
#336 = CARTESIAN_POINT ( 'NONE',  ( 3.000000000000001776, 5.000000000000000000, 0.2649999999999999578 ) ) ;
#337 = EDGE_CURVE ( 'NONE', #266, #882, #115, .T. ) ;
#338 = ORIENTED_EDGE ( 'NONE', *, *, #907, .F. ) ;
#339 = ORIENTED_EDGE ( 'NONE', *, *, #409, .T. ) ;
#340 = CYLINDRICAL_SURFACE ( 'NONE', #508, 0.1181102362204725503 ) ;
#341 = FACE_OUTER_BOUND ( 'NONE', #48, .T. ) ;
#342 = ORIENTED_EDGE ( 'NONE', *, *, #517, .T. ) ;
#343 = VECTOR ( 'NONE', #911, 39.37007874015748143 ) ;
#344 = ORIENTED_EDGE ( 'NONE', *, *, #451, .F. ) ;
#345 = CARTESIAN_POINT ( 'NONE',  ( -5.254999999999997229, -7.044999999999999929, 0.2649999999999999578 ) ) ;
#346 = FACE_OUTER_BOUND ( 'NONE', #173, .T. ) ;
#347 = PLANE ( 'NONE',  #858 ) ;
#348 = ADVANCED_FACE ( 'NONE', ( #341 ), #901, .F. ) ;
#349 = CARTESIAN_POINT ( 'NONE',  ( 3.000000000000001776, 5.000000000000000000, 0.2649999999999999578 ) ) ;
#350 = ADVANCED_FACE ( 'NONE', ( #545 ), #609, .T. ) ;
#351 = VECTOR ( 'NONE', #429, 39.37007874015748143 ) ;
#352 = EDGE_CURVE ( 'NONE', #769, #740, #475, .T. ) ;
#353 = DIRECTION ( 'NONE',  ( -0.000000000000000000, -0.000000000000000000, -1.000000000000000000 ) ) ;
#354 =( NAMED_UNIT ( * ) SI_UNIT ( $, .STERADIAN. ) SOLID_ANGLE_UNIT ( ) );
#355 = ORIENTED_EDGE ( 'NONE', *, *, #267, .T. ) ;
#356 = PLANE ( 'NONE',  #796 ) ;
#357 = DIRECTION ( 'NONE',  ( -1.000000000000000000, 0.000000000000000000, 0.000000000000000000 ) ) ;
#358 =( CONVERSION_BASED_UNIT ( 'INCH', #4 ) LENGTH_UNIT ( ) NAMED_UNIT ( #166 ) );
#359 = VERTEX_POINT ( 'NONE', #280 ) ;
#360 = FACE_OUTER_BOUND ( 'NONE', #9, .T. ) ;
#361 = DIMENSIONAL_EXPONENTS ( 1.000000000000000000, 0.000000000000000000, 0.000000000000000000, 0.000000000000000000, 0.000000000000000000, 0.000000000000000000, 0.000000000000000000 ) ;
#362 = VECTOR ( 'NONE', #386, 39.37007874015748143 ) ;
#363 = FACE_BOUND ( 'NONE', #191, .T. ) ;
#364 = EDGE_LOOP ( 'NONE', ( #293, #271, #53, #534 ) ) ;
#365 = DIRECTION ( 'NONE',  ( 1.000000000000000000, -0.000000000000000000, 0.000000000000000000 ) ) ;
#366 = AXIS2_PLACEMENT_3D ( 'NONE', #836, #536, #820 ) ;
#367 =( LENGTH_UNIT ( ) NAMED_UNIT ( * ) SI_UNIT ( $, .METRE. ) );
#368 = AXIS2_PLACEMENT_3D ( 'NONE', #814, #593, #312 ) ;
#369 = ORIENTED_EDGE ( 'NONE', *, *, #456, .F. ) ;
#370 = CARTESIAN_POINT ( 'NONE',  ( -5.905000000000003801, -6.969488188976378673, 0.08499999999999999223 ) ) ;
#371 = DIRECTION ( 'NONE',  ( 0.7071067811865462405, 0.7071067811865487940, -0.000000000000000000 ) ) ;
#372 = ORIENTED_EDGE ( 'NONE', *, *, #251, .F. ) ;
#373 = CARTESIAN_POINT ( 'NONE',  ( 5.373110236220473901, 7.044999999999999929, 0.08499999999999997835 ) ) ;
#374 = FACE_OUTER_BOUND ( 'NONE', #21, .T. ) ;
#375 = CARTESIAN_POINT ( 'NONE',  ( -2.999999999999998224, 5.000000000000000000, 0.2649999999999999578 ) ) ;
#376 = ORIENTED_EDGE ( 'NONE', *, *, #409, .F. ) ;
#377 = PRESENTATION_STYLE_ASSIGNMENT (( #36 ) ) ;
#378 = AXIS2_PLACEMENT_3D ( 'NONE', #799, #727, #853 ) ;
#379 = EDGE_CURVE ( 'NONE', #116, #620, #878, .T. ) ;
#380 = PLANE ( 'NONE',  #226 ) ;
#381 = EDGE_CURVE ( 'NONE', #712, #550, #150, .T. ) ;
#382 = PLANE ( 'NONE',  #811 ) ;
#383 = ORIENTED_EDGE ( 'NONE', *, *, #210, .F. ) ;
#384 = PRODUCT_CONTEXT ( 'NONE', #39, 'mechanical' ) ;
#385 = CARTESIAN_POINT ( 'NONE',  ( -5.373110236220470348, 7.044999999999999929, 0.2649999999999999578 ) ) ;
#386 = DIRECTION ( 'NONE',  ( 0.000000000000000000, 0.000000000000000000, -1.000000000000000000 ) ) ;
#387 = ORIENTED_EDGE ( 'NONE', *, *, #252, .F. ) ;
#388 = DIRECTION ( 'NONE',  ( -1.000000000000000000, 0.000000000000000000, 0.000000000000000000 ) ) ;
#389 = DIRECTION ( 'NONE',  ( 0.000000000000000000, 0.000000000000000000, -1.000000000000000000 ) ) ;
#390 = ORIENTED_EDGE ( 'NONE', *, *, #677, .T. ) ;
#391 =( NAMED_UNIT ( * ) SI_UNIT ( $, .STERADIAN. ) SOLID_ANGLE_UNIT ( ) );
#392 = VECTOR ( 'NONE', #495, 39.37007874015748143 ) ;
#393 = CARTESIAN_POINT ( 'NONE',  ( 4.999488188976386027, 7.875000000000000888, -0.08499999999999999223 ) ) ;
#394 = CARTESIAN_POINT ( 'NONE',  ( -5.905000000000003801, -6.969488188976378673, 0.08499999999999999223 ) ) ;
#395 = VECTOR ( 'NONE', #835, 39.37007874015748854 ) ;
#396 = ORIENTED_EDGE ( 'NONE', *, *, #281, .F. ) ;
#397 = FILL_AREA_STYLE ('',( #17 ) ) ;
#398 = DIRECTION ( 'NONE',  ( -0.7071067811865459074, -0.7071067811865492381, -0.000000000000000000 ) ) ;
#399 = AXIS2_PLACEMENT_3D ( 'NONE', #756, #626, #558 ) ;
#400 = CARTESIAN_POINT ( 'NONE',  ( -5.905000000000003801, -6.969488188976378673, -0.08499999999999999223 ) ) ;
#401 = ORIENTED_EDGE ( 'NONE', *, *, #517, .F. ) ;
#402 = ORIENTED_EDGE ( 'NONE', *, *, #180, .F. ) ;
#403 = CARTESIAN_POINT ( 'NONE',  ( -5.254999999999997229, -7.044999999999999929, -0.08499999999999999223 ) ) ;
#404 = DIRECTION ( 'NONE',  ( 1.000000000000000000, 0.000000000000000000, 0.000000000000000000 ) ) ;
#405 = EDGE_LOOP ( 'NONE', ( #605, #83, #219, #135 ) ) ;
#406 = FACE_BOUND ( 'NONE', #921, .T. ) ;
#407 = AXIS2_PLACEMENT_3D ( 'NONE', #757, #680, #548 ) ;
#408 = ADVANCED_FACE ( 'NONE', ( #225 ), #497, .F. ) ;
#409 = EDGE_CURVE ( 'NONE', #537, #24, #132, .T. ) ;
#410 = DIRECTION ( 'NONE',  ( 1.000000000000000000, -0.000000000000000000, -0.000000000000000000 ) ) ;
#411 = ORIENTED_EDGE ( 'NONE', *, *, #421, .T. ) ;
#412 = AXIS2_PLACEMENT_3D ( 'NONE', #602, #311, #671 ) ;
#413 = CARTESIAN_POINT ( 'NONE',  ( 5.136889763779529439, 7.044999999999999929, -0.08499999999999999223 ) ) ;
#414 = CARTESIAN_POINT ( 'NONE',  ( 3.500000000000001332, 5.500000000000000000, 0.2649999999999999578 ) ) ;
#415 = ORIENTED_EDGE ( 'NONE', *, *, #238, .T. ) ;
#416 = ORIENTED_EDGE ( 'NONE', *, *, #774, .F. ) ;
#417 = CARTESIAN_POINT ( 'NONE',  ( 5.904999999999998472, -6.969488188976377785, -0.08499999999999999223 ) ) ;
#418 = DIRECTION ( 'NONE',  ( 0.000000000000000000, 0.000000000000000000, -1.000000000000000000 ) ) ;
#419 = EDGE_CURVE ( 'NONE', #125, #685, #285, .T. ) ;
#420 = EDGE_LOOP ( 'NONE', ( #390, #641, #200, #510 ) ) ;
#421 = EDGE_CURVE ( 'NONE', #502, #3, #106, .T. ) ;
#422 = ORIENTED_EDGE ( 'NONE', *, *, #71, .T. ) ;
#423 = DIRECTION ( 'NONE',  ( -1.000000000000000000, 0.000000000000000000, 0.000000000000000000 ) ) ;
#424 = CARTESIAN_POINT ( 'NONE',  ( 5.255000000000001670, 7.044999999999999929, 0.2649999999999999578 ) ) ;
#425 = AXIS2_PLACEMENT_3D ( 'NONE', #500, #297, #860 ) ;
#426 = LINE ( 'NONE', #920, #549 ) ;
#427 = VERTEX_POINT ( 'NONE', #778 ) ;
#428 = CARTESIAN_POINT ( 'NONE',  ( 0.000000000000000000, -5.500000000000000000, 0.08499999999999999223 ) ) ;
#429 = DIRECTION ( 'NONE',  ( 1.000000000000000000, 1.092851064110060946E-16, -0.000000000000000000 ) ) ;
#430 = FACE_BOUND ( 'NONE', #856, .T. ) ;
#431 = ORIENTED_EDGE ( 'NONE', *, *, #322, .F. ) ;
#432 = LINE ( 'NONE', #213, #302 ) ;
#433 = CARTESIAN_POINT ( 'NONE',  ( 3.500000000000001332, -5.500000000000000000, 0.2649999999999999578 ) ) ;
#434 = EDGE_LOOP ( 'NONE', ( #773, #698, #194, #40 ) ) ;
#435 = PLANE ( 'NONE',  #425 ) ;
#436 = EDGE_CURVE ( 'NONE', #491, #769, #137, .T. ) ;
#437 = CARTESIAN_POINT ( 'NONE',  ( 5.136889763779529439, -7.044999999999999929, 0.08499999999999997835 ) ) ;
#438 = VERTEX_POINT ( 'NONE', #697 ) ;
#439 = CARTESIAN_POINT ( 'NONE',  ( 5.904999999999997584, 6.969488188976370679, -0.08499999999999999223 ) ) ;
#440 = AXIS2_PLACEMENT_3D ( 'NONE', #232, #418, #629 ) ;
#441 = COLOUR_RGB ( '',0.7529411764705882248, 0.7529411764705882248, 0.7529411764705882248 ) ;
#442 = AXIS2_PLACEMENT_3D ( 'NONE', #308, #8, #466 ) ;
#443 = CIRCLE ( 'NONE', #80, 0.1181102362204725503 ) ;
#444 = ORIENTED_EDGE ( 'NONE', *, *, #542, .F. ) ;
#445 = PLANE ( 'NONE',  #378 ) ;
#446 = CARTESIAN_POINT ( 'NONE',  ( -5.254999999999997229, 7.044999999999999929, -0.08499999999999999223 ) ) ;
#447 = LINE ( 'NONE', #724, #169 ) ;
#448 = ADVANCED_FACE ( 'NONE', ( #374 ), #563, .T. ) ;
#449 = ORIENTED_EDGE ( 'NONE', *, *, #163, .T. ) ;
#450 = DIRECTION ( 'NONE',  ( 0.000000000000000000, 0.000000000000000000, -1.000000000000000000 ) ) ;
#451 = EDGE_CURVE ( 'NONE', #882, #491, #708, .T. ) ;
#452 = CARTESIAN_POINT ( 'NONE',  ( -5.905000000000003801, 6.969488188976378673, -0.08499999999999999223 ) ) ;
#453 = LINE ( 'NONE', #797, #616 ) ;
#454 = VECTOR ( 'NONE', #480, 39.37007874015748143 ) ;
#455 = VERTEX_POINT ( 'NONE', #568 ) ;
#456 = EDGE_CURVE ( 'NONE', #904, #829, #631, .T. ) ;
#457 = DIRECTION ( 'NONE',  ( 0.000000000000000000, 0.000000000000000000, 1.000000000000000000 ) ) ;
#458 = CARTESIAN_POINT ( 'NONE',  ( 5.255000000000001670, 7.044999999999999929, 0.08499999999999997835 ) ) ;
#459 = EDGE_LOOP ( 'NONE', ( #476, #694, #422, #6, #530, #75, #721, #828 ) ) ;
#460 =( NAMED_UNIT ( * ) PLANE_ANGLE_UNIT ( ) SI_UNIT ( $, .RADIAN. ) );
#461 = LINE ( 'NONE', #241, #488 ) ;
#462 = DIRECTION ( 'NONE',  ( 0.000000000000000000, 0.000000000000000000, -1.000000000000000000 ) ) ;
#463 = ORIENTED_EDGE ( 'NONE', *, *, #607, .T. ) ;
#464 = CARTESIAN_POINT ( 'NONE',  ( 3.500000000000001332, 5.500000000000000000, 0.2649999999999999578 ) ) ;
#465 = MECHANICAL_DESIGN_GEOMETRIC_PRESENTATION_REPRESENTATION (  '', ( #623 ), #668 ) ;
#466 = DIRECTION ( 'NONE',  ( 0.7071067811865462405, 0.7071067811865487940, 0.000000000000000000 ) ) ;
#467 = PRODUCT_RELATED_PRODUCT_CATEGORY ( 'part', '', ( #335 ) ) ;
#468 = ORIENTED_EDGE ( 'NONE', *, *, #742, .F. ) ;
#469 =( CONVERSION_BASED_UNIT ( 'INCH', #177 ) LENGTH_UNIT ( ) NAMED_UNIT ( #361 ) );
#470 = AXIS2_PLACEMENT_3D ( 'NONE', #511, #713, #70 ) ;
#471 = LINE ( 'NONE', #329, #108 ) ;
#472 = LINE ( 'NONE', #336, #686 ) ;
#473 = ORIENTED_EDGE ( 'NONE', *, *, #163, .F. ) ;
#474 = DIRECTION ( 'NONE',  ( 0.000000000000000000, -1.000000000000000000, 0.000000000000000000 ) ) ;
#475 = LINE ( 'NONE', #541, #748 ) ;
#476 = ORIENTED_EDGE ( 'NONE', *, *, #322, .T. ) ;
#477 = EDGE_CURVE ( 'NONE', #620, #116, #598, .T. ) ;
#478 = LINE ( 'NONE', #618, #628 ) ;
#479 = ADVANCED_FACE ( 'NONE', ( #800 ), #380, .T. ) ;
#480 = DIRECTION ( 'NONE',  ( 0.000000000000000000, 1.000000000000000000, 0.000000000000000000 ) ) ;
#481 = VERTEX_POINT ( 'NONE', #560 ) ;
#482 = DIRECTION ( 'NONE',  ( -0.7071067811865402453, 0.7071067811865546782, -0.000000000000000000 ) ) ;
#483 = VECTOR ( 'NONE', #262, 39.37007874015748143 ) ;
#484 = DIRECTION ( 'NONE',  ( -1.000000000000000000, 0.000000000000000000, 0.000000000000000000 ) ) ;
#485 = EDGE_LOOP ( 'NONE', ( #449, #176, #444, #588 ) ) ;
#486 = VECTOR ( 'NONE', #768, 39.37007874015748143 ) ;
#487 = CARTESIAN_POINT ( 'NONE',  ( -5.905000000000003801, -6.969488188976378673, -0.08499999999999999223 ) ) ;
#488 = VECTOR ( 'NONE', #107, 39.37007874015748143 ) ;
#489 = ADVANCED_FACE ( 'NONE', ( #915 ), #512, .F. ) ;
#490 = CARTESIAN_POINT ( 'NONE',  ( 5.255000000000001670, 7.044999999999999929, 0.08499999999999997835 ) ) ;
#491 = VERTEX_POINT ( 'NONE', #67 ) ;
#492 = CARTESIAN_POINT ( 'NONE',  ( -4.999488188976394021, -7.874999999999999112, 0.08499999999999999223 ) ) ;
#493 = DIRECTION ( 'NONE',  ( 0.000000000000000000, -1.000000000000000000, -0.000000000000000000 ) ) ;
#494 = ORIENTED_EDGE ( 'NONE', *, *, #693, .T. ) ;
#495 = DIRECTION ( 'NONE',  ( -0.000000000000000000, -0.000000000000000000, -1.000000000000000000 ) ) ;
#496 = CIRCLE ( 'NONE', #407, 0.1181102362204725503 ) ;
#497 = PLANE ( 'NONE',  #793 ) ;
#498 = FILL_AREA_STYLE ('',( #569 ) ) ;
#499 = ORIENTED_EDGE ( 'NONE', *, *, #11, .T. ) ;
#500 = CARTESIAN_POINT ( 'NONE',  ( 0.000000000000000000, 0.000000000000000000, 0.08499999999999999223 ) ) ;
#501 = DIRECTION ( 'NONE',  ( -1.000000000000000000, 0.000000000000000000, -0.000000000000000000 ) ) ;
#502 = VERTEX_POINT ( 'NONE', #64 ) ;
#503 = LINE ( 'NONE', #637, #228 ) ;
#504 = ADVANCED_FACE ( 'NONE', ( #346 ), #728, .T. ) ;
#505 = ORIENTED_EDGE ( 'NONE', *, *, #608, .F. ) ;
#506 = CARTESIAN_POINT ( 'NONE',  ( 4.999488188976386027, 7.875000000000000888, -0.08499999999999999223 ) ) ;
#507 = VECTOR ( 'NONE', #574, 39.37007874015748143 ) ;
#508 = AXIS2_PLACEMENT_3D ( 'NONE', #345, #118, #277 ) ;
#509 = PRESENTATION_STYLE_ASSIGNMENT (( #703 ) ) ;
#510 = ORIENTED_EDGE ( 'NONE', *, *, #907, .T. ) ;
#511 = CARTESIAN_POINT ( 'NONE',  ( -5.254999999999997229, 7.044999999999999929, 0.2649999999999999578 ) ) ;
#512 = CYLINDRICAL_SURFACE ( 'NONE', #912, 0.1181102362204725503 ) ;
#513 = AXIS2_PLACEMENT_3D ( 'NONE', #749, #109, #258 ) ;
#514 = ADVANCED_FACE ( 'NONE', ( #590 ), #771, .F. ) ;
#515 = CARTESIAN_POINT ( 'NONE',  ( -5.373110236220470348, 7.044999999999999929, -0.08499999999999999223 ) ) ;
#516 = VECTOR ( 'NONE', #423, 39.37007874015748143 ) ;
#517 = EDGE_CURVE ( 'NONE', #813, #551, #810, .T. ) ;
#518 = VERTEX_POINT ( 'NONE', #250 ) ;
#519 = DIRECTION ( 'NONE',  ( -0.7071067811865402453, 0.7071067811865546782, -0.000000000000000000 ) ) ;
#520 = DIRECTION ( 'NONE',  ( 1.092851064110060823E-16, -1.000000000000000000, 0.000000000000000000 ) ) ;
#521 = LINE ( 'NONE', #414, #611 ) ;
#522 = ORIENTED_EDGE ( 'NONE', *, *, #2, .F. ) ;
#523 = CARTESIAN_POINT ( 'NONE',  ( -4.999488188976386027, 7.875000000000000888, -0.08499999999999999223 ) ) ;
#524 = CARTESIAN_POINT ( 'NONE',  ( 3.000000000000001776, 5.000000000000000000, 0.2649999999999999578 ) ) ;
#525 = VECTOR ( 'NONE', #885, 39.37007874015748143 ) ;
#526 = EDGE_LOOP ( 'NONE', ( #355, #431, #402, #746 ) ) ;
#527 = PLANE ( 'NONE',  #765 ) ;
#528 = PRESENTATION_LAYER_ASSIGNMENT (  '', '', ( #614 ) ) ;
#529 = LINE ( 'NONE', #304, #46 ) ;
#530 = ORIENTED_EDGE ( 'NONE', *, *, #141, .T. ) ;
#531 = DIRECTION ( 'NONE',  ( -1.000000000000000000, -0.000000000000000000, -0.000000000000000000 ) ) ;
#532 = ADVANCED_FACE ( 'NONE', ( #662 ), #672, .F. ) ;
#533 = CARTESIAN_POINT ( 'NONE',  ( -3.499999999999998668, 5.500000000000000000, 0.2649999999999999578 ) ) ;
#534 = ORIENTED_EDGE ( 'NONE', *, *, #252, .T. ) ;
#535 = FACE_OUTER_BOUND ( 'NONE', #624, .T. ) ;
#536 = DIRECTION ( 'NONE',  ( -0.000000000000000000, -0.000000000000000000, -1.000000000000000000 ) ) ;
#537 = VERTEX_POINT ( 'NONE', #539 ) ;
#538 = VECTOR ( 'NONE', #365, 39.37007874015748143 ) ;
#539 = CARTESIAN_POINT ( 'NONE',  ( -2.999999999999998224, 5.000000000000000000, 0.08499999999999999223 ) ) ;
#540 = EDGE_CURVE ( 'NONE', #314, #116, #678, .T. ) ;
#541 = CARTESIAN_POINT ( 'NONE',  ( 5.904999999999998472, -6.969488188976377785, -0.08499999999999999223 ) ) ;
#542 = EDGE_CURVE ( 'NONE', #122, #333, #606, .T. ) ;
#543 = ORIENTED_EDGE ( 'NONE', *, *, #774, .T. ) ;
#544 = DIRECTION ( 'NONE',  ( 0.000000000000000000, -0.000000000000000000, 1.000000000000000000 ) ) ;
#545 = FACE_OUTER_BOUND ( 'NONE', #187, .T. ) ;
#546 = ORIENTED_EDGE ( 'NONE', *, *, #141, .F. ) ;
#547 = DIRECTION ( 'NONE',  ( -0.7071067811865459074, -0.7071067811865492381, -0.000000000000000000 ) ) ;
#548 = DIRECTION ( 'NONE',  ( -1.000000000000000000, 0.000000000000000000, 0.000000000000000000 ) ) ;
#549 = VECTOR ( 'NONE', #291, 39.37007874015748143 ) ;
#550 = VERTEX_POINT ( 'NONE', #884 ) ;
#551 = VERTEX_POINT ( 'NONE', #464 ) ;
#552 = CARTESIAN_POINT ( 'NONE',  ( 4.999488188976386027, 7.875000000000000888, 0.08499999999999999223 ) ) ;
#553 = DIRECTION ( 'NONE',  ( 0.000000000000000000, 0.000000000000000000, -1.000000000000000000 ) ) ;
#554 = ORIENTED_EDGE ( 'NONE', *, *, #279, .T. ) ;
#555 = AXIS2_PLACEMENT_3D ( 'NONE', #490, #274, #850 ) ;
#556 = PRODUCT_DEFINITION_FORMATION_WITH_SPECIFIED_SOURCE ( 'Symmetric', '', #335, .NOT_KNOWN. ) ;
#557 = ORIENTED_EDGE ( 'NONE', *, *, #579, .F. ) ;
#558 = DIRECTION ( 'NONE',  ( -0.000000000000000000, 0.000000000000000000, 1.000000000000000000 ) ) ;
#559 = AXIS2_PLACEMENT_3D ( 'NONE', #424, #353, #357 ) ;
#560 = CARTESIAN_POINT ( 'NONE',  ( -3.499999999999998668, -5.500000000000000000, 0.08499999999999997835 ) ) ;
#561 = EDGE_LOOP ( 'NONE', ( #69, #666, #259, #16 ) ) ;
#562 = DIRECTION ( 'NONE',  ( -1.000000000000000000, 0.000000000000000000, 0.000000000000000000 ) ) ;
#563 = PLANE ( 'NONE',  #762 ) ;
#564 = DIRECTION ( 'NONE',  ( 0.000000000000000000, 0.000000000000000000, -1.000000000000000000 ) ) ;
#565 = EDGE_LOOP ( 'NONE', ( #889, #328, #649, #143 ) ) ;
#566 = FACE_OUTER_BOUND ( 'NONE', #838, .T. ) ;
#567 = VECTOR ( 'NONE', #233, 39.37007874015748143 ) ;
#568 = CARTESIAN_POINT ( 'NONE',  ( 5.904999999999997584, 6.969488188976370679, -0.08499999999999999223 ) ) ;
#569 = FILL_AREA_STYLE_COLOUR ( '', #298 ) ;
#570 = EDGE_CURVE ( 'NONE', #601, #266, #184, .T. ) ;
#571 = EDGE_CURVE ( 'NONE', #24, #333, #873, .T. ) ;
#572 = EDGE_LOOP ( 'NONE', ( #105, #859, #318, #895 ) ) ;
#573 = PLANE ( 'NONE',  #744 ) ;
#574 = DIRECTION ( 'NONE',  ( 1.000000000000000000, 1.092851064110060946E-16, -0.000000000000000000 ) ) ;
#575 = ORIENTED_EDGE ( 'NONE', *, *, #477, .T. ) ;
#576 = CARTESIAN_POINT ( 'NONE',  ( 5.136889763779529439, 7.044999999999999929, 0.08499999999999997835 ) ) ;
#577 = ORIENTED_EDGE ( 'NONE', *, *, #905, .F. ) ;
#578 = CARTESIAN_POINT ( 'NONE',  ( 3.500000000000001332, 5.500000000000000000, 0.2649999999999999578 ) ) ;
#579 = EDGE_CURVE ( 'NONE', #122, #190, #461, .T. ) ;
#580 = ADVANCED_FACE ( 'NONE', ( #235, #683 ), #527, .F. ) ;
#581 = ADVANCED_FACE ( 'NONE', ( #535 ), #94, .T. ) ;
#582 = VECTOR ( 'NONE', #849, 39.37007874015748143 ) ;
#583 = CARTESIAN_POINT ( 'NONE',  ( -3.499999999999998668, -5.500000000000000000, 0.2649999999999999578 ) ) ;
#584 = ORIENTED_EDGE ( 'NONE', *, *, #742, .T. ) ;
#585 = CARTESIAN_POINT ( 'NONE',  ( -5.136889763779524998, 7.044999999999999929, 0.2649999999999999578 ) ) ;
#586 = DIRECTION ( 'NONE',  ( -1.000000000000000000, 0.000000000000000000, 0.000000000000000000 ) ) ;
#587 = CARTESIAN_POINT ( 'NONE',  ( -5.254999999999997229, 7.044999999999999929, 0.2649999999999999578 ) ) ;
#588 = ORIENTED_EDGE ( 'NONE', *, *, #119, .F. ) ;
#589 =( CONVERSION_BASED_UNIT ( 'INCH', #249 ) LENGTH_UNIT ( ) NAMED_UNIT ( #725 ) );
#590 = FACE_OUTER_BOUND ( 'NONE', #434, .T. ) ;
#591 = DIRECTION ( 'NONE',  ( 0.000000000000000000, 0.000000000000000000, -1.000000000000000000 ) ) ;
#592 = VERTEX_POINT ( 'NONE', #887 ) ;
#593 = DIRECTION ( 'NONE',  ( -1.000000000000000000, 0.000000000000000000, -0.000000000000000000 ) ) ;
#594 = CARTESIAN_POINT ( 'NONE',  ( -2.999999999999998224, -5.000000000000000000, 0.2649999999999999578 ) ) ;
#595 = ORIENTED_EDGE ( 'NONE', *, *, #627, .F. ) ;
#596 = EDGE_CURVE ( 'NONE', #3, #212, #471, .T. ) ;
#597 = LINE ( 'NONE', #805, #231 ) ;
#598 = CIRCLE ( 'NONE', #717, 0.1181102362204725503 ) ;
#599 = CARTESIAN_POINT ( 'NONE',  ( -5.905000000000003801, 6.969488188976378673, 0.08499999999999999223 ) ) ;
#600 = AXIS2_PLACEMENT_3D ( 'NONE', #818, #178, #325 ) ;
#601 = VERTEX_POINT ( 'NONE', #523 ) ;
#602 = CARTESIAN_POINT ( 'NONE',  ( 0.000000000000000000, 0.000000000000000000, 0.000000000000000000 ) ) ;
#603 = CARTESIAN_POINT ( 'NONE',  ( 0.000000000000000000, 0.000000000000000000, 0.2649999999999999578 ) ) ;
#604 = LINE ( 'NONE', #34, #483 ) ;
#605 = ORIENTED_EDGE ( 'NONE', *, *, #180, .T. ) ;
#606 = LINE ( 'NONE', #174, #648 ) ;
#607 = EDGE_CURVE ( 'NONE', #551, #731, #597, .T. ) ;
#608 = EDGE_CURVE ( 'NONE', #93, #685, #246, .T. ) ;
#609 = PLANE ( 'NONE',  #513 ) ;
#610 = ORIENTED_EDGE ( 'NONE', *, *, #540, .T. ) ;
#611 = VECTOR ( 'NONE', #189, 39.37007874015748143 ) ;
#612 = LINE ( 'NONE', #393, #155 ) ;
#613 = CARTESIAN_POINT ( 'NONE',  ( 4.999488188976386027, 7.875000000000000888, -0.08499999999999999223 ) ) ;
#614 = STYLED_ITEM ( 'NONE', ( #377 ), #214 ) ;
#615 = ORIENTED_EDGE ( 'NONE', *, *, #84, .T. ) ;
#616 = VECTOR ( 'NONE', #20, 39.37007874015748143 ) ;
#617 = ORIENTED_EDGE ( 'NONE', *, *, #899, .F. ) ;
#618 = CARTESIAN_POINT ( 'NONE',  ( -4.999488188976386027, 7.875000000000000888, -0.08499999999999999223 ) ) ;
#619 = CYLINDRICAL_SURFACE ( 'NONE', #643, 0.1181102362204725503 ) ;
#620 = VERTEX_POINT ( 'NONE', #256 ) ;
#621 = CARTESIAN_POINT ( 'NONE',  ( -2.999999999999998224, -5.000000000000000000, 0.08499999999999999223 ) ) ;
#622 = FACE_OUTER_BOUND ( 'NONE', #237, .T. ) ;
#623 = STYLED_ITEM ( 'NONE', ( #509 ), #44 ) ;
#624 = EDGE_LOOP ( 'NONE', ( #661, #268, #851, #825 ) ) ;
#625 = VERTEX_POINT ( 'NONE', #879 ) ;
#626 = DIRECTION ( 'NONE',  ( -1.000000000000000000, 0.000000000000000000, -0.000000000000000000 ) ) ;
#627 = EDGE_CURVE ( 'NONE', #829, #550, #823, .T. ) ;
#628 = VECTOR ( 'NONE', #264, 39.37007874015748143 ) ;
#629 = DIRECTION ( 'NONE',  ( -1.000000000000000000, 0.000000000000000000, 0.000000000000000000 ) ) ;
#630 = CARTESIAN_POINT ( 'NONE',  ( -3.499999999999998668, 5.500000000000000000, 0.2649999999999999578 ) ) ;
#631 = CIRCLE ( 'NONE', #555, 0.1181102362204725503 ) ;
#632 = CARTESIAN_POINT ( 'NONE',  ( 4.999488188976380698, -7.874999999999998224, 0.08499999999999999223 ) ) ;
#633 = VECTOR ( 'NONE', #398, 39.37007874015748143 ) ;
#634 = CARTESIAN_POINT ( 'NONE',  ( 5.255000000000001670, 7.044999999999999929, -0.08499999999999999223 ) ) ;
#635 = LINE ( 'NONE', #1, #507 ) ;
#636 = VERTEX_POINT ( 'NONE', #752 ) ;
#637 = CARTESIAN_POINT ( 'NONE',  ( 0.000000000000000000, -5.000000000000000000, 0.08499999999999999223 ) ) ;
#638 = EDGE_CURVE ( 'NONE', #685, #93, #443, .T. ) ;
#639 = DIRECTION ( 'NONE',  ( 0.7071067811865431318, -0.7071067811865516806, -0.000000000000000000 ) ) ;
#640 = EDGE_CURVE ( 'NONE', #898, #601, #245, .T. ) ;
#641 = ORIENTED_EDGE ( 'NONE', *, *, #802, .T. ) ;
#642 = LINE ( 'NONE', #224, #134 ) ;
#643 = AXIS2_PLACEMENT_3D ( 'NONE', #185, #181, #323 ) ;
#644 = EDGE_CURVE ( 'NONE', #898, #670, #612, .T. ) ;
#645 = DIRECTION ( 'NONE',  ( -1.000000000000000000, 0.000000000000000000, 0.000000000000000000 ) ) ;
#646 = ORIENTED_EDGE ( 'NONE', *, *, #98, .F. ) ;
#647 =( LENGTH_UNIT ( ) NAMED_UNIT ( * ) SI_UNIT ( $, .METRE. ) );
#648 = VECTOR ( 'NONE', #22, 39.37007874015748143 ) ;
#649 = ORIENTED_EDGE ( 'NONE', *, *, #608, .T. ) ;
#650 = CARTESIAN_POINT ( 'NONE',  ( -3.499999999999998668, -5.500000000000000000, 0.2649999999999999578 ) ) ;
#651 = PLANE ( 'NONE',  #442 ) ;
#652 = ORIENTED_EDGE ( 'NONE', *, *, #761, .F. ) ;
#653 = LINE ( 'NONE', #10, #788 ) ;
#654 = DIRECTION ( 'NONE',  ( -1.000000000000000000, 0.000000000000000000, 0.000000000000000000 ) ) ;
#655 = VECTOR ( 'NONE', #482, 39.37007874015748854 ) ;
#656 = DIRECTION ( 'NONE',  ( -0.7071067811865517916, -0.7071067811865432429, 0.000000000000000000 ) ) ;
#657 = ORIENTED_EDGE ( 'NONE', *, *, #145, .F. ) ;
#658 = DIRECTION ( 'NONE',  ( -0.7071067811865459074, -0.7071067811865491270, 0.000000000000000000 ) ) ;
#659 = MECHANICAL_DESIGN_GEOMETRIC_PRESENTATION_REPRESENTATION (  '', ( #614 ), #910 ) ;
#660 = CARTESIAN_POINT ( 'NONE',  ( -4.999488188976394021, -7.874999999999999112, -0.08499999999999999223 ) ) ;
#661 = ORIENTED_EDGE ( 'NONE', *, *, #735, .T. ) ;
#662 = FACE_OUTER_BOUND ( 'NONE', #834, .T. ) ;
#663 = ADVANCED_FACE ( 'NONE', ( #50 ), #356, .T. ) ;
#664 = CARTESIAN_POINT ( 'NONE',  ( 3.500000000000001332, -5.500000000000000000, 0.08499999999999997835 ) ) ;
#665 = ADVANCED_FACE ( 'NONE', ( #334 ), #691, .T. ) ;
#666 = ORIENTED_EDGE ( 'NONE', *, *, #679, .F. ) ;
#667 = DIRECTION ( 'NONE',  ( -0.000000000000000000, -0.000000000000000000, -1.000000000000000000 ) ) ;
#668 =( GEOMETRIC_REPRESENTATION_CONTEXT ( 3 ) GLOBAL_UNCERTAINTY_ASSIGNED_CONTEXT ( ( #5 ) ) GLOBAL_UNIT_ASSIGNED_CONTEXT ( ( #358, #222, #354 ) ) REPRESENTATION_CONTEXT ( 'NONE', 'WORKASPACE' ) );
#669 = CYLINDRICAL_SURFACE ( 'NONE', #874, 0.1181102362204725503 ) ;
#670 = VERTEX_POINT ( 'NONE', #552 ) ;
#671 = DIRECTION ( 'NONE',  ( 1.000000000000000000, 0.000000000000000000, 0.000000000000000000 ) ) ;
#672 = PLANE ( 'NONE',  #368 ) ;
#673 = AXIS2_PLACEMENT_3D ( 'NONE', #446, #702, #160 ) ;
#674 = DIRECTION ( 'NONE',  ( -0.000000000000000000, -1.000000000000000000, -0.000000000000000000 ) ) ;
#675 = AXIS2_PLACEMENT_3D ( 'NONE', #916, #282, #218 ) ;
#676 = VERTEX_POINT ( 'NONE', #201 ) ;
#677 = EDGE_CURVE ( 'NONE', #117, #481, #900, .T. ) ;
#678 = LINE ( 'NONE', #385, #719 ) ;
#679 = EDGE_CURVE ( 'NONE', #786, #592, #136, .T. ) ;
#680 = DIRECTION ( 'NONE',  ( 0.000000000000000000, 0.000000000000000000, -1.000000000000000000 ) ) ;
#681 = ORIENTED_EDGE ( 'NONE', *, *, #278, .F. ) ;
#682 = VERTEX_POINT ( 'NONE', #700 ) ;
#683 = FACE_OUTER_BOUND ( 'NONE', #78, .T. ) ;
#684 = DIRECTION ( 'NONE',  ( 0.000000000000000000, 0.000000000000000000, -1.000000000000000000 ) ) ;
#685 = VERTEX_POINT ( 'NONE', #63 ) ;
#686 = VECTOR ( 'NONE', #410, 39.37007874015748143 ) ;
#687 = DIRECTION ( 'NONE',  ( 0.000000000000000000, 0.000000000000000000, 1.000000000000000000 ) ) ;
#688 = FACE_OUTER_BOUND ( 'NONE', #287, .T. ) ;
#689 = ORIENTED_EDGE ( 'NONE', *, *, #111, .F. ) ;
#690 = ORIENTED_EDGE ( 'NONE', *, *, #82, .F. ) ;
#691 = PLANE ( 'NONE',  #399 ) ;
#692 = CARTESIAN_POINT ( 'NONE',  ( 5.255000000000001670, -7.044999999999999929, -0.08499999999999999223 ) ) ;
#693 = EDGE_CURVE ( 'NONE', #904, #712, #261, .T. ) ;
#694 = ORIENTED_EDGE ( 'NONE', *, *, #679, .T. ) ;
#695 = ORIENTED_EDGE ( 'NONE', *, *, #644, .T. ) ;
#696 = CARTESIAN_POINT ( 'NONE',  ( 5.136889763779529439, 7.044999999999999929, 0.2649999999999999578 ) ) ;
#697 = CARTESIAN_POINT ( 'NONE',  ( -2.999999999999998224, 5.000000000000000000, 0.2649999999999999578 ) ) ;
#698 = ORIENTED_EDGE ( 'NONE', *, *, #627, .T. ) ;
#699 = ORIENTED_EDGE ( 'NONE', *, *, #919, .T. ) ;
#700 = CARTESIAN_POINT ( 'NONE',  ( -3.499999999999998668, 5.500000000000000000, 0.08499999999999997835 ) ) ;
#701 = VECTOR ( 'NONE', #864, 39.37007874015748143 ) ;
#702 = DIRECTION ( 'NONE',  ( 0.000000000000000000, 0.000000000000000000, -1.000000000000000000 ) ) ;
#703 = SURFACE_STYLE_USAGE ( .BOTH. , #203 ) ;
#704 = ORIENTED_EDGE ( 'NONE', *, *, #211, .T. ) ;
#705 = ADVANCED_FACE ( 'NONE', ( #826 ), #340, .F. ) ;
#706 = FACE_BOUND ( 'NONE', #243, .T. ) ;
#707 = ADVANCED_FACE ( 'NONE', ( #891, #840, #706, #406, #906, #196 ), #770, .F. ) ;
#708 = LINE ( 'NONE', #303, #77 ) ;
#709 = VERTEX_POINT ( 'NONE', #349 ) ;
#710 = FACE_OUTER_BOUND ( 'NONE', #158, .T. ) ;
#711 = FACE_OUTER_BOUND ( 'NONE', #565, .T. ) ;
#712 = VERTEX_POINT ( 'NONE', #413 ) ;
#713 = DIRECTION ( 'NONE',  ( -0.000000000000000000, -0.000000000000000000, -1.000000000000000000 ) ) ;
#714 = LINE ( 'NONE', #68, #343 ) ;
#715 = VERTEX_POINT ( 'NONE', #632 ) ;
#716 = DIRECTION ( 'NONE',  ( -1.000000000000000000, 0.000000000000000000, 0.000000000000000000 ) ) ;
#717 = AXIS2_PLACEMENT_3D ( 'NONE', #202, #723, #586 ) ;
#718 = CIRCLE ( 'NONE', #675, 0.1181102362204725503 ) ;
#719 = VECTOR ( 'NONE', #37, 39.37007874015748143 ) ;
#720 = CARTESIAN_POINT ( 'NONE',  ( 0.000000000000000000, 0.000000000000000000, -0.08499999999999999223 ) ) ;
#721 = ORIENTED_EDGE ( 'NONE', *, *, #14, .T. ) ;
#722 = LINE ( 'NONE', #159, #777 ) ;
#723 = DIRECTION ( 'NONE',  ( 0.000000000000000000, 0.000000000000000000, -1.000000000000000000 ) ) ;
#724 = CARTESIAN_POINT ( 'NONE',  ( 5.904999999999997584, 6.969488188976370679, 0.08499999999999999223 ) ) ;
#725 = DIMENSIONAL_EXPONENTS ( 1.000000000000000000, 0.000000000000000000, 0.000000000000000000, 0.000000000000000000, 0.000000000000000000, 0.000000000000000000, 0.000000000000000000 ) ;
#726 = ORIENTED_EDGE ( 'NONE', *, *, #596, .F. ) ;
#727 = DIRECTION ( 'NONE',  ( 0.000000000000000000, -1.000000000000000000, -0.000000000000000000 ) ) ;
#728 = PLANE ( 'NONE',  #199 ) ;
#729 = CIRCLE ( 'NONE', #806, 0.1181102362204725503 ) ;
#730 = DIRECTION ( 'NONE',  ( -1.000000000000000000, 0.000000000000000000, 0.000000000000000000 ) ) ;
#731 = VERTEX_POINT ( 'NONE', #54 ) ;
#732 = SURFACE_SIDE_STYLE ('',( #255 ) ) ;
#733 = DIRECTION ( 'NONE',  ( -1.000000000000000000, 0.000000000000000000, 0.000000000000000000 ) ) ;
#734 = ADVANCED_FACE ( 'NONE', ( #66 ), #914, .T. ) ;
#735 = EDGE_CURVE ( 'NONE', #601, #625, #478, .T. ) ;
#736 = DIRECTION ( 'NONE',  ( 0.000000000000000000, 0.000000000000000000, 1.000000000000000000 ) ) ;
#737 = ORIENTED_EDGE ( 'NONE', *, *, #894, .F. ) ;
#738 = DIRECTION ( 'NONE',  ( 0.000000000000000000, -1.000000000000000000, 0.000000000000000000 ) ) ;
#739 = FACE_OUTER_BOUND ( 'NONE', #561, .T. ) ;
#740 = VERTEX_POINT ( 'NONE', #417 ) ;
#741 = DIRECTION ( 'NONE',  ( -0.000000000000000000, 0.000000000000000000, -1.000000000000000000 ) ) ;
#742 = EDGE_CURVE ( 'NONE', #769, #715, #760, .T. ) ;
#743 = CARTESIAN_POINT ( 'NONE',  ( 5.373110236220473901, -7.044999999999999929, 0.2649999999999999578 ) ) ;
#744 = AXIS2_PLACEMENT_3D ( 'NONE', #578, #792, #220 ) ;
#745 = EDGE_CURVE ( 'NONE', #625, #204, #776, .T. ) ;
#746 = ORIENTED_EDGE ( 'NONE', *, *, #337, .T. ) ;
#747 = DIRECTION ( 'NONE',  ( -0.000000000000000000, -0.000000000000000000, -1.000000000000000000 ) ) ;
#748 = VECTOR ( 'NONE', #753, 39.37007874015748143 ) ;
#749 = CARTESIAN_POINT ( 'NONE',  ( 5.904999999999997584, 6.969488188976370679, -0.08499999999999999223 ) ) ;
#750 = EDGE_LOOP ( 'NONE', ( #415, #162, #468, #183 ) ) ;
#751 = APPLICATION_PROTOCOL_DEFINITION ( 'draft international standard', 'automotive_design', 1998, #893 ) ;
#752 = CARTESIAN_POINT ( 'NONE',  ( -5.136889763779524998, 7.044999999999999929, 0.08499999999999997835 ) ) ;
#753 = DIRECTION ( 'NONE',  ( 0.7071067811865462405, 0.7071067811865487940, -0.000000000000000000 ) ) ;
#754 = ORIENTED_EDGE ( 'NONE', *, *, #843, .F. ) ;
#755 = ORIENTED_EDGE ( 'NONE', *, *, #211, .F. ) ;
#756 = CARTESIAN_POINT ( 'NONE',  ( -3.499999999999998668, 5.500000000000000000, 0.2649999999999999578 ) ) ;
#757 = CARTESIAN_POINT ( 'NONE',  ( 5.255000000000001670, -7.044999999999999929, -0.08499999999999999223 ) ) ;
#758 = EDGE_LOOP ( 'NONE', ( #126, #505 ) ) ;
#759 = AXIS2_PLACEMENT_3D ( 'NONE', #165, #15, #161 ) ;
#760 = LINE ( 'NONE', #205, #61 ) ;
#761 = EDGE_CURVE ( 'NONE', #676, #670, #830, .T. ) ;
#762 = AXIS2_PLACEMENT_3D ( 'NONE', #865, #520, #59 ) ;
#763 = CARTESIAN_POINT ( 'NONE',  ( -2.999999999999998224, 0.000000000000000000, 0.08499999999999999223 ) ) ;
#764 = ORIENTED_EDGE ( 'NONE', *, *, #281, .T. ) ;
#765 = AXIS2_PLACEMENT_3D ( 'NONE', #603, #741, #102 ) ;
#766 = VERTEX_POINT ( 'NONE', #621 ) ;
#767 = CARTESIAN_POINT ( 'NONE',  ( 4.999488188976380698, -7.874999999999998224, -0.08499999999999999223 ) ) ;
#768 = DIRECTION ( 'NONE',  ( 1.000000000000000000, -0.000000000000000000, 0.000000000000000000 ) ) ;
#769 = VERTEX_POINT ( 'NONE', #767 ) ;
#770 = PLANE ( 'NONE',  #903 ) ;
#771 = CYLINDRICAL_SURFACE ( 'NONE', #559, 0.1181102362204725503 ) ;
#772 = ADVANCED_FACE ( 'NONE', ( #269 ), #58, .F. ) ;
#773 = ORIENTED_EDGE ( 'NONE', *, *, #182, .F. ) ;
#774 = EDGE_CURVE ( 'NONE', #636, #314, #861, .T. ) ;
#775 = ORIENTED_EDGE ( 'NONE', *, *, #866, .F. ) ;
#776 = LINE ( 'NONE', #896, #103 ) ;
#777 = VECTOR ( 'NONE', #85, 39.37007874015748143 ) ;
#778 = CARTESIAN_POINT ( 'NONE',  ( 3.500000000000001332, 5.500000000000000000, 0.08499999999999999223 ) ) ;
#779 = SURFACE_STYLE_FILL_AREA ( #498 ) ;
#780 = VERTEX_POINT ( 'NONE', #650 ) ;
#781 = CYLINDRICAL_SURFACE ( 'NONE', #146, 0.1181102362204725503 ) ;
#782 = UNCERTAINTY_MEASURE_WITH_UNIT (LENGTH_MEASURE( 1.000000000000000082E-05 ), #589, 'distance_accuracy_value', 'NONE');
#783 = ORIENTED_EDGE ( 'NONE', *, *, #19, .F. ) ;
#784 = DIRECTION ( 'NONE',  ( 0.000000000000000000, 0.000000000000000000, -1.000000000000000000 ) ) ;
#785 = CLOSED_SHELL ( 'NONE', ( #45, #244, #514, #207, #734, #479, #581, #307, #350, #86, #448, #151, #43, #707, #665, #504, #789, #663, #532, #804, #239, #408, #580, #841, #772, #348, #489, #705 ) ) ;
#786 = VERTEX_POINT ( 'NONE', #370 ) ;
#787 = LINE ( 'NONE', #144, #257 ) ;
#788 = VECTOR ( 'NONE', #90, 39.37007874015748143 ) ;
#789 = ADVANCED_FACE ( 'NONE', ( #566 ), #573, .T. ) ;
#790 = CARTESIAN_POINT ( 'NONE',  ( 5.373110236220473901, -7.044999999999999929, -0.08499999999999999223 ) ) ;
#791 = ORIENTED_EDGE ( 'NONE', *, *, #171, .T. ) ;
#792 = DIRECTION ( 'NONE',  ( 1.000000000000000000, 0.000000000000000000, 0.000000000000000000 ) ) ;
#793 = AXIS2_PLACEMENT_3D ( 'NONE', #845, #206, #12 ) ;
#794 = CARTESIAN_POINT ( 'NONE',  ( 5.255000000000001670, -7.044999999999999929, 0.2649999999999999578 ) ) ;
#795 = VECTOR ( 'NONE', #862, 39.37007874015748143 ) ;
#796 = AXIS2_PLACEMENT_3D ( 'NONE', #127, #123, #544 ) ;
#797 = CARTESIAN_POINT ( 'NONE',  ( 3.000000000000001776, 5.000000000000000000, 0.2649999999999999578 ) ) ;
#798 = ORIENTED_EDGE ( 'NONE', *, *, #72, .F. ) ;
#799 = CARTESIAN_POINT ( 'NONE',  ( 3.000000000000001776, -5.000000000000000000, 0.2649999999999999578 ) ) ;
#800 = FACE_OUTER_BOUND ( 'NONE', #405, .T. ) ;
#801 = LINE ( 'NONE', #313, #837 ) ;
#802 = EDGE_CURVE ( 'NONE', #481, #682, #787, .T. ) ;
#803 = ORIENTED_EDGE ( 'NONE', *, *, #919, .F. ) ;
#804 = ADVANCED_FACE ( 'NONE', ( #710 ), #445, .F. ) ;
#805 = CARTESIAN_POINT ( 'NONE',  ( 3.500000000000001332, 5.500000000000000000, 0.2649999999999999578 ) ) ;
#806 = AXIS2_PLACEMENT_3D ( 'NONE', #265, #684, #484 ) ;
#807 = CARTESIAN_POINT ( 'NONE',  ( 3.000000000000001776, -5.000000000000000000, 0.2649999999999999578 ) ) ;
#808 = ORIENTED_EDGE ( 'NONE', *, *, #905, .T. ) ;
#809 = PRODUCT_DEFINITION ( 'General', '', #556, #74 ) ;
#810 = LINE ( 'NONE', #170, #275 ) ;
#811 = AXIS2_PLACEMENT_3D ( 'NONE', #660, #656, #871 ) ;
#812 = LINE ( 'NONE', #815, #32 ) ;
#813 = VERTEX_POINT ( 'NONE', #7 ) ;
#814 = CARTESIAN_POINT ( 'NONE',  ( -2.999999999999998224, 5.000000000000000000, 0.2649999999999999578 ) ) ;
#815 = CARTESIAN_POINT ( 'NONE',  ( 5.904999999999998472, -6.969488188976377785, 0.08499999999999999223 ) ) ;
#816 = EDGE_LOOP ( 'NONE', ( #617, #798, #610, #846 ) ) ;
#817 =( LENGTH_UNIT ( ) NAMED_UNIT ( * ) SI_UNIT ( $, .METRE. ) );
#818 = CARTESIAN_POINT ( 'NONE',  ( -4.999488188976386027, 7.875000000000000888, -0.08499999999999999223 ) ) ;
#819 = VECTOR ( 'NONE', #133, 39.37007874015748143 ) ;
#820 = DIRECTION ( 'NONE',  ( -1.000000000000000000, 0.000000000000000000, 0.000000000000000000 ) ) ;
#821 = AXIS2_PLACEMENT_3D ( 'NONE', #487, #562, #844 ) ;
#822 = ORIENTED_EDGE ( 'NONE', *, *, #421, .F. ) ;
#823 = LINE ( 'NONE', #315, #321 ) ;
#824 = CARTESIAN_POINT ( 'NONE',  ( 3.000000000000001776, 5.000000000000000000, 0.2649999999999999578 ) ) ;
#825 = ORIENTED_EDGE ( 'NONE', *, *, #640, .T. ) ;
#826 = FACE_OUTER_BOUND ( 'NONE', #263, .T. ) ;
#827 = LINE ( 'NONE', #400, #208 ) ;
#828 = ORIENTED_EDGE ( 'NONE', *, *, #745, .T. ) ;
#829 = VERTEX_POINT ( 'NONE', #373 ) ;
#830 = LINE ( 'NONE', #192, #655 ) ;
#831 = EDGE_CURVE ( 'NONE', #518, #93, #923, .T. ) ;
#832 = CARTESIAN_POINT ( 'NONE',  ( 3.000000000000001776, -5.000000000000000000, 0.08499999999999999223 ) ) ;
#833 = ORIENTED_EDGE ( 'NONE', *, *, #278, .T. ) ;
#834 = EDGE_LOOP ( 'NONE', ( #254, #554, #657, #195 ) ) ;
#835 = DIRECTION ( 'NONE',  ( 0.7071067811865431318, -0.7071067811865516806, -0.000000000000000000 ) ) ;
#836 = CARTESIAN_POINT ( 'NONE',  ( 5.255000000000001670, 7.044999999999999929, 0.2649999999999999578 ) ) ;
#837 = VECTOR ( 'NONE', #736, 39.37007874015748143 ) ;
#838 = EDGE_LOOP ( 'NONE', ( #338, #755, #463, #49 ) ) ;
#839 = VECTOR ( 'NONE', #531, 39.37007874015748143 ) ;
#840 = FACE_BOUND ( 'NONE', #89, .T. ) ;
#841 = ADVANCED_FACE ( 'NONE', ( #360 ), #435, .F. ) ;
#842 = DIRECTION ( 'NONE',  ( -0.000000000000000000, -0.000000000000000000, -1.000000000000000000 ) ) ;
#843 = EDGE_CURVE ( 'NONE', #682, #427, #149, .T. ) ;
#844 = DIRECTION ( 'NONE',  ( 0.000000000000000000, 0.000000000000000000, 1.000000000000000000 ) ) ;
#845 = CARTESIAN_POINT ( 'NONE',  ( 3.000000000000001776, 5.000000000000000000, 0.2649999999999999578 ) ) ;
#846 = ORIENTED_EDGE ( 'NONE', *, *, #379, .T. ) ;
#847 = ORIENTED_EDGE ( 'NONE', *, *, #379, .F. ) ;
#848 = AXIS2_PLACEMENT_3D ( 'NONE', #692, #553, #38 ) ;
#849 = DIRECTION ( 'NONE',  ( -0.000000000000000000, -0.000000000000000000, -1.000000000000000000 ) ) ;
#850 = DIRECTION ( 'NONE',  ( -1.000000000000000000, 0.000000000000000000, 0.000000000000000000 ) ) ;
#851 = ORIENTED_EDGE ( 'NONE', *, *, #644, .F. ) ;
#852 = EDGE_LOOP ( 'NONE', ( #416, #917, #575, #148 ) ) ;
#853 = DIRECTION ( 'NONE',  ( 0.000000000000000000, 0.000000000000000000, -1.000000000000000000 ) ) ;
#854 = AXIS2_PLACEMENT_3D ( 'NONE', #881, #299, #227 ) ;
#855 = DIRECTION ( 'NONE',  ( -0.000000000000000000, -0.000000000000000000, -1.000000000000000000 ) ) ;
#856 = EDGE_LOOP ( 'NONE', ( #305, #690 ) ) ;
#857 = CARTESIAN_POINT ( 'NONE',  ( -5.136889763779524998, -7.044999999999999929, 0.2649999999999999578 ) ) ;
#858 = AXIS2_PLACEMENT_3D ( 'NONE', #720, #784, #501 ) ;
#859 = ORIENTED_EDGE ( 'NONE', *, *, #84, .F. ) ;
#860 = DIRECTION ( 'NONE',  ( -1.000000000000000000, 0.000000000000000000, -0.000000000000000000 ) ) ;
#861 = CIRCLE ( 'NONE', #13, 0.1181102362204725503 ) ;
#862 = DIRECTION ( 'NONE',  ( 0.000000000000000000, 0.000000000000000000, -1.000000000000000000 ) ) ;
#863 = ORIENTED_EDGE ( 'NONE', *, *, #866, .T. ) ;
#864 = DIRECTION ( 'NONE',  ( 0.000000000000000000, 0.000000000000000000, 1.000000000000000000 ) ) ;
#865 = CARTESIAN_POINT ( 'NONE',  ( 4.999488188976380698, -7.874999999999998224, -0.08499999999999999223 ) ) ;
#866 = EDGE_CURVE ( 'NONE', #455, #898, #642, .T. ) ;
#867 = FACE_OUTER_BOUND ( 'NONE', #750, .T. ) ;
#868 = EDGE_CURVE ( 'NONE', #190, #438, #722, .T. ) ;
#869 = ORIENTED_EDGE ( 'NONE', *, *, #570, .F. ) ;
#870 = CARTESIAN_POINT ( 'NONE',  ( 0.000000000000000000, 5.000000000000000000, 0.08499999999999999223 ) ) ;
#871 = DIRECTION ( 'NONE',  ( 0.7071067811865431318, -0.7071067811865516806, 0.000000000000000000 ) ) ;
#872 = ORIENTED_EDGE ( 'NONE', *, *, #677, .F. ) ;
#873 = LINE ( 'NONE', #320, #33 ) ;
#874 = AXIS2_PLACEMENT_3D ( 'NONE', #587, #26, #316 ) ;
#875 = CARTESIAN_POINT ( 'NONE',  ( 3.500000000000001332, -5.500000000000000000, 0.2649999999999999578 ) ) ;
#876 = EDGE_LOOP ( 'NONE', ( #833, #791 ) ) ;
#877 =( NAMED_UNIT ( * ) SI_UNIT ( $, .STERADIAN. ) SOLID_ANGLE_UNIT ( ) );
#878 = CIRCLE ( 'NONE', #673, 0.1181102362204725503 ) ;
#879 = CARTESIAN_POINT ( 'NONE',  ( -4.999488188976386027, 7.875000000000000888, 0.08499999999999999223 ) ) ;
#880 = AXIS2_PLACEMENT_3D ( 'NONE', #97, #42, #388 ) ;
#881 = CARTESIAN_POINT ( 'NONE',  ( 5.255000000000001670, -7.044999999999999929, 0.08499999999999997835 ) ) ;
#882 = VERTEX_POINT ( 'NONE', #294 ) ;
#883 =( NAMED_UNIT ( * ) PLANE_ANGLE_UNIT ( ) SI_UNIT ( $, .RADIAN. ) );
#884 = CARTESIAN_POINT ( 'NONE',  ( 5.373110236220473901, 7.044999999999999929, -0.08499999999999999223 ) ) ;
#885 = DIRECTION ( 'NONE',  ( -0.000000000000000000, -0.000000000000000000, -1.000000000000000000 ) ) ;
#886 = ORIENTED_EDGE ( 'NONE', *, *, #640, .F. ) ;
#887 = CARTESIAN_POINT ( 'NONE',  ( -4.999488188976394021, -7.874999999999999112, 0.08499999999999999223 ) ) ;
#888 = DIRECTION ( 'NONE',  ( 0.000000000000000000, 0.000000000000000000, -1.000000000000000000 ) ) ;
#889 = ORIENTED_EDGE ( 'NONE', *, *, #171, .F. ) ;
#890 = ORIENTED_EDGE ( 'NONE', *, *, #182, .T. ) ;
#891 = FACE_BOUND ( 'NONE', #876, .T. ) ;
#892 = LINE ( 'NONE', #394, #908 ) ;
#893 = APPLICATION_CONTEXT ( 'automotive_design' ) ;
#894 = EDGE_CURVE ( 'NONE', #190, #766, #653, .T. ) ;
#895 = ORIENTED_EDGE ( 'NONE', *, *, #2, .T. ) ;
#896 = CARTESIAN_POINT ( 'NONE',  ( -5.905000000000003801, 6.969488188976378673, 0.08499999999999999223 ) ) ;
#897 = DIRECTION ( 'NONE',  ( 0.7071067811865547892, 0.7071067811865403563, -0.000000000000000000 ) ) ;
#898 = VERTEX_POINT ( 'NONE', #506 ) ;
#899 = EDGE_CURVE ( 'NONE', #636, #620, #289, .T. ) ;
#900 = LINE ( 'NONE', #428, #516 ) ;
#901 = CYLINDRICAL_SURFACE ( 'NONE', #366, 0.1181102362204725503 ) ;
#902 = ORIENTED_EDGE ( 'NONE', *, *, #72, .T. ) ;
#903 = AXIS2_PLACEMENT_3D ( 'NONE', #272, #131, #188 ) ;
#904 = VERTEX_POINT ( 'NONE', #576 ) ;
#905 = EDGE_CURVE ( 'NONE', #455, #676, #284, .T. ) ;
#906 = FACE_BOUND ( 'NONE', #420, .T. ) ;
#907 = EDGE_CURVE ( 'NONE', #427, #117, #432, .T. ) ;
#908 = VECTOR ( 'NONE', #674, 39.37007874015748143 ) ;
#909 = CARTESIAN_POINT ( 'NONE',  ( -5.373110236220470348, -7.044999999999999929, 0.2649999999999999578 ) ) ;
#910 =( GEOMETRIC_REPRESENTATION_CONTEXT ( 3 ) GLOBAL_UNCERTAINTY_ASSIGNED_CONTEXT ( ( #292 ) ) GLOBAL_UNIT_ASSIGNED_CONTEXT ( ( #469, #460, #391 ) ) REPRESENTATION_CONTEXT ( 'NONE', 'WORKASPACE' ) );
#911 = DIRECTION ( 'NONE',  ( -7.839450816446527355E-17, 1.000000000000000000, -0.000000000000000000 ) ) ;
#912 = AXIS2_PLACEMENT_3D ( 'NONE', #794, #87, #654 ) ;
#913 = PRODUCT_DEFINITION_SHAPE ( 'NONE', 'NONE',  #809 ) ;
#914 = PLANE ( 'NONE',  #821 ) ;
#915 = FACE_OUTER_BOUND ( 'NONE', #364, .T. ) ;
#916 = CARTESIAN_POINT ( 'NONE',  ( -5.254999999999997229, 7.044999999999999929, 0.08499999999999997835 ) ) ;
#917 = ORIENTED_EDGE ( 'NONE', *, *, #899, .T. ) ;
#918 = DIRECTION ( 'NONE',  ( -1.000000000000000000, 0.000000000000000000, 0.000000000000000000 ) ) ;
#919 = EDGE_CURVE ( 'NONE', #333, #766, #503, .T. ) ;
#920 = CARTESIAN_POINT ( 'NONE',  ( -4.999488188976386027, 7.875000000000000888, 0.08499999999999999223 ) ) ;
#921 = EDGE_LOOP ( 'NONE', ( #902, #543 ) ) ;
#922 = AXIS2_PLACEMENT_3D ( 'NONE', #458, #462, #730 ) ;
#923 = LINE ( 'NONE', #857, #582 ) ;
ENDSEC;
END-ISO-10303-21;
