ISO-10303-21;
HEADER;
FILE_DESCRIPTION (( 'STEP AP214' ),
    '1' );
FILE_NAME ('case.STEP',
    '2026-09-04T22:08:39',
    ( '' ),
    ( '' ),
    'SwSTEP 2.0',
    'SolidWorks 2026',
    '' );
FILE_SCHEMA (( 'AUTOMOTIVE_DESIGN' ));
ENDSEC;

DATA;
#1 = ITEM_DEFINED_TRANSFORMATION ( 'NONE', 'NONE', #102,  #20 ) ;
#2 = PRODUCT_RELATED_PRODUCT_CATEGORY ( 'part', '', ( #378 ) ) ;
#3 = APPLICATION_PROTOCOL_DEFINITION ( 'draft international standard', 'automotive_design', 1998, #418 ) ;
#4 = DOCUMENT_TYPE ( 'geometry' ) ;
#5 = CARTESIAN_POINT ( 'NONE',  ( 0.000000000000000000, 0.000000000000000000, 0.000000000000000000 ) ) ;
#6 = PROPERTY_DEFINITION ('document property','', #355 ) ;
#7 = PROPERTY_DEFINITION_REPRESENTATION ( #274, #10 ) ;
#8 = CARTESIAN_POINT ( 'NONE',  ( 0.000000000000000000, 0.000000000000000000, 0.000000000000000000 ) ) ;
#9 = ROLE_ASSOCIATION ( #204, #291 ) ;
#10 = SHAPE_REPRESENTATION ( 'plate_corner_holder', ( #92 ), #556 ) ;
#11 = EXTERNAL_SOURCE (IDENTIFIER('') ) ;
#12 = DOCUMENT_FILE ( '92000A318_Passivated 18-8 Stainless Steel Pan Head Phillips Screws_92000A318.STEP' , '', '', #572, '' ,$ ) ;
#13 =( LENGTH_UNIT ( ) NAMED_UNIT ( * ) SI_UNIT ( .MILLI., .METRE. ) );
#14 = PRODUCT_DEFINITION_SHAPE ( 'NONE', 'NONE',  #612 ) ;
#15 = PROPERTY_DEFINITION_REPRESENTATION ( #333, #466 ) ;
#16 = CARTESIAN_POINT ( 'NONE',  ( 0.000000000000000000, 0.000000000000000000, 0.000000000000000000 ) ) ;
#17 = DOCUMENT_FILE ( 'base_bottom_insert_simplified.STEP' , '', '', #303, '' ,$ ) ;
#18 = APPLIED_EXTERNAL_IDENTIFICATION_ASSIGNMENT ( '92000A318_Passivated 18-8 Stainless Steel Pan Head Phillips Screws_92000A318.STEP' , #346, #236,( #12) ) ;
#19 = UNCERTAINTY_MEASURE_WITH_UNIT (LENGTH_MEASURE( 1.000000000000000082E-05 ), #442, 'distance_accuracy_value', 'NONE');
#20 = AXIS2_PLACEMENT_3D ( 'NONE', #331, #108, #288 ) ;
#21 = CONTEXT_DEPENDENT_SHAPE_REPRESENTATION ( #540, #429 ) ;
#22 =( REPRESENTATION_RELATIONSHIP ('NONE','NONE', #171, #76 ) REPRESENTATION_RELATIONSHIP_WITH_TRANSFORMATION ( #570 )SHAPE_REPRESENTATION_RELATIONSHIP( ) );
#23 = CARTESIAN_POINT ( 'NONE',  ( -35.12878369419249225, 133.1131975050496408, -27.08456814004024693 ) ) ;
#24 = PRODUCT_DEFINITION_FORMATION_WITH_SPECIFIED_SOURCE ( 'Symmetric', '', #300, .NOT_KNOWN. ) ;
#25 = CARTESIAN_POINT ( 'NONE',  ( 202.6641694391714736, -58.21497645321543501, -136.5495908280240087 ) ) ;
#26 =( GEOMETRIC_REPRESENTATION_CONTEXT ( 3 ) GLOBAL_UNCERTAINTY_ASSIGNED_CONTEXT ( ( #19 ) ) GLOBAL_UNIT_ASSIGNED_CONTEXT ( ( #442, #433, #589 ) ) REPRESENTATION_CONTEXT ( 'NONE', 'WORKASPACE' ) );
#27 = PROPERTY_DEFINITION ('external definition','', #390 ) ;
#28 = DOCUMENT_FILE ( 'feet_rail_simplified.STEP' , '', '', #4, '' ,$ ) ;
#29 = APPLICATION_PROTOCOL_DEFINITION ( 'draft international standard', 'automotive_design', 1998, #294 ) ;
#30 = IDENTIFICATION_ROLE ( 'external document id and location', $) ;
#31 = PROPERTY_DEFINITION_REPRESENTATION ( #213, #584 ) ;
#32 = DIRECTION ( 'NONE',  ( -1.000000000000000222, -1.110223024625156540E-16, -4.857225732735057892E-16 ) ) ;
#33 = PROPERTY_DEFINITION ('external definition','', #260 ) ;
#34 = PROPERTY_DEFINITION_REPRESENTATION ( #347, #549 ) ;
#35 = DIRECTION ( 'NONE',  ( 1.000000000000000444, 1.110223024625156787E-16, 0.000000000000000000 ) ) ;
#36 = SHAPE_DEFINITION_REPRESENTATION ( #461, #171 ) ;
#37 = ROLE_ASSOCIATION ( #145, #267 ) ;
#38 = SHAPE_DEFINITION_REPRESENTATION ( #414, #10 ) ;
#39 = IDENTIFICATION_ROLE ( 'external document id and location', $) ;
#40 = PRODUCT_DEFINITION ( 'General', '', #395, #344 ) ;
#41 = PROPERTY_DEFINITION_REPRESENTATION ( #234, #411 ) ;
#42 = APPLICATION_PROTOCOL_DEFINITION ( 'draft international standard', 'automotive_design', 1998, #252 ) ;
#43 =( GEOMETRIC_REPRESENTATION_CONTEXT ( 3 ) GLOBAL_UNCERTAINTY_ASSIGNED_CONTEXT ( ( #251 ) ) GLOBAL_UNIT_ASSIGNED_CONTEXT ( ( #328, #221, #571 ) ) REPRESENTATION_CONTEXT ( 'NONE', 'WORKASPACE' ) );
#44 = DIRECTION ( 'NONE',  ( 1.000000000000000000, 0.000000000000000000, 0.000000000000000000 ) ) ;
#45 = APPLIED_DOCUMENT_REFERENCE ( #233,'',( #438) ) ;
#46 = IDENTIFICATION_ROLE ( 'external document id and location', $) ;
#47 = PRODUCT ( 'bottom_panel_7335K41', 'bottom_panel_7335K41', '', ( #231 ) ) ;
#48 = AXIS2_PLACEMENT_3D ( 'NONE', #407, #410, #596 ) ;
#49 = APPLICATION_PROTOCOL_DEFINITION ( 'draft international standard', 'automotive_design', 1998, #491 ) ;
#50 = PRODUCT_DEFINITION ( 'General', '', #424, #223 ) ;
#51 = OBJECT_ROLE ('mandatory',$ ) ;
#52 = PROPERTY_DEFINITION ('document property','', #574 ) ;
#53 = PROPERTY_DEFINITION_REPRESENTATION ( #27, #219 ) ;
#54 = APPLIED_DOCUMENT_REFERENCE ( #12,'',( #40) ) ;
#55 = PROPERTY_DEFINITION ('document property','', #444 ) ;
#56 =( REPRESENTATION_RELATIONSHIP ('NONE','NONE', #171, #219 ) REPRESENTATION_RELATIONSHIP_WITH_TRANSFORMATION ( #536 )SHAPE_REPRESENTATION_RELATIONSHIP( ) );
#57 = OBJECT_ROLE ('mandatory',$ ) ;
#58 = IDENTIFICATION_ROLE ( 'external document id and location', $) ;
#59 = APPLIED_DOCUMENT_REFERENCE ( #574,'',( #438) ) ;
#60 = DIRECTION ( 'NONE',  ( 1.000000000000000000, 0.000000000000000000, 0.000000000000000000 ) ) ;
#61 = ROLE_ASSOCIATION ( #554, #469 ) ;
#62 = OBJECT_ROLE ('mandatory',$ ) ;
#63 = PRODUCT_RELATED_PRODUCT_CATEGORY ( 'part', '', ( #358 ) ) ;
#64 = AXIS2_PLACEMENT_3D ( 'NONE', #161, #297, #396 ) ;
#65 = DOCUMENT_TYPE ( 'geometry' ) ;
#66 = APPLIED_DOCUMENT_REFERENCE ( #497,'',( #131) ) ;
#67 = PRODUCT_DEFINITION ( 'General', '', #304, #448 ) ;
#68 = CARTESIAN_POINT ( 'NONE',  ( -35.12878369419214408, 133.1131975050496976, -27.08456814004089352 ) ) ;
#69 = CONTEXT_DEPENDENT_SHAPE_REPRESENTATION ( #225, #122 ) ;
#70 = DIRECTION ( 'NONE',  ( -1.000000000000000222, 0.000000000000000000, 0.000000000000000000 ) ) ;
#71 = UNCERTAINTY_MEASURE_WITH_UNIT (LENGTH_MEASURE( 1.000000000000000082E-05 ), #228, 'distance_accuracy_value', 'NONE');
#72 = DOCUMENT_TYPE ( 'geometry' ) ;
#73 = PRODUCT_DEFINITION_FORMATION_WITH_SPECIFIED_SOURCE ( 'Symmetric', '', #378, .NOT_KNOWN. ) ;
#74 = ITEM_DEFINED_TRANSFORMATION ( 'NONE', 'NONE', #449,  #557 ) ;
#75 = DIRECTION ( 'NONE',  ( 1.000000000000000222, -1.110170424856254308E-16, -5.218944343216658393E-38 ) ) ;
#76 = SHAPE_REPRESENTATION ( 'bottom_panel_7335K41', ( #232 ), #587 ) ;
#77 = PRODUCT_DEFINITION ( 'General', '', #149, #298 ) ;
#78 = PROPERTY_DEFINITION ('external definition','', #17 ) ;
#79 = CARTESIAN_POINT ( 'NONE',  ( -3.555522281630979765E-14, -70.25297645321545303, 8.881784197001252323E-13 ) ) ;
#80 = CONTEXT_DEPENDENT_SHAPE_REPRESENTATION ( #594, #262 ) ;
#81 = CARTESIAN_POINT ( 'NONE',  ( 202.6641694391720421, -58.21497645321545633, 136.5495908280217634 ) ) ;
#82 = PROPERTY_DEFINITION ('external definition','', #504 ) ;
#83 = EXTERNAL_SOURCE (IDENTIFIER('') ) ;
#84 = APPLICATION_PROTOCOL_DEFINITION ( 'draft international standard', 'automotive_design', 1998, #169 ) ;
#85 = DOCUMENT_TYPE ( 'geometry' ) ;
#86 = DIRECTION ( 'NONE',  ( 1.000000000000000000, 0.000000000000000000, 0.000000000000000000 ) ) ;
#87 =( LENGTH_UNIT ( ) NAMED_UNIT ( * ) SI_UNIT ( .MILLI., .METRE. ) );
#88 = PROPERTY_DEFINITION_REPRESENTATION ( #162, #411 ) ;
#89 = CONTEXT_DEPENDENT_SHAPE_REPRESENTATION ( #496, #137 ) ;
#90 = PROPERTY_DEFINITION ('document property','', #318 ) ;
#91 =( NAMED_UNIT ( * ) PLANE_ANGLE_UNIT ( ) SI_UNIT ( $, .RADIAN. ) );
#92 = AXIS2_PLACEMENT_3D ( 'NONE', #8, #533, #44 ) ;
#93 = ITEM_DEFINED_TRANSFORMATION ( 'NONE', 'NONE', #229,  #92 ) ;
#94 = APPLIED_EXTERNAL_IDENTIFICATION_ASSIGNMENT ( '92000A318_Passivated 18-8 Stainless Steel Pan Head Phillips Screws_92000A318.STEP' , #385, #422,( #444) ) ;
#95 = OBJECT_ROLE ('mandatory',$ ) ;
#96 = APPLICATION_PROTOCOL_DEFINITION ( 'draft international standard', 'automotive_design', 1998, #458 ) ;
#97 = AXIS2_PLACEMENT_3D ( 'NONE', #506, #400, #157 ) ;
#98 = APPLIED_DOCUMENT_REFERENCE ( #345,'',( #40) ) ;
#99 = DOCUMENT_TYPE ( 'geometry' ) ;
#100 = PRODUCT ( 'feet_assembly', 'feet_assembly', '', ( #271 ) ) ;
#101 = PRODUCT_RELATED_PRODUCT_CATEGORY ( 'part', '', ( #100 ) ) ;
#102 = AXIS2_PLACEMENT_3D ( 'NONE', #460, #168, #70 ) ;
#103 =( NAMED_UNIT ( * ) SI_UNIT ( $, .STERADIAN. ) SOLID_ANGLE_UNIT ( ) );
#104 =( REPRESENTATION_RELATIONSHIP ('NONE','NONE', #171, #584 ) REPRESENTATION_RELATIONSHIP_WITH_TRANSFORMATION ( #451 )SHAPE_REPRESENTATION_RELATIONSHIP( ) );
#105 = IDENTIFICATION_ROLE ( 'external document id and location', $) ;
#106 = CONTEXT_DEPENDENT_SHAPE_REPRESENTATION ( #56, #164 ) ;
#107 = PRODUCT ( 'case', 'case', '', ( #212 ) ) ;
#108 = DIRECTION ( 'NONE',  ( 0.000000000000000000, 0.000000000000000000, 1.000000000000000000 ) ) ;
#109 = OBJECT_ROLE ('mandatory',$ ) ;
#110 = ITEM_DEFINED_TRANSFORMATION ( 'NONE', 'NONE', #531,  #180 ) ;
#111 = ITEM_DEFINED_TRANSFORMATION ( 'NONE', 'NONE', #561,  #443 ) ;
#112 = IDENTIFICATION_ROLE ( 'external document id and location', $) ;
#113 = ITEM_DEFINED_TRANSFORMATION ( 'NONE', 'NONE', #248,  #176 ) ;
#114 = DIRECTION ( 'NONE',  ( 1.000000000000000444, 1.110223024625156787E-16, 0.000000000000000000 ) ) ;
#115 = DOCUMENT_FILE ( 'CASE_930_R1_Btm_INNER_SURFACE.STEP' , '', '', #501, '' ,$ ) ;
#116 = DIRECTION ( 'NONE',  ( -1.752035117321267153E-17, 1.000000000000000222, -2.496391460017674682E-16 ) ) ;
#117 = PRODUCT_DEFINITION_SHAPE ( 'NONE', 'NONE',  #255 ) ;
#118 = APPLICATION_CONTEXT ( 'automotive_design' ) ;
#119 = APPLIED_DOCUMENT_REFERENCE ( #355,'',( #255) ) ;
#120 = DIRECTION ( 'NONE',  ( -2.128172442294058869E-16, -1.000000000000000444, 2.220446049250265996E-16 ) ) ;
#121 = APPLIED_EXTERNAL_IDENTIFICATION_ASSIGNMENT ( 'plate_interface.STEP' , #39, #435,( #497) ) ;
#122 = PRODUCT_DEFINITION_SHAPE ( 'NONE', 'NONE',  #609 ) ;
#123 = ITEM_DEFINED_TRANSFORMATION ( 'NONE', 'NONE', #197,  #20 ) ;
#124 = DIRECTION ( 'NONE',  ( 2.049402314518999396E-13, 0.000000000000000000, -1.000000000000000000 ) ) ;
#125 = DOCUMENT_FILE ( 'plate_interface.STEP' , '', '', #459, '' ,$ ) ;
#126 = PRODUCT_DEFINITION_SHAPE ( 'NONE', 'NONE',  #617 ) ;
#127 = PROPERTY_DEFINITION_REPRESENTATION ( #388, #10 ) ;
#128 = APPLICATION_CONTEXT ( 'automotive_design' ) ;
#129 = PRODUCT_DEFINITION_FORMATION_WITH_SPECIFIED_SOURCE ( 'Symmetric', '', #485, .NOT_KNOWN. ) ;
#130 = CONTEXT_DEPENDENT_SHAPE_REPRESENTATION ( #134, #175 ) ;
#131 = PRODUCT_DEFINITION ( 'General', '', #129, #158 ) ;
#132 = PRODUCT_CONTEXT ( 'NONE', #169, 'mechanical' ) ;
#133 = CARTESIAN_POINT ( 'NONE',  ( 0.000000000000000000, 0.000000000000000000, 0.000000000000000000 ) ) ;
#134 =( REPRESENTATION_RELATIONSHIP ('NONE','NONE', #171, #411 ) REPRESENTATION_RELATIONSHIP_WITH_TRANSFORMATION ( #523 )SHAPE_REPRESENTATION_RELATIONSHIP( ) );
#135 = CONTEXT_DEPENDENT_SHAPE_REPRESENTATION ( #246, #470 ) ;
#136 = PRODUCT_CONTEXT ( 'NONE', #573, 'mechanical' ) ;
#137 = PRODUCT_DEFINITION_SHAPE ( 'NONE', 'NONE',  #600 ) ;
#138 =( LENGTH_UNIT ( ) NAMED_UNIT ( * ) SI_UNIT ( .MILLI., .METRE. ) );
#139 =( GEOMETRIC_REPRESENTATION_CONTEXT ( 3 ) GLOBAL_UNCERTAINTY_ASSIGNED_CONTEXT ( ( #543 ) ) GLOBAL_UNIT_ASSIGNED_CONTEXT ( ( #87, #182, #384 ) ) REPRESENTATION_CONTEXT ( 'NONE', 'WORKASPACE' ) );
#140 = APPLIED_DOCUMENT_REFERENCE ( #125,'',( #131) ) ;
#141 = SHAPE_REPRESENTATION ( 'feet_rail_simplified', ( #557 ), #26 ) ;
#142 = PROPERTY_DEFINITION ('external definition','', #318 ) ;
#143 = PROPERTY_DEFINITION_REPRESENTATION ( #529, #10 ) ;
#144 =( LENGTH_UNIT ( ) NAMED_UNIT ( * ) SI_UNIT ( .MILLI., .METRE. ) );
#145 = OBJECT_ROLE ('mandatory',$ ) ;
#146 = PRODUCT_DEFINITION_SHAPE ( 'NONE', 'NONE',  #606 ) ;
#147 = PRODUCT_RELATED_PRODUCT_CATEGORY ( 'part', '', ( #207 ) ) ;
#148 = IDENTIFICATION_ROLE ( 'external document id and location', $) ;
#149 = PRODUCT_DEFINITION_FORMATION_WITH_SPECIFIED_SOURCE ( 'Symmetric', '', #107, .NOT_KNOWN. ) ;
#150 = APPLIED_DOCUMENT_REFERENCE ( #390,'',( #40) ) ;
#151 = EXTERNAL_SOURCE (IDENTIFIER('') ) ;
#152 = ITEM_DEFINED_TRANSFORMATION ( 'NONE', 'NONE', #392,  #92 ) ;
#153 = IDENTIFICATION_ROLE ( 'external document id and location', $) ;
#154 =( NAMED_UNIT ( * ) PLANE_ANGLE_UNIT ( ) SI_UNIT ( $, .RADIAN. ) );
#155 = IDENTIFICATION_ROLE ( 'external document id and location', $) ;
#156 = PROPERTY_DEFINITION_REPRESENTATION ( #364, #141 ) ;
#157 = DIRECTION ( 'NONE',  ( -0.9930539465197659732, -3.528901979121070532E-17, -0.1176599307390503030 ) ) ;
#158 = PRODUCT_DEFINITION_CONTEXT ( 'detailed design', #491, 'design' ) ;
#159 = CONTEXT_DEPENDENT_SHAPE_REPRESENTATION ( #214, #245 ) ;
#160 =( REPRESENTATION_RELATIONSHIP ('NONE','NONE', #171, #411 ) REPRESENTATION_RELATIONSHIP_WITH_TRANSFORMATION ( #1 )SHAPE_REPRESENTATION_RELATIONSHIP( ) );
#161 = CARTESIAN_POINT ( 'NONE',  ( -2.860522668215632149E-14, -70.15297645321547293, 8.985867605559860749E-13 ) ) ;
#162 = PROPERTY_DEFINITION ('external definition','', #314 ) ;
#163 = DIRECTION ( 'NONE',  ( 1.000000000000000222, 1.110223024625156540E-16, 0.000000000000000000 ) ) ;
#164 = PRODUCT_DEFINITION_SHAPE ( 'NONE', 'NONE',  #601 ) ;
#165 = DOCUMENT_FILE ( 'feet_assembly.STEP' , '', '', #256, '' ,$ ) ;
#166 = CARTESIAN_POINT ( 'NONE',  ( -89.95093133659284490, 133.1131975050496408, -27.73769239980438428 ) ) ;
#167 = APPLIED_EXTERNAL_IDENTIFICATION_ASSIGNMENT ( 'feet_rail_simplified.STEP' , #201, #336,( #504) ) ;
#168 = DIRECTION ( 'NONE',  ( 0.000000000000000000, 0.000000000000000000, -1.000000000000000000 ) ) ;
#169 = APPLICATION_CONTEXT ( 'automotive_design' ) ;
#170 = PRODUCT_RELATED_PRODUCT_CATEGORY ( 'part', '', ( #300 ) ) ;
#171 = SHAPE_REPRESENTATION ( 'case', ( #254, #229, #415, #97, #48, #561, #500, #277, #531, #392, #482, #197, #220, #449, #248, #64, #316, #226, #102, #173, #455 ), #43 ) ;
#172 = EXTERNAL_SOURCE (IDENTIFIER('') ) ;
#173 = AXIS2_PLACEMENT_3D ( 'NONE', #555, #120, #365 ) ;
#174 = SHAPE_DEFINITION_REPRESENTATION ( #503, #76 ) ;
#175 = PRODUCT_DEFINITION_SHAPE ( 'NONE', 'NONE',  #615 ) ;
#176 = AXIS2_PLACEMENT_3D ( 'NONE', #520, #196, #199 ) ;
#177 = DIRECTION ( 'NONE',  ( 0.000000000000000000, 0.000000000000000000, 1.000000000000000000 ) ) ;
#178 = CONTEXT_DEPENDENT_SHAPE_REPRESENTATION ( #351, #434 ) ;
#179 = PROPERTY_DEFINITION ('external definition','', #345 ) ;
#180 = AXIS2_PLACEMENT_3D ( 'NONE', #5, #177, #278 ) ;
#181 = EXTERNAL_SOURCE (IDENTIFIER('') ) ;
#182 =( NAMED_UNIT ( * ) PLANE_ANGLE_UNIT ( ) SI_UNIT ( $, .RADIAN. ) );
#183 =( REPRESENTATION_RELATIONSHIP ('NONE','NONE', #171, #10 ) REPRESENTATION_RELATIONSHIP_WITH_TRANSFORMATION ( #284 )SHAPE_REPRESENTATION_RELATIONSHIP( ) );
#184 = PRODUCT_DEFINITION_SHAPE ( 'NONE', 'NONE',  #604 ) ;
#185 = CONTEXT_DEPENDENT_SHAPE_REPRESENTATION ( #301, #511 ) ;
#186 = PRODUCT_RELATED_PRODUCT_CATEGORY ( 'part', '', ( #485 ) ) ;
#187 = ITEM_DEFINED_TRANSFORMATION ( 'NONE', 'NONE', #277,  #180 ) ;
#188 = DOCUMENT_TYPE ( 'geometry' ) ;
#189 = PROPERTY_DEFINITION ('document property','', #345 ) ;
#190 =( GEOMETRIC_REPRESENTATION_CONTEXT ( 3 ) GLOBAL_UNCERTAINTY_ASSIGNED_CONTEXT ( ( #292 ) ) GLOBAL_UNIT_ASSIGNED_CONTEXT ( ( #144, #423, #524 ) ) REPRESENTATION_CONTEXT ( 'NONE', 'WORKASPACE' ) );
#191 = ROLE_ASSOCIATION ( #453, #343 ) ;
#192 =( LENGTH_UNIT ( ) NAMED_UNIT ( * ) SI_UNIT ( .MILLI., .METRE. ) );
#193 = APPLICATION_CONTEXT ( 'automotive_design' ) ;
#194 = PROPERTY_DEFINITION_REPRESENTATION ( #514, #219 ) ;
#195 =( GEOMETRIC_REPRESENTATION_CONTEXT ( 3 ) GLOBAL_UNCERTAINTY_ASSIGNED_CONTEXT ( ( #499 ) ) GLOBAL_UNIT_ASSIGNED_CONTEXT ( ( #13, #154, #247 ) ) REPRESENTATION_CONTEXT ( 'NONE', 'WORKASPACE' ) );
#196 = DIRECTION ( 'NONE',  ( 0.000000000000000000, 0.000000000000000000, 1.000000000000000000 ) ) ;
#197 = AXIS2_PLACEMENT_3D ( 'NONE', #25, #209, #35 ) ;
#198 = DOCUMENT_FILE ( 'plate_corner_holder.STEP' , '', '', #419, '' ,$ ) ;
#199 = DIRECTION ( 'NONE',  ( 1.000000000000000000, 0.000000000000000000, 0.000000000000000000 ) ) ;
#200 = ROLE_ASSOCIATION ( #217, #361 ) ;
#201 = IDENTIFICATION_ROLE ( 'external document id and location', $) ;
#202 = DIRECTION ( 'NONE',  ( 0.000000000000000000, 0.000000000000000000, 1.000000000000000000 ) ) ;
#203 = SHAPE_DEFINITION_REPRESENTATION ( #479, #584 ) ;
#204 = OBJECT_ROLE ('mandatory',$ ) ;
#205 = CONTEXT_DEPENDENT_SHAPE_REPRESENTATION ( #484, #14 ) ;
#206 = CARTESIAN_POINT ( 'NONE',  ( 178.9430000000000405, -47.94697645321547697, -133.4769999999999186 ) ) ;
#207 = PRODUCT ( 'base_bottom_insert_simplified', 'base_bottom_insert_simplified', '', ( #132 ) ) ;
#208 = APPLIED_DOCUMENT_REFERENCE ( #28,'',( #216) ) ;
#209 = DIRECTION ( 'NONE',  ( 0.000000000000000000, 0.000000000000000000, 1.000000000000000000 ) ) ;
#210 = PROPERTY_DEFINITION ('external definition','', #125 ) ;
#211 = ITEM_DEFINED_TRANSFORMATION ( 'NONE', 'NONE', #64,  #443 ) ;
#212 = PRODUCT_CONTEXT ( 'NONE', #294, 'mechanical' ) ;
#213 = PROPERTY_DEFINITION ('external definition','', #115 ) ;
#214 =( REPRESENTATION_RELATIONSHIP ('NONE','NONE', #171, #466 ) REPRESENTATION_RELATIONSHIP_WITH_TRANSFORMATION ( #211 )SHAPE_REPRESENTATION_RELATIONSHIP( ) );
#215 = PRODUCT_DEFINITION_CONTEXT ( 'detailed design', #238, 'design' ) ;
#216 = PRODUCT_DEFINITION ( 'General', '', #24, #349 ) ;
#217 = OBJECT_ROLE ('mandatory',$ ) ;
#218 = IDENTIFICATION_ROLE ( 'external document id and location', $) ;
#219 = SHAPE_REPRESENTATION ( '92000A318_Passivated 18-8 Stainless Steel Pan Head Phillips Screws_92000A318', ( #180 ), #139 ) ;
#220 = AXIS2_PLACEMENT_3D ( 'NONE', #335, #124, #312 ) ;
#221 =( NAMED_UNIT ( * ) PLANE_ANGLE_UNIT ( ) SI_UNIT ( $, .RADIAN. ) );
#222 = PROPERTY_DEFINITION_REPRESENTATION ( #379, #76 ) ;
#223 = PRODUCT_DEFINITION_CONTEXT ( 'detailed design', #592, 'design' ) ;
#224 = APPLICATION_PROTOCOL_DEFINITION ( 'draft international standard', 'automotive_design', 1998, #354 ) ;
#225 =( REPRESENTATION_RELATIONSHIP ('NONE','NONE', #171, #411 ) REPRESENTATION_RELATIONSHIP_WITH_TRANSFORMATION ( #123 )SHAPE_REPRESENTATION_RELATIONSHIP( ) );
#226 = AXIS2_PLACEMENT_3D ( 'NONE', #81, #261, #456 ) ;
#227 = SHAPE_DEFINITION_REPRESENTATION ( #568, #411 ) ;
#228 =( LENGTH_UNIT ( ) NAMED_UNIT ( * ) SI_UNIT ( .MILLI., .METRE. ) );
#229 = AXIS2_PLACEMENT_3D ( 'NONE', #166, #75, #463 ) ;
#230 = PRODUCT_DEFINITION_SHAPE ( 'NONE', 'NONE',  #610 ) ;
#231 = PRODUCT_CONTEXT ( 'NONE', #534, 'mechanical' ) ;
#232 = AXIS2_PLACEMENT_3D ( 'NONE', #16, #239, #437 ) ;
#233 = DOCUMENT_FILE ( 'plate_corner_holder.STEP' , '', '', #65, '' ,$ ) ;
#234 = PROPERTY_DEFINITION ('external definition','', #497 ) ;
#235 = DIRECTION ( 'NONE',  ( 0.000000000000000000, 0.000000000000000000, 1.000000000000000000 ) ) ;
#236 = EXTERNAL_SOURCE (IDENTIFIER('') ) ;
#237 = PROPERTY_DEFINITION ('document property','', #390 ) ;
#238 = APPLICATION_CONTEXT ( 'automotive_design' ) ;
#239 = DIRECTION ( 'NONE',  ( 0.000000000000000000, 0.000000000000000000, 1.000000000000000000 ) ) ;
#240 = PROPERTY_DEFINITION_REPRESENTATION ( #189, #219 ) ;
#241 = DIRECTION ( 'NONE',  ( 0.000000000000000000, 0.000000000000000000, 1.000000000000000000 ) ) ;
#242 = CONTEXT_DEPENDENT_SHAPE_REPRESENTATION ( #547, #146 ) ;
#243 = APPLIED_EXTERNAL_IDENTIFICATION_ASSIGNMENT ( 'bottom_panel_7335K41.STEP' , #313, #151,( #367) ) ;
#244 = APPLIED_EXTERNAL_IDENTIFICATION_ASSIGNMENT ( 'plate_interface.STEP' , #413, #324,( #260) ) ;
#245 = PRODUCT_DEFINITION_SHAPE ( 'NONE', 'NONE',  #613 ) ;
#246 =( REPRESENTATION_RELATIONSHIP ('NONE','NONE', #171, #549 ) REPRESENTATION_RELATIONSHIP_WITH_TRANSFORMATION ( #325 )SHAPE_REPRESENTATION_RELATIONSHIP( ) );
#247 =( NAMED_UNIT ( * ) SI_UNIT ( $, .STERADIAN. ) SOLID_ANGLE_UNIT ( ) );
#248 = AXIS2_PLACEMENT_3D ( 'NONE', #512, #163, #356 ) ;
#249 = APPLIED_DOCUMENT_REFERENCE ( #260,'',( #131) ) ;
#250 = DIRECTION ( 'NONE',  ( 0.000000000000000000, 0.000000000000000000, -1.000000000000000000 ) ) ;
#251 = UNCERTAINTY_MEASURE_WITH_UNIT (LENGTH_MEASURE( 1.000000000000000082E-05 ), #328, 'distance_accuracy_value', 'NONE');
#252 = APPLICATION_CONTEXT ( 'automotive_design' ) ;
#253 = DIRECTION ( 'NONE',  ( -0.9727319427733450707, 4.252355580671881752E-17, 0.2319322476681376088 ) ) ;
#254 = AXIS2_PLACEMENT_3D ( 'NONE', #339, #368, #86 ) ;
#255 = PRODUCT_DEFINITION ( 'General', '', #341, #215 ) ;
#256 = DOCUMENT_TYPE ( 'geometry' ) ;
#257 = PROPERTY_DEFINITION_REPRESENTATION ( #401, #584 ) ;
#258 = DIRECTION ( 'NONE',  ( 0.000000000000000000, 0.000000000000000000, 1.000000000000000000 ) ) ;
#259 = ROLE_ASSOCIATION ( #62, #208 ) ;
#260 = DOCUMENT_FILE ( 'plate_interface.STEP' , '', '', #471, '' ,$ ) ;
#261 = DIRECTION ( 'NONE',  ( -1.000000000000000222, -2.312719656206578139E-16, -3.997490628213729482E-15 ) ) ;
#262 = PRODUCT_DEFINITION_SHAPE ( 'NONE', 'NONE',  #611 ) ;
#263 = APPLICATION_CONTEXT ( 'automotive_design' ) ;
#264 = SHAPE_DEFINITION_REPRESENTATION ( #117, #466 ) ;
#265 = EXTERNAL_SOURCE (IDENTIFIER('') ) ;
#266 = APPLICATION_CONTEXT ( 'automotive_design' ) ;
#267 = APPLIED_DOCUMENT_REFERENCE ( #367,'',( #50) ) ;
#268 = EXTERNAL_SOURCE (IDENTIFIER('') ) ;
#269 = APPLICATION_PROTOCOL_DEFINITION ( 'draft international standard', 'automotive_design', 1998, #366 ) ;
#270 = DIRECTION ( 'NONE',  ( 1.000000000000000000, 0.000000000000000000, 0.000000000000000000 ) ) ;
#271 = PRODUCT_CONTEXT ( 'NONE', #193, 'mechanical' ) ;
#272 =( NAMED_UNIT ( * ) SI_UNIT ( $, .STERADIAN. ) SOLID_ANGLE_UNIT ( ) );
#273 = APPLIED_EXTERNAL_IDENTIFICATION_ASSIGNMENT ( 'base_bottom_insert_simplified.STEP' , #148, #268,( #17) ) ;
#274 = PROPERTY_DEFINITION ('external definition','', #233 ) ;
#275 = PROPERTY_DEFINITION ('document property','', #497 ) ;
#276 = APPLICATION_PROTOCOL_DEFINITION ( 'draft international standard', 'automotive_design', 1998, #321 ) ;
#277 = AXIS2_PLACEMENT_3D ( 'NONE', #206, #502, #583 ) ;
#278 = DIRECTION ( 'NONE',  ( 1.000000000000000000, 0.000000000000000000, 0.000000000000000000 ) ) ;
#279 = EXTERNAL_SOURCE (IDENTIFIER('') ) ;
#280 = ITEM_DEFINED_TRANSFORMATION ( 'NONE', 'NONE', #500,  #180 ) ;
#281 = PRODUCT_DEFINITION_SHAPE ( 'NONE', 'NONE',  #40 ) ;
#282 = EXTERNAL_SOURCE (IDENTIFIER('') ) ;
#283 = APPLIED_EXTERNAL_IDENTIFICATION_ASSIGNMENT ( '92000A318_Passivated 18-8 Stainless Steel Pan Head Phillips Screws_92000A318.STEP' , #218, #265,( #345) ) ;
#284 = ITEM_DEFINED_TRANSFORMATION ( 'NONE', 'NONE', #48,  #92 ) ;
#285 = PRODUCT ( 'CASE_930_R1_Btm_INNER_SURFACE', 'CASE_930_R1_Btm_INNER_SURFACE', '', ( #427 ) ) ;
#286 = OBJECT_ROLE ('mandatory',$ ) ;
#287 = PROPERTY_DEFINITION_REPRESENTATION ( #78, #466 ) ;
#288 = DIRECTION ( 'NONE',  ( 1.000000000000000000, 0.000000000000000000, 0.000000000000000000 ) ) ;
#289 = ROLE_ASSOCIATION ( #508, #59 ) ;
#290 =( NAMED_UNIT ( * ) PLANE_ANGLE_UNIT ( ) SI_UNIT ( $, .RADIAN. ) );
#291 = APPLIED_DOCUMENT_REFERENCE ( #444,'',( #40) ) ;
#292 = UNCERTAINTY_MEASURE_WITH_UNIT (LENGTH_MEASURE( 1.000000000000000082E-05 ), #144, 'distance_accuracy_value', 'NONE');
#293 = CONTEXT_DEPENDENT_SHAPE_REPRESENTATION ( #398, #474 ) ;
#294 = APPLICATION_CONTEXT ( 'automotive_design' ) ;
#295 = DIRECTION ( 'NONE',  ( 4.065574309498560099E-15, -2.220446049250302727E-16, -1.000000000000000000 ) ) ;
#296 = PROPERTY_DEFINITION_REPRESENTATION ( #560, #411 ) ;
#297 = DIRECTION ( 'NONE',  ( 2.775557561562890735E-17, 0.000000000000000000, -1.000000000000000000 ) ) ;
#298 = PRODUCT_DEFINITION_CONTEXT ( 'detailed design', #366, 'design' ) ;
#299 = DOCUMENT_TYPE ( 'geometry' ) ;
#300 = PRODUCT ( 'feet_rail_simplified', 'feet_rail_simplified', '', ( #421 ) ) ;
#301 =( REPRESENTATION_RELATIONSHIP ('NONE','NONE', #171, #10 ) REPRESENTATION_RELATIONSHIP_WITH_TRANSFORMATION ( #152 )SHAPE_REPRESENTATION_RELATIONSHIP( ) );
#302 = CARTESIAN_POINT ( 'NONE',  ( -202.6641694391730368, -58.21497645321552739, -136.5495908280248045 ) ) ;
#303 = DOCUMENT_TYPE ( 'geometry' ) ;
#304 = PRODUCT_DEFINITION_FORMATION_WITH_SPECIFIED_SOURCE ( 'Symmetric', '', #100, .NOT_KNOWN. ) ;
#305 = ROLE_ASSOCIATION ( #537, #119 ) ;
#306 = APPLIED_EXTERNAL_IDENTIFICATION_ASSIGNMENT ( '92000A318_Passivated 18-8 Stainless Steel Pan Head Phillips Screws_92000A318.STEP' , #468, #562,( #390) ) ;
#307 = CARTESIAN_POINT ( 'NONE',  ( -178.9430000000000405, -47.94697645321545565, 133.4770000000000323 ) ) ;
#308 = PRODUCT_DEFINITION_SHAPE ( 'NONE', 'NONE',  #216 ) ;
#309 = PRODUCT_RELATED_PRODUCT_CATEGORY ( 'part', '', ( #107 ) ) ;
#310 = APPLIED_EXTERNAL_IDENTIFICATION_ASSIGNMENT ( 'plate_corner_holder.STEP' , #375, #598,( #574) ) ;
#311 = PROPERTY_DEFINITION_REPRESENTATION ( #33, #411 ) ;
#312 = DIRECTION ( 'NONE',  ( 1.000000000000000222, 1.110223024625156540E-16, 2.049402314518998892E-13 ) ) ;
#313 = IDENTIFICATION_ROLE ( 'external document id and location', $) ;
#314 = DOCUMENT_FILE ( 'plate_interface.STEP' , '', '', #188, '' ,$ ) ;
#315 = APPLICATION_PROTOCOL_DEFINITION ( 'draft international standard', 'automotive_design', 1998, #128 ) ;
#316 = AXIS2_PLACEMENT_3D ( 'NONE', #302, #360, #295 ) ;
#317 = IDENTIFICATION_ROLE ( 'external document id and location', $) ;
#318 = DOCUMENT_FILE ( 'feet_assembly.STEP' , '', '', #85, '' ,$ ) ;
#319 = APPLICATION_PROTOCOL_DEFINITION ( 'draft international standard', 'automotive_design', 1998, #238 ) ;
#320 = PROPERTY_DEFINITION ('external definition','', #355 ) ;
#321 = APPLICATION_CONTEXT ( 'automotive_design' ) ;
#322 = PROPERTY_DEFINITION_REPRESENTATION ( #327, #411 ) ;
#323 = PRODUCT_CONTEXT ( 'NONE', #418, 'mechanical' ) ;
#324 = EXTERNAL_SOURCE (IDENTIFIER('') ) ;
#325 = ITEM_DEFINED_TRANSFORMATION ( 'NONE', 'NONE', #455,  #176 ) ;
#326 = PRODUCT_DEFINITION_SHAPE ( 'NONE', 'NONE',  #605 ) ;
#327 = PROPERTY_DEFINITION ('document property','', #125 ) ;
#328 =( LENGTH_UNIT ( ) NAMED_UNIT ( * ) SI_UNIT ( .MILLI., .METRE. ) );
#329 = AXIS2_PLACEMENT_3D ( 'NONE', #133, #372, #566 ) ;
#330 = APPLICATION_PROTOCOL_DEFINITION ( 'draft international standard', 'automotive_design', 1998, #592 ) ;
#331 = CARTESIAN_POINT ( 'NONE',  ( 0.000000000000000000, 0.000000000000000000, 0.000000000000000000 ) ) ;
#332 = PROPERTY_DEFINITION ('external definition','', #198 ) ;
#333 = PROPERTY_DEFINITION ('document property','', #17 ) ;
#334 = ROLE_ASSOCIATION ( #51, #54 ) ;
#335 = CARTESIAN_POINT ( 'NONE',  ( 4.304978904569195046E-14, -79.15297645321545872, 8.465450562766818621E-13 ) ) ;
#336 = EXTERNAL_SOURCE (IDENTIFIER('') ) ;
#337 = APPLIED_DOCUMENT_REFERENCE ( #17,'',( #255) ) ;
#338 = PROPERTY_DEFINITION ('document property','', #12 ) ;
#339 = CARTESIAN_POINT ( 'NONE',  ( 0.000000000000000000, 0.000000000000000000, 0.000000000000000000 ) ) ;
#340 = OBJECT_ROLE ('mandatory',$ ) ;
#341 = PRODUCT_DEFINITION_FORMATION_WITH_SPECIFIED_SOURCE ( 'Symmetric', '', #207, .NOT_KNOWN. ) ;
#342 = ROLE_ASSOCIATION ( #393, #150 ) ;
#343 = APPLIED_DOCUMENT_REFERENCE ( #198,'',( #438) ) ;
#344 = PRODUCT_DEFINITION_CONTEXT ( 'detailed design', #266, 'design' ) ;
#345 = DOCUMENT_FILE ( '92000A318_Passivated 18-8 Stainless Steel Pan Head Phillips Screws_92000A318.STEP' , '', '', #299, '' ,$ ) ;
#346 = IDENTIFICATION_ROLE ( 'external document id and location', $) ;
#347 = PROPERTY_DEFINITION ('document property','', #165 ) ;
#348 =( LENGTH_UNIT ( ) NAMED_UNIT ( * ) SI_UNIT ( .MILLI., .METRE. ) );
#349 = PRODUCT_DEFINITION_CONTEXT ( 'detailed design', #458, 'design' ) ;
#350 =( REPRESENTATION_RELATIONSHIP ('NONE','NONE', #171, #219 ) REPRESENTATION_RELATIONSHIP_WITH_TRANSFORMATION ( #187 )SHAPE_REPRESENTATION_RELATIONSHIP( ) );
#351 =( REPRESENTATION_RELATIONSHIP ('NONE','NONE', #171, #10 ) REPRESENTATION_RELATIONSHIP_WITH_TRANSFORMATION ( #93 )SHAPE_REPRESENTATION_RELATIONSHIP( ) );
#352 = PROPERTY_DEFINITION_REPRESENTATION ( #490, #10 ) ;
#353 = DIRECTION ( 'NONE',  ( 1.000000000000000444, 1.110223024625156787E-16, 0.000000000000000000 ) ) ;
#354 = APPLICATION_CONTEXT ( 'automotive_design' ) ;
#355 = DOCUMENT_FILE ( 'base_bottom_insert_simplified.STEP' , '', '', #515, '' ,$ ) ;
#356 = DIRECTION ( 'NONE',  ( 0.000000000000000000, 0.000000000000000000, 0.9999999999999998890 ) ) ;
#357 = OBJECT_ROLE ('mandatory',$ ) ;
#358 = PRODUCT ( '92000A318_Passivated 18-8 Stainless Steel Pan Head Phillips Screws_92000A318', '92000A318_Passivated 18-8 Stainless Steel Pan Head Phillips Screws_92000A318', '', ( #323 ) ) ;
#359 = PROPERTY_DEFINITION_REPRESENTATION ( #446, #549 ) ;
#360 = DIRECTION ( 'NONE',  ( 1.000000000000000222, 2.220446049250361399E-16, 4.065574309498559310E-15 ) ) ;
#361 = APPLIED_DOCUMENT_REFERENCE ( #115,'',( #489) ) ;
#362 = PRODUCT_DEFINITION_CONTEXT ( 'detailed design', #118, 'design' ) ;
#363 = DIRECTION ( 'NONE',  ( 0.000000000000000000, 0.000000000000000000, 1.000000000000000000 ) ) ;
#364 = PROPERTY_DEFINITION ('document property','', #504 ) ;
#365 = DIRECTION ( 'NONE',  ( -3.997490628199328826E-15, 2.220446049250266735E-16, 1.000000000000000000 ) ) ;
#366 = APPLICATION_CONTEXT ( 'automotive_design' ) ;
#367 = DOCUMENT_FILE ( 'bottom_panel_7335K41.STEP' , '', '', #493, '' ,$ ) ;
#368 = DIRECTION ( 'NONE',  ( 0.000000000000000000, 0.000000000000000000, 1.000000000000000000 ) ) ;
#369 = IDENTIFICATION_ROLE ( 'external document id and location', $) ;
#370 = PRODUCT_RELATED_PRODUCT_CATEGORY ( 'part', '', ( #285 ) ) ;
#371 = ITEM_DEFINED_TRANSFORMATION ( 'NONE', 'NONE', #415,  #92 ) ;
#372 = DIRECTION ( 'NONE',  ( 0.000000000000000000, 0.000000000000000000, 1.000000000000000000 ) ) ;
#373 =( REPRESENTATION_RELATIONSHIP ('NONE','NONE', #171, #219 ) REPRESENTATION_RELATIONSHIP_WITH_TRANSFORMATION ( #280 )SHAPE_REPRESENTATION_RELATIONSHIP( ) );
#374 = CONTEXT_DEPENDENT_SHAPE_REPRESENTATION ( #160, #513 ) ;
#375 = IDENTIFICATION_ROLE ( 'external document id and location', $) ;
#376 = APPLICATION_PROTOCOL_DEFINITION ( 'draft international standard', 'automotive_design', 1998, #118 ) ;
#377 = APPLIED_DOCUMENT_REFERENCE ( #314,'',( #131) ) ;
#378 = PRODUCT ( 'plate_corner_holder', 'plate_corner_holder', '', ( #136 ) ) ;
#379 = PROPERTY_DEFINITION ('document property','', #367 ) ;
#380 = APPLICATION_PROTOCOL_DEFINITION ( 'draft international standard', 'automotive_design', 1998, #266 ) ;
#381 = PRODUCT_RELATED_PRODUCT_CATEGORY ( 'part', '', ( #47 ) ) ;
#382 = EXTERNAL_SOURCE (IDENTIFIER('') ) ;
#383 = SHAPE_DEFINITION_REPRESENTATION ( #281, #219 ) ;
#384 =( NAMED_UNIT ( * ) SI_UNIT ( $, .STERADIAN. ) SOLID_ANGLE_UNIT ( ) );
#385 = IDENTIFICATION_ROLE ( 'external document id and location', $) ;
#386 = DOCUMENT_FILE ( 'plate_corner_holder.STEP' , '', '', #439, '' ,$ ) ;
#387 = PROPERTY_DEFINITION_REPRESENTATION ( #535, #10 ) ;
#388 = PROPERTY_DEFINITION ('document property','', #233 ) ;
#389 =( REPRESENTATION_RELATIONSHIP ('NONE','NONE', #171, #141 ) REPRESENTATION_RELATIONSHIP_WITH_TRANSFORMATION ( #595 )SHAPE_REPRESENTATION_RELATIONSHIP( ) );
#390 = DOCUMENT_FILE ( '92000A318_Passivated 18-8 Stainless Steel Pan Head Phillips Screws_92000A318.STEP' , '', '', #99, '' ,$ ) ;
#391 = APPLIED_EXTERNAL_IDENTIFICATION_ASSIGNMENT ( 'base_bottom_insert_simplified.STEP' , #58, #11,( #355) ) ;
#392 = AXIS2_PLACEMENT_3D ( 'NONE', #498, #250, #412 ) ;
#393 = OBJECT_ROLE ('mandatory',$ ) ;
#394 = ROLE_ASSOCIATION ( #95, #249 ) ;
#395 = PRODUCT_DEFINITION_FORMATION_WITH_SPECIFIED_SOURCE ( 'Symmetric', '', #358, .NOT_KNOWN. ) ;
#396 = DIRECTION ( 'NONE',  ( 1.000000000000000222, 1.110223024625156540E-16, 2.775557561562890118E-17 ) ) ;
#397 = UNCERTAINTY_MEASURE_WITH_UNIT (LENGTH_MEASURE( 1.000000000000000082E-05 ), #348, 'distance_accuracy_value', 'NONE');
#398 =( REPRESENTATION_RELATIONSHIP ('NONE','NONE', #171, #411 ) REPRESENTATION_RELATIONSHIP_WITH_TRANSFORMATION ( #590 )SHAPE_REPRESENTATION_RELATIONSHIP( ) );
#399 = ROLE_ASSOCIATION ( #357, #597 ) ;
#400 = DIRECTION ( 'NONE',  ( 8.738575601014239301E-17, 1.000000000000000000, -1.004305712264186748E-16 ) ) ;
#401 = PROPERTY_DEFINITION ('document property','', #115 ) ;
#402 = PROPERTY_DEFINITION_REPRESENTATION ( #441, #141 ) ;
#403 = EXTERNAL_SOURCE (IDENTIFIER('') ) ;
#404 = CARTESIAN_POINT ( 'NONE',  ( 1.806854927308528534E-14, -87.25297645321545303, 9.159339953157541458E-13 ) ) ;
#405 = PRODUCT_DEFINITION_SHAPE ( 'NONE', 'NONE',  #608 ) ;
#406 = PROPERTY_DEFINITION_REPRESENTATION ( #82, #141 ) ;
#407 = CARTESIAN_POINT ( 'NONE',  ( 89.95076115155622176, 133.1131975050496692, 27.73729944834980543 ) ) ;
#408 = ROLE_ASSOCIATION ( #545, #140 ) ;
#409 = PROPERTY_DEFINITION_REPRESENTATION ( #275, #411 ) ;
#410 = DIRECTION ( 'NONE',  ( -1.000000000000000444, -9.829384779513887547E-24, -1.734723475976807094E-17 ) ) ;
#411 = SHAPE_REPRESENTATION ( 'plate_interface', ( #20 ), #195 ) ;
#412 = DIRECTION ( 'NONE',  ( -1.000000000000000222, 0.000000000000000000, 0.000000000000000000 ) ) ;
#413 = IDENTIFICATION_ROLE ( 'external document id and location', $) ;
#414 = PRODUCT_DEFINITION_SHAPE ( 'NONE', 'NONE',  #438 ) ;
#415 = AXIS2_PLACEMENT_3D ( 'NONE', #68, #363, #452 ) ;
#416 = DOCUMENT_TYPE ( 'geometry' ) ;
#417 = APPLICATION_PROTOCOL_DEFINITION ( 'draft international standard', 'automotive_design', 1998, #263 ) ;
#418 = APPLICATION_CONTEXT ( 'automotive_design' ) ;
#419 = DOCUMENT_TYPE ( 'geometry' ) ;
#420 = ROLE_ASSOCIATION ( #577, #66 ) ;
#421 = PRODUCT_CONTEXT ( 'NONE', #354, 'mechanical' ) ;
#422 = EXTERNAL_SOURCE (IDENTIFIER('') ) ;
#423 =( NAMED_UNIT ( * ) PLANE_ANGLE_UNIT ( ) SI_UNIT ( $, .RADIAN. ) );
#424 = PRODUCT_DEFINITION_FORMATION_WITH_SPECIFIED_SOURCE ( 'Symmetric', '', #47, .NOT_KNOWN. ) ;
#425 = OBJECT_ROLE ('mandatory',$ ) ;
#426 = PROPERTY_DEFINITION_REPRESENTATION ( #210, #411 ) ;
#427 = PRODUCT_CONTEXT ( 'NONE', #321, 'mechanical' ) ;
#428 = PROPERTY_DEFINITION_REPRESENTATION ( #480, #411 ) ;
#429 = PRODUCT_DEFINITION_SHAPE ( 'NONE', 'NONE',  #603 ) ;
#430 = ROLE_ASSOCIATION ( #581, #45 ) ;
#431 = APPLIED_EXTERNAL_IDENTIFICATION_ASSIGNMENT ( 'plate_interface.STEP' , #105, #382,( #125) ) ;
#432 = CONTEXT_DEPENDENT_SHAPE_REPRESENTATION ( #183, #553 ) ;
#433 =( NAMED_UNIT ( * ) PLANE_ANGLE_UNIT ( ) SI_UNIT ( $, .RADIAN. ) );
#434 = PRODUCT_DEFINITION_SHAPE ( 'NONE', 'NONE',  #599 ) ;
#435 = EXTERNAL_SOURCE (IDENTIFIER('') ) ;
#436 = PROPERTY_DEFINITION_REPRESENTATION ( #528, #219 ) ;
#437 = DIRECTION ( 'NONE',  ( 1.000000000000000000, 0.000000000000000000, 0.000000000000000000 ) ) ;
#438 = PRODUCT_DEFINITION ( 'General', '', #73, #362 ) ;
#439 = DOCUMENT_TYPE ( 'geometry' ) ;
#440 = CONTEXT_DEPENDENT_SHAPE_REPRESENTATION ( #350, #326 ) ;
#441 = PROPERTY_DEFINITION ('document property','', #28 ) ;
#442 =( LENGTH_UNIT ( ) NAMED_UNIT ( * ) SI_UNIT ( .MILLI., .METRE. ) );
#443 = AXIS2_PLACEMENT_3D ( 'NONE', #576, #235, #270 ) ;
#444 = DOCUMENT_FILE ( '92000A318_Passivated 18-8 Stainless Steel Pan Head Phillips Screws_92000A318.STEP' , '', '', #416, '' ,$ ) ;
#445 = APPLIED_EXTERNAL_IDENTIFICATION_ASSIGNMENT ( 'CASE_930_R1_Btm_INNER_SURFACE.STEP' , #30, #279,( #115) ) ;
#446 = PROPERTY_DEFINITION ('external definition','', #165 ) ;
#447 = PROPERTY_DEFINITION_REPRESENTATION ( #52, #10 ) ;
#448 = PRODUCT_DEFINITION_CONTEXT ( 'detailed design', #252, 'design' ) ;
#449 = AXIS2_PLACEMENT_3D ( 'NONE', #404, #258, #114 ) ;
#450 = DOCUMENT_TYPE ( 'geometry' ) ;
#451 = ITEM_DEFINED_TRANSFORMATION ( 'NONE', 'NONE', #482,  #329 ) ;
#452 = DIRECTION ( 'NONE',  ( 1.000000000000000444, 1.110223024625156787E-16, 0.000000000000000000 ) ) ;
#453 = OBJECT_ROLE ('mandatory',$ ) ;
#454 = ROLE_ASSOCIATION ( #425, #548 ) ;
#455 = AXIS2_PLACEMENT_3D ( 'NONE', #593, #567, #519 ) ;
#456 = DIRECTION ( 'NONE',  ( -3.997490628213730271E-15, -1.816904661026593482E-17, 1.000000000000000000 ) ) ;
#457 = UNCERTAINTY_MEASURE_WITH_UNIT (LENGTH_MEASURE( 1.000000000000000082E-05 ), #138, 'distance_accuracy_value', 'NONE');
#458 = APPLICATION_CONTEXT ( 'automotive_design' ) ;
#459 = DOCUMENT_TYPE ( 'geometry' ) ;
#460 = CARTESIAN_POINT ( 'NONE',  ( -202.6641694391715305, -58.21497645321544212, 136.5495908280201434 ) ) ;
#461 = PRODUCT_DEFINITION_SHAPE ( 'NONE', 'NONE',  #77 ) ;
#462 = ROLE_ASSOCIATION ( #109, #509 ) ;
#463 = DIRECTION ( 'NONE',  ( -2.203124574495671023E-33, -9.921991012749488114E-18, -1.000000000000000000 ) ) ;
#464 = PROPERTY_DEFINITION_REPRESENTATION ( #539, #141 ) ;
#465 = DIRECTION ( 'NONE',  ( -4.857225732735058878E-16, 0.000000000000000000, 1.000000000000000000 ) ) ;
#466 = SHAPE_REPRESENTATION ( 'base_bottom_insert_simplified', ( #443 ), #190 ) ;
#467 = APPLIED_EXTERNAL_IDENTIFICATION_ASSIGNMENT ( 'plate_interface.STEP' , #112, #172,( #314) ) ;
#468 = IDENTIFICATION_ROLE ( 'external document id and location', $) ;
#469 = APPLIED_DOCUMENT_REFERENCE ( #318,'',( #67) ) ;
#470 = PRODUCT_DEFINITION_SHAPE ( 'NONE', 'NONE',  #618 ) ;
#471 = DOCUMENT_TYPE ( 'geometry' ) ;
#472 = UNCERTAINTY_MEASURE_WITH_UNIT (LENGTH_MEASURE( 1.000000000000000082E-05 ), #192, 'distance_accuracy_value', 'NONE');
#473 = APPLICATION_PROTOCOL_DEFINITION ( 'draft international standard', 'automotive_design', 1998, #534 ) ;
#474 = PRODUCT_DEFINITION_SHAPE ( 'NONE', 'NONE',  #614 ) ;
#475 = PROPERTY_DEFINITION_REPRESENTATION ( #90, #549 ) ;
#476 = DOCUMENT_TYPE ( 'geometry' ) ;
#477 = PRODUCT_CONTEXT ( 'NONE', #263, 'mechanical' ) ;
#478 = PROPERTY_DEFINITION_REPRESENTATION ( #320, #466 ) ;
#479 = PRODUCT_DEFINITION_SHAPE ( 'NONE', 'NONE',  #489 ) ;
#480 = PROPERTY_DEFINITION ('document property','', #314 ) ;
#481 =( GEOMETRIC_REPRESENTATION_CONTEXT ( 3 ) GLOBAL_UNCERTAINTY_ASSIGNED_CONTEXT ( ( #457 ) ) GLOBAL_UNIT_ASSIGNED_CONTEXT ( ( #138, #580, #494 ) ) REPRESENTATION_CONTEXT ( 'NONE', 'WORKASPACE' ) );
#482 = AXIS2_PLACEMENT_3D ( 'NONE', #23, #202, #353 ) ;
#483 = APPLICATION_PROTOCOL_DEFINITION ( 'draft international standard', 'automotive_design', 1998, #573 ) ;
#484 =( REPRESENTATION_RELATIONSHIP ('NONE','NONE', #171, #549 ) REPRESENTATION_RELATIONSHIP_WITH_TRANSFORMATION ( #113 )SHAPE_REPRESENTATION_RELATIONSHIP( ) );
#485 = PRODUCT ( 'plate_interface', 'plate_interface', '', ( #477 ) ) ;
#486 = PROPERTY_DEFINITION_REPRESENTATION ( #338, #219 ) ;
#487 = PRODUCT_DEFINITION_FORMATION_WITH_SPECIFIED_SOURCE ( 'Symmetric', '', #285, .NOT_KNOWN. ) ;
#488 = CONTEXT_DEPENDENT_SHAPE_REPRESENTATION ( #373, #184 ) ;
#489 = PRODUCT_DEFINITION ( 'General', '', #487, #550 ) ;
#490 = PROPERTY_DEFINITION ('document property','', #386 ) ;
#491 = APPLICATION_CONTEXT ( 'automotive_design' ) ;
#492 = ROLE_ASSOCIATION ( #340, #98 ) ;
#493 = DOCUMENT_TYPE ( 'geometry' ) ;
#494 =( NAMED_UNIT ( * ) SI_UNIT ( $, .STERADIAN. ) SOLID_ANGLE_UNIT ( ) );
#495 = APPLIED_EXTERNAL_IDENTIFICATION_ASSIGNMENT ( 'feet_rail_simplified.STEP' , #565, #181,( #28) ) ;
#496 =( REPRESENTATION_RELATIONSHIP ('NONE','NONE', #171, #10 ) REPRESENTATION_RELATIONSHIP_WITH_TRANSFORMATION ( #371 )SHAPE_REPRESENTATION_RELATIONSHIP( ) );
#497 = DOCUMENT_FILE ( 'plate_interface.STEP' , '', '', #72, '' ,$ ) ;
#498 = CARTESIAN_POINT ( 'NONE',  ( 35.12869634249157968, 133.1131975050496408, 27.08470950837446978 ) ) ;
#499 = UNCERTAINTY_MEASURE_WITH_UNIT (LENGTH_MEASURE( 1.000000000000000082E-05 ), #13, 'distance_accuracy_value', 'NONE');
#500 = AXIS2_PLACEMENT_3D ( 'NONE', #552, #559, #253 ) ;
#501 = DOCUMENT_TYPE ( 'geometry' ) ;
#502 = DIRECTION ( 'NONE',  ( 2.128172442294058623E-16, 1.000000000000000444, -3.445092848397618710E-16 ) ) ;
#503 = PRODUCT_DEFINITION_SHAPE ( 'NONE', 'NONE',  #50 ) ;
#504 = DOCUMENT_FILE ( 'feet_rail_simplified.STEP' , '', '', #450, '' ,$ ) ;
#505 = APPLIED_EXTERNAL_IDENTIFICATION_ASSIGNMENT ( 'plate_corner_holder.STEP' , #317, #282,( #233) ) ;
#506 = CARTESIAN_POINT ( 'NONE',  ( 178.9430000000000405, -47.94697645321541302, 133.4770000000000323 ) ) ;
#507 = APPLIED_EXTERNAL_IDENTIFICATION_ASSIGNMENT ( 'plate_corner_holder.STEP' , #46, #403,( #386) ) ;
#508 = OBJECT_ROLE ('mandatory',$ ) ;
#509 = APPLIED_DOCUMENT_REFERENCE ( #386,'',( #438) ) ;
#510 = DIRECTION ( 'NONE',  ( 0.2253265275829219871, -2.142551821220780981E-16, -0.9742833037507225846 ) ) ;
#511 = PRODUCT_DEFINITION_SHAPE ( 'NONE', 'NONE',  #607 ) ;
#512 = CARTESIAN_POINT ( 'NONE',  ( -123.6000000000000227, -92.25978265942335099, 24.89682579405290497 ) ) ;
#513 = PRODUCT_DEFINITION_SHAPE ( 'NONE', 'NONE',  #616 ) ;
#514 = PROPERTY_DEFINITION ('external definition','', #444 ) ;
#515 = DOCUMENT_TYPE ( 'geometry' ) ;
#516 = CONTEXT_DEPENDENT_SHAPE_REPRESENTATION ( #22, #126 ) ;
#517 = SHAPE_DEFINITION_REPRESENTATION ( #575, #549 ) ;
#518 = PROPERTY_DEFINITION_REPRESENTATION ( #142, #549 ) ;
#519 = DIRECTION ( 'NONE',  ( 0.000000000000000000, 0.000000000000000000, 1.000000000000000000 ) ) ;
#520 = CARTESIAN_POINT ( 'NONE',  ( 0.000000000000000000, 0.000000000000000000, 0.000000000000000000 ) ) ;
#521 = ROLE_ASSOCIATION ( #286, #377 ) ;
#522 = EXTERNAL_SOURCE (IDENTIFIER('') ) ;
#523 = ITEM_DEFINED_TRANSFORMATION ( 'NONE', 'NONE', #226,  #20 ) ;
#524 =( NAMED_UNIT ( * ) SI_UNIT ( $, .STERADIAN. ) SOLID_ANGLE_UNIT ( ) );
#525 = APPLIED_EXTERNAL_IDENTIFICATION_ASSIGNMENT ( 'feet_assembly.STEP' , #369, #522,( #318) ) ;
#526 = PROPERTY_DEFINITION_REPRESENTATION ( #569, #76 ) ;
#527 = SHAPE_DEFINITION_REPRESENTATION ( #308, #141 ) ;
#528 = PROPERTY_DEFINITION ('external definition','', #12 ) ;
#529 = PROPERTY_DEFINITION ('external definition','', #574 ) ;
#530 = CARTESIAN_POINT ( 'NONE',  ( 0.000000000000000000, 0.000000000000000000, 0.000000000000000000 ) ) ;
#531 = AXIS2_PLACEMENT_3D ( 'NONE', #307, #116, #510 ) ;
#532 = ROLE_ASSOCIATION ( #57, #337 ) ;
#533 = DIRECTION ( 'NONE',  ( 0.000000000000000000, 0.000000000000000000, 1.000000000000000000 ) ) ;
#534 = APPLICATION_CONTEXT ( 'automotive_design' ) ;
#535 = PROPERTY_DEFINITION ('document property','', #198 ) ;
#536 = ITEM_DEFINED_TRANSFORMATION ( 'NONE', 'NONE', #97,  #180 ) ;
#537 = OBJECT_ROLE ('mandatory',$ ) ;
#538 = PROPERTY_DEFINITION_REPRESENTATION ( #237, #219 ) ;
#539 = PROPERTY_DEFINITION ('external definition','', #28 ) ;
#540 =( REPRESENTATION_RELATIONSHIP ('NONE','NONE', #171, #466 ) REPRESENTATION_RELATIONSHIP_WITH_TRANSFORMATION ( #111 )SHAPE_REPRESENTATION_RELATIONSHIP( ) );
#541 = PROPERTY_DEFINITION_REPRESENTATION ( #179, #219 ) ;
#542 =( NAMED_UNIT ( * ) SI_UNIT ( $, .STERADIAN. ) SOLID_ANGLE_UNIT ( ) );
#543 = UNCERTAINTY_MEASURE_WITH_UNIT (LENGTH_MEASURE( 1.000000000000000082E-05 ), #87, 'distance_accuracy_value', 'NONE');
#544 = PROPERTY_DEFINITION_REPRESENTATION ( #6, #466 ) ;
#545 = OBJECT_ROLE ('mandatory',$ ) ;
#546 =( NAMED_UNIT ( * ) PLANE_ANGLE_UNIT ( ) SI_UNIT ( $, .RADIAN. ) );
#547 =( REPRESENTATION_RELATIONSHIP ('NONE','NONE', #171, #219 ) REPRESENTATION_RELATIONSHIP_WITH_TRANSFORMATION ( #110 )SHAPE_REPRESENTATION_RELATIONSHIP( ) );
#548 = APPLIED_DOCUMENT_REFERENCE ( #504,'',( #216) ) ;
#549 = SHAPE_REPRESENTATION ( 'feet_assembly', ( #176 ), #578 ) ;
#550 = PRODUCT_DEFINITION_CONTEXT ( 'detailed design', #128, 'design' ) ;
#551 = CONTEXT_DEPENDENT_SHAPE_REPRESENTATION ( #104, #405 ) ;
#552 = CARTESIAN_POINT ( 'NONE',  ( -178.9430000000000405, -47.94697645321551249, -133.4769999999999186 ) ) ;
#553 = PRODUCT_DEFINITION_SHAPE ( 'NONE', 'NONE',  #602 ) ;
#554 = OBJECT_ROLE ('mandatory',$ ) ;
#555 = CARTESIAN_POINT ( 'NONE',  ( -1.022714047752651389E-14, -48.05597645321546452, -2.424088468892160221E-15 ) ) ;
#556 =( GEOMETRIC_REPRESENTATION_CONTEXT ( 3 ) GLOBAL_UNCERTAINTY_ASSIGNED_CONTEXT ( ( #71 ) ) GLOBAL_UNIT_ASSIGNED_CONTEXT ( ( #228, #91, #272 ) ) REPRESENTATION_CONTEXT ( 'NONE', 'WORKASPACE' ) );
#557 = AXIS2_PLACEMENT_3D ( 'NONE', #530, #241, #60 ) ;
#558 = PROPERTY_DEFINITION_REPRESENTATION ( #582, #10 ) ;
#559 = DIRECTION ( 'NONE',  ( 2.412207527019894279E-16, 1.000000000000000222, -1.029192989104500503E-16 ) ) ;
#560 = PROPERTY_DEFINITION ('document property','', #260 ) ;
#561 = AXIS2_PLACEMENT_3D ( 'NONE', #79, #465, #32 ) ;
#562 = EXTERNAL_SOURCE (IDENTIFIER('') ) ;
#563 = APPLICATION_PROTOCOL_DEFINITION ( 'draft international standard', 'automotive_design', 1998, #193 ) ;
#564 = APPLIED_EXTERNAL_IDENTIFICATION_ASSIGNMENT ( 'plate_corner_holder.STEP' , #155, #83,( #198) ) ;
#565 = IDENTIFICATION_ROLE ( 'external document id and location', $) ;
#566 = DIRECTION ( 'NONE',  ( 1.000000000000000000, 0.000000000000000000, 0.000000000000000000 ) ) ;
#567 = DIRECTION ( 'NONE',  ( 1.000000000000000444, 1.110223024625156787E-16, 0.000000000000000000 ) ) ;
#568 = PRODUCT_DEFINITION_SHAPE ( 'NONE', 'NONE',  #131 ) ;
#569 = PROPERTY_DEFINITION ('external definition','', #367 ) ;
#570 = ITEM_DEFINED_TRANSFORMATION ( 'NONE', 'NONE', #173,  #232 ) ;
#571 =( NAMED_UNIT ( * ) SI_UNIT ( $, .STERADIAN. ) SOLID_ANGLE_UNIT ( ) );
#572 = DOCUMENT_TYPE ( 'geometry' ) ;
#573 = APPLICATION_CONTEXT ( 'automotive_design' ) ;
#574 = DOCUMENT_FILE ( 'plate_corner_holder.STEP' , '', '', #476, '' ,$ ) ;
#575 = PRODUCT_DEFINITION_SHAPE ( 'NONE', 'NONE',  #67 ) ;
#576 = CARTESIAN_POINT ( 'NONE',  ( 0.000000000000000000, 0.000000000000000000, 0.000000000000000000 ) ) ;
#577 = OBJECT_ROLE ('mandatory',$ ) ;
#578 =( GEOMETRIC_REPRESENTATION_CONTEXT ( 3 ) GLOBAL_UNCERTAINTY_ASSIGNED_CONTEXT ( ( #397 ) ) GLOBAL_UNIT_ASSIGNED_CONTEXT ( ( #348, #546, #103 ) ) REPRESENTATION_CONTEXT ( 'NONE', 'WORKASPACE' ) );
#579 = PROPERTY_DEFINITION_REPRESENTATION ( #332, #10 ) ;
#580 =( NAMED_UNIT ( * ) PLANE_ANGLE_UNIT ( ) SI_UNIT ( $, .RADIAN. ) );
#581 = OBJECT_ROLE ('mandatory',$ ) ;
#582 = PROPERTY_DEFINITION ('external definition','', #386 ) ;
#583 = DIRECTION ( 'NONE',  ( 1.000000000000000444, 9.227360695625447339E-18, -1.017949417668901589E-16 ) ) ;
#584 = SHAPE_REPRESENTATION ( 'CASE_930_R1_Btm_INNER_SURFACE', ( #329 ), #481 ) ;
#585 = EXTERNAL_SOURCE (IDENTIFIER('') ) ;
#586 = APPLIED_EXTERNAL_IDENTIFICATION_ASSIGNMENT ( 'feet_assembly.STEP' , #153, #585,( #165) ) ;
#587 =( GEOMETRIC_REPRESENTATION_CONTEXT ( 3 ) GLOBAL_UNCERTAINTY_ASSIGNED_CONTEXT ( ( #472 ) ) GLOBAL_UNIT_ASSIGNED_CONTEXT ( ( #192, #290, #542 ) ) REPRESENTATION_CONTEXT ( 'NONE', 'WORKASPACE' ) );
#588 = PROPERTY_DEFINITION_REPRESENTATION ( #55, #219 ) ;
#589 =( NAMED_UNIT ( * ) SI_UNIT ( $, .STERADIAN. ) SOLID_ANGLE_UNIT ( ) );
#590 = ITEM_DEFINED_TRANSFORMATION ( 'NONE', 'NONE', #316,  #20 ) ;
#591 = CONTEXT_DEPENDENT_SHAPE_REPRESENTATION ( #389, #230 ) ;
#592 = APPLICATION_CONTEXT ( 'automotive_design' ) ;
#593 = CARTESIAN_POINT ( 'NONE',  ( -333.6000000000001364, -92.35978265942337373, 24.89682579405290497 ) ) ;
#594 =( REPRESENTATION_RELATIONSHIP ('NONE','NONE', #171, #141 ) REPRESENTATION_RELATIONSHIP_WITH_TRANSFORMATION ( #74 )SHAPE_REPRESENTATION_RELATIONSHIP( ) );
#595 = ITEM_DEFINED_TRANSFORMATION ( 'NONE', 'NONE', #220,  #557 ) ;
#596 = DIRECTION ( 'NONE',  ( -1.734723475976807711E-17, 2.096368035774911364E-22, 1.000000000000000000 ) ) ;
#597 = APPLIED_DOCUMENT_REFERENCE ( #165,'',( #67) ) ;
#598 = EXTERNAL_SOURCE (IDENTIFIER('') ) ;
#599 = NEXT_ASSEMBLY_USAGE_OCCURRENCE ( 'NAUO96', ' ', ' ', #77, #438, $ ) ;
#600 = NEXT_ASSEMBLY_USAGE_OCCURRENCE ( 'NAUO97', ' ', ' ', #77, #438, $ ) ;
#601 = NEXT_ASSEMBLY_USAGE_OCCURRENCE ( 'NAUO98', ' ', ' ', #77, #40, $ ) ;
#602 = NEXT_ASSEMBLY_USAGE_OCCURRENCE ( 'NAUO99', ' ', ' ', #77, #438, $ ) ;
#603 = NEXT_ASSEMBLY_USAGE_OCCURRENCE ( 'NAUO100', ' ', ' ', #77, #255, $ ) ;
#604 = NEXT_ASSEMBLY_USAGE_OCCURRENCE ( 'NAUO101', ' ', ' ', #77, #40, $ ) ;
#605 = NEXT_ASSEMBLY_USAGE_OCCURRENCE ( 'NAUO102', ' ', ' ', #77, #40, $ ) ;
#606 = NEXT_ASSEMBLY_USAGE_OCCURRENCE ( 'NAUO103', ' ', ' ', #77, #40, $ ) ;
#607 = NEXT_ASSEMBLY_USAGE_OCCURRENCE ( 'NAUO104', ' ', ' ', #77, #438, $ ) ;
#608 = NEXT_ASSEMBLY_USAGE_OCCURRENCE ( 'NAUO105', ' ', ' ', #77, #489, $ ) ;
#609 = NEXT_ASSEMBLY_USAGE_OCCURRENCE ( 'NAUO106', ' ', ' ', #77, #131, $ ) ;
#610 = NEXT_ASSEMBLY_USAGE_OCCURRENCE ( 'NAUO107', ' ', ' ', #77, #216, $ ) ;
#611 = NEXT_ASSEMBLY_USAGE_OCCURRENCE ( 'NAUO108', ' ', ' ', #77, #216, $ ) ;
#612 = NEXT_ASSEMBLY_USAGE_OCCURRENCE ( 'NAUO109', ' ', ' ', #77, #67, $ ) ;
#613 = NEXT_ASSEMBLY_USAGE_OCCURRENCE ( 'NAUO110', ' ', ' ', #77, #255, $ ) ;
#614 = NEXT_ASSEMBLY_USAGE_OCCURRENCE ( 'NAUO111', ' ', ' ', #77, #131, $ ) ;
#615 = NEXT_ASSEMBLY_USAGE_OCCURRENCE ( 'NAUO112', ' ', ' ', #77, #131, $ ) ;
#616 = NEXT_ASSEMBLY_USAGE_OCCURRENCE ( 'NAUO113', ' ', ' ', #77, #131, $ ) ;
#617 = NEXT_ASSEMBLY_USAGE_OCCURRENCE ( 'NAUO114', ' ', ' ', #77, #50, $ ) ;
#618 = NEXT_ASSEMBLY_USAGE_OCCURRENCE ( 'NAUO115', ' ', ' ', #77, #67, $ ) ;
ENDSEC;
END-ISO-10303-21;
