ISO-10303-21;
HEADER;
FILE_DESCRIPTION (( 'STEP AP214' ),
    '1' );
FILE_NAME ('feet_rail_simplified.STEP',
    '2026-09-04T22:08:38',
    ( '' ),
    ( '' ),
    'SwSTEP 2.0',
    'SolidWorks 2026',
    '' );
FILE_SCHEMA (( 'AUTOMOTIVE_DESIGN' ));
ENDSEC;

DATA;
#1 = EDGE_LOOP ( 'NONE', ( #810, #249 ) ) ;
#2 =( NAMED_UNIT ( * ) PLANE_ANGLE_UNIT ( ) SI_UNIT ( $, .RADIAN. ) );
#3 = EDGE_CURVE ( 'NONE', #478, #397, #862, .T. ) ;
#4 = ORIENTED_EDGE ( 'NONE', *, *, #838, .F. ) ;
#5 = FACE_BOUND ( 'NONE', #162, .T. ) ;
#6 = VECTOR ( 'NONE', #264, 1000.000000000000000 ) ;
#7 = VERTEX_POINT ( 'NONE', #768 ) ;
#8 = UNCERTAINTY_MEASURE_WITH_UNIT (LENGTH_MEASURE( 1.000000000000000082E-05 ), #1048, 'distance_accuracy_value', 'NONE');
#9 = ORIENTED_EDGE ( 'NONE', *, *, #242, .F. ) ;
#10 = DIRECTION ( 'NONE',  ( -0.000000000000000000, -1.000000000000000000, -0.000000000000000000 ) ) ;
#11 = ADVANCED_FACE ( 'NONE', ( #198 ), #1010, .T. ) ;
#12 = ORIENTED_EDGE ( 'NONE', *, *, #482, .F. ) ;
#13 = ORIENTED_EDGE ( 'NONE', *, *, #829, .F. ) ;
#14 = LINE ( 'NONE', #90, #855 ) ;
#15 = AXIS2_PLACEMENT_3D ( 'NONE', #212, #126, #450 ) ;
#16 = CARTESIAN_POINT ( 'NONE',  ( -105.0000000000000000, 8.000000000000000000, -86.60000000000006537 ) ) ;
#17 = ADVANCED_FACE ( 'NONE', ( #1028 ), #850, .F. ) ;
#18 = DIRECTION ( 'NONE',  ( 1.000000000000000000, 0.000000000000000000, -0.000000000000000000 ) ) ;
#19 = EDGE_LOOP ( 'NONE', ( #76, #836, #851, #193 ) ) ;
#20 = CARTESIAN_POINT ( 'NONE',  ( -116.1522701576892871, 8.000000000000000000, -91.56870545094447778 ) ) ;
#21 = DIRECTION ( 'NONE',  ( -0.000000000000000000, -1.000000000000000000, -0.000000000000000000 ) ) ;
#22 = VERTEX_POINT ( 'NONE', #525 ) ;
#23 = CARTESIAN_POINT ( 'NONE',  ( 105.0000000000000000, 0.000000000000000000, -101.6000000000000512 ) ) ;
#24 = DIRECTION ( 'NONE',  ( 0.000000000000000000, 1.000000000000000000, 0.000000000000000000 ) ) ;
#25 = EDGE_CURVE ( 'NONE', #1007, #1077, #352, .T. ) ;
#26 = DIRECTION ( 'NONE',  ( -0.000000000000000000, -1.000000000000000000, -0.000000000000000000 ) ) ;
#27 = EDGE_LOOP ( 'NONE', ( #971, #858, #882, #755 ) ) ;
#28 = CLOSED_SHELL ( 'NONE', ( #190, #96, #74, #522, #232, #306, #679, #554, #1025, #973, #80, #797, #703, #356, #239, #688 ) ) ;
#29 = DIRECTION ( 'NONE',  ( 0.000000000000000000, 0.000000000000000000, -1.000000000000000000 ) ) ;
#30 = DIRECTION ( 'NONE',  ( -0.000000000000000000, -1.000000000000000000, -0.000000000000000000 ) ) ;
#31 = AXIS2_PLACEMENT_3D ( 'NONE', #762, #588, #674 ) ;
#32 = CARTESIAN_POINT ( 'NONE',  ( -134.3999999999999773, 8.000000000000000000, -140.4000000000000341 ) ) ;
#33 = ORIENTED_EDGE ( 'NONE', *, *, #535, .T. ) ;
#34 = CARTESIAN_POINT ( 'NONE',  ( -151.0522701576892644, 8.000000000000000000, -130.3687054509444465 ) ) ;
#35 = AXIS2_PLACEMENT_3D ( 'NONE', #322, #21, #830 ) ;
#36 = CARTESIAN_POINT ( 'NONE',  ( -105.0000000000000000, 0.000000000000000000, -86.60000000000006537 ) ) ;
#37 =( GEOMETRIC_REPRESENTATION_CONTEXT ( 3 ) GLOBAL_UNCERTAINTY_ASSIGNED_CONTEXT ( ( #377 ) ) GLOBAL_UNIT_ASSIGNED_CONTEXT ( ( #357, #273, #610 ) ) REPRESENTATION_CONTEXT ( 'NONE', 'WORKASPACE' ) );
#38 = FACE_OUTER_BOUND ( 'NONE', #742, .T. ) ;
#39 = ORIENTED_EDGE ( 'NONE', *, *, #959, .F. ) ;
#40 = DIRECTION ( 'NONE',  ( 0.000000000000000000, 1.000000000000000000, 0.000000000000000000 ) ) ;
#41 = EDGE_CURVE ( 'NONE', #921, #601, #784, .T. ) ;
#42 = DIRECTION ( 'NONE',  ( 0.000000000000000000, 0.000000000000000000, 1.000000000000000000 ) ) ;
#43 = DIRECTION ( 'NONE',  ( 0.000000000000000000, 1.000000000000000000, 0.000000000000000000 ) ) ;
#44 = ORIENTED_EDGE ( 'NONE', *, *, #808, .F. ) ;
#45 = DIRECTION ( 'NONE',  ( -0.000000000000000000, -1.000000000000000000, -0.000000000000000000 ) ) ;
#46 = CARTESIAN_POINT ( 'NONE',  ( -151.0522701576892928, 0.000000000000000000, -130.3687054509444465 ) ) ;
#47 = CIRCLE ( 'NONE', #1036, 14.99999999999998579 ) ;
#48 = VECTOR ( 'NONE', #1043, 1000.000000000000000 ) ;
#49 = DIRECTION ( 'NONE',  ( -0.000000000000000000, -1.000000000000000000, -0.000000000000000000 ) ) ;
#50 = ORIENTED_EDGE ( 'NONE', *, *, #491, .T. ) ;
#51 = FACE_OUTER_BOUND ( 'NONE', #304, .T. ) ;
#52 = DIRECTION ( 'NONE',  ( 0.000000000000000000, 0.000000000000000000, 1.000000000000000000 ) ) ;
#53 = CARTESIAN_POINT ( 'NONE',  ( 92.97060640761097261, 8.000000000000000000, -101.6000000000000369 ) ) ;
#54 = MECHANICAL_DESIGN_GEOMETRIC_PRESENTATION_REPRESENTATION (  '', ( #994 ), #741 ) ;
#55 = AXIS2_PLACEMENT_3D ( 'NONE', #163, #430, #677 ) ;
#56 = ORIENTED_EDGE ( 'NONE', *, *, #930, .F. ) ;
#57 = LINE ( 'NONE', #718, #382 ) ;
#58 = FACE_OUTER_BOUND ( 'NONE', #1074, .T. ) ;
#59 = FILL_AREA_STYLE ('',( #396 ) ) ;
#60 = EDGE_CURVE ( 'NONE', #81, #542, #763, .T. ) ;
#61 = VERTEX_POINT ( 'NONE', #693 ) ;
#62 = DIRECTION ( 'NONE',  ( 1.000000000000000000, -0.000000000000000000, -6.608470384673548312E-17 ) ) ;
#63 = CARTESIAN_POINT ( 'NONE',  ( -139.8999999999999773, 8.000000000000000000, -155.4000000000000057 ) ) ;
#64 = PRODUCT_DEFINITION_FORMATION_WITH_SPECIFIED_SOURCE ( 'Symmetric', '', #444, .NOT_KNOWN. ) ;
#65 = FACE_OUTER_BOUND ( 'NONE', #940, .T. ) ;
#66 = CIRCLE ( 'NONE', #579, 14.99999999999998579 ) ;
#67 = ORIENTED_EDGE ( 'NONE', *, *, #315, .F. ) ;
#68 = PLANE ( 'NONE',  #710 ) ;
#69 = DIRECTION ( 'NONE',  ( -1.000000000000000000, 0.000000000000000000, 6.608470384673549545E-17 ) ) ;
#70 = LINE ( 'NONE', #523, #409 ) ;
#71 = ORIENTED_EDGE ( 'NONE', *, *, #196, .F. ) ;
#72 = VERTEX_POINT ( 'NONE', #285 ) ;
#73 = CARTESIAN_POINT ( 'NONE',  ( 105.0000000000000853, 8.000000000000000000, -86.60000000000007958 ) ) ;
#74 = ADVANCED_FACE ( 'NONE', ( #786 ), #1022, .F. ) ;
#75 = LINE ( 'NONE', #902, #1060 ) ;
#76 = ORIENTED_EDGE ( 'NONE', *, *, #117, .T. ) ;
#77 =( NAMED_UNIT ( * ) SI_UNIT ( $, .STERADIAN. ) SOLID_ANGLE_UNIT ( ) );
#78 = ORIENTED_EDGE ( 'NONE', *, *, #188, .F. ) ;
#79 = CARTESIAN_POINT ( 'NONE',  ( 139.9000000000000341, 0.000000000000000000, -155.4000000000000341 ) ) ;
#80 = ADVANCED_FACE ( 'NONE', ( #92 ), #106, .T. ) ;
#81 = VERTEX_POINT ( 'NONE', #621 ) ;
#82 =( LENGTH_UNIT ( ) NAMED_UNIT ( * ) SI_UNIT ( .MILLI., .METRE. ) );
#83 = ORIENTED_EDGE ( 'NONE', *, *, #60, .T. ) ;
#84 = AXIS2_PLACEMENT_3D ( 'NONE', #539, #869, #457 ) ;
#85 = CARTESIAN_POINT ( 'NONE',  ( -151.0522701576892928, 8.000000000000000000, -130.3687054509444465 ) ) ;
#86 = CIRCLE ( 'NONE', #737, 12.00000000000001066 ) ;
#87 = EDGE_CURVE ( 'NONE', #455, #81, #255, .T. ) ;
#88 = ORIENTED_EDGE ( 'NONE', *, *, #898, .F. ) ;
#89 = EDGE_LOOP ( 'NONE', ( #348, #358 ) ) ;
#90 = CARTESIAN_POINT ( 'NONE',  ( 134.4000000000000057, 8.000000000000000000, -137.1500000000000341 ) ) ;
#91 = CIRCLE ( 'NONE', #55, 2.999999999999988898 ) ;
#92 = FACE_OUTER_BOUND ( 'NONE', #908, .T. ) ;
#93 = PRODUCT_CONTEXT ( 'NONE', #345, 'mechanical' ) ;
#94 = UNCERTAINTY_MEASURE_WITH_UNIT (LENGTH_MEASURE( 1.000000000000000082E-05 ), #920, 'distance_accuracy_value', 'NONE');
#95 = ORIENTED_EDGE ( 'NONE', *, *, #491, .F. ) ;
#96 = ADVANCED_FACE ( 'NONE', ( #935 ), #366, .F. ) ;
#97 = CYLINDRICAL_SURFACE ( 'NONE', #428, 14.99999999999998579 ) ;
#98 = PRODUCT_DEFINITION ( 'General', '', #64, #715 ) ;
#99 = CYLINDRICAL_SURFACE ( 'NONE', #1065, 3.250000000000002665 ) ;
#100 = MANIFOLD_SOLID_BREP ( 'Cut-Extrude1[2]', #28 ) ;
#101 = EDGE_LOOP ( 'NONE', ( #88, #241, #676, #294 ) ) ;
#102 = CARTESIAN_POINT ( 'NONE',  ( -101.8924225337624137, 8.000000000000000000, -120.5749643607555726 ) ) ;
#103 = VECTOR ( 'NONE', #364, 1000.000000000000000 ) ;
#104 = AXIS2_PLACEMENT_3D ( 'NONE', #73, #733, #69 ) ;
#105 = CYLINDRICAL_SURFACE ( 'NONE', #319, 3.250000000000002665 ) ;
#106 = CYLINDRICAL_SURFACE ( 'NONE', #401, 14.99999999999998579 ) ;
#107 = ORIENTED_EDGE ( 'NONE', *, *, #626, .T. ) ;
#108 = DIRECTION ( 'NONE',  ( 0.000000000000000000, 1.000000000000000000, 0.000000000000000000 ) ) ;
#109 = CARTESIAN_POINT ( 'NONE',  ( 145.4000000000000341, 0.000000000000000000, -137.1500000000000341 ) ) ;
#110 = MANIFOLD_SOLID_BREP ( 'Cut-Extrude1[1]', #344 ) ;
#111 = EDGE_CURVE ( 'NONE', #119, #986, #266, .T. ) ;
#112 = VECTOR ( 'NONE', #983, 1000.000000000000000 ) ;
#113 = CARTESIAN_POINT ( 'NONE',  ( -92.97060640761097261, 0.000000000000000000, -86.60000000000005116 ) ) ;
#114 = ORIENTED_EDGE ( 'NONE', *, *, #421, .T. ) ;
#115 = DIRECTION ( 'NONE',  ( -0.000000000000000000, -1.000000000000000000, -0.000000000000000000 ) ) ;
#116 = FACE_OUTER_BOUND ( 'NONE', #405, .T. ) ;
#117 = EDGE_CURVE ( 'NONE', #414, #963, #372, .T. ) ;
#118 = DIRECTION ( 'NONE',  ( -0.000000000000000000, -1.000000000000000000, -0.000000000000000000 ) ) ;
#119 = VERTEX_POINT ( 'NONE', #975 ) ;
#120 = AXIS2_PLACEMENT_3D ( 'NONE', #943, #699, #536 ) ;
#121 = DIRECTION ( 'NONE',  ( -0.000000000000000000, -1.000000000000000000, -0.000000000000000000 ) ) ;
#122 = CARTESIAN_POINT ( 'NONE',  ( -92.97060640761097261, 8.000000000000000000, -128.6000000000000512 ) ) ;
#123 = AXIS2_PLACEMENT_3D ( 'NONE', #218, #1042, #970 ) ;
#124 = EDGE_CURVE ( 'NONE', #72, #300, #640, .T. ) ;
#125 = ORIENTED_EDGE ( 'NONE', *, *, #1011, .T. ) ;
#126 = DIRECTION ( 'NONE',  ( -0.7434846771792871234, 0.000000000000000000, 0.6687529699370399205 ) ) ;
#127 = CIRCLE ( 'NONE', #791, 11.99999999999999645 ) ;
#128 = CARTESIAN_POINT ( 'NONE',  ( 139.9000000000000341, 0.000000000000000000, -140.4000000000000341 ) ) ;
#129 = DIRECTION ( 'NONE',  ( 1.000000000000000000, -0.000000000000000000, -0.000000000000000000 ) ) ;
#130 = AXIS2_PLACEMENT_3D ( 'NONE', #378, #1040, #477 ) ;
#131 = ORIENTED_EDGE ( 'NONE', *, *, #966, .T. ) ;
#132 = FACE_OUTER_BOUND ( 'NONE', #1049, .T. ) ;
#133 = EDGE_CURVE ( 'NONE', #564, #158, #516, .T. ) ;
#134 = DIRECTION ( 'NONE',  ( 1.000000000000000000, -0.000000000000000000, -6.608470384673548312E-17 ) ) ;
#135 = LINE ( 'NONE', #802, #1012 ) ;
#136 = VERTEX_POINT ( 'NONE', #954 ) ;
#137 = CARTESIAN_POINT ( 'NONE',  ( -92.97060640761097261, 8.000000000000000000, -101.6000000000000369 ) ) ;
#138 = LINE ( 'NONE', #472, #944 ) ;
#139 = CIRCLE ( 'NONE', #906, 2.999999999999960920 ) ;
#140 = VECTOR ( 'NONE', #292, 1000.000000000000000 ) ;
#141 = ORIENTED_EDGE ( 'NONE', *, *, #275, .F. ) ;
#142 = CARTESIAN_POINT ( 'NONE',  ( 92.97060640761097261, 8.000000000000000000, -116.6000000000000227 ) ) ;
#143 = DIRECTION ( 'NONE',  ( 0.000000000000000000, 1.000000000000000000, 0.000000000000000000 ) ) ;
#144 = ADVANCED_FACE ( 'NONE', ( #38 ), #390, .F. ) ;
#145 = PLANE ( 'NONE',  #979 ) ;
#146 = CIRCLE ( 'NONE', #1029, 3.250000000000002665 ) ;
#147 = ORIENTED_EDGE ( 'NONE', *, *, #391, .T. ) ;
#148 = DIRECTION ( 'NONE',  ( 0.000000000000000000, 0.000000000000000000, 1.000000000000000000 ) ) ;
#149 = CARTESIAN_POINT ( 'NONE',  ( 105.0000000000000853, 8.000000000000000000, -86.60000000000007958 ) ) ;
#150 = CARTESIAN_POINT ( 'NONE',  ( 92.97060640761097261, 8.000000000000000000, -128.6000000000000512 ) ) ;
#151 = ORIENTED_EDGE ( 'NONE', *, *, #512, .T. ) ;
#152 = FACE_OUTER_BOUND ( 'NONE', #531, .T. ) ;
#153 = DIRECTION ( 'NONE',  ( -0.000000000000000000, -1.000000000000000000, -0.000000000000000000 ) ) ;
#154 = CARTESIAN_POINT ( 'NONE',  ( 134.4000000000000057, 0.000000000000000000, -140.4000000000000341 ) ) ;
#155 = VECTOR ( 'NONE', #548, 1000.000000000000000 ) ;
#156 = ORIENTED_EDGE ( 'NONE', *, *, #959, .T. ) ;
#157 = EDGE_CURVE ( 'NONE', #455, #332, #545, .T. ) ;
#158 = VERTEX_POINT ( 'NONE', #881 ) ;
#159 = CARTESIAN_POINT ( 'NONE',  ( -139.8999999999999773, 0.000000000000000000, -155.4000000000000057 ) ) ;
#160 = CARTESIAN_POINT ( 'NONE',  ( -145.3999999999999773, 8.000000000000000000, -137.1500000000000341 ) ) ;
#161 = VERTEX_POINT ( 'NONE', #373 ) ;
#162 = EDGE_LOOP ( 'NONE', ( #251, #258 ) ) ;
#163 = CARTESIAN_POINT ( 'NONE',  ( -105.0000000000000000, 8.000000000000000000, -101.6000000000000512 ) ) ;
#164 = ORIENTED_EDGE ( 'NONE', *, *, #760, .F. ) ;
#165 = FILL_AREA_STYLE_COLOUR ( '', #204 ) ;
#166 = ORIENTED_EDGE ( 'NONE', *, *, #936, .F. ) ;
#167 = PLANE ( 'NONE',  #619 ) ;
#168 = VECTOR ( 'NONE', #443, 1000.000000000000000 ) ;
#169 = CIRCLE ( 'NONE', #189, 14.99999999999998579 ) ;
#170 = ORIENTED_EDGE ( 'NONE', *, *, #299, .T. ) ;
#171 = PRESENTATION_STYLE_ASSIGNMENT (( #754 ) ) ;
#172 = ORIENTED_EDGE ( 'NONE', *, *, #936, .T. ) ;
#173 = CARTESIAN_POINT ( 'NONE',  ( -105.0000000000000000, 8.000000000000000000, -98.60000000000006537 ) ) ;
#174 = ADVANCED_FACE ( 'NONE', ( #632 ), #145, .T. ) ;
#175 = VERTEX_POINT ( 'NONE', #1044 ) ;
#176 = AXIS2_PLACEMENT_3D ( 'NONE', #949, #857, #203 ) ;
#177 = ORIENTED_EDGE ( 'NONE', *, *, #546, .T. ) ;
#178 = CARTESIAN_POINT ( 'NONE',  ( 92.97060640761097261, 0.000000000000000000, -101.6000000000000369 ) ) ;
#179 = DIRECTION ( 'NONE',  ( 0.000000000000000000, 0.000000000000000000, -1.000000000000000000 ) ) ;
#180 = AXIS2_PLACEMENT_3D ( 'NONE', #310, #958, #550 ) ;
#181 = DIRECTION ( 'NONE',  ( 0.000000000000000000, 0.000000000000000000, 1.000000000000000000 ) ) ;
#182 = EDGE_LOOP ( 'NONE', ( #587, #67, #514, #732 ) ) ;
#183 = DIRECTION ( 'NONE',  ( 0.000000000000000000, 1.000000000000000000, 0.000000000000000000 ) ) ;
#184 = CARTESIAN_POINT ( 'NONE',  ( -151.0522701576892644, 0.000000000000000000, -130.3687054509444465 ) ) ;
#185 = SURFACE_STYLE_FILL_AREA ( #347 ) ;
#186 = ORIENTED_EDGE ( 'NONE', *, *, #583, .F. ) ;
#187 = PLANE ( 'NONE',  #15 ) ;
#188 = EDGE_CURVE ( 'NONE', #205, #564, #727, .T. ) ;
#189 = AXIS2_PLACEMENT_3D ( 'NONE', #618, #1024, #281 ) ;
#190 = ADVANCED_FACE ( 'NONE', ( #464 ), #1053, .T. ) ;
#191 = CIRCLE ( 'NONE', #806, 14.99999999999998579 ) ;
#192 = DIRECTION ( 'NONE',  ( -0.6687529699370405867, -0.000000000000000000, 0.7434846771792865683 ) ) ;
#193 = ORIENTED_EDGE ( 'NONE', *, *, #822, .T. ) ;
#194 = CARTESIAN_POINT ( 'NONE',  ( -139.8999999999999773, 0.000000000000000000, -140.4000000000000341 ) ) ;
#195 = DIRECTION ( 'NONE',  ( -0.000000000000000000, -1.000000000000000000, -0.000000000000000000 ) ) ;
#196 = EDGE_CURVE ( 'NONE', #729, #341, #135, .T. ) ;
#197 = VECTOR ( 'NONE', #828, 1000.000000000000000 ) ;
#198 = FACE_OUTER_BOUND ( 'NONE', #960, .T. ) ;
#199 = ORIENTED_EDGE ( 'NONE', *, *, #475, .F. ) ;
#200 = DIRECTION ( 'NONE',  ( 0.000000000000000000, 0.000000000000000000, 1.000000000000000000 ) ) ;
#201 = DIRECTION ( 'NONE',  ( 0.000000000000000000, 1.000000000000000000, 0.000000000000000000 ) ) ;
#202 = EDGE_CURVE ( 'NONE', #654, #300, #413, .T. ) ;
#203 = DIRECTION ( 'NONE',  ( 0.000000000000000000, 0.000000000000000000, -1.000000000000000000 ) ) ;
#204 = COLOUR_RGB ( '',0.4980392156862745168, 0.4980392156862745168, 0.4980392156862745168 ) ;
#205 = VERTEX_POINT ( 'NONE', #1015 ) ;
#206 = CARTESIAN_POINT ( 'NONE',  ( 101.8924225337623994, 0.000000000000000000, -120.5749643607555726 ) ) ;
#207 = CARTESIAN_POINT ( 'NONE',  ( -139.8999999999999773, 8.000000000000000000, -140.4000000000000341 ) ) ;
#208 = VECTOR ( 'NONE', #62, 1000.000000000000000 ) ;
#209 = DIRECTION ( 'NONE',  ( -0.000000000000000000, -1.000000000000000000, -0.000000000000000000 ) ) ;
#210 = PRODUCT_RELATED_PRODUCT_CATEGORY ( 'part', '', ( #444 ) ) ;
#211 = ORIENTED_EDGE ( 'NONE', *, *, #778, .T. ) ;
#212 = CARTESIAN_POINT ( 'NONE',  ( -128.7477298423106333, 8.000000000000000000, -150.4312945490555933 ) ) ;
#213 = CARTESIAN_POINT ( 'NONE',  ( 116.1522701576892871, 8.000000000000000000, -91.56870545094444935 ) ) ;
#214 = ORIENTED_EDGE ( 'NONE', *, *, #709, .T. ) ;
#215 = DIRECTION ( 'NONE',  ( -1.000000000000000000, -0.000000000000000000, -0.000000000000000000 ) ) ;
#216 = DIRECTION ( 'NONE',  ( 0.000000000000000000, 0.000000000000000000, 1.000000000000000000 ) ) ;
#217 = ORIENTED_EDGE ( 'NONE', *, *, #898, .T. ) ;
#218 = CARTESIAN_POINT ( 'NONE',  ( 101.8924225337623994, 8.000000000000000000, -120.5749643607555726 ) ) ;
#219 = ADVANCED_FACE ( 'NONE', ( #604 ), #99, .F. ) ;
#220 = CARTESIAN_POINT ( 'NONE',  ( -145.3999999999999773, 8.000000000000000000, -137.1500000000000341 ) ) ;
#221 = CARTESIAN_POINT ( 'NONE',  ( -105.0000000000000000, 8.000000000000000000, -101.6000000000000512 ) ) ;
#222 = VERTEX_POINT ( 'NONE', #160 ) ;
#223 = DIRECTION ( 'NONE',  ( 0.000000000000000000, 0.000000000000000000, -1.000000000000000000 ) ) ;
#224 = CARTESIAN_POINT ( 'NONE',  ( -145.3999999999999773, 0.000000000000000000, -137.1500000000000341 ) ) ;
#225 = AXIS2_PLACEMENT_3D ( 'NONE', #790, #201, #615 ) ;
#226 = SURFACE_STYLE_FILL_AREA ( #59 ) ;
#227 = ORIENTED_EDGE ( 'NONE', *, *, #1011, .F. ) ;
#228 = CARTESIAN_POINT ( 'NONE',  ( 105.0000000000000853, 0.000000000000000000, -86.60000000000007958 ) ) ;
#229 = AXIS2_PLACEMENT_3D ( 'NONE', #150, #581, #573 ) ;
#230 = CARTESIAN_POINT ( 'NONE',  ( 151.0522701576893212, 8.000000000000000000, -130.3687054509444181 ) ) ;
#231 = DIRECTION ( 'NONE',  ( 0.000000000000000000, 0.000000000000000000, -1.000000000000000000 ) ) ;
#232 = ADVANCED_FACE ( 'NONE', ( #441 ), #105, .F. ) ;
#233 = VERTEX_POINT ( 'NONE', #16 ) ;
#234 = DIRECTION ( 'NONE',  ( -0.6687529699370394765, 0.000000000000000000, -0.7434846771792874565 ) ) ;
#235 = ORIENTED_EDGE ( 'NONE', *, *, #133, .F. ) ;
#236 = CARTESIAN_POINT ( 'NONE',  ( -134.3999999999999773, 0.000000000000000000, -140.4000000000000341 ) ) ;
#237 = CARTESIAN_POINT ( 'NONE',  ( -145.3999999999999773, 8.000000000000000000, -137.1500000000000341 ) ) ;
#238 = AXIS2_PLACEMENT_3D ( 'NONE', #259, #115, #951 ) ;
#239 = ADVANCED_FACE ( 'NONE', ( #657, #984, #568 ), #734, .T. ) ;
#240 = VECTOR ( 'NONE', #860, 1000.000000000000000 ) ;
#241 = ORIENTED_EDGE ( 'NONE', *, *, #1057, .F. ) ;
#242 = EDGE_CURVE ( 'NONE', #341, #992, #404, .T. ) ;
#243 = ADVANCED_FACE ( 'NONE', ( #498 ), #897, .T. ) ;
#244 = EDGE_LOOP ( 'NONE', ( #711, #394, #489, #307 ) ) ;
#245 = CARTESIAN_POINT ( 'NONE',  ( -128.7477298423106333, 0.000000000000000000, -150.4312945490555933 ) ) ;
#246 = ORIENTED_EDGE ( 'NONE', *, *, #323, .F. ) ;
#247 = APPLICATION_PROTOCOL_DEFINITION ( 'draft international standard', 'automotive_design', 1998, #345 ) ;
#248 = AXIS2_PLACEMENT_3D ( 'NONE', #933, #745, #848 ) ;
#249 = ORIENTED_EDGE ( 'NONE', *, *, #903, .T. ) ;
#250 = CARTESIAN_POINT ( 'NONE',  ( -105.0000000000000000, 8.000000000000000000, -101.6000000000000512 ) ) ;
#251 = ORIENTED_EDGE ( 'NONE', *, *, #614, .F. ) ;
#252 = ORIENTED_EDGE ( 'NONE', *, *, #930, .T. ) ;
#253 = CYLINDRICAL_SURFACE ( 'NONE', #803, 14.99999999999998579 ) ;
#254 = EDGE_CURVE ( 'NONE', #863, #976, #459, .T. ) ;
#255 = CIRCLE ( 'NONE', #1001, 3.250000000000002665 ) ;
#256 = VECTOR ( 'NONE', #686, 1000.000000000000000 ) ;
#257 = ORIENTED_EDGE ( 'NONE', *, *, #384, .F. ) ;
#258 = ORIENTED_EDGE ( 'NONE', *, *, #695, .F. ) ;
#259 = CARTESIAN_POINT ( 'NONE',  ( 92.97060640761097261, 0.000000000000000000, -101.6000000000000369 ) ) ;
#260 = CARTESIAN_POINT ( 'NONE',  ( -139.8999999999999773, 8.000000000000000000, -140.4000000000000341 ) ) ;
#261 = VECTOR ( 'NONE', #355, 1000.000000000000000 ) ;
#262 = DIRECTION ( 'NONE',  ( -0.000000000000000000, -1.000000000000000000, -0.000000000000000000 ) ) ;
#263 = ORIENTED_EDGE ( 'NONE', *, *, #903, .F. ) ;
#264 = DIRECTION ( 'NONE',  ( -1.000000000000000000, 0.000000000000000000, 0.000000000000000000 ) ) ;
#265 = DIRECTION ( 'NONE',  ( -0.000000000000000000, -1.000000000000000000, -0.000000000000000000 ) ) ;
#266 = CIRCLE ( 'NONE', #798, 2.999999999999960920 ) ;
#267 = EDGE_CURVE ( 'NONE', #161, #700, #75, .T. ) ;
#268 = DIRECTION ( 'NONE',  ( 0.000000000000000000, 1.000000000000000000, 0.000000000000000000 ) ) ;
#269 = ORIENTED_EDGE ( 'NONE', *, *, #593, .T. ) ;
#270 = CARTESIAN_POINT ( 'NONE',  ( -105.0000000000000000, 8.000000000000000000, -104.6000000000000369 ) ) ;
#271 = LINE ( 'NONE', #1020, #426 ) ;
#272 =( GEOMETRIC_REPRESENTATION_CONTEXT ( 3 ) GLOBAL_UNCERTAINTY_ASSIGNED_CONTEXT ( ( #1038 ) ) GLOBAL_UNIT_ASSIGNED_CONTEXT ( ( #82, #2, #77 ) ) REPRESENTATION_CONTEXT ( 'NONE', 'WORKASPACE' ) );
#273 =( NAMED_UNIT ( * ) PLANE_ANGLE_UNIT ( ) SI_UNIT ( $, .RADIAN. ) );
#274 = ORIENTED_EDGE ( 'NONE', *, *, #667, .F. ) ;
#275 = EDGE_CURVE ( 'NONE', #799, #161, #86, .T. ) ;
#276 = CARTESIAN_POINT ( 'NONE',  ( -92.97060640761097261, 0.000000000000000000, -101.6000000000000369 ) ) ;
#277 = CIRCLE ( 'NONE', #84, 14.99999999999998579 ) ;
#278 = DIRECTION ( 'NONE',  ( 0.000000000000000000, 0.000000000000000000, -1.000000000000000000 ) ) ;
#279 = DIRECTION ( 'NONE',  ( 0.000000000000000000, 0.000000000000000000, 1.000000000000000000 ) ) ;
#280 = EDGE_LOOP ( 'NONE', ( #673, #317 ) ) ;
#281 = DIRECTION ( 'NONE',  ( 0.000000000000000000, 0.000000000000000000, 1.000000000000000000 ) ) ;
#282 = EDGE_CURVE ( 'NONE', #827, #654, #70, .T. ) ;
#283 = LINE ( 'NONE', #620, #888 ) ;
#284 = CIRCLE ( 'NONE', #896, 3.250000000000002665 ) ;
#285 = CARTESIAN_POINT ( 'NONE',  ( 128.7477298423107186, 8.000000000000000000, -150.4312945490556217 ) ) ;
#286 = ORIENTED_EDGE ( 'NONE', *, *, #321, .F. ) ;
#287 = CARTESIAN_POINT ( 'NONE',  ( -105.0000000000000000, 8.000000000000000000, -104.6000000000000369 ) ) ;
#288 = CARTESIAN_POINT ( 'NONE',  ( -134.3999999999999773, 8.000000000000000000, -137.1500000000000341 ) ) ;
#289 = CARTESIAN_POINT ( 'NONE',  ( 105.0000000000000000, 8.000000000000000000, -101.6000000000000512 ) ) ;
#290 = ORIENTED_EDGE ( 'NONE', *, *, #41, .F. ) ;
#291 = CARTESIAN_POINT ( 'NONE',  ( 139.9000000000000341, 8.000000000000000000, -155.4000000000000341 ) ) ;
#292 = DIRECTION ( 'NONE',  ( -0.000000000000000000, -1.000000000000000000, -0.000000000000000000 ) ) ;
#293 = CARTESIAN_POINT ( 'NONE',  ( -145.3999999999999773, 8.000000000000000000, -137.1500000000000341 ) ) ;
#294 = ORIENTED_EDGE ( 'NONE', *, *, #323, .T. ) ;
#295 = DIRECTION ( 'NONE',  ( 0.000000000000000000, 0.000000000000000000, 1.000000000000000000 ) ) ;
#296 = LINE ( 'NONE', #63, #814 ) ;
#297 = ADVANCED_BREP_SHAPE_REPRESENTATION ( 'feet_rail_simplified', ( #110, #100, #399 ), #327 ) ;
#298 = DIRECTION ( 'NONE',  ( 0.000000000000000000, 0.000000000000000000, 1.000000000000000000 ) ) ;
#299 = EDGE_CURVE ( 'NONE', #986, #921, #825, .T. ) ;
#300 = VERTEX_POINT ( 'NONE', #684 ) ;
#301 = CARTESIAN_POINT ( 'NONE',  ( 105.0000000000000853, 0.000000000000000000, -86.60000000000007958 ) ) ;
#302 = DIRECTION ( 'NONE',  ( 1.000000000000000000, 0.000000000000000000, 0.000000000000000000 ) ) ;
#303 = DIRECTION ( 'NONE',  ( -0.000000000000000000, -1.000000000000000000, -0.000000000000000000 ) ) ;
#304 = EDGE_LOOP ( 'NONE', ( #504, #56, #392, #919 ) ) ;
#305 = DIRECTION ( 'NONE',  ( -0.000000000000000000, -1.000000000000000000, -0.000000000000000000 ) ) ;
#306 = ADVANCED_FACE ( 'NONE', ( #65 ), #517, .T. ) ;
#307 = ORIENTED_EDGE ( 'NONE', *, *, #566, .T. ) ;
#308 = CARTESIAN_POINT ( 'NONE',  ( -139.8999999999999773, 8.000000000000000000, -140.4000000000000341 ) ) ;
#309 = CIRCLE ( 'NONE', #680, 2.999999999999988898 ) ;
#310 = CARTESIAN_POINT ( 'NONE',  ( 139.9000000000000341, 8.000000000000000000, -140.4000000000000341 ) ) ;
#311 = ORIENTED_EDGE ( 'NONE', *, *, #502, .F. ) ;
#312 = CARTESIAN_POINT ( 'NONE',  ( -105.0000000000000000, 8.000000000000000000, -86.60000000000006537 ) ) ;
#313 = CARTESIAN_POINT ( 'NONE',  ( 134.4000000000000057, 8.000000000000000000, -143.6500000000000341 ) ) ;
#314 = VECTOR ( 'NONE', #1071, 1000.000000000000000 ) ;
#315 = EDGE_CURVE ( 'NONE', #222, #509, #849, .T. ) ;
#316 = DIRECTION ( 'NONE',  ( -0.000000000000000000, -1.000000000000000000, 0.000000000000000000 ) ) ;
#317 = ORIENTED_EDGE ( 'NONE', *, *, #918, .T. ) ;
#318 = DIRECTION ( 'NONE',  ( 0.000000000000000000, 0.000000000000000000, 1.000000000000000000 ) ) ;
#319 = AXIS2_PLACEMENT_3D ( 'NONE', #771, #265, #231 ) ;
#320 = CARTESIAN_POINT ( 'NONE',  ( 145.4000000000000341, 8.000000000000000000, -137.1500000000000341 ) ) ;
#321 = EDGE_CURVE ( 'NONE', #136, #561, #698, .T. ) ;
#322 = CARTESIAN_POINT ( 'NONE',  ( 92.97060640761097261, 0.000000000000000000, -128.6000000000000512 ) ) ;
#323 = EDGE_CURVE ( 'NONE', #158, #996, #1066, .T. ) ;
#324 = ORIENTED_EDGE ( 'NONE', *, *, #87, .F. ) ;
#325 = ORIENTED_EDGE ( 'NONE', *, *, #626, .F. ) ;
#326 = CARTESIAN_POINT ( 'NONE',  ( 139.9000000000000341, 8.000000000000000000, -140.4000000000000341 ) ) ;
#327 =( GEOMETRIC_REPRESENTATION_CONTEXT ( 3 ) GLOBAL_UNCERTAINTY_ASSIGNED_CONTEXT ( ( #94 ) ) GLOBAL_UNIT_ASSIGNED_CONTEXT ( ( #920, #912, #835 ) ) REPRESENTATION_CONTEXT ( 'NONE', 'WORKASPACE' ) );
#328 = CARTESIAN_POINT ( 'NONE',  ( -134.3999999999999773, 0.000000000000000000, -137.1500000000000341 ) ) ;
#329 = AXIS2_PLACEMENT_3D ( 'NONE', #669, #993, #837 ) ;
#330 = VECTOR ( 'NONE', #153, 1000.000000000000000 ) ;
#331 = ORIENTED_EDGE ( 'NONE', *, *, #421, .F. ) ;
#332 = VERTEX_POINT ( 'NONE', #328 ) ;
#333 = LINE ( 'NONE', #435, #644 ) ;
#334 = COLOUR_RGB ( '',0.4980392156862745168, 0.4980392156862745168, 0.4980392156862745168 ) ;
#335 = EDGE_LOOP ( 'NONE', ( #460, #353, #904, #831 ) ) ;
#336 = DIRECTION ( 'NONE',  ( 0.000000000000000000, 0.000000000000000000, 1.000000000000000000 ) ) ;
#337 = ADVANCED_FACE ( 'NONE', ( #664 ), #989, .T. ) ;
#338 = AXIS2_PLACEMENT_3D ( 'NONE', #480, #635, #818 ) ;
#339 = VERTEX_POINT ( 'NONE', #109 ) ;
#340 = FACE_OUTER_BOUND ( 'NONE', #913, .T. ) ;
#341 = VERTEX_POINT ( 'NONE', #46 ) ;
#342 = ORIENTED_EDGE ( 'NONE', *, *, #282, .F. ) ;
#343 = DIRECTION ( 'NONE',  ( 0.000000000000000000, 0.000000000000000000, 1.000000000000000000 ) ) ;
#344 = CLOSED_SHELL ( 'NONE', ( #980, #337, #666, #400, #507, #907, #787, #467, #1005, #243, #219, #174, #17, #11, #144, #739 ) ) ;
#345 = APPLICATION_CONTEXT ( 'automotive_design' ) ;
#346 = VECTOR ( 'NONE', #1019, 1000.000000000000114 ) ;
#347 = FILL_AREA_STYLE ('',( #774 ) ) ;
#348 = ORIENTED_EDGE ( 'NONE', *, *, #861, .F. ) ;
#349 = CARTESIAN_POINT ( 'NONE',  ( 116.1522701576892871, 0.000000000000000000, -91.56870545094444935 ) ) ;
#350 = DIRECTION ( 'NONE',  ( -0.000000000000000000, -1.000000000000000000, -0.000000000000000000 ) ) ;
#351 = EDGE_CURVE ( 'NONE', #423, #963, #127, .T. ) ;
#352 = LINE ( 'NONE', #113, #168 ) ;
#353 = ORIENTED_EDGE ( 'NONE', *, *, #157, .F. ) ;
#354 = CARTESIAN_POINT ( 'NONE',  ( 116.1522701576892871, 8.000000000000000000, -91.56870545094444935 ) ) ;
#355 = DIRECTION ( 'NONE',  ( -0.000000000000000000, -1.000000000000000000, -0.000000000000000000 ) ) ;
#356 = ADVANCED_FACE ( 'NONE', ( #381, #947, #451 ), #692, .F. ) ;
#357 =( LENGTH_UNIT ( ) NAMED_UNIT ( * ) SI_UNIT ( .MILLI., .METRE. ) );
#358 = ORIENTED_EDGE ( 'NONE', *, *, #111, .F. ) ;
#359 = DIRECTION ( 'NONE',  ( 0.000000000000000000, 0.000000000000000000, 1.000000000000000000 ) ) ;
#360 = DIRECTION ( 'NONE',  ( 0.000000000000000000, -0.000000000000000000, 1.000000000000000000 ) ) ;
#361 = AXIS2_PLACEMENT_3D ( 'NONE', #643, #894, #148 ) ;
#362 = DIRECTION ( 'NONE',  ( 0.000000000000000000, 0.000000000000000000, 1.000000000000000000 ) ) ;
#363 = ORIENTED_EDGE ( 'NONE', *, *, #884, .T. ) ;
#364 = DIRECTION ( 'NONE',  ( -0.000000000000000000, 1.000000000000000000, -0.000000000000000000 ) ) ;
#365 = PLANE ( 'NONE',  #225 ) ;
#366 = CYLINDRICAL_SURFACE ( 'NONE', #176, 2.999999999999960920 ) ;
#367 = EDGE_LOOP ( 'NONE', ( #1067, #812, #841, #324 ) ) ;
#368 = FACE_OUTER_BOUND ( 'NONE', #937, .T. ) ;
#369 = EDGE_CURVE ( 'NONE', #158, #7, #271, .T. ) ;
#370 = COLOUR_RGB ( '',0.4980392156862745168, 0.4980392156862745168, 0.4980392156862745168 ) ;
#371 = LINE ( 'NONE', #704, #559 ) ;
#372 = CIRCLE ( 'NONE', #431, 14.99999999999998579 ) ;
#373 = CARTESIAN_POINT ( 'NONE',  ( -101.8924225337624137, 0.000000000000000000, -120.5749643607555726 ) ) ;
#374 = ORIENTED_EDGE ( 'NONE', *, *, #436, .F. ) ;
#375 = CARTESIAN_POINT ( 'NONE',  ( -128.7477298423106333, 8.000000000000000000, -150.4312945490555933 ) ) ;
#376 = LINE ( 'NONE', #708, #140 ) ;
#377 = UNCERTAINTY_MEASURE_WITH_UNIT (LENGTH_MEASURE( 1.000000000000000082E-05 ), #357, 'distance_accuracy_value', 'NONE');
#378 = CARTESIAN_POINT ( 'NONE',  ( 145.4000000000000341, 8.000000000000000000, -140.4000000000000341 ) ) ;
#379 = EDGE_LOOP ( 'NONE', ( #217, #694, #761, #131 ) ) ;
#380 = CARTESIAN_POINT ( 'NONE',  ( -92.97060640761097261, 0.000000000000000000, -86.60000000000005116 ) ) ;
#381 = FACE_OUTER_BOUND ( 'NONE', #1031, .T. ) ;
#382 = VECTOR ( 'NONE', #215, 1000.000000000000000 ) ;
#383 = AXIS2_PLACEMENT_3D ( 'NONE', #492, #143, #216 ) ;
#384 = EDGE_CURVE ( 'NONE', #119, #601, #1037, .T. ) ;
#385 = CARTESIAN_POINT ( 'NONE',  ( 139.9000000000000341, 0.000000000000000000, -140.4000000000000341 ) ) ;
#386 = EDGE_LOOP ( 'NONE', ( #412, #44, #915, #495 ) ) ;
#387 = CARTESIAN_POINT ( 'NONE',  ( -105.0000000000000000, 8.000000000000000000, -101.6000000000000512 ) ) ;
#388 = CARTESIAN_POINT ( 'NONE',  ( -128.7477298423106333, 8.000000000000000000, -150.4312945490555933 ) ) ;
#389 = CIRCLE ( 'NONE', #702, 14.99999999999998579 ) ;
#390 = CYLINDRICAL_SURFACE ( 'NONE', #846, 2.999999999999988898 ) ;
#391 = EDGE_CURVE ( 'NONE', #22, #629, #1026, .T. ) ;
#392 = ORIENTED_EDGE ( 'NONE', *, *, #853, .F. ) ;
#393 = DIRECTION ( 'NONE',  ( 1.000000000000000000, -0.000000000000000000, -0.000000000000000000 ) ) ;
#394 = ORIENTED_EDGE ( 'NONE', *, *, #512, .F. ) ;
#395 = CARTESIAN_POINT ( 'NONE',  ( 145.4000000000000341, 8.000000000000000000, -137.1500000000000341 ) ) ;
#396 = FILL_AREA_STYLE_COLOUR ( '', #334 ) ;
#397 = VERTEX_POINT ( 'NONE', #880 ) ;
#398 = CARTESIAN_POINT ( 'NONE',  ( 105.0000000000000000, 8.000000000000000000, -101.6000000000000512 ) ) ;
#399 = AXIS2_PLACEMENT_3D ( 'NONE', #672, #336, #1075 ) ;
#400 = ADVANCED_FACE ( 'NONE', ( #939, #777, #116 ), #365, .F. ) ;
#401 = AXIS2_PLACEMENT_3D ( 'NONE', #605, #118, #453 ) ;
#402 = CARTESIAN_POINT ( 'NONE',  ( -105.0000000000000000, 8.000000000000000000, -98.60000000000006537 ) ) ;
#403 = CIRCLE ( 'NONE', #1004, 14.99999999999998579 ) ;
#404 = LINE ( 'NONE', #184, #603 ) ;
#405 = EDGE_LOOP ( 'NONE', ( #141, #363, #925, #418, #9, #717, #668, #758 ) ) ;
#406 = CARTESIAN_POINT ( 'NONE',  ( -151.0522701576892644, 8.000000000000000000, -130.3687054509444465 ) ) ;
#407 = DIRECTION ( 'NONE',  ( 0.000000000000000000, 0.000000000000000000, -1.000000000000000000 ) ) ;
#408 = EDGE_CURVE ( 'NONE', #300, #863, #942, .T. ) ;
#409 = VECTOR ( 'NONE', #350, 1000.000000000000000 ) ;
#410 = EDGE_CURVE ( 'NONE', #424, #1007, #534, .T. ) ;
#411 = DIRECTION ( 'NONE',  ( 0.000000000000000000, 1.000000000000000000, 0.000000000000000000 ) ) ;
#412 = ORIENTED_EDGE ( 'NONE', *, *, #658, .T. ) ;
#413 = CIRCLE ( 'NONE', #1030, 14.99999999999998579 ) ;
#414 = VERTEX_POINT ( 'NONE', #957 ) ;
#415 = CARTESIAN_POINT ( 'NONE',  ( 134.4000000000000057, 0.000000000000000000, -137.1500000000000341 ) ) ;
#416 = DIRECTION ( 'NONE',  ( -0.6687529699370398095, -0.000000000000000000, -0.7434846771792870124 ) ) ;
#417 = ORIENTED_EDGE ( 'NONE', *, *, #202, .T. ) ;
#418 = ORIENTED_EDGE ( 'NONE', *, *, #535, .F. ) ;
#419 = DIRECTION ( 'NONE',  ( 0.000000000000000000, 0.000000000000000000, 1.000000000000000000 ) ) ;
#420 = CIRCLE ( 'NONE', #361, 3.250000000000002665 ) ;
#421 = EDGE_CURVE ( 'NONE', #233, #1077, #1033, .T. ) ;
#422 = CIRCLE ( 'NONE', #580, 14.99999999999998579 ) ;
#423 = VERTEX_POINT ( 'NONE', #447 ) ;
#424 = VERTEX_POINT ( 'NONE', #36 ) ;
#425 = DIRECTION ( 'NONE',  ( 0.000000000000000000, 0.000000000000000000, 1.000000000000000000 ) ) ;
#426 = VECTOR ( 'NONE', #796, 1000.000000000000000 ) ;
#427 = ORIENTED_EDGE ( 'NONE', *, *, #678, .T. ) ;
#428 = AXIS2_PLACEMENT_3D ( 'NONE', #178, #988, #343 ) ;
#429 = ORIENTED_EDGE ( 'NONE', *, *, #1057, .T. ) ;
#430 = DIRECTION ( 'NONE',  ( 0.000000000000000000, 1.000000000000000000, 0.000000000000000000 ) ) ;
#431 = AXIS2_PLACEMENT_3D ( 'NONE', #53, #303, #627 ) ;
#432 = CARTESIAN_POINT ( 'NONE',  ( -134.3999999999999773, 8.000000000000000000, -140.4000000000000341 ) ) ;
#433 = SURFACE_SIDE_STYLE ('',( #748 ) ) ;
#434 = ORIENTED_EDGE ( 'NONE', *, *, #966, .F. ) ;
#435 = CARTESIAN_POINT ( 'NONE',  ( 101.8924225337623994, 8.000000000000000000, -120.5749643607555726 ) ) ;
#436 = EDGE_CURVE ( 'NONE', #414, #586, #283, .T. ) ;
#437 = CARTESIAN_POINT ( 'NONE',  ( 145.4000000000000341, 8.000000000000000000, -143.6500000000000341 ) ) ;
#438 = AXIS2_PLACEMENT_3D ( 'NONE', #649, #964, #318 ) ;
#439 = ORIENTED_EDGE ( 'NONE', *, *, #452, .T. ) ;
#440 = LINE ( 'NONE', #941, #155 ) ;
#441 = FACE_OUTER_BOUND ( 'NONE', #671, .T. ) ;
#442 = EDGE_CURVE ( 'NONE', #990, #397, #277, .T. ) ;
#443 = DIRECTION ( 'NONE',  ( -0.000000000000000000, 1.000000000000000000, -0.000000000000000000 ) ) ;
#444 = PRODUCT ( 'feet_rail_simplified', 'feet_rail_simplified', '', ( #93 ) ) ;
#445 = ORIENTED_EDGE ( 'NONE', *, *, #410, .T. ) ;
#446 = FACE_OUTER_BOUND ( 'NONE', #244, .T. ) ;
#447 = CARTESIAN_POINT ( 'NONE',  ( 101.8924225337623994, 8.000000000000000000, -120.5749643607555726 ) ) ;
#448 = CARTESIAN_POINT ( 'NONE',  ( -145.3999999999999773, 8.000000000000000000, -143.6500000000000341 ) ) ;
#449 = ORIENTED_EDGE ( 'NONE', *, *, #890, .T. ) ;
#450 = DIRECTION ( 'NONE',  ( 0.6687529699370398095, 0.000000000000000000, 0.7434846771792870124 ) ) ;
#451 = FACE_BOUND ( 'NONE', #280, .T. ) ;
#452 = EDGE_CURVE ( 'NONE', #542, #924, #371, .T. ) ;
#453 = DIRECTION ( 'NONE',  ( 0.000000000000000000, 0.000000000000000000, -1.000000000000000000 ) ) ;
#454 = VECTOR ( 'NONE', #393, 1000.000000000000000 ) ;
#455 = VERTEX_POINT ( 'NONE', #288 ) ;
#456 = LINE ( 'NONE', #287, #823 ) ;
#457 = DIRECTION ( 'NONE',  ( 0.000000000000000000, 0.000000000000000000, 1.000000000000000000 ) ) ;
#458 = CARTESIAN_POINT ( 'NONE',  ( 128.7477298423107186, 8.000000000000000000, -150.4312945490556217 ) ) ;
#459 = CIRCLE ( 'NONE', #35, 11.99999999999999645 ) ;
#460 = ORIENTED_EDGE ( 'NONE', *, *, #567, .F. ) ;
#461 = DIRECTION ( 'NONE',  ( 0.000000000000000000, 0.000000000000000000, -1.000000000000000000 ) ) ;
#462 = DIRECTION ( 'NONE',  ( 0.000000000000000000, 1.000000000000000000, 0.000000000000000000 ) ) ;
#463 = VECTOR ( 'NONE', #792, 1000.000000000000000 ) ;
#464 = FACE_OUTER_BOUND ( 'NONE', #1017, .T. ) ;
#465 = EDGE_LOOP ( 'NONE', ( #780, #147, #945, #899, #665, #1045, #177, #114 ) ) ;
#466 = CYLINDRICAL_SURFACE ( 'NONE', #662, 14.99999999999998579 ) ;
#467 = ADVANCED_FACE ( 'NONE', ( #624 ), #952, .T. ) ;
#468 = DIRECTION ( 'NONE',  ( 0.000000000000000000, 0.000000000000000000, -1.000000000000000000 ) ) ;
#469 = DIRECTION ( 'NONE',  ( 0.000000000000000000, 0.000000000000000000, -1.000000000000000000 ) ) ;
#470 = ORIENTED_EDGE ( 'NONE', *, *, #488, .F. ) ;
#471 = CARTESIAN_POINT ( 'NONE',  ( 92.97060640761097261, 0.000000000000000000, -86.60000000000007958 ) ) ;
#472 = CARTESIAN_POINT ( 'NONE',  ( -145.3999999999999773, 0.000000000000000000, -137.1500000000000341 ) ) ;
#473 = VECTOR ( 'NONE', #607, 999.9999999999998863 ) ;
#474 = VECTOR ( 'NONE', #889, 1000.000000000000000 ) ;
#475 = EDGE_CURVE ( 'NONE', #61, #654, #1078, .T. ) ;
#476 = EDGE_CURVE ( 'NONE', #81, #175, #376, .T. ) ;
#477 = DIRECTION ( 'NONE',  ( 0.000000000000000000, 0.000000000000000000, 1.000000000000000000 ) ) ;
#478 = VERTEX_POINT ( 'NONE', #213 ) ;
#479 = CARTESIAN_POINT ( 'NONE',  ( 145.4000000000000341, 0.000000000000000000, -143.6500000000000341 ) ) ;
#480 = CARTESIAN_POINT ( 'NONE',  ( 116.1522701576892871, 8.000000000000000000, -91.56870545094444935 ) ) ;
#481 = VECTOR ( 'NONE', #558, 1000.000000000000000 ) ;
#482 = EDGE_CURVE ( 'NONE', #845, #700, #549, .T. ) ;
#483 = ORIENTED_EDGE ( 'NONE', *, *, #408, .T. ) ;
#484 = LINE ( 'NONE', #997, #625 ) ;
#485 = ORIENTED_EDGE ( 'NONE', *, *, #760, .T. ) ;
#486 = CARTESIAN_POINT ( 'NONE',  ( 105.0000000000000853, 8.000000000000000000, -86.60000000000007958 ) ) ;
#487 = DIRECTION ( 'NONE',  ( -0.000000000000000000, -1.000000000000000000, -0.000000000000000000 ) ) ;
#488 = EDGE_CURVE ( 'NONE', #7, #136, #962, .T. ) ;
#489 = ORIENTED_EDGE ( 'NONE', *, *, #391, .F. ) ;
#490 = LINE ( 'NONE', #900, #454 ) ;
#491 = EDGE_CURVE ( 'NONE', #660, #596, #807, .T. ) ;
#492 = CARTESIAN_POINT ( 'NONE',  ( -145.3999999999999773, 0.000000000000000000, -140.4000000000000341 ) ) ;
#493 = CIRCLE ( 'NONE', #238, 14.99999999999998579 ) ;
#494 = DIRECTION ( 'NONE',  ( 0.000000000000000000, 0.000000000000000000, -1.000000000000000000 ) ) ;
#495 = ORIENTED_EDGE ( 'NONE', *, *, #3, .T. ) ;
#496 = ORIENTED_EDGE ( 'NONE', *, *, #488, .T. ) ;
#497 = FACE_OUTER_BOUND ( 'NONE', #749, .T. ) ;
#498 = FACE_OUTER_BOUND ( 'NONE', #1023, .T. ) ;
#499 = EDGE_LOOP ( 'NONE', ( #186, #916, #893, #211 ) ) ;
#500 = ORIENTED_EDGE ( 'NONE', *, *, #267, .T. ) ;
#501 = FACE_BOUND ( 'NONE', #367, .T. ) ;
#502 = EDGE_CURVE ( 'NONE', #1055, #729, #422, .T. ) ;
#503 = VERTEX_POINT ( 'NONE', #230 ) ;
#504 = ORIENTED_EDGE ( 'NONE', *, *, #242, .T. ) ;
#505 = DIRECTION ( 'NONE',  ( 0.000000000000000000, -0.000000000000000000, 1.000000000000000000 ) ) ;
#506 = VECTOR ( 'NONE', #562, 1000.000000000000000 ) ;
#507 = ADVANCED_FACE ( 'NONE', ( #58 ), #572, .F. ) ;
#508 = ORIENTED_EDGE ( 'NONE', *, *, #117, .F. ) ;
#509 = VERTEX_POINT ( 'NONE', #224 ) ;
#510 = DIRECTION ( 'NONE',  ( 0.000000000000000000, 1.000000000000000000, 0.000000000000000000 ) ) ;
#511 = AXIS2_PLACEMENT_3D ( 'NONE', #854, #487, #179 ) ;
#512 = EDGE_CURVE ( 'NONE', #629, #161, #1058, .T. ) ;
#513 = ORIENTED_EDGE ( 'NONE', *, *, #614, .T. ) ;
#514 = ORIENTED_EDGE ( 'NONE', *, *, #600, .T. ) ;
#515 = DIRECTION ( 'NONE',  ( 0.000000000000000000, 0.000000000000000000, 1.000000000000000000 ) ) ;
#516 = CIRCLE ( 'NONE', #130, 3.250000000000002665 ) ;
#517 = PLANE ( 'NONE',  #650 ) ;
#518 = CARTESIAN_POINT ( 'NONE',  ( -145.3999999999999773, 8.000000000000000000, -143.6500000000000341 ) ) ;
#519 = EDGE_CURVE ( 'NONE', #924, #509, #713, .T. ) ;
#520 = ORIENTED_EDGE ( 'NONE', *, *, #829, .T. ) ;
#521 = LINE ( 'NONE', #917, #6 ) ;
#522 = ADVANCED_FACE ( 'NONE', ( #497 ), #978, .T. ) ;
#523 = CARTESIAN_POINT ( 'NONE',  ( 139.9000000000000341, 8.000000000000000000, -155.4000000000000057 ) ) ;
#524 = VECTOR ( 'NONE', #736, 1000.000000000000000 ) ;
#525 = CARTESIAN_POINT ( 'NONE',  ( -92.97060640761097261, 8.000000000000000000, -116.6000000000000227 ) ) ;
#526 = AXIS2_PLACEMENT_3D ( 'NONE', #207, #544, #468 ) ;
#527 = ORIENTED_EDGE ( 'NONE', *, *, #254, .T. ) ;
#528 = DIRECTION ( 'NONE',  ( -0.000000000000000000, -1.000000000000000000, -0.000000000000000000 ) ) ;
#529 = CARTESIAN_POINT ( 'NONE',  ( 105.0000000000000853, 0.000000000000000000, -86.60000000000007958 ) ) ;
#530 = EDGE_LOOP ( 'NONE', ( #527, #577, #633, #591 ) ) ;
#531 = EDGE_LOOP ( 'NONE', ( #513, #50, #274, #13 ) ) ;
#532 = CYLINDRICAL_SURFACE ( 'NONE', #785, 12.00000000000001066 ) ;
#533 = AXIS2_PLACEMENT_3D ( 'NONE', #250, #183, #515 ) ;
#534 = LINE ( 'NONE', #529, #1021 ) ;
#535 = EDGE_CURVE ( 'NONE', #992, #424, #611, .T. ) ;
#536 = DIRECTION ( 'NONE',  ( 0.000000000000000000, 0.000000000000000000, -1.000000000000000000 ) ) ;
#537 = ORIENTED_EDGE ( 'NONE', *, *, #476, .F. ) ;
#538 = CYLINDRICAL_SURFACE ( 'NONE', #923, 12.00000000000001066 ) ;
#539 = CARTESIAN_POINT ( 'NONE',  ( 105.0000000000000000, 0.000000000000000000, -101.6000000000000512 ) ) ;
#540 = DIRECTION ( 'NONE',  ( 0.000000000000000000, 0.000000000000000000, -1.000000000000000000 ) ) ;
#541 = AXIS2_PLACEMENT_3D ( 'NONE', #194, #956, #864 ) ;
#542 = VERTEX_POINT ( 'NONE', #738 ) ;
#543 = DIRECTION ( 'NONE',  ( 0.000000000000000000, 0.000000000000000000, 1.000000000000000000 ) ) ;
#544 = DIRECTION ( 'NONE',  ( -0.000000000000000000, -1.000000000000000000, -0.000000000000000000 ) ) ;
#545 = LINE ( 'NONE', #560, #653 ) ;
#546 = EDGE_CURVE ( 'NONE', #839, #233, #191, .T. ) ;
#547 = ORIENTED_EDGE ( 'NONE', *, *, #772, .T. ) ;
#548 = DIRECTION ( 'NONE',  ( -0.000000000000000000, -1.000000000000000000, -0.000000000000000000 ) ) ;
#549 = LINE ( 'NONE', #388, #856 ) ;
#550 = DIRECTION ( 'NONE',  ( 0.000000000000000000, 0.000000000000000000, -1.000000000000000000 ) ) ;
#551 = ORIENTED_EDGE ( 'NONE', *, *, #658, .F. ) ;
#552 = CARTESIAN_POINT ( 'NONE',  ( 145.4000000000000341, 8.000000000000000000, -137.1500000000000341 ) ) ;
#553 = DIRECTION ( 'NONE',  ( -0.000000000000000000, -1.000000000000000000, -0.000000000000000000 ) ) ;
#554 = ADVANCED_FACE ( 'NONE', ( #885 ), #1047, .F. ) ;
#555 = STYLED_ITEM ( 'NONE', ( #171 ), #297 ) ;
#556 = ORIENTED_EDGE ( 'NONE', *, *, #884, .F. ) ;
#557 = LINE ( 'NONE', #1063, #1054 ) ;
#558 = DIRECTION ( 'NONE',  ( 1.000000000000000000, 0.000000000000000000, 0.000000000000000000 ) ) ;
#559 = VECTOR ( 'NONE', #875, 1000.000000000000000 ) ;
#560 = CARTESIAN_POINT ( 'NONE',  ( -134.3999999999999773, 8.000000000000000000, -137.1500000000000341 ) ) ;
#561 = VERTEX_POINT ( 'NONE', #415 ) ;
#562 = DIRECTION ( 'NONE',  ( -0.000000000000000000, -1.000000000000000000, -0.000000000000000000 ) ) ;
#563 = AXIS2_PLACEMENT_3D ( 'NONE', #122, #608, #278 ) ;
#564 = VERTEX_POINT ( 'NONE', #320 ) ;
#565 = DIRECTION ( 'NONE',  ( 0.000000000000000000, 1.000000000000000000, 0.000000000000000000 ) ) ;
#566 = EDGE_CURVE ( 'NONE', #22, #799, #578, .T. ) ;
#567 = EDGE_CURVE ( 'NONE', #332, #175, #146, .T. ) ;
#568 = FACE_BOUND ( 'NONE', #89, .T. ) ;
#569 = VECTOR ( 'NONE', #129, 1000.000000000000000 ) ;
#570 = ORIENTED_EDGE ( 'NONE', *, *, #436, .T. ) ;
#571 = DIRECTION ( 'NONE',  ( 0.000000000000000000, 1.000000000000000000, 0.000000000000000000 ) ) ;
#572 = PLANE ( 'NONE',  #104 ) ;
#573 = DIRECTION ( 'NONE',  ( 0.000000000000000000, -0.000000000000000000, 1.000000000000000000 ) ) ;
#574 = ORIENTED_EDGE ( 'NONE', *, *, #369, .F. ) ;
#575 = CARTESIAN_POINT ( 'NONE',  ( 105.0000000000000000, 8.000000000000000000, -104.6000000000000085 ) ) ;
#576 = MECHANICAL_DESIGN_GEOMETRIC_PRESENTATION_REPRESENTATION (  '', ( #555 ), #272 ) ;
#577 = ORIENTED_EDGE ( 'NONE', *, *, #1059, .F. ) ;
#578 = LINE ( 'NONE', #656, #112 ) ;
#579 = AXIS2_PLACEMENT_3D ( 'NONE', #398, #571, #730 ) ;
#580 = AXIS2_PLACEMENT_3D ( 'NONE', #308, #720, #52 ) ;
#581 = DIRECTION ( 'NONE',  ( 0.000000000000000000, 1.000000000000000000, 0.000000000000000000 ) ) ;
#582 = ORIENTED_EDGE ( 'NONE', *, *, #709, .F. ) ;
#583 = EDGE_CURVE ( 'NONE', #1055, #584, #296, .T. ) ;
#584 = VERTEX_POINT ( 'NONE', #159 ) ;
#585 = CARTESIAN_POINT ( 'NONE',  ( 105.0000000000000000, 0.000000000000000000, -98.60000000000009379 ) ) ;
#586 = VERTEX_POINT ( 'NONE', #486 ) ;
#587 = ORIENTED_EDGE ( 'NONE', *, *, #593, .F. ) ;
#588 = DIRECTION ( 'NONE',  ( -6.608470384673549545E-17, 0.000000000000000000, -1.000000000000000000 ) ) ;
#589 = EDGE_CURVE ( 'NONE', #586, #990, #895, .T. ) ;
#590 = EDGE_LOOP ( 'NONE', ( #374, #690, #156, #724 ) ) ;
#591 = ORIENTED_EDGE ( 'NONE', *, *, #1073, .T. ) ;
#592 = DIRECTION ( 'NONE',  ( -0.000000000000000000, 1.000000000000000000, -0.000000000000000000 ) ) ;
#593 = EDGE_CURVE ( 'NONE', #509, #332, #138, .T. ) ;
#594 = AXIS2_PLACEMENT_3D ( 'NONE', #701, #40, #613 ) ;
#595 = ORIENTED_EDGE ( 'NONE', *, *, #567, .T. ) ;
#596 = VERTEX_POINT ( 'NONE', #639 ) ;
#597 = DIRECTION ( 'NONE',  ( 0.000000000000000000, 0.000000000000000000, 1.000000000000000000 ) ) ;
#598 = DIRECTION ( 'NONE',  ( -0.000000000000000000, -1.000000000000000000, -0.000000000000000000 ) ) ;
#599 = AXIS2_PLACEMENT_3D ( 'NONE', #260, #598, #766 ) ;
#600 = EDGE_CURVE ( 'NONE', #222, #455, #965, .T. ) ;
#601 = VERTEX_POINT ( 'NONE', #585 ) ;
#602 = CYLINDRICAL_SURFACE ( 'NONE', #248, 3.250000000000002665 ) ;
#603 = VECTOR ( 'NONE', #910, 999.9999999999998863 ) ;
#604 = FACE_OUTER_BOUND ( 'NONE', #27, .T. ) ;
#605 = CARTESIAN_POINT ( 'NONE',  ( 105.0000000000000000, 8.000000000000000000, -101.6000000000000512 ) ) ;
#606 = ORIENTED_EDGE ( 'NONE', *, *, #583, .T. ) ;
#607 = DIRECTION ( 'NONE',  ( 0.6687529699370393654, 0.000000000000000000, 0.7434846771792875675 ) ) ;
#608 = DIRECTION ( 'NONE',  ( -0.000000000000000000, -1.000000000000000000, 0.000000000000000000 ) ) ;
#609 = CIRCLE ( 'NONE', #541, 14.99999999999998579 ) ;
#610 =( NAMED_UNIT ( * ) SI_UNIT ( $, .STERADIAN. ) SOLID_ANGLE_UNIT ( ) );
#611 = CIRCLE ( 'NONE', #663, 14.99999999999998579 ) ;
#612 = ORIENTED_EDGE ( 'NONE', *, *, #948, .T. ) ;
#613 = DIRECTION ( 'NONE',  ( 0.000000000000000000, 0.000000000000000000, 1.000000000000000000 ) ) ;
#614 = EDGE_CURVE ( 'NONE', #873, #660, #995, .T. ) ;
#615 = DIRECTION ( 'NONE',  ( 0.000000000000000000, -0.000000000000000000, 1.000000000000000000 ) ) ;
#616 = DIRECTION ( 'NONE',  ( -0.000000000000000000, -1.000000000000000000, -0.000000000000000000 ) ) ;
#617 = ORIENTED_EDGE ( 'NONE', *, *, #871, .F. ) ;
#618 = CARTESIAN_POINT ( 'NONE',  ( 139.9000000000000341, 8.000000000000000000, -140.4000000000000341 ) ) ;
#619 = AXIS2_PLACEMENT_3D ( 'NONE', #661, #510, #505 ) ;
#620 = CARTESIAN_POINT ( 'NONE',  ( 105.0000000000000853, 8.000000000000000000, -86.60000000000007958 ) ) ;
#621 = CARTESIAN_POINT ( 'NONE',  ( -134.3999999999999773, 8.000000000000000000, -143.6500000000000341 ) ) ;
#622 = ORIENTED_EDGE ( 'NONE', *, *, #861, .T. ) ;
#623 = LINE ( 'NONE', #879, #103 ) ;
#624 = FACE_OUTER_BOUND ( 'NONE', #499, .T. ) ;
#625 = VECTOR ( 'NONE', #262, 1000.000000000000000 ) ;
#626 = EDGE_CURVE ( 'NONE', #827, #72, #389, .T. ) ;
#627 = DIRECTION ( 'NONE',  ( 0.000000000000000000, 0.000000000000000000, 1.000000000000000000 ) ) ;
#628 = CIRCLE ( 'NONE', #329, 14.99999999999998579 ) ;
#629 = VERTEX_POINT ( 'NONE', #102 ) ;
#630 = DIRECTION ( 'NONE',  ( 0.000000000000000000, 0.000000000000000000, 1.000000000000000000 ) ) ;
#631 = CARTESIAN_POINT ( 'NONE',  ( 92.97060640761097261, 8.000000000000000000, -128.6000000000000512 ) ) ;
#632 = FACE_OUTER_BOUND ( 'NONE', #182, .T. ) ;
#633 = ORIENTED_EDGE ( 'NONE', *, *, #351, .F. ) ;
#634 = CARTESIAN_POINT ( 'NONE',  ( -139.8999999999999773, 8.000000000000000000, -155.4000000000000057 ) ) ;
#635 = DIRECTION ( 'NONE',  ( -0.7434846771792867903, 0.000000000000000000, -0.6687529699370401426 ) ) ;
#636 = SURFACE_STYLE_USAGE ( .BOTH. , #872 ) ;
#637 = EDGE_LOOP ( 'NONE', ( #508, #570, #764, #449, #675, #107, #214, #998 ) ) ;
#638 = DIRECTION ( 'NONE',  ( -0.000000000000000000, -1.000000000000000000, -0.000000000000000000 ) ) ;
#639 = CARTESIAN_POINT ( 'NONE',  ( -105.0000000000000000, 0.000000000000000000, -98.60000000000006537 ) ) ;
#640 = LINE ( 'NONE', #458, #463 ) ;
#641 = AXIS2_PLACEMENT_3D ( 'NONE', #432, #26, #540 ) ;
#642 = EDGE_LOOP ( 'NONE', ( #622, #682, #290, #735 ) ) ;
#643 = CARTESIAN_POINT ( 'NONE',  ( -145.3999999999999773, 8.000000000000000000, -140.4000000000000341 ) ) ;
#644 = VECTOR ( 'NONE', #765, 999.9999999999998863 ) ;
#645 = EDGE_CURVE ( 'NONE', #996, #136, #521, .T. ) ;
#646 = DIRECTION ( 'NONE',  ( -1.000000000000000000, 0.000000000000000000, -0.000000000000000000 ) ) ;
#647 =( NAMED_UNIT ( * ) SI_UNIT ( $, .STERADIAN. ) SOLID_ANGLE_UNIT ( ) );
#648 = ORIENTED_EDGE ( 'NONE', *, *, #645, .F. ) ;
#649 = CARTESIAN_POINT ( 'NONE',  ( -139.8999999999999773, 0.000000000000000000, -140.4000000000000341 ) ) ;
#650 = AXIS2_PLACEMENT_3D ( 'NONE', #437, #687, #928 ) ;
#651 = CARTESIAN_POINT ( 'NONE',  ( -101.8924225337624137, 8.000000000000000000, -120.5749643607555726 ) ) ;
#652 = DIRECTION ( 'NONE',  ( 0.000000000000000000, 0.000000000000000000, -1.000000000000000000 ) ) ;
#653 = VECTOR ( 'NONE', #892, 1000.000000000000000 ) ;
#654 = VERTEX_POINT ( 'NONE', #79 ) ;
#655 = DIRECTION ( 'NONE',  ( 0.7434846771792874565, 0.000000000000000000, -0.6687529699370394765 ) ) ;
#656 = CARTESIAN_POINT ( 'NONE',  ( -92.97060640761097261, 8.000000000000000000, -116.6000000000000227 ) ) ;
#657 = FACE_OUTER_BOUND ( 'NONE', #637, .T. ) ;
#658 = EDGE_CURVE ( 'NONE', #397, #61, #683, .T. ) ;
#659 = ORIENTED_EDGE ( 'NONE', *, *, #188, .T. ) ;
#660 = VERTEX_POINT ( 'NONE', #173 ) ;
#661 = CARTESIAN_POINT ( 'NONE',  ( 92.97060640761097261, 8.000000000000000000, -128.6000000000000512 ) ) ;
#662 = AXIS2_PLACEMENT_3D ( 'NONE', #800, #45, #725 ) ;
#663 = AXIS2_PLACEMENT_3D ( 'NONE', #726, #824, #1051 ) ;
#664 = FACE_OUTER_BOUND ( 'NONE', #985, .T. ) ;
#665 = ORIENTED_EDGE ( 'NONE', *, *, #502, .T. ) ;
#666 = ADVANCED_FACE ( 'NONE', ( #914, #501, #5 ), #167, .T. ) ;
#667 = EDGE_CURVE ( 'NONE', #1041, #596, #721, .T. ) ;
#668 = ORIENTED_EDGE ( 'NONE', *, *, #778, .F. ) ;
#669 = CARTESIAN_POINT ( 'NONE',  ( -139.8999999999999773, 8.000000000000000000, -140.4000000000000341 ) ) ;
#670 = VECTOR ( 'NONE', #926, 1000.000000000000000 ) ;
#671 = EDGE_LOOP ( 'NONE', ( #286, #470, #427, #485 ) ) ;
#672 = CARTESIAN_POINT ( 'NONE',  ( 0.000000000000000000, 0.000000000000000000, 0.000000000000000000 ) ) ;
#673 = ORIENTED_EDGE ( 'NONE', *, *, #41, .T. ) ;
#674 = DIRECTION ( 'NONE',  ( -1.000000000000000000, 0.000000000000000000, 6.608470384673549545E-17 ) ) ;
#675 = ORIENTED_EDGE ( 'NONE', *, *, #838, .T. ) ;
#676 = ORIENTED_EDGE ( 'NONE', *, *, #133, .T. ) ;
#677 = DIRECTION ( 'NONE',  ( 0.000000000000000000, 0.000000000000000000, 1.000000000000000000 ) ) ;
#678 = EDGE_CURVE ( 'NONE', #7, #205, #284, .T. ) ;
#679 = ADVANCED_FACE ( 'NONE', ( #842 ), #602, .F. ) ;
#680 = AXIS2_PLACEMENT_3D ( 'NONE', #859, #108, #200 ) ;
#681 = SURFACE_SIDE_STYLE ('',( #185 ) ) ;
#682 = ORIENTED_EDGE ( 'NONE', *, *, #384, .T. ) ;
#683 = LINE ( 'NONE', #349, #670 ) ;
#684 = CARTESIAN_POINT ( 'NONE',  ( 128.7477298423107186, 0.000000000000000000, -150.4312945490556217 ) ) ;
#685 = ORIENTED_EDGE ( 'NONE', *, *, #202, .F. ) ;
#686 = DIRECTION ( 'NONE',  ( 0.6687529699370401426, 0.000000000000000000, -0.7434846771792867903 ) ) ;
#687 = DIRECTION ( 'NONE',  ( 0.000000000000000000, -0.000000000000000000, 1.000000000000000000 ) ) ;
#688 = ADVANCED_FACE ( 'NONE', ( #1069 ), #97, .T. ) ;
#689 = DIRECTION ( 'NONE',  ( 0.000000000000000000, 1.000000000000000000, 0.000000000000000000 ) ) ;
#690 = ORIENTED_EDGE ( 'NONE', *, *, #822, .F. ) ;
#691 = CARTESIAN_POINT ( 'NONE',  ( -145.3999999999999773, 0.000000000000000000, -143.6500000000000341 ) ) ;
#692 = PLANE ( 'NONE',  #891 ) ;
#693 = CARTESIAN_POINT ( 'NONE',  ( 151.0522701576893212, 0.000000000000000000, -130.3687054509444181 ) ) ;
#694 = ORIENTED_EDGE ( 'NONE', *, *, #645, .T. ) ;
#695 = EDGE_CURVE ( 'NONE', #660, #873, #91, .T. ) ;
#696 = CARTESIAN_POINT ( 'NONE',  ( 92.97060640761097261, 8.000000000000000000, -128.6000000000000512 ) ) ;
#697 = DIRECTION ( 'NONE',  ( 1.000000000000000000, -0.000000000000000000, -6.608470384673548312E-17 ) ) ;
#698 = CIRCLE ( 'NONE', #876, 3.250000000000002665 ) ;
#699 = DIRECTION ( 'NONE',  ( -0.000000000000000000, -1.000000000000000000, -0.000000000000000000 ) ) ;
#700 = VERTEX_POINT ( 'NONE', #245 ) ;
#701 = CARTESIAN_POINT ( 'NONE',  ( 105.0000000000000000, 8.000000000000000000, -101.6000000000000512 ) ) ;
#702 = AXIS2_PLACEMENT_3D ( 'NONE', #326, #756, #419 ) ;
#703 = ADVANCED_FACE ( 'NONE', ( #833 ), #1079, .F. ) ;
#704 = CARTESIAN_POINT ( 'NONE',  ( -145.3999999999999773, 8.000000000000000000, -143.6500000000000341 ) ) ;
#705 = DIRECTION ( 'NONE',  ( 0.000000000000000000, 0.000000000000000000, -1.000000000000000000 ) ) ;
#706 = ORIENTED_EDGE ( 'NONE', *, *, #124, .T. ) ;
#707 = LINE ( 'NONE', #354, #256 ) ;
#708 = CARTESIAN_POINT ( 'NONE',  ( -134.3999999999999773, 8.000000000000000000, -143.6500000000000341 ) ) ;
#709 = EDGE_CURVE ( 'NONE', #72, #423, #333, .T. ) ;
#710 = AXIS2_PLACEMENT_3D ( 'NONE', #406, #655, #234 ) ;
#711 = ORIENTED_EDGE ( 'NONE', *, *, #275, .T. ) ;
#712 = DIRECTION ( 'NONE',  ( -0.000000000000000000, -1.000000000000000000, -0.000000000000000000 ) ) ;
#713 = CIRCLE ( 'NONE', #383, 3.250000000000002665 ) ;
#714 = CARTESIAN_POINT ( 'NONE',  ( 92.97060640761097261, 0.000000000000000000, -128.6000000000000512 ) ) ;
#715 = PRODUCT_DEFINITION_CONTEXT ( 'detailed design', #773, 'design' ) ;
#716 = DIRECTION ( 'NONE',  ( 0.000000000000000000, 1.000000000000000000, 0.000000000000000000 ) ) ;
#717 = ORIENTED_EDGE ( 'NONE', *, *, #948, .F. ) ;
#718 = CARTESIAN_POINT ( 'NONE',  ( -145.3999999999999773, 0.000000000000000000, -143.6500000000000341 ) ) ;
#719 = PRESENTATION_LAYER_ASSIGNMENT (  '', '', ( #994 ) ) ;
#720 = DIRECTION ( 'NONE',  ( 0.000000000000000000, 1.000000000000000000, 0.000000000000000000 ) ) ;
#721 = CIRCLE ( 'NONE', #757, 2.999999999999988898 ) ;
#722 =( NAMED_UNIT ( * ) PLANE_ANGLE_UNIT ( ) SI_UNIT ( $, .RADIAN. ) );
#723 = EDGE_CURVE ( 'NONE', #845, #1055, #628, .T. ) ;
#724 = ORIENTED_EDGE ( 'NONE', *, *, #589, .F. ) ;
#725 = DIRECTION ( 'NONE',  ( 0.000000000000000000, 0.000000000000000000, -1.000000000000000000 ) ) ;
#726 = CARTESIAN_POINT ( 'NONE',  ( -105.0000000000000000, 0.000000000000000000, -101.6000000000000512 ) ) ;
#727 = LINE ( 'NONE', #877, #569 ) ;
#728 = VECTOR ( 'NONE', #931, 1000.000000000000000 ) ;
#729 = VERTEX_POINT ( 'NONE', #85 ) ;
#730 = DIRECTION ( 'NONE',  ( 0.000000000000000000, 0.000000000000000000, 1.000000000000000000 ) ) ;
#731 = AXIS2_PLACEMENT_3D ( 'NONE', #387, #638, #223 ) ;
#732 = ORIENTED_EDGE ( 'NONE', *, *, #157, .T. ) ;
#733 = DIRECTION ( 'NONE',  ( -6.608470384673549545E-17, 0.000000000000000000, -1.000000000000000000 ) ) ;
#734 = PLANE ( 'NONE',  #229 ) ;
#735 = ORIENTED_EDGE ( 'NONE', *, *, #299, .F. ) ;
#736 = DIRECTION ( 'NONE',  ( -0.000000000000000000, -1.000000000000000000, -0.000000000000000000 ) ) ;
#737 = AXIS2_PLACEMENT_3D ( 'NONE', #819, #316, #652 ) ;
#738 = CARTESIAN_POINT ( 'NONE',  ( -145.3999999999999773, 8.000000000000000000, -143.6500000000000341 ) ) ;
#739 = ADVANCED_FACE ( 'NONE', ( #340 ), #253, .T. ) ;
#740 = DIRECTION ( 'NONE',  ( 0.000000000000000000, 0.000000000000000000, 1.000000000000000000 ) ) ;
#741 =( GEOMETRIC_REPRESENTATION_CONTEXT ( 3 ) GLOBAL_UNCERTAINTY_ASSIGNED_CONTEXT ( ( #8 ) ) GLOBAL_UNIT_ASSIGNED_CONTEXT ( ( #1048, #722, #647 ) ) REPRESENTATION_CONTEXT ( 'NONE', 'WORKASPACE' ) );
#742 = EDGE_LOOP ( 'NONE', ( #95, #747, #520, #263 ) ) ;
#743 = CARTESIAN_POINT ( 'NONE',  ( -92.97060640761097261, 8.000000000000000000, -86.60000000000006537 ) ) ;
#744 = ORIENTED_EDGE ( 'NONE', *, *, #3, .F. ) ;
#745 = DIRECTION ( 'NONE',  ( -0.000000000000000000, -1.000000000000000000, -0.000000000000000000 ) ) ;
#746 = CARTESIAN_POINT ( 'NONE',  ( 145.4000000000000341, 8.000000000000000000, -143.6500000000000341 ) ) ;
#747 = ORIENTED_EDGE ( 'NONE', *, *, #695, .T. ) ;
#748 = SURFACE_STYLE_FILL_AREA ( #759 ) ;
#749 = EDGE_LOOP ( 'NONE', ( #434, #164, #659, #429 ) ) ;
#750 = CARTESIAN_POINT ( 'NONE',  ( 134.4000000000000057, 8.000000000000000000, -140.4000000000000341 ) ) ;
#751 = CIRCLE ( 'NONE', #438, 14.99999999999998579 ) ;
#752 = AXIS2_PLACEMENT_3D ( 'NONE', #128, #462, #42 ) ;
#753 = ORIENTED_EDGE ( 'NONE', *, *, #808, .T. ) ;
#754 = SURFACE_STYLE_USAGE ( .BOTH. , #433 ) ;
#755 = ORIENTED_EDGE ( 'NONE', *, *, #315, .T. ) ;
#756 = DIRECTION ( 'NONE',  ( 0.000000000000000000, 1.000000000000000000, 0.000000000000000000 ) ) ;
#757 = AXIS2_PLACEMENT_3D ( 'NONE', #1003, #852, #425 ) ;
#758 = ORIENTED_EDGE ( 'NONE', *, *, #267, .F. ) ;
#759 = FILL_AREA_STYLE ('',( #165 ) ) ;
#760 = EDGE_CURVE ( 'NONE', #205, #561, #14, .T. ) ;
#761 = ORIENTED_EDGE ( 'NONE', *, *, #321, .T. ) ;
#762 = CARTESIAN_POINT ( 'NONE',  ( 105.0000000000000853, 8.000000000000000000, -86.60000000000007958 ) ) ;
#763 = LINE ( 'NONE', #518, #728 ) ;
#764 = ORIENTED_EDGE ( 'NONE', *, *, #991, .T. ) ;
#765 = DIRECTION ( 'NONE',  ( -0.6687529699370405867, -0.000000000000000000, 0.7434846771792865683 ) ) ;
#766 = DIRECTION ( 'NONE',  ( 0.000000000000000000, 0.000000000000000000, -1.000000000000000000 ) ) ;
#767 = AXIS2_PLACEMENT_3D ( 'NONE', #1014, #938, #630 ) ;
#768 = CARTESIAN_POINT ( 'NONE',  ( 134.4000000000000057, 8.000000000000000000, -143.6500000000000341 ) ) ;
#769 = ORIENTED_EDGE ( 'NONE', *, *, #124, .F. ) ;
#770 = DIRECTION ( 'NONE',  ( -0.000000000000000000, -1.000000000000000000, -0.000000000000000000 ) ) ;
#771 = CARTESIAN_POINT ( 'NONE',  ( 134.4000000000000057, 8.000000000000000000, -140.4000000000000341 ) ) ;
#772 = EDGE_CURVE ( 'NONE', #1013, #976, #493, .T. ) ;
#773 = APPLICATION_CONTEXT ( 'automotive_design' ) ;
#774 = FILL_AREA_STYLE_COLOUR ( '', #370 ) ;
#775 = ORIENTED_EDGE ( 'NONE', *, *, #369, .T. ) ;
#776 = CARTESIAN_POINT ( 'NONE',  ( -92.97060640761097261, 8.000000000000000000, -128.6000000000000512 ) ) ;
#777 = FACE_BOUND ( 'NONE', #950, .T. ) ;
#778 = EDGE_CURVE ( 'NONE', #700, #584, #609, .T. ) ;
#779 = CARTESIAN_POINT ( 'NONE',  ( 105.0000000000000000, 0.000000000000000000, -101.6000000000000512 ) ) ;
#780 = ORIENTED_EDGE ( 'NONE', *, *, #1039, .F. ) ;
#781 = FACE_OUTER_BOUND ( 'NONE', #530, .T. ) ;
#782 = PRODUCT_DEFINITION_SHAPE ( 'NONE', 'NONE',  #98 ) ;
#783 = CARTESIAN_POINT ( 'NONE',  ( 101.8924225337623994, 0.000000000000000000, -120.5749643607555726 ) ) ;
#784 = CIRCLE ( 'NONE', #1052, 2.999999999999960920 ) ;
#785 = AXIS2_PLACEMENT_3D ( 'NONE', #696, #121, #29 ) ;
#786 = FACE_OUTER_BOUND ( 'NONE', #804, .T. ) ;
#787 = ADVANCED_FACE ( 'NONE', ( #368 ), #187, .F. ) ;
#788 = ORIENTED_EDGE ( 'NONE', *, *, #991, .F. ) ;
#789 = CARTESIAN_POINT ( 'NONE',  ( -128.7477298423106333, 8.000000000000000000, -150.4312945490555933 ) ) ;
#790 = CARTESIAN_POINT ( 'NONE',  ( 92.97060640761097261, 0.000000000000000000, -128.6000000000000512 ) ) ;
#791 = AXIS2_PLACEMENT_3D ( 'NONE', #631, #195, #801 ) ;
#792 = DIRECTION ( 'NONE',  ( -0.000000000000000000, -1.000000000000000000, -0.000000000000000000 ) ) ;
#793 = MECHANICAL_DESIGN_GEOMETRIC_PRESENTATION_REPRESENTATION (  '', ( #929 ), #37 ) ;
#794 = ORIENTED_EDGE ( 'NONE', *, *, #546, .F. ) ;
#795 = LINE ( 'NONE', #34, #473 ) ;
#796 = DIRECTION ( 'NONE',  ( -1.000000000000000000, 0.000000000000000000, 0.000000000000000000 ) ) ;
#797 = ADVANCED_FACE ( 'NONE', ( #781 ), #532, .F. ) ;
#798 = AXIS2_PLACEMENT_3D ( 'NONE', #289, #43, #809 ) ;
#799 = VERTEX_POINT ( 'NONE', #1035 ) ;
#800 = CARTESIAN_POINT ( 'NONE',  ( 139.9000000000000341, 8.000000000000000000, -140.4000000000000341 ) ) ;
#801 = DIRECTION ( 'NONE',  ( 0.000000000000000000, 0.000000000000000000, 1.000000000000000000 ) ) ;
#802 = CARTESIAN_POINT ( 'NONE',  ( -151.0522701576892928, 8.000000000000000000, -130.3687054509444465 ) ) ;
#803 = AXIS2_PLACEMENT_3D ( 'NONE', #999, #592, #922 ) ;
#804 = EDGE_LOOP ( 'NONE', ( #257, #932, #170, #847 ) ) ;
#805 = CARTESIAN_POINT ( 'NONE',  ( 92.97060640761097261, 8.000000000000000000, -116.6000000000000369 ) ) ;
#806 = AXIS2_PLACEMENT_3D ( 'NONE', #813, #565, #1064 ) ;
#807 = LINE ( 'NONE', #402, #474 ) ;
#808 = EDGE_CURVE ( 'NONE', #503, #61, #440, .T. ) ;
#809 = DIRECTION ( 'NONE',  ( 0.000000000000000000, 0.000000000000000000, 1.000000000000000000 ) ) ;
#810 = ORIENTED_EDGE ( 'NONE', *, *, #667, .T. ) ;
#811 = CYLINDRICAL_SURFACE ( 'NONE', #731, 2.999999999999988898 ) ;
#812 = ORIENTED_EDGE ( 'NONE', *, *, #1072, .F. ) ;
#813 = CARTESIAN_POINT ( 'NONE',  ( -105.0000000000000000, 8.000000000000000000, -101.6000000000000512 ) ) ;
#814 = VECTOR ( 'NONE', #553, 1000.000000000000000 ) ;
#815 = DIRECTION ( 'NONE',  ( -1.000000000000000000, 0.000000000000000000, -0.000000000000000000 ) ) ;
#816 = ORIENTED_EDGE ( 'NONE', *, *, #282, .T. ) ;
#817 = LINE ( 'NONE', #301, #208 ) ;
#818 = DIRECTION ( 'NONE',  ( -0.6687529699370401426, 0.000000000000000000, 0.7434846771792867903 ) ) ;
#819 = CARTESIAN_POINT ( 'NONE',  ( -92.97060640761097261, 0.000000000000000000, -128.6000000000000512 ) ) ;
#820 = EDGE_LOOP ( 'NONE', ( #574, #235, #78, #826 ) ) ;
#821 = CARTESIAN_POINT ( 'NONE',  ( 92.97060640761097261, 0.000000000000000000, -116.6000000000000227 ) ) ;
#822 = EDGE_CURVE ( 'NONE', #1013, #414, #623, .T. ) ;
#823 = VECTOR ( 'NONE', #528, 1000.000000000000000 ) ;
#824 = DIRECTION ( 'NONE',  ( 0.000000000000000000, 1.000000000000000000, 0.000000000000000000 ) ) ;
#825 = LINE ( 'NONE', #981, #261 ) ;
#826 = ORIENTED_EDGE ( 'NONE', *, *, #678, .F. ) ;
#827 = VERTEX_POINT ( 'NONE', #291 ) ;
#828 = DIRECTION ( 'NONE',  ( -0.000000000000000000, -1.000000000000000000, -0.000000000000000000 ) ) ;
#829 = EDGE_CURVE ( 'NONE', #873, #1041, #456, .T. ) ;
#830 = DIRECTION ( 'NONE',  ( 0.000000000000000000, 0.000000000000000000, 1.000000000000000000 ) ) ;
#831 = ORIENTED_EDGE ( 'NONE', *, *, #476, .T. ) ;
#832 = ORIENTED_EDGE ( 'NONE', *, *, #25, .T. ) ;
#833 = FACE_OUTER_BOUND ( 'NONE', #590, .T. ) ;
#834 = ORIENTED_EDGE ( 'NONE', *, *, #442, .T. ) ;
#835 =( NAMED_UNIT ( * ) SI_UNIT ( $, .STERADIAN. ) SOLID_ANGLE_UNIT ( ) );
#836 = ORIENTED_EDGE ( 'NONE', *, *, #1059, .T. ) ;
#837 = DIRECTION ( 'NONE',  ( 0.000000000000000000, 0.000000000000000000, 1.000000000000000000 ) ) ;
#838 = EDGE_CURVE ( 'NONE', #503, #827, #169, .T. ) ;
#839 = VERTEX_POINT ( 'NONE', #20 ) ;
#840 = SHAPE_DEFINITION_REPRESENTATION ( #782, #297 ) ;
#841 = ORIENTED_EDGE ( 'NONE', *, *, #60, .F. ) ;
#842 = FACE_OUTER_BOUND ( 'NONE', #101, .T. ) ;
#843 = VECTOR ( 'NONE', #192, 999.9999999999998863 ) ;
#844 = PRESENTATION_LAYER_ASSIGNMENT (  '', '', ( #929 ) ) ;
#845 = VERTEX_POINT ( 'NONE', #789 ) ;
#846 = AXIS2_PLACEMENT_3D ( 'NONE', #221, #209, #705 ) ;
#847 = ORIENTED_EDGE ( 'NONE', *, *, #918, .F. ) ;
#848 = DIRECTION ( 'NONE',  ( 0.000000000000000000, 0.000000000000000000, -1.000000000000000000 ) ) ;
#849 = LINE ( 'NONE', #237, #974 ) ;
#850 = CYLINDRICAL_SURFACE ( 'NONE', #641, 3.250000000000002665 ) ;
#851 = ORIENTED_EDGE ( 'NONE', *, *, #772, .F. ) ;
#852 = DIRECTION ( 'NONE',  ( 0.000000000000000000, 1.000000000000000000, 0.000000000000000000 ) ) ;
#853 = EDGE_CURVE ( 'NONE', #729, #839, #795, .T. ) ;
#854 = CARTESIAN_POINT ( 'NONE',  ( -105.0000000000000000, 8.000000000000000000, -101.6000000000000512 ) ) ;
#855 = VECTOR ( 'NONE', #10, 1000.000000000000000 ) ;
#856 = VECTOR ( 'NONE', #901, 1000.000000000000000 ) ;
#857 = DIRECTION ( 'NONE',  ( -0.000000000000000000, -1.000000000000000000, -0.000000000000000000 ) ) ;
#858 = ORIENTED_EDGE ( 'NONE', *, *, #452, .F. ) ;
#859 = CARTESIAN_POINT ( 'NONE',  ( -105.0000000000000000, 0.000000000000000000, -101.6000000000000512 ) ) ;
#860 = DIRECTION ( 'NONE',  ( 1.000000000000000000, -0.000000000000000000, -6.608470384673548312E-17 ) ) ;
#861 = EDGE_CURVE ( 'NONE', #986, #119, #870, .T. ) ;
#862 = LINE ( 'NONE', #866, #967 ) ;
#863 = VERTEX_POINT ( 'NONE', #206 ) ;
#864 = DIRECTION ( 'NONE',  ( 0.000000000000000000, 0.000000000000000000, 1.000000000000000000 ) ) ;
#865 = CARTESIAN_POINT ( 'NONE',  ( 105.0000000000000000, 8.000000000000000000, -98.60000000000009379 ) ) ;
#866 = CARTESIAN_POINT ( 'NONE',  ( 116.1522701576892871, 8.000000000000000000, -91.56870545094444935 ) ) ;
#867 = ORIENTED_EDGE ( 'NONE', *, *, #589, .T. ) ;
#868 = DIRECTION ( 'NONE',  ( -0.000000000000000000, -1.000000000000000000, -0.000000000000000000 ) ) ;
#869 = DIRECTION ( 'NONE',  ( 0.000000000000000000, 1.000000000000000000, 0.000000000000000000 ) ) ;
#870 = CIRCLE ( 'NONE', #594, 2.999999999999960920 ) ;
#871 = EDGE_CURVE ( 'NONE', #629, #845, #946, .T. ) ;
#872 = SURFACE_SIDE_STYLE ('',( #226 ) ) ;
#873 = VERTEX_POINT ( 'NONE', #270 ) ;
#874 = CARTESIAN_POINT ( 'NONE',  ( 105.0000000000000000, 0.000000000000000000, -104.6000000000000085 ) ) ;
#875 = DIRECTION ( 'NONE',  ( -0.000000000000000000, -1.000000000000000000, -0.000000000000000000 ) ) ;
#876 = AXIS2_PLACEMENT_3D ( 'NONE', #154, #411, #740 ) ;
#877 = CARTESIAN_POINT ( 'NONE',  ( 145.4000000000000341, 8.000000000000000000, -137.1500000000000341 ) ) ;
#878 = ORIENTED_EDGE ( 'NONE', *, *, #442, .F. ) ;
#879 = CARTESIAN_POINT ( 'NONE',  ( 92.97060640761097261, 0.000000000000000000, -86.60000000000005116 ) ) ;
#880 = CARTESIAN_POINT ( 'NONE',  ( 116.1522701576892871, 0.000000000000000000, -91.56870545094444935 ) ) ;
#881 = CARTESIAN_POINT ( 'NONE',  ( 145.4000000000000341, 8.000000000000000000, -143.6500000000000341 ) ) ;
#882 = ORIENTED_EDGE ( 'NONE', *, *, #1072, .T. ) ;
#883 = LINE ( 'NONE', #805, #1070 ) ;
#884 = EDGE_CURVE ( 'NONE', #799, #1007, #403, .T. ) ;
#885 = FACE_OUTER_BOUND ( 'NONE', #386, .T. ) ;
#886 = ORIENTED_EDGE ( 'NONE', *, *, #519, .T. ) ;
#887 = DIRECTION ( 'NONE',  ( -0.000000000000000000, -1.000000000000000000, -0.000000000000000000 ) ) ;
#888 = VECTOR ( 'NONE', #134, 1000.000000000000000 ) ;
#889 = DIRECTION ( 'NONE',  ( -0.000000000000000000, -1.000000000000000000, -0.000000000000000000 ) ) ;
#890 = EDGE_CURVE ( 'NONE', #478, #503, #707, .T. ) ;
#891 = AXIS2_PLACEMENT_3D ( 'NONE', #714, #24, #360 ) ;
#892 = DIRECTION ( 'NONE',  ( -0.000000000000000000, -1.000000000000000000, -0.000000000000000000 ) ) ;
#893 = ORIENTED_EDGE ( 'NONE', *, *, #482, .T. ) ;
#894 = DIRECTION ( 'NONE',  ( 0.000000000000000000, 1.000000000000000000, 0.000000000000000000 ) ) ;
#895 = LINE ( 'NONE', #149, #197 ) ;
#896 = AXIS2_PLACEMENT_3D ( 'NONE', #750, #1008, #597 ) ;
#897 = CYLINDRICAL_SURFACE ( 'NONE', #511, 14.99999999999998579 ) ;
#898 = EDGE_CURVE ( 'NONE', #339, #996, #1076, .T. ) ;
#899 = ORIENTED_EDGE ( 'NONE', *, *, #723, .T. ) ;
#900 = CARTESIAN_POINT ( 'NONE',  ( 145.4000000000000341, 0.000000000000000000, -137.1500000000000341 ) ) ;
#901 = DIRECTION ( 'NONE',  ( -0.000000000000000000, -1.000000000000000000, -0.000000000000000000 ) ) ;
#902 = CARTESIAN_POINT ( 'NONE',  ( -128.7477298423106333, 0.000000000000000000, -150.4312945490555933 ) ) ;
#903 = EDGE_CURVE ( 'NONE', #596, #1041, #309, .T. ) ;
#904 = ORIENTED_EDGE ( 'NONE', *, *, #87, .T. ) ;
#905 = APPLICATION_PROTOCOL_DEFINITION ( 'draft international standard', 'automotive_design', 1998, #773 ) ;
#906 = AXIS2_PLACEMENT_3D ( 'NONE', #23, #1032, #359 ) ;
#907 = ADVANCED_FACE ( 'NONE', ( #446 ), #538, .F. ) ;
#908 = EDGE_LOOP ( 'NONE', ( #834, #744, #788, #867 ) ) ;
#909 = DIRECTION ( 'NONE',  ( 0.000000000000000000, 1.000000000000000000, 0.000000000000000000 ) ) ;
#910 = DIRECTION ( 'NONE',  ( 0.6687529699370393654, 0.000000000000000000, 0.7434846771792875675 ) ) ;
#911 = ORIENTED_EDGE ( 'NONE', *, *, #25, .F. ) ;
#912 =( NAMED_UNIT ( * ) PLANE_ANGLE_UNIT ( ) SI_UNIT ( $, .RADIAN. ) );
#913 = EDGE_LOOP ( 'NONE', ( #955, #911, #556, #969 ) ) ;
#914 = FACE_OUTER_BOUND ( 'NONE', #465, .T. ) ;
#915 = ORIENTED_EDGE ( 'NONE', *, *, #890, .F. ) ;
#916 = ORIENTED_EDGE ( 'NONE', *, *, #723, .F. ) ;
#917 = CARTESIAN_POINT ( 'NONE',  ( 145.4000000000000341, 0.000000000000000000, -143.6500000000000341 ) ) ;
#918 = EDGE_CURVE ( 'NONE', #601, #921, #139, .T. ) ;
#919 = ORIENTED_EDGE ( 'NONE', *, *, #196, .T. ) ;
#920 =( LENGTH_UNIT ( ) NAMED_UNIT ( * ) SI_UNIT ( .MILLI., .METRE. ) );
#921 = VERTEX_POINT ( 'NONE', #874 ) ;
#922 = DIRECTION ( 'NONE',  ( 0.000000000000000000, 0.000000000000000000, 1.000000000000000000 ) ) ;
#923 = AXIS2_PLACEMENT_3D ( 'NONE', #776, #868, #461 ) ;
#924 = VERTEX_POINT ( 'NONE', #691 ) ;
#925 = ORIENTED_EDGE ( 'NONE', *, *, #410, .F. ) ;
#926 = DIRECTION ( 'NONE',  ( 0.6687529699370401426, 0.000000000000000000, -0.7434846771792867903 ) ) ;
#927 = VECTOR ( 'NONE', #30, 1000.000000000000000 ) ;
#928 = DIRECTION ( 'NONE',  ( 1.000000000000000000, 0.000000000000000000, -0.000000000000000000 ) ) ;
#929 = STYLED_ITEM ( 'NONE', ( #1006 ), #100 ) ;
#930 = EDGE_CURVE ( 'NONE', #839, #992, #557, .T. ) ;
#931 = DIRECTION ( 'NONE',  ( -1.000000000000000000, -0.000000000000000000, -0.000000000000000000 ) ) ;
#932 = ORIENTED_EDGE ( 'NONE', *, *, #111, .T. ) ;
#933 = CARTESIAN_POINT ( 'NONE',  ( 145.4000000000000341, 8.000000000000000000, -140.4000000000000341 ) ) ;
#934 = DIRECTION ( 'NONE',  ( -0.000000000000000000, -1.000000000000000000, -0.000000000000000000 ) ) ;
#935 = FACE_OUTER_BOUND ( 'NONE', #642, .T. ) ;
#936 = EDGE_CURVE ( 'NONE', #233, #424, #1046, .T. ) ;
#937 = EDGE_LOOP ( 'NONE', ( #500, #12, #617, #151 ) ) ;
#938 = DIRECTION ( 'NONE',  ( 0.000000000000000000, 1.000000000000000000, 0.000000000000000000 ) ) ;
#939 = FACE_BOUND ( 'NONE', #1, .T. ) ;
#940 = EDGE_LOOP ( 'NONE', ( #648, #246, #775, #496 ) ) ;
#941 = CARTESIAN_POINT ( 'NONE',  ( 151.0522701576893212, 8.000000000000000000, -130.3687054509444181 ) ) ;
#942 = LINE ( 'NONE', #783, #843 ) ;
#943 = CARTESIAN_POINT ( 'NONE',  ( 105.0000000000000000, 8.000000000000000000, -101.6000000000000512 ) ) ;
#944 = VECTOR ( 'NONE', #302, 1000.000000000000000 ) ;
#945 = ORIENTED_EDGE ( 'NONE', *, *, #871, .T. ) ;
#946 = LINE ( 'NONE', #375, #346 ) ;
#947 = FACE_BOUND ( 'NONE', #379, .T. ) ;
#948 = EDGE_CURVE ( 'NONE', #584, #341, #751, .T. ) ;
#949 = CARTESIAN_POINT ( 'NONE',  ( 105.0000000000000000, 8.000000000000000000, -101.6000000000000512 ) ) ;
#950 = EDGE_LOOP ( 'NONE', ( #886, #269, #595, #125 ) ) ;
#951 = DIRECTION ( 'NONE',  ( 0.000000000000000000, 0.000000000000000000, 1.000000000000000000 ) ) ;
#952 = CYLINDRICAL_SURFACE ( 'NONE', #526, 14.99999999999998579 ) ;
#953 = AXIS2_PLACEMENT_3D ( 'NONE', #448, #279, #18 ) ;
#954 = CARTESIAN_POINT ( 'NONE',  ( 134.4000000000000057, 0.000000000000000000, -143.6500000000000341 ) ) ;
#955 = ORIENTED_EDGE ( 'NONE', *, *, #1039, .T. ) ;
#956 = DIRECTION ( 'NONE',  ( 0.000000000000000000, 1.000000000000000000, 0.000000000000000000 ) ) ;
#957 = CARTESIAN_POINT ( 'NONE',  ( 92.97060640761097261, 8.000000000000000000, -86.60000000000005116 ) ) ;
#958 = DIRECTION ( 'NONE',  ( -0.000000000000000000, -1.000000000000000000, -0.000000000000000000 ) ) ;
#959 = EDGE_CURVE ( 'NONE', #1013, #990, #817, .T. ) ;
#960 = EDGE_LOOP ( 'NONE', ( #227, #537, #83, #439 ) ) ;
#961 = LINE ( 'NONE', #552, #506 ) ;
#962 = LINE ( 'NONE', #313, #48 ) ;
#963 = VERTEX_POINT ( 'NONE', #142 ) ;
#964 = DIRECTION ( 'NONE',  ( 0.000000000000000000, 1.000000000000000000, 0.000000000000000000 ) ) ;
#965 = LINE ( 'NONE', #220, #481 ) ;
#966 = EDGE_CURVE ( 'NONE', #561, #339, #490, .T. ) ;
#967 = VECTOR ( 'NONE', #616, 1000.000000000000000 ) ;
#968 = PRESENTATION_STYLE_ASSIGNMENT (( #636 ) ) ;
#969 = ORIENTED_EDGE ( 'NONE', *, *, #566, .F. ) ;
#970 = DIRECTION ( 'NONE',  ( 0.6687529699370404757, 0.000000000000000000, -0.7434846771792864573 ) ) ;
#971 = ORIENTED_EDGE ( 'NONE', *, *, #519, .F. ) ;
#972 = DIRECTION ( 'NONE',  ( 0.000000000000000000, 0.000000000000000000, 1.000000000000000000 ) ) ;
#973 = ADVANCED_FACE ( 'NONE', ( #977 ), #1056, .F. ) ;
#974 = VECTOR ( 'NONE', #1061, 1000.000000000000000 ) ;
#975 = CARTESIAN_POINT ( 'NONE',  ( 105.0000000000000000, 8.000000000000000000, -98.60000000000009379 ) ) ;
#976 = VERTEX_POINT ( 'NONE', #821 ) ;
#977 = FACE_OUTER_BOUND ( 'NONE', #1000, .T. ) ;
#978 = PLANE ( 'NONE',  #987 ) ;
#979 = AXIS2_PLACEMENT_3D ( 'NONE', #293, #469, #815 ) ;
#980 = ADVANCED_FACE ( 'NONE', ( #152 ), #811, .F. ) ;
#981 = CARTESIAN_POINT ( 'NONE',  ( 105.0000000000000000, 8.000000000000000000, -104.6000000000000085 ) ) ;
#982 = CARTESIAN_POINT ( 'NONE',  ( -116.1522701576892871, 0.000000000000000000, -91.56870545094447778 ) ) ;
#983 = DIRECTION ( 'NONE',  ( -0.000000000000000000, -1.000000000000000000, -0.000000000000000000 ) ) ;
#984 = FACE_BOUND ( 'NONE', #820, .T. ) ;
#985 = EDGE_LOOP ( 'NONE', ( #311, #606, #612, #71 ) ) ;
#986 = VERTEX_POINT ( 'NONE', #575 ) ;
#987 = AXIS2_PLACEMENT_3D ( 'NONE', #395, #407, #646 ) ;
#988 = DIRECTION ( 'NONE',  ( -0.000000000000000000, 1.000000000000000000, -0.000000000000000000 ) ) ;
#989 = CYLINDRICAL_SURFACE ( 'NONE', #599, 14.99999999999998579 ) ;
#990 = VERTEX_POINT ( 'NONE', #228 ) ;
#991 = EDGE_CURVE ( 'NONE', #586, #478, #66, .T. ) ;
#992 = VERTEX_POINT ( 'NONE', #982 ) ;
#993 = DIRECTION ( 'NONE',  ( 0.000000000000000000, 1.000000000000000000, 0.000000000000000000 ) ) ;
#994 = STYLED_ITEM ( 'NONE', ( #968 ), #110 ) ;
#995 = CIRCLE ( 'NONE', #533, 2.999999999999988898 ) ;
#996 = VERTEX_POINT ( 'NONE', #479 ) ;
#997 = CARTESIAN_POINT ( 'NONE',  ( 101.8924225337623994, 8.000000000000000000, -120.5749643607555726 ) ) ;
#998 = ORIENTED_EDGE ( 'NONE', *, *, #351, .T. ) ;
#999 = CARTESIAN_POINT ( 'NONE',  ( -92.97060640761097261, 0.000000000000000000, -101.6000000000000369 ) ) ;
#1000 = EDGE_LOOP ( 'NONE', ( #483, #1068, #582, #706 ) ) ;
#1001 = AXIS2_PLACEMENT_3D ( 'NONE', #32, #689, #181 ) ;
#1002 = ORIENTED_EDGE ( 'NONE', *, *, #475, .T. ) ;
#1003 = CARTESIAN_POINT ( 'NONE',  ( -105.0000000000000000, 0.000000000000000000, -101.6000000000000512 ) ) ;
#1004 = AXIS2_PLACEMENT_3D ( 'NONE', #276, #770, #543 ) ;
#1005 = ADVANCED_FACE ( 'NONE', ( #51 ), #68, .F. ) ;
#1006 = PRESENTATION_STYLE_ASSIGNMENT (( #1016 ) ) ;
#1007 = VERTEX_POINT ( 'NONE', #380 ) ;
#1008 = DIRECTION ( 'NONE',  ( 0.000000000000000000, 1.000000000000000000, 0.000000000000000000 ) ) ;
#1009 = CARTESIAN_POINT ( 'NONE',  ( -145.3999999999999773, 8.000000000000000000, -140.4000000000000341 ) ) ;
#1010 = PLANE ( 'NONE',  #953 ) ;
#1011 = EDGE_CURVE ( 'NONE', #175, #924, #57, .T. ) ;
#1012 = VECTOR ( 'NONE', #49, 1000.000000000000000 ) ;
#1013 = VERTEX_POINT ( 'NONE', #471 ) ;
#1014 = CARTESIAN_POINT ( 'NONE',  ( 145.4000000000000341, 0.000000000000000000, -140.4000000000000341 ) ) ;
#1015 = CARTESIAN_POINT ( 'NONE',  ( 134.4000000000000057, 8.000000000000000000, -137.1500000000000341 ) ) ;
#1016 = SURFACE_STYLE_USAGE ( .BOTH. , #681 ) ;
#1017 = EDGE_LOOP ( 'NONE', ( #325, #816, #417, #769 ) ) ;
#1018 = PRESENTATION_LAYER_ASSIGNMENT (  '', '', ( #555 ) ) ;
#1019 = DIRECTION ( 'NONE',  ( -0.6687529699370398095, -0.000000000000000000, -0.7434846771792870124 ) ) ;
#1020 = CARTESIAN_POINT ( 'NONE',  ( 145.4000000000000341, 8.000000000000000000, -143.6500000000000341 ) ) ;
#1021 = VECTOR ( 'NONE', #697, 1000.000000000000000 ) ;
#1022 = CYLINDRICAL_SURFACE ( 'NONE', #120, 2.999999999999960920 ) ;
#1023 = EDGE_LOOP ( 'NONE', ( #33, #166, #794, #252 ) ) ;
#1024 = DIRECTION ( 'NONE',  ( 0.000000000000000000, 1.000000000000000000, 0.000000000000000000 ) ) ;
#1025 = ADVANCED_FACE ( 'NONE', ( #132 ), #466, .T. ) ;
#1026 = CIRCLE ( 'NONE', #563, 12.00000000000001066 ) ;
#1027 = CARTESIAN_POINT ( 'NONE',  ( 105.0000000000000853, 8.000000000000000000, -86.60000000000007958 ) ) ;
#1028 = FACE_OUTER_BOUND ( 'NONE', #335, .T. ) ;
#1029 = AXIS2_PLACEMENT_3D ( 'NONE', #236, #909, #972 ) ;
#1030 = AXIS2_PLACEMENT_3D ( 'NONE', #385, #716, #298 ) ;
#1031 = EDGE_LOOP ( 'NONE', ( #39, #547, #1062, #1034, #685, #199, #551, #878 ) ) ;
#1032 = DIRECTION ( 'NONE',  ( 0.000000000000000000, 1.000000000000000000, 0.000000000000000000 ) ) ;
#1033 = LINE ( 'NONE', #1027, #240 ) ;
#1034 = ORIENTED_EDGE ( 'NONE', *, *, #408, .F. ) ;
#1035 = CARTESIAN_POINT ( 'NONE',  ( -92.97060640761097261, 0.000000000000000000, -116.6000000000000227 ) ) ;
#1036 = AXIS2_PLACEMENT_3D ( 'NONE', #137, #712, #295 ) ;
#1037 = LINE ( 'NONE', #865, #927 ) ;
#1038 = UNCERTAINTY_MEASURE_WITH_UNIT (LENGTH_MEASURE( 1.000000000000000082E-05 ), #82, 'distance_accuracy_value', 'NONE');
#1039 = EDGE_CURVE ( 'NONE', #22, #1077, #47, .T. ) ;
#1040 = DIRECTION ( 'NONE',  ( 0.000000000000000000, 1.000000000000000000, 0.000000000000000000 ) ) ;
#1041 = VERTEX_POINT ( 'NONE', #1050 ) ;
#1042 = DIRECTION ( 'NONE',  ( 0.7434846771792864573, -0.000000000000000000, 0.6687529699370404757 ) ) ;
#1043 = DIRECTION ( 'NONE',  ( -0.000000000000000000, -1.000000000000000000, -0.000000000000000000 ) ) ;
#1044 = CARTESIAN_POINT ( 'NONE',  ( -134.3999999999999773, 0.000000000000000000, -143.6500000000000341 ) ) ;
#1045 = ORIENTED_EDGE ( 'NONE', *, *, #853, .T. ) ;
#1046 = LINE ( 'NONE', #312, #524 ) ;
#1047 = PLANE ( 'NONE',  #338 ) ;
#1048 =( LENGTH_UNIT ( ) NAMED_UNIT ( * ) SI_UNIT ( .MILLI., .METRE. ) );
#1049 = EDGE_LOOP ( 'NONE', ( #342, #4, #753, #1002 ) ) ;
#1050 = CARTESIAN_POINT ( 'NONE',  ( -105.0000000000000000, 0.000000000000000000, -104.6000000000000369 ) ) ;
#1051 = DIRECTION ( 'NONE',  ( 0.000000000000000000, 0.000000000000000000, 1.000000000000000000 ) ) ;
#1052 = AXIS2_PLACEMENT_3D ( 'NONE', #779, #268, #362 ) ;
#1053 = CYLINDRICAL_SURFACE ( 'NONE', #180, 14.99999999999998579 ) ;
#1054 = VECTOR ( 'NONE', #887, 1000.000000000000000 ) ;
#1055 = VERTEX_POINT ( 'NONE', #634 ) ;
#1056 = PLANE ( 'NONE',  #123 ) ;
#1057 = EDGE_CURVE ( 'NONE', #564, #339, #961, .T. ) ;
#1058 = LINE ( 'NONE', #651, #330 ) ;
#1059 = EDGE_CURVE ( 'NONE', #963, #976, #883, .T. ) ;
#1060 = VECTOR ( 'NONE', #416, 1000.000000000000114 ) ;
#1061 = DIRECTION ( 'NONE',  ( -0.000000000000000000, -1.000000000000000000, -0.000000000000000000 ) ) ;
#1062 = ORIENTED_EDGE ( 'NONE', *, *, #254, .F. ) ;
#1063 = CARTESIAN_POINT ( 'NONE',  ( -116.1522701576892871, 8.000000000000000000, -91.56870545094447778 ) ) ;
#1064 = DIRECTION ( 'NONE',  ( 0.000000000000000000, 0.000000000000000000, 1.000000000000000000 ) ) ;
#1065 = AXIS2_PLACEMENT_3D ( 'NONE', #1009, #934, #494 ) ;
#1066 = LINE ( 'NONE', #746, #314 ) ;
#1067 = ORIENTED_EDGE ( 'NONE', *, *, #600, .F. ) ;
#1068 = ORIENTED_EDGE ( 'NONE', *, *, #1073, .F. ) ;
#1069 = FACE_OUTER_BOUND ( 'NONE', #19, .T. ) ;
#1070 = VECTOR ( 'NONE', #305, 1000.000000000000000 ) ;
#1071 = DIRECTION ( 'NONE',  ( -0.000000000000000000, -1.000000000000000000, -0.000000000000000000 ) ) ;
#1072 = EDGE_CURVE ( 'NONE', #542, #222, #420, .T. ) ;
#1073 = EDGE_CURVE ( 'NONE', #423, #863, #484, .T. ) ;
#1074 = EDGE_LOOP ( 'NONE', ( #832, #331, #172, #445 ) ) ;
#1075 = DIRECTION ( 'NONE',  ( 1.000000000000000000, 0.000000000000000000, 0.000000000000000000 ) ) ;
#1076 = CIRCLE ( 'NONE', #767, 3.250000000000002665 ) ;
#1077 = VERTEX_POINT ( 'NONE', #743 ) ;
#1078 = CIRCLE ( 'NONE', #752, 14.99999999999998579 ) ;
#1079 = PLANE ( 'NONE',  #31 ) ;
ENDSEC;
END-ISO-10303-21;
