ISO-10303-21;
HEADER;
FILE_DESCRIPTION (( 'STEP AP214' ),
    '1' );
FILE_NAME ('feet_assembly.STEP',
    '2026-09-04T22:01:28',
    ( '' ),
    ( '' ),
    'SwSTEP 2.0',
    'SolidWorks 2026',
    '' );
FILE_SCHEMA (( 'AUTOMOTIVE_DESIGN' ));
ENDSEC;

DATA;
#1 = PRODUCT_RELATED_PRODUCT_CATEGORY ( 'part', '', ( #44 ) ) ;
#2 = DIRECTION ( 'NONE',  ( 0.000000000000000000, 0.000000000000000000, 1.000000000000000000 ) ) ;
#3 =( GEOMETRIC_REPRESENTATION_CONTEXT ( 3 ) GLOBAL_UNCERTAINTY_ASSIGNED_CONTEXT ( ( #91 ) ) GLOBAL_UNIT_ASSIGNED_CONTEXT ( ( #67, #43, #52 ) ) REPRESENTATION_CONTEXT ( 'NONE', 'WORKASPACE' ) );
#4 = CARTESIAN_POINT ( 'NONE',  ( 0.000000000000000000, 0.000000000000000000, 0.000000000000000000 ) ) ;
#5 = CONTEXT_DEPENDENT_SHAPE_REPRESENTATION ( #14, #93 ) ;
#6 = APPLIED_DOCUMENT_REFERENCE ( #95,'',( #73) ) ;
#7 = PROPERTY_DEFINITION_REPRESENTATION ( #26, #9 ) ;
#8 = PRODUCT_DEFINITION_FORMATION_WITH_SPECIFIED_SOURCE ( 'Symmetric', '', #44, .NOT_KNOWN. ) ;
#9 = SHAPE_REPRESENTATION ( 'feet_part_1', ( #96 ), #3 ) ;
#10 = CARTESIAN_POINT ( 'NONE',  ( 0.000000000000000000, 0.000000000000000000, 0.000000000000000000 ) ) ;
#11 = CARTESIAN_POINT ( 'NONE',  ( 0.000000000000000000, 0.000000000000000000, 0.000000000000000000 ) ) ;
#12 = IDENTIFICATION_ROLE ( 'external document id and location', $) ;
#13 =( NAMED_UNIT ( * ) PLANE_ANGLE_UNIT ( ) SI_UNIT ( $, .RADIAN. ) );
#14 =( REPRESENTATION_RELATIONSHIP ('NONE','NONE', #74, #27 ) REPRESENTATION_RELATIONSHIP_WITH_TRANSFORMATION ( #71 )SHAPE_REPRESENTATION_RELATIONSHIP( ) );
#15 =( LENGTH_UNIT ( ) NAMED_UNIT ( * ) SI_UNIT ( .MILLI., .METRE. ) );
#16 = APPLICATION_PROTOCOL_DEFINITION ( 'draft international standard', 'automotive_design', 1998, #81 ) ;
#17 = SHAPE_DEFINITION_REPRESENTATION ( #99, #27 ) ;
#18 =( GEOMETRIC_REPRESENTATION_CONTEXT ( 3 ) GLOBAL_UNCERTAINTY_ASSIGNED_CONTEXT ( ( #59 ) ) GLOBAL_UNIT_ASSIGNED_CONTEXT ( ( #15, #13, #103 ) ) REPRESENTATION_CONTEXT ( 'NONE', 'WORKASPACE' ) );
#19 = SHAPE_DEFINITION_REPRESENTATION ( #104, #74 ) ;
#20 =( REPRESENTATION_RELATIONSHIP ('NONE','NONE', #74, #9 ) REPRESENTATION_RELATIONSHIP_WITH_TRANSFORMATION ( #46 )SHAPE_REPRESENTATION_RELATIONSHIP( ) );
#21 = APPLICATION_PROTOCOL_DEFINITION ( 'draft international standard', 'automotive_design', 1998, #85 ) ;
#22 = DIRECTION ( 'NONE',  ( 0.000000000000000000, 0.000000000000000000, 1.000000000000000000 ) ) ;
#23 = DIRECTION ( 'NONE',  ( 1.000000000000000000, -1.725633230170963324E-31, 0.000000000000000000 ) ) ;
#24 = IDENTIFICATION_ROLE ( 'external document id and location', $) ;
#25 = APPLIED_DOCUMENT_REFERENCE ( #47,'',( #76) ) ;
#26 = PROPERTY_DEFINITION ('external definition','', #47 ) ;
#27 = SHAPE_REPRESENTATION ( 'feet_part_2', ( #83 ), #18 ) ;
#28 = PRODUCT_DEFINITION_FORMATION_WITH_SPECIFIED_SOURCE ( 'Symmetric', '', #35, .NOT_KNOWN. ) ;
#29 = DIRECTION ( 'NONE',  ( 1.000000000000000000, 0.000000000000000000, 0.000000000000000000 ) ) ;
#30 = DIRECTION ( 'NONE',  ( 1.000000000000000000, 0.000000000000000000, 0.000000000000000000 ) ) ;
#31 = PRODUCT_CONTEXT ( 'NONE', #72, 'mechanical' ) ;
#32 = PRODUCT_CONTEXT ( 'NONE', #81, 'mechanical' ) ;
#33 = PRODUCT ( 'feet_assembly', 'feet_assembly', '', ( #31 ) ) ;
#34 = APPLIED_EXTERNAL_IDENTIFICATION_ASSIGNMENT ( 'feet_part_2.STEP' , #24, #36,( #95) ) ;
#35 = PRODUCT ( 'feet_part_2', 'feet_part_2', '', ( #69 ) ) ;
#36 = EXTERNAL_SOURCE (IDENTIFIER('') ) ;
#37 = PRODUCT_RELATED_PRODUCT_CATEGORY ( 'part', '', ( #35 ) ) ;
#38 =( NAMED_UNIT ( * ) SI_UNIT ( $, .STERADIAN. ) SOLID_ANGLE_UNIT ( ) );
#39 = AXIS2_PLACEMENT_3D ( 'NONE', #78, #51, #23 ) ;
#40 =( NAMED_UNIT ( * ) PLANE_ANGLE_UNIT ( ) SI_UNIT ( $, .RADIAN. ) );
#41 = DIRECTION ( 'NONE',  ( 1.000000000000000000, 0.000000000000000000, 0.000000000000000000 ) ) ;
#42 = APPLICATION_CONTEXT ( 'automotive_design' ) ;
#43 =( NAMED_UNIT ( * ) PLANE_ANGLE_UNIT ( ) SI_UNIT ( $, .RADIAN. ) );
#44 = PRODUCT ( 'feet_part_1', 'feet_part_1', '', ( #32 ) ) ;
#45 = PRODUCT_DEFINITION_CONTEXT ( 'detailed design', #42, 'design' ) ;
#46 = ITEM_DEFINED_TRANSFORMATION ( 'NONE', 'NONE', #39,  #96 ) ;
#47 = DOCUMENT_FILE ( 'feet_part_1.STEP' , '', '', #49, '' ,$ ) ;
#48 = PRODUCT_DEFINITION_FORMATION_WITH_SPECIFIED_SOURCE ( 'Symmetric', '', #33, .NOT_KNOWN. ) ;
#49 = DOCUMENT_TYPE ( 'geometry' ) ;
#50 = AXIS2_PLACEMENT_3D ( 'NONE', #92, #84, #68 ) ;
#51 = DIRECTION ( 'NONE',  ( 0.000000000000000000, 4.657238231938568727E-32, 1.000000000000000000 ) ) ;
#52 =( NAMED_UNIT ( * ) SI_UNIT ( $, .STERADIAN. ) SOLID_ANGLE_UNIT ( ) );
#53 = APPLICATION_PROTOCOL_DEFINITION ( 'draft international standard', 'automotive_design', 1998, #72 ) ;
#54 = PRODUCT_DEFINITION_CONTEXT ( 'detailed design', #61, 'design' ) ;
#55 = PROPERTY_DEFINITION ('document property','', #47 ) ;
#56 = PRODUCT_DEFINITION_CONTEXT ( 'detailed design', #85, 'design' ) ;
#57 = PRODUCT_DEFINITION ( 'General', '', #48, #56 ) ;
#58 = PROPERTY_DEFINITION ('external definition','', #95 ) ;
#59 = UNCERTAINTY_MEASURE_WITH_UNIT (LENGTH_MEASURE( 1.000000000000000082E-05 ), #15, 'distance_accuracy_value', 'NONE');
#60 = APPLIED_EXTERNAL_IDENTIFICATION_ASSIGNMENT ( 'feet_part_1.STEP' , #12, #86,( #47) ) ;
#61 = APPLICATION_CONTEXT ( 'automotive_design' ) ;
#62 = DIRECTION ( 'NONE',  ( 0.000000000000000000, 0.000000000000000000, 1.000000000000000000 ) ) ;
#63 = AXIS2_PLACEMENT_3D ( 'NONE', #4, #2, #29 ) ;
#64 = PRODUCT_DEFINITION_SHAPE ( 'NONE', 'NONE',  #107 ) ;
#65 = APPLICATION_PROTOCOL_DEFINITION ( 'draft international standard', 'automotive_design', 1998, #42 ) ;
#66 =( GEOMETRIC_REPRESENTATION_CONTEXT ( 3 ) GLOBAL_UNCERTAINTY_ASSIGNED_CONTEXT ( ( #98 ) ) GLOBAL_UNIT_ASSIGNED_CONTEXT ( ( #75, #40, #38 ) ) REPRESENTATION_CONTEXT ( 'NONE', 'WORKASPACE' ) );
#67 =( LENGTH_UNIT ( ) NAMED_UNIT ( * ) SI_UNIT ( .MILLI., .METRE. ) );
#68 = DIRECTION ( 'NONE',  ( 1.000000000000000000, -1.725633230170963324E-31, 0.000000000000000000 ) ) ;
#69 = PRODUCT_CONTEXT ( 'NONE', #89, 'mechanical' ) ;
#70 = SHAPE_DEFINITION_REPRESENTATION ( #80, #9 ) ;
#71 = ITEM_DEFINED_TRANSFORMATION ( 'NONE', 'NONE', #50,  #83 ) ;
#72 = APPLICATION_CONTEXT ( 'automotive_design' ) ;
#73 = PRODUCT_DEFINITION ( 'General', '', #28, #45 ) ;
#74 = SHAPE_REPRESENTATION ( 'feet_assembly', ( #63, #39, #50 ), #66 ) ;
#75 =( LENGTH_UNIT ( ) NAMED_UNIT ( * ) SI_UNIT ( .MILLI., .METRE. ) );
#76 = PRODUCT_DEFINITION ( 'General', '', #8, #54 ) ;
#77 = APPLICATION_PROTOCOL_DEFINITION ( 'draft international standard', 'automotive_design', 1998, #89 ) ;
#78 = CARTESIAN_POINT ( 'NONE',  ( -139.1968257940519607, -5.106806206207792798, 208.5199280081285167 ) ) ;
#79 = DOCUMENT_TYPE ( 'geometry' ) ;
#80 = PRODUCT_DEFINITION_SHAPE ( 'NONE', 'NONE',  #76 ) ;
#81 = APPLICATION_CONTEXT ( 'automotive_design' ) ;
#82 = APPLICATION_PROTOCOL_DEFINITION ( 'draft international standard', 'automotive_design', 1998, #61 ) ;
#83 = AXIS2_PLACEMENT_3D ( 'NONE', #10, #62, #41 ) ;
#84 = DIRECTION ( 'NONE',  ( 0.000000000000000000, 4.657238231938568727E-32, 1.000000000000000000 ) ) ;
#85 = APPLICATION_CONTEXT ( 'automotive_design' ) ;
#86 = EXTERNAL_SOURCE (IDENTIFIER('') ) ;
#87 = PROPERTY_DEFINITION_REPRESENTATION ( #102, #27 ) ;
#88 = ROLE_ASSOCIATION ( #90, #6 ) ;
#89 = APPLICATION_CONTEXT ( 'automotive_design' ) ;
#90 = OBJECT_ROLE ('mandatory',$ ) ;
#91 = UNCERTAINTY_MEASURE_WITH_UNIT (LENGTH_MEASURE( 1.000000000000000082E-05 ), #67, 'distance_accuracy_value', 'NONE');
#92 = CARTESIAN_POINT ( 'NONE',  ( -139.1968257940519891, -5.106806206207847865, 208.6000000000000227 ) ) ;
#93 = PRODUCT_DEFINITION_SHAPE ( 'NONE', 'NONE',  #108 ) ;
#94 = CONTEXT_DEPENDENT_SHAPE_REPRESENTATION ( #20, #64 ) ;
#95 = DOCUMENT_FILE ( 'feet_part_2.STEP' , '', '', #79, '' ,$ ) ;
#96 = AXIS2_PLACEMENT_3D ( 'NONE', #11, #22, #30 ) ;
#97 = OBJECT_ROLE ('mandatory',$ ) ;
#98 = UNCERTAINTY_MEASURE_WITH_UNIT (LENGTH_MEASURE( 1.000000000000000082E-05 ), #75, 'distance_accuracy_value', 'NONE');
#99 = PRODUCT_DEFINITION_SHAPE ( 'NONE', 'NONE',  #73 ) ;
#100 = ROLE_ASSOCIATION ( #97, #25 ) ;
#101 = PRODUCT_RELATED_PRODUCT_CATEGORY ( 'part', '', ( #33 ) ) ;
#102 = PROPERTY_DEFINITION ('document property','', #95 ) ;
#103 =( NAMED_UNIT ( * ) SI_UNIT ( $, .STERADIAN. ) SOLID_ANGLE_UNIT ( ) );
#104 = PRODUCT_DEFINITION_SHAPE ( 'NONE', 'NONE',  #57 ) ;
#105 = PROPERTY_DEFINITION_REPRESENTATION ( #58, #27 ) ;
#106 = PROPERTY_DEFINITION_REPRESENTATION ( #55, #9 ) ;
#107 = NEXT_ASSEMBLY_USAGE_OCCURRENCE ( 'NAUO37', ' ', ' ', #57, #76, $ ) ;
#108 = NEXT_ASSEMBLY_USAGE_OCCURRENCE ( 'NAUO38', ' ', ' ', #57, #73, $ ) ;
ENDSEC;
END-ISO-10303-21;
