ISO-10303-21;
HEADER;
FILE_DESCRIPTION (( 'STEP AP214' ),
    '1' );
FILE_NAME ('HexHolder.STEP',
    '2026-09-04T22:01:18',
    ( '' ),
    ( '' ),
    'SwSTEP 2.0',
    'SolidWorks 2026',
    '' );
FILE_SCHEMA (( 'AUTOMOTIVE_DESIGN' ));
ENDSEC;

DATA;
#1 = CARTESIAN_POINT ( 'NONE',  ( -0.2539896843220038614, 0.004751167366252529757, 0.2500000000000000000 ) ) ;
#2 = STYLED_ITEM ( 'NONE', ( #123 ), #185 ) ;
#3 = UNCERTAINTY_MEASURE_WITH_UNIT (LENGTH_MEASURE( 1.000000000000000082E-05 ), #177, 'distance_accuracy_value', 'NONE');
#4 = LINE ( 'NONE', #527, #440 ) ;
#5 = DIRECTION ( 'NONE',  ( 0.000000000000000000, 0.000000000000000000, 1.000000000000000000 ) ) ;
#6 = VERTEX_POINT ( 'NONE', #477 ) ;
#7 = ORIENTED_EDGE ( 'NONE', *, *, #460, .T. ) ;
#8 = MECHANICAL_DESIGN_GEOMETRIC_PRESENTATION_REPRESENTATION (  '', ( #283 ), #196 ) ;
#9 = STYLED_ITEM ( 'NONE', ( #272 ), #270 ) ;
#10 = EDGE_LOOP ( 'NONE', ( #345, #455, #184, #343 ) ) ;
#11 = VECTOR ( 'NONE', #55, 39.37007874015748143 ) ;
#12 = SURFACE_SIDE_STYLE ('',( #130 ) ) ;
#13 = ORIENTED_EDGE ( 'NONE', *, *, #242, .F. ) ;
#14 = DIMENSIONAL_EXPONENTS ( 1.000000000000000000, 0.000000000000000000, 0.000000000000000000, 0.000000000000000000, 0.000000000000000000, 0.000000000000000000, 0.000000000000000000 ) ;
#15 = VERTEX_POINT ( 'NONE', #24 ) ;
#16 = SURFACE_STYLE_USAGE ( .BOTH. , #430 ) ;
#17 = PLANE ( 'NONE',  #317 ) ;
#18 = DIRECTION ( 'NONE',  ( -0.000000000000000000, -0.000000000000000000, -1.000000000000000000 ) ) ;
#19 = SURFACE_SIDE_STYLE ('',( #22 ) ) ;
#20 = DIRECTION ( 'NONE',  ( 1.000000000000000000, 0.000000000000000000, 0.000000000000000000 ) ) ;
#21 = ADVANCED_FACE ( 'NONE', ( #400, #521 ), #397, .F. ) ;
#22 = SURFACE_STYLE_FILL_AREA ( #395 ) ;
#23 = CARTESIAN_POINT ( 'NONE',  ( -0.1311094737978081570, -0.2175859352389193091, 0.000000000000000000 ) ) ;
#24 = CARTESIAN_POINT ( 'NONE',  ( -0.2539896843220038614, 0.004751167366252529757, 0.2500000000000000000 ) ) ;
#25 = AXIS2_PLACEMENT_3D ( 'NONE', #136, #5, #497 ) ;
#26 = FILL_AREA_STYLE_COLOUR ( '', #358 ) ;
#27 = LENGTH_MEASURE_WITH_UNIT ( LENGTH_MEASURE( 0.02539999999999999897 ), #103 );
#28 = DIRECTION ( 'NONE',  ( -0.000000000000000000, -0.000000000000000000, -1.000000000000000000 ) ) ;
#29 =( LENGTH_UNIT ( ) NAMED_UNIT ( * ) SI_UNIT ( $, .METRE. ) );
#30 = CARTESIAN_POINT ( 'NONE',  ( 0.1311094737978083236, 0.2175859352389192536, 0.000000000000000000 ) ) ;
#31 = CARTESIAN_POINT ( 'NONE',  ( -0.1228802105241956349, 0.2223371026051717547, 0.2500000000000000000 ) ) ;
#32 = COLOUR_RGB ( '',0.8588235294117646523, 0.8588235294117646523, 0.8588235294117646523 ) ;
#33 = LINE ( 'NONE', #367, #492 ) ;
#34 = AXIS2_PLACEMENT_3D ( 'NONE', #82, #252, #414 ) ;
#35 = CYLINDRICAL_SURFACE ( 'NONE', #480, 0.4499999999999999556 ) ;
#36 = CARTESIAN_POINT ( 'NONE',  ( 0.2539896843220039724, -0.004751167366252446490, 0.2500000000000000000 ) ) ;
#37 =( CONVERSION_BASED_UNIT ( 'INCH', #113 ) LENGTH_UNIT ( ) NAMED_UNIT ( #43 ) );
#38 = LINE ( 'NONE', #145, #11 ) ;
#39 = PRESENTATION_LAYER_ASSIGNMENT (  '', '', ( #219 ) ) ;
#40 =( GEOMETRIC_REPRESENTATION_CONTEXT ( 3 ) GLOBAL_UNCERTAINTY_ASSIGNED_CONTEXT ( ( #135 ) ) GLOBAL_UNIT_ASSIGNED_CONTEXT ( ( #422, #255, #331 ) ) REPRESENTATION_CONTEXT ( 'NONE', 'WORKASPACE' ) );
#41 =( NAMED_UNIT ( * ) PLANE_ANGLE_UNIT ( ) SI_UNIT ( $, .RADIAN. ) );
#42 = ORIENTED_EDGE ( 'NONE', *, *, #368, .T. ) ;
#43 = DIMENSIONAL_EXPONENTS ( 1.000000000000000000, 0.000000000000000000, 0.000000000000000000, 0.000000000000000000, 0.000000000000000000, 0.000000000000000000, 0.000000000000000000 ) ;
#44 = FILL_AREA_STYLE ('',( #418 ) ) ;
#45 = EDGE_LOOP ( 'NONE', ( #257, #54, #91, #498 ) ) ;
#46 =( NAMED_UNIT ( * ) SI_UNIT ( $, .STERADIAN. ) SOLID_ANGLE_UNIT ( ) );
#47 = DIRECTION ( 'NONE',  ( 0.5161097044805095235, 0.8565224882868173184, 0.000000000000000000 ) ) ;
#48 = PRESENTATION_LAYER_ASSIGNMENT (  '', '', ( #348 ) ) ;
#49 = VECTOR ( 'NONE', #69, 39.37007874015748143 ) ;
#50 = ORIENTED_EDGE ( 'NONE', *, *, #352, .T. ) ;
#51 =( LENGTH_UNIT ( ) NAMED_UNIT ( * ) SI_UNIT ( $, .METRE. ) );
#52 = UNCERTAINTY_MEASURE_WITH_UNIT (LENGTH_MEASURE( 1.000000000000000082E-05 ), #511, 'distance_accuracy_value', 'NONE');
#53 = DIRECTION ( 'NONE',  ( -0.8565224882868173184, 0.5161097044805095235, 0.000000000000000000 ) ) ;
#54 = ORIENTED_EDGE ( 'NONE', *, *, #279, .F. ) ;
#55 = DIRECTION ( 'NONE',  ( -0.000000000000000000, -0.000000000000000000, -1.000000000000000000 ) ) ;
#56 = SURFACE_STYLE_FILL_AREA ( #313 ) ;
#57 = ORIENTED_EDGE ( 'NONE', *, *, #384, .T. ) ;
#58 =( NAMED_UNIT ( * ) PLANE_ANGLE_UNIT ( ) SI_UNIT ( $, .RADIAN. ) );
#59 =( NAMED_UNIT ( * ) PLANE_ANGLE_UNIT ( ) SI_UNIT ( $, .RADIAN. ) );
#60 = AXIS2_PLACEMENT_3D ( 'NONE', #332, #450, #290 ) ;
#61 = VECTOR ( 'NONE', #321, 39.37007874015748143 ) ;
#62 = SURFACE_STYLE_FILL_AREA ( #515 ) ;
#63 = ORIENTED_EDGE ( 'NONE', *, *, #334, .F. ) ;
#64 =( NAMED_UNIT ( * ) SI_UNIT ( $, .STERADIAN. ) SOLID_ANGLE_UNIT ( ) );
#65 = DIRECTION ( 'NONE',  ( 1.000000000000000000, 0.000000000000000000, 0.000000000000000000 ) ) ;
#66 = PRESENTATION_STYLE_ASSIGNMENT (( #239 ) ) ;
#67 = COLOUR_RGB ( '',0.8588235294117646523, 0.8588235294117646523, 0.8588235294117646523 ) ;
#68 = STYLED_ITEM ( 'NONE', ( #396 ), #282 ) ;
#69 = DIRECTION ( 'NONE',  ( -0.000000000000000000, -0.000000000000000000, -1.000000000000000000 ) ) ;
#70 = ORIENTED_EDGE ( 'NONE', *, *, #328, .T. ) ;
#71 = LINE ( 'NONE', #249, #49 ) ;
#72 = ORIENTED_EDGE ( 'NONE', *, *, #106, .F. ) ;
#73 = SURFACE_STYLE_USAGE ( .BOTH. , #205 ) ;
#74 = EDGE_CURVE ( 'NONE', #231, #416, #144, .T. ) ;
#75 = VECTOR ( 'NONE', #203, 39.37007874015748143 ) ;
#76 = COLOUR_RGB ( '',0.8588235294117646523, 0.8588235294117646523, 0.8588235294117646523 ) ;
#77 = DIRECTION ( 'NONE',  ( 0.4837153815287881242, -0.8752253593632093320, 0.000000000000000000 ) ) ;
#78 =( LENGTH_UNIT ( ) NAMED_UNIT ( * ) SI_UNIT ( $, .METRE. ) );
#79 = DIRECTION ( 'NONE',  ( -0.5161097044805097456, -0.8565224882868170964, 0.000000000000000000 ) ) ;
#80 = UNCERTAINTY_MEASURE_WITH_UNIT (LENGTH_MEASURE( 1.000000000000000082E-05 ), #372, 'distance_accuracy_value', 'NONE');
#81 =( CONVERSION_BASED_UNIT ( 'INCH', #486 ) LENGTH_UNIT ( ) NAMED_UNIT ( #456 ) );
#82 = CARTESIAN_POINT ( 'NONE',  ( -0.1311094737978081570, -0.2175859352389193091, 0.2500000000000000000 ) ) ;
#83 = ADVANCED_FACE ( 'NONE', ( #389 ), #17, .T. ) ;
#84 =( GEOMETRIC_REPRESENTATION_CONTEXT ( 3 ) GLOBAL_UNCERTAINTY_ASSIGNED_CONTEXT ( ( #97 ) ) GLOBAL_UNIT_ASSIGNED_CONTEXT ( ( #297, #359, #228 ) ) REPRESENTATION_CONTEXT ( 'NONE', 'WORKASPACE' ) );
#85 = VERTEX_POINT ( 'NONE', #495 ) ;
#86 = CARTESIAN_POINT ( 'NONE',  ( 0.2539896843220039724, -0.004751167366252446490, 0.2500000000000000000 ) ) ;
#87 = DIMENSIONAL_EXPONENTS ( 1.000000000000000000, 0.000000000000000000, 0.000000000000000000, 0.000000000000000000, 0.000000000000000000, 0.000000000000000000, 0.000000000000000000 ) ;
#88 = VERTEX_POINT ( 'NONE', #165 ) ;
#89 = SURFACE_SIDE_STYLE ('',( #494 ) ) ;
#90 = DIRECTION ( 'NONE',  ( -0.5161097044805095235, -0.8565224882868173184, 0.000000000000000000 ) ) ;
#91 = ORIENTED_EDGE ( 'NONE', *, *, #444, .T. ) ;
#92 = LENGTH_MEASURE_WITH_UNIT ( LENGTH_MEASURE( 0.02539999999999999897 ), #451 );
#93 = SURFACE_STYLE_USAGE ( .BOTH. , #454 ) ;
#94 = COLOUR_RGB ( '',0.8588235294117646523, 0.8588235294117646523, 0.8588235294117646523 ) ;
#95 = ORIENTED_EDGE ( 'NONE', *, *, #368, .F. ) ;
#96 = SURFACE_STYLE_FILL_AREA ( #320 ) ;
#97 = UNCERTAINTY_MEASURE_WITH_UNIT (LENGTH_MEASURE( 1.000000000000000082E-05 ), #297, 'distance_accuracy_value', 'NONE');
#98 = DIRECTION ( 'NONE',  ( -0.01870287107639212118, -0.9998250860092978698, 0.000000000000000000 ) ) ;
#99 = ORIENTED_EDGE ( 'NONE', *, *, #116, .T. ) ;
#100 = SURFACE_STYLE_USAGE ( .BOTH. , #233 ) ;
#101 = CARTESIAN_POINT ( 'NONE',  ( 0.000000000000000000, 0.000000000000000000, 0.000000000000000000 ) ) ;
#102 =( GEOMETRIC_REPRESENTATION_CONTEXT ( 3 ) GLOBAL_UNCERTAINTY_ASSIGNED_CONTEXT ( ( #304 ) ) GLOBAL_UNIT_ASSIGNED_CONTEXT ( ( #271, #186, #475 ) ) REPRESENTATION_CONTEXT ( 'NONE', 'WORKASPACE' ) );
#103 =( LENGTH_UNIT ( ) NAMED_UNIT ( * ) SI_UNIT ( $, .METRE. ) );
#104 = PRESENTATION_LAYER_ASSIGNMENT (  '', '', ( #175 ) ) ;
#105 = FILL_AREA_STYLE_COLOUR ( '', #407 ) ;
#106 = EDGE_CURVE ( 'NONE', #269, #295, #4, .T. ) ;
#107 = CARTESIAN_POINT ( 'NONE',  ( 0.1228802105241957321, -0.2223371026051718657, 0.2500000000000000000 ) ) ;
#108 = DIRECTION ( 'NONE',  ( -0.4837153815287882352, 0.8752253593632093320, 0.000000000000000000 ) ) ;
#109 = PRODUCT_DEFINITION_FORMATION_WITH_SPECIFIED_SOURCE ( 'Symmetric', '', #338, .NOT_KNOWN. ) ;
#110 =( GEOMETRIC_REPRESENTATION_CONTEXT ( 3 ) GLOBAL_UNCERTAINTY_ASSIGNED_CONTEXT ( ( #350 ) ) GLOBAL_UNIT_ASSIGNED_CONTEXT ( ( #314, #59, #148 ) ) REPRESENTATION_CONTEXT ( 'NONE', 'WORKASPACE' ) );
#111 = PRESENTATION_LAYER_ASSIGNMENT (  '', '', ( #383 ) ) ;
#112 = CARTESIAN_POINT ( 'NONE',  ( -0.2539896843220038614, 0.004751167366252529757, 0.000000000000000000 ) ) ;
#113 = LENGTH_MEASURE_WITH_UNIT ( LENGTH_MEASURE( 0.02539999999999999897 ), #29 );
#114 = DIRECTION ( 'NONE',  ( 0.000000000000000000, 0.000000000000000000, 1.000000000000000000 ) ) ;
#115 = DIRECTION ( 'NONE',  ( 0.5161097044805097456, 0.8565224882868170964, 0.000000000000000000 ) ) ;
#116 = EDGE_CURVE ( 'NONE', #231, #295, #250, .T. ) ;
#117 = DIRECTION ( 'NONE',  ( 1.000000000000000000, 0.000000000000000000, 0.000000000000000000 ) ) ;
#118 = SURFACE_STYLE_USAGE ( .BOTH. , #524 ) ;
#119 = VECTOR ( 'NONE', #28, 39.37007874015748143 ) ;
#120 = DIRECTION ( 'NONE',  ( 0.9998250860092977588, -0.01870287107639239180, 0.000000000000000000 ) ) ;
#121 = DIMENSIONAL_EXPONENTS ( 1.000000000000000000, 0.000000000000000000, 0.000000000000000000, 0.000000000000000000, 0.000000000000000000, 0.000000000000000000, 0.000000000000000000 ) ;
#122 = FILL_AREA_STYLE ('',( #173 ) ) ;
#123 = PRESENTATION_STYLE_ASSIGNMENT (( #118 ) ) ;
#124 = APPLICATION_CONTEXT ( 'automotive_design' ) ;
#125 = FILL_AREA_STYLE ('',( #508 ) ) ;
#126 = ORIENTED_EDGE ( 'NONE', *, *, #328, .F. ) ;
#127 = FACE_OUTER_BOUND ( 'NONE', #260, .T. ) ;
#128 = MECHANICAL_DESIGN_GEOMETRIC_PRESENTATION_REPRESENTATION (  '', ( #129 ), #140 ) ;
#129 = STYLED_ITEM ( 'NONE', ( #376 ), #507 ) ;
#130 = SURFACE_STYLE_FILL_AREA ( #44 ) ;
#131 = EDGE_LOOP ( 'NONE', ( #436, #218, #57, #312 ) ) ;
#132 = SURFACE_STYLE_USAGE ( .BOTH. , #89 ) ;
#133 = CARTESIAN_POINT ( 'NONE',  ( 0.1228802105241957321, -0.2223371026051718657, 0.2500000000000000000 ) ) ;
#134 = ORIENTED_EDGE ( 'NONE', *, *, #352, .F. ) ;
#135 = UNCERTAINTY_MEASURE_WITH_UNIT (LENGTH_MEASURE( 1.000000000000000082E-05 ), #422, 'distance_accuracy_value', 'NONE');
#136 = CARTESIAN_POINT ( 'NONE',  ( 0.000000000000000000, 0.000000000000000000, 0.000000000000000000 ) ) ;
#137 = ORIENTED_EDGE ( 'NONE', *, *, #531, .F. ) ;
#138 =( NAMED_UNIT ( * ) SI_UNIT ( $, .STERADIAN. ) SOLID_ANGLE_UNIT ( ) );
#139 = VECTOR ( 'NONE', #120, 39.37007874015748854 ) ;
#140 =( GEOMETRIC_REPRESENTATION_CONTEXT ( 3 ) GLOBAL_UNCERTAINTY_ASSIGNED_CONTEXT ( ( #293 ) ) GLOBAL_UNIT_ASSIGNED_CONTEXT ( ( #457, #41, #46 ) ) REPRESENTATION_CONTEXT ( 'NONE', 'WORKASPACE' ) );
#141 = ORIENTED_EDGE ( 'NONE', *, *, #489, .F. ) ;
#142 = EDGE_CURVE ( 'NONE', #431, #319, #448, .T. ) ;
#143 = CARTESIAN_POINT ( 'NONE',  ( 0.1311094737978083236, 0.2175859352389192536, 0.2500000000000000000 ) ) ;
#144 = LINE ( 'NONE', #107, #465 ) ;
#145 = CARTESIAN_POINT ( 'NONE',  ( -0.1228802105241956349, 0.2223371026051717547, 0.2500000000000000000 ) ) ;
#146 = SURFACE_STYLE_USAGE ( .BOTH. , #191 ) ;
#147 =( CONVERSION_BASED_UNIT ( 'INCH', #187 ) LENGTH_UNIT ( ) NAMED_UNIT ( #428 ) );
#148 =( NAMED_UNIT ( * ) SI_UNIT ( $, .STERADIAN. ) SOLID_ANGLE_UNIT ( ) );
#149 = MECHANICAL_DESIGN_GEOMETRIC_PRESENTATION_REPRESENTATION (  '', ( #383 ), #518 ) ;
#150 =( NAMED_UNIT ( * ) SI_UNIT ( $, .STERADIAN. ) SOLID_ANGLE_UNIT ( ) );
#151 = DIRECTION ( 'NONE',  ( 0.5161097044805095235, 0.8565224882868173184, 0.000000000000000000 ) ) ;
#152 =( NAMED_UNIT ( * ) SI_UNIT ( $, .STERADIAN. ) SOLID_ANGLE_UNIT ( ) );
#153 = SURFACE_STYLE_FILL_AREA ( #197 ) ;
#154 = LINE ( 'NONE', #441, #425 ) ;
#155 = COLOUR_RGB ( '',0.8588235294117646523, 0.8588235294117646523, 0.8588235294117646523 ) ;
#156 = AXIS2_PLACEMENT_3D ( 'NONE', #143, #98, #470 ) ;
#157 = DIRECTION ( 'NONE',  ( -0.4837153815287882352, 0.8752253593632093320, 0.000000000000000000 ) ) ;
#158 = EDGE_CURVE ( 'NONE', #181, #231, #493, .T. ) ;
#159 = DIRECTION ( 'NONE',  ( -0.000000000000000000, -0.000000000000000000, -1.000000000000000000 ) ) ;
#160 = CARTESIAN_POINT ( 'NONE',  ( 0.1311094737978083236, 0.2175859352389192536, 0.2500000000000000000 ) ) ;
#161 = CARTESIAN_POINT ( 'NONE',  ( 0.1311094737978083236, 0.2175859352389192536, 0.000000000000000000 ) ) ;
#162 = COLOUR_RGB ( '',0.8588235294117646523, 0.8588235294117646523, 0.8588235294117646523 ) ;
#163 = MECHANICAL_DESIGN_GEOMETRIC_PRESENTATION_REPRESENTATION (  '', ( #277 ), #40 ) ;
#164 = FACE_OUTER_BOUND ( 'NONE', #305, .T. ) ;
#165 = CARTESIAN_POINT ( 'NONE',  ( -0.1228802105241956766, 0.2223371026051717270, 0.2500000000000000000 ) ) ;
#166 = DIRECTION ( 'NONE',  ( 0.8752253593632093320, 0.4837153815287881242, -0.000000000000000000 ) ) ;
#167 = UNCERTAINTY_MEASURE_WITH_UNIT (LENGTH_MEASURE( 1.000000000000000082E-05 ), #37, 'distance_accuracy_value', 'NONE');
#168 = PRESENTATION_STYLE_ASSIGNMENT (( #379 ) ) ;
#169 = ORIENTED_EDGE ( 'NONE', *, *, #444, .F. ) ;
#170 =( NAMED_UNIT ( * ) PLANE_ANGLE_UNIT ( ) SI_UNIT ( $, .RADIAN. ) );
#171 = ORIENTED_EDGE ( 'NONE', *, *, #474, .T. ) ;
#172 =( GEOMETRIC_REPRESENTATION_CONTEXT ( 3 ) GLOBAL_UNCERTAINTY_ASSIGNED_CONTEXT ( ( #513 ) ) GLOBAL_UNIT_ASSIGNED_CONTEXT ( ( #81, #362, #529 ) ) REPRESENTATION_CONTEXT ( 'NONE', 'WORKASPACE' ) );
#173 = FILL_AREA_STYLE_COLOUR ( '', #267 ) ;
#174 =( GEOMETRIC_REPRESENTATION_CONTEXT ( 3 ) GLOBAL_UNCERTAINTY_ASSIGNED_CONTEXT ( ( #190 ) ) GLOBAL_UNIT_ASSIGNED_CONTEXT ( ( #355, #194, #152 ) ) REPRESENTATION_CONTEXT ( 'NONE', 'WORKASPACE' ) );
#175 = STYLED_ITEM ( 'NONE', ( #192 ), #446 ) ;
#176 = ADVANCED_FACE ( 'NONE', ( #325, #294 ), #404, .T. ) ;
#177 =( CONVERSION_BASED_UNIT ( 'INCH', #224 ) LENGTH_UNIT ( ) NAMED_UNIT ( #371 ) );
#178 = VERTEX_POINT ( 'NONE', #373 ) ;
#179 = CARTESIAN_POINT ( 'NONE',  ( -0.2539896843220038614, 0.004751167366252529757, 0.2500000000000000000 ) ) ;
#180 = DIRECTION ( 'NONE',  ( -0.000000000000000000, -0.000000000000000000, -1.000000000000000000 ) ) ;
#181 = VERTEX_POINT ( 'NONE', #245 ) ;
#182 =( LENGTH_UNIT ( ) NAMED_UNIT ( * ) SI_UNIT ( $, .METRE. ) );
#183 = DIRECTION ( 'NONE',  ( -1.000000000000000000, 0.000000000000000000, 0.000000000000000000 ) ) ;
#184 = ORIENTED_EDGE ( 'NONE', *, *, #74, .T. ) ;
#185 = ADVANCED_FACE ( 'NONE', ( #327 ), #35, .T. ) ;
#186 =( NAMED_UNIT ( * ) PLANE_ANGLE_UNIT ( ) SI_UNIT ( $, .RADIAN. ) );
#187 = LENGTH_MEASURE_WITH_UNIT ( LENGTH_MEASURE( 0.02539999999999999897 ), #520 );
#188 = VECTOR ( 'NONE', #47, 39.37007874015748854 ) ;
#189 = PRESENTATION_LAYER_ASSIGNMENT (  '', '', ( #68 ) ) ;
#190 = UNCERTAINTY_MEASURE_WITH_UNIT (LENGTH_MEASURE( 1.000000000000000082E-05 ), #355, 'distance_accuracy_value', 'NONE');
#191 = SURFACE_SIDE_STYLE ('',( #56 ) ) ;
#192 = PRESENTATION_STYLE_ASSIGNMENT (( #16 ) ) ;
#193 = PRODUCT_CONTEXT ( 'NONE', #198, 'mechanical' ) ;
#194 =( NAMED_UNIT ( * ) PLANE_ANGLE_UNIT ( ) SI_UNIT ( $, .RADIAN. ) );
#195 = EDGE_CURVE ( 'NONE', #295, #85, #302, .T. ) ;
#196 =( GEOMETRIC_REPRESENTATION_CONTEXT ( 3 ) GLOBAL_UNCERTAINTY_ASSIGNED_CONTEXT ( ( #496 ) ) GLOBAL_UNIT_ASSIGNED_CONTEXT ( ( #234, #199, #469 ) ) REPRESENTATION_CONTEXT ( 'NONE', 'WORKASPACE' ) );
#197 = FILL_AREA_STYLE ('',( #105 ) ) ;
#198 = APPLICATION_CONTEXT ( 'automotive_design' ) ;
#199 =( NAMED_UNIT ( * ) PLANE_ANGLE_UNIT ( ) SI_UNIT ( $, .RADIAN. ) );
#200 = LINE ( 'NONE', #326, #230 ) ;
#201 = CARTESIAN_POINT ( 'NONE',  ( 0.1228802105241957321, -0.2223371026051718657, 0.2500000000000000000 ) ) ;
#202 = LINE ( 'NONE', #112, #61 ) ;
#203 = DIRECTION ( 'NONE',  ( -0.9998250860092978698, 0.01870287107639211771, 0.000000000000000000 ) ) ;
#204 = VECTOR ( 'NONE', #18, 39.37007874015748143 ) ;
#205 = SURFACE_SIDE_STYLE ('',( #411 ) ) ;
#206 = PRESENTATION_STYLE_ASSIGNMENT (( #443 ) ) ;
#207 = CARTESIAN_POINT ( 'NONE',  ( -0.1228802105241956349, 0.2223371026051717547, 0.000000000000000000 ) ) ;
#208 = DIMENSIONAL_EXPONENTS ( 1.000000000000000000, 0.000000000000000000, 0.000000000000000000, 0.000000000000000000, 0.000000000000000000, 0.000000000000000000, 0.000000000000000000 ) ;
#209 =( NAMED_UNIT ( * ) PLANE_ANGLE_UNIT ( ) SI_UNIT ( $, .RADIAN. ) );
#210 = SURFACE_SIDE_STYLE ('',( #287 ) ) ;
#211 = PRESENTATION_LAYER_ASSIGNMENT (  '', '', ( #283 ) ) ;
#212 = LINE ( 'NONE', #417, #366 ) ;
#213 = LENGTH_MEASURE_WITH_UNIT ( LENGTH_MEASURE( 0.02539999999999999897 ), #253 );
#214 = DIRECTION ( 'NONE',  ( -0.4837153815287881242, 0.8752253593632093320, 0.000000000000000000 ) ) ;
#215 = ORIENTED_EDGE ( 'NONE', *, *, #334, .T. ) ;
#216 = PRODUCT_RELATED_PRODUCT_CATEGORY ( 'part', '', ( #338 ) ) ;
#217 = DIMENSIONAL_EXPONENTS ( 1.000000000000000000, 0.000000000000000000, 0.000000000000000000, 0.000000000000000000, 0.000000000000000000, 0.000000000000000000, 0.000000000000000000 ) ;
#218 = ORIENTED_EDGE ( 'NONE', *, *, #315, .F. ) ;
#219 = STYLED_ITEM ( 'NONE', ( #387 ), #268 ) ;
#220 = AXIS2_PLACEMENT_3D ( 'NONE', #274, #276, #65 ) ;
#221 = PLANE ( 'NONE',  #156 ) ;
#222 = ORIENTED_EDGE ( 'NONE', *, *, #412, .F. ) ;
#223 = LENGTH_MEASURE_WITH_UNIT ( LENGTH_MEASURE( 0.02539999999999999897 ), #51 );
#224 = LENGTH_MEASURE_WITH_UNIT ( LENGTH_MEASURE( 0.02539999999999999897 ), #256 );
#225 = EDGE_LOOP ( 'NONE', ( #95, #378, #464, #467 ) ) ;
#226 = LINE ( 'NONE', #468, #204 ) ;
#227 = EDGE_LOOP ( 'NONE', ( #222, #137, #215, #333 ) ) ;
#228 =( NAMED_UNIT ( * ) SI_UNIT ( $, .STERADIAN. ) SOLID_ANGLE_UNIT ( ) );
#229 = PRESENTATION_LAYER_ASSIGNMENT (  '', '', ( #364 ) ) ;
#230 = VECTOR ( 'NONE', #487, 39.37007874015748143 ) ;
#231 = VERTEX_POINT ( 'NONE', #133 ) ;
#232 =( LENGTH_UNIT ( ) NAMED_UNIT ( * ) SI_UNIT ( $, .METRE. ) );
#233 = SURFACE_SIDE_STYLE ('',( #62 ) ) ;
#234 =( CONVERSION_BASED_UNIT ( 'INCH', #27 ) LENGTH_UNIT ( ) NAMED_UNIT ( #421 ) );
#235 = ADVANCED_FACE ( 'NONE', ( #458 ), #344, .T. ) ;
#236 = FILL_AREA_STYLE_COLOUR ( '', #318 ) ;
#237 = DIRECTION ( 'NONE',  ( -1.000000000000000000, 0.000000000000000000, 0.000000000000000000 ) ) ;
#238 = MECHANICAL_DESIGN_GEOMETRIC_PRESENTATION_REPRESENTATION (  '', ( #348 ), #110 ) ;
#239 = SURFACE_STYLE_USAGE ( .BOTH. , #439 ) ;
#240 = VECTOR ( 'NONE', #281, 39.37007874015748854 ) ;
#241 = FILL_AREA_STYLE_COLOUR ( '', #155 ) ;
#242 = EDGE_CURVE ( 'NONE', #288, #6, #501, .T. ) ;
#243 = LINE ( 'NONE', #481, #300 ) ;
#244 = PRESENTATION_STYLE_ASSIGNMENT (( #73 ) ) ;
#245 = CARTESIAN_POINT ( 'NONE',  ( -0.1311094737978081570, -0.2175859352389193091, 0.2500000000000000000 ) ) ;
#246 = PRESENTATION_LAYER_ASSIGNMENT (  '', '', ( #510 ) ) ;
#247 = CIRCLE ( 'NONE', #330, 0.4499999999999999556 ) ;
#248 =( GEOMETRIC_REPRESENTATION_CONTEXT ( 3 ) GLOBAL_UNCERTAINTY_ASSIGNED_CONTEXT ( ( #52 ) ) GLOBAL_UNIT_ASSIGNED_CONTEXT ( ( #511, #512, #64 ) ) REPRESENTATION_CONTEXT ( 'NONE', 'WORKASPACE' ) );
#249 = CARTESIAN_POINT ( 'NONE',  ( -0.4499999999999999556, 0.000000000000000000, 0.2500000000000000000 ) ) ;
#250 = LINE ( 'NONE', #201, #374 ) ;
#251 = LINE ( 'NONE', #1, #526 ) ;
#252 = DIRECTION ( 'NONE',  ( 0.01870287107639239527, 0.9998250860092978698, -0.000000000000000000 ) ) ;
#253 =( LENGTH_UNIT ( ) NAMED_UNIT ( * ) SI_UNIT ( $, .METRE. ) );
#254 = PRESENTATION_LAYER_ASSIGNMENT (  '', '', ( #9 ) ) ;
#255 =( NAMED_UNIT ( * ) PLANE_ANGLE_UNIT ( ) SI_UNIT ( $, .RADIAN. ) );
#256 =( LENGTH_UNIT ( ) NAMED_UNIT ( * ) SI_UNIT ( $, .METRE. ) );
#257 = ORIENTED_EDGE ( 'NONE', *, *, #258, .F. ) ;
#258 = EDGE_CURVE ( 'NONE', #178, #6, #346, .T. ) ;
#259 = DIRECTION ( 'NONE',  ( -0.000000000000000000, -0.000000000000000000, -1.000000000000000000 ) ) ;
#260 = EDGE_LOOP ( 'NONE', ( #72, #354, #509, #99 ) ) ;
#261 = DIMENSIONAL_EXPONENTS ( 1.000000000000000000, 0.000000000000000000, 0.000000000000000000, 0.000000000000000000, 0.000000000000000000, 0.000000000000000000, 0.000000000000000000 ) ;
#262 = FACE_OUTER_BOUND ( 'NONE', #131, .T. ) ;
#263 = EDGE_LOOP ( 'NONE', ( #13, #134 ) ) ;
#264 = AXIS2_PLACEMENT_3D ( 'NONE', #377, #53, #90 ) ;
#265 = DIMENSIONAL_EXPONENTS ( 1.000000000000000000, 0.000000000000000000, 0.000000000000000000, 0.000000000000000000, 0.000000000000000000, 0.000000000000000000, 0.000000000000000000 ) ;
#266 = PLANE ( 'NONE',  #34 ) ;
#267 = COLOUR_RGB ( '',0.8588235294117646523, 0.8588235294117646523, 0.8588235294117646523 ) ;
#268 = ADVANCED_FACE ( 'NONE', ( #262 ), #221, .T. ) ;
#269 = VERTEX_POINT ( 'NONE', #23 ) ;
#270 = MANIFOLD_SOLID_BREP ( 'Boss-Extrude1', #424 ) ;
#271 =( CONVERSION_BASED_UNIT ( 'INCH', #309 ) LENGTH_UNIT ( ) NAMED_UNIT ( #208 ) );
#272 = PRESENTATION_STYLE_ASSIGNMENT (( #146 ) ) ;
#273 = ORIENTED_EDGE ( 'NONE', *, *, #74, .F. ) ;
#274 = CARTESIAN_POINT ( 'NONE',  ( 0.000000000000000000, 0.000000000000000000, 0.2500000000000000000 ) ) ;
#275 = VECTOR ( 'NONE', #180, 39.37007874015748143 ) ;
#276 = DIRECTION ( 'NONE',  ( 0.000000000000000000, 0.000000000000000000, 1.000000000000000000 ) ) ;
#277 = STYLED_ITEM ( 'NONE', ( #426 ), #516 ) ;
#278 = MECHANICAL_DESIGN_GEOMETRIC_PRESENTATION_REPRESENTATION (  '', ( #175 ), #102 ) ;
#279 = EDGE_CURVE ( 'NONE', #423, #178, #284, .T. ) ;
#280 = FILL_AREA_STYLE_COLOUR ( '', #390 ) ;
#281 = DIRECTION ( 'NONE',  ( -0.5161097044805097456, -0.8565224882868170964, 0.000000000000000000 ) ) ;
#282 = ADVANCED_FACE ( 'NONE', ( #434 ), #353, .T. ) ;
#283 = STYLED_ITEM ( 'NONE', ( #66 ), #21 ) ;
#284 = CIRCLE ( 'NONE', #220, 0.4499999999999999556 ) ;
#285 = DIRECTION ( 'NONE',  ( 0.8565224882868172074, -0.5161097044805098566, 0.000000000000000000 ) ) ;
#286 = PLANE ( 'NONE',  #375 ) ;
#287 = SURFACE_STYLE_FILL_AREA ( #369 ) ;
#288 = VERTEX_POINT ( 'NONE', #351 ) ;
#289 = CARTESIAN_POINT ( 'NONE',  ( 0.1311094737978083236, 0.2175859352389192536, 0.2500000000000000000 ) ) ;
#290 = DIRECTION ( 'NONE',  ( 1.000000000000000000, 0.000000000000000000, -0.000000000000000000 ) ) ;
#291 = AXIS2_PLACEMENT_3D ( 'NONE', #179, #166, #214 ) ;
#292 = CARTESIAN_POINT ( 'NONE',  ( 0.000000000000000000, 0.000000000000000000, 0.2500000000000000000 ) ) ;
#293 = UNCERTAINTY_MEASURE_WITH_UNIT (LENGTH_MEASURE( 1.000000000000000082E-05 ), #457, 'distance_accuracy_value', 'NONE');
#294 = FACE_BOUND ( 'NONE', #308, .T. ) ;
#295 = VERTEX_POINT ( 'NONE', #324 ) ;
#296 = FILL_AREA_STYLE ('',( #301 ) ) ;
#297 =( CONVERSION_BASED_UNIT ( 'INCH', #213 ) LENGTH_UNIT ( ) NAMED_UNIT ( #87 ) );
#298 = EDGE_LOOP ( 'NONE', ( #126, #473, #50, #169 ) ) ;
#299 = MECHANICAL_DESIGN_GEOMETRIC_PRESENTATION_REPRESENTATION (  '', ( #364 ), #172 ) ;
#300 = VECTOR ( 'NONE', #490, 39.37007874015748143 ) ;
#301 = FILL_AREA_STYLE_COLOUR ( '', #94 ) ;
#302 = LINE ( 'NONE', #500, #188 ) ;
#303 = ORIENTED_EDGE ( 'NONE', *, *, #158, .F. ) ;
#304 = UNCERTAINTY_MEASURE_WITH_UNIT (LENGTH_MEASURE( 1.000000000000000082E-05 ), #271, 'distance_accuracy_value', 'NONE');
#305 = EDGE_LOOP ( 'NONE', ( #459, #141, #386, #7 ) ) ;
#306 = SURFACE_STYLE_FILL_AREA ( #122 ) ;
#307 = CARTESIAN_POINT ( 'NONE',  ( 0.4499999999999999556, 5.510910596163088939E-17, 0.2500000000000000000 ) ) ;
#308 = EDGE_LOOP ( 'NONE', ( #303, #505, #463, #381, #63, #273 ) ) ;
#309 = LENGTH_MEASURE_WITH_UNIT ( LENGTH_MEASURE( 0.02539999999999999897 ), #232 );
#310 = AXIS2_PLACEMENT_3D ( 'NONE', #292, #406, #401 ) ;
#311 = CARTESIAN_POINT ( 'NONE',  ( 0.000000000000000000, 0.000000000000000000, 0.2500000000000000000 ) ) ;
#312 = ORIENTED_EDGE ( 'NONE', *, *, #522, .T. ) ;
#313 = FILL_AREA_STYLE ('',( #514 ) ) ;
#314 =( CONVERSION_BASED_UNIT ( 'INCH', #435 ) LENGTH_UNIT ( ) NAMED_UNIT ( #265 ) );
#315 = EDGE_CURVE ( 'NONE', #347, #431, #485, .T. ) ;
#316 = APPLICATION_PROTOCOL_DEFINITION ( 'draft international standard', 'automotive_design', 1998, #198 ) ;
#317 = AXIS2_PLACEMENT_3D ( 'NONE', #31, #285, #115 ) ;
#318 = COLOUR_RGB ( '',0.8941176470588234615, 0.8941176470588234615, 0.8941176470588234615 ) ;
#319 = VERTEX_POINT ( 'NONE', #207 ) ;
#320 = FILL_AREA_STYLE ('',( #236 ) ) ;
#321 = DIRECTION ( 'NONE',  ( 0.4837153815287881242, -0.8752253593632093320, 0.000000000000000000 ) ) ;
#322 = CARTESIAN_POINT ( 'NONE',  ( -0.2539896843220038614, 0.004751167366252531492, 0.000000000000000000 ) ) ;
#323 = CIRCLE ( 'NONE', #310, 0.4499999999999999556 ) ;
#324 = CARTESIAN_POINT ( 'NONE',  ( 0.1228802105241957321, -0.2223371026051718657, 0.000000000000000000 ) ) ;
#325 = FACE_OUTER_BOUND ( 'NONE', #336, .T. ) ;
#326 = CARTESIAN_POINT ( 'NONE',  ( 0.1311094737978083236, 0.2175859352389192536, 0.2500000000000000000 ) ) ;
#327 = FACE_OUTER_BOUND ( 'NONE', #298, .T. ) ;
#328 = EDGE_CURVE ( 'NONE', #178, #423, #323, .T. ) ;
#329 = LENGTH_MEASURE_WITH_UNIT ( LENGTH_MEASURE( 0.02539999999999999897 ), #530 );
#330 = AXIS2_PLACEMENT_3D ( 'NONE', #478, #114, #117 ) ;
#331 =( NAMED_UNIT ( * ) SI_UNIT ( $, .STERADIAN. ) SOLID_ANGLE_UNIT ( ) );
#332 = CARTESIAN_POINT ( 'NONE',  ( 0.000000000000000000, 0.000000000000000000, 0.2500000000000000000 ) ) ;
#333 = ORIENTED_EDGE ( 'NONE', *, *, #315, .T. ) ;
#334 = EDGE_CURVE ( 'NONE', #416, #347, #528, .T. ) ;
#335 = DIRECTION ( 'NONE',  ( -0.8752253593632093320, -0.4837153815287881242, 0.000000000000000000 ) ) ;
#336 = EDGE_LOOP ( 'NONE', ( #419, #70 ) ) ;
#337 = DIRECTION ( 'NONE',  ( 0.4837153815287881242, -0.8752253593632093320, 0.000000000000000000 ) ) ;
#338 = PRODUCT ( 'HexHolder', 'HexHolder', '', ( #193 ) ) ;
#339 = EDGE_LOOP ( 'NONE', ( #171, #388, #502, #506, #484, #42 ) ) ;
#340 = MECHANICAL_DESIGN_GEOMETRIC_PRESENTATION_REPRESENTATION (  '', ( #219 ), #84 ) ;
#341 = VECTOR ( 'NONE', #157, 39.37007874015748143 ) ;
#342 = SURFACE_SIDE_STYLE ('',( #306 ) ) ;
#343 = ORIENTED_EDGE ( 'NONE', *, *, #531, .T. ) ;
#344 = PLANE ( 'NONE',  #264 ) ;
#345 = ORIENTED_EDGE ( 'NONE', *, *, #195, .F. ) ;
#346 = LINE ( 'NONE', #307, #275 ) ;
#347 = VERTEX_POINT ( 'NONE', #160 ) ;
#348 = STYLED_ITEM ( 'NONE', ( #479 ), #83 ) ;
#349 = COLOUR_RGB ( '',0.8588235294117646523, 0.8588235294117646523, 0.8588235294117646523 ) ;
#350 = UNCERTAINTY_MEASURE_WITH_UNIT (LENGTH_MEASURE( 1.000000000000000082E-05 ), #314, 'distance_accuracy_value', 'NONE');
#351 = CARTESIAN_POINT ( 'NONE',  ( -0.4499999999999999556, 0.000000000000000000, 0.000000000000000000 ) ) ;
#352 = EDGE_CURVE ( 'NONE', #6, #288, #247, .T. ) ;
#353 = CYLINDRICAL_SURFACE ( 'NONE', #471, 0.4499999999999999556 ) ;
#354 = ORIENTED_EDGE ( 'NONE', *, *, #460, .F. ) ;
#355 =( CONVERSION_BASED_UNIT ( 'INCH', #466 ) LENGTH_UNIT ( ) NAMED_UNIT ( #415 ) );
#356 = LENGTH_MEASURE_WITH_UNIT ( LENGTH_MEASURE( 0.02539999999999999897 ), #182 );
#357 =( GEOMETRIC_REPRESENTATION_CONTEXT ( 3 ) GLOBAL_UNCERTAINTY_ASSIGNED_CONTEXT ( ( #167 ) ) GLOBAL_UNIT_ASSIGNED_CONTEXT ( ( #37, #170, #462 ) ) REPRESENTATION_CONTEXT ( 'NONE', 'WORKASPACE' ) );
#358 = COLOUR_RGB ( '',0.8588235294117646523, 0.8588235294117646523, 0.8588235294117646523 ) ;
#359 =( NAMED_UNIT ( * ) PLANE_ANGLE_UNIT ( ) SI_UNIT ( $, .RADIAN. ) );
#360 = SURFACE_STYLE_USAGE ( .BOTH. , #19 ) ;
#361 = FILL_AREA_STYLE ('',( #445 ) ) ;
#362 =( NAMED_UNIT ( * ) PLANE_ANGLE_UNIT ( ) SI_UNIT ( $, .RADIAN. ) );
#363 = FACE_OUTER_BOUND ( 'NONE', #227, .T. ) ;
#364 = STYLED_ITEM ( 'NONE', ( #206 ), #176 ) ;
#365 = MECHANICAL_DESIGN_GEOMETRIC_PRESENTATION_REPRESENTATION (  '', ( #2 ), #357 ) ;
#366 = VECTOR ( 'NONE', #461, 39.37007874015748143 ) ;
#367 = CARTESIAN_POINT ( 'NONE',  ( -0.1228802105241956349, 0.2223371026051717547, 0.000000000000000000 ) ) ;
#368 = EDGE_CURVE ( 'NONE', #319, #429, #33, .T. ) ;
#369 = FILL_AREA_STYLE ('',( #241 ) ) ;
#370 = CARTESIAN_POINT ( 'NONE',  ( -0.4499999999999999556, 0.000000000000000000, 0.2500000000000000000 ) ) ;
#371 = DIMENSIONAL_EXPONENTS ( 1.000000000000000000, 0.000000000000000000, 0.000000000000000000, 0.000000000000000000, 0.000000000000000000, 0.000000000000000000, 0.000000000000000000 ) ;
#372 =( CONVERSION_BASED_UNIT ( 'INCH', #329 ) LENGTH_UNIT ( ) NAMED_UNIT ( #121 ) );
#373 = CARTESIAN_POINT ( 'NONE',  ( 0.4499999999999999556, 5.510910596163088939E-17, 0.2500000000000000000 ) ) ;
#374 = VECTOR ( 'NONE', #159, 39.37007874015748143 ) ;
#375 = AXIS2_PLACEMENT_3D ( 'NONE', #86, #335, #337 ) ;
#376 = PRESENTATION_STYLE_ASSIGNMENT (( #453 ) ) ;
#377 = CARTESIAN_POINT ( 'NONE',  ( 0.1228802105241957321, -0.2223371026051718657, 0.2500000000000000000 ) ) ;
#378 = ORIENTED_EDGE ( 'NONE', *, *, #522, .F. ) ;
#379 = SURFACE_STYLE_USAGE ( .BOTH. , #12 ) ;
#380 = AXIS2_PLACEMENT_3D ( 'NONE', #432, #394, #20 ) ;
#381 = ORIENTED_EDGE ( 'NONE', *, *, #384, .F. ) ;
#382 =( GEOMETRIC_REPRESENTATION_CONTEXT ( 3 ) GLOBAL_UNCERTAINTY_ASSIGNED_CONTEXT ( ( #3 ) ) GLOBAL_UNIT_ASSIGNED_CONTEXT ( ( #177, #427, #138 ) ) REPRESENTATION_CONTEXT ( 'NONE', 'WORKASPACE' ) );
#383 = STYLED_ITEM ( 'NONE', ( #244 ), #483 ) ;
#384 = EDGE_CURVE ( 'NONE', #347, #88, #200, .T. ) ;
#385 = SURFACE_STYLE_FILL_AREA ( #125 ) ;
#386 = ORIENTED_EDGE ( 'NONE', *, *, #420, .T. ) ;
#387 = PRESENTATION_STYLE_ASSIGNMENT (( #93 ) ) ;
#388 = ORIENTED_EDGE ( 'NONE', *, *, #106, .T. ) ;
#389 = FACE_OUTER_BOUND ( 'NONE', #225, .T. ) ;
#390 = COLOUR_RGB ( '',0.8588235294117646523, 0.8588235294117646523, 0.8588235294117646523 ) ;
#391 = APPLICATION_PROTOCOL_DEFINITION ( 'draft international standard', 'automotive_design', 1998, #124 ) ;
#392 = MECHANICAL_DESIGN_GEOMETRIC_PRESENTATION_REPRESENTATION (  '', ( #68 ), #408 ) ;
#393 = DIRECTION ( 'NONE',  ( 0.000000000000000000, 0.000000000000000000, 1.000000000000000000 ) ) ;
#394 = DIRECTION ( 'NONE',  ( 0.000000000000000000, 0.000000000000000000, 1.000000000000000000 ) ) ;
#395 = FILL_AREA_STYLE ('',( #280 ) ) ;
#396 = PRESENTATION_STYLE_ASSIGNMENT (( #100 ) ) ;
#397 = PLANE ( 'NONE',  #525 ) ;
#398 =( LENGTH_UNIT ( ) NAMED_UNIT ( * ) SI_UNIT ( $, .METRE. ) );
#399 = PRESENTATION_LAYER_ASSIGNMENT (  '', '', ( #277 ) ) ;
#400 = FACE_OUTER_BOUND ( 'NONE', #263, .T. ) ;
#401 = DIRECTION ( 'NONE',  ( 1.000000000000000000, 0.000000000000000000, 0.000000000000000000 ) ) ;
#402 = DIRECTION ( 'NONE',  ( 0.9998250860092977588, -0.01870287107639239180, 0.000000000000000000 ) ) ;
#403 =( NAMED_UNIT ( * ) SI_UNIT ( $, .STERADIAN. ) SOLID_ANGLE_UNIT ( ) );
#404 = PLANE ( 'NONE',  #60 ) ;
#405 = PRODUCT_DEFINITION ( 'General', '', #109, #504 ) ;
#406 = DIRECTION ( 'NONE',  ( 0.000000000000000000, 0.000000000000000000, 1.000000000000000000 ) ) ;
#407 = COLOUR_RGB ( '',0.8588235294117646523, 0.8588235294117646523, 0.8588235294117646523 ) ;
#408 =( GEOMETRIC_REPRESENTATION_CONTEXT ( 3 ) GLOBAL_UNCERTAINTY_ASSIGNED_CONTEXT ( ( #452 ) ) GLOBAL_UNIT_ASSIGNED_CONTEXT ( ( #147, #58, #150 ) ) REPRESENTATION_CONTEXT ( 'NONE', 'WORKASPACE' ) );
#409 = CARTESIAN_POINT ( 'NONE',  ( -0.1311094737978081570, -0.2175859352389193091, 0.2500000000000000000 ) ) ;
#410 = FILL_AREA_STYLE_COLOUR ( '', #162 ) ;
#411 = SURFACE_STYLE_FILL_AREA ( #361 ) ;
#412 = EDGE_CURVE ( 'NONE', #85, #431, #154, .T. ) ;
#413 = FILL_AREA_STYLE ('',( #410 ) ) ;
#414 = DIRECTION ( 'NONE',  ( -0.9998250860092977588, 0.01870287107639239180, 0.000000000000000000 ) ) ;
#415 = DIMENSIONAL_EXPONENTS ( 1.000000000000000000, 0.000000000000000000, 0.000000000000000000, 0.000000000000000000, 0.000000000000000000, 0.000000000000000000, 0.000000000000000000 ) ;
#416 = VERTEX_POINT ( 'NONE', #447 ) ;
#417 = CARTESIAN_POINT ( 'NONE',  ( -0.2539896843220038614, 0.004751167366252529757, 0.2500000000000000000 ) ) ;
#418 = FILL_AREA_STYLE_COLOUR ( '', #67 ) ;
#419 = ORIENTED_EDGE ( 'NONE', *, *, #279, .T. ) ;
#420 = EDGE_CURVE ( 'NONE', #15, #181, #251, .T. ) ;
#421 = DIMENSIONAL_EXPONENTS ( 1.000000000000000000, 0.000000000000000000, 0.000000000000000000, 0.000000000000000000, 0.000000000000000000, 0.000000000000000000, 0.000000000000000000 ) ;
#422 =( CONVERSION_BASED_UNIT ( 'INCH', #223 ) LENGTH_UNIT ( ) NAMED_UNIT ( #261 ) );
#423 = VERTEX_POINT ( 'NONE', #370 ) ;
#424 = CLOSED_SHELL ( 'NONE', ( #185, #176, #21, #282, #507, #516, #235, #483, #268, #83 ) ) ;
#425 = VECTOR ( 'NONE', #108, 39.37007874015748143 ) ;
#426 = PRESENTATION_STYLE_ASSIGNMENT (( #132 ) ) ;
#427 =( NAMED_UNIT ( * ) PLANE_ANGLE_UNIT ( ) SI_UNIT ( $, .RADIAN. ) );
#428 = DIMENSIONAL_EXPONENTS ( 1.000000000000000000, 0.000000000000000000, 0.000000000000000000, 0.000000000000000000, 0.000000000000000000, 0.000000000000000000, 0.000000000000000000 ) ;
#429 = VERTEX_POINT ( 'NONE', #322 ) ;
#430 = SURFACE_SIDE_STYLE ('',( #96 ) ) ;
#431 = VERTEX_POINT ( 'NONE', #30 ) ;
#432 = CARTESIAN_POINT ( 'NONE',  ( 0.000000000000000000, 0.000000000000000000, 0.000000000000000000 ) ) ;
#433 = PRESENTATION_LAYER_ASSIGNMENT (  '', '', ( #129 ) ) ;
#434 = FACE_OUTER_BOUND ( 'NONE', #45, .T. ) ;
#435 = LENGTH_MEASURE_WITH_UNIT ( LENGTH_MEASURE( 0.02539999999999999897 ), #442 );
#436 = ORIENTED_EDGE ( 'NONE', *, *, #142, .F. ) ;
#437 = EDGE_CURVE ( 'NONE', #88, #15, #449, .T. ) ;
#438 = DIRECTION ( 'NONE',  ( -0.000000000000000000, -0.000000000000000000, -1.000000000000000000 ) ) ;
#439 = SURFACE_SIDE_STYLE ('',( #153 ) ) ;
#440 = VECTOR ( 'NONE', #402, 39.37007874015748854 ) ;
#441 = CARTESIAN_POINT ( 'NONE',  ( 0.2539896843220039724, -0.004751167366252446490, 0.000000000000000000 ) ) ;
#442 =( LENGTH_UNIT ( ) NAMED_UNIT ( * ) SI_UNIT ( $, .METRE. ) );
#443 = SURFACE_STYLE_USAGE ( .BOTH. , #210 ) ;
#444 = EDGE_CURVE ( 'NONE', #423, #288, #71, .T. ) ;
#445 = FILL_AREA_STYLE_COLOUR ( '', #76 ) ;
#446 = ADVANCED_BREP_SHAPE_REPRESENTATION ( 'HexHolder', ( #270, #380 ), #248 ) ;
#447 = CARTESIAN_POINT ( 'NONE',  ( 0.2539896843220039724, -0.004751167366252446490, 0.2500000000000000000 ) ) ;
#448 = LINE ( 'NONE', #161, #75 ) ;
#449 = LINE ( 'NONE', #523, #240 ) ;
#450 = DIRECTION ( 'NONE',  ( 0.000000000000000000, 0.000000000000000000, 1.000000000000000000 ) ) ;
#451 =( LENGTH_UNIT ( ) NAMED_UNIT ( * ) SI_UNIT ( $, .METRE. ) );
#452 = UNCERTAINTY_MEASURE_WITH_UNIT (LENGTH_MEASURE( 1.000000000000000082E-05 ), #147, 'distance_accuracy_value', 'NONE');
#453 = SURFACE_STYLE_USAGE ( .BOTH. , #342 ) ;
#454 = SURFACE_SIDE_STYLE ('',( #385 ) ) ;
#455 = ORIENTED_EDGE ( 'NONE', *, *, #116, .F. ) ;
#456 = DIMENSIONAL_EXPONENTS ( 1.000000000000000000, 0.000000000000000000, 0.000000000000000000, 0.000000000000000000, 0.000000000000000000, 0.000000000000000000, 0.000000000000000000 ) ;
#457 =( CONVERSION_BASED_UNIT ( 'INCH', #92 ) LENGTH_UNIT ( ) NAMED_UNIT ( #217 ) );
#458 = FACE_OUTER_BOUND ( 'NONE', #10, .T. ) ;
#459 = ORIENTED_EDGE ( 'NONE', *, *, #474, .F. ) ;
#460 = EDGE_CURVE ( 'NONE', #181, #269, #243, .T. ) ;
#461 = DIRECTION ( 'NONE',  ( -0.000000000000000000, -0.000000000000000000, -1.000000000000000000 ) ) ;
#462 =( NAMED_UNIT ( * ) SI_UNIT ( $, .STERADIAN. ) SOLID_ANGLE_UNIT ( ) );
#463 = ORIENTED_EDGE ( 'NONE', *, *, #437, .F. ) ;
#464 = ORIENTED_EDGE ( 'NONE', *, *, #437, .T. ) ;
#465 = VECTOR ( 'NONE', #151, 39.37007874015748854 ) ;
#466 = LENGTH_MEASURE_WITH_UNIT ( LENGTH_MEASURE( 0.02539999999999999897 ), #398 );
#467 = ORIENTED_EDGE ( 'NONE', *, *, #489, .T. ) ;
#468 = CARTESIAN_POINT ( 'NONE',  ( 0.2539896843220039724, -0.004751167366252446490, 0.2500000000000000000 ) ) ;
#469 =( NAMED_UNIT ( * ) SI_UNIT ( $, .STERADIAN. ) SOLID_ANGLE_UNIT ( ) );
#470 = DIRECTION ( 'NONE',  ( 0.9998250860092978698, -0.01870287107639212118, 0.000000000000000000 ) ) ;
#471 = AXIS2_PLACEMENT_3D ( 'NONE', #476, #438, #237 ) ;
#472 = SHAPE_DEFINITION_REPRESENTATION ( #499, #446 ) ;
#473 = ORIENTED_EDGE ( 'NONE', *, *, #258, .T. ) ;
#474 = EDGE_CURVE ( 'NONE', #429, #269, #202, .T. ) ;
#475 =( NAMED_UNIT ( * ) SI_UNIT ( $, .STERADIAN. ) SOLID_ANGLE_UNIT ( ) );
#476 = CARTESIAN_POINT ( 'NONE',  ( 0.000000000000000000, 0.000000000000000000, 0.2500000000000000000 ) ) ;
#477 = CARTESIAN_POINT ( 'NONE',  ( 0.4499999999999999556, 5.510910596163088939E-17, 0.000000000000000000 ) ) ;
#478 = CARTESIAN_POINT ( 'NONE',  ( 0.000000000000000000, 0.000000000000000000, 0.000000000000000000 ) ) ;
#479 = PRESENTATION_STYLE_ASSIGNMENT (( #360 ) ) ;
#480 = AXIS2_PLACEMENT_3D ( 'NONE', #311, #259, #183 ) ;
#481 = CARTESIAN_POINT ( 'NONE',  ( -0.1311094737978081570, -0.2175859352389193091, 0.2500000000000000000 ) ) ;
#482 = MECHANICAL_DESIGN_GEOMETRIC_PRESENTATION_REPRESENTATION (  '', ( #9 ), #174 ) ;
#483 = ADVANCED_FACE ( 'NONE', ( #363 ), #286, .T. ) ;
#484 = ORIENTED_EDGE ( 'NONE', *, *, #142, .T. ) ;
#485 = LINE ( 'NONE', #289, #119 ) ;
#486 = LENGTH_MEASURE_WITH_UNIT ( LENGTH_MEASURE( 0.02539999999999999897 ), #78 );
#487 = DIRECTION ( 'NONE',  ( -0.9998250860092978698, 0.01870287107639211771, 0.000000000000000000 ) ) ;
#488 = SURFACE_STYLE_FILL_AREA ( #413 ) ;
#489 = EDGE_CURVE ( 'NONE', #15, #429, #212, .T. ) ;
#490 = DIRECTION ( 'NONE',  ( -0.000000000000000000, -0.000000000000000000, -1.000000000000000000 ) ) ;
#491 = PRESENTATION_LAYER_ASSIGNMENT (  '', '', ( #2 ) ) ;
#492 = VECTOR ( 'NONE', #79, 39.37007874015748854 ) ;
#493 = LINE ( 'NONE', #409, #139 ) ;
#494 = SURFACE_STYLE_FILL_AREA ( #296 ) ;
#495 = CARTESIAN_POINT ( 'NONE',  ( 0.2539896843220039724, -0.004751167366252446490, 0.000000000000000000 ) ) ;
#496 = UNCERTAINTY_MEASURE_WITH_UNIT (LENGTH_MEASURE( 1.000000000000000082E-05 ), #234, 'distance_accuracy_value', 'NONE');
#497 = DIRECTION ( 'NONE',  ( 1.000000000000000000, 0.000000000000000000, 0.000000000000000000 ) ) ;
#498 = ORIENTED_EDGE ( 'NONE', *, *, #242, .T. ) ;
#499 = PRODUCT_DEFINITION_SHAPE ( 'NONE', 'NONE',  #405 ) ;
#500 = CARTESIAN_POINT ( 'NONE',  ( 0.1228802105241957321, -0.2223371026051718657, 0.000000000000000000 ) ) ;
#501 = CIRCLE ( 'NONE', #25, 0.4499999999999999556 ) ;
#502 = ORIENTED_EDGE ( 'NONE', *, *, #195, .T. ) ;
#503 = PLANE ( 'NONE',  #291 ) ;
#504 = PRODUCT_DEFINITION_CONTEXT ( 'detailed design', #124, 'design' ) ;
#505 = ORIENTED_EDGE ( 'NONE', *, *, #420, .F. ) ;
#506 = ORIENTED_EDGE ( 'NONE', *, *, #412, .T. ) ;
#507 = ADVANCED_FACE ( 'NONE', ( #164 ), #503, .T. ) ;
#508 = FILL_AREA_STYLE_COLOUR ( '', #32 ) ;
#509 = ORIENTED_EDGE ( 'NONE', *, *, #158, .T. ) ;
#510 = STYLED_ITEM ( 'NONE', ( #168 ), #235 ) ;
#511 =( CONVERSION_BASED_UNIT ( 'INCH', #356 ) LENGTH_UNIT ( ) NAMED_UNIT ( #14 ) );
#512 =( NAMED_UNIT ( * ) PLANE_ANGLE_UNIT ( ) SI_UNIT ( $, .RADIAN. ) );
#513 = UNCERTAINTY_MEASURE_WITH_UNIT (LENGTH_MEASURE( 1.000000000000000082E-05 ), #81, 'distance_accuracy_value', 'NONE');
#514 = FILL_AREA_STYLE_COLOUR ( '', #349 ) ;
#515 = FILL_AREA_STYLE ('',( #26 ) ) ;
#516 = ADVANCED_FACE ( 'NONE', ( #127 ), #266, .T. ) ;
#517 = MECHANICAL_DESIGN_GEOMETRIC_PRESENTATION_REPRESENTATION (  '', ( #510 ), #382 ) ;
#518 =( GEOMETRIC_REPRESENTATION_CONTEXT ( 3 ) GLOBAL_UNCERTAINTY_ASSIGNED_CONTEXT ( ( #80 ) ) GLOBAL_UNIT_ASSIGNED_CONTEXT ( ( #372, #209, #403 ) ) REPRESENTATION_CONTEXT ( 'NONE', 'WORKASPACE' ) );
#519 = DIRECTION ( 'NONE',  ( 1.000000000000000000, 0.000000000000000000, -0.000000000000000000 ) ) ;
#520 =( LENGTH_UNIT ( ) NAMED_UNIT ( * ) SI_UNIT ( $, .METRE. ) );
#521 = FACE_BOUND ( 'NONE', #339, .T. ) ;
#522 = EDGE_CURVE ( 'NONE', #88, #319, #38, .T. ) ;
#523 = CARTESIAN_POINT ( 'NONE',  ( -0.1228802105241956349, 0.2223371026051717547, 0.2500000000000000000 ) ) ;
#524 = SURFACE_SIDE_STYLE ('',( #488 ) ) ;
#525 = AXIS2_PLACEMENT_3D ( 'NONE', #101, #393, #519 ) ;
#526 = VECTOR ( 'NONE', #77, 39.37007874015748143 ) ;
#527 = CARTESIAN_POINT ( 'NONE',  ( -0.1311094737978081570, -0.2175859352389193091, 0.000000000000000000 ) ) ;
#528 = LINE ( 'NONE', #36, #341 ) ;
#529 =( NAMED_UNIT ( * ) SI_UNIT ( $, .STERADIAN. ) SOLID_ANGLE_UNIT ( ) );
#530 =( LENGTH_UNIT ( ) NAMED_UNIT ( * ) SI_UNIT ( $, .METRE. ) );
#531 = EDGE_CURVE ( 'NONE', #416, #85, #226, .T. ) ;
ENDSEC;
END-ISO-10303-21;
