ISO-10303-21;
HEADER;
FILE_DESCRIPTION (( 'STEP AP214' ),
    '1' );
FILE_NAME ('Holder Plate Large.STEP',
    '2026-09-04T22:01:18',
    ( '' ),
    ( '' ),
    'SwSTEP 2.0',
    'SolidWorks 2026',
    '' );
FILE_SCHEMA (( 'AUTOMOTIVE_DESIGN' ));
ENDSEC;

DATA;
#1 = CARTESIAN_POINT ( 'NONE',  ( 5.375000000000070166, 6.998288777324973885E-14, 0.000000000000000000 ) ) ;
#2 = AXIS2_PLACEMENT_3D ( 'NONE', #242, #285, #322 ) ;
#3 = VECTOR ( 'NONE', #430, 39.37007874015748143 ) ;
#4 = ORIENTED_EDGE ( 'NONE', *, *, #416, .F. ) ;
#5 = FACE_BOUND ( 'NONE', #481, .T. ) ;
#6 = ORIENTED_EDGE ( 'NONE', *, *, #416, .T. ) ;
#7 = ADVANCED_FACE ( 'NONE', ( #45 ), #274, .F. ) ;
#8 =( NAMED_UNIT ( * ) SI_UNIT ( $, .STERADIAN. ) SOLID_ANGLE_UNIT ( ) );
#9 =( NAMED_UNIT ( * ) SI_UNIT ( $, .STERADIAN. ) SOLID_ANGLE_UNIT ( ) );
#10 = ORIENTED_EDGE ( 'NONE', *, *, #227, .T. ) ;
#11 = DIRECTION ( 'NONE',  ( 1.000000000000000000, 0.000000000000000000, 0.000000000000000000 ) ) ;
#12 = FACE_BOUND ( 'NONE', #241, .T. ) ;
#13 = PRESENTATION_LAYER_ASSIGNMENT (  '', '', ( #236 ) ) ;
#14 = AXIS2_PLACEMENT_3D ( 'NONE', #307, #275, #390 ) ;
#15 =( NAMED_UNIT ( * ) SI_UNIT ( $, .STERADIAN. ) SOLID_ANGLE_UNIT ( ) );
#16 = CARTESIAN_POINT ( 'NONE',  ( 5.875000000000000000, 7.194799944990700801E-16, 0.000000000000000000 ) ) ;
#17 = EDGE_CURVE ( 'NONE', #180, #146, #389, .T. ) ;
#18 = ORIENTED_EDGE ( 'NONE', *, *, #17, .F. ) ;
#19 = CARTESIAN_POINT ( 'NONE',  ( 0.1249999999999998612, 5.375000000000000888, 0.000000000000000000 ) ) ;
#20 = VERTEX_POINT ( 'NONE', #120 ) ;
#21 = CARTESIAN_POINT ( 'NONE',  ( -5.499999999999930722, -7.064113542779142450E-14, 0.2500000000000000000 ) ) ;
#22 = EDGE_LOOP ( 'NONE', ( #231, #104, #218, #267 ) ) ;
#23 = CLOSED_SHELL ( 'NONE', ( #425, #368, #399, #343, #7, #246, #432, #217, #392, #34, #201, #334, #86, #157 ) ) ;
#24 = CARTESIAN_POINT ( 'NONE',  ( 5.250000000000070166, 6.998288777324973885E-14, 0.2500000000000000000 ) ) ;
#25 = ORIENTED_EDGE ( 'NONE', *, *, #283, .T. ) ;
#26 = EDGE_CURVE ( 'NONE', #424, #345, #377, .T. ) ;
#27 = FACE_OUTER_BOUND ( 'NONE', #258, .T. ) ;
#28 = ORIENTED_EDGE ( 'NONE', *, *, #360, .F. ) ;
#29 = DIRECTION ( 'NONE',  ( -0.000000000000000000, -0.000000000000000000, -1.000000000000000000 ) ) ;
#30 = ORIENTED_EDGE ( 'NONE', *, *, #140, .T. ) ;
#31 = AXIS2_PLACEMENT_3D ( 'NONE', #209, #365, #87 ) ;
#32 = DIRECTION ( 'NONE',  ( -0.000000000000000000, -0.000000000000000000, -1.000000000000000000 ) ) ;
#33 = ORIENTED_EDGE ( 'NONE', *, *, #504, .F. ) ;
#34 = ADVANCED_FACE ( 'NONE', ( #318 ), #199, .F. ) ;
#35 = LINE ( 'NONE', #519, #3 ) ;
#36 = DIRECTION ( 'NONE',  ( 0.000000000000000000, 0.000000000000000000, 1.000000000000000000 ) ) ;
#37 = DIRECTION ( 'NONE',  ( -1.000000000000000000, 0.000000000000000000, 0.000000000000000000 ) ) ;
#38 = AXIS2_PLACEMENT_3D ( 'NONE', #118, #397, #311 ) ;
#39 = VECTOR ( 'NONE', #355, 39.37007874015748143 ) ;
#40 = DIRECTION ( 'NONE',  ( 1.000000000000000000, 0.000000000000000000, 0.000000000000000000 ) ) ;
#41 = DIRECTION ( 'NONE',  ( 1.000000000000000000, 0.000000000000000000, -0.000000000000000000 ) ) ;
#42 = EDGE_CURVE ( 'NONE', #321, #256, #329, .T. ) ;
#43 =( NAMED_UNIT ( * ) PLANE_ANGLE_UNIT ( ) SI_UNIT ( $, .RADIAN. ) );
#44 = DIRECTION ( 'NONE',  ( 0.000000000000000000, 0.000000000000000000, 1.000000000000000000 ) ) ;
#45 = FACE_OUTER_BOUND ( 'NONE', #381, .T. ) ;
#46 = CIRCLE ( 'NONE', #330, 4.875000000000000000 ) ;
#47 = EDGE_CURVE ( 'NONE', #333, #404, #88, .T. ) ;
#48 = CARTESIAN_POINT ( 'NONE',  ( 0.000000000000000000, 0.000000000000000000, 0.000000000000000000 ) ) ;
#49 = CARTESIAN_POINT ( 'NONE',  ( 0.1249999999999998612, 5.375000000000000888, 0.2500000000000000000 ) ) ;
#50 = ORIENTED_EDGE ( 'NONE', *, *, #289, .T. ) ;
#51 = SURFACE_STYLE_USAGE ( .BOTH. , #442 ) ;
#52 = EDGE_CURVE ( 'NONE', #256, #321, #212, .T. ) ;
#53 = DIRECTION ( 'NONE',  ( 1.000000000000000000, 0.000000000000000000, 0.000000000000000000 ) ) ;
#54 = AXIS2_PLACEMENT_3D ( 'NONE', #153, #443, #351 ) ;
#55 = EDGE_LOOP ( 'NONE', ( #109, #295 ) ) ;
#56 = CARTESIAN_POINT ( 'NONE',  ( 5.375000000000070166, 6.998288777324973885E-14, 0.2500000000000000000 ) ) ;
#57 = VERTEX_POINT ( 'NONE', #516 ) ;
#58 = DIRECTION ( 'NONE',  ( -0.000000000000000000, -0.000000000000000000, -1.000000000000000000 ) ) ;
#59 = AXIS2_PLACEMENT_3D ( 'NONE', #483, #32, #143 ) ;
#60 = ORIENTED_EDGE ( 'NONE', *, *, #439, .T. ) ;
#61 = CIRCLE ( 'NONE', #98, 0.1249999999999998612 ) ;
#62 = PRODUCT_RELATED_PRODUCT_CATEGORY ( 'part', '', ( #491 ) ) ;
#63 = DIRECTION ( 'NONE',  ( -1.000000000000000000, 0.000000000000000000, 0.000000000000000000 ) ) ;
#64 = ORIENTED_EDGE ( 'NONE', *, *, #126, .T. ) ;
#65 = CARTESIAN_POINT ( 'NONE',  ( -0.1249999999998598899, -5.375000000000000888, 0.000000000000000000 ) ) ;
#66 = ORIENTED_EDGE ( 'NONE', *, *, #42, .F. ) ;
#67 = ADVANCED_BREP_SHAPE_REPRESENTATION ( 'Holder Plate Large', ( #91, #386 ), #188 ) ;
#68 = FACE_OUTER_BOUND ( 'NONE', #114, .T. ) ;
#69 = EDGE_CURVE ( 'NONE', #316, #211, #131, .T. ) ;
#70 = ORIENTED_EDGE ( 'NONE', *, *, #26, .F. ) ;
#71 = CIRCLE ( 'NONE', #79, 0.1250000000000004441 ) ;
#72 = CIRCLE ( 'NONE', #515, 0.1249999999999998612 ) ;
#73 = APPLICATION_CONTEXT ( 'automotive_design' ) ;
#74 = CARTESIAN_POINT ( 'NONE',  ( -5.249999999999929834, -7.062582734280209207E-14, 0.2500000000000000000 ) ) ;
#75 = EDGE_LOOP ( 'NONE', ( #50, #323 ) ) ;
#76 = DIRECTION ( 'NONE',  ( -1.000000000000000000, 0.000000000000000000, 0.000000000000000000 ) ) ;
#77 = DIRECTION ( 'NONE',  ( -0.000000000000000000, -0.000000000000000000, -1.000000000000000000 ) ) ;
#78 = DIRECTION ( 'NONE',  ( -1.000000000000000000, 0.000000000000000000, 0.000000000000000000 ) ) ;
#79 = AXIS2_PLACEMENT_3D ( 'NONE', #189, #456, #466 ) ;
#80 =( GEOMETRIC_REPRESENTATION_CONTEXT ( 3 ) GLOBAL_UNCERTAINTY_ASSIGNED_CONTEXT ( ( #362 ) ) GLOBAL_UNIT_ASSIGNED_CONTEXT ( ( #127, #213, #15 ) ) REPRESENTATION_CONTEXT ( 'NONE', 'WORKASPACE' ) );
#81 = CARTESIAN_POINT ( 'NONE',  ( -5.374999999999930722, -7.064113542779142450E-14, 0.000000000000000000 ) ) ;
#82 = LENGTH_MEASURE_WITH_UNIT ( LENGTH_MEASURE( 0.02539999999999999897 ), #195 );
#83 = CARTESIAN_POINT ( 'NONE',  ( 5.250000000000070166, 6.998288777324973885E-14, 0.2500000000000000000 ) ) ;
#84 = FILL_AREA_STYLE_COLOUR ( '', #123 ) ;
#85 = APPLICATION_PROTOCOL_DEFINITION ( 'draft international standard', 'automotive_design', 1998, #73 ) ;
#86 = ADVANCED_FACE ( 'NONE', ( #125 ), #235, .F. ) ;
#87 = DIRECTION ( 'NONE',  ( 1.000000000000000000, 0.000000000000000000, 0.000000000000000000 ) ) ;
#88 = CIRCLE ( 'NONE', #171, 0.1249999999999998612 ) ;
#89 = COLOUR_RGB ( '',0.8588235294117646523, 0.8588235294117646523, 0.8588235294117646523 ) ;
#90 = DIRECTION ( 'NONE',  ( 1.000000000000000000, 0.000000000000000000, 0.000000000000000000 ) ) ;
#91 = MANIFOLD_SOLID_BREP ( 'Boss-Extrude1', #23 ) ;
#92 = ORIENTED_EDGE ( 'NONE', *, *, #136, .F. ) ;
#93 = SHAPE_DEFINITION_REPRESENTATION ( #325, #67 ) ;
#94 = DIRECTION ( 'NONE',  ( 1.000000000000000000, 0.000000000000000000, 0.000000000000000000 ) ) ;
#95 = DIRECTION ( 'NONE',  ( -0.000000000000000000, -0.000000000000000000, -1.000000000000000000 ) ) ;
#96 = ORIENTED_EDGE ( 'NONE', *, *, #449, .F. ) ;
#97 = FACE_BOUND ( 'NONE', #306, .T. ) ;
#98 = AXIS2_PLACEMENT_3D ( 'NONE', #335, #499, #177 ) ;
#99 = ORIENTED_EDGE ( 'NONE', *, *, #360, .T. ) ;
#100 = DIRECTION ( 'NONE',  ( -0.000000000000000000, -0.000000000000000000, -1.000000000000000000 ) ) ;
#101 = ORIENTED_EDGE ( 'NONE', *, *, #283, .F. ) ;
#102 = LINE ( 'NONE', #344, #420 ) ;
#103 = EDGE_CURVE ( 'NONE', #467, #211, #477, .T. ) ;
#104 = ORIENTED_EDGE ( 'NONE', *, *, #510, .T. ) ;
#105 = LINE ( 'NONE', #141, #384 ) ;
#106 = CIRCLE ( 'NONE', #462, 4.875000000000000000 ) ;
#107 = ORIENTED_EDGE ( 'NONE', *, *, #504, .T. ) ;
#108 = CYLINDRICAL_SURFACE ( 'NONE', #402, 0.1249999999999998612 ) ;
#109 = ORIENTED_EDGE ( 'NONE', *, *, #279, .T. ) ;
#110 = EDGE_CURVE ( 'NONE', #288, #509, #308, .T. ) ;
#111 = LINE ( 'NONE', #374, #204 ) ;
#112 = VERTEX_POINT ( 'NONE', #19 ) ;
#113 = DIRECTION ( 'NONE',  ( 0.000000000000000000, 0.000000000000000000, 1.000000000000000000 ) ) ;
#114 = EDGE_LOOP ( 'NONE', ( #336, #10, #342, #490 ) ) ;
#115 = AXIS2_PLACEMENT_3D ( 'NONE', #48, #129, #132 ) ;
#116 = AXIS2_PLACEMENT_3D ( 'NONE', #273, #511, #348 ) ;
#117 = CARTESIAN_POINT ( 'NONE',  ( 0.1250000000001398326, -5.375000000000000888, 0.000000000000000000 ) ) ;
#118 = CARTESIAN_POINT ( 'NONE',  ( 5.375000000000070166, 6.998288777324973885E-14, 0.000000000000000000 ) ) ;
#119 = DIRECTION ( 'NONE',  ( 0.000000000000000000, 0.000000000000000000, 1.000000000000000000 ) ) ;
#120 = CARTESIAN_POINT ( 'NONE',  ( 4.875000000000000000, 5.970153145843346361E-16, 0.000000000000000000 ) ) ;
#121 = CARTESIAN_POINT ( 'NONE',  ( 5.875000000000000000, 7.194799944990700801E-16, 0.2500000000000000000 ) ) ;
#122 = PRESENTATION_STYLE_ASSIGNMENT (( #438 ) ) ;
#123 = COLOUR_RGB ( '',0.8588235294117646523, 0.8588235294117646523, 0.8588235294117646523 ) ;
#124 = FACE_BOUND ( 'NONE', #139, .T. ) ;
#125 = FACE_OUTER_BOUND ( 'NONE', #291, .T. ) ;
#126 = EDGE_CURVE ( 'NONE', #422, #333, #255, .T. ) ;
#127 =( CONVERSION_BASED_UNIT ( 'INCH', #282 ) LENGTH_UNIT ( ) NAMED_UNIT ( #210 ) );
#128 = DIRECTION ( 'NONE',  ( -1.000000000000000000, 0.000000000000000000, 0.000000000000000000 ) ) ;
#129 = DIRECTION ( 'NONE',  ( 0.000000000000000000, 0.000000000000000000, 1.000000000000000000 ) ) ;
#130 = ORIENTED_EDGE ( 'NONE', *, *, #110, .F. ) ;
#131 = CIRCLE ( 'NONE', #401, 5.875000000000000000 ) ;
#132 = DIRECTION ( 'NONE',  ( 1.000000000000000000, 0.000000000000000000, 0.000000000000000000 ) ) ;
#133 = ORIENTED_EDGE ( 'NONE', *, *, #314, .T. ) ;
#134 = DIRECTION ( 'NONE',  ( -0.000000000000000000, -0.000000000000000000, -1.000000000000000000 ) ) ;
#135 = ORIENTED_EDGE ( 'NONE', *, *, #472, .F. ) ;
#136 = EDGE_CURVE ( 'NONE', #211, #316, #324, .T. ) ;
#137 = FACE_OUTER_BOUND ( 'NONE', #182, .T. ) ;
#138 = CARTESIAN_POINT ( 'NONE',  ( 0.1249999999999998612, 5.375000000000000888, 0.2500000000000000000 ) ) ;
#139 = EDGE_LOOP ( 'NONE', ( #160, #33 ) ) ;
#140 = EDGE_CURVE ( 'NONE', #146, #20, #419, .T. ) ;
#141 = CARTESIAN_POINT ( 'NONE',  ( -5.249999999999929834, -7.062582734280209207E-14, 0.2500000000000000000 ) ) ;
#142 = ORIENTED_EDGE ( 'NONE', *, *, #353, .F. ) ;
#143 = DIRECTION ( 'NONE',  ( -1.000000000000000000, 0.000000000000000000, 0.000000000000000000 ) ) ;
#144 = ORIENTED_EDGE ( 'NONE', *, *, #319, .F. ) ;
#145 = DIRECTION ( 'NONE',  ( 0.000000000000000000, 0.000000000000000000, 1.000000000000000000 ) ) ;
#146 = VERTEX_POINT ( 'NONE', #403 ) ;
#147 = AXIS2_PLACEMENT_3D ( 'NONE', #198, #315, #152 ) ;
#148 = CYLINDRICAL_SURFACE ( 'NONE', #498, 0.1250000000000004441 ) ;
#149 = ORIENTED_EDGE ( 'NONE', *, *, #494, .F. ) ;
#150 = CARTESIAN_POINT ( 'NONE',  ( -5.499999999999930722, -7.064113542779142450E-14, 0.2500000000000000000 ) ) ;
#151 = ORIENTED_EDGE ( 'NONE', *, *, #233, .F. ) ;
#152 = DIRECTION ( 'NONE',  ( -1.000000000000000000, 0.000000000000000000, 0.000000000000000000 ) ) ;
#153 = CARTESIAN_POINT ( 'NONE',  ( 5.375000000000070166, 6.998288777324973885E-14, 0.2500000000000000000 ) ) ;
#154 = AXIS2_PLACEMENT_3D ( 'NONE', #518, #36, #434 ) ;
#155 = AXIS2_PLACEMENT_3D ( 'NONE', #228, #264, #185 ) ;
#156 = CARTESIAN_POINT ( 'NONE',  ( -0.1249999999998598899, -5.375000000000000888, 0.2500000000000000000 ) ) ;
#157 = ADVANCED_FACE ( 'NONE', ( #287 ), #207, .F. ) ;
#158 = CARTESIAN_POINT ( 'NONE',  ( 1.399657755464994777E-13, -5.375000000000000888, 0.000000000000000000 ) ) ;
#159 =( CONVERSION_BASED_UNIT ( 'INCH', #393 ) LENGTH_UNIT ( ) NAMED_UNIT ( #414 ) );
#160 = ORIENTED_EDGE ( 'NONE', *, *, #304, .F. ) ;
#161 = ORIENTED_EDGE ( 'NONE', *, *, #289, .F. ) ;
#162 = EDGE_CURVE ( 'NONE', #404, #333, #497, .T. ) ;
#163 = AXIS2_PLACEMENT_3D ( 'NONE', #332, #183, #262 ) ;
#164 = AXIS2_PLACEMENT_3D ( 'NONE', #380, #58, #385 ) ;
#165 = PRESENTATION_STYLE_ASSIGNMENT (( #51 ) ) ;
#166 = VERTEX_POINT ( 'NONE', #249 ) ;
#167 = DIRECTION ( 'NONE',  ( 0.000000000000000000, 0.000000000000000000, 1.000000000000000000 ) ) ;
#168 = DIRECTION ( 'NONE',  ( -0.000000000000000000, -0.000000000000000000, -1.000000000000000000 ) ) ;
#169 = DIRECTION ( 'NONE',  ( 0.000000000000000000, 0.000000000000000000, 1.000000000000000000 ) ) ;
#170 = ORIENTED_EDGE ( 'NONE', *, *, #439, .F. ) ;
#171 = AXIS2_PLACEMENT_3D ( 'NONE', #158, #192, #232 ) ;
#172 = CARTESIAN_POINT ( 'NONE',  ( -5.374999999999930722, -7.064113542779142450E-14, 0.2500000000000000000 ) ) ;
#173 = CARTESIAN_POINT ( 'NONE',  ( 0.000000000000000000, 0.000000000000000000, 0.000000000000000000 ) ) ;
#174 = CYLINDRICAL_SURFACE ( 'NONE', #366, 0.1249999999999998612 ) ;
#175 = ORIENTED_EDGE ( 'NONE', *, *, #176, .F. ) ;
#176 = EDGE_CURVE ( 'NONE', #112, #507, #350, .T. ) ;
#177 = DIRECTION ( 'NONE',  ( 1.000000000000000000, 0.000000000000000000, 0.000000000000000000 ) ) ;
#178 = AXIS2_PLACEMENT_3D ( 'NONE', #173, #326, #406 ) ;
#179 = AXIS2_PLACEMENT_3D ( 'NONE', #1, #305, #388 ) ;
#180 = VERTEX_POINT ( 'NONE', #413 ) ;
#181 = CARTESIAN_POINT ( 'NONE',  ( 5.500000000000071054, 6.999819585823907128E-14, 0.2500000000000000000 ) ) ;
#182 = EDGE_LOOP ( 'NONE', ( #151, #469, #347, #28 ) ) ;
#183 = DIRECTION ( 'NONE',  ( 0.000000000000000000, 0.000000000000000000, 1.000000000000000000 ) ) ;
#184 = VERTEX_POINT ( 'NONE', #290 ) ;
#185 = DIRECTION ( 'NONE',  ( 1.000000000000000000, 0.000000000000000000, 0.000000000000000000 ) ) ;
#186 = AXIS2_PLACEMENT_3D ( 'NONE', #320, #293, #90 ) ;
#187 = EDGE_LOOP ( 'NONE', ( #370, #25, #418, #190 ) ) ;
#188 =( GEOMETRIC_REPRESENTATION_CONTEXT ( 3 ) GLOBAL_UNCERTAINTY_ASSIGNED_CONTEXT ( ( #248 ) ) GLOBAL_UNIT_ASSIGNED_CONTEXT ( ( #159, #435, #8 ) ) REPRESENTATION_CONTEXT ( 'NONE', 'WORKASPACE' ) );
#189 = CARTESIAN_POINT ( 'NONE',  ( -5.374999999999930722, -7.064113542779142450E-14, 0.2500000000000000000 ) ) ;
#190 = ORIENTED_EDGE ( 'NONE', *, *, #314, .F. ) ;
#191 = DIRECTION ( 'NONE',  ( 0.000000000000000000, 0.000000000000000000, 1.000000000000000000 ) ) ;
#192 = DIRECTION ( 'NONE',  ( 0.000000000000000000, 0.000000000000000000, 1.000000000000000000 ) ) ;
#193 = EDGE_CURVE ( 'NONE', #166, #301, #317, .T. ) ;
#194 = DIRECTION ( 'NONE',  ( -0.000000000000000000, -0.000000000000000000, -1.000000000000000000 ) ) ;
#195 =( LENGTH_UNIT ( ) NAMED_UNIT ( * ) SI_UNIT ( $, .METRE. ) );
#196 = CIRCLE ( 'NONE', #163, 5.875000000000000000 ) ;
#197 = AXIS2_PLACEMENT_3D ( 'NONE', #81, #44, #234 ) ;
#198 = CARTESIAN_POINT ( 'NONE',  ( -5.374999999999930722, -7.064113542779142450E-14, 0.2500000000000000000 ) ) ;
#199 = CYLINDRICAL_SURFACE ( 'NONE', #349, 4.875000000000000000 ) ;
#200 = LINE ( 'NONE', #83, #39 ) ;
#201 = ADVANCED_FACE ( 'NONE', ( #214 ), #174, .F. ) ;
#202 = CARTESIAN_POINT ( 'NONE',  ( 0.000000000000000000, 0.000000000000000000, 0.000000000000000000 ) ) ;
#203 =( CONVERSION_BASED_UNIT ( 'INCH', #82 ) LENGTH_UNIT ( ) NAMED_UNIT ( #253 ) );
#204 = VECTOR ( 'NONE', #417, 39.37007874015748143 ) ;
#205 = APPLICATION_CONTEXT ( 'automotive_design' ) ;
#206 = CARTESIAN_POINT ( 'NONE',  ( 0.000000000000000000, 0.000000000000000000, 0.000000000000000000 ) ) ;
#207 = CYLINDRICAL_SURFACE ( 'NONE', #479, 0.1250000000000004441 ) ;
#208 = CARTESIAN_POINT ( 'NONE',  ( -5.374999999999930722, -7.064113542779142450E-14, 0.2500000000000000000 ) ) ;
#209 = CARTESIAN_POINT ( 'NONE',  ( 0.000000000000000000, 0.000000000000000000, 0.2500000000000000000 ) ) ;
#210 = DIMENSIONAL_EXPONENTS ( 1.000000000000000000, 0.000000000000000000, 0.000000000000000000, 0.000000000000000000, 0.000000000000000000, 0.000000000000000000, 0.000000000000000000 ) ;
#211 = VERTEX_POINT ( 'NONE', #16 ) ;
#212 = CIRCLE ( 'NONE', #54, 0.1250000000000004441 ) ;
#213 =( NAMED_UNIT ( * ) PLANE_ANGLE_UNIT ( ) SI_UNIT ( $, .RADIAN. ) );
#214 = FACE_OUTER_BOUND ( 'NONE', #493, .T. ) ;
#215 = ORIENTED_EDGE ( 'NONE', *, *, #455, .T. ) ;
#216 = CARTESIAN_POINT ( 'NONE',  ( 5.875000000000000000, 7.194799944990700801E-16, 0.2500000000000000000 ) ) ;
#217 = ADVANCED_FACE ( 'NONE', ( #363, #5, #328, #97, #12, #447 ), #495, .F. ) ;
#218 = ORIENTED_EDGE ( 'NONE', *, *, #47, .F. ) ;
#219 = CARTESIAN_POINT ( 'NONE',  ( -0.1249999999999998612, 5.375000000000000888, 0.2500000000000000000 ) ) ;
#220 = VERTEX_POINT ( 'NONE', #138 ) ;
#221 = DIRECTION ( 'NONE',  ( -1.000000000000000000, 0.000000000000000000, 0.000000000000000000 ) ) ;
#222 = AXIS2_PLACEMENT_3D ( 'NONE', #244, #409, #94 ) ;
#223 = AXIS2_PLACEMENT_3D ( 'NONE', #396, #476, #41 ) ;
#224 = ORIENTED_EDGE ( 'NONE', *, *, #465, .F. ) ;
#225 = FACE_OUTER_BOUND ( 'NONE', #22, .T. ) ;
#226 = EDGE_LOOP ( 'NONE', ( #251, #357 ) ) ;
#227 = EDGE_CURVE ( 'NONE', #220, #112, #492, .T. ) ;
#228 = CARTESIAN_POINT ( 'NONE',  ( 0.000000000000000000, 5.375000000000000888, 0.2500000000000000000 ) ) ;
#229 = ORIENTED_EDGE ( 'NONE', *, *, #103, .F. ) ;
#230 = CARTESIAN_POINT ( 'NONE',  ( 0.000000000000000000, 0.000000000000000000, 0.2500000000000000000 ) ) ;
#231 = ORIENTED_EDGE ( 'NONE', *, *, #472, .T. ) ;
#232 = DIRECTION ( 'NONE',  ( 1.000000000000000000, 0.000000000000000000, 0.000000000000000000 ) ) ;
#233 = EDGE_CURVE ( 'NONE', #467, #375, #292, .T. ) ;
#234 = DIRECTION ( 'NONE',  ( 1.000000000000000000, 0.000000000000000000, 0.000000000000000000 ) ) ;
#235 = CYLINDRICAL_SURFACE ( 'NONE', #261, 0.1249999999999998612 ) ;
#236 = STYLED_ITEM ( 'NONE', ( #122 ), #91 ) ;
#237 = CIRCLE ( 'NONE', #197, 0.1250000000000004441 ) ;
#238 = CYLINDRICAL_SURFACE ( 'NONE', #147, 0.1250000000000004441 ) ;
#239 = UNCERTAINTY_MEASURE_WITH_UNIT (LENGTH_MEASURE( 1.000000000000000082E-05 ), #203, 'distance_accuracy_value', 'NONE');
#240 = FACE_BOUND ( 'NONE', #427, .T. ) ;
#241 = EDGE_LOOP ( 'NONE', ( #488, #484 ) ) ;
#242 = CARTESIAN_POINT ( 'NONE',  ( -5.374999999999930722, -7.064113542779142450E-14, 0.000000000000000000 ) ) ;
#243 = AXIS2_PLACEMENT_3D ( 'NONE', #230, #266, #508 ) ;
#244 = CARTESIAN_POINT ( 'NONE',  ( 1.399657755464994777E-13, -5.375000000000000888, 0.000000000000000000 ) ) ;
#245 = ORIENTED_EDGE ( 'NONE', *, *, #494, .T. ) ;
#246 = ADVANCED_FACE ( 'NONE', ( #137 ), #400, .T. ) ;
#247 = APPLICATION_PROTOCOL_DEFINITION ( 'draft international standard', 'automotive_design', 1998, #205 ) ;
#248 = UNCERTAINTY_MEASURE_WITH_UNIT (LENGTH_MEASURE( 1.000000000000000082E-05 ), #159, 'distance_accuracy_value', 'NONE');
#249 = CARTESIAN_POINT ( 'NONE',  ( -5.249999999999929834, -7.062582734280209207E-14, 0.000000000000000000 ) ) ;
#250 = DIRECTION ( 'NONE',  ( -1.000000000000000000, 0.000000000000000000, 0.000000000000000000 ) ) ;
#251 = ORIENTED_EDGE ( 'NONE', *, *, #408, .T. ) ;
#252 = VECTOR ( 'NONE', #168, 39.37007874015748143 ) ;
#253 = DIMENSIONAL_EXPONENTS ( 1.000000000000000000, 0.000000000000000000, 0.000000000000000000, 0.000000000000000000, 0.000000000000000000, 0.000000000000000000, 0.000000000000000000 ) ;
#254 = AXIS2_PLACEMENT_3D ( 'NONE', #426, #194, #76 ) ;
#255 = LINE ( 'NONE', #450, #339 ) ;
#256 = VERTEX_POINT ( 'NONE', #181 ) ;
#257 = DIRECTION ( 'NONE',  ( -0.000000000000000000, -0.000000000000000000, -1.000000000000000000 ) ) ;
#258 = EDGE_LOOP ( 'NONE', ( #229, #161, #99, #459 ) ) ;
#259 = FACE_OUTER_BOUND ( 'NONE', #327, .T. ) ;
#260 = EDGE_LOOP ( 'NONE', ( #130, #144 ) ) ;
#261 = AXIS2_PLACEMENT_3D ( 'NONE', #475, #77, #37 ) ;
#262 = DIRECTION ( 'NONE',  ( 1.000000000000000000, 0.000000000000000000, 0.000000000000000000 ) ) ;
#263 = ORIENTED_EDGE ( 'NONE', *, *, #376, .F. ) ;
#264 = DIRECTION ( 'NONE',  ( 0.000000000000000000, 0.000000000000000000, 1.000000000000000000 ) ) ;
#265 = ORIENTED_EDGE ( 'NONE', *, *, #69, .F. ) ;
#266 = DIRECTION ( 'NONE',  ( -0.000000000000000000, -0.000000000000000000, -1.000000000000000000 ) ) ;
#267 = ORIENTED_EDGE ( 'NONE', *, *, #126, .F. ) ;
#268 = FACE_OUTER_BOUND ( 'NONE', #75, .T. ) ;
#269 = PRODUCT_DEFINITION ( 'General', '', #480, #331 ) ;
#270 = MECHANICAL_DESIGN_GEOMETRIC_PRESENTATION_REPRESENTATION (  '', ( #236 ), #411 ) ;
#271 = VERTEX_POINT ( 'NONE', #460 ) ;
#272 = CIRCLE ( 'NONE', #179, 0.1250000000000004441 ) ;
#273 = CARTESIAN_POINT ( 'NONE',  ( 1.399657755464994777E-13, -5.375000000000000888, 0.2500000000000000000 ) ) ;
#274 = CYLINDRICAL_SURFACE ( 'NONE', #358, 4.875000000000000000 ) ;
#275 = DIRECTION ( 'NONE',  ( 0.000000000000000000, 0.000000000000000000, 1.000000000000000000 ) ) ;
#276 = DIRECTION ( 'NONE',  ( -0.000000000000000000, -0.000000000000000000, -1.000000000000000000 ) ) ;
#277 = DIRECTION ( 'NONE',  ( 1.000000000000000000, 0.000000000000000000, 0.000000000000000000 ) ) ;
#278 = AXIS2_PLACEMENT_3D ( 'NONE', #172, #444, #372 ) ;
#279 = EDGE_CURVE ( 'NONE', #507, #112, #61, .T. ) ;
#280 = LINE ( 'NONE', #517, #412 ) ;
#281 = SURFACE_STYLE_FILL_AREA ( #441 ) ;
#282 = LENGTH_MEASURE_WITH_UNIT ( LENGTH_MEASURE( 0.02539999999999999897 ), #446 );
#283 = EDGE_CURVE ( 'NONE', #509, #166, #105, .T. ) ;
#284 = ORIENTED_EDGE ( 'NONE', *, *, #140, .F. ) ;
#285 = DIRECTION ( 'NONE',  ( 0.000000000000000000, 0.000000000000000000, 1.000000000000000000 ) ) ;
#286 = ORIENTED_EDGE ( 'NONE', *, *, #52, .T. ) ;
#287 = FACE_OUTER_BOUND ( 'NONE', #452, .T. ) ;
#288 = VERTEX_POINT ( 'NONE', #21 ) ;
#289 = EDGE_CURVE ( 'NONE', #375, #467, #196, .T. ) ;
#290 = CARTESIAN_POINT ( 'NONE',  ( 4.875000000000000000, 5.970153145843346361E-16, 0.2500000000000000000 ) ) ;
#291 = EDGE_LOOP ( 'NONE', ( #457, #303, #64, #502 ) ) ;
#292 = CIRCLE ( 'NONE', #31, 5.875000000000000000 ) ;
#293 = DIRECTION ( 'NONE',  ( 0.000000000000000000, 0.000000000000000000, 1.000000000000000000 ) ) ;
#294 = DIRECTION ( 'NONE',  ( -0.000000000000000000, -0.000000000000000000, -1.000000000000000000 ) ) ;
#295 = ORIENTED_EDGE ( 'NONE', *, *, #176, .T. ) ;
#296 = DIRECTION ( 'NONE',  ( -0.000000000000000000, -0.000000000000000000, -1.000000000000000000 ) ) ;
#297 = EDGE_CURVE ( 'NONE', #57, #507, #501, .T. ) ;
#298 = ORIENTED_EDGE ( 'NONE', *, *, #297, .T. ) ;
#299 = CYLINDRICAL_SURFACE ( 'NONE', #243, 5.875000000000000000 ) ;
#300 = MECHANICAL_DESIGN_GEOMETRIC_PRESENTATION_REPRESENTATION (  '', ( #359 ), #80 ) ;
#301 = VERTEX_POINT ( 'NONE', #415 ) ;
#302 = CARTESIAN_POINT ( 'NONE',  ( 5.500000000000071054, 6.999819585823907128E-14, 0.000000000000000000 ) ) ;
#303 = ORIENTED_EDGE ( 'NONE', *, *, #465, .T. ) ;
#304 = EDGE_CURVE ( 'NONE', #180, #184, #106, .T. ) ;
#305 = DIRECTION ( 'NONE',  ( 0.000000000000000000, 0.000000000000000000, 1.000000000000000000 ) ) ;
#306 = EDGE_LOOP ( 'NONE', ( #373, #245 ) ) ;
#307 = CARTESIAN_POINT ( 'NONE',  ( 0.000000000000000000, 0.000000000000000000, 0.2500000000000000000 ) ) ;
#308 = CIRCLE ( 'NONE', #278, 0.1250000000000004441 ) ;
#309 = DIRECTION ( 'NONE',  ( 0.000000000000000000, 0.000000000000000000, 1.000000000000000000 ) ) ;
#310 = CARTESIAN_POINT ( 'NONE',  ( 0.000000000000000000, 0.000000000000000000, 0.000000000000000000 ) ) ;
#311 = DIRECTION ( 'NONE',  ( 1.000000000000000000, 0.000000000000000000, 0.000000000000000000 ) ) ;
#312 = DIRECTION ( 'NONE',  ( -0.000000000000000000, -0.000000000000000000, -1.000000000000000000 ) ) ;
#313 = DIRECTION ( 'NONE',  ( -0.000000000000000000, -0.000000000000000000, -1.000000000000000000 ) ) ;
#314 = EDGE_CURVE ( 'NONE', #288, #301, #340, .T. ) ;
#315 = DIRECTION ( 'NONE',  ( -0.000000000000000000, -0.000000000000000000, -1.000000000000000000 ) ) ;
#316 = VERTEX_POINT ( 'NONE', #506 ) ;
#317 = CIRCLE ( 'NONE', #2, 0.1250000000000004441 ) ;
#318 = FACE_OUTER_BOUND ( 'NONE', #354, .T. ) ;
#319 = EDGE_CURVE ( 'NONE', #509, #288, #71, .T. ) ;
#320 = CARTESIAN_POINT ( 'NONE',  ( 0.000000000000000000, 0.000000000000000000, 0.000000000000000000 ) ) ;
#321 = VERTEX_POINT ( 'NONE', #24 ) ;
#322 = DIRECTION ( 'NONE',  ( 1.000000000000000000, 0.000000000000000000, 0.000000000000000000 ) ) ;
#323 = ORIENTED_EDGE ( 'NONE', *, *, #233, .T. ) ;
#324 = CIRCLE ( 'NONE', #115, 5.875000000000000000 ) ;
#325 = PRODUCT_DEFINITION_SHAPE ( 'NONE', 'NONE',  #269 ) ;
#326 = DIRECTION ( 'NONE',  ( 0.000000000000000000, 0.000000000000000000, 1.000000000000000000 ) ) ;
#327 = EDGE_LOOP ( 'NONE', ( #142, #286, #215, #149 ) ) ;
#328 = FACE_BOUND ( 'NONE', #55, .T. ) ;
#329 = CIRCLE ( 'NONE', #154, 0.1250000000000004441 ) ;
#330 = AXIS2_PLACEMENT_3D ( 'NONE', #310, #113, #277 ) ;
#331 = PRODUCT_DEFINITION_CONTEXT ( 'detailed design', #205, 'design' ) ;
#332 = CARTESIAN_POINT ( 'NONE',  ( 0.000000000000000000, 0.000000000000000000, 0.2500000000000000000 ) ) ;
#333 = VERTEX_POINT ( 'NONE', #65 ) ;
#334 = ADVANCED_FACE ( 'NONE', ( #259 ), #148, .F. ) ;
#335 = CARTESIAN_POINT ( 'NONE',  ( 0.000000000000000000, 5.375000000000000888, 0.000000000000000000 ) ) ;
#336 = ORIENTED_EDGE ( 'NONE', *, *, #376, .T. ) ;
#337 = CYLINDRICAL_SURFACE ( 'NONE', #164, 0.1249999999999998612 ) ;
#338 = ORIENTED_EDGE ( 'NONE', *, *, #319, .T. ) ;
#339 = VECTOR ( 'NONE', #134, 39.37007874015748143 ) ;
#340 = LINE ( 'NONE', #150, #453 ) ;
#341 = CIRCLE ( 'NONE', #445, 0.1249999999999998612 ) ;
#342 = ORIENTED_EDGE ( 'NONE', *, *, #279, .F. ) ;
#343 = ADVANCED_FACE ( 'NONE', ( #68 ), #108, .F. ) ;
#344 = CARTESIAN_POINT ( 'NONE',  ( -5.875000000000000000, 0.000000000000000000, 0.2500000000000000000 ) ) ;
#345 = VERTEX_POINT ( 'NONE', #302 ) ;
#346 = FACE_BOUND ( 'NONE', #379, .T. ) ;
#347 = ORIENTED_EDGE ( 'NONE', *, *, #136, .T. ) ;
#348 = DIRECTION ( 'NONE',  ( 1.000000000000000000, 0.000000000000000000, 0.000000000000000000 ) ) ;
#349 = AXIS2_PLACEMENT_3D ( 'NONE', #482, #313, #128 ) ;
#350 = CIRCLE ( 'NONE', #513, 0.1249999999999998612 ) ;
#351 = DIRECTION ( 'NONE',  ( 1.000000000000000000, 0.000000000000000000, 0.000000000000000000 ) ) ;
#352 = FACE_BOUND ( 'NONE', #500, .T. ) ;
#353 = EDGE_CURVE ( 'NONE', #256, #345, #111, .T. ) ;
#354 = EDGE_LOOP ( 'NONE', ( #96, #107, #387, #170 ) ) ;
#355 = DIRECTION ( 'NONE',  ( -0.000000000000000000, -0.000000000000000000, -1.000000000000000000 ) ) ;
#356 = SURFACE_SIDE_STYLE ('',( #281 ) ) ;
#357 = ORIENTED_EDGE ( 'NONE', *, *, #193, .T. ) ;
#358 = AXIS2_PLACEMENT_3D ( 'NONE', #395, #276, #78 ) ;
#359 = STYLED_ITEM ( 'NONE', ( #165 ), #67 ) ;
#360 = EDGE_CURVE ( 'NONE', #375, #316, #102, .T. ) ;
#361 = PRODUCT_CONTEXT ( 'NONE', #73, 'mechanical' ) ;
#362 = UNCERTAINTY_MEASURE_WITH_UNIT (LENGTH_MEASURE( 1.000000000000000082E-05 ), #127, 'distance_accuracy_value', 'NONE');
#363 = FACE_OUTER_BOUND ( 'NONE', #429, .T. ) ;
#364 = CARTESIAN_POINT ( 'NONE',  ( 0.000000000000000000, 5.375000000000000888, 0.000000000000000000 ) ) ;
#365 = DIRECTION ( 'NONE',  ( 0.000000000000000000, 0.000000000000000000, 1.000000000000000000 ) ) ;
#366 = AXIS2_PLACEMENT_3D ( 'NONE', #451, #369, #485 ) ;
#367 = FILL_AREA_STYLE ('',( #371 ) ) ;
#368 = ADVANCED_FACE ( 'NONE', ( #225 ), #337, .F. ) ;
#369 = DIRECTION ( 'NONE',  ( -0.000000000000000000, -0.000000000000000000, -1.000000000000000000 ) ) ;
#370 = ORIENTED_EDGE ( 'NONE', *, *, #110, .T. ) ;
#371 = FILL_AREA_STYLE_COLOUR ( '', #89 ) ;
#372 = DIRECTION ( 'NONE',  ( 1.000000000000000000, 0.000000000000000000, 0.000000000000000000 ) ) ;
#373 = ORIENTED_EDGE ( 'NONE', *, *, #26, .T. ) ;
#374 = CARTESIAN_POINT ( 'NONE',  ( 5.500000000000071054, 6.999819585823907128E-14, 0.2500000000000000000 ) ) ;
#375 = VERTEX_POINT ( 'NONE', #378 ) ;
#376 = EDGE_CURVE ( 'NONE', #57, #220, #487, .T. ) ;
#377 = CIRCLE ( 'NONE', #38, 0.1250000000000004441 ) ;
#378 = CARTESIAN_POINT ( 'NONE',  ( -5.875000000000000000, 0.000000000000000000, 0.2500000000000000000 ) ) ;
#379 = EDGE_LOOP ( 'NONE', ( #66, #410 ) ) ;
#380 = CARTESIAN_POINT ( 'NONE',  ( 1.399657755464994777E-13, -5.375000000000000888, 0.2500000000000000000 ) ) ;
#381 = EDGE_LOOP ( 'NONE', ( #407, #505, #284, #18 ) ) ;
#382 = CARTESIAN_POINT ( 'NONE',  ( 0.000000000000000000, 0.000000000000000000, 0.2500000000000000000 ) ) ;
#383 = ORIENTED_EDGE ( 'NONE', *, *, #193, .F. ) ;
#384 = VECTOR ( 'NONE', #296, 39.37007874015748143 ) ;
#385 = DIRECTION ( 'NONE',  ( -1.000000000000000000, 0.000000000000000000, 0.000000000000000000 ) ) ;
#386 = AXIS2_PLACEMENT_3D ( 'NONE', #206, #167, #11 ) ;
#387 = ORIENTED_EDGE ( 'NONE', *, *, #17, .T. ) ;
#388 = DIRECTION ( 'NONE',  ( 1.000000000000000000, 0.000000000000000000, 0.000000000000000000 ) ) ;
#389 = LINE ( 'NONE', #473, #470 ) ;
#390 = DIRECTION ( 'NONE',  ( 1.000000000000000000, 0.000000000000000000, 0.000000000000000000 ) ) ;
#391 = ORIENTED_EDGE ( 'NONE', *, *, #353, .T. ) ;
#392 = ADVANCED_FACE ( 'NONE', ( #27 ), #299, .T. ) ;
#393 = LENGTH_MEASURE_WITH_UNIT ( LENGTH_MEASURE( 0.02539999999999999897 ), #433 );
#394 = CIRCLE ( 'NONE', #116, 0.1249999999999998612 ) ;
#395 = CARTESIAN_POINT ( 'NONE',  ( 0.000000000000000000, 0.000000000000000000, 0.2500000000000000000 ) ) ;
#396 = CARTESIAN_POINT ( 'NONE',  ( 0.000000000000000000, 0.000000000000000000, 0.2500000000000000000 ) ) ;
#397 = DIRECTION ( 'NONE',  ( 0.000000000000000000, 0.000000000000000000, 1.000000000000000000 ) ) ;
#398 = DIRECTION ( 'NONE',  ( 1.000000000000000000, 0.000000000000000000, 0.000000000000000000 ) ) ;
#399 = ADVANCED_FACE ( 'NONE', ( #463 ), #423, .F. ) ;
#400 = CYLINDRICAL_SURFACE ( 'NONE', #59, 5.875000000000000000 ) ;
#401 = AXIS2_PLACEMENT_3D ( 'NONE', #202, #309, #431 ) ;
#402 = AXIS2_PLACEMENT_3D ( 'NONE', #421, #257, #63 ) ;
#403 = CARTESIAN_POINT ( 'NONE',  ( -4.875000000000000000, 0.000000000000000000, 0.000000000000000000 ) ) ;
#404 = VERTEX_POINT ( 'NONE', #117 ) ;
#405 = SURFACE_STYLE_FILL_AREA ( #367 ) ;
#406 = DIRECTION ( 'NONE',  ( 1.000000000000000000, 0.000000000000000000, -0.000000000000000000 ) ) ;
#407 = ORIENTED_EDGE ( 'NONE', *, *, #304, .T. ) ;
#408 = EDGE_CURVE ( 'NONE', #301, #166, #237, .T. ) ;
#409 = DIRECTION ( 'NONE',  ( 0.000000000000000000, 0.000000000000000000, 1.000000000000000000 ) ) ;
#410 = ORIENTED_EDGE ( 'NONE', *, *, #52, .F. ) ;
#411 =( GEOMETRIC_REPRESENTATION_CONTEXT ( 3 ) GLOBAL_UNCERTAINTY_ASSIGNED_CONTEXT ( ( #239 ) ) GLOBAL_UNIT_ASSIGNED_CONTEXT ( ( #203, #43, #9 ) ) REPRESENTATION_CONTEXT ( 'NONE', 'WORKASPACE' ) );
#412 = VECTOR ( 'NONE', #312, 39.37007874015748143 ) ;
#413 = CARTESIAN_POINT ( 'NONE',  ( -4.875000000000000000, 0.000000000000000000, 0.2500000000000000000 ) ) ;
#414 = DIMENSIONAL_EXPONENTS ( 1.000000000000000000, 0.000000000000000000, 0.000000000000000000, 0.000000000000000000, 0.000000000000000000, 0.000000000000000000, 0.000000000000000000 ) ;
#415 = CARTESIAN_POINT ( 'NONE',  ( -5.499999999999930722, -7.064113542779142450E-14, 0.000000000000000000 ) ) ;
#416 = EDGE_CURVE ( 'NONE', #220, #57, #341, .T. ) ;
#417 = DIRECTION ( 'NONE',  ( -0.000000000000000000, -0.000000000000000000, -1.000000000000000000 ) ) ;
#418 = ORIENTED_EDGE ( 'NONE', *, *, #408, .F. ) ;
#419 = CIRCLE ( 'NONE', #186, 4.875000000000000000 ) ;
#420 = VECTOR ( 'NONE', #29, 39.37007874015748143 ) ;
#421 = CARTESIAN_POINT ( 'NONE',  ( 0.000000000000000000, 5.375000000000000888, 0.2500000000000000000 ) ) ;
#422 = VERTEX_POINT ( 'NONE', #156 ) ;
#423 = CYLINDRICAL_SURFACE ( 'NONE', #254, 0.1250000000000004441 ) ;
#424 = VERTEX_POINT ( 'NONE', #478 ) ;
#425 = ADVANCED_FACE ( 'NONE', ( #514 ), #238, .F. ) ;
#426 = CARTESIAN_POINT ( 'NONE',  ( 5.375000000000070166, 6.998288777324973885E-14, 0.2500000000000000000 ) ) ;
#427 = EDGE_LOOP ( 'NONE', ( #135, #224 ) ) ;
#428 = PLANE ( 'NONE',  #223 ) ;
#429 = EDGE_LOOP ( 'NONE', ( #265, #92 ) ) ;
#430 = DIRECTION ( 'NONE',  ( -0.000000000000000000, -0.000000000000000000, -1.000000000000000000 ) ) ;
#431 = DIRECTION ( 'NONE',  ( 1.000000000000000000, 0.000000000000000000, 0.000000000000000000 ) ) ;
#432 = ADVANCED_FACE ( 'NONE', ( #240, #352, #268, #124, #346, #440 ), #428, .T. ) ;
#433 =( LENGTH_UNIT ( ) NAMED_UNIT ( * ) SI_UNIT ( $, .METRE. ) );
#434 = DIRECTION ( 'NONE',  ( 1.000000000000000000, 0.000000000000000000, 0.000000000000000000 ) ) ;
#435 =( NAMED_UNIT ( * ) PLANE_ANGLE_UNIT ( ) SI_UNIT ( $, .RADIAN. ) );
#436 = VECTOR ( 'NONE', #489, 39.37007874015748143 ) ;
#437 = CIRCLE ( 'NONE', #14, 4.875000000000000000 ) ;
#438 = SURFACE_STYLE_USAGE ( .BOTH. , #356 ) ;
#439 = EDGE_CURVE ( 'NONE', #20, #146, #46, .T. ) ;
#440 = FACE_BOUND ( 'NONE', #260, .T. ) ;
#441 = FILL_AREA_STYLE ('',( #84 ) ) ;
#442 = SURFACE_SIDE_STYLE ('',( #405 ) ) ;
#443 = DIRECTION ( 'NONE',  ( 0.000000000000000000, 0.000000000000000000, 1.000000000000000000 ) ) ;
#444 = DIRECTION ( 'NONE',  ( 0.000000000000000000, 0.000000000000000000, 1.000000000000000000 ) ) ;
#445 = AXIS2_PLACEMENT_3D ( 'NONE', #468, #191, #40 ) ;
#446 =( LENGTH_UNIT ( ) NAMED_UNIT ( * ) SI_UNIT ( $, .METRE. ) );
#447 = FACE_BOUND ( 'NONE', #226, .T. ) ;
#448 = EDGE_LOOP ( 'NONE', ( #464, #391, #70, #461 ) ) ;
#449 = EDGE_CURVE ( 'NONE', #184, #20, #280, .T. ) ;
#450 = CARTESIAN_POINT ( 'NONE',  ( -0.1249999999998598899, -5.375000000000000888, 0.2500000000000000000 ) ) ;
#451 = CARTESIAN_POINT ( 'NONE',  ( 0.000000000000000000, 5.375000000000000888, 0.2500000000000000000 ) ) ;
#452 = EDGE_LOOP ( 'NONE', ( #101, #338, #133, #383 ) ) ;
#453 = VECTOR ( 'NONE', #294, 39.37007874015748143 ) ;
#454 = PRESENTATION_LAYER_ASSIGNMENT (  '', '', ( #359 ) ) ;
#455 = EDGE_CURVE ( 'NONE', #321, #424, #200, .T. ) ;
#456 = DIRECTION ( 'NONE',  ( 0.000000000000000000, 0.000000000000000000, 1.000000000000000000 ) ) ;
#457 = ORIENTED_EDGE ( 'NONE', *, *, #510, .F. ) ;
#458 = DIRECTION ( 'NONE',  ( 1.000000000000000000, 0.000000000000000000, 0.000000000000000000 ) ) ;
#459 = ORIENTED_EDGE ( 'NONE', *, *, #69, .T. ) ;
#460 = CARTESIAN_POINT ( 'NONE',  ( 0.1250000000001398326, -5.375000000000000888, 0.2500000000000000000 ) ) ;
#461 = ORIENTED_EDGE ( 'NONE', *, *, #455, .F. ) ;
#462 = AXIS2_PLACEMENT_3D ( 'NONE', #382, #145, #458 ) ;
#463 = FACE_OUTER_BOUND ( 'NONE', #448, .T. ) ;
#464 = ORIENTED_EDGE ( 'NONE', *, *, #42, .T. ) ;
#465 = EDGE_CURVE ( 'NONE', #271, #422, #394, .T. ) ;
#466 = DIRECTION ( 'NONE',  ( 1.000000000000000000, 0.000000000000000000, 0.000000000000000000 ) ) ;
#467 = VERTEX_POINT ( 'NONE', #121 ) ;
#468 = CARTESIAN_POINT ( 'NONE',  ( 0.000000000000000000, 5.375000000000000888, 0.2500000000000000000 ) ) ;
#469 = ORIENTED_EDGE ( 'NONE', *, *, #103, .T. ) ;
#470 = VECTOR ( 'NONE', #512, 39.37007874015748143 ) ;
#471 = CARTESIAN_POINT ( 'NONE',  ( -0.1249999999999998612, 5.375000000000000888, 0.000000000000000000 ) ) ;
#472 = EDGE_CURVE ( 'NONE', #422, #271, #72, .T. ) ;
#473 = CARTESIAN_POINT ( 'NONE',  ( -4.875000000000000000, 0.000000000000000000, 0.2500000000000000000 ) ) ;
#474 = CARTESIAN_POINT ( 'NONE',  ( 1.399657755464994777E-13, -5.375000000000000888, 0.2500000000000000000 ) ) ;
#475 = CARTESIAN_POINT ( 'NONE',  ( 1.399657755464994777E-13, -5.375000000000000888, 0.2500000000000000000 ) ) ;
#476 = DIRECTION ( 'NONE',  ( 0.000000000000000000, 0.000000000000000000, 1.000000000000000000 ) ) ;
#477 = LINE ( 'NONE', #216, #436 ) ;
#478 = CARTESIAN_POINT ( 'NONE',  ( 5.250000000000070166, 6.998288777324973885E-14, 0.000000000000000000 ) ) ;
#479 = AXIS2_PLACEMENT_3D ( 'NONE', #208, #95, #250 ) ;
#480 = PRODUCT_DEFINITION_FORMATION_WITH_SPECIFIED_SOURCE ( 'Symmetric', '', #491, .NOT_KNOWN. ) ;
#481 = EDGE_LOOP ( 'NONE', ( #30, #60 ) ) ;
#482 = CARTESIAN_POINT ( 'NONE',  ( 0.000000000000000000, 0.000000000000000000, 0.2500000000000000000 ) ) ;
#483 = CARTESIAN_POINT ( 'NONE',  ( 0.000000000000000000, 0.000000000000000000, 0.2500000000000000000 ) ) ;
#484 = ORIENTED_EDGE ( 'NONE', *, *, #162, .T. ) ;
#485 = DIRECTION ( 'NONE',  ( -1.000000000000000000, 0.000000000000000000, 0.000000000000000000 ) ) ;
#486 = VECTOR ( 'NONE', #503, 39.37007874015748143 ) ;
#487 = CIRCLE ( 'NONE', #155, 0.1249999999999998612 ) ;
#488 = ORIENTED_EDGE ( 'NONE', *, *, #47, .T. ) ;
#489 = DIRECTION ( 'NONE',  ( -0.000000000000000000, -0.000000000000000000, -1.000000000000000000 ) ) ;
#490 = ORIENTED_EDGE ( 'NONE', *, *, #297, .F. ) ;
#491 = PRODUCT ( 'Holder Plate Large', 'Holder Plate Large', '', ( #361 ) ) ;
#492 = LINE ( 'NONE', #49, #252 ) ;
#493 = EDGE_LOOP ( 'NONE', ( #496, #6, #298, #175 ) ) ;
#494 = EDGE_CURVE ( 'NONE', #345, #424, #272, .T. ) ;
#495 = PLANE ( 'NONE',  #178 ) ;
#496 = ORIENTED_EDGE ( 'NONE', *, *, #227, .F. ) ;
#497 = CIRCLE ( 'NONE', #222, 0.1249999999999998612 ) ;
#498 = AXIS2_PLACEMENT_3D ( 'NONE', #56, #100, #221 ) ;
#499 = DIRECTION ( 'NONE',  ( 0.000000000000000000, 0.000000000000000000, 1.000000000000000000 ) ) ;
#500 = EDGE_LOOP ( 'NONE', ( #263, #4 ) ) ;
#501 = LINE ( 'NONE', #219, #486 ) ;
#502 = ORIENTED_EDGE ( 'NONE', *, *, #162, .F. ) ;
#503 = DIRECTION ( 'NONE',  ( -0.000000000000000000, -0.000000000000000000, -1.000000000000000000 ) ) ;
#504 = EDGE_CURVE ( 'NONE', #184, #180, #437, .T. ) ;
#505 = ORIENTED_EDGE ( 'NONE', *, *, #449, .T. ) ;
#506 = CARTESIAN_POINT ( 'NONE',  ( -5.875000000000000000, 0.000000000000000000, 0.000000000000000000 ) ) ;
#507 = VERTEX_POINT ( 'NONE', #471 ) ;
#508 = DIRECTION ( 'NONE',  ( -1.000000000000000000, 0.000000000000000000, 0.000000000000000000 ) ) ;
#509 = VERTEX_POINT ( 'NONE', #74 ) ;
#510 = EDGE_CURVE ( 'NONE', #271, #404, #35, .T. ) ;
#511 = DIRECTION ( 'NONE',  ( 0.000000000000000000, 0.000000000000000000, 1.000000000000000000 ) ) ;
#512 = DIRECTION ( 'NONE',  ( -0.000000000000000000, -0.000000000000000000, -1.000000000000000000 ) ) ;
#513 = AXIS2_PLACEMENT_3D ( 'NONE', #364, #169, #53 ) ;
#514 = FACE_OUTER_BOUND ( 'NONE', #187, .T. ) ;
#515 = AXIS2_PLACEMENT_3D ( 'NONE', #474, #119, #398 ) ;
#516 = CARTESIAN_POINT ( 'NONE',  ( -0.1249999999999998612, 5.375000000000000888, 0.2500000000000000000 ) ) ;
#517 = CARTESIAN_POINT ( 'NONE',  ( 4.875000000000000000, 5.970153145843346361E-16, 0.2500000000000000000 ) ) ;
#518 = CARTESIAN_POINT ( 'NONE',  ( 5.375000000000070166, 6.998288777324973885E-14, 0.2500000000000000000 ) ) ;
#519 = CARTESIAN_POINT ( 'NONE',  ( 0.1250000000001398326, -5.375000000000000888, 0.2500000000000000000 ) ) ;
ENDSEC;
END-ISO-10303-21;
