ISO-10303-21;
HEADER;
FILE_DESCRIPTION (( 'STEP AP214' ),
    '1' );
FILE_NAME ('jetson_base.STEP',
    '2026-09-04T22:03:26',
    ( '' ),
    ( '' ),
    'SwSTEP 2.0',
    'SolidWorks 2026',
    '' );
FILE_SCHEMA (( 'AUTOMOTIVE_DESIGN' ));
ENDSEC;

DATA;
#1 = CARTESIAN_POINT ( 'NONE',  ( 105.0000000000000142, 3.000000000000000000, 3.000000000000000000 ) ) ;
#2 = EDGE_LOOP ( 'NONE', ( #230, #24, #109, #66 ) ) ;
#3 = EDGE_CURVE ( 'NONE', #277, #174, #397, .T. ) ;
#4 = CIRCLE ( 'NONE', #389, 1.375000000000001332 ) ;
#5 = CARTESIAN_POINT ( 'NONE',  ( 105.0000000000000284, 42.00000000000001421, -0.4999999999999930611 ) ) ;
#6 = ORIENTED_EDGE ( 'NONE', *, *, #401, .F. ) ;
#7 = AXIS2_PLACEMENT_3D ( 'NONE', #649, #276, #433 ) ;
#8 = DIRECTION ( 'NONE',  ( -1.000000000000000000, 0.000000000000000000, 1.261617073437677752E-16 ) ) ;
#9 = EDGE_LOOP ( 'NONE', ( #130, #577 ) ) ;
#10 = EDGE_CURVE ( 'NONE', #411, #697, #451, .T. ) ;
#11 = DIRECTION ( 'NONE',  ( 0.000000000000000000, 0.000000000000000000, 1.000000000000000000 ) ) ;
#12 = DIRECTION ( 'NONE',  ( -1.000000000000000000, 0.000000000000000000, 1.261617073437677752E-16 ) ) ;
#13 = EDGE_CURVE ( 'NONE', #411, #272, #667, .T. ) ;
#14 = DIRECTION ( 'NONE',  ( 0.000000000000000000, 1.000000000000000000, 0.000000000000000000 ) ) ;
#15 = CARTESIAN_POINT ( 'NONE',  ( 105.0000000000000142, 0.000000000000000000, -77.00000000000001421 ) ) ;
#16 = DIRECTION ( 'NONE',  ( 1.000000000000000000, -0.000000000000000000, 1.445602896647344340E-16 ) ) ;
#17 = STYLED_ITEM ( 'NONE', ( #538 ), #654 ) ;
#18 =( NAMED_UNIT ( * ) SI_UNIT ( $, .STERADIAN. ) SOLID_ANGLE_UNIT ( ) );
#19 = CARTESIAN_POINT ( 'NONE',  ( 102.0000000000000142, 42.00000000000000711, -73.50000000000001421 ) ) ;
#20 = ORIENTED_EDGE ( 'NONE', *, *, #676, .F. ) ;
#21 = DIRECTION ( 'NONE',  ( 0.000000000000000000, 1.000000000000000000, 0.000000000000000000 ) ) ;
#22 = DIRECTION ( 'NONE',  ( 0.000000000000000000, 0.000000000000000000, -1.000000000000000000 ) ) ;
#23 = DIRECTION ( 'NONE',  ( 0.000000000000000000, 1.000000000000000000, 0.000000000000000000 ) ) ;
#24 = ORIENTED_EDGE ( 'NONE', *, *, #298, .T. ) ;
#25 = VECTOR ( 'NONE', #481, 1000.000000000000000 ) ;
#26 = LINE ( 'NONE', #105, #106 ) ;
#27 = AXIS2_PLACEMENT_3D ( 'NONE', #374, #423, #207 ) ;
#28 = CARTESIAN_POINT ( 'NONE',  ( 91.00000000000001421, 3.000000000000000000, -68.99999999999998579 ) ) ;
#29 = EDGE_LOOP ( 'NONE', ( #527, #237, #111, #655 ) ) ;
#30 = DIRECTION ( 'NONE',  ( -1.000000000000000000, 0.000000000000000000, 0.000000000000000000 ) ) ;
#31 = ADVANCED_FACE ( 'NONE', ( #613 ), #122, .F. ) ;
#32 = CARTESIAN_POINT ( 'NONE',  ( 91.00000000000002842, 0.000000000000000000, -11.00000000000000355 ) ) ;
#33 = ORIENTED_EDGE ( 'NONE', *, *, #262, .F. ) ;
#34 = DIRECTION ( 'NONE',  ( 0.000000000000000000, 1.000000000000000000, 0.000000000000000000 ) ) ;
#35 = PRODUCT_DEFINITION_FORMATION_WITH_SPECIFIED_SOURCE ( 'Symmetric', '', #40, .NOT_KNOWN. ) ;
#36 = FACE_OUTER_BOUND ( 'NONE', #193, .T. ) ;
#37 = ORIENTED_EDGE ( 'NONE', *, *, #669, .F. ) ;
#38 = CARTESIAN_POINT ( 'NONE',  ( 91.00000000000001421, 3.000000000000000000, -68.99999999999998579 ) ) ;
#39 = DIRECTION ( 'NONE',  ( -0.000000000000000000, -1.000000000000000000, -0.000000000000000000 ) ) ;
#40 = PRODUCT ( 'jetson_base', 'jetson_base', '', ( #383 ) ) ;
#41 = ORIENTED_EDGE ( 'NONE', *, *, #76, .F. ) ;
#42 = EDGE_CURVE ( 'NONE', #272, #101, #672, .T. ) ;
#43 = CARTESIAN_POINT ( 'NONE',  ( 5.000000000000000000, 3.000000000000000000, -67.62500000000000000 ) ) ;
#44 = EDGE_LOOP ( 'NONE', ( #261, #6, #156, #269 ) ) ;
#45 = DIRECTION ( 'NONE',  ( 3.469446951953614189E-16, 0.000000000000000000, 1.000000000000000000 ) ) ;
#46 = CARTESIAN_POINT ( 'NONE',  ( 5.000000000000006217, 0.000000000000000000, -12.37500000000000178 ) ) ;
#47 = ORIENTED_EDGE ( 'NONE', *, *, #693, .T. ) ;
#48 = FILL_AREA_STYLE ('',( #256 ) ) ;
#49 =( GEOMETRIC_REPRESENTATION_CONTEXT ( 3 ) GLOBAL_UNCERTAINTY_ASSIGNED_CONTEXT ( ( #582 ) ) GLOBAL_UNIT_ASSIGNED_CONTEXT ( ( #425, #151, #590 ) ) REPRESENTATION_CONTEXT ( 'NONE', 'WORKASPACE' ) );
#50 = FACE_BOUND ( 'NONE', #699, .T. ) ;
#51 = ORIENTED_EDGE ( 'NONE', *, *, #3, .T. ) ;
#52 = VECTOR ( 'NONE', #154, 1000.000000000000000 ) ;
#53 = SURFACE_STYLE_USAGE ( .BOTH. , #639 ) ;
#54 = CARTESIAN_POINT ( 'NONE',  ( -1.999999999999990452, 0.000000000000000000, 3.000000000000000000 ) ) ;
#55 = ADVANCED_FACE ( 'NONE', ( #396 ), #124, .F. ) ;
#56 = ORIENTED_EDGE ( 'NONE', *, *, #661, .F. ) ;
#57 =( LENGTH_UNIT ( ) NAMED_UNIT ( * ) SI_UNIT ( .MILLI., .METRE. ) );
#58 = DIRECTION ( 'NONE',  ( -0.000000000000000000, -1.000000000000000000, -0.000000000000000000 ) ) ;
#59 = CARTESIAN_POINT ( 'NONE',  ( 5.000000000000000000, 3.000000000000000000, -69.00000000000000000 ) ) ;
#60 = CIRCLE ( 'NONE', #73, 1.375000000000001332 ) ;
#61 = CYLINDRICAL_SURFACE ( 'NONE', #250, 1.500000000000002665 ) ;
#62 = CIRCLE ( 'NONE', #551, 1.500000000000002665 ) ;
#63 = ORIENTED_EDGE ( 'NONE', *, *, #646, .T. ) ;
#64 = ADVANCED_FACE ( 'NONE', ( #632 ), #467, .F. ) ;
#65 = CYLINDRICAL_SURFACE ( 'NONE', #282, 1.375000000000001332 ) ;
#66 = ORIENTED_EDGE ( 'NONE', *, *, #673, .F. ) ;
#67 = DIRECTION ( 'NONE',  ( 1.000000000000000000, 0.000000000000000000, -3.469446951953615175E-16 ) ) ;
#68 = ORIENTED_EDGE ( 'NONE', *, *, #13, .T. ) ;
#69 = ORIENTED_EDGE ( 'NONE', *, *, #557, .F. ) ;
#70 = CYLINDRICAL_SURFACE ( 'NONE', #281, 1.374999999999999556 ) ;
#71 = CARTESIAN_POINT ( 'NONE',  ( 91.00000000000002842, 3.000000000000000000, -11.00000000000000355 ) ) ;
#72 = ORIENTED_EDGE ( 'NONE', *, *, #238, .T. ) ;
#73 = AXIS2_PLACEMENT_3D ( 'NONE', #581, #34, #259 ) ;
#74 = AXIS2_PLACEMENT_3D ( 'NONE', #519, #419, #579 ) ;
#75 = CARTESIAN_POINT ( 'NONE',  ( 5.000000000000006217, 3.000000000000000000, -11.00000000000000355 ) ) ;
#76 = EDGE_CURVE ( 'NONE', #593, #554, #190, .T. ) ;
#77 = DIRECTION ( 'NONE',  ( -0.000000000000000000, -1.000000000000000000, -0.000000000000000000 ) ) ;
#78 = CARTESIAN_POINT ( 'NONE',  ( 91.00000000000001421, 0.000000000000000000, -68.99999999999998579 ) ) ;
#79 = ORIENTED_EDGE ( 'NONE', *, *, #317, .F. ) ;
#80 = CARTESIAN_POINT ( 'NONE',  ( 5.000000000000000000, 3.000000000000000000, -67.62500000000000000 ) ) ;
#81 = CARTESIAN_POINT ( 'NONE',  ( 5.000000000000000000, 3.000000000000000000, -69.00000000000000000 ) ) ;
#82 = PLANE ( 'NONE',  #155 ) ;
#83 = EDGE_LOOP ( 'NONE', ( #617, #211, #138, #438 ) ) ;
#84 = CIRCLE ( 'NONE', #236, 1.374999999999999556 ) ;
#85 = CARTESIAN_POINT ( 'NONE',  ( 0.000000000000000000, 48.00000000000000000, 0.000000000000000000 ) ) ;
#86 = ADVANCED_FACE ( 'NONE', ( #691, #357, #198, #350, #576 ), #257, .F. ) ;
#87 = DIRECTION ( 'NONE',  ( 0.000000000000000000, -0.000000000000000000, 1.000000000000000000 ) ) ;
#88 = EDGE_LOOP ( 'NONE', ( #216, #72, #359, #610 ) ) ;
#89 = DIRECTION ( 'NONE',  ( 0.000000000000000000, 0.000000000000000000, 1.000000000000000000 ) ) ;
#90 = DIRECTION ( 'NONE',  ( 0.000000000000000000, 1.000000000000000000, 0.000000000000000000 ) ) ;
#91 = EDGE_LOOP ( 'NONE', ( #232, #337, #440, #407 ) ) ;
#92 = CARTESIAN_POINT ( 'NONE',  ( 105.0000000000000284, 42.00000000000001421, -3.499999999999998224 ) ) ;
#93 = DIRECTION ( 'NONE',  ( 0.000000000000000000, 0.000000000000000000, -1.000000000000000000 ) ) ;
#94 = ADVANCED_FACE ( 'NONE', ( #36 ), #137, .F. ) ;
#95 = ORIENTED_EDGE ( 'NONE', *, *, #462, .F. ) ;
#96 = AXIS2_PLACEMENT_3D ( 'NONE', #166, #340, #449 ) ;
#97 = CARTESIAN_POINT ( 'NONE',  ( 102.0000000000000142, 3.000000000000000000, -77.00000000000000000 ) ) ;
#98 = CIRCLE ( 'NONE', #27, 1.374999999999999556 ) ;
#99 = VERTEX_POINT ( 'NONE', #260 ) ;
#100 = DIRECTION ( 'NONE',  ( 0.000000000000000000, 0.000000000000000000, -1.000000000000000000 ) ) ;
#101 = VERTEX_POINT ( 'NONE', #515 ) ;
#102 = CARTESIAN_POINT ( 'NONE',  ( 5.000000000000006217, 3.000000000000000000, -12.37500000000000178 ) ) ;
#103 = CARTESIAN_POINT ( 'NONE',  ( 5.000000000000000000, 3.000000000000000000, -70.37500000000000000 ) ) ;
#104 = VERTEX_POINT ( 'NONE', #471 ) ;
#105 = CARTESIAN_POINT ( 'NONE',  ( -1.999999999999990452, 3.000000000000000000, 3.000000000000000000 ) ) ;
#106 = VECTOR ( 'NONE', #534, 1000.000000000000000 ) ;
#107 = EDGE_CURVE ( 'NONE', #554, #593, #683, .T. ) ;
#108 = DIRECTION ( 'NONE',  ( -3.469446951953615175E-16, 0.000000000000000000, -1.000000000000000000 ) ) ;
#109 = ORIENTED_EDGE ( 'NONE', *, *, #441, .F. ) ;
#110 = CYLINDRICAL_SURFACE ( 'NONE', #542, 1.500000000000002665 ) ;
#111 = ORIENTED_EDGE ( 'NONE', *, *, #134, .F. ) ;
#112 = CARTESIAN_POINT ( 'NONE',  ( 102.0000000000000284, 48.00000000000000000, 2.999999999999999556 ) ) ;
#113 = EDGE_LOOP ( 'NONE', ( #490, #20, #51, #56 ) ) ;
#114 = EDGE_CURVE ( 'NONE', #286, #697, #254, .T. ) ;
#115 = SHAPE_DEFINITION_REPRESENTATION ( #640, #711 ) ;
#116 = UNCERTAINTY_MEASURE_WITH_UNIT (LENGTH_MEASURE( 1.000000000000000082E-05 ), #57, 'distance_accuracy_value', 'NONE');
#117 = LINE ( 'NONE', #666, #335 ) ;
#118 = VECTOR ( 'NONE', #592, 1000.000000000000000 ) ;
#119 = ORIENTED_EDGE ( 'NONE', *, *, #162, .T. ) ;
#120 = CIRCLE ( 'NONE', #227, 1.375000000000001332 ) ;
#121 = CARTESIAN_POINT ( 'NONE',  ( 102.0000000000000142, 42.00000000000000711, -72.00000000000001421 ) ) ;
#122 = CYLINDRICAL_SURFACE ( 'NONE', #681, 1.375000000000004663 ) ;
#123 = CARTESIAN_POINT ( 'NONE',  ( -1.999999999999990452, 0.000000000000000000, 3.000000000000000000 ) ) ;
#124 = CYLINDRICAL_SURFACE ( 'NONE', #418, 1.375000000000001332 ) ;
#125 = EDGE_CURVE ( 'NONE', #196, #379, #404, .T. ) ;
#126 = DIRECTION ( 'NONE',  ( -1.000000000000000000, -0.000000000000000000, -0.000000000000000000 ) ) ;
#127 = DIRECTION ( 'NONE',  ( 0.000000000000000000, 0.000000000000000000, -1.000000000000000000 ) ) ;
#128 = CARTESIAN_POINT ( 'NONE',  ( 105.0000000000000284, 42.00000000000001421, -1.999999999999995781 ) ) ;
#129 = CARTESIAN_POINT ( 'NONE',  ( -1.999999999999990452, 3.000000000000000000, -77.00000000000000000 ) ) ;
#130 = ORIENTED_EDGE ( 'NONE', *, *, #607, .F. ) ;
#131 = DIRECTION ( 'NONE',  ( 0.000000000000000000, 1.000000000000000000, 0.000000000000000000 ) ) ;
#132 = CARTESIAN_POINT ( 'NONE',  ( 91.00000000000002842, 3.000000000000000000, -12.37500000000000711 ) ) ;
#133 = EDGE_LOOP ( 'NONE', ( #33, #658, #47, #382 ) ) ;
#134 = EDGE_CURVE ( 'NONE', #258, #266, #120, .T. ) ;
#135 = FACE_OUTER_BOUND ( 'NONE', #133, .T. ) ;
#136 =( GEOMETRIC_REPRESENTATION_CONTEXT ( 3 ) GLOBAL_UNCERTAINTY_ASSIGNED_CONTEXT ( ( #116 ) ) GLOBAL_UNIT_ASSIGNED_CONTEXT ( ( #57, #444, #18 ) ) REPRESENTATION_CONTEXT ( 'NONE', 'WORKASPACE' ) );
#137 = CYLINDRICAL_SURFACE ( 'NONE', #529, 1.375000000000004663 ) ;
#138 = ORIENTED_EDGE ( 'NONE', *, *, #107, .F. ) ;
#139 = VECTOR ( 'NONE', #45, 1000.000000000000000 ) ;
#140 = AXIS2_PLACEMENT_3D ( 'NONE', #662, #656, #391 ) ;
#141 = CARTESIAN_POINT ( 'NONE',  ( -1.999999999999990452, 0.000000000000000000, 3.000000000000000000 ) ) ;
#142 = DIRECTION ( 'NONE',  ( 0.000000000000000000, 0.000000000000000000, -1.000000000000000000 ) ) ;
#143 = ORIENTED_EDGE ( 'NONE', *, *, #661, .T. ) ;
#144 = CARTESIAN_POINT ( 'NONE',  ( 5.000000000000000000, 0.000000000000000000, -69.00000000000000000 ) ) ;
#145 = DIRECTION ( 'NONE',  ( 0.000000000000000000, 0.000000000000000000, 1.000000000000000000 ) ) ;
#146 = ORIENTED_EDGE ( 'NONE', *, *, #125, .T. ) ;
#147 = CARTESIAN_POINT ( 'NONE',  ( 102.0000000000000142, 3.000000000000000000, -77.00000000000000000 ) ) ;
#148 = EDGE_CURVE ( 'NONE', #387, #554, #244, .T. ) ;
#149 = CARTESIAN_POINT ( 'NONE',  ( 102.0000000000000284, 42.00000000000001421, -1.999999999999995781 ) ) ;
#150 = ORIENTED_EDGE ( 'NONE', *, *, #339, .T. ) ;
#151 =( NAMED_UNIT ( * ) PLANE_ANGLE_UNIT ( ) SI_UNIT ( $, .RADIAN. ) );
#152 = VECTOR ( 'NONE', #480, 1000.000000000000000 ) ;
#153 = CIRCLE ( 'NONE', #587, 1.500000000000001332 ) ;
#154 = DIRECTION ( 'NONE',  ( -0.000000000000000000, -1.000000000000000000, -0.000000000000000000 ) ) ;
#155 = AXIS2_PLACEMENT_3D ( 'NONE', #195, #628, #108 ) ;
#156 = ORIENTED_EDGE ( 'NONE', *, *, #669, .T. ) ;
#157 = CARTESIAN_POINT ( 'NONE',  ( 105.0000000000000284, 42.00000000000000711, -73.50000000000001421 ) ) ;
#158 = ADVANCED_FACE ( 'NONE', ( #300 ), #455, .F. ) ;
#159 = LINE ( 'NONE', #535, #25 ) ;
#160 = EDGE_LOOP ( 'NONE', ( #95, #63, #541, #634 ) ) ;
#161 = FILL_AREA_STYLE ('',( #651 ) ) ;
#162 = EDGE_CURVE ( 'NONE', #319, #174, #293, .T. ) ;
#163 = DIRECTION ( 'NONE',  ( -0.000000000000000000, -1.000000000000000000, -0.000000000000000000 ) ) ;
#164 = EDGE_LOOP ( 'NONE', ( #597, #476, #150, #68 ) ) ;
#165 = AXIS2_PLACEMENT_3D ( 'NONE', #344, #452, #185 ) ;
#166 = CARTESIAN_POINT ( 'NONE',  ( 102.0000000000000284, 42.00000000000001421, -1.999999999999995781 ) ) ;
#167 = ORIENTED_EDGE ( 'NONE', *, *, #206, .F. ) ;
#168 = VECTOR ( 'NONE', #698, 1000.000000000000000 ) ;
#169 = PRODUCT_DEFINITION_CONTEXT ( 'detailed design', #533, 'design' ) ;
#170 = EDGE_CURVE ( 'NONE', #301, #472, #633, .T. ) ;
#171 = CARTESIAN_POINT ( 'NONE',  ( 105.0000000000000284, 42.00000000000001421, -1.999999999999995781 ) ) ;
#172 = ORIENTED_EDGE ( 'NONE', *, *, #247, .T. ) ;
#173 = DIRECTION ( 'NONE',  ( -1.000000000000000000, 0.000000000000000000, 0.000000000000000000 ) ) ;
#174 = VERTEX_POINT ( 'NONE', #129 ) ;
#175 = VECTOR ( 'NONE', #299, 1000.000000000000000 ) ;
#176 = DIRECTION ( 'NONE',  ( 0.000000000000000000, 0.000000000000000000, -1.000000000000000000 ) ) ;
#177 = CIRCLE ( 'NONE', #611, 1.500000000000001332 ) ;
#178 = CARTESIAN_POINT ( 'NONE',  ( 105.0000000000000284, 48.00000000000000000, 3.000000000000000000 ) ) ;
#179 = DIRECTION ( 'NONE',  ( 0.000000000000000000, 1.000000000000000000, 0.000000000000000000 ) ) ;
#180 = CARTESIAN_POINT ( 'NONE',  ( 105.0000000000000142, 48.00000000000000000, -77.00000000000001421 ) ) ;
#181 = ADVANCED_FACE ( 'NONE', ( #459 ), #296, .F. ) ;
#182 = ORIENTED_EDGE ( 'NONE', *, *, #238, .F. ) ;
#183 = ORIENTED_EDGE ( 'NONE', *, *, #10, .T. ) ;
#184 = CYLINDRICAL_SURFACE ( 'NONE', #679, 1.375000000000001332 ) ;
#185 = DIRECTION ( 'NONE',  ( -1.000000000000000000, 0.000000000000000000, -0.000000000000000000 ) ) ;
#186 = DIRECTION ( 'NONE',  ( 0.000000000000000000, 0.000000000000000000, -1.000000000000000000 ) ) ;
#187 = AXIS2_PLACEMENT_3D ( 'NONE', #612, #173, #231 ) ;
#188 = ORIENTED_EDGE ( 'NONE', *, *, #361, .T. ) ;
#189 = DIRECTION ( 'NONE',  ( 0.000000000000000000, 1.000000000000000000, 0.000000000000000000 ) ) ;
#190 = CIRCLE ( 'NONE', #202, 1.375000000000004663 ) ;
#191 = ADVANCED_FACE ( 'NONE', ( #192, #353, #569 ), #82, .F. ) ;
#192 = FACE_BOUND ( 'NONE', #523, .T. ) ;
#193 = EDGE_LOOP ( 'NONE', ( #492, #275, #665, #41 ) ) ;
#194 = DIRECTION ( 'NONE',  ( 1.000000000000000000, 0.000000000000000000, -1.261617073437677752E-16 ) ) ;
#195 = CARTESIAN_POINT ( 'NONE',  ( 102.0000000000000142, 48.00000000000000000, -77.00000000000000000 ) ) ;
#196 = VERTEX_POINT ( 'NONE', #46 ) ;
#197 = LINE ( 'NONE', #141, #458 ) ;
#198 = FACE_BOUND ( 'NONE', #392, .T. ) ;
#199 = ORIENTED_EDGE ( 'NONE', *, *, #557, .T. ) ;
#200 = MECHANICAL_DESIGN_GEOMETRIC_PRESENTATION_REPRESENTATION (  '', ( #447 ), #136 ) ;
#201 = CARTESIAN_POINT ( 'NONE',  ( 105.0000000000000142, 3.000000000000000000, -77.00000000000001421 ) ) ;
#202 = AXIS2_PLACEMENT_3D ( 'NONE', #307, #90, #522 ) ;
#203 = CARTESIAN_POINT ( 'NONE',  ( -4.999999999999990230, 3.000000000000000000, 3.000000000000000000 ) ) ;
#204 = ORIENTED_EDGE ( 'NONE', *, *, #380, .T. ) ;
#205 = SURFACE_STYLE_FILL_AREA ( #48 ) ;
#206 = EDGE_CURVE ( 'NONE', #272, #331, #220, .T. ) ;
#207 = DIRECTION ( 'NONE',  ( 0.000000000000000000, 0.000000000000000000, 1.000000000000000000 ) ) ;
#208 = ORIENTED_EDGE ( 'NONE', *, *, #636, .T. ) ;
#209 = DIRECTION ( 'NONE',  ( 0.000000000000000000, 0.000000000000000000, -1.000000000000000000 ) ) ;
#210 = CARTESIAN_POINT ( 'NONE',  ( 105.0000000000000142, 3.000000000000000000, 3.000000000000000000 ) ) ;
#211 = ORIENTED_EDGE ( 'NONE', *, *, #294, .T. ) ;
#212 = VECTOR ( 'NONE', #653, 1000.000000000000000 ) ;
#213 = VECTOR ( 'NONE', #16, 1000.000000000000000 ) ;
#214 = DIRECTION ( 'NONE',  ( 1.000000000000000000, 0.000000000000000000, -3.469446951953615175E-16 ) ) ;
#215 = EDGE_CURVE ( 'NONE', #291, #315, #324, .T. ) ;
#216 = ORIENTED_EDGE ( 'NONE', *, *, #636, .F. ) ;
#217 = CARTESIAN_POINT ( 'NONE',  ( 5.000000000000000000, 3.000000000000000000, -69.00000000000000000 ) ) ;
#218 = ORIENTED_EDGE ( 'NONE', *, *, #270, .T. ) ;
#219 = DIRECTION ( 'NONE',  ( -1.000000000000000000, -0.000000000000000000, -0.000000000000000000 ) ) ;
#220 = LINE ( 'NONE', #210, #52 ) ;
#221 = AXIS2_PLACEMENT_3D ( 'NONE', #659, #614, #393 ) ;
#222 = EDGE_LOOP ( 'NONE', ( #460, #218 ) ) ;
#223 = ADVANCED_FACE ( 'NONE', ( #50, #489, #265 ), #478, .F. ) ;
#224 = MECHANICAL_DESIGN_GEOMETRIC_PRESENTATION_REPRESENTATION (  '', ( #17 ), #234 ) ;
#225 = DIRECTION ( 'NONE',  ( 0.000000000000000000, 1.000000000000000000, 0.000000000000000000 ) ) ;
#226 = ORIENTED_EDGE ( 'NONE', *, *, #652, .T. ) ;
#227 = AXIS2_PLACEMENT_3D ( 'NONE', #78, #362, #346 ) ;
#228 = EDGE_CURVE ( 'NONE', #315, #385, #313, .T. ) ;
#229 = DIRECTION ( 'NONE',  ( -1.000000000000000000, -0.000000000000000000, -0.000000000000000000 ) ) ;
#230 = ORIENTED_EDGE ( 'NONE', *, *, #306, .F. ) ;
#231 = DIRECTION ( 'NONE',  ( 0.000000000000000000, 0.000000000000000000, 1.000000000000000000 ) ) ;
#232 = ORIENTED_EDGE ( 'NONE', *, *, #676, .T. ) ;
#233 = FACE_OUTER_BOUND ( 'NONE', #351, .T. ) ;
#234 =( GEOMETRIC_REPRESENTATION_CONTEXT ( 3 ) GLOBAL_UNCERTAINTY_ASSIGNED_CONTEXT ( ( #530 ) ) GLOBAL_UNIT_ASSIGNED_CONTEXT ( ( #477, #421, #594 ) ) REPRESENTATION_CONTEXT ( 'NONE', 'WORKASPACE' ) );
#235 = CARTESIAN_POINT ( 'NONE',  ( 105.0000000000000284, 42.00000000000001421, -1.999999999999995781 ) ) ;
#236 = AXIS2_PLACEMENT_3D ( 'NONE', #549, #439, #442 ) ;
#237 = ORIENTED_EDGE ( 'NONE', *, *, #262, .T. ) ;
#238 = EDGE_CURVE ( 'NONE', #329, #692, #98, .T. ) ;
#239 = APPLICATION_PROTOCOL_DEFINITION ( 'draft international standard', 'automotive_design', 1998, #533 ) ;
#240 = LINE ( 'NONE', #381, #644 ) ;
#241 = CLOSED_SHELL ( 'NONE', ( #64, #412, #31, #454, #55, #528, #595, #86, #506, #223, #615, #158, #328, #620, #94, #191, #548, #332, #181, #539 ) ) ;
#242 = CARTESIAN_POINT ( 'NONE',  ( 105.0000000000000142, 3.000000000000000000, -77.00000000000001421 ) ) ;
#243 = APPLICATION_CONTEXT ( 'automotive_design' ) ;
#244 = LINE ( 'NONE', #132, #591 ) ;
#245 = ORIENTED_EDGE ( 'NONE', *, *, #536, .F. ) ;
#246 = CARTESIAN_POINT ( 'NONE',  ( 5.000000000000006217, 0.000000000000000000, -11.00000000000000355 ) ) ;
#247 = EDGE_CURVE ( 'NONE', #605, #570, #497, .T. ) ;
#248 = AXIS2_PLACEMENT_3D ( 'NONE', #144, #131, #465 ) ;
#249 = DIRECTION ( 'NONE',  ( -1.000000000000000000, -0.000000000000000000, -0.000000000000000000 ) ) ;
#250 = AXIS2_PLACEMENT_3D ( 'NONE', #171, #671, #558 ) ;
#251 = ORIENTED_EDGE ( 'NONE', *, *, #652, .F. ) ;
#252 = FACE_OUTER_BOUND ( 'NONE', #284, .T. ) ;
#253 = AXIS2_PLACEMENT_3D ( 'NONE', #149, #214, #93 ) ;
#254 = LINE ( 'NONE', #203, #603 ) ;
#255 = ORIENTED_EDGE ( 'NONE', *, *, #42, .F. ) ;
#256 = FILL_AREA_STYLE_COLOUR ( '', #323 ) ;
#257 = PLANE ( 'NONE',  #264 ) ;
#258 = VERTEX_POINT ( 'NONE', #588 ) ;
#259 = DIRECTION ( 'NONE',  ( 0.000000000000000000, 0.000000000000000000, 1.000000000000000000 ) ) ;
#260 = CARTESIAN_POINT ( 'NONE',  ( 105.0000000000000284, 42.00000000000000711, -70.50000000000000000 ) ) ;
#261 = ORIENTED_EDGE ( 'NONE', *, *, #701, .F. ) ;
#262 = EDGE_CURVE ( 'NONE', #301, #266, #641, .T. ) ;
#263 = DIRECTION ( 'NONE',  ( 0.000000000000000000, 0.000000000000000000, -1.000000000000000000 ) ) ;
#264 = AXIS2_PLACEMENT_3D ( 'NONE', #402, #23, #87 ) ;
#265 = FACE_OUTER_BOUND ( 'NONE', #505, .T. ) ;
#266 = VERTEX_POINT ( 'NONE', #376 ) ;
#267 = LINE ( 'NONE', #700, #356 ) ;
#268 = LINE ( 'NONE', #43, #670 ) ;
#269 = ORIENTED_EDGE ( 'NONE', *, *, #436, .F. ) ;
#270 = EDGE_CURVE ( 'NONE', #266, #258, #338, .T. ) ;
#271 = CARTESIAN_POINT ( 'NONE',  ( 102.0000000000000142, 42.00000000000000711, -70.50000000000000000 ) ) ;
#272 = VERTEX_POINT ( 'NONE', #365 ) ;
#273 = VECTOR ( 'NONE', #8, 1000.000000000000000 ) ;
#274 = LINE ( 'NONE', #645, #450 ) ;
#275 = ORIENTED_EDGE ( 'NONE', *, *, #370, .T. ) ;
#276 = DIRECTION ( 'NONE',  ( 0.000000000000000000, 1.000000000000000000, 0.000000000000000000 ) ) ;
#277 = VERTEX_POINT ( 'NONE', #97 ) ;
#278 = DIRECTION ( 'NONE',  ( 0.000000000000000000, 0.000000000000000000, 1.000000000000000000 ) ) ;
#279 = DIRECTION ( 'NONE',  ( -0.000000000000000000, -1.000000000000000000, -0.000000000000000000 ) ) ;
#280 = EDGE_CURVE ( 'NONE', #101, #443, #274, .T. ) ;
#281 = AXIS2_PLACEMENT_3D ( 'NONE', #473, #77, #630 ) ;
#282 = AXIS2_PLACEMENT_3D ( 'NONE', #386, #285, #609 ) ;
#283 = LINE ( 'NONE', #288, #514 ) ;
#284 = EDGE_LOOP ( 'NONE', ( #143, #487, #403, #199 ) ) ;
#285 = DIRECTION ( 'NONE',  ( -0.000000000000000000, -1.000000000000000000, -0.000000000000000000 ) ) ;
#286 = VERTEX_POINT ( 'NONE', #368 ) ;
#287 = EDGE_CURVE ( 'NONE', #626, #385, #268, .T. ) ;
#288 = CARTESIAN_POINT ( 'NONE',  ( 102.0000000000000142, 48.00000000000000000, -77.00000000000000000 ) ) ;
#289 = VERTEX_POINT ( 'NONE', #271 ) ;
#290 = CARTESIAN_POINT ( 'NONE',  ( 91.00000000000002842, 3.000000000000000000, -12.37500000000000711 ) ) ;
#291 = VERTEX_POINT ( 'NONE', #103 ) ;
#292 = AXIS2_PLACEMENT_3D ( 'NONE', #406, #564, #410 ) ;
#293 = LINE ( 'NONE', #625, #696 ) ;
#294 = EDGE_CURVE ( 'NONE', #501, #593, #426, .T. ) ;
#295 = CARTESIAN_POINT ( 'NONE',  ( 91.00000000000002842, 3.000000000000000000, -11.00000000000000355 ) ) ;
#296 = CYLINDRICAL_SURFACE ( 'NONE', #621, 1.500000000000001332 ) ;
#297 = ORIENTED_EDGE ( 'NONE', *, *, #495, .T. ) ;
#298 = EDGE_CURVE ( 'NONE', #464, #319, #437, .T. ) ;
#299 = DIRECTION ( 'NONE',  ( -1.000000000000000000, -0.000000000000000000, -0.000000000000000000 ) ) ;
#300 = FACE_OUTER_BOUND ( 'NONE', #88, .T. ) ;
#301 = VERTEX_POINT ( 'NONE', #485 ) ;
#302 = FACE_BOUND ( 'NONE', #9, .T. ) ;
#303 = CARTESIAN_POINT ( 'NONE',  ( 91.00000000000002842, 3.000000000000000000, -11.00000000000000355 ) ) ;
#304 = ORIENTED_EDGE ( 'NONE', *, *, #401, .T. ) ;
#305 = FACE_BOUND ( 'NONE', #347, .T. ) ;
#306 = EDGE_CURVE ( 'NONE', #464, #331, #584, .T. ) ;
#307 = CARTESIAN_POINT ( 'NONE',  ( 91.00000000000002842, 0.000000000000000000, -11.00000000000000355 ) ) ;
#308 = ORIENTED_EDGE ( 'NONE', *, *, #388, .F. ) ;
#309 = CARTESIAN_POINT ( 'NONE',  ( 91.00000000000002842, 0.000000000000000000, -9.624999999999998224 ) ) ;
#310 = DIRECTION ( 'NONE',  ( 0.000000000000000000, 1.000000000000000000, 0.000000000000000000 ) ) ;
#311 = ORIENTED_EDGE ( 'NONE', *, *, #583, .T. ) ;
#312 = VECTOR ( 'NONE', #209, 1000.000000000000000 ) ;
#313 = CIRCLE ( 'NONE', #7, 1.375000000000001332 ) ;
#314 = CARTESIAN_POINT ( 'NONE',  ( 91.00000000000002842, 3.000000000000000000, -9.624999999999998224 ) ) ;
#315 = VERTEX_POINT ( 'NONE', #318 ) ;
#316 = LINE ( 'NONE', #147, #139 ) ;
#317 = EDGE_CURVE ( 'NONE', #101, #104, #159, .T. ) ;
#318 = CARTESIAN_POINT ( 'NONE',  ( 5.000000000000000000, 0.000000000000000000, -70.37500000000000000 ) ) ;
#319 = VERTEX_POINT ( 'NONE', #431 ) ;
#320 = DIRECTION ( 'NONE',  ( -0.000000000000000000, -1.000000000000000000, -0.000000000000000000 ) ) ;
#321 = ORIENTED_EDGE ( 'NONE', *, *, #125, .F. ) ;
#322 = SURFACE_STYLE_USAGE ( .BOTH. , #326 ) ;
#323 = COLOUR_RGB ( '',0.8941176470588234615, 0.8941176470588234615, 0.8941176470588234615 ) ;
#324 = LINE ( 'NONE', #526, #168 ) ;
#325 = ORIENTED_EDGE ( 'NONE', *, *, #215, .T. ) ;
#326 = SURFACE_SIDE_STYLE ('',( #598 ) ) ;
#327 = CARTESIAN_POINT ( 'NONE',  ( 105.0000000000000142, 0.000000000000000000, 3.000000000000000000 ) ) ;
#328 = ADVANCED_FACE ( 'NONE', ( #707 ), #709, .F. ) ;
#329 = VERTEX_POINT ( 'NONE', #600 ) ;
#330 = DIRECTION ( 'NONE',  ( 1.000000000000000000, 0.000000000000000000, -3.469446951953615175E-16 ) ) ;
#331 = VERTEX_POINT ( 'NONE', #327 ) ;
#332 = ADVANCED_FACE ( 'NONE', ( #336 ), #110, .F. ) ;
#333 = APPLICATION_PROTOCOL_DEFINITION ( 'draft international standard', 'automotive_design', 1998, #243 ) ;
#334 = PRESENTATION_LAYER_ASSIGNMENT (  '', '', ( #17 ) ) ;
#335 = VECTOR ( 'NONE', #552, 1000.000000000000000 ) ;
#336 = FACE_OUTER_BOUND ( 'NONE', #642, .T. ) ;
#337 = ORIENTED_EDGE ( 'NONE', *, *, #10, .F. ) ;
#338 = CIRCLE ( 'NONE', #517, 1.375000000000001332 ) ;
#339 = EDGE_CURVE ( 'NONE', #104, #411, #117, .T. ) ;
#340 = DIRECTION ( 'NONE',  ( 1.000000000000000000, 0.000000000000000000, -3.469446951953615175E-16 ) ) ;
#341 = DIRECTION ( 'NONE',  ( -0.000000000000000000, -1.000000000000000000, -0.000000000000000000 ) ) ;
#342 = DIRECTION ( 'NONE',  ( 0.000000000000000000, 0.000000000000000000, 1.000000000000000000 ) ) ;
#343 = EDGE_LOOP ( 'NONE', ( #456, #204, #325, #245 ) ) ;
#344 = CARTESIAN_POINT ( 'NONE',  ( -4.999999999999990230, 3.000000000000000000, 3.000000000000000000 ) ) ;
#345 = EDGE_CURVE ( 'NONE', #104, #277, #283, .T. ) ;
#346 = DIRECTION ( 'NONE',  ( 0.000000000000000000, 0.000000000000000000, 1.000000000000000000 ) ) ;
#347 = EDGE_LOOP ( 'NONE', ( #308, #182 ) ) ;
#348 = AXIS2_PLACEMENT_3D ( 'NONE', #28, #21, #687 ) ;
#349 = CARTESIAN_POINT ( 'NONE',  ( -1.999999999999990452, 0.000000000000000000, 3.000000000000000000 ) ) ;
#350 = FACE_BOUND ( 'NONE', #222, .T. ) ;
#351 = EDGE_LOOP ( 'NONE', ( #623, #208, #321, #703 ) ) ;
#352 = FACE_BOUND ( 'NONE', #674, .T. ) ;
#353 = FACE_BOUND ( 'NONE', #453, .T. ) ;
#354 = ORIENTED_EDGE ( 'NONE', *, *, #280, .F. ) ;
#355 = LINE ( 'NONE', #689, #525 ) ;
#356 = VECTOR ( 'NONE', #219, 1000.000000000000000 ) ;
#357 = FACE_BOUND ( 'NONE', #420, .T. ) ;
#358 = CIRCLE ( 'NONE', #574, 1.375000000000004663 ) ;
#359 = ORIENTED_EDGE ( 'NONE', *, *, #486, .T. ) ;
#360 = CARTESIAN_POINT ( 'NONE',  ( 102.0000000000000284, 42.00000000000001421, -0.4999999999999930611 ) ) ;
#361 = EDGE_CURVE ( 'NONE', #289, #479, #177, .T. ) ;
#362 = DIRECTION ( 'NONE',  ( 0.000000000000000000, 1.000000000000000000, 0.000000000000000000 ) ) ;
#363 = ORIENTED_EDGE ( 'NONE', *, *, #345, .F. ) ;
#364 = DIRECTION ( 'NONE',  ( 0.000000000000000000, 1.000000000000000000, 0.000000000000000000 ) ) ;
#365 = CARTESIAN_POINT ( 'NONE',  ( 105.0000000000000284, 48.00000000000000000, 3.000000000000000000 ) ) ;
#366 = EDGE_LOOP ( 'NONE', ( #685, #69, #585, #167, #708, #183 ) ) ;
#367 = CARTESIAN_POINT ( 'NONE',  ( 105.0000000000000284, 42.00000000000000711, -73.50000000000001421 ) ) ;
#368 = CARTESIAN_POINT ( 'NONE',  ( -1.999999999999990452, 3.000000000000002665, 3.000000000000000000 ) ) ;
#369 = CIRCLE ( 'NONE', #668, 1.375000000000004663 ) ;
#370 = EDGE_CURVE ( 'NONE', #501, #387, #358, .T. ) ;
#371 = ORIENTED_EDGE ( 'NONE', *, *, #673, .T. ) ;
#372 = CIRCLE ( 'NONE', #140, 1.500000000000001332 ) ;
#373 = LINE ( 'NONE', #157, #152 ) ;
#374 = CARTESIAN_POINT ( 'NONE',  ( 5.000000000000006217, 3.000000000000000000, -11.00000000000000355 ) ) ;
#375 = VERTEX_POINT ( 'NONE', #5 ) ;
#376 = CARTESIAN_POINT ( 'NONE',  ( 91.00000000000001421, 0.000000000000000000, -67.62499999999998579 ) ) ;
#377 = ORIENTED_EDGE ( 'NONE', *, *, #422, .T. ) ;
#378 = DIRECTION ( 'NONE',  ( 0.000000000000000000, 0.000000000000000000, -1.000000000000000000 ) ) ;
#379 = VERTEX_POINT ( 'NONE', #546 ) ;
#380 = EDGE_CURVE ( 'NONE', #626, #291, #448, .T. ) ;
#381 = CARTESIAN_POINT ( 'NONE',  ( 5.000000000000006217, 3.000000000000000000, -12.37500000000000178 ) ) ;
#382 = ORIENTED_EDGE ( 'NONE', *, *, #270, .F. ) ;
#383 = PRODUCT_CONTEXT ( 'NONE', #243, 'mechanical' ) ;
#384 = DIRECTION ( 'NONE',  ( 0.000000000000000000, 0.000000000000000000, -1.000000000000000000 ) ) ;
#385 = VERTEX_POINT ( 'NONE', #555 ) ;
#386 = CARTESIAN_POINT ( 'NONE',  ( 91.00000000000001421, 3.000000000000000000, -68.99999999999998579 ) ) ;
#387 = VERTEX_POINT ( 'NONE', #290 ) ;
#388 = EDGE_CURVE ( 'NONE', #692, #329, #84, .T. ) ;
#389 = AXIS2_PLACEMENT_3D ( 'NONE', #81, #14, #499 ) ;
#390 = VECTOR ( 'NONE', #126, 1000.000000000000000 ) ;
#391 = DIRECTION ( 'NONE',  ( 0.000000000000000000, 0.000000000000000000, 1.000000000000000000 ) ) ;
#392 = EDGE_LOOP ( 'NONE', ( #424, #520 ) ) ;
#393 = DIRECTION ( 'NONE',  ( 1.000000000000000000, 0.000000000000000000, 0.000000000000000000 ) ) ;
#394 = CARTESIAN_POINT ( 'NONE',  ( 105.0000000000000284, 42.00000000000001421, -1.999999999999995781 ) ) ;
#395 = EDGE_CURVE ( 'NONE', #570, #605, #680, .T. ) ;
#396 = FACE_OUTER_BOUND ( 'NONE', #544, .T. ) ;
#397 = LINE ( 'NONE', #242, #706 ) ;
#398 = DIRECTION ( 'NONE',  ( -0.000000000000000000, -1.000000000000000000, -0.000000000000000000 ) ) ;
#399 = AXIS2_PLACEMENT_3D ( 'NONE', #682, #189, #405 ) ;
#400 = AXIS2_PLACEMENT_3D ( 'NONE', #664, #179, #278 ) ;
#401 = EDGE_CURVE ( 'NONE', #99, #688, #372, .T. ) ;
#402 = CARTESIAN_POINT ( 'NONE',  ( 0.000000000000000000, 0.000000000000000000, 0.000000000000000000 ) ) ;
#403 = ORIENTED_EDGE ( 'NONE', *, *, #298, .F. ) ;
#404 = CIRCLE ( 'NONE', #292, 1.374999999999999556 ) ;
#405 = DIRECTION ( 'NONE',  ( 0.000000000000000000, -0.000000000000000000, 1.000000000000000000 ) ) ;
#406 = CARTESIAN_POINT ( 'NONE',  ( 5.000000000000006217, 0.000000000000000000, -11.00000000000000355 ) ) ;
#407 = ORIENTED_EDGE ( 'NONE', *, *, #345, .T. ) ;
#408 = CARTESIAN_POINT ( 'NONE',  ( 91.00000000000002842, 0.000000000000000000, -12.37500000000000711 ) ) ;
#409 = LINE ( 'NONE', #466, #390 ) ;
#410 = DIRECTION ( 'NONE',  ( 0.000000000000000000, 0.000000000000000000, 1.000000000000000000 ) ) ;
#411 = VERTEX_POINT ( 'NONE', #112 ) ;
#412 = ADVANCED_FACE ( 'NONE', ( #616 ), #61, .F. ) ;
#413 = DIRECTION ( 'NONE',  ( 0.000000000000000000, -1.000000000000000000, 0.000000000000000000 ) ) ;
#414 = PRESENTATION_LAYER_ASSIGNMENT (  '', '', ( #447 ) ) ;
#415 = DIRECTION ( 'NONE',  ( 1.000000000000000000, 0.000000000000000000, 0.000000000000000000 ) ) ;
#416 = EDGE_LOOP ( 'NONE', ( #537, #556 ) ) ;
#417 = DIRECTION ( 'NONE',  ( 1.000000000000000000, 0.000000000000000000, 0.000000000000000000 ) ) ;
#418 = AXIS2_PLACEMENT_3D ( 'NONE', #59, #279, #186 ) ;
#419 = DIRECTION ( 'NONE',  ( -1.000000000000000000, -0.000000000000000000, -0.000000000000000000 ) ) ;
#420 = EDGE_LOOP ( 'NONE', ( #146, #311 ) ) ;
#421 =( NAMED_UNIT ( * ) PLANE_ANGLE_UNIT ( ) SI_UNIT ( $, .RADIAN. ) );
#422 = EDGE_CURVE ( 'NONE', #688, #99, #494, .T. ) ;
#423 = DIRECTION ( 'NONE',  ( 0.000000000000000000, 1.000000000000000000, 0.000000000000000000 ) ) ;
#424 = ORIENTED_EDGE ( 'NONE', *, *, #228, .T. ) ;
#425 =( LENGTH_UNIT ( ) NAMED_UNIT ( * ) SI_UNIT ( .MILLI., .METRE. ) );
#426 = LINE ( 'NONE', #314, #118 ) ;
#427 = ORIENTED_EDGE ( 'NONE', *, *, #436, .T. ) ;
#428 = AXIS2_PLACEMENT_3D ( 'NONE', #217, #163, #378 ) ;
#429 = VECTOR ( 'NONE', #446, 1000.000000000000000 ) ;
#430 = CARTESIAN_POINT ( 'NONE',  ( 105.0000000000000142, 0.000000000000000000, 3.000000000000000000 ) ) ;
#431 = CARTESIAN_POINT ( 'NONE',  ( -1.999999999999990452, 0.000000000000000000, -77.00000000000000000 ) ) ;
#432 = EDGE_LOOP ( 'NONE', ( #468, #119, #532, #363, #79, #589 ) ) ;
#433 = DIRECTION ( 'NONE',  ( 0.000000000000000000, 0.000000000000000000, 1.000000000000000000 ) ) ;
#434 = ORIENTED_EDGE ( 'NONE', *, *, #566, .F. ) ;
#435 = CARTESIAN_POINT ( 'NONE',  ( 91.00000000000001421, 3.000000000000000000, -70.37500000000000000 ) ) ;
#436 = EDGE_CURVE ( 'NONE', #479, #289, #153, .T. ) ;
#437 = LINE ( 'NONE', #54, #484 ) ;
#438 = ORIENTED_EDGE ( 'NONE', *, *, #148, .F. ) ;
#439 = DIRECTION ( 'NONE',  ( 0.000000000000000000, 1.000000000000000000, 0.000000000000000000 ) ) ;
#440 = ORIENTED_EDGE ( 'NONE', *, *, #339, .F. ) ;
#441 = EDGE_CURVE ( 'NONE', #443, #319, #606, .T. ) ;
#442 = DIRECTION ( 'NONE',  ( 0.000000000000000000, 0.000000000000000000, 1.000000000000000000 ) ) ;
#443 = VERTEX_POINT ( 'NONE', #15 ) ;
#444 =( NAMED_UNIT ( * ) PLANE_ANGLE_UNIT ( ) SI_UNIT ( $, .RADIAN. ) );
#445 = DIRECTION ( 'NONE',  ( 0.000000000000000000, 0.000000000000000000, 1.000000000000000000 ) ) ;
#446 = DIRECTION ( 'NONE',  ( -0.000000000000000000, -1.000000000000000000, -0.000000000000000000 ) ) ;
#447 = STYLED_ITEM ( 'NONE', ( #488 ), #711 ) ;
#448 = CIRCLE ( 'NONE', #400, 1.375000000000001332 ) ;
#449 = DIRECTION ( 'NONE',  ( 0.000000000000000000, 0.000000000000000000, -1.000000000000000000 ) ) ;
#450 = VECTOR ( 'NONE', #531, 1000.000000000000000 ) ;
#451 = LINE ( 'NONE', #618, #429 ) ;
#452 = DIRECTION ( 'NONE',  ( 0.000000000000000000, 0.000000000000000000, -1.000000000000000000 ) ) ;
#453 = EDGE_LOOP ( 'NONE', ( #516, #172 ) ) ;
#454 = ADVANCED_FACE ( 'NONE', ( #502 ), #65, .F. ) ;
#455 = CYLINDRICAL_SURFACE ( 'NONE', #660, 1.374999999999999556 ) ;
#456 = ORIENTED_EDGE ( 'NONE', *, *, #287, .F. ) ;
#457 = FACE_OUTER_BOUND ( 'NONE', #113, .T. ) ;
#458 = VECTOR ( 'NONE', #627, 1000.000000000000000 ) ;
#459 = FACE_OUTER_BOUND ( 'NONE', #44, .T. ) ;
#460 = ORIENTED_EDGE ( 'NONE', *, *, #134, .T. ) ;
#461 = DIRECTION ( 'NONE',  ( 0.000000000000000000, 1.000000000000000000, 0.000000000000000000 ) ) ;
#462 = EDGE_CURVE ( 'NONE', #550, #375, #62, .T. ) ;
#463 = DIRECTION ( 'NONE',  ( -0.000000000000000000, -1.000000000000000000, -0.000000000000000000 ) ) ;
#464 = VERTEX_POINT ( 'NONE', #123 ) ;
#465 = DIRECTION ( 'NONE',  ( 0.000000000000000000, 0.000000000000000000, 1.000000000000000000 ) ) ;
#466 = CARTESIAN_POINT ( 'NONE',  ( 105.0000000000000284, 42.00000000000001421, -0.4999999999999930611 ) ) ;
#467 = CYLINDRICAL_SURFACE ( 'NONE', #74, 1.500000000000001332 ) ;
#468 = ORIENTED_EDGE ( 'NONE', *, *, #441, .T. ) ;
#469 = PLANE ( 'NONE',  #399 ) ;
#470 = VECTOR ( 'NONE', #547, 1000.000000000000000 ) ;
#471 = CARTESIAN_POINT ( 'NONE',  ( 102.0000000000000142, 48.00000000000000000, -77.00000000000000000 ) ) ;
#472 = VERTEX_POINT ( 'NONE', #504 ) ;
#473 = CARTESIAN_POINT ( 'NONE',  ( 5.000000000000006217, 3.000000000000000000, -11.00000000000000355 ) ) ;
#474 = AXIS2_PLACEMENT_3D ( 'NONE', #32, #637, #695 ) ;
#475 = DIRECTION ( 'NONE',  ( -1.000000000000000000, 0.000000000000000000, 0.000000000000000000 ) ) ;
#476 = ORIENTED_EDGE ( 'NONE', *, *, #317, .T. ) ;
#477 =( LENGTH_UNIT ( ) NAMED_UNIT ( * ) SI_UNIT ( .MILLI., .METRE. ) );
#478 = PLANE ( 'NONE',  #553 ) ;
#479 = VERTEX_POINT ( 'NONE', #19 ) ;
#480 = DIRECTION ( 'NONE',  ( -1.000000000000000000, -0.000000000000000000, -0.000000000000000000 ) ) ;
#481 = DIRECTION ( 'NONE',  ( -1.000000000000000000, 0.000000000000000000, 4.625929269271481378E-15 ) ) ;
#482 = AXIS2_PLACEMENT_3D ( 'NONE', #85, #413, #578 ) ;
#483 = EDGE_LOOP ( 'NONE', ( #580, #678, #559, #37 ) ) ;
#484 = VECTOR ( 'NONE', #100, 1000.000000000000000 ) ;
#485 = CARTESIAN_POINT ( 'NONE',  ( 91.00000000000001421, 3.000000000000000000, -67.62499999999998579 ) ) ;
#486 = EDGE_CURVE ( 'NONE', #692, #196, #240, .T. ) ;
#487 = ORIENTED_EDGE ( 'NONE', *, *, #162, .F. ) ;
#488 = PRESENTATION_STYLE_ASSIGNMENT (( #322 ) ) ;
#489 = FACE_BOUND ( 'NONE', #565, .T. ) ;
#490 = ORIENTED_EDGE ( 'NONE', *, *, #114, .T. ) ;
#491 = CARTESIAN_POINT ( 'NONE',  ( 102.0000000000000142, 42.00000000000000711, -72.00000000000001421 ) ) ;
#492 = ORIENTED_EDGE ( 'NONE', *, *, #294, .F. ) ;
#493 = AXIS2_PLACEMENT_3D ( 'NONE', #349, #417, #22 ) ;
#494 = CIRCLE ( 'NONE', #187, 1.500000000000001332 ) ;
#495 = EDGE_CURVE ( 'NONE', #375, #570, #409, .T. ) ;
#496 = CARTESIAN_POINT ( 'NONE',  ( 105.0000000000000142, 0.000000000000000000, -77.00000000000001421 ) ) ;
#497 = CIRCLE ( 'NONE', #253, 1.500000000000002665 ) ;
#498 = ORIENTED_EDGE ( 'NONE', *, *, #76, .T. ) ;
#499 = DIRECTION ( 'NONE',  ( 0.000000000000000000, 0.000000000000000000, 1.000000000000000000 ) ) ;
#500 = DIRECTION ( 'NONE',  ( -1.000000000000000000, 0.000000000000000000, 0.000000000000000000 ) ) ;
#501 = VERTEX_POINT ( 'NONE', #575 ) ;
#502 = FACE_OUTER_BOUND ( 'NONE', #29, .T. ) ;
#503 = CARTESIAN_POINT ( 'NONE',  ( 91.00000000000002842, 3.000000000000000000, -11.00000000000000355 ) ) ;
#504 = CARTESIAN_POINT ( 'NONE',  ( 91.00000000000001421, 3.000000000000000000, -70.37500000000000000 ) ) ;
#505 = EDGE_LOOP ( 'NONE', ( #371, #354, #255, #638 ) ) ;
#506 = ADVANCED_FACE ( 'NONE', ( #568 ), #690, .F. ) ;
#507 = DIRECTION ( 'NONE',  ( -0.000000000000000000, 1.000000000000000000, -0.000000000000000000 ) ) ;
#508 = PLANE ( 'NONE',  #482 ) ;
#509 = CARTESIAN_POINT ( 'NONE',  ( 105.0000000000000284, 42.00000000000000711, -72.00000000000001421 ) ) ;
#510 = ORIENTED_EDGE ( 'NONE', *, *, #228, .F. ) ;
#511 = DIRECTION ( 'NONE',  ( 0.000000000000000000, 0.000000000000000000, 1.000000000000000000 ) ) ;
#512 = COLOUR_RGB ( '',0.8941176470588234615, 0.8941176470588234615, 0.8941176470588234615 ) ;
#513 = EDGE_CURVE ( 'NONE', #291, #626, #4, .T. ) ;
#514 = VECTOR ( 'NONE', #58, 1000.000000000000000 ) ;
#515 = CARTESIAN_POINT ( 'NONE',  ( 105.0000000000000142, 48.00000000000000000, -77.00000000000001421 ) ) ;
#516 = ORIENTED_EDGE ( 'NONE', *, *, #395, .T. ) ;
#517 = AXIS2_PLACEMENT_3D ( 'NONE', #596, #310, #543 ) ;
#518 = LINE ( 'NONE', #619, #175 ) ;
#519 = CARTESIAN_POINT ( 'NONE',  ( 105.0000000000000284, 42.00000000000000711, -72.00000000000001421 ) ) ;
#520 = ORIENTED_EDGE ( 'NONE', *, *, #536, .T. ) ;
#521 = CARTESIAN_POINT ( 'NONE',  ( 102.0000000000000284, 42.00000000000001421, -3.499999999999998224 ) ) ;
#522 = DIRECTION ( 'NONE',  ( 0.000000000000000000, 0.000000000000000000, 1.000000000000000000 ) ) ;
#523 = EDGE_LOOP ( 'NONE', ( #188, #427 ) ) ;
#524 = DIRECTION ( 'NONE',  ( 1.261617073437677752E-16, -0.000000000000000000, 1.000000000000000000 ) ) ;
#525 = VECTOR ( 'NONE', #398, 1000.000000000000000 ) ;
#526 = CARTESIAN_POINT ( 'NONE',  ( 5.000000000000000000, 3.000000000000000000, -70.37500000000000000 ) ) ;
#527 = ORIENTED_EDGE ( 'NONE', *, *, #607, .T. ) ;
#528 = ADVANCED_FACE ( 'NONE', ( #233 ), #70, .F. ) ;
#529 = AXIS2_PLACEMENT_3D ( 'NONE', #303, #677, #142 ) ;
#530 = UNCERTAINTY_MEASURE_WITH_UNIT (LENGTH_MEASURE( 1.000000000000000082E-05 ), #477, 'distance_accuracy_value', 'NONE');
#531 = DIRECTION ( 'NONE',  ( -0.000000000000000000, -1.000000000000000000, -0.000000000000000000 ) ) ;
#532 = ORIENTED_EDGE ( 'NONE', *, *, #3, .F. ) ;
#533 = APPLICATION_CONTEXT ( 'automotive_design' ) ;
#534 = DIRECTION ( 'NONE',  ( 0.000000000000000000, 0.000000000000000000, -1.000000000000000000 ) ) ;
#535 = CARTESIAN_POINT ( 'NONE',  ( 105.0000000000000142, 48.00000000000000000, -77.00000000000001421 ) ) ;
#536 = EDGE_CURVE ( 'NONE', #385, #315, #601, .T. ) ;
#537 = ORIENTED_EDGE ( 'NONE', *, *, #513, .F. ) ;
#538 = PRESENTATION_STYLE_ASSIGNMENT (( #53 ) ) ;
#539 = ADVANCED_FACE ( 'NONE', ( #252 ), #635, .F. ) ;
#540 = CARTESIAN_POINT ( 'NONE',  ( -4.999999999999990230, 0.000000000000000000, 3.000000000000000000 ) ) ;
#541 = ORIENTED_EDGE ( 'NONE', *, *, #395, .F. ) ;
#542 = AXIS2_PLACEMENT_3D ( 'NONE', #394, #229, #342 ) ;
#543 = DIRECTION ( 'NONE',  ( 0.000000000000000000, 0.000000000000000000, 1.000000000000000000 ) ) ;
#544 = EDGE_LOOP ( 'NONE', ( #675, #602, #510, #608 ) ) ;
#545 = DIRECTION ( 'NONE',  ( -0.000000000000000000, -1.000000000000000000, -0.000000000000000000 ) ) ;
#546 = CARTESIAN_POINT ( 'NONE',  ( 5.000000000000006217, 0.000000000000000000, -9.625000000000003553 ) ) ;
#547 = DIRECTION ( 'NONE',  ( -1.734723475976806848E-16, -0.000000000000000000, -1.000000000000000000 ) ) ;
#548 = ADVANCED_FACE ( 'NONE', ( #563 ), #508, .F. ) ;
#549 = CARTESIAN_POINT ( 'NONE',  ( 5.000000000000006217, 3.000000000000000000, -11.00000000000000355 ) ) ;
#550 = VERTEX_POINT ( 'NONE', #92 ) ;
#551 = AXIS2_PLACEMENT_3D ( 'NONE', #235, #500, #11 ) ;
#552 = DIRECTION ( 'NONE',  ( 3.469446951953614189E-16, 0.000000000000000000, 1.000000000000000000 ) ) ;
#553 = AXIS2_PLACEMENT_3D ( 'NONE', #1, #475, #145 ) ;
#554 = VERTEX_POINT ( 'NONE', #408 ) ;
#555 = CARTESIAN_POINT ( 'NONE',  ( 5.000000000000000000, 0.000000000000000000, -67.62500000000000000 ) ) ;
#556 = ORIENTED_EDGE ( 'NONE', *, *, #380, .F. ) ;
#557 = EDGE_CURVE ( 'NONE', #464, #286, #197, .T. ) ;
#558 = DIRECTION ( 'NONE',  ( 0.000000000000000000, 0.000000000000000000, 1.000000000000000000 ) ) ;
#559 = ORIENTED_EDGE ( 'NONE', *, *, #361, .F. ) ;
#560 = CIRCLE ( 'NONE', #705, 1.374999999999999556 ) ;
#561 = DIRECTION ( 'NONE',  ( -0.000000000000000000, -1.000000000000000000, -0.000000000000000000 ) ) ;
#562 = EDGE_LOOP ( 'NONE', ( #663, #498 ) ) ;
#563 = FACE_OUTER_BOUND ( 'NONE', #164, .T. ) ;
#564 = DIRECTION ( 'NONE',  ( 0.000000000000000000, 1.000000000000000000, 0.000000000000000000 ) ) ;
#565 = EDGE_LOOP ( 'NONE', ( #226, #647 ) ) ;
#566 = EDGE_CURVE ( 'NONE', #387, #501, #369, .T. ) ;
#567 = DIRECTION ( 'NONE',  ( -0.000000000000000000, -1.000000000000000000, -0.000000000000000000 ) ) ;
#568 = FACE_OUTER_BOUND ( 'NONE', #366, .T. ) ;
#569 = FACE_OUTER_BOUND ( 'NONE', #91, .T. ) ;
#570 = VERTEX_POINT ( 'NONE', #360 ) ;
#571 = PRODUCT_RELATED_PRODUCT_CATEGORY ( 'part', '', ( #40 ) ) ;
#572 = FACE_OUTER_BOUND ( 'NONE', #432, .T. ) ;
#573 = AXIS2_PLACEMENT_3D ( 'NONE', #128, #30, #511 ) ;
#574 = AXIS2_PLACEMENT_3D ( 'NONE', #71, #225, #445 ) ;
#575 = CARTESIAN_POINT ( 'NONE',  ( 91.00000000000002842, 3.000000000000000000, -9.624999999999998224 ) ) ;
#576 = FACE_BOUND ( 'NONE', #562, .T. ) ;
#577 = ORIENTED_EDGE ( 'NONE', *, *, #170, .F. ) ;
#578 = DIRECTION ( 'NONE',  ( 0.000000000000000000, -0.000000000000000000, -1.000000000000000000 ) ) ;
#579 = DIRECTION ( 'NONE',  ( 0.000000000000000000, 0.000000000000000000, 1.000000000000000000 ) ) ;
#580 = ORIENTED_EDGE ( 'NONE', *, *, #422, .F. ) ;
#581 = CARTESIAN_POINT ( 'NONE',  ( 91.00000000000001421, 3.000000000000000000, -68.99999999999998579 ) ) ;
#582 = UNCERTAINTY_MEASURE_WITH_UNIT (LENGTH_MEASURE( 1.000000000000000082E-05 ), #425, 'distance_accuracy_value', 'NONE');
#583 = EDGE_CURVE ( 'NONE', #379, #196, #560, .T. ) ;
#584 = LINE ( 'NONE', #540, #212 ) ;
#585 = ORIENTED_EDGE ( 'NONE', *, *, #306, .T. ) ;
#586 = CARTESIAN_POINT ( 'NONE',  ( 102.0000000000000142, 3.000000000000000000, 3.000000000000000000 ) ) ;
#587 = AXIS2_PLACEMENT_3D ( 'NONE', #121, #67, #384 ) ;
#588 = CARTESIAN_POINT ( 'NONE',  ( 91.00000000000001421, 0.000000000000000000, -70.37500000000000000 ) ) ;
#589 = ORIENTED_EDGE ( 'NONE', *, *, #280, .T. ) ;
#590 =( NAMED_UNIT ( * ) SI_UNIT ( $, .STERADIAN. ) SOLID_ANGLE_UNIT ( ) );
#591 = VECTOR ( 'NONE', #561, 1000.000000000000000 ) ;
#592 = DIRECTION ( 'NONE',  ( -0.000000000000000000, -1.000000000000000000, -0.000000000000000000 ) ) ;
#593 = VERTEX_POINT ( 'NONE', #309 ) ;
#594 =( NAMED_UNIT ( * ) SI_UNIT ( $, .STERADIAN. ) SOLID_ANGLE_UNIT ( ) );
#595 = ADVANCED_FACE ( 'NONE', ( #302, #305, #694, #352, #457 ), #469, .T. ) ;
#596 = CARTESIAN_POINT ( 'NONE',  ( 91.00000000000001421, 0.000000000000000000, -68.99999999999998579 ) ) ;
#597 = ORIENTED_EDGE ( 'NONE', *, *, #42, .T. ) ;
#598 = SURFACE_STYLE_FILL_AREA ( #161 ) ;
#599 = PRODUCT_DEFINITION ( 'General', '', #35, #169 ) ;
#600 = CARTESIAN_POINT ( 'NONE',  ( 5.000000000000006217, 3.000000000000000000, -9.625000000000003553 ) ) ;
#601 = CIRCLE ( 'NONE', #248, 1.375000000000001332 ) ;
#602 = ORIENTED_EDGE ( 'NONE', *, *, #287, .T. ) ;
#603 = VECTOR ( 'NONE', #415, 1000.000000000000000 ) ;
#604 = DIRECTION ( 'NONE',  ( -0.000000000000000000, -1.000000000000000000, -0.000000000000000000 ) ) ;
#605 = VERTEX_POINT ( 'NONE', #521 ) ;
#606 = LINE ( 'NONE', #496, #273 ) ;
#607 = EDGE_CURVE ( 'NONE', #472, #301, #60, .T. ) ;
#608 = ORIENTED_EDGE ( 'NONE', *, *, #215, .F. ) ;
#609 = DIRECTION ( 'NONE',  ( 0.000000000000000000, 0.000000000000000000, -1.000000000000000000 ) ) ;
#610 = ORIENTED_EDGE ( 'NONE', *, *, #583, .F. ) ;
#611 = AXIS2_PLACEMENT_3D ( 'NONE', #491, #330, #176 ) ;
#612 = CARTESIAN_POINT ( 'NONE',  ( 105.0000000000000284, 42.00000000000000711, -72.00000000000001421 ) ) ;
#613 = FACE_OUTER_BOUND ( 'NONE', #83, .T. ) ;
#614 = DIRECTION ( 'NONE',  ( 0.000000000000000000, 0.000000000000000000, 1.000000000000000000 ) ) ;
#615 = ADVANCED_FACE ( 'NONE', ( #572 ), #624, .F. ) ;
#616 = FACE_OUTER_BOUND ( 'NONE', #160, .T. ) ;
#617 = ORIENTED_EDGE ( 'NONE', *, *, #566, .T. ) ;
#618 = CARTESIAN_POINT ( 'NONE',  ( 102.0000000000000284, 48.00000000000000000, 2.999999999999999556 ) ) ;
#619 = CARTESIAN_POINT ( 'NONE',  ( 105.0000000000000284, 42.00000000000001421, -3.499999999999998224 ) ) ;
#620 = ADVANCED_FACE ( 'NONE', ( #135 ), #184, .F. ) ;
#621 = AXIS2_PLACEMENT_3D ( 'NONE', #509, #249, #684 ) ;
#622 = DIRECTION ( 'NONE',  ( 0.000000000000000000, 0.000000000000000000, -1.000000000000000000 ) ) ;
#623 = ORIENTED_EDGE ( 'NONE', *, *, #388, .T. ) ;
#624 = PLANE ( 'NONE',  #657 ) ;
#625 = CARTESIAN_POINT ( 'NONE',  ( -1.999999999999990452, 0.000000000000000000, -77.00000000000000000 ) ) ;
#626 = VERTEX_POINT ( 'NONE', #80 ) ;
#627 = DIRECTION ( 'NONE',  ( -0.000000000000000000, 1.000000000000000000, -0.000000000000000000 ) ) ;
#628 = DIRECTION ( 'NONE',  ( 1.000000000000000000, 0.000000000000000000, -3.469446951953615175E-16 ) ) ;
#629 = ORIENTED_EDGE ( 'NONE', *, *, #247, .F. ) ;
#630 = DIRECTION ( 'NONE',  ( 0.000000000000000000, 0.000000000000000000, -1.000000000000000000 ) ) ;
#631 = CIRCLE ( 'NONE', #573, 1.500000000000002665 ) ;
#632 = FACE_OUTER_BOUND ( 'NONE', #483, .T. ) ;
#633 = CIRCLE ( 'NONE', #348, 1.375000000000001332 ) ;
#634 = ORIENTED_EDGE ( 'NONE', *, *, #495, .F. ) ;
#635 = PLANE ( 'NONE',  #493 ) ;
#636 = EDGE_CURVE ( 'NONE', #329, #379, #355, .T. ) ;
#637 = DIRECTION ( 'NONE',  ( 0.000000000000000000, 1.000000000000000000, 0.000000000000000000 ) ) ;
#638 = ORIENTED_EDGE ( 'NONE', *, *, #206, .T. ) ;
#639 = SURFACE_SIDE_STYLE ('',( #205 ) ) ;
#640 = PRODUCT_DEFINITION_SHAPE ( 'NONE', 'NONE',  #599 ) ;
#641 = LINE ( 'NONE', #702, #648 ) ;
#642 = EDGE_LOOP ( 'NONE', ( #650, #251, #297, #629 ) ) ;
#643 = VECTOR ( 'NONE', #545, 1000.000000000000000 ) ;
#644 = VECTOR ( 'NONE', #604, 1000.000000000000000 ) ;
#645 = CARTESIAN_POINT ( 'NONE',  ( 105.0000000000000142, 3.000000000000000000, -77.00000000000001421 ) ) ;
#646 = EDGE_CURVE ( 'NONE', #550, #605, #518, .T. ) ;
#647 = ORIENTED_EDGE ( 'NONE', *, *, #462, .T. ) ;
#648 = VECTOR ( 'NONE', #39, 1000.000000000000000 ) ;
#649 = CARTESIAN_POINT ( 'NONE',  ( 5.000000000000000000, 0.000000000000000000, -69.00000000000000000 ) ) ;
#650 = ORIENTED_EDGE ( 'NONE', *, *, #646, .F. ) ;
#651 = FILL_AREA_STYLE_COLOUR ( '', #512 ) ;
#652 = EDGE_CURVE ( 'NONE', #375, #550, #631, .T. ) ;
#653 = DIRECTION ( 'NONE',  ( 1.000000000000000000, 0.000000000000000000, 0.000000000000000000 ) ) ;
#654 = MANIFOLD_SOLID_BREP ( 'Cut-Extrude2', #241 ) ;
#655 = ORIENTED_EDGE ( 'NONE', *, *, #693, .F. ) ;
#656 = DIRECTION ( 'NONE',  ( -1.000000000000000000, 0.000000000000000000, 0.000000000000000000 ) ) ;
#657 = AXIS2_PLACEMENT_3D ( 'NONE', #201, #524, #194 ) ;
#658 = ORIENTED_EDGE ( 'NONE', *, *, #170, .T. ) ;
#659 = CARTESIAN_POINT ( 'NONE',  ( 0.000000000000000000, 0.000000000000000000, 0.000000000000000000 ) ) ;
#660 = AXIS2_PLACEMENT_3D ( 'NONE', #75, #463, #622 ) ;
#661 = EDGE_CURVE ( 'NONE', #286, #174, #26, .T. ) ;
#662 = CARTESIAN_POINT ( 'NONE',  ( 105.0000000000000284, 42.00000000000000711, -72.00000000000001421 ) ) ;
#663 = ORIENTED_EDGE ( 'NONE', *, *, #107, .T. ) ;
#664 = CARTESIAN_POINT ( 'NONE',  ( 5.000000000000000000, 3.000000000000000000, -69.00000000000000000 ) ) ;
#665 = ORIENTED_EDGE ( 'NONE', *, *, #148, .T. ) ;
#666 = CARTESIAN_POINT ( 'NONE',  ( 102.0000000000000142, 48.00000000000000000, -77.00000000000000000 ) ) ;
#667 = LINE ( 'NONE', #178, #213 ) ;
#668 = AXIS2_PLACEMENT_3D ( 'NONE', #295, #461, #686 ) ;
#669 = EDGE_CURVE ( 'NONE', #99, #289, #267, .T. ) ;
#670 = VECTOR ( 'NONE', #320, 1000.000000000000000 ) ;
#671 = DIRECTION ( 'NONE',  ( -1.000000000000000000, -0.000000000000000000, -0.000000000000000000 ) ) ;
#672 = LINE ( 'NONE', #180, #470 ) ;
#673 = EDGE_CURVE ( 'NONE', #331, #443, #704, .T. ) ;
#674 = EDGE_LOOP ( 'NONE', ( #434, #710 ) ) ;
#675 = ORIENTED_EDGE ( 'NONE', *, *, #513, .T. ) ;
#676 = EDGE_CURVE ( 'NONE', #277, #697, #316, .T. ) ;
#677 = DIRECTION ( 'NONE',  ( -0.000000000000000000, -1.000000000000000000, -0.000000000000000000 ) ) ;
#678 = ORIENTED_EDGE ( 'NONE', *, *, #701, .T. ) ;
#679 = AXIS2_PLACEMENT_3D ( 'NONE', #38, #567, #263 ) ;
#680 = CIRCLE ( 'NONE', #96, 1.500000000000002665 ) ;
#681 = AXIS2_PLACEMENT_3D ( 'NONE', #503, #341, #127 ) ;
#682 = CARTESIAN_POINT ( 'NONE',  ( 0.000000000000000000, 3.000000000000000000, 0.000000000000000000 ) ) ;
#683 = CIRCLE ( 'NONE', #474, 1.375000000000004663 ) ;
#684 = DIRECTION ( 'NONE',  ( 0.000000000000000000, 0.000000000000000000, 1.000000000000000000 ) ) ;
#685 = ORIENTED_EDGE ( 'NONE', *, *, #114, .F. ) ;
#686 = DIRECTION ( 'NONE',  ( 0.000000000000000000, 0.000000000000000000, 1.000000000000000000 ) ) ;
#687 = DIRECTION ( 'NONE',  ( 0.000000000000000000, 0.000000000000000000, 1.000000000000000000 ) ) ;
#688 = VERTEX_POINT ( 'NONE', #367 ) ;
#689 = CARTESIAN_POINT ( 'NONE',  ( 5.000000000000006217, 3.000000000000000000, -9.625000000000003553 ) ) ;
#690 = PLANE ( 'NONE',  #165 ) ;
#691 = FACE_OUTER_BOUND ( 'NONE', #2, .T. ) ;
#692 = VERTEX_POINT ( 'NONE', #102 ) ;
#693 = EDGE_CURVE ( 'NONE', #472, #258, #712, .T. ) ;
#694 = FACE_BOUND ( 'NONE', #416, .T. ) ;
#695 = DIRECTION ( 'NONE',  ( 0.000000000000000000, 0.000000000000000000, 1.000000000000000000 ) ) ;
#696 = VECTOR ( 'NONE', #507, 1000.000000000000000 ) ;
#697 = VERTEX_POINT ( 'NONE', #586 ) ;
#698 = DIRECTION ( 'NONE',  ( -0.000000000000000000, -1.000000000000000000, -0.000000000000000000 ) ) ;
#699 = EDGE_LOOP ( 'NONE', ( #304, #377 ) ) ;
#700 = CARTESIAN_POINT ( 'NONE',  ( 105.0000000000000284, 42.00000000000000711, -70.50000000000000000 ) ) ;
#701 = EDGE_CURVE ( 'NONE', #688, #479, #373, .T. ) ;
#702 = CARTESIAN_POINT ( 'NONE',  ( 91.00000000000001421, 3.000000000000000000, -67.62499999999998579 ) ) ;
#703 = ORIENTED_EDGE ( 'NONE', *, *, #486, .F. ) ;
#704 = LINE ( 'NONE', #430, #312 ) ;
#705 = AXIS2_PLACEMENT_3D ( 'NONE', #246, #364, #89 ) ;
#706 = VECTOR ( 'NONE', #12, 1000.000000000000000 ) ;
#707 = FACE_OUTER_BOUND ( 'NONE', #343, .T. ) ;
#708 = ORIENTED_EDGE ( 'NONE', *, *, #13, .F. ) ;
#709 = CYLINDRICAL_SURFACE ( 'NONE', #428, 1.375000000000001332 ) ;
#710 = ORIENTED_EDGE ( 'NONE', *, *, #370, .F. ) ;
#711 = ADVANCED_BREP_SHAPE_REPRESENTATION ( 'jetson_base', ( #654, #221 ), #49 ) ;
#712 = LINE ( 'NONE', #435, #643 ) ;
ENDSEC;
END-ISO-10303-21;
