ISO-10303-21;
HEADER;
FILE_DESCRIPTION (( 'STEP AP214' ),
    '1' );
FILE_NAME ('mounting_plate_subassembly.STEP',
    '2026-09-04T22:01:18',
    ( '' ),
    ( '' ),
    'SwSTEP 2.0',
    'SolidWorks 2026',
    '' );
FILE_SCHEMA (( 'AUTOMOTIVE_DESIGN' ));
ENDSEC;

DATA;
#1 = APPLIED_EXTERNAL_IDENTIFICATION_ASSIGNMENT ( 'HexHolder.STEP' , #254, #268,( #14) ) ;
#2 = SHAPE_REPRESENTATION ( 'mounting_plate_subassembly', ( #136, #222, #267, #192, #256, #252, #154, #79, #56, #202 ), #83 ) ;
#3 = DIRECTION ( 'NONE',  ( -2.445544955856609651E-18, -5.194575360321128846E-17, 1.000000000000000000 ) ) ;
#4 = IDENTIFICATION_ROLE ( 'external document id and location', $) ;
#5 = UNCERTAINTY_MEASURE_WITH_UNIT (LENGTH_MEASURE( 1.000000000000000082E-05 ), #61, 'distance_accuracy_value', 'NONE');
#6 = OBJECT_ROLE ('mandatory',$ ) ;
#7 = PRODUCT_DEFINITION_SHAPE ( 'NONE', 'NONE',  #271 ) ;
#8 = CARTESIAN_POINT ( 'NONE',  ( 308.4048188362786505, 125.1732890087697854, 221.0771312526638894 ) ) ;
#9 = APPLICATION_PROTOCOL_DEFINITION ( 'draft international standard', 'automotive_design', 1998, #110 ) ;
#10 = PRODUCT_DEFINITION_SHAPE ( 'NONE', 'NONE',  #75 ) ;
#11 = IDENTIFICATION_ROLE ( 'external document id and location', $) ;
#12 =( GEOMETRIC_REPRESENTATION_CONTEXT ( 3 ) GLOBAL_UNCERTAINTY_ASSIGNED_CONTEXT ( ( #112 ) ) GLOBAL_UNIT_ASSIGNED_CONTEXT ( ( #196, #171, #108 ) ) REPRESENTATION_CONTEXT ( 'NONE', 'WORKASPACE' ) );
#13 = ITEM_DEFINED_TRANSFORMATION ( 'NONE', 'NONE', #202,  #245 ) ;
#14 = DOCUMENT_FILE ( 'HexHolder.STEP' , '', '', #97, '' ,$ ) ;
#15 = OBJECT_ROLE ('mandatory',$ ) ;
#16 = PRODUCT_DEFINITION_FORMATION_WITH_SPECIFIED_SOURCE ( 'Symmetric', '', #260, .NOT_KNOWN. ) ;
#17 = DIRECTION ( 'NONE',  ( 0.000000000000000000, 0.000000000000000000, 1.000000000000000000 ) ) ;
#18 =( REPRESENTATION_RELATIONSHIP ('NONE','NONE', #2, #234 ) REPRESENTATION_RELATIONSHIP_WITH_TRANSFORMATION ( #250 )SHAPE_REPRESENTATION_RELATIONSHIP( ) );
#19 = PRODUCT_DEFINITION ( 'General', '', #118, #174 ) ;
#20 = IDENTIFICATION_ROLE ( 'external document id and location', $) ;
#21 = PROPERTY_DEFINITION ('external definition','', #121 ) ;
#22 = PRODUCT_DEFINITION_FORMATION_WITH_SPECIFIED_SOURCE ( 'Symmetric', '', #69, .NOT_KNOWN. ) ;
#23 = DIRECTION ( 'NONE',  ( 1.000000000000000000, 0.000000000000000000, 0.000000000000000000 ) ) ;
#24 = APPLICATION_PROTOCOL_DEFINITION ( 'draft international standard', 'automotive_design', 1998, #184 ) ;
#25 = PRODUCT ( 'HexHolder', 'HexHolder', '', ( #113 ) ) ;
#26 = CARTESIAN_POINT ( 'NONE',  ( 0.000000000000000000, 0.000000000000000000, 0.000000000000000000 ) ) ;
#27 = APPLICATION_CONTEXT ( 'automotive_design' ) ;
#28 = DIRECTION ( 'NONE',  ( -2.445544955856609651E-18, -5.194575360321128846E-17, 1.000000000000000000 ) ) ;
#29 = DIRECTION ( 'NONE',  ( -1.972152263052529514E-31, -2.958228394578794270E-31, 1.000000000000000000 ) ) ;
#30 = ROLE_ASSOCIATION ( #214, #53 ) ;
#31 = PROPERTY_DEFINITION ('external definition','', #209 ) ;
#32 = CONTEXT_DEPENDENT_SHAPE_REPRESENTATION ( #37, #224 ) ;
#33 = ROLE_ASSOCIATION ( #15, #143 ) ;
#34 =( REPRESENTATION_RELATIONSHIP ('NONE','NONE', #2, #197 ) REPRESENTATION_RELATIONSHIP_WITH_TRANSFORMATION ( #208 )SHAPE_REPRESENTATION_RELATIONSHIP( ) );
#35 = APPLIED_DOCUMENT_REFERENCE ( #205,'',( #19) ) ;
#36 = ROLE_ASSOCIATION ( #92, #35 ) ;
#37 =( REPRESENTATION_RELATIONSHIP ('NONE','NONE', #2, #234 ) REPRESENTATION_RELATIONSHIP_WITH_TRANSFORMATION ( #13 )SHAPE_REPRESENTATION_RELATIONSHIP( ) );
#38 = PRODUCT_RELATED_PRODUCT_CATEGORY ( 'part', '', ( #242 ) ) ;
#39 = PROPERTY_DEFINITION_REPRESENTATION ( #156, #197 ) ;
#40 = DOCUMENT_TYPE ( 'geometry' ) ;
#41 = APPLIED_DOCUMENT_REFERENCE ( #139,'',( #168) ) ;
#42 = DOCUMENT_TYPE ( 'geometry' ) ;
#43 = DIRECTION ( 'NONE',  ( 1.000000000000000000, 0.000000000000000000, 0.000000000000000000 ) ) ;
#44 = PRODUCT_CONTEXT ( 'NONE', #107, 'mechanical' ) ;
#45 = PROPERTY_DEFINITION ('document property','', #209 ) ;
#46 = PROPERTY_DEFINITION ('external definition','', #205 ) ;
#47 = CARTESIAN_POINT ( 'NONE',  ( 172.2327357489534165, -11.32880035895716908, 221.0771312526639178 ) ) ;
#48 = DIRECTION ( 'NONE',  ( 1.000000000000000000, 0.000000000000000000, 0.000000000000000000 ) ) ;
#49 = PRODUCT_DEFINITION_SHAPE ( 'NONE', 'NONE',  #275 ) ;
#50 = APPLIED_EXTERNAL_IDENTIFICATION_ASSIGNMENT ( '95462A029_Medium-Strength Steel Hex Nut_95462A029.STEP' , #249, #62,( #51) ) ;
#51 = DOCUMENT_FILE ( '95462A029_Medium-Strength Steel Hex Nut_95462A029.STEP' , '', '', #227, '' ,$ ) ;
#52 = UNCERTAINTY_MEASURE_WITH_UNIT (LENGTH_MEASURE( 1.000000000000000082E-05 ), #195, 'distance_accuracy_value', 'NONE');
#53 = APPLIED_DOCUMENT_REFERENCE ( #51,'',( #168) ) ;
#54 = EXTERNAL_SOURCE (IDENTIFIER('') ) ;
#55 = ITEM_DEFINED_TRANSFORMATION ( 'NONE', 'NONE', #154,  #211 ) ;
#56 = AXIS2_PLACEMENT_3D ( 'NONE', #161, #178, #199 ) ;
#57 = ITEM_DEFINED_TRANSFORMATION ( 'NONE', 'NONE', #192,  #211 ) ;
#58 = IDENTIFICATION_ROLE ( 'external document id and location', $) ;
#59 = ROLE_ASSOCIATION ( #6, #186 ) ;
#60 = PROPERTY_DEFINITION_REPRESENTATION ( #140, #234 ) ;
#61 =( LENGTH_UNIT ( ) NAMED_UNIT ( * ) SI_UNIT ( .MILLI., .METRE. ) );
#62 = EXTERNAL_SOURCE (IDENTIFIER('') ) ;
#63 =( NAMED_UNIT ( * ) PLANE_ANGLE_UNIT ( ) SI_UNIT ( $, .RADIAN. ) );
#64 = DOCUMENT_TYPE ( 'geometry' ) ;
#65 = DIRECTION ( 'NONE',  ( 0.8847683672897199703, 0.4660310464373410011, -2.637207472740762886E-17 ) ) ;
#66 = IDENTIFICATION_ROLE ( 'external document id and location', $) ;
#67 = AXIS2_PLACEMENT_3D ( 'NONE', #84, #210, #43 ) ;
#68 = ITEM_DEFINED_TRANSFORMATION ( 'NONE', 'NONE', #222,  #245 ) ;
#69 = PRODUCT ( '95462A029_Medium-Strength Steel Hex Nut_95462A029', '95462A029_Medium-Strength Steel Hex Nut_95462A029', '', ( #247 ) ) ;
#70 = PRODUCT_RELATED_PRODUCT_CATEGORY ( 'part', '', ( #260 ) ) ;
#71 = EXTERNAL_SOURCE (IDENTIFIER('') ) ;
#72 = PRODUCT_DEFINITION_CONTEXT ( 'detailed design', #184, 'design' ) ;
#73 = CONTEXT_DEPENDENT_SHAPE_REPRESENTATION ( #246, #129 ) ;
#74 = DIRECTION ( 'NONE',  ( 0.9997980976460441038, -0.02009387825561570473, -1.401259545774238873E-18 ) ) ;
#75 = PRODUCT_DEFINITION ( 'General', '', #16, #72 ) ;
#76 = PRODUCT_DEFINITION_SHAPE ( 'NONE', 'NONE',  #19 ) ;
#77 = DOCUMENT_FILE ( 'HexHolder.STEP' , '', '', #40, '' ,$ ) ;
#78 = APPLICATION_CONTEXT ( 'automotive_design' ) ;
#79 = AXIS2_PLACEMENT_3D ( 'NONE', #175, #93, #74 ) ;
#80 = CONTEXT_DEPENDENT_SHAPE_REPRESENTATION ( #34, #248 ) ;
#81 = ITEM_DEFINED_TRANSFORMATION ( 'NONE', 'NONE', #79,  #211 ) ;
#82 =( REPRESENTATION_RELATIONSHIP ('NONE','NONE', #2, #197 ) REPRESENTATION_RELATIONSHIP_WITH_TRANSFORMATION ( #55 )SHAPE_REPRESENTATION_RELATIONSHIP( ) );
#83 =( GEOMETRIC_REPRESENTATION_CONTEXT ( 3 ) GLOBAL_UNCERTAINTY_ASSIGNED_CONTEXT ( ( #157 ) ) GLOBAL_UNIT_ASSIGNED_CONTEXT ( ( #155, #153, #263 ) ) REPRESENTATION_CONTEXT ( 'NONE', 'WORKASPACE' ) );
#84 = CARTESIAN_POINT ( 'NONE',  ( 0.000000000000000000, 0.000000000000000000, 0.000000000000000000 ) ) ;
#85 = OBJECT_ROLE ('mandatory',$ ) ;
#86 =( NAMED_UNIT ( * ) SI_UNIT ( $, .STERADIAN. ) SOLID_ANGLE_UNIT ( ) );
#87 = OBJECT_ROLE ('mandatory',$ ) ;
#88 = APPLICATION_PROTOCOL_DEFINITION ( 'draft international standard', 'automotive_design', 1998, #194 ) ;
#89 = DOCUMENT_TYPE ( 'geometry' ) ;
#90 = APPLICATION_PROTOCOL_DEFINITION ( 'draft international standard', 'automotive_design', 1998, #107 ) ;
#91 = PROPERTY_DEFINITION ('document property','', #51 ) ;
#92 = OBJECT_ROLE ('mandatory',$ ) ;
#93 = DIRECTION ( 'NONE',  ( -1.972152263052529514E-31, 4.930380657631323784E-32, 0.9999999999999998890 ) ) ;
#94 = PROPERTY_DEFINITION ('external definition','', #77 ) ;
#95 = PRODUCT_DEFINITION_CONTEXT ( 'detailed design', #165, 'design' ) ;
#96 = PRODUCT_RELATED_PRODUCT_CATEGORY ( 'part', '', ( #69 ) ) ;
#97 = DOCUMENT_TYPE ( 'geometry' ) ;
#98 = PROPERTY_DEFINITION_REPRESENTATION ( #243, #197 ) ;
#99 = DOCUMENT_TYPE ( 'geometry' ) ;
#100 = PROPERTY_DEFINITION_REPRESENTATION ( #138, #103 ) ;
#101 = APPLIED_DOCUMENT_REFERENCE ( #14,'',( #19) ) ;
#102 = PROPERTY_DEFINITION_REPRESENTATION ( #206, #197 ) ;
#103 = SHAPE_REPRESENTATION ( 'Holder Plate Large', ( #67 ), #12 ) ;
#104 =( REPRESENTATION_RELATIONSHIP ('NONE','NONE', #2, #197 ) REPRESENTATION_RELATIONSHIP_WITH_TRANSFORMATION ( #81 )SHAPE_REPRESENTATION_RELATIONSHIP( ) );
#105 = PROPERTY_DEFINITION_REPRESENTATION ( #179, #234 ) ;
#106 = PRODUCT_RELATED_PRODUCT_CATEGORY ( 'part', '', ( #25 ) ) ;
#107 = APPLICATION_CONTEXT ( 'automotive_design' ) ;
#108 =( NAMED_UNIT ( * ) SI_UNIT ( $, .STERADIAN. ) SOLID_ANGLE_UNIT ( ) );
#109 =( NAMED_UNIT ( * ) PLANE_ANGLE_UNIT ( ) SI_UNIT ( $, .RADIAN. ) );
#110 = APPLICATION_CONTEXT ( 'automotive_design' ) ;
#111 = PRODUCT_DEFINITION_SHAPE ( 'NONE', 'NONE',  #274 ) ;
#112 = UNCERTAINTY_MEASURE_WITH_UNIT (LENGTH_MEASURE( 1.000000000000000082E-05 ), #196, 'distance_accuracy_value', 'NONE');
#113 = PRODUCT_CONTEXT ( 'NONE', #78, 'mechanical' ) ;
#114 = SHAPE_DEFINITION_REPRESENTATION ( #135, #2 ) ;
#115 = PROPERTY_DEFINITION ('external definition','', #145 ) ;
#116 = SHAPE_DEFINITION_REPRESENTATION ( #76, #197 ) ;
#117 = DIRECTION ( 'NONE',  ( 1.000000000000000000, -3.330669073875469621E-16, -2.445544955856609651E-18 ) ) ;
#118 = PRODUCT_DEFINITION_FORMATION_WITH_SPECIFIED_SOURCE ( 'Symmetric', '', #25, .NOT_KNOWN. ) ;
#119 = EXTERNAL_SOURCE (IDENTIFIER('') ) ;
#120 = PROPERTY_DEFINITION_REPRESENTATION ( #31, #234 ) ;
#121 = DOCUMENT_FILE ( 'Holder Plate Large.STEP' , '', '', #64, '' ,$ ) ;
#122 = OBJECT_ROLE ('mandatory',$ ) ;
#123 = PROPERTY_DEFINITION ('external definition','', #233 ) ;
#124 = CONTEXT_DEPENDENT_SHAPE_REPRESENTATION ( #82, #111 ) ;
#125 = PROPERTY_DEFINITION_REPRESENTATION ( #173, #197 ) ;
#126 = CONTEXT_DEPENDENT_SHAPE_REPRESENTATION ( #104, #49 ) ;
#127 = EXTERNAL_SOURCE (IDENTIFIER('') ) ;
#128 =( REPRESENTATION_RELATIONSHIP ('NONE','NONE', #2, #103 ) REPRESENTATION_RELATIONSHIP_WITH_TRANSFORMATION ( #204 )SHAPE_REPRESENTATION_RELATIONSHIP( ) );
#129 = PRODUCT_DEFINITION_SHAPE ( 'NONE', 'NONE',  #269 ) ;
#130 = CARTESIAN_POINT ( 'NONE',  ( 171.5781591897064686, 262.2441062034591823, 221.0771312526638894 ) ) ;
#131 =( GEOMETRIC_REPRESENTATION_CONTEXT ( 3 ) GLOBAL_UNCERTAINTY_ASSIGNED_CONTEXT ( ( #52 ) ) GLOBAL_UNIT_ASSIGNED_CONTEXT ( ( #195, #63, #148 ) ) REPRESENTATION_CONTEXT ( 'NONE', 'WORKASPACE' ) );
#132 = APPLICATION_PROTOCOL_DEFINITION ( 'draft international standard', 'automotive_design', 1998, #165 ) ;
#133 = CARTESIAN_POINT ( 'NONE',  ( 171.8822591851936750, 125.2345112602683059, 214.7271312526638951 ) ) ;
#134 = DIRECTION ( 'NONE',  ( 0.000000000000000000, 0.000000000000000000, 1.000000000000000000 ) ) ;
#135 = PRODUCT_DEFINITION_SHAPE ( 'NONE', 'NONE',  #158 ) ;
#136 = AXIS2_PLACEMENT_3D ( 'NONE', #219, #134, #48 ) ;
#137 = PROPERTY_DEFINITION_REPRESENTATION ( #91, #234 ) ;
#138 = PROPERTY_DEFINITION ('document property','', #121 ) ;
#139 = DOCUMENT_FILE ( '95462A029_Medium-Strength Steel Hex Nut_95462A029.STEP' , '', '', #42, '' ,$ ) ;
#140 = PROPERTY_DEFINITION ('document property','', #233 ) ;
#141 = APPLIED_EXTERNAL_IDENTIFICATION_ASSIGNMENT ( 'HexHolder.STEP' , #66, #54,( #145) ) ;
#142 = CONTEXT_DEPENDENT_SHAPE_REPRESENTATION ( #128, #198 ) ;
#143 = APPLIED_DOCUMENT_REFERENCE ( #77,'',( #19) ) ;
#144 = APPLICATION_CONTEXT ( 'automotive_design' ) ;
#145 = DOCUMENT_FILE ( 'HexHolder.STEP' , '', '', #99, '' ,$ ) ;
#146 = APPLIED_EXTERNAL_IDENTIFICATION_ASSIGNMENT ( '95462A029_Medium-Strength Steel Hex Nut_95462A029.STEP' , #4, #119,( #209) ) ;
#147 = APPLIED_DOCUMENT_REFERENCE ( #121,'',( #75) ) ;
#148 =( NAMED_UNIT ( * ) SI_UNIT ( $, .STERADIAN. ) SOLID_ANGLE_UNIT ( ) );
#149 =( GEOMETRIC_REPRESENTATION_CONTEXT ( 3 ) GLOBAL_UNCERTAINTY_ASSIGNED_CONTEXT ( ( #5 ) ) GLOBAL_UNIT_ASSIGNED_CONTEXT ( ( #61, #109, #86 ) ) REPRESENTATION_CONTEXT ( 'NONE', 'WORKASPACE' ) );
#150 = APPLIED_DOCUMENT_REFERENCE ( #233,'',( #168) ) ;
#151 = DIRECTION ( 'NONE',  ( -1.972152263052529514E-31, -2.958228394578794270E-31, 1.000000000000000000 ) ) ;
#152 = CARTESIAN_POINT ( 'NONE',  ( 171.8822591851935613, 261.7595112602681411, 224.6490062526638951 ) ) ;
#153 =( NAMED_UNIT ( * ) PLANE_ANGLE_UNIT ( ) SI_UNIT ( $, .RADIAN. ) );
#154 = AXIS2_PLACEMENT_3D ( 'NONE', #8, #3, #159 ) ;
#155 =( LENGTH_UNIT ( ) NAMED_UNIT ( * ) SI_UNIT ( .MILLI., .METRE. ) );
#156 = PROPERTY_DEFINITION ('document property','', #14 ) ;
#157 = UNCERTAINTY_MEASURE_WITH_UNIT (LENGTH_MEASURE( 1.000000000000000082E-05 ), #155, 'distance_accuracy_value', 'NONE');
#158 = PRODUCT_DEFINITION ( 'General', '', #231, #95 ) ;
#159 = DIRECTION ( 'NONE',  ( 1.000000000000000000, -3.330669073875469621E-16, -2.445544955856609651E-18 ) ) ;
#160 = APPLIED_EXTERNAL_IDENTIFICATION_ASSIGNMENT ( 'HexHolder.STEP' , #58, #170,( #205) ) ;
#161 = CARTESIAN_POINT ( 'NONE',  ( 308.4072591851953575, 125.2345112602699686, 223.8552562526638781 ) ) ;
#162 = PROPERTY_DEFINITION ('document property','', #205 ) ;
#163 = ROLE_ASSOCIATION ( #122, #41 ) ;
#164 = DOCUMENT_TYPE ( 'geometry' ) ;
#165 = APPLICATION_CONTEXT ( 'automotive_design' ) ;
#166 = CONTEXT_DEPENDENT_SHAPE_REPRESENTATION ( #18, #182 ) ;
#167 = PROPERTY_DEFINITION_REPRESENTATION ( #21, #103 ) ;
#168 = PRODUCT_DEFINITION ( 'General', '', #22, #235 ) ;
#169 = DIRECTION ( 'NONE',  ( 1.000000000000000000, -3.330669073875469621E-16, -2.445544955856609651E-18 ) ) ;
#170 = EXTERNAL_SOURCE (IDENTIFIER('') ) ;
#171 =( NAMED_UNIT ( * ) PLANE_ANGLE_UNIT ( ) SI_UNIT ( $, .RADIAN. ) );
#172 = EXTERNAL_SOURCE (IDENTIFIER('') ) ;
#173 = PROPERTY_DEFINITION ('external definition','', #14 ) ;
#174 = PRODUCT_DEFINITION_CONTEXT ( 'detailed design', #110, 'design' ) ;
#175 = CARTESIAN_POINT ( 'NONE',  ( 35.34004283328724938, 125.2034056633404333, 221.0771312526639178 ) ) ;
#176 = APPLIED_EXTERNAL_IDENTIFICATION_ASSIGNMENT ( '95462A029_Medium-Strength Steel Hex Nut_95462A029.STEP' , #228, #213,( #233) ) ;
#177 =( REPRESENTATION_RELATIONSHIP ('NONE','NONE', #2, #234 ) REPRESENTATION_RELATIONSHIP_WITH_TRANSFORMATION ( #223 )SHAPE_REPRESENTATION_RELATIONSHIP( ) );
#178 = DIRECTION ( 'NONE',  ( -1.972152263052529514E-31, -2.958228394578794270E-31, 1.000000000000000000 ) ) ;
#179 = PROPERTY_DEFINITION ('document property','', #139 ) ;
#180 = APPLICATION_PROTOCOL_DEFINITION ( 'draft international standard', 'automotive_design', 1998, #27 ) ;
#181 = CONTEXT_DEPENDENT_SHAPE_REPRESENTATION ( #177, #216 ) ;
#182 = PRODUCT_DEFINITION_SHAPE ( 'NONE', 'NONE',  #276 ) ;
#183 = PROPERTY_DEFINITION_REPRESENTATION ( #200, #234 ) ;
#184 = APPLICATION_CONTEXT ( 'automotive_design' ) ;
#185 = APPLIED_DOCUMENT_REFERENCE ( #209,'',( #168) ) ;
#186 = APPLIED_DOCUMENT_REFERENCE ( #145,'',( #19) ) ;
#187 = OBJECT_ROLE ('mandatory',$ ) ;
#188 = APPLIED_EXTERNAL_IDENTIFICATION_ASSIGNMENT ( 'HexHolder.STEP' , #11, #127,( #77) ) ;
#189 = ROLE_ASSOCIATION ( #266, #147 ) ;
#190 = PROPERTY_DEFINITION_REPRESENTATION ( #45, #234 ) ;
#191 = APPLIED_EXTERNAL_IDENTIFICATION_ASSIGNMENT ( '95462A029_Medium-Strength Steel Hex Nut_95462A029.STEP' , #20, #172,( #139) ) ;
#192 = AXIS2_PLACEMENT_3D ( 'NONE', #130, #218, #169 ) ;
#193 = CARTESIAN_POINT ( 'NONE',  ( 35.35725918519576538, 125.2345112602663590, 224.6490062526639235 ) ) ;
#194 = APPLICATION_CONTEXT ( 'automotive_design' ) ;
#195 =( LENGTH_UNIT ( ) NAMED_UNIT ( * ) SI_UNIT ( .MILLI., .METRE. ) );
#196 =( LENGTH_UNIT ( ) NAMED_UNIT ( * ) SI_UNIT ( .MILLI., .METRE. ) );
#197 = SHAPE_REPRESENTATION ( 'HexHolder', ( #211 ), #131 ) ;
#198 = PRODUCT_DEFINITION_SHAPE ( 'NONE', 'NONE',  #273 ) ;
#199 = DIRECTION ( 'NONE',  ( 0.8752253593632093320, 0.4837153815287880132, -2.726736298580621195E-17 ) ) ;
#200 = PROPERTY_DEFINITION ('external definition','', #139 ) ;
#201 = DIRECTION ( 'NONE',  ( 1.000000000000000000, -3.330669073875469621E-16, -2.445544955856609651E-18 ) ) ;
#202 = AXIS2_PLACEMENT_3D ( 'NONE', #264, #29, #261 ) ;
#203 = SHAPE_DEFINITION_REPRESENTATION ( #10, #103 ) ;
#204 = ITEM_DEFINED_TRANSFORMATION ( 'NONE', 'NONE', #252,  #67 ) ;
#205 = DOCUMENT_FILE ( 'HexHolder.STEP' , '', '', #89, '' ,$ ) ;
#206 = PROPERTY_DEFINITION ('document property','', #77 ) ;
#207 = ROLE_ASSOCIATION ( #87, #101 ) ;
#208 = ITEM_DEFINED_TRANSFORMATION ( 'NONE', 'NONE', #256,  #211 ) ;
#209 = DOCUMENT_FILE ( '95462A029_Medium-Strength Steel Hex Nut_95462A029.STEP' , '', '', #253, '' ,$ ) ;
#210 = DIRECTION ( 'NONE',  ( 0.000000000000000000, 0.000000000000000000, 1.000000000000000000 ) ) ;
#211 = AXIS2_PLACEMENT_3D ( 'NONE', #26, #255, #212 ) ;
#212 = DIRECTION ( 'NONE',  ( 1.000000000000000000, 0.000000000000000000, 0.000000000000000000 ) ) ;
#213 = EXTERNAL_SOURCE (IDENTIFIER('') ) ;
#214 = OBJECT_ROLE ('mandatory',$ ) ;
#215 = CARTESIAN_POINT ( 'NONE',  ( 0.000000000000000000, 0.000000000000000000, 0.000000000000000000 ) ) ;
#216 = PRODUCT_DEFINITION_SHAPE ( 'NONE', 'NONE',  #270 ) ;
#217 = APPLIED_EXTERNAL_IDENTIFICATION_ASSIGNMENT ( 'Holder Plate Large.STEP' , #240, #71,( #121) ) ;
#218 = DIRECTION ( 'NONE',  ( -2.445544955856609651E-18, -5.194575360321128846E-17, 1.000000000000000000 ) ) ;
#219 = CARTESIAN_POINT ( 'NONE',  ( 0.000000000000000000, 0.000000000000000000, 0.000000000000000000 ) ) ;
#220 = PRODUCT_CONTEXT ( 'NONE', #144, 'mechanical' ) ;
#221 = APPLICATION_PROTOCOL_DEFINITION ( 'draft international standard', 'automotive_design', 1998, #144 ) ;
#222 = AXIS2_PLACEMENT_3D ( 'NONE', #193, #258, #65 ) ;
#223 = ITEM_DEFINED_TRANSFORMATION ( 'NONE', 'NONE', #267,  #245 ) ;
#224 = PRODUCT_DEFINITION_SHAPE ( 'NONE', 'NONE',  #277 ) ;
#225 = APPLICATION_PROTOCOL_DEFINITION ( 'draft international standard', 'automotive_design', 1998, #78 ) ;
#226 = ROLE_ASSOCIATION ( #85, #185 ) ;
#227 = DOCUMENT_TYPE ( 'geometry' ) ;
#228 = IDENTIFICATION_ROLE ( 'external document id and location', $) ;
#229 = CONTEXT_DEPENDENT_SHAPE_REPRESENTATION ( #259, #7 ) ;
#230 = PROPERTY_DEFINITION_REPRESENTATION ( #94, #197 ) ;
#231 = PRODUCT_DEFINITION_FORMATION_WITH_SPECIFIED_SOURCE ( 'Symmetric', '', #242, .NOT_KNOWN. ) ;
#232 = PROPERTY_DEFINITION_REPRESENTATION ( #115, #197 ) ;
#233 = DOCUMENT_FILE ( '95462A029_Medium-Strength Steel Hex Nut_95462A029.STEP' , '', '', #164, '' ,$ ) ;
#234 = SHAPE_REPRESENTATION ( '95462A029_Medium-Strength Steel Hex Nut_95462A029', ( #245 ), #149 ) ;
#235 = PRODUCT_DEFINITION_CONTEXT ( 'detailed design', #27, 'design' ) ;
#236 = PROPERTY_DEFINITION_REPRESENTATION ( #123, #234 ) ;
#237 = DIRECTION ( 'NONE',  ( 0.8752253593632093320, 0.4837153815287880132, -2.726736298580621195E-17 ) ) ;
#238 = PRODUCT_DEFINITION_SHAPE ( 'NONE', 'NONE',  #168 ) ;
#239 = DIRECTION ( 'NONE',  ( -2.445544955856609651E-18, -5.194575360321128846E-17, 1.000000000000000000 ) ) ;
#240 = IDENTIFICATION_ROLE ( 'external document id and location', $) ;
#241 = PROPERTY_DEFINITION_REPRESENTATION ( #265, #234 ) ;
#242 = PRODUCT ( 'mounting_plate_subassembly', 'mounting_plate_subassembly', '', ( #44 ) ) ;
#243 = PROPERTY_DEFINITION ('document property','', #145 ) ;
#244 = SHAPE_DEFINITION_REPRESENTATION ( #238, #234 ) ;
#245 = AXIS2_PLACEMENT_3D ( 'NONE', #215, #17, #23 ) ;
#246 =( REPRESENTATION_RELATIONSHIP ('NONE','NONE', #2, #234 ) REPRESENTATION_RELATIONSHIP_WITH_TRANSFORMATION ( #68 )SHAPE_REPRESENTATION_RELATIONSHIP( ) );
#247 = PRODUCT_CONTEXT ( 'NONE', #194, 'mechanical' ) ;
#248 = PRODUCT_DEFINITION_SHAPE ( 'NONE', 'NONE',  #272 ) ;
#249 = IDENTIFICATION_ROLE ( 'external document id and location', $) ;
#250 = ITEM_DEFINED_TRANSFORMATION ( 'NONE', 'NONE', #56,  #245 ) ;
#251 = PROPERTY_DEFINITION_REPRESENTATION ( #46, #197 ) ;
#252 = AXIS2_PLACEMENT_3D ( 'NONE', #133, #28, #201 ) ;
#253 = DOCUMENT_TYPE ( 'geometry' ) ;
#254 = IDENTIFICATION_ROLE ( 'external document id and location', $) ;
#255 = DIRECTION ( 'NONE',  ( 0.000000000000000000, 0.000000000000000000, 1.000000000000000000 ) ) ;
#256 = AXIS2_PLACEMENT_3D ( 'NONE', #47, #239, #117 ) ;
#257 = ROLE_ASSOCIATION ( #187, #150 ) ;
#258 = DIRECTION ( 'NONE',  ( -2.445544955856609651E-18, -5.194575360321128846E-17, 1.000000000000000000 ) ) ;
#259 =( REPRESENTATION_RELATIONSHIP ('NONE','NONE', #2, #197 ) REPRESENTATION_RELATIONSHIP_WITH_TRANSFORMATION ( #57 )SHAPE_REPRESENTATION_RELATIONSHIP( ) );
#260 = PRODUCT ( 'Holder Plate Large', 'Holder Plate Large', '', ( #220 ) ) ;
#261 = DIRECTION ( 'NONE',  ( 0.8752253593632093320, 0.4837153815287880132, -2.726736298580621195E-17 ) ) ;
#262 = PROPERTY_DEFINITION_REPRESENTATION ( #162, #197 ) ;
#263 =( NAMED_UNIT ( * ) SI_UNIT ( $, .STERADIAN. ) SOLID_ANGLE_UNIT ( ) );
#264 = CARTESIAN_POINT ( 'NONE',  ( 171.8822591851971708, -11.29048873973176370, 223.8552562526639065 ) ) ;
#265 = PROPERTY_DEFINITION ('external definition','', #51 ) ;
#266 = OBJECT_ROLE ('mandatory',$ ) ;
#267 = AXIS2_PLACEMENT_3D ( 'NONE', #152, #151, #237 ) ;
#268 = EXTERNAL_SOURCE (IDENTIFIER('') ) ;
#269 = NEXT_ASSEMBLY_USAGE_OCCURRENCE ( 'NAUO1', ' ', ' ', #158, #168, $ ) ;
#270 = NEXT_ASSEMBLY_USAGE_OCCURRENCE ( 'NAUO2', ' ', ' ', #158, #168, $ ) ;
#271 = NEXT_ASSEMBLY_USAGE_OCCURRENCE ( 'NAUO3', ' ', ' ', #158, #19, $ ) ;
#272 = NEXT_ASSEMBLY_USAGE_OCCURRENCE ( 'NAUO4', ' ', ' ', #158, #19, $ ) ;
#273 = NEXT_ASSEMBLY_USAGE_OCCURRENCE ( 'NAUO5', ' ', ' ', #158, #75, $ ) ;
#274 = NEXT_ASSEMBLY_USAGE_OCCURRENCE ( 'NAUO6', ' ', ' ', #158, #19, $ ) ;
#275 = NEXT_ASSEMBLY_USAGE_OCCURRENCE ( 'NAUO7', ' ', ' ', #158, #19, $ ) ;
#276 = NEXT_ASSEMBLY_USAGE_OCCURRENCE ( 'NAUO8', ' ', ' ', #158, #168, $ ) ;
#277 = NEXT_ASSEMBLY_USAGE_OCCURRENCE ( 'NAUO9', ' ', ' ', #158, #168, $ ) ;
ENDSEC;
END-ISO-10303-21;
