ISO-10303-21;
HEADER;
FILE_DESCRIPTION (( 'STEP AP214' ),
    '1' );
FILE_NAME ('outlet_subassembly.STEP',
    '2026-09-04T22:01:31',
    ( '' ),
    ( '' ),
    'SwSTEP 2.0',
    'SolidWorks 2026',
    '' );
FILE_SCHEMA (( 'AUTOMOTIVE_DESIGN' ));
ENDSEC;

DATA;
#1 = PROPERTY_DEFINITION_REPRESENTATION ( #58, #28 ) ;
#2 = ROLE_ASSOCIATION ( #31, #134 ) ;
#3 = PRODUCT_DEFINITION_FORMATION_WITH_SPECIFIED_SOURCE ( 'Symmetric', '', #12, .NOT_KNOWN. ) ;
#4 = OBJECT_ROLE ('mandatory',$ ) ;
#5 = PRODUCT_CONTEXT ( 'NONE', #210, 'mechanical' ) ;
#6 = PRODUCT ( '1886K1_Rotary Shaft_1886K1', '1886K1_Rotary Shaft_1886K1', '', ( #261 ) ) ;
#7 =( NAMED_UNIT ( * ) PLANE_ANGLE_UNIT ( ) SI_UNIT ( $, .RADIAN. ) );
#8 = OBJECT_ROLE ('mandatory',$ ) ;
#9 = APPLIED_EXTERNAL_IDENTIFICATION_ASSIGNMENT ( '57155K336_Stainless Steel Ball Bearing_57155K336.STEP' , #254, #242,( #198) ) ;
#10 =( NAMED_UNIT ( * ) SI_UNIT ( $, .STERADIAN. ) SOLID_ANGLE_UNIT ( ) );
#11 = PROPERTY_DEFINITION ('document property','', #36 ) ;
#12 = PRODUCT ( 'outlet_subassembly', 'outlet_subassembly', '', ( #15 ) ) ;
#13 =( LENGTH_UNIT ( ) NAMED_UNIT ( * ) SI_UNIT ( .MILLI., .METRE. ) );
#14 = APPLICATION_CONTEXT ( 'automotive_design' ) ;
#15 = PRODUCT_CONTEXT ( 'NONE', #92, 'mechanical' ) ;
#16 =( GEOMETRIC_REPRESENTATION_CONTEXT ( 3 ) GLOBAL_UNCERTAINTY_ASSIGNED_CONTEXT ( ( #19 ) ) GLOBAL_UNIT_ASSIGNED_CONTEXT ( ( #55, #145, #166 ) ) REPRESENTATION_CONTEXT ( 'NONE', 'WORKASPACE' ) );
#17 =( REPRESENTATION_RELATIONSHIP ('NONE','NONE', #94, #28 ) REPRESENTATION_RELATIONSHIP_WITH_TRANSFORMATION ( #176 )SHAPE_REPRESENTATION_RELATIONSHIP( ) );
#18 = APPLICATION_PROTOCOL_DEFINITION ( 'draft international standard', 'automotive_design', 1998, #259 ) ;
#19 = UNCERTAINTY_MEASURE_WITH_UNIT (LENGTH_MEASURE( 1.000000000000000082E-05 ), #55, 'distance_accuracy_value', 'NONE');
#20 = APPLIED_DOCUMENT_REFERENCE ( #219,'',( #260) ) ;
#21 = AXIS2_PLACEMENT_3D ( 'NONE', #105, #233, #62 ) ;
#22 = IDENTIFICATION_ROLE ( 'external document id and location', $) ;
#23 = PROPERTY_DEFINITION ('document property','', #86 ) ;
#24 = ROLE_ASSOCIATION ( #4, #181 ) ;
#25 = ROLE_ASSOCIATION ( #104, #243 ) ;
#26 = SHAPE_REPRESENTATION ( '57155K336_Stainless Steel Ball Bearing_57155K336', ( #40 ), #127 ) ;
#27 = PRODUCT_CONTEXT ( 'NONE', #228, 'mechanical' ) ;
#28 = SHAPE_REPRESENTATION ( '6432K12_Set Screw Shaft Collar_6432K12', ( #52 ), #16 ) ;
#29 = PROPERTY_DEFINITION_REPRESENTATION ( #186, #26 ) ;
#30 = PROPERTY_DEFINITION ('document property','', #258 ) ;
#31 = OBJECT_ROLE ('mandatory',$ ) ;
#32 = CARTESIAN_POINT ( 'NONE',  ( 0.000000000000000000, 0.000000000000000000, 0.000000000000000000 ) ) ;
#33 = PROPERTY_DEFINITION ('external definition','', #258 ) ;
#34 = DIRECTION ( 'NONE',  ( 0.000000000000000000, 0.000000000000000000, 1.000000000000000000 ) ) ;
#35 =( LENGTH_UNIT ( ) NAMED_UNIT ( * ) SI_UNIT ( .MILLI., .METRE. ) );
#36 = DOCUMENT_FILE ( 'Assem1^outlet_subassembly.STEP' , '', '', #95, '' ,$ ) ;
#37 = OBJECT_ROLE ('mandatory',$ ) ;
#38 = DIRECTION ( 'NONE',  ( 0.000000000000000000, 0.000000000000000000, 1.000000000000000000 ) ) ;
#39 = PRODUCT_RELATED_PRODUCT_CATEGORY ( 'part', '', ( #183 ) ) ;
#40 = AXIS2_PLACEMENT_3D ( 'NONE', #143, #38, #125 ) ;
#41 = DOCUMENT_TYPE ( 'geometry' ) ;
#42 = PRODUCT_CONTEXT ( 'NONE', #162, 'mechanical' ) ;
#43 = PRODUCT_DEFINITION_FORMATION_WITH_SPECIFIED_SOURCE ( 'Symmetric', '', #183, .NOT_KNOWN. ) ;
#44 = CARTESIAN_POINT ( 'NONE',  ( 115.9758683704610007, 82.04205303310591546, 46.72620854630356035 ) ) ;
#45 = DOCUMENT_TYPE ( 'geometry' ) ;
#46 = PROPERTY_DEFINITION_REPRESENTATION ( #51, #248 ) ;
#47 = CARTESIAN_POINT ( 'NONE',  ( 72.76282994620066802, 81.99395108154649847, 30.72896717550653634 ) ) ;
#48 = PROPERTY_DEFINITION_REPRESENTATION ( #113, #248 ) ;
#49 = PROPERTY_DEFINITION_REPRESENTATION ( #33, #90 ) ;
#50 = APPLICATION_CONTEXT ( 'automotive_design' ) ;
#51 = PROPERTY_DEFINITION ('external definition','', #263 ) ;
#52 = AXIS2_PLACEMENT_3D ( 'NONE', #99, #34, #249 ) ;
#53 = EXTERNAL_SOURCE (IDENTIFIER('') ) ;
#54 = DIRECTION ( 'NONE',  ( 0.000000000000000000, 0.000000000000000000, 1.000000000000000000 ) ) ;
#55 =( LENGTH_UNIT ( ) NAMED_UNIT ( * ) SI_UNIT ( .MILLI., .METRE. ) );
#56 = APPLIED_DOCUMENT_REFERENCE ( #36,'',( #161) ) ;
#57 = CARTESIAN_POINT ( 'NONE',  ( 0.000000000000000000, 0.000000000000000000, 0.000000000000000000 ) ) ;
#58 = PROPERTY_DEFINITION ('external definition','', #219 ) ;
#59 = IDENTIFICATION_ROLE ( 'external document id and location', $) ;
#60 = DIRECTION ( 'NONE',  ( 0.9999993804656561736, 0.001113134449984523816, -4.336808689942017736E-19 ) ) ;
#61 = PRODUCT_DEFINITION_FORMATION_WITH_SPECIFIED_SOURCE ( 'Symmetric', '', #204, .NOT_KNOWN. ) ;
#62 = DIRECTION ( 'NONE',  ( 0.0002296632404041833088, -0.2063210765989405282, 0.9784843180173357080 ) ) ;
#63 = PRODUCT_RELATED_PRODUCT_CATEGORY ( 'part', '', ( #12 ) ) ;
#64 = PRODUCT_DEFINITION_CONTEXT ( 'detailed design', #50, 'design' ) ;
#65 =( REPRESENTATION_RELATIONSHIP ('NONE','NONE', #94, #90 ) REPRESENTATION_RELATIONSHIP_WITH_TRANSFORMATION ( #222 )SHAPE_REPRESENTATION_RELATIONSHIP( ) );
#66 =( LENGTH_UNIT ( ) NAMED_UNIT ( * ) SI_UNIT ( .MILLI., .METRE. ) );
#67 = PRODUCT_CONTEXT ( 'NONE', #87, 'mechanical' ) ;
#68 = CONTEXT_DEPENDENT_SHAPE_REPRESENTATION ( #65, #264 ) ;
#69 =( GEOMETRIC_REPRESENTATION_CONTEXT ( 3 ) GLOBAL_UNCERTAINTY_ASSIGNED_CONTEXT ( ( #213 ) ) GLOBAL_UNIT_ASSIGNED_CONTEXT ( ( #66, #230, #84 ) ) REPRESENTATION_CONTEXT ( 'NONE', 'WORKASPACE' ) );
#70 = APPLIED_DOCUMENT_REFERENCE ( #263,'',( #147) ) ;
#71 = SHAPE_DEFINITION_REPRESENTATION ( #122, #90 ) ;
#72 = PROPERTY_DEFINITION_REPRESENTATION ( #23, #28 ) ;
#73 = PRODUCT_DEFINITION_SHAPE ( 'NONE', 'NONE',  #274 ) ;
#74 = OBJECT_ROLE ('mandatory',$ ) ;
#75 = DIRECTION ( 'NONE',  ( 0.000000000000000000, 0.000000000000000000, 1.000000000000000000 ) ) ;
#76 = AXIS2_PLACEMENT_3D ( 'NONE', #106, #212, #128 ) ;
#77 = PROPERTY_DEFINITION ('document property','', #135 ) ;
#78 = AXIS2_PLACEMENT_3D ( 'NONE', #194, #235, #192 ) ;
#79 = APPLIED_DOCUMENT_REFERENCE ( #135,'',( #115) ) ;
#80 = CARTESIAN_POINT ( 'NONE',  ( 35.19611169815126317, 81.95213424738473407, 46.72620854630361720 ) ) ;
#81 = IDENTIFICATION_ROLE ( 'external document id and location', $) ;
#82 = APPLICATION_PROTOCOL_DEFINITION ( 'draft international standard', 'automotive_design', 1998, #191 ) ;
#83 = APPLICATION_PROTOCOL_DEFINITION ( 'draft international standard', 'automotive_design', 1998, #92 ) ;
#84 =( NAMED_UNIT ( * ) SI_UNIT ( $, .STERADIAN. ) SOLID_ANGLE_UNIT ( ) );
#85 = PRODUCT_RELATED_PRODUCT_CATEGORY ( 'part', '', ( #6 ) ) ;
#86 = DOCUMENT_FILE ( '6432K12_Set Screw Shaft Collar_6432K12.STEP' , '', '', #220, '' ,$ ) ;
#87 = APPLICATION_CONTEXT ( 'automotive_design' ) ;
#88 = ITEM_DEFINED_TRANSFORMATION ( 'NONE', 'NONE', #78,  #40 ) ;
#89 = AXIS2_PLACEMENT_3D ( 'NONE', #190, #216, #171 ) ;
#90 = SHAPE_REPRESENTATION ( '1886K1_Rotary Shaft_1886K1', ( #139 ), #165 ) ;
#91 = PRODUCT_DEFINITION_SHAPE ( 'NONE', 'NONE',  #161 ) ;
#92 = APPLICATION_CONTEXT ( 'automotive_design' ) ;
#93 = ROLE_ASSOCIATION ( #37, #79 ) ;
#94 = SHAPE_REPRESENTATION ( 'outlet_subassembly', ( #130, #156, #178, #76, #169, #21, #78, #89 ), #69 ) ;
#95 = DOCUMENT_TYPE ( 'geometry' ) ;
#96 = PRODUCT_DEFINITION_SHAPE ( 'NONE', 'NONE',  #115 ) ;
#97 =( NAMED_UNIT ( * ) SI_UNIT ( $, .STERADIAN. ) SOLID_ANGLE_UNIT ( ) );
#98 = PRODUCT_DEFINITION_SHAPE ( 'NONE', 'NONE',  #273 ) ;
#99 = CARTESIAN_POINT ( 'NONE',  ( 0.000000000000000000, 0.000000000000000000, 0.000000000000000000 ) ) ;
#100 = PRODUCT_DEFINITION_FORMATION_WITH_SPECIFIED_SOURCE ( 'Symmetric', '', #118, .NOT_KNOWN. ) ;
#101 = DIRECTION ( 'NONE',  ( -0.9999993804656561736, -0.001113134449984887675, -3.422487445357835778E-16 ) ) ;
#102 = PRODUCT_DEFINITION_CONTEXT ( 'detailed design', #191, 'design' ) ;
#103 =( NAMED_UNIT ( * ) SI_UNIT ( $, .STERADIAN. ) SOLID_ANGLE_UNIT ( ) );
#104 = OBJECT_ROLE ('mandatory',$ ) ;
#105 = CARTESIAN_POINT ( 'NONE',  ( 29.43573531569941437, 81.94572217001538661, 46.72620854630459064 ) ) ;
#106 = CARTESIAN_POINT ( 'NONE',  ( 72.87142333854995968, 81.99407196066744064, 46.72620854630358878 ) ) ;
#107 = APPLICATION_CONTEXT ( 'automotive_design' ) ;
#108 = ITEM_DEFINED_TRANSFORMATION ( 'NONE', 'NONE', #156,  #271 ) ;
#109 = PRODUCT_DEFINITION ( 'General', '', #3, #102 ) ;
#110 = UNCERTAINTY_MEASURE_WITH_UNIT (LENGTH_MEASURE( 1.000000000000000082E-05 ), #35, 'distance_accuracy_value', 'NONE');
#111 = PRODUCT_DEFINITION_FORMATION_WITH_SPECIFIED_SOURCE ( 'Symmetric', '', #160, .NOT_KNOWN. ) ;
#112 = SHAPE_DEFINITION_REPRESENTATION ( #266, #248 ) ;
#113 = PROPERTY_DEFINITION ('document property','', #263 ) ;
#114 = PROPERTY_DEFINITION_REPRESENTATION ( #265, #26 ) ;
#115 = PRODUCT_DEFINITION ( 'General', '', #100, #64 ) ;
#116 = PRODUCT_DEFINITION_SHAPE ( 'NONE', 'NONE',  #277 ) ;
#117 = PROPERTY_DEFINITION_REPRESENTATION ( #223, #28 ) ;
#118 = PRODUCT ( '57155K336_Stainless Steel Ball Bearing_57155K336', '57155K336_Stainless Steel Ball Bearing_57155K336', '', ( #67 ) ) ;
#119 = OBJECT_ROLE ('mandatory',$ ) ;
#120 = ITEM_DEFINED_TRANSFORMATION ( 'NONE', 'NONE', #89,  #239 ) ;
#121 = DIRECTION ( 'NONE',  ( 1.000000000000000000, 4.429638872090642462E-33, 0.000000000000000000 ) ) ;
#122 = PRODUCT_DEFINITION_SHAPE ( 'NONE', 'NONE',  #174 ) ;
#123 = CARTESIAN_POINT ( 'NONE',  ( 0.000000000000000000, 0.000000000000000000, 0.000000000000000000 ) ) ;
#124 = PRODUCT_RELATED_PRODUCT_CATEGORY ( 'part', '', ( #118 ) ) ;
#125 = DIRECTION ( 'NONE',  ( 1.000000000000000000, 0.000000000000000000, 0.000000000000000000 ) ) ;
#126 = DOCUMENT_TYPE ( 'geometry' ) ;
#127 =( GEOMETRIC_REPRESENTATION_CONTEXT ( 3 ) GLOBAL_UNCERTAINTY_ASSIGNED_CONTEXT ( ( #209 ) ) GLOBAL_UNIT_ASSIGNED_CONTEXT ( ( #13, #250, #103 ) ) REPRESENTATION_CONTEXT ( 'NONE', 'WORKASPACE' ) );
#128 = DIRECTION ( 'NONE',  ( 0.0009805381511760443217, -0.8808797029976528359, 0.4733391885230940344 ) ) ;
#129 = DIRECTION ( 'NONE',  ( 1.000000000000000000, 0.000000000000000000, 0.000000000000000000 ) ) ;
#130 = AXIS2_PLACEMENT_3D ( 'NONE', #268, #131, #214 ) ;
#131 = DIRECTION ( 'NONE',  ( 0.000000000000000000, 0.000000000000000000, 1.000000000000000000 ) ) ;
#132 = CONTEXT_DEPENDENT_SHAPE_REPRESENTATION ( #17, #116 ) ;
#133 = EXTERNAL_SOURCE (IDENTIFIER('') ) ;
#134 = APPLIED_DOCUMENT_REFERENCE ( #198,'',( #115) ) ;
#135 = DOCUMENT_FILE ( '57155K336_Stainless Steel Ball Bearing_57155K336.STEP' , '', '', #138, '' ,$ ) ;
#136 = APPLICATION_PROTOCOL_DEFINITION ( 'draft international standard', 'automotive_design', 1998, #107 ) ;
#137 = ROLE_ASSOCIATION ( #8, #20 ) ;
#138 = DOCUMENT_TYPE ( 'geometry' ) ;
#139 = AXIS2_PLACEMENT_3D ( 'NONE', #32, #54, #226 ) ;
#140 = CONTEXT_DEPENDENT_SHAPE_REPRESENTATION ( #269, #141 ) ;
#141 = PRODUCT_DEFINITION_SHAPE ( 'NONE', 'NONE',  #278 ) ;
#142 = SHAPE_REPRESENTATION ( 'Assem1^outlet_subassembly', ( #239 ), #234 ) ;
#143 = CARTESIAN_POINT ( 'NONE',  ( 0.000000000000000000, 0.000000000000000000, 0.000000000000000000 ) ) ;
#144 = ROLE_ASSOCIATION ( #74, #56 ) ;
#145 =( NAMED_UNIT ( * ) PLANE_ANGLE_UNIT ( ) SI_UNIT ( $, .RADIAN. ) );
#146 = UNCERTAINTY_MEASURE_WITH_UNIT (LENGTH_MEASURE( 1.000000000000000082E-05 ), #151, 'distance_accuracy_value', 'NONE');
#147 = PRODUCT_DEFINITION ( 'General', '', #61, #152 ) ;
#148 =( GEOMETRIC_REPRESENTATION_CONTEXT ( 3 ) GLOBAL_UNCERTAINTY_ASSIGNED_CONTEXT ( ( #110 ) ) GLOBAL_UNIT_ASSIGNED_CONTEXT ( ( #35, #163, #97 ) ) REPRESENTATION_CONTEXT ( 'NONE', 'WORKASPACE' ) );
#149 = DIRECTION ( 'NONE',  ( 6.441825050697288444E-06, -0.005787100614714985394, -0.9999832545722842081 ) ) ;
#150 = APPLIED_EXTERNAL_IDENTIFICATION_ASSIGNMENT ( '8585K391_Impact-Resistant Polycarbonate Round Tube_8585K391.STEP' , #22, #182,( #263) ) ;
#151 =( LENGTH_UNIT ( ) NAMED_UNIT ( * ) SI_UNIT ( .MILLI., .METRE. ) );
#152 = PRODUCT_DEFINITION_CONTEXT ( 'detailed design', #14, 'design' ) ;
#153 = PROPERTY_DEFINITION_REPRESENTATION ( #30, #90 ) ;
#154 = APPLICATION_PROTOCOL_DEFINITION ( 'draft international standard', 'automotive_design', 1998, #228 ) ;
#155 =( REPRESENTATION_RELATIONSHIP ('NONE','NONE', #94, #248 ) REPRESENTATION_RELATIONSHIP_WITH_TRANSFORMATION ( #108 )SHAPE_REPRESENTATION_RELATIONSHIP( ) );
#156 = AXIS2_PLACEMENT_3D ( 'NONE', #47, #253, #121 ) ;
#157 = SHAPE_DEFINITION_REPRESENTATION ( #246, #28 ) ;
#158 = APPLICATION_PROTOCOL_DEFINITION ( 'draft international standard', 'automotive_design', 1998, #210 ) ;
#159 = CONTEXT_DEPENDENT_SHAPE_REPRESENTATION ( #215, #180 ) ;
#160 = PRODUCT ( 'Assem1^outlet_subassembly', 'Assem1^outlet_subassembly', '', ( #42 ) ) ;
#161 = PRODUCT_DEFINITION ( 'General', '', #111, #251 ) ;
#162 = APPLICATION_CONTEXT ( 'automotive_design' ) ;
#163 =( NAMED_UNIT ( * ) PLANE_ANGLE_UNIT ( ) SI_UNIT ( $, .RADIAN. ) );
#164 = PRODUCT_DEFINITION_SHAPE ( 'NONE', 'NONE',  #109 ) ;
#165 =( GEOMETRIC_REPRESENTATION_CONTEXT ( 3 ) GLOBAL_UNCERTAINTY_ASSIGNED_CONTEXT ( ( #177 ) ) GLOBAL_UNIT_ASSIGNED_CONTEXT ( ( #189, #7, #10 ) ) REPRESENTATION_CONTEXT ( 'NONE', 'WORKASPACE' ) );
#166 =( NAMED_UNIT ( * ) SI_UNIT ( $, .STERADIAN. ) SOLID_ANGLE_UNIT ( ) );
#167 =( REPRESENTATION_RELATIONSHIP ('NONE','NONE', #94, #142 ) REPRESENTATION_RELATIONSHIP_WITH_TRANSFORMATION ( #120 )SHAPE_REPRESENTATION_RELATIONSHIP( ) );
#168 =( NAMED_UNIT ( * ) SI_UNIT ( $, .STERADIAN. ) SOLID_ANGLE_UNIT ( ) );
#169 = AXIS2_PLACEMENT_3D ( 'NONE', #80, #60, #149 ) ;
#170 = SHAPE_DEFINITION_REPRESENTATION ( #164, #94 ) ;
#171 = DIRECTION ( 'NONE',  ( 1.000000000000000000, 4.429638872090642462E-33, 0.000000000000000000 ) ) ;
#172 = PRODUCT_DEFINITION_CONTEXT ( 'detailed design', #217, 'design' ) ;
#173 =( REPRESENTATION_RELATIONSHIP ('NONE','NONE', #94, #28 ) REPRESENTATION_RELATIONSHIP_WITH_TRANSFORMATION ( #203 )SHAPE_REPRESENTATION_RELATIONSHIP( ) );
#174 = PRODUCT_DEFINITION ( 'General', '', #202, #257 ) ;
#175 = APPLICATION_PROTOCOL_DEFINITION ( 'draft international standard', 'automotive_design', 1998, #217 ) ;
#176 = ITEM_DEFINED_TRANSFORMATION ( 'NONE', 'NONE', #21,  #52 ) ;
#177 = UNCERTAINTY_MEASURE_WITH_UNIT (LENGTH_MEASURE( 1.000000000000000082E-05 ), #189, 'distance_accuracy_value', 'NONE');
#178 = AXIS2_PLACEMENT_3D ( 'NONE', #44, #101, #211 ) ;
#179 = CONTEXT_DEPENDENT_SHAPE_REPRESENTATION ( #155, #98 ) ;
#180 = PRODUCT_DEFINITION_SHAPE ( 'NONE', 'NONE',  #276 ) ;
#181 = APPLIED_DOCUMENT_REFERENCE ( #86,'',( #260) ) ;
#182 = EXTERNAL_SOURCE (IDENTIFIER('') ) ;
#183 = PRODUCT ( '6432K12_Set Screw Shaft Collar_6432K12', '6432K12_Set Screw Shaft Collar_6432K12', '', ( #5 ) ) ;
#184 = DIRECTION ( 'NONE',  ( 0.000000000000000000, 0.000000000000000000, 1.000000000000000000 ) ) ;
#185 = APPLIED_EXTERNAL_IDENTIFICATION_ASSIGNMENT ( '6432K12_Set Screw Shaft Collar_6432K12.STEP' , #187, #206,( #86) ) ;
#186 = PROPERTY_DEFINITION ('external definition','', #135 ) ;
#187 = IDENTIFICATION_ROLE ( 'external document id and location', $) ;
#188 = CONTEXT_DEPENDENT_SHAPE_REPRESENTATION ( #167, #241 ) ;
#189 =( LENGTH_UNIT ( ) NAMED_UNIT ( * ) SI_UNIT ( .MILLI., .METRE. ) );
#190 = CARTESIAN_POINT ( 'NONE',  ( 0.000000000000000000, 0.000000000000000000, 0.000000000000000000 ) ) ;
#191 = APPLICATION_CONTEXT ( 'automotive_design' ) ;
#192 = DIRECTION ( 'NONE',  ( 0.0005635585609961909354, -0.5062804514404287692, -0.8623687070453238679 ) ) ;
#193 =( NAMED_UNIT ( * ) PLANE_ANGLE_UNIT ( ) SI_UNIT ( $, .RADIAN. ) );
#194 = CARTESIAN_POINT ( 'NONE',  ( 110.3504291051300896, 82.03579115898401142, 46.72620854630364562 ) ) ;
#195 = SHAPE_DEFINITION_REPRESENTATION ( #91, #142 ) ;
#196 = APPLICATION_PROTOCOL_DEFINITION ( 'draft international standard', 'automotive_design', 1998, #256 ) ;
#197 = PRODUCT_RELATED_PRODUCT_CATEGORY ( 'part', '', ( #160 ) ) ;
#198 = DOCUMENT_FILE ( '57155K336_Stainless Steel Ball Bearing_57155K336.STEP' , '', '', #41, '' ,$ ) ;
#199 = PROPERTY_DEFINITION ('external definition','', #36 ) ;
#200 = ROLE_ASSOCIATION ( #119, #70 ) ;
#201 = PROPERTY_DEFINITION_REPRESENTATION ( #244, #28 ) ;
#202 = PRODUCT_DEFINITION_FORMATION_WITH_SPECIFIED_SOURCE ( 'Symmetric', '', #6, .NOT_KNOWN. ) ;
#203 = ITEM_DEFINED_TRANSFORMATION ( 'NONE', 'NONE', #178,  #52 ) ;
#204 = PRODUCT ( '8585K391_Impact-Resistant Polycarbonate Round Tube_8585K391', '8585K391_Impact-Resistant Polycarbonate Round Tube_8585K391', '', ( #27 ) ) ;
#205 = PROPERTY_DEFINITION_REPRESENTATION ( #199, #142 ) ;
#206 = EXTERNAL_SOURCE (IDENTIFIER('') ) ;
#207 = APPLIED_EXTERNAL_IDENTIFICATION_ASSIGNMENT ( '6432K12_Set Screw Shaft Collar_6432K12.STEP' , #247, #231,( #219) ) ;
#208 = DIRECTION ( 'NONE',  ( 1.000000000000000000, 0.000000000000000000, 0.000000000000000000 ) ) ;
#209 = UNCERTAINTY_MEASURE_WITH_UNIT (LENGTH_MEASURE( 1.000000000000000082E-05 ), #13, 'distance_accuracy_value', 'NONE');
#210 = APPLICATION_CONTEXT ( 'automotive_design' ) ;
#211 = DIRECTION ( 'NONE',  ( 0.0003298027770849906726, -0.2962827830597175027, 0.9551002061001329091 ) ) ;
#212 = DIRECTION ( 'NONE',  ( 0.9999993804656562846, 0.001113134449984889626, 3.406529344631564760E-16 ) ) ;
#213 = UNCERTAINTY_MEASURE_WITH_UNIT (LENGTH_MEASURE( 1.000000000000000082E-05 ), #66, 'distance_accuracy_value', 'NONE');
#214 = DIRECTION ( 'NONE',  ( 1.000000000000000000, 0.000000000000000000, 0.000000000000000000 ) ) ;
#215 =( REPRESENTATION_RELATIONSHIP ('NONE','NONE', #94, #26 ) REPRESENTATION_RELATIONSHIP_WITH_TRANSFORMATION ( #238 )SHAPE_REPRESENTATION_RELATIONSHIP( ) );
#216 = DIRECTION ( 'NONE',  ( 0.000000000000000000, 0.000000000000000000, 0.9999999999999998890 ) ) ;
#217 = APPLICATION_CONTEXT ( 'automotive_design' ) ;
#218 = CONTEXT_DEPENDENT_SHAPE_REPRESENTATION ( #173, #73 ) ;
#219 = DOCUMENT_FILE ( '6432K12_Set Screw Shaft Collar_6432K12.STEP' , '', '', #45, '' ,$ ) ;
#220 = DOCUMENT_TYPE ( 'geometry' ) ;
#221 = SHAPE_DEFINITION_REPRESENTATION ( #96, #26 ) ;
#222 = ITEM_DEFINED_TRANSFORMATION ( 'NONE', 'NONE', #76,  #139 ) ;
#223 = PROPERTY_DEFINITION ('document property','', #219 ) ;
#224 = PRODUCT_RELATED_PRODUCT_CATEGORY ( 'part', '', ( #204 ) ) ;
#225 = PROPERTY_DEFINITION ('document property','', #198 ) ;
#226 = DIRECTION ( 'NONE',  ( 1.000000000000000000, 0.000000000000000000, 0.000000000000000000 ) ) ;
#227 = APPLIED_EXTERNAL_IDENTIFICATION_ASSIGNMENT ( '57155K336_Stainless Steel Ball Bearing_57155K336.STEP' , #59, #236,( #135) ) ;
#228 = APPLICATION_CONTEXT ( 'automotive_design' ) ;
#229 = PROPERTY_DEFINITION_REPRESENTATION ( #77, #26 ) ;
#230 =( NAMED_UNIT ( * ) PLANE_ANGLE_UNIT ( ) SI_UNIT ( $, .RADIAN. ) );
#231 = EXTERNAL_SOURCE (IDENTIFIER('') ) ;
#232 = APPLICATION_PROTOCOL_DEFINITION ( 'draft international standard', 'automotive_design', 1998, #87 ) ;
#233 = DIRECTION ( 'NONE',  ( -0.9999993804656562846, -0.001113134449984889409, -3.408613045681810338E-16 ) ) ;
#234 =( GEOMETRIC_REPRESENTATION_CONTEXT ( 3 ) GLOBAL_UNCERTAINTY_ASSIGNED_CONTEXT ( ( #146 ) ) GLOBAL_UNIT_ASSIGNED_CONTEXT ( ( #151, #193, #168 ) ) REPRESENTATION_CONTEXT ( 'NONE', 'WORKASPACE' ) );
#235 = DIRECTION ( 'NONE',  ( -0.9999993804656560625, -0.001113134449984617491, -2.342960894741175082E-16 ) ) ;
#236 = EXTERNAL_SOURCE (IDENTIFIER('') ) ;
#237 = APPLICATION_PROTOCOL_DEFINITION ( 'draft international standard', 'automotive_design', 1998, #14 ) ;
#238 = ITEM_DEFINED_TRANSFORMATION ( 'NONE', 'NONE', #169,  #40 ) ;
#239 = AXIS2_PLACEMENT_3D ( 'NONE', #57, #75, #129 ) ;
#240 = APPLICATION_PROTOCOL_DEFINITION ( 'draft international standard', 'automotive_design', 1998, #50 ) ;
#241 = PRODUCT_DEFINITION_SHAPE ( 'NONE', 'NONE',  #279 ) ;
#242 = EXTERNAL_SOURCE (IDENTIFIER('') ) ;
#243 = APPLIED_DOCUMENT_REFERENCE ( #258,'',( #174) ) ;
#244 = PROPERTY_DEFINITION ('external definition','', #86 ) ;
#245 = PROPERTY_DEFINITION_REPRESENTATION ( #225, #26 ) ;
#246 = PRODUCT_DEFINITION_SHAPE ( 'NONE', 'NONE',  #260 ) ;
#247 = IDENTIFICATION_ROLE ( 'external document id and location', $) ;
#248 = SHAPE_REPRESENTATION ( '8585K391_Impact-Resistant Polycarbonate Round Tube_8585K391', ( #271 ), #148 ) ;
#249 = DIRECTION ( 'NONE',  ( 1.000000000000000000, 0.000000000000000000, 0.000000000000000000 ) ) ;
#250 =( NAMED_UNIT ( * ) PLANE_ANGLE_UNIT ( ) SI_UNIT ( $, .RADIAN. ) );
#251 = PRODUCT_DEFINITION_CONTEXT ( 'detailed design', #259, 'design' ) ;
#252 = APPLIED_EXTERNAL_IDENTIFICATION_ASSIGNMENT ( '1886K1_Rotary Shaft_1886K1.STEP' , #272, #133,( #258) ) ;
#253 = DIRECTION ( 'NONE',  ( 0.000000000000000000, 0.000000000000000000, 0.9999999999999998890 ) ) ;
#254 = IDENTIFICATION_ROLE ( 'external document id and location', $) ;
#255 = APPLICATION_PROTOCOL_DEFINITION ( 'draft international standard', 'automotive_design', 1998, #162 ) ;
#256 = APPLICATION_CONTEXT ( 'automotive_design' ) ;
#257 = PRODUCT_DEFINITION_CONTEXT ( 'detailed design', #256, 'design' ) ;
#258 = DOCUMENT_FILE ( '1886K1_Rotary Shaft_1886K1.STEP' , '', '', #126, '' ,$ ) ;
#259 = APPLICATION_CONTEXT ( 'automotive_design' ) ;
#260 = PRODUCT_DEFINITION ( 'General', '', #43, #172 ) ;
#261 = PRODUCT_CONTEXT ( 'NONE', #107, 'mechanical' ) ;
#262 = APPLIED_EXTERNAL_IDENTIFICATION_ASSIGNMENT ( 'Assem1^outlet_subassembly.STEP' , #81, #53,( #36) ) ;
#263 = DOCUMENT_FILE ( '8585K391_Impact-Resistant Polycarbonate Round Tube_8585K391.STEP' , '', '', #270, '' ,$ ) ;
#264 = PRODUCT_DEFINITION_SHAPE ( 'NONE', 'NONE',  #275 ) ;
#265 = PROPERTY_DEFINITION ('external definition','', #198 ) ;
#266 = PRODUCT_DEFINITION_SHAPE ( 'NONE', 'NONE',  #147 ) ;
#267 = PROPERTY_DEFINITION_REPRESENTATION ( #11, #142 ) ;
#268 = CARTESIAN_POINT ( 'NONE',  ( 0.000000000000000000, 0.000000000000000000, 0.000000000000000000 ) ) ;
#269 =( REPRESENTATION_RELATIONSHIP ('NONE','NONE', #94, #26 ) REPRESENTATION_RELATIONSHIP_WITH_TRANSFORMATION ( #88 )SHAPE_REPRESENTATION_RELATIONSHIP( ) );
#270 = DOCUMENT_TYPE ( 'geometry' ) ;
#271 = AXIS2_PLACEMENT_3D ( 'NONE', #123, #184, #208 ) ;
#272 = IDENTIFICATION_ROLE ( 'external document id and location', $) ;
#273 = NEXT_ASSEMBLY_USAGE_OCCURRENCE ( 'NAUO39', ' ', ' ', #109, #147, $ ) ;
#274 = NEXT_ASSEMBLY_USAGE_OCCURRENCE ( 'NAUO40', ' ', ' ', #109, #260, $ ) ;
#275 = NEXT_ASSEMBLY_USAGE_OCCURRENCE ( 'NAUO41', ' ', ' ', #109, #174, $ ) ;
#276 = NEXT_ASSEMBLY_USAGE_OCCURRENCE ( 'NAUO42', ' ', ' ', #109, #115, $ ) ;
#277 = NEXT_ASSEMBLY_USAGE_OCCURRENCE ( 'NAUO43', ' ', ' ', #109, #260, $ ) ;
#278 = NEXT_ASSEMBLY_USAGE_OCCURRENCE ( 'NAUO44', ' ', ' ', #109, #115, $ ) ;
#279 = NEXT_ASSEMBLY_USAGE_OCCURRENCE ( 'NAUO45', ' ', ' ', #109, #161, $ ) ;
ENDSEC;
END-ISO-10303-21;
