ISO-10303-21;
HEADER;
FILE_DESCRIPTION (( 'STEP AP214' ),
    '1' );
FILE_NAME ('plate_interface.STEP',
    '2026-09-04T22:08:38',
    ( '' ),
    ( '' ),
    'SwSTEP 2.0',
    'SolidWorks 2026',
    '' );
FILE_SCHEMA (( 'AUTOMOTIVE_DESIGN' ));
ENDSEC;

DATA;
#1 = CARTESIAN_POINT ( 'NONE',  ( -25.00000000000000711, 8.000000000000000000, 55.00000000000000000 ) ) ;
#2 = EDGE_CURVE ( 'NONE', #477, #178, #168, .T. ) ;
#3 = CARTESIAN_POINT ( 'NONE',  ( -25.00000000000000711, 8.000000000000000000, 55.00000000000000000 ) ) ;
#4 = CARTESIAN_POINT ( 'NONE',  ( -54.98856632721125237, 6.813130103303720375, 25.99080893013412918 ) ) ;
#5 = PRODUCT_DEFINITION ( 'General', '', #412, #40 ) ;
#6 = CARTESIAN_POINT ( 'NONE',  ( -34.44096219060212860, 1.187242941331920321, 53.47800337148903083 ) ) ;
#7 = CARTESIAN_POINT ( 'NONE',  ( 0.000000000000000000, 0.000000000000000000, 0.000000000000000000 ) ) ;
#8 = CARTESIAN_POINT ( 'NONE',  ( -29.47317865992555852, 3.831338840624844089, 54.67173964631133032 ) ) ;
#9 = CARTESIAN_POINT ( 'NONE',  ( -32.76580274715321650, 0.000000000000000000, 45.01539646794587668 ) ) ;
#10 = EDGE_LOOP ( 'NONE', ( #484, #451, #143, #195 ) ) ;
#11 = DIRECTION ( 'NONE',  ( 0.000000000000000000, 0.000000000000000000, 1.000000000000000000 ) ) ;
#12 = ORIENTED_EDGE ( 'NONE', *, *, #328, .T. ) ;
#13 = CARTESIAN_POINT ( 'NONE',  ( -2.010000000000004672, 2.000000000000000000, 25.88000000000000256 ) ) ;
#14 = STYLED_ITEM ( 'NONE', ( #33 ), #15 ) ;
#15 = MANIFOLD_SOLID_BREP ( 'Cut-Extrude1', #446 ) ;
#16 = CARTESIAN_POINT ( 'NONE',  ( 0.6373555525078065109, 27.43200000000000216, 1.082000000000003181 ) ) ;
#17 = COLOUR_RGB ( '',0.4980392156862745168, 0.4980392156862745168, 0.4980392156862745168 ) ;
#18 = ORIENTED_EDGE ( 'NONE', *, *, #385, .T. ) ;
#19 = VECTOR ( 'NONE', #138, 1000.000000000000000 ) ;
#20 = CIRCLE ( 'NONE', #474, 27.43200000000000216 ) ;
#21 = DIRECTION ( 'NONE',  ( 0.000000000000000000, 0.000000000000000000, 1.000000000000000000 ) ) ;
#22 = ORIENTED_EDGE ( 'NONE', *, *, #189, .F. ) ;
#23 = CARTESIAN_POINT ( 'NONE',  ( -1.082000000000003181, 0.000000000000000000, -0.6373555525078095085 ) ) ;
#24 = DIRECTION ( 'NONE',  ( -0.000000000000000000, 1.000000000000000000, -0.000000000000000000 ) ) ;
#25 = VERTEX_POINT ( 'NONE', #492 ) ;
#26 = EDGE_CURVE ( 'NONE', #141, #103, #228, .T. ) ;
#27 = AXIS2_PLACEMENT_3D ( 'NONE', #388, #91, #396 ) ;
#28 = DIRECTION ( 'NONE',  ( 0.000000000000000000, 0.000000000000000000, 1.000000000000000000 ) ) ;
#29 = EDGE_LOOP ( 'NONE', ( #12, #298 ) ) ;
#30 = CARTESIAN_POINT ( 'NONE',  ( 1.085415007859142467, 0.002746213389361045528, 19.09218014572576649 ) ) ;
#31 = ORIENTED_EDGE ( 'NONE', *, *, #456, .T. ) ;
#32 = CARTESIAN_POINT ( 'NONE',  ( 0.8594979885269509179, 1.258055684909449973E-15, 19.06343098767187527 ) ) ;
#33 = PRESENTATION_STYLE_ASSIGNMENT (( #378 ) ) ;
#34 = CARTESIAN_POINT ( 'NONE',  ( -53.80864973844725085, 1.610243067354878654, 33.40074362174021161 ) ) ;
#35 = DIRECTION ( 'NONE',  ( 0.000000000000000000, 0.000000000000000000, 1.000000000000000000 ) ) ;
#36 = CARTESIAN_POINT ( 'NONE',  ( -22.88000000000000611, 8.000000000000000000, -0.9899999999999965494 ) ) ;
#37 = CARTESIAN_POINT ( 'NONE',  ( -19.09219628844009620, 0.002748298674090731298, -1.085541927368560255 ) ) ;
#38 = EDGE_CURVE ( 'NONE', #225, #400, #500, .T. ) ;
#39 = CARTESIAN_POINT ( 'NONE',  ( -52.26569769324858328, 0.2642428072682974083, 37.53636658938961546 ) ) ;
#40 = PRODUCT_DEFINITION_CONTEXT ( 'detailed design', #237, 'design' ) ;
#41 = CARTESIAN_POINT ( 'NONE',  ( -22.88000000000000611, 8.000000000000000000, 2.010000000000004672 ) ) ;
#42 = EDGE_CURVE ( 'NONE', #103, #448, #124, .T. ) ;
#43 = MECHANICAL_DESIGN_GEOMETRIC_PRESENTATION_REPRESENTATION (  '', ( #306 ), #185 ) ;
#44 = DIRECTION ( 'NONE',  ( 0.000000000000000000, -1.000000000000000000, 0.000000000000000000 ) ) ;
#45 = DIRECTION ( 'NONE',  ( -0.000000000000000000, -0.000000000000000000, -1.000000000000000000 ) ) ;
#46 = CIRCLE ( 'NONE', #152, 30.00000000000000000 ) ;
#47 = CARTESIAN_POINT ( 'NONE',  ( -38.90549175376347790, 0.05548501028878788377, 51.59343811686935055 ) ) ;
#48 = EDGE_CURVE ( 'NONE', #462, #326, #59, .T. ) ;
#49 =( NAMED_UNIT ( * ) PLANE_ANGLE_UNIT ( ) SI_UNIT ( $, .RADIAN. ) );
#50 = CYLINDRICAL_SURFACE ( 'NONE', #89, 2.999999999999999112 ) ;
#51 = AXIS2_PLACEMENT_3D ( 'NONE', #7, #432, #92 ) ;
#52 = DIRECTION ( 'NONE',  ( 1.000000000000000000, 0.000000000000000000, 0.000000000000000000 ) ) ;
#53 = EDGE_LOOP ( 'NONE', ( #403, #31, #480, #292 ) ) ;
#54 = SHAPE_DEFINITION_REPRESENTATION ( #498, #443 ) ;
#55 = CYLINDRICAL_SURFACE ( 'NONE', #504, 14.00000000000000000 ) ;
#56 = ORIENTED_EDGE ( 'NONE', *, *, #38, .F. ) ;
#57 = EDGE_CURVE ( 'NONE', #304, #326, #169, .T. ) ;
#58 = CARTESIAN_POINT ( 'NONE',  ( -20.00000000000000355, 27.43200000000000216, -0.6373555525078095085 ) ) ;
#59 = CIRCLE ( 'NONE', #342, 3.000000000000000888 ) ;
#60 = ORIENTED_EDGE ( 'NONE', *, *, #2, .T. ) ;
#61 = CARTESIAN_POINT ( 'NONE',  ( 19.99999999999999645, 8.000000000000000000, 19.99999999999999645 ) ) ;
#62 = AXIS2_PLACEMENT_3D ( 'NONE', #83, #283, #245 ) ;
#63 = ORIENTED_EDGE ( 'NONE', *, *, #100, .T. ) ;
#64 = UNCERTAINTY_MEASURE_WITH_UNIT (LENGTH_MEASURE( 1.000000000000000082E-05 ), #355, 'distance_accuracy_value', 'NONE');
#65 = CARTESIAN_POINT ( 'NONE',  ( 15.47266972289609122, 4.353225791485264118, 20.35710936198857723 ) ) ;
#66 = ADVANCED_FACE ( 'NONE', ( #424 ), #467, .T. ) ;
#67 = EDGE_LOOP ( 'NONE', ( #220, #294, #370, #461, #445, #434 ) ) ;
#68 = DIRECTION ( 'NONE',  ( 0.000000000000000000, -1.000000000000000000, 0.000000000000000000 ) ) ;
#69 = ORIENTED_EDGE ( 'NONE', *, *, #401, .F. ) ;
#70 = CARTESIAN_POINT ( 'NONE',  ( 19.99999999999999645, 8.000000000000000000, 19.99999999999999645 ) ) ;
#71 = ORIENTED_EDGE ( 'NONE', *, *, #229, .F. ) ;
#72 = PRODUCT ( 'plate_interface', 'plate_interface', '', ( #435 ) ) ;
#73 = DIRECTION ( 'NONE',  ( 1.000000000000000000, 0.000000000000000000, 0.000000000000000000 ) ) ;
#74 = VERTEX_POINT ( 'NONE', #203 ) ;
#75 = DIRECTION ( 'NONE',  ( -0.000000000000000000, 1.000000000000000000, -0.000000000000000000 ) ) ;
#76 = CYLINDRICAL_SURFACE ( 'NONE', #243, 14.00000000000000178 ) ;
#77 = DIRECTION ( 'NONE',  ( 0.000000000000000000, 0.000000000000000000, -1.000000000000000000 ) ) ;
#78 = DIRECTION ( 'NONE',  ( 0.000000000000000000, 0.000000000000000000, 1.000000000000000000 ) ) ;
#79 = DIRECTION ( 'NONE',  ( 0.000000000000000000, 0.000000000000000000, 1.000000000000000000 ) ) ;
#80 = DIRECTION ( 'NONE',  ( 0.000000000000000000, 1.000000000000000000, 0.000000000000000000 ) ) ;
#81 = CARTESIAN_POINT ( 'NONE',  ( -19.59017692674840205, 0.3482936490542438701, -5.085964790547003567 ) ) ;
#82 = PRESENTATION_LAYER_ASSIGNMENT (  '', '', ( #14 ) ) ;
#83 = CARTESIAN_POINT ( 'NONE',  ( -1.082000000000003181, 0.000000000000000000, 1.082000000000003181 ) ) ;
#84 = PLANE ( 'NONE',  #27 ) ;
#85 =( GEOMETRIC_REPRESENTATION_CONTEXT ( 3 ) GLOBAL_UNCERTAINTY_ASSIGNED_CONTEXT ( ( #64 ) ) GLOBAL_UNIT_ASSIGNED_CONTEXT ( ( #355, #290, #440 ) ) REPRESENTATION_CONTEXT ( 'NONE', 'WORKASPACE' ) );
#86 = CARTESIAN_POINT ( 'NONE',  ( -52.57189485993536948, 0.4172005462629758132, 36.84702709147973110 ) ) ;
#87 = VECTOR ( 'NONE', #287, 1000.000000000000000 ) ;
#88 = CARTESIAN_POINT ( 'NONE',  ( -19.03516223487619285, 0.000000000000000000, -0.6373555525078095085 ) ) ;
#89 = AXIS2_PLACEMENT_3D ( 'NONE', #210, #179, #254 ) ;
#90 = EDGE_CURVE ( 'NONE', #171, #329, #289, .T. ) ;
#91 = DIRECTION ( 'NONE',  ( 0.000000000000000000, 1.000000000000000000, 0.000000000000000000 ) ) ;
#92 = DIRECTION ( 'NONE',  ( 1.000000000000000000, 0.000000000000000000, 0.000000000000000000 ) ) ;
#93 = DIRECTION ( 'NONE',  ( -0.6139406135149203525, 0.000000000000000000, 0.7893522173763263261 ) ) ;
#94 = ADVANCED_FACE ( 'NONE', ( #236 ), #84, .T. ) ;
#95 = ORIENTED_EDGE ( 'NONE', *, *, #407, .T. ) ;
#96 = PRESENTATION_STYLE_ASSIGNMENT (( #475 ) ) ;
#97 = CARTESIAN_POINT ( 'NONE',  ( 0.6373555525078095085, 0.000000000000000000, 19.99999999999999645 ) ) ;
#98 = ORIENTED_EDGE ( 'NONE', *, *, #90, .T. ) ;
#99 = AXIS2_PLACEMENT_3D ( 'NONE', #420, #242, #79 ) ;
#100 = EDGE_CURVE ( 'NONE', #188, #225, #214, .T. ) ;
#101 = CARTESIAN_POINT ( 'NONE',  ( 0.6373555525078095085, 27.43200000000000216, 1.082000000000003181 ) ) ;
#102 = FACE_OUTER_BOUND ( 'NONE', #360, .T. ) ;
#103 = VERTEX_POINT ( 'NONE', #441 ) ;
#104 = CARTESIAN_POINT ( 'NONE',  ( -22.88000000000000611, 8.000000000000000000, 2.010000000000004672 ) ) ;
#105 = EDGE_LOOP ( 'NONE', ( #363, #213, #95, #60 ) ) ;
#106 = LINE ( 'NONE', #146, #308 ) ;
#107 = ORIENTED_EDGE ( 'NONE', *, *, #265, .F. ) ;
#108 = CARTESIAN_POINT ( 'NONE',  ( 5.085863804141233402, 0.3482768932923167582, 19.59016494598564506 ) ) ;
#109 = EDGE_LOOP ( 'NONE', ( #215, #341, #180, #253, #267, #63 ) ) ;
#110 = CARTESIAN_POINT ( 'NONE',  ( 1.532925988423159191, 0.01370913130911071559, 19.14904084025051390 ) ) ;
#111 = VECTOR ( 'NONE', #165, 999.9999999999998863 ) ;
#112 = AXIS2_PLACEMENT_3D ( 'NONE', #409, #230, #377 ) ;
#113 = CARTESIAN_POINT ( 'NONE',  ( -1.082000000000003181, 27.43200000000000216, -0.6373555525078065109 ) ) ;
#114 = ORIENTED_EDGE ( 'NONE', *, *, #90, .F. ) ;
#115 = CARTESIAN_POINT ( 'NONE',  ( -54.67385932970287854, 3.840809025668926679, 29.45940670836288078 ) ) ;
#116 = CARTESIAN_POINT ( 'NONE',  ( -27.08785362945384279, 5.728555158871319719, 54.93225985457134897 ) ) ;
#117 = LINE ( 'NONE', #1, #111 ) ;
#118 = EDGE_CURVE ( 'NONE', #304, #174, #439, .T. ) ;
#119 = CARTESIAN_POINT ( 'NONE',  ( -20.22790868516319662, 6.731292702709950504, -18.72674828751847187 ) ) ;
#120 = PLANE ( 'NONE',  #346 ) ;
#121 = EDGE_CURVE ( 'NONE', #25, #188, #402, .T. ) ;
#122 = CARTESIAN_POINT ( 'NONE',  ( -32.76580274715321650, 14.00000000000000000, 45.01539646794587668 ) ) ;
#123 = CARTESIAN_POINT ( 'NONE',  ( -20.35677010283557209, 4.112841087497517201, -15.09195610476848515 ) ) ;
#124 = CIRCLE ( 'NONE', #282, 21.08200000000000074 ) ;
#125 = CARTESIAN_POINT ( 'NONE',  ( -55.00000000000002132, 7.384006894113517738, 25.47592744184415992 ) ) ;
#126 = CARTESIAN_POINT ( 'NONE',  ( -1.082000000000003181, 8.000000000000000000, 1.082000000000003181 ) ) ;
#127 = ADVANCED_FACE ( 'NONE', ( #325 ), #323, .T. ) ;
#128 = DIRECTION ( 'NONE',  ( 0.000000000000000000, 0.000000000000000000, 1.000000000000000000 ) ) ;
#129 =( NAMED_UNIT ( * ) SI_UNIT ( $, .STERADIAN. ) SOLID_ANGLE_UNIT ( ) );
#130 = DIRECTION ( 'NONE',  ( 0.000000000000000000, 1.000000000000000000, 0.000000000000000000 ) ) ;
#131 = ORIENTED_EDGE ( 'NONE', *, *, #118, .F. ) ;
#132 = APPLICATION_PROTOCOL_DEFINITION ( 'draft international standard', 'automotive_design', 1998, #186 ) ;
#133 = CARTESIAN_POINT ( 'NONE',  ( 0.6373555525078095085, 0.000000000000000000, 19.03516223487618575 ) ) ;
#134 = EDGE_CURVE ( 'NONE', #448, #329, #487, .T. ) ;
#135 = ORIENTED_EDGE ( 'NONE', *, *, #361, .T. ) ;
#136 = FACE_OUTER_BOUND ( 'NONE', #442, .T. ) ;
#137 = ORIENTED_EDGE ( 'NONE', *, *, #269, .F. ) ;
#138 = DIRECTION ( 'NONE',  ( -1.000000000000000000, -0.000000000000000000, -0.000000000000000000 ) ) ;
#139 = ORIENTED_EDGE ( 'NONE', *, *, #48, .F. ) ;
#140 = CARTESIAN_POINT ( 'NONE',  ( 12.73020067819715528, 2.792850129836097484, 20.29230403373061620 ) ) ;
#141 = VERTEX_POINT ( 'NONE', #61 ) ;
#142 = CARTESIAN_POINT ( 'NONE',  ( -22.88000000000000611, 8.000000000000000000, 5.010000000000006004 ) ) ;
#143 = ORIENTED_EDGE ( 'NONE', *, *, #172, .F. ) ;
#144 = CARTESIAN_POINT ( 'NONE',  ( -25.00000000000000711, 0.000000000000000000, 25.00000000000000000 ) ) ;
#145 = ORIENTED_EDGE ( 'NONE', *, *, #100, .F. ) ;
#146 = CARTESIAN_POINT ( 'NONE',  ( -25.07523103821757715, 0.000000000000000000, 7.128447194645405105 ) ) ;
#147 = EDGE_CURVE ( 'NONE', #178, #477, #244, .T. ) ;
#148 = CARTESIAN_POINT ( 'NONE',  ( 4.202653056843091761, 0.2180490727974429555, 19.48330311289446826 ) ) ;
#149 = ORIENTED_EDGE ( 'NONE', *, *, #240, .T. ) ;
#150 = AXIS2_PLACEMENT_3D ( 'NONE', #499, #68, #452 ) ;
#151 = CIRCLE ( 'NONE', #460, 30.00000000000000000 ) ;
#152 = AXIS2_PLACEMENT_3D ( 'NONE', #144, #259, #415 ) ;
#153 = CARTESIAN_POINT ( 'NONE',  ( -2.010000000000004672, 2.000000000000000000, 25.88000000000000256 ) ) ;
#154 = ADVANCED_FACE ( 'NONE', ( #102 ), #369, .T. ) ;
#155 = CARTESIAN_POINT ( 'NONE',  ( -1.082000000000003181, 0.000000000000000000, 1.082000000000003181 ) ) ;
#156 = CARTESIAN_POINT ( 'NONE',  ( -19.88590487894104086, 0.9146870595379924529, -7.718728476871971722 ) ) ;
#157 = B_SPLINE_CURVE_WITH_KNOTS ( 'NONE', 3,
 ( #70, #379, #187, #65, #183, #489, #335, #140, #455, #299, #495, #301, #224, #108, #148, #337, #263, #411, #110, #30, #32, #491 ),
 .UNSPECIFIED., .F., .F.,
 ( 4, 2, 2, 2, 2, 2, 2, 2, 2, 2, 4 ),
 ( 0.000000000000000000, 0.005374411899906829555, 0.006718014874883534993, 0.008061617849860239562, 0.01074882379981364697, 0.01343602974976705784, 0.01612323569972046525, 0.01881044164967387092, 0.02015404462465057722, 0.02082584611213892864, 0.02149764759962728006 ),
 .UNSPECIFIED. ) ;
#158 = EDGE_CURVE ( 'NONE', #296, #400, #151, .T. ) ;
#159 = DIRECTION ( 'NONE',  ( -0.000000000000000000, 1.000000000000000000, -0.000000000000000000 ) ) ;
#160 = CARTESIAN_POINT ( 'NONE',  ( -33.41644427003071627, 1.603169179911578812, 53.80411842589787597 ) ) ;
#161 = VECTOR ( 'NONE', #365, 999.9999999999998863 ) ;
#162 = DIRECTION ( 'NONE',  ( 0.000000000000000000, 1.000000000000000000, 0.000000000000000000 ) ) ;
#163 = UNCERTAINTY_MEASURE_WITH_UNIT (LENGTH_MEASURE( 1.000000000000000082E-05 ), #336, 'distance_accuracy_value', 'NONE');
#164 = CARTESIAN_POINT ( 'NONE',  ( -28.85430949442839932, 4.275561434592733079, 54.75742131018247250 ) ) ;
#165 = DIRECTION ( 'NONE',  ( 0.7893522173763263261, 0.000000000000000000, -0.6139406135149204635 ) ) ;
#166 = CARTESIAN_POINT ( 'NONE',  ( -30.43273223060917587, 3.207880616677475594, 54.50577546432263176 ) ) ;
#167 = EDGE_CURVE ( 'NONE', #174, #462, #248, .T. ) ;
#168 = CIRCLE ( 'NONE', #175, 2.999999999999999112 ) ;
#169 = LINE ( 'NONE', #315, #256 ) ;
#170 = CARTESIAN_POINT ( 'NONE',  ( -19.03516223487619285, 0.000000000000000000, -0.6373555525078095085 ) ) ;
#171 = VERTEX_POINT ( 'NONE', #170 ) ;
#172 = EDGE_CURVE ( 'NONE', #25, #103, #206, .T. ) ;
#173 = CARTESIAN_POINT ( 'NONE',  ( -20.00000000000000355, 8.000000000000000000, -19.99999999999999645 ) ) ;
#174 = VERTEX_POINT ( 'NONE', #433 ) ;
#175 = AXIS2_PLACEMENT_3D ( 'NONE', #302, #408, #453 ) ;
#176 = DIRECTION ( 'NONE',  ( 0.6139406135149204635, 0.000000000000000000, -0.7893522173763264371 ) ) ;
#177 = DIRECTION ( 'NONE',  ( 0.000000000000000000, 0.000000000000000000, 1.000000000000000000 ) ) ;
#178 = VERTEX_POINT ( 'NONE', #257 ) ;
#179 = DIRECTION ( 'NONE',  ( -0.000000000000000000, 1.000000000000000000, -0.000000000000000000 ) ) ;
#180 = ORIENTED_EDGE ( 'NONE', *, *, #229, .T. ) ;
#181 = UNCERTAINTY_MEASURE_WITH_UNIT (LENGTH_MEASURE( 1.000000000000000082E-05 ), #251, 'distance_accuracy_value', 'NONE');
#182 = ADVANCED_FACE ( 'NONE', ( #393 ), #50, .F. ) ;
#183 = CARTESIAN_POINT ( 'NONE',  ( 15.09192379902227898, 4.112821007957329300, 20.35676995543120427 ) ) ;
#184 = ORIENTED_EDGE ( 'NONE', *, *, #48, .T. ) ;
#185 =( GEOMETRIC_REPRESENTATION_CONTEXT ( 3 ) GLOBAL_UNCERTAINTY_ASSIGNED_CONTEXT ( ( #181 ) ) GLOBAL_UNIT_ASSIGNED_CONTEXT ( ( #251, #49, #129 ) ) REPRESENTATION_CONTEXT ( 'NONE', 'WORKASPACE' ) );
#186 = APPLICATION_CONTEXT ( 'automotive_design' ) ;
#187 = CARTESIAN_POINT ( 'NONE',  ( 17.34167825846546762, 5.598354153213827011, 20.33198428049256989 ) ) ;
#188 = VERTEX_POINT ( 'NONE', #133 ) ;
#189 = EDGE_CURVE ( 'NONE', #329, #296, #252, .T. ) ;
#190 = DIRECTION ( 'NONE',  ( 0.000000000000000000, 0.000000000000000000, 1.000000000000000000 ) ) ;
#191 = SURFACE_SIDE_STYLE ('',( #505 ) ) ;
#192 = FACE_BOUND ( 'NONE', #488, .T. ) ;
#193 = VERTEX_POINT ( 'NONE', #13 ) ;
#194 = CARTESIAN_POINT ( 'NONE',  ( -53.12157553488311379, 0.8253555119045963284, 35.45520223855335473 ) ) ;
#195 = ORIENTED_EDGE ( 'NONE', *, *, #364, .F. ) ;
#196 = ADVANCED_FACE ( 'NONE', ( #404 ), #219, .T. ) ;
#197 = VECTOR ( 'NONE', #159, 1000.000000000000000 ) ;
#198 = DIRECTION ( 'NONE',  ( -0.7893522173763263261, 0.000000000000000000, 0.6139406135149204635 ) ) ;
#199 = CARTESIAN_POINT ( 'NONE',  ( -19.14905657813666906, 0.01371319327883555386, -1.533049979017900410 ) ) ;
#200 = CARTESIAN_POINT ( 'NONE',  ( -2.010000000000004672, 8.000000000000000000, 25.88000000000000256 ) ) ;
#201 = CARTESIAN_POINT ( 'NONE',  ( -20.24591247985404152, 2.411929978523371432, -11.92040283241389353 ) ) ;
#202 = CARTESIAN_POINT ( 'NONE',  ( -2.010000000000004228, 2.000000000000000000, 19.88000000000000611 ) ) ;
#203 = CARTESIAN_POINT ( 'NONE',  ( -1.082000000000003181, 0.000000000000000000, -0.6373555525078095085 ) ) ;
#204 = PRESENTATION_LAYER_ASSIGNMENT (  '', '', ( #306 ) ) ;
#205 = CARTESIAN_POINT ( 'NONE',  ( -55.00000000000000711, 8.000000000000000000, 25.00000000000001066 ) ) ;
#206 = CIRCLE ( 'NONE', #390, 27.43200000000000216 ) ;
#207 = ADVANCED_FACE ( 'NONE', ( #399 ), #55, .T. ) ;
#208 = CARTESIAN_POINT ( 'NONE',  ( -35.47684280942236512, 0.8182700690224736784, 53.11353666079443769 ) ) ;
#209 = CARTESIAN_POINT ( 'NONE',  ( -20.33598504592089995, 3.427086262819374785, -13.92197954109786906 ) ) ;
#210 = CARTESIAN_POINT ( 'NONE',  ( -2.010000000000004672, 2.000000000000000000, 22.88000000000000611 ) ) ;
#211 = ORIENTED_EDGE ( 'NONE', *, *, #321, .F. ) ;
#212 = CARTESIAN_POINT ( 'NONE',  ( -22.88000000000000611, 2.000000000000000000, 2.010000000000004672 ) ) ;
#213 = ORIENTED_EDGE ( 'NONE', *, *, #328, .F. ) ;
#214 = LINE ( 'NONE', #9, #161 ) ;
#215 = ORIENTED_EDGE ( 'NONE', *, *, #272, .F. ) ;
#216 = VECTOR ( 'NONE', #45, 1000.000000000000000 ) ;
#217 = DIRECTION ( 'NONE',  ( -0.000000000000000000, 1.000000000000000000, -0.000000000000000000 ) ) ;
#218 = VECTOR ( 'NONE', #465, 1000.000000000000000 ) ;
#219 = CYLINDRICAL_SURFACE ( 'NONE', #221, 30.00000000000000000 ) ;
#220 = ORIENTED_EDGE ( 'NONE', *, *, #401, .T. ) ;
#221 = AXIS2_PLACEMENT_3D ( 'NONE', #357, #291, #436 ) ;
#222 = CARTESIAN_POINT ( 'NONE',  ( -2.010000000000004228, 2.000000000000000000, 19.88000000000000611 ) ) ;
#223 = FILL_AREA_STYLE_COLOUR ( '', #454 ) ;
#224 = CARTESIAN_POINT ( 'NONE',  ( 6.843574821775082917, 0.6962537907123689251, 19.79146930784720126 ) ) ;
#225 = VERTEX_POINT ( 'NONE', #482 ) ;
#226 = ADVANCED_FACE ( 'NONE', ( #136 ), #293, .F. ) ;
#227 = CARTESIAN_POINT ( 'NONE',  ( -2.010000000000004672, 2.000000000000000000, 22.88000000000000611 ) ) ;
#228 = LINE ( 'NONE', #382, #216 ) ;
#229 = EDGE_CURVE ( 'NONE', #171, #74, #270, .T. ) ;
#230 = DIRECTION ( 'NONE',  ( 0.000000000000000000, 1.000000000000000000, 0.000000000000000000 ) ) ;
#231 = ORIENTED_EDGE ( 'NONE', *, *, #38, .T. ) ;
#232 = FACE_BOUND ( 'NONE', #397, .T. ) ;
#233 = CARTESIAN_POINT ( 'NONE',  ( -50.83551377290640971, 0.000000000000000000, 40.24881071067391503 ) ) ;
#234 = CARTESIAN_POINT ( 'NONE',  ( -39.57984598593423442, 8.766791004082006044E-17, 51.23035463224984198 ) ) ;
#235 = CARTESIAN_POINT ( 'NONE',  ( -1.082000000000003181, 8.000000000000000000, -19.99999999999999645 ) ) ;
#236 = FACE_OUTER_BOUND ( 'NONE', #271, .T. ) ;
#237 = APPLICATION_CONTEXT ( 'automotive_design' ) ;
#238 = DIRECTION ( 'NONE',  ( 0.000000000000000000, -0.000000000000000000, 1.000000000000000000 ) ) ;
#239 = CARTESIAN_POINT ( 'NONE',  ( -31.41439797760504860, 2.623023210203584199, 54.30814916075785703 ) ) ;
#240 = EDGE_CURVE ( 'NONE', #326, #462, #268, .T. ) ;
#241 = CARTESIAN_POINT ( 'NONE',  ( -51.23102288081995681, 2.219226321806259739E-16, 39.57871379631863817 ) ) ;
#242 = DIRECTION ( 'NONE',  ( 0.000000000000000000, 1.000000000000000000, -0.000000000000000000 ) ) ;
#243 = AXIS2_PLACEMENT_3D ( 'NONE', #122, #198, #311 ) ;
#244 = CIRCLE ( 'NONE', #367, 2.999999999999999112 ) ;
#245 = DIRECTION ( 'NONE',  ( 0.000000000000000000, 0.000000000000000000, -1.000000000000000000 ) ) ;
#246 = VECTOR ( 'NONE', #93, 1000.000000000000114 ) ;
#247 = CARTESIAN_POINT ( 'NONE',  ( -40.24881071067390792, 0.000000000000000000, 50.83551377290640971 ) ) ;
#248 = LINE ( 'NONE', #359, #286 ) ;
#249 = CARTESIAN_POINT ( 'NONE',  ( -20.00000000000000355, 8.000000000000000000, -19.99999999999999645 ) ) ;
#250 = VERTEX_POINT ( 'NONE', #222 ) ;
#251 =( LENGTH_UNIT ( ) NAMED_UNIT ( * ) SI_UNIT ( .MILLI., .METRE. ) );
#252 = LINE ( 'NONE', #173, #246 ) ;
#253 = ORIENTED_EDGE ( 'NONE', *, *, #364, .T. ) ;
#254 = DIRECTION ( 'NONE',  ( 0.000000000000000000, 0.000000000000000000, 1.000000000000000000 ) ) ;
#255 = ORIENTED_EDGE ( 'NONE', *, *, #147, .F. ) ;
#256 = VECTOR ( 'NONE', #322, 1000.000000000000000 ) ;
#257 = CARTESIAN_POINT ( 'NONE',  ( -2.010000000000004228, 8.000000000000000000, 19.88000000000000611 ) ) ;
#258 = EDGE_LOOP ( 'NONE', ( #413, #418, #184, #438 ) ) ;
#259 = DIRECTION ( 'NONE',  ( 0.000000000000000000, 1.000000000000000000, 0.000000000000000000 ) ) ;
#260 = ORIENTED_EDGE ( 'NONE', *, *, #172, .T. ) ;
#261 = FACE_OUTER_BOUND ( 'NONE', #53, .T. ) ;
#262 = EDGE_LOOP ( 'NONE', ( #410, #18, #494, #231 ) ) ;
#263 = CARTESIAN_POINT ( 'NONE',  ( 2.425806352217091622, 0.05471526067089888673, 19.26205421646922389 ) ) ;
#264 =( NAMED_UNIT ( * ) PLANE_ANGLE_UNIT ( ) SI_UNIT ( $, .RADIAN. ) );
#265 = EDGE_CURVE ( 'NONE', #74, #448, #20, .T. ) ;
#266 = CARTESIAN_POINT ( 'NONE',  ( -22.88000000000000611, 2.000000000000000000, 2.010000000000004672 ) ) ;
#267 = ORIENTED_EDGE ( 'NONE', *, *, #121, .T. ) ;
#268 = CIRCLE ( 'NONE', #405, 3.000000000000000888 ) ;
#269 = EDGE_CURVE ( 'NONE', #374, #171, #106, .T. ) ;
#270 = LINE ( 'NONE', #23, #485 ) ;
#271 = EDGE_LOOP ( 'NONE', ( #394, #135 ) ) ;
#272 = EDGE_CURVE ( 'NONE', #374, #225, #46, .T. ) ;
#273 = CARTESIAN_POINT ( 'NONE',  ( -52.98967799912821164, 0.7148872975960982590, 35.80362368714849453 ) ) ;
#274 = CARTESIAN_POINT ( 'NONE',  ( -19.06352529816896180, 1.439391321700808235E-15, -0.8602391022712339019 ) ) ;
#275 = CYLINDRICAL_SURFACE ( 'NONE', #366, 3.000000000000000888 ) ;
#276 = CARTESIAN_POINT ( 'NONE',  ( -20.00000000000000355, 8.000000000000000000, -19.99999999999999645 ) ) ;
#277 = CARTESIAN_POINT ( 'NONE',  ( -2.010000000000004672, 2.000000000000000000, 22.88000000000000611 ) ) ;
#278 = CARTESIAN_POINT ( 'NONE',  ( -19.48331611679576270, 0.2180632240468636240, -4.202759717699510844 ) ) ;
#279 = ADVANCED_FACE ( 'NONE', ( #261 ), #340, .F. ) ;
#280 = CARTESIAN_POINT ( 'NONE',  ( -54.50772834051265647, 3.214483342435008328, 30.42217918459951065 ) ) ;
#281 = CARTESIAN_POINT ( 'NONE',  ( -19.31801155239362799, 0.08745024949713961493, -2.871003324417965796 ) ) ;
#282 = AXIS2_PLACEMENT_3D ( 'NONE', #126, #284, #77 ) ;
#283 = DIRECTION ( 'NONE',  ( -0.000000000000000000, -1.000000000000000000, 0.000000000000000000 ) ) ;
#284 = DIRECTION ( 'NONE',  ( 0.000000000000000000, 1.000000000000000000, -0.000000000000000000 ) ) ;
#285 = CIRCLE ( 'NONE', #457, 2.999999999999999112 ) ;
#286 = VECTOR ( 'NONE', #217, 1000.000000000000000 ) ;
#287 = DIRECTION ( 'NONE',  ( -0.000000000000000000, -0.000000000000000000, 1.000000000000000000 ) ) ;
#288 = CARTESIAN_POINT ( 'NONE',  ( -25.00000000000000711, 8.000000000000000000, 25.00000000000000000 ) ) ;
#289 = B_SPLINE_CURVE_WITH_KNOTS ( 'NONE', 3,
 ( #88, #274, #37, #199, #422, #349, #281, #278, #81, #392, #156, #464, #318, #201, #352, #209, #469, #123, #356, #426, #119, #276 ),
 .UNSPECIFIED., .F., .F.,
 ( 4, 2, 2, 2, 2, 2, 2, 2, 2, 2, 4 ),
 ( -3.890734599184147877E-05, 0.0006351354121227014132, 0.001309178170237244258, 0.002657263686466331248, 0.005353434718924503927, 0.008049605751382676172, 0.01074577678384084842, 0.01344194781629901893, 0.01479003333252810505, 0.01613811884875719638, 0.02153046091367352699 ),
 .UNSPECIFIED. ) ;
#290 =( NAMED_UNIT ( * ) PLANE_ANGLE_UNIT ( ) SI_UNIT ( $, .RADIAN. ) );
#291 = DIRECTION ( 'NONE',  ( -0.000000000000000000, -1.000000000000000000, -0.000000000000000000 ) ) ;
#292 = ORIENTED_EDGE ( 'NONE', *, *, #407, .F. ) ;
#293 = CYLINDRICAL_SURFACE ( 'NONE', #347, 3.000000000000000888 ) ;
#294 = ORIENTED_EDGE ( 'NONE', *, *, #26, .T. ) ;
#295 = CARTESIAN_POINT ( 'NONE',  ( -2.010000000000004672, 8.000000000000000000, 22.88000000000000611 ) ) ;
#296 = VERTEX_POINT ( 'NONE', #493 ) ;
#297 = DIRECTION ( 'NONE',  ( 0.000000000000000000, 0.000000000000000000, 1.000000000000000000 ) ) ;
#298 = ORIENTED_EDGE ( 'NONE', *, *, #314, .T. ) ;
#299 = CARTESIAN_POINT ( 'NONE',  ( 10.27026798765018256, 1.731453949534329739, 20.12630712003149824 ) ) ;
#300 = EDGE_LOOP ( 'NONE', ( #71, #98, #416, #107 ) ) ;
#301 = CARTESIAN_POINT ( 'NONE',  ( 7.718645000733641126, 0.9146645798535176786, 19.88589618939996484 ) ) ;
#302 = CARTESIAN_POINT ( 'NONE',  ( -2.010000000000004672, 8.000000000000000000, 22.88000000000000611 ) ) ;
#303 = CARTESIAN_POINT ( 'NONE',  ( -20.00000000000000355, 8.000000000000000000, -19.99999999999999645 ) ) ;
#304 = VERTEX_POINT ( 'NONE', #406 ) ;
#305 = DIRECTION ( 'NONE',  ( 0.6139406135149203525, -0.000000000000000000, -0.7893522173763263261 ) ) ;
#306 = STYLED_ITEM ( 'NONE', ( #96 ), #443 ) ;
#307 = EDGE_LOOP ( 'NONE', ( #114, #137, #358, #22 ) ) ;
#308 = VECTOR ( 'NONE', #305, 999.9999999999998863 ) ;
#309 = PRODUCT_RELATED_PRODUCT_CATEGORY ( 'part', '', ( #72 ) ) ;
#310 = FACE_OUTER_BOUND ( 'NONE', #501, .T. ) ;
#311 = DIRECTION ( 'NONE',  ( 0.6139406135149204635, 0.000000000000000000, 0.7893522173763263261 ) ) ;
#312 = CARTESIAN_POINT ( 'NONE',  ( -31.74466908061341641, 2.439954058304825146, 54.23399637477272250 ) ) ;
#313 = DIRECTION ( 'NONE',  ( -0.000000000000000000, 1.000000000000000000, -0.000000000000000000 ) ) ;
#314 = EDGE_CURVE ( 'NONE', #250, #193, #330, .T. ) ;
#315 = CARTESIAN_POINT ( 'NONE',  ( -22.88000000000000611, 2.000000000000000000, 5.010000000000006004 ) ) ;
#316 = CARTESIAN_POINT ( 'NONE',  ( -53.36854862480926442, 1.064950199317429291, 34.76522981475705620 ) ) ;
#317 = ADVANCED_FACE ( 'NONE', ( #192, #232, #333 ), #449, .F. ) ;
#318 = CARTESIAN_POINT ( 'NONE',  ( -20.12631245735714103, 1.731478645458389254, -10.27033338415157715 ) ) ;
#319 = CARTESIAN_POINT ( 'NONE',  ( -54.93294542771740652, 5.738547986209180607, 27.07715929068358918 ) ) ;
#320 = CARTESIAN_POINT ( 'NONE',  ( -25.47422999240637864, 7.386203903698022266, 55.00000000000000000 ) ) ;
#321 = EDGE_CURVE ( 'NONE', #141, #188, #157, .T. ) ;
#322 = DIRECTION ( 'NONE',  ( -0.000000000000000000, 1.000000000000000000, -0.000000000000000000 ) ) ;
#323 = CYLINDRICAL_SURFACE ( 'NONE', #458, 27.43200000000000216 ) ;
#324 = SURFACE_STYLE_FILL_AREA ( #486 ) ;
#325 = FACE_OUTER_BOUND ( 'NONE', #300, .T. ) ;
#326 = VERTEX_POINT ( 'NONE', #142 ) ;
#327 = DIRECTION ( 'NONE',  ( -0.7893522173763264371, 0.000000000000000000, -0.6139406135149203525 ) ) ;
#328 = EDGE_CURVE ( 'NONE', #193, #250, #285, .T. ) ;
#329 = VERTEX_POINT ( 'NONE', #303 ) ;
#330 = CIRCLE ( 'NONE', #112, 2.999999999999999112 ) ;
#331 = DIRECTION ( 'NONE',  ( 0.000000000000000000, 1.000000000000000000, 0.000000000000000000 ) ) ;
#332 = ORIENTED_EDGE ( 'NONE', *, *, #26, .F. ) ;
#333 = FACE_OUTER_BOUND ( 'NONE', #67, .T. ) ;
#334 = ORIENTED_EDGE ( 'NONE', *, *, #167, .F. ) ;
#335 = CARTESIAN_POINT ( 'NONE',  ( 13.92193910593556794, 3.427063836752800352, 20.33598386775882361 ) ) ;
#336 =( LENGTH_UNIT ( ) NAMED_UNIT ( * ) SI_UNIT ( .MILLI., .METRE. ) );
#337 = CARTESIAN_POINT ( 'NONE',  ( 2.870888046752769984, 0.08744078911118981223, 19.31799712580402684 ) ) ;
#338 = AXIS2_PLACEMENT_3D ( 'NONE', #212, #331, #128 ) ;
#339 = ORIENTED_EDGE ( 'NONE', *, *, #121, .F. ) ;
#340 = CYLINDRICAL_SURFACE ( 'NONE', #368, 2.999999999999999112 ) ;
#341 = ORIENTED_EDGE ( 'NONE', *, *, #269, .T. ) ;
#342 = AXIS2_PLACEMENT_3D ( 'NONE', #41, #428, #35 ) ;
#343 = DIRECTION ( 'NONE',  ( 1.000000000000000000, -0.000000000000000000, -0.000000000000000000 ) ) ;
#344 = FILL_AREA_STYLE ('',( #223 ) ) ;
#345 = CARTESIAN_POINT ( 'NONE',  ( -53.48410878644467914, 1.194407140595499683, 34.42248613316422023 ) ) ;
#346 = AXIS2_PLACEMENT_3D ( 'NONE', #277, #80, #238 ) ;
#347 = AXIS2_PLACEMENT_3D ( 'NONE', #459, #24, #297 ) ;
#348 = CARTESIAN_POINT ( 'NONE',  ( -50.83551377290640971, 0.000000000000000000, 40.24881071067391503 ) ) ;
#349 = CARTESIAN_POINT ( 'NONE',  ( -19.26206909854062843, 0.05472302630617943697, -2.425924519735636053 ) ) ;
#350 = CARTESIAN_POINT ( 'NONE',  ( -54.44606644210250579, 3.013212016845273844, 30.74812159007927548 ) ) ;
#351 = CARTESIAN_POINT ( 'NONE',  ( -35.82462734156057138, 0.7085176675760829212, 52.98152732788495456 ) ) ;
#352 = CARTESIAN_POINT ( 'NONE',  ( -20.29230641742913122, 2.792874101800767672, -12.73024913359542332 ) ) ;
#353 = PLANE ( 'NONE',  #389 ) ;
#354 = CARTESIAN_POINT ( 'NONE',  ( -32.74231181474736019, 1.916996310996135433, 53.99180967018179444 ) ) ;
#355 =( LENGTH_UNIT ( ) NAMED_UNIT ( * ) SI_UNIT ( .MILLI., .METRE. ) );
#356 = CARTESIAN_POINT ( 'NONE',  ( -20.35710922710194026, 4.353244892733032501, -15.47269935454618661 ) ) ;
#357 = CARTESIAN_POINT ( 'NONE',  ( -25.00000000000000711, 8.000000000000000000, 25.00000000000000000 ) ) ;
#358 = ORIENTED_EDGE ( 'NONE', *, *, #385, .F. ) ;
#359 = CARTESIAN_POINT ( 'NONE',  ( -22.88000000000000611, 2.000000000000000000, -0.9899999999999965494 ) ) ;
#360 = EDGE_LOOP ( 'NONE', ( #332, #496, #339, #260 ) ) ;
#361 = EDGE_CURVE ( 'NONE', #174, #304, #429, .T. ) ;
#362 = CARTESIAN_POINT ( 'NONE',  ( -10.01539646794587668, 14.00000000000000000, -12.23419725284678883 ) ) ;
#363 = ORIENTED_EDGE ( 'NONE', *, *, #456, .F. ) ;
#364 = EDGE_CURVE ( 'NONE', #74, #25, #502, .T. ) ;
#365 = DIRECTION ( 'NONE',  ( -0.7893522173763263261, -0.000000000000000000, 0.6139406135149204635 ) ) ;
#366 = AXIS2_PLACEMENT_3D ( 'NONE', #421, #313, #78 ) ;
#367 = AXIS2_PLACEMENT_3D ( 'NONE', #295, #444, #476 ) ;
#368 = AXIS2_PLACEMENT_3D ( 'NONE', #447, #75, #371 ) ;
#369 = CYLINDRICAL_SURFACE ( 'NONE', #430, 27.43200000000000216 ) ;
#370 = ORIENTED_EDGE ( 'NONE', *, *, #42, .T. ) ;
#371 = DIRECTION ( 'NONE',  ( 0.000000000000000000, 0.000000000000000000, 1.000000000000000000 ) ) ;
#372 = ORIENTED_EDGE ( 'NONE', *, *, #240, .F. ) ;
#373 = DIRECTION ( 'NONE',  ( 0.000000000000000000, 0.000000000000000000, -1.000000000000000000 ) ) ;
#374 = VERTEX_POINT ( 'NONE', #233 ) ;
#375 = DIRECTION ( 'NONE',  ( 0.000000000000000000, 1.000000000000000000, 0.000000000000000000 ) ) ;
#376 = ORIENTED_EDGE ( 'NONE', *, *, #57, .T. ) ;
#377 = DIRECTION ( 'NONE',  ( 0.000000000000000000, 0.000000000000000000, 1.000000000000000000 ) ) ;
#378 = SURFACE_STYLE_USAGE ( .BOTH. , #191 ) ;
#379 = CARTESIAN_POINT ( 'NONE',  ( 18.72674061127917255, 6.731285053868226953, 20.22791005918970342 ) ) ;
#380 =( NAMED_UNIT ( * ) SI_UNIT ( $, .STERADIAN. ) SOLID_ANGLE_UNIT ( ) );
#381 = LINE ( 'NONE', #153, #197 ) ;
#382 = CARTESIAN_POINT ( 'NONE',  ( 19.99999999999999645, 8.000000000000000000, 1.082000000000003181 ) ) ;
#383 = LINE ( 'NONE', #202, #218 ) ;
#384 = CARTESIAN_POINT ( 'NONE',  ( -34.78470539427244290, 1.057782718787227960, 53.36185323949181480 ) ) ;
#385 = EDGE_CURVE ( 'NONE', #296, #374, #450, .T. ) ;
#386 = CARTESIAN_POINT ( 'NONE',  ( -36.86055407041838095, 0.4141268376731837009, 52.56593861783070309 ) ) ;
#387 = CARTESIAN_POINT ( 'NONE',  ( -53.99555048914122324, 1.923904507767449479, 32.72816537752157018 ) ) ;
#388 = CARTESIAN_POINT ( 'NONE',  ( -22.88000000000000611, 2.000000000000000000, 2.010000000000004672 ) ) ;
#389 = AXIS2_PLACEMENT_3D ( 'NONE', #155, #44, #503 ) ;
#390 = AXIS2_PLACEMENT_3D ( 'NONE', #16, #11, #473 ) ;
#391 = CARTESIAN_POINT ( 'NONE',  ( -54.88883018008218073, 5.235147203853205866, 27.64890447427379172 ) ) ;
#392 = CARTESIAN_POINT ( 'NONE',  ( -19.79147917230004694, 0.6962747972555419773, -6.843664579648010005 ) ) ;
#393 = FACE_OUTER_BOUND ( 'NONE', #105, .T. ) ;
#394 = ORIENTED_EDGE ( 'NONE', *, *, #118, .T. ) ;
#395 = APPLICATION_PROTOCOL_DEFINITION ( 'draft international standard', 'automotive_design', 1998, #237 ) ;
#396 = DIRECTION ( 'NONE',  ( 0.000000000000000000, -0.000000000000000000, 1.000000000000000000 ) ) ;
#397 = EDGE_LOOP ( 'NONE', ( #490, #255 ) ) ;
#398 = ADVANCED_FACE ( 'NONE', ( #463 ), #353, .T. ) ;
#399 = FACE_OUTER_BOUND ( 'NONE', #307, .T. ) ;
#400 = VERTEX_POINT ( 'NONE', #419 ) ;
#401 = EDGE_CURVE ( 'NONE', #400, #141, #117, .T. ) ;
#402 = LINE ( 'NONE', #97, #87 ) ;
#403 = ORIENTED_EDGE ( 'NONE', *, *, #314, .F. ) ;
#404 = FACE_OUTER_BOUND ( 'NONE', #262, .T. ) ;
#405 = AXIS2_PLACEMENT_3D ( 'NONE', #104, #417, #190 ) ;
#406 = CARTESIAN_POINT ( 'NONE',  ( -22.88000000000000611, 2.000000000000000000, 5.010000000000006004 ) ) ;
#407 = EDGE_CURVE ( 'NONE', #193, #477, #381, .T. ) ;
#408 = DIRECTION ( 'NONE',  ( 0.000000000000000000, 1.000000000000000000, 0.000000000000000000 ) ) ;
#409 = CARTESIAN_POINT ( 'NONE',  ( -2.010000000000004672, 2.000000000000000000, 22.88000000000000611 ) ) ;
#410 = ORIENTED_EDGE ( 'NONE', *, *, #158, .F. ) ;
#411 = CARTESIAN_POINT ( 'NONE',  ( 1.756372591092765223, 0.02192269515320544732, 19.17738820414479051 ) ) ;
#412 = PRODUCT_DEFINITION_FORMATION_WITH_SPECIFIED_SOURCE ( 'Symmetric', '', #72, .NOT_KNOWN. ) ;
#413 = ORIENTED_EDGE ( 'NONE', *, *, #361, .F. ) ;
#414 = ADVANCED_FACE ( 'NONE', ( #310 ), #76, .T. ) ;
#415 = DIRECTION ( 'NONE',  ( 0.000000000000000000, 0.000000000000000000, 1.000000000000000000 ) ) ;
#416 = ORIENTED_EDGE ( 'NONE', *, *, #134, .F. ) ;
#417 = DIRECTION ( 'NONE',  ( 0.000000000000000000, 1.000000000000000000, 0.000000000000000000 ) ) ;
#418 = ORIENTED_EDGE ( 'NONE', *, *, #167, .T. ) ;
#419 = CARTESIAN_POINT ( 'NONE',  ( -25.00000000000000711, 8.000000000000000000, 55.00000000000000000 ) ) ;
#420 = CARTESIAN_POINT ( 'NONE',  ( -1.082000000000003181, 27.43200000000000216, 1.082000000000003181 ) ) ;
#421 = CARTESIAN_POINT ( 'NONE',  ( -22.88000000000000611, 2.000000000000000000, 2.010000000000004672 ) ) ;
#422 = CARTESIAN_POINT ( 'NONE',  ( -19.17740373268030396, 0.02192770924266915916, -1.756495122300762768 ) ) ;
#423 = FACE_OUTER_BOUND ( 'NONE', #258, .T. ) ;
#424 = FACE_OUTER_BOUND ( 'NONE', #10, .T. ) ;
#425 = DIRECTION ( 'NONE',  ( 0.000000000000000000, 0.000000000000000000, 1.000000000000000000 ) ) ;
#426 = CARTESIAN_POINT ( 'NONE',  ( -20.33198300230012379, 5.598367828010209379, -17.34169494657925981 ) ) ;
#427 = CARTESIAN_POINT ( 'NONE',  ( -54.23679861299663685, 2.446606821978058122, 31.73247569106225185 ) ) ;
#428 = DIRECTION ( 'NONE',  ( 0.000000000000000000, 1.000000000000000000, 0.000000000000000000 ) ) ;
#429 = CIRCLE ( 'NONE', #483, 3.000000000000000888 ) ;
#430 = AXIS2_PLACEMENT_3D ( 'NONE', #101, #21, #479 ) ;
#431 = DIRECTION ( 'NONE',  ( 0.000000000000000000, 0.000000000000000000, -1.000000000000000000 ) ) ;
#432 = DIRECTION ( 'NONE',  ( 0.000000000000000000, 0.000000000000000000, 1.000000000000000000 ) ) ;
#433 = CARTESIAN_POINT ( 'NONE',  ( -22.88000000000000611, 2.000000000000000000, -0.9899999999999965494 ) ) ;
#434 = ORIENTED_EDGE ( 'NONE', *, *, #158, .T. ) ;
#435 = PRODUCT_CONTEXT ( 'NONE', #186, 'mechanical' ) ;
#436 = DIRECTION ( 'NONE',  ( 0.000000000000000000, 0.000000000000000000, -1.000000000000000000 ) ) ;
#437 = ADVANCED_FACE ( 'NONE', ( #423 ), #275, .F. ) ;
#438 = ORIENTED_EDGE ( 'NONE', *, *, #57, .F. ) ;
#439 = CIRCLE ( 'NONE', #338, 3.000000000000000888 ) ;
#440 =( NAMED_UNIT ( * ) SI_UNIT ( $, .STERADIAN. ) SOLID_ANGLE_UNIT ( ) );
#441 = CARTESIAN_POINT ( 'NONE',  ( 19.99999999999999645, 8.000000000000000000, 1.082000000000003181 ) ) ;
#442 = EDGE_LOOP ( 'NONE', ( #334, #131, #376, #149 ) ) ;
#443 = ADVANCED_BREP_SHAPE_REPRESENTATION ( 'plate_interface', ( #15, #51 ), #85 ) ;
#444 = DIRECTION ( 'NONE',  ( 0.000000000000000000, 1.000000000000000000, 0.000000000000000000 ) ) ;
#445 = ORIENTED_EDGE ( 'NONE', *, *, #189, .T. ) ;
#446 = CLOSED_SHELL ( 'NONE', ( #437, #279, #196, #317, #398, #127, #66, #154, #207, #414, #182, #508, #226, #94 ) ) ;
#447 = CARTESIAN_POINT ( 'NONE',  ( -2.010000000000004672, 2.000000000000000000, 22.88000000000000611 ) ) ;
#448 = VERTEX_POINT ( 'NONE', #235 ) ;
#449 = PLANE ( 'NONE',  #150 ) ;
#450 = B_SPLINE_CURVE_WITH_KNOTS ( 'NONE', 3,
 ( #205, #125, #4, #319, #391, #509, #115, #280, #350, #470, #427, #387, #34, #345, #316, #194, #273, #86, #39, #506, #241, #348 ),
 .UNSPECIFIED., .F., .F.,
 ( 4, 2, 2, 2, 2, 2, 2, 2, 2, 2, 4 ),
 ( 0.000000000000000000, 0.002289054814837222871, 0.004578109629674445742, 0.006867164444511669047, 0.008011691851930284602, 0.009156219259348900158, 0.01144527407418613127, 0.01258980148160474682, 0.01373432888902336238, 0.01602338370386060390, 0.01831243851869784889 ),
 .UNSPECIFIED. ) ;
#451 = ORIENTED_EDGE ( 'NONE', *, *, #42, .F. ) ;
#452 = DIRECTION ( 'NONE',  ( 0.000000000000000000, -0.000000000000000000, -1.000000000000000000 ) ) ;
#453 = DIRECTION ( 'NONE',  ( 0.000000000000000000, 0.000000000000000000, 1.000000000000000000 ) ) ;
#454 = COLOUR_RGB ( '',0.4980392156862745168, 0.4980392156862745168, 0.4980392156862745168 ) ;
#455 = CARTESIAN_POINT ( 'NONE',  ( 11.92034885267436728, 2.411905446549095444, 20.24590916453027845 ) ) ;
#456 = EDGE_CURVE ( 'NONE', #250, #178, #383, .T. ) ;
#457 = AXIS2_PLACEMENT_3D ( 'NONE', #227, #375, #28 ) ;
#458 = AXIS2_PLACEMENT_3D ( 'NONE', #58, #52, #431 ) ;
#459 = CARTESIAN_POINT ( 'NONE',  ( -22.88000000000000611, 2.000000000000000000, 2.010000000000004672 ) ) ;
#460 = AXIS2_PLACEMENT_3D ( 'NONE', #288, #130, #177 ) ;
#461 = ORIENTED_EDGE ( 'NONE', *, *, #134, .T. ) ;
#462 = VERTEX_POINT ( 'NONE', #36 ) ;
#463 = FACE_OUTER_BOUND ( 'NONE', #109, .T. ) ;
#464 = CARTESIAN_POINT ( 'NONE',  ( -20.05307664176520888, 1.431977040485884478, -9.430110193747980318 ) ) ;
#465 = DIRECTION ( 'NONE',  ( -0.000000000000000000, 1.000000000000000000, -0.000000000000000000 ) ) ;
#466 = CARTESIAN_POINT ( 'NONE',  ( -30.75867238086823363, 3.006802379856197138, 54.44401129354082514 ) ) ;
#467 = TOROIDAL_SURFACE ( 'NONE', #99, 1.719355552507809026, 27.43200000000000216 ) ;
#468 = FACE_OUTER_BOUND ( 'NONE', #29, .T. ) ;
#469 = CARTESIAN_POINT ( 'NONE',  ( -20.34621913874128296, 3.649596258706216734, -14.31638774773471035 ) ) ;
#470 = CARTESIAN_POINT ( 'NONE',  ( -54.31068036799549503, 2.629589081439411835, 31.40279213251958979 ) ) ;
#471 =( GEOMETRIC_REPRESENTATION_CONTEXT ( 3 ) GLOBAL_UNCERTAINTY_ASSIGNED_CONTEXT ( ( #163 ) ) GLOBAL_UNIT_ASSIGNED_CONTEXT ( ( #336, #264, #380 ) ) REPRESENTATION_CONTEXT ( 'NONE', 'WORKASPACE' ) );
#472 = CARTESIAN_POINT ( 'NONE',  ( -27.66169733046197265, 5.224227122057211403, 54.88770971539229748 ) ) ;
#473 = DIRECTION ( 'NONE',  ( 1.000000000000000000, 0.000000000000000000, 0.000000000000000000 ) ) ;
#474 = AXIS2_PLACEMENT_3D ( 'NONE', #113, #73, #373 ) ;
#475 = SURFACE_STYLE_USAGE ( .BOTH. , #478 ) ;
#476 = DIRECTION ( 'NONE',  ( 0.000000000000000000, 0.000000000000000000, 1.000000000000000000 ) ) ;
#477 = VERTEX_POINT ( 'NONE', #200 ) ;
#478 = SURFACE_SIDE_STYLE ('',( #324 ) ) ;
#479 = DIRECTION ( 'NONE',  ( 1.000000000000000000, 0.000000000000000000, 0.000000000000000000 ) ) ;
#480 = ORIENTED_EDGE ( 'NONE', *, *, #147, .T. ) ;
#481 = FILL_AREA_STYLE_COLOUR ( '', #17 ) ;
#482 = CARTESIAN_POINT ( 'NONE',  ( -40.24881071067390792, 0.000000000000000000, 50.83551377290640971 ) ) ;
#483 = AXIS2_PLACEMENT_3D ( 'NONE', #266, #162, #425 ) ;
#484 = ORIENTED_EDGE ( 'NONE', *, *, #265, .T. ) ;
#485 = VECTOR ( 'NONE', #343, 1000.000000000000000 ) ;
#486 = FILL_AREA_STYLE ('',( #481 ) ) ;
#487 = LINE ( 'NONE', #249, #19 ) ;
#488 = EDGE_LOOP ( 'NONE', ( #372, #139 ) ) ;
#489 = CARTESIAN_POINT ( 'NONE',  ( 14.31634991670224721, 3.649574445813867474, 20.34621833196653995 ) ) ;
#490 = ORIENTED_EDGE ( 'NONE', *, *, #2, .F. ) ;
#491 = CARTESIAN_POINT ( 'NONE',  ( 0.6373555525078095085, 0.000000000000000000, 19.03516223487618575 ) ) ;
#492 = CARTESIAN_POINT ( 'NONE',  ( 0.6373555525078065109, 0.000000000000000000, 1.082000000000003181 ) ) ;
#493 = CARTESIAN_POINT ( 'NONE',  ( -55.00000000000000711, 8.000000000000000000, 25.00000000000001066 ) ) ;
#494 = ORIENTED_EDGE ( 'NONE', *, *, #272, .T. ) ;
#495 = CARTESIAN_POINT ( 'NONE',  ( 9.430038904933061517, 1.431952740464228935, 20.05307021345582186 ) ) ;
#496 = ORIENTED_EDGE ( 'NONE', *, *, #321, .T. ) ;
#497 = MECHANICAL_DESIGN_GEOMETRIC_PRESENTATION_REPRESENTATION (  '', ( #14 ), #471 ) ;
#498 = PRODUCT_DEFINITION_SHAPE ( 'NONE', 'NONE',  #5 ) ;
#499 = CARTESIAN_POINT ( 'NONE',  ( -1.082000000000003181, 8.000000000000000000, 1.082000000000003181 ) ) ;
#500 = B_SPLINE_CURVE_WITH_KNOTS ( 'NONE', 3,
 ( #247, #234, #47, #507, #386, #351, #208, #384, #6, #160, #354, #312, #239, #466, #166, #8, #164, #472, #116, #510, #320, #3 ),
 .UNSPECIFIED., .F., .F.,
 ( 4, 2, 2, 2, 2, 2, 2, 2, 2, 2, 4 ),
 ( 0.000000000000000000, 0.002292629362485824798, 0.004585258724971649595, 0.005731573406214562211, 0.006877888087457474826, 0.009170517449943293986, 0.01031683213118620400, 0.01146314681242911228, 0.01375577617491493404, 0.01604840553740075407, 0.01834103489988657409 ),
 .UNSPECIFIED. ) ;
#501 = EDGE_LOOP ( 'NONE', ( #56, #145, #211, #69 ) ) ;
#502 = CIRCLE ( 'NONE', #62, 1.719355552507809026 ) ;
#503 = DIRECTION ( 'NONE',  ( 0.000000000000000000, -0.000000000000000000, -1.000000000000000000 ) ) ;
#504 = AXIS2_PLACEMENT_3D ( 'NONE', #362, #176, #327 ) ;
#505 = SURFACE_STYLE_FILL_AREA ( #344 ) ;
#506 = CARTESIAN_POINT ( 'NONE',  ( -51.59524935183860350, 0.05568701559522633293, 38.90221097080294754 ) ) ;
#507 = CARTESIAN_POINT ( 'NONE',  ( -37.54584405464895980, 0.2624995006892989480, 52.26124444602947250 ) ) ;
#508 = ADVANCED_FACE ( 'NONE', ( #468 ), #120, .T. ) ;
#509 = CARTESIAN_POINT ( 'NONE',  ( -54.75925726702716645, 4.286230035727188081, 28.83998325029025267 ) ) ;
#510 = CARTESIAN_POINT ( 'NONE',  ( -25.99510930628160565, 6.808298635921901543, 54.98848229317648162 ) ) ;
ENDSEC;
END-ISO-10303-21;
