ISO-10303-21;
HEADER;
FILE_DESCRIPTION (( 'STEP AP214' ),
    '1' );
FILE_NAME ('safety_plate.STEP',
    '2026-09-04T22:01:33',
    ( '' ),
    ( '' ),
    'SwSTEP 2.0',
    'SolidWorks 2026',
    '' );
FILE_SCHEMA (( 'AUTOMOTIVE_DESIGN' ));
ENDSEC;

DATA;
#1 = CARTESIAN_POINT ( 'NONE',  ( -5.850000000000001421, -5.999999999999998224, 0.5000000000000000000 ) ) ;
#2 = VECTOR ( 'NONE', #356, 39.37007874015748143 ) ;
#3 = VERTEX_POINT ( 'NONE', #113 ) ;
#4 = MECHANICAL_DESIGN_GEOMETRIC_PRESENTATION_REPRESENTATION (  '', ( #75 ), #42 ) ;
#5 = CARTESIAN_POINT ( 'NONE',  ( -6.000000000000001776, -7.000000000000000000, 0.5000000000000000000 ) ) ;
#6 = DIRECTION ( 'NONE',  ( -1.000000000000000000, 0.000000000000000000, 0.000000000000000000 ) ) ;
#7 = EDGE_CURVE ( 'NONE', #171, #33, #602, .T. ) ;
#8 = LINE ( 'NONE', #253, #127 ) ;
#9 = CARTESIAN_POINT ( 'NONE',  ( -5.850000000000001421, -5.999999999999998224, 0.5000000000000000000 ) ) ;
#10 = DIMENSIONAL_EXPONENTS ( 1.000000000000000000, 0.000000000000000000, 0.000000000000000000, 0.000000000000000000, 0.000000000000000000, 0.000000000000000000, 0.000000000000000000 ) ;
#11 = DIRECTION ( 'NONE',  ( 0.000000000000000000, 0.000000000000000000, 1.000000000000000000 ) ) ;
#12 = AXIS2_PLACEMENT_3D ( 'NONE', #45, #341, #141 ) ;
#13 = DIRECTION ( 'NONE',  ( 0.000000000000000000, 0.000000000000000000, 1.000000000000000000 ) ) ;
#14 = CARTESIAN_POINT ( 'NONE',  ( 5.999999999999996447, -7.000000000000000000, 0.5000000000000000000 ) ) ;
#15 = EDGE_CURVE ( 'NONE', #47, #234, #8, .T. ) ;
#16 = DIRECTION ( 'NONE',  ( 0.000000000000000000, -0.000000000000000000, 1.000000000000000000 ) ) ;
#17 = EDGE_LOOP ( 'NONE', ( #86, #188, #365, #628 ) ) ;
#18 = DIRECTION ( 'NONE',  ( 1.000000000000000000, 0.000000000000000000, 0.000000000000000000 ) ) ;
#19 = AXIS2_PLACEMENT_3D ( 'NONE', #470, #24, #181 ) ;
#20 = VECTOR ( 'NONE', #180, 39.37007874015748143 ) ;
#21 = LINE ( 'NONE', #121, #555 ) ;
#22 = VERTEX_POINT ( 'NONE', #545 ) ;
#23 = LINE ( 'NONE', #430, #363 ) ;
#24 = DIRECTION ( 'NONE',  ( -0.7071067811865480168, 0.7071067811865471286, 0.000000000000000000 ) ) ;
#25 = VERTEX_POINT ( 'NONE', #159 ) ;
#26 = PLANE ( 'NONE',  #19 ) ;
#27 = MANIFOLD_SOLID_BREP ( 'Boss-Extrude1', #194 ) ;
#28 = EDGE_LOOP ( 'NONE', ( #445, #339 ) ) ;
#29 = LINE ( 'NONE', #277, #20 ) ;
#30 = VECTOR ( 'NONE', #428, 39.37007874015748143 ) ;
#31 = CIRCLE ( 'NONE', #228, 0.1500000000000002998 ) ;
#32 = LINE ( 'NONE', #573, #410 ) ;
#33 = VERTEX_POINT ( 'NONE', #210 ) ;
#34 = DIRECTION ( 'NONE',  ( 1.000000000000000000, 9.106159978880878627E-17, -0.000000000000000000 ) ) ;
#35 = EDGE_CURVE ( 'NONE', #184, #3, #255, .T. ) ;
#36 = FACE_OUTER_BOUND ( 'NONE', #44, .T. ) ;
#37 = ORIENTED_EDGE ( 'NONE', *, *, #359, .F. ) ;
#38 = CARTESIAN_POINT ( 'NONE',  ( 0.000000000000000000, 0.000000000000000000, 0.000000000000000000 ) ) ;
#39 = DIRECTION ( 'NONE',  ( -0.000000000000000000, -0.000000000000000000, -1.000000000000000000 ) ) ;
#40 = ORIENTED_EDGE ( 'NONE', *, *, #302, .T. ) ;
#41 = PRODUCT_CONTEXT ( 'NONE', #374, 'mechanical' ) ;
#42 =( GEOMETRIC_REPRESENTATION_CONTEXT ( 3 ) GLOBAL_UNCERTAINTY_ASSIGNED_CONTEXT ( ( #224 ) ) GLOBAL_UNIT_ASSIGNED_CONTEXT ( ( #537, #384, #340 ) ) REPRESENTATION_CONTEXT ( 'NONE', 'WORKASPACE' ) );
#43 = DIRECTION ( 'NONE',  ( -1.000000000000000000, 0.000000000000000000, 0.000000000000000000 ) ) ;
#44 = EDGE_LOOP ( 'NONE', ( #131, #582, #457, #147 ) ) ;
#45 = CARTESIAN_POINT ( 'NONE',  ( -6.000000000000001776, -5.999999999999998224, 0.5000000000000000000 ) ) ;
#46 = EDGE_CURVE ( 'NONE', #469, #164, #290, .T. ) ;
#47 = VERTEX_POINT ( 'NONE', #57 ) ;
#48 = DIRECTION ( 'NONE',  ( 0.7071067811865483499, -0.7071067811865467956, 0.000000000000000000 ) ) ;
#49 = ORIENTED_EDGE ( 'NONE', *, *, #607, .F. ) ;
#50 = DIRECTION ( 'NONE',  ( 1.000000000000000000, 0.000000000000000000, 0.000000000000000000 ) ) ;
#51 = LINE ( 'NONE', #61, #447 ) ;
#52 = VECTOR ( 'NONE', #510, 39.37007874015748143 ) ;
#53 = EDGE_LOOP ( 'NONE', ( #606, #182 ) ) ;
#54 = AXIS2_PLACEMENT_3D ( 'NONE', #5, #103, #16 ) ;
#55 = EDGE_CURVE ( 'NONE', #429, #244, #119, .T. ) ;
#56 = LINE ( 'NONE', #151, #98 ) ;
#57 = CARTESIAN_POINT ( 'NONE',  ( 5.999999999999996447, 7.000000000000000888, 0.5000000000000000000 ) ) ;
#58 = FACE_OUTER_BOUND ( 'NONE', #231, .T. ) ;
#59 = DIRECTION ( 'NONE',  ( -0.000000000000000000, -0.000000000000000000, -1.000000000000000000 ) ) ;
#60 = EDGE_LOOP ( 'NONE', ( #484, #371, #554, #441 ) ) ;
#61 = CARTESIAN_POINT ( 'NONE',  ( -6.000000000000002665, 7.000000000000000888, 0.5000000000000000000 ) ) ;
#62 = DIRECTION ( 'NONE',  ( 0.000000000000000000, 0.000000000000000000, 1.000000000000000000 ) ) ;
#63 = EDGE_CURVE ( 'NONE', #244, #534, #597, .T. ) ;
#64 = PRESENTATION_LAYER_ASSIGNMENT (  '', '', ( #402 ) ) ;
#65 = ORIENTED_EDGE ( 'NONE', *, *, #621, .F. ) ;
#66 = FACE_OUTER_BOUND ( 'NONE', #590, .T. ) ;
#67 = DIRECTION ( 'NONE',  ( 1.000000000000000000, 0.000000000000000000, 0.000000000000000000 ) ) ;
#68 = CARTESIAN_POINT ( 'NONE',  ( 6.999999999999996447, 5.999999999999999112, 0.000000000000000000 ) ) ;
#69 = DIRECTION ( 'NONE',  ( -0.000000000000000000, -0.000000000000000000, -1.000000000000000000 ) ) ;
#70 = ORIENTED_EDGE ( 'NONE', *, *, #391, .F. ) ;
#71 = AXIS2_PLACEMENT_3D ( 'NONE', #322, #516, #412 ) ;
#72 = PRODUCT ( 'safety_plate', 'safety_plate', '', ( #41 ) ) ;
#73 = AXIS2_PLACEMENT_3D ( 'NONE', #300, #499, #6 ) ;
#74 =( LENGTH_UNIT ( ) NAMED_UNIT ( * ) SI_UNIT ( $, .METRE. ) );
#75 = STYLED_ITEM ( 'NONE', ( #472 ), #367 ) ;
#76 = EDGE_CURVE ( 'NONE', #416, #475, #298, .T. ) ;
#77 = CARTESIAN_POINT ( 'NONE',  ( -7.000000000000001776, 5.999999999999999112, 0.000000000000000000 ) ) ;
#78 = CARTESIAN_POINT ( 'NONE',  ( -7.000000000000000888, -5.999999999999998224, 0.5000000000000000000 ) ) ;
#79 = VERTEX_POINT ( 'NONE', #407 ) ;
#80 = SURFACE_STYLE_FILL_AREA ( #222 ) ;
#81 = LINE ( 'NONE', #78, #116 ) ;
#82 = ORIENTED_EDGE ( 'NONE', *, *, #461, .T. ) ;
#83 = DIRECTION ( 'NONE',  ( -0.000000000000000000, -0.000000000000000000, -1.000000000000000000 ) ) ;
#84 = DIRECTION ( 'NONE',  ( -0.000000000000000000, -0.000000000000000000, -1.000000000000000000 ) ) ;
#85 = ADVANCED_FACE ( 'NONE', ( #111 ), #304, .F. ) ;
#86 = ORIENTED_EDGE ( 'NONE', *, *, #344, .T. ) ;
#87 = DIRECTION ( 'NONE',  ( 1.000000000000000000, 0.000000000000000000, 0.000000000000000000 ) ) ;
#88 = VECTOR ( 'NONE', #125, 39.37007874015748143 ) ;
#89 = AXIS2_PLACEMENT_3D ( 'NONE', #583, #39, #236 ) ;
#90 = CYLINDRICAL_SURFACE ( 'NONE', #436, 0.1500000000000002998 ) ;
#91 = EDGE_LOOP ( 'NONE', ( #216, #70, #388, #280 ) ) ;
#92 = LINE ( 'NONE', #1, #591 ) ;
#93 = ORIENTED_EDGE ( 'NONE', *, *, #302, .F. ) ;
#94 = CARTESIAN_POINT ( 'NONE',  ( -7.000000000000001776, 5.999999999999999112, 0.5000000000000000000 ) ) ;
#95 = ORIENTED_EDGE ( 'NONE', *, *, #494, .T. ) ;
#96 = CIRCLE ( 'NONE', #250, 0.1500000000000002998 ) ;
#97 = EDGE_CURVE ( 'NONE', #357, #297, #376, .T. ) ;
#98 = VECTOR ( 'NONE', #397, 39.37007874015748143 ) ;
#99 = LINE ( 'NONE', #387, #140 ) ;
#100 = VERTEX_POINT ( 'NONE', #175 ) ;
#101 = DIRECTION ( 'NONE',  ( 0.7071067811865467956, 0.7071067811865483499, 0.000000000000000000 ) ) ;
#102 = EDGE_LOOP ( 'NONE', ( #242, #323 ) ) ;
#103 = DIRECTION ( 'NONE',  ( 0.000000000000000000, 1.000000000000000000, 0.000000000000000000 ) ) ;
#104 = ORIENTED_EDGE ( 'NONE', *, *, #621, .T. ) ;
#105 = EDGE_CURVE ( 'NONE', #549, #171, #278, .T. ) ;
#106 = CARTESIAN_POINT ( 'NONE',  ( -7.000000000000000888, -5.999999999999998224, 0.5000000000000000000 ) ) ;
#107 = AXIS2_PLACEMENT_3D ( 'NONE', #286, #630, #243 ) ;
#108 = FILL_AREA_STYLE_COLOUR ( '', #202 ) ;
#109 = AXIS2_PLACEMENT_3D ( 'NONE', #366, #521, #229 ) ;
#110 = FACE_BOUND ( 'NONE', #102, .T. ) ;
#111 = FACE_OUTER_BOUND ( 'NONE', #543, .T. ) ;
#112 = FACE_BOUND ( 'NONE', #28, .T. ) ;
#113 = CARTESIAN_POINT ( 'NONE',  ( 5.849999999999996092, 6.000000000000004441, 0.000000000000000000 ) ) ;
#114 = CARTESIAN_POINT ( 'NONE',  ( 5.849999999999996980, -5.999999999999998224, 0.000000000000000000 ) ) ;
#115 = EDGE_CURVE ( 'NONE', #248, #614, #560, .T. ) ;
#116 = VECTOR ( 'NONE', #69, 39.37007874015748143 ) ;
#117 = VECTOR ( 'NONE', #207, 39.37007874015748143 ) ;
#118 = FACE_BOUND ( 'NONE', #144, .T. ) ;
#119 = LINE ( 'NONE', #450, #226 ) ;
#120 = DIRECTION ( 'NONE',  ( -9.106159978880878627E-17, 1.000000000000000000, 0.000000000000000000 ) ) ;
#121 = CARTESIAN_POINT ( 'NONE',  ( -6.000000000000002665, 7.000000000000000888, 0.000000000000000000 ) ) ;
#122 = ORIENTED_EDGE ( 'NONE', *, *, #170, .F. ) ;
#123 = EDGE_CURVE ( 'NONE', #192, #100, #165, .T. ) ;
#124 = DIRECTION ( 'NONE',  ( 0.000000000000000000, 0.000000000000000000, 1.000000000000000000 ) ) ;
#125 = DIRECTION ( 'NONE',  ( 9.106159978880878627E-17, -1.000000000000000000, 0.000000000000000000 ) ) ;
#126 = ORIENTED_EDGE ( 'NONE', *, *, #629, .T. ) ;
#127 = VECTOR ( 'NONE', #605, 39.37007874015748143 ) ;
#128 = AXIS2_PLACEMENT_3D ( 'NONE', #562, #426, #282 ) ;
#129 = DIRECTION ( 'NONE',  ( -0.000000000000000000, 1.000000000000000000, -0.000000000000000000 ) ) ;
#130 = CARTESIAN_POINT ( 'NONE',  ( -6.000000000000001776, -5.999999999999998224, 0.5000000000000000000 ) ) ;
#131 = ORIENTED_EDGE ( 'NONE', *, *, #97, .T. ) ;
#132 =( LENGTH_UNIT ( ) NAMED_UNIT ( * ) SI_UNIT ( $, .METRE. ) );
#133 = EDGE_CURVE ( 'NONE', #493, #221, #352, .T. ) ;
#134 = CARTESIAN_POINT ( 'NONE',  ( -6.000000000000001776, -7.000000000000000000, 0.5000000000000000000 ) ) ;
#135 = ORIENTED_EDGE ( 'NONE', *, *, #46, .F. ) ;
#136 = CARTESIAN_POINT ( 'NONE',  ( 6.149999999999996803, 6.000000000000004441, 0.000000000000000000 ) ) ;
#137 = LINE ( 'NONE', #146, #622 ) ;
#138 = EDGE_LOOP ( 'NONE', ( #153, #176, #482, #95, #276, #40, #593, #425 ) ) ;
#139 = AXIS2_PLACEMENT_3D ( 'NONE', #409, #401, #399 ) ;
#140 = VECTOR ( 'NONE', #338, 39.37007874015748143 ) ;
#141 = DIRECTION ( 'NONE',  ( 1.000000000000000000, 0.000000000000000000, 0.000000000000000000 ) ) ;
#142 = ORIENTED_EDGE ( 'NONE', *, *, #193, .F. ) ;
#143 = DIRECTION ( 'NONE',  ( -0.000000000000000000, -0.000000000000000000, -1.000000000000000000 ) ) ;
#144 = EDGE_LOOP ( 'NONE', ( #293, #383 ) ) ;
#145 = ADVANCED_FACE ( 'NONE', ( #464 ), #274, .F. ) ;
#146 = CARTESIAN_POINT ( 'NONE',  ( 6.999999999999996447, -5.999999999999998224, 0.5000000000000000000 ) ) ;
#147 = ORIENTED_EDGE ( 'NONE', *, *, #448, .F. ) ;
#148 = VECTOR ( 'NONE', #592, 39.37007874015748143 ) ;
#149 = LINE ( 'NONE', #492, #185 ) ;
#150 = EDGE_LOOP ( 'NONE', ( #197, #435, #420, #491 ) ) ;
#151 = CARTESIAN_POINT ( 'NONE',  ( -6.000000000000001776, -7.000000000000000000, 0.000000000000000000 ) ) ;
#152 = EDGE_CURVE ( 'NONE', #297, #357, #589, .T. ) ;
#153 = ORIENTED_EDGE ( 'NONE', *, *, #15, .T. ) ;
#154 = CARTESIAN_POINT ( 'NONE',  ( -6.150000000000002132, -5.999999999999998224, 0.5000000000000000000 ) ) ;
#155 = VECTOR ( 'NONE', #213, 39.37007874015748143 ) ;
#156 = CARTESIAN_POINT ( 'NONE',  ( 5.999999999999996447, 7.000000000000000888, 0.000000000000000000 ) ) ;
#157 = CARTESIAN_POINT ( 'NONE',  ( 5.999999999999996447, 7.000000000000000888, 0.000000000000000000 ) ) ;
#158 = PLANE ( 'NONE',  #251 ) ;
#159 = CARTESIAN_POINT ( 'NONE',  ( -6.150000000000003020, 5.999999999999999112, 0.000000000000000000 ) ) ;
#160 = ORIENTED_EDGE ( 'NONE', *, *, #599, .F. ) ;
#161 = EDGE_CURVE ( 'NONE', #443, #429, #519, .T. ) ;
#162 = DIRECTION ( 'NONE',  ( -0.000000000000000000, -0.000000000000000000, -1.000000000000000000 ) ) ;
#163 = PRESENTATION_STYLE_ASSIGNMENT (( #350 ) ) ;
#164 = VERTEX_POINT ( 'NONE', #468 ) ;
#165 = CIRCLE ( 'NONE', #446, 0.1500000000000002998 ) ;
#166 = VERTEX_POINT ( 'NONE', #220 ) ;
#167 = CARTESIAN_POINT ( 'NONE',  ( -7.000000000000001776, 5.999999999999999112, 0.5000000000000000000 ) ) ;
#168 = DIRECTION ( 'NONE',  ( -1.000000000000000000, 0.000000000000000000, -0.000000000000000000 ) ) ;
#169 = CARTESIAN_POINT ( 'NONE',  ( -6.150000000000002132, -5.999999999999998224, 0.000000000000000000 ) ) ;
#170 = EDGE_CURVE ( 'NONE', #614, #171, #81, .T. ) ;
#171 = VERTEX_POINT ( 'NONE', #318 ) ;
#172 = DIRECTION ( 'NONE',  ( 1.000000000000000000, 0.000000000000000000, 0.000000000000000000 ) ) ;
#173 = EDGE_LOOP ( 'NONE', ( #65, #190, #82, #369 ) ) ;
#174 =( NAMED_UNIT ( * ) SI_UNIT ( $, .STERADIAN. ) SOLID_ANGLE_UNIT ( ) );
#175 = CARTESIAN_POINT ( 'NONE',  ( -5.850000000000001421, -5.999999999999998224, 0.000000000000000000 ) ) ;
#176 = ORIENTED_EDGE ( 'NONE', *, *, #285, .T. ) ;
#177 = LINE ( 'NONE', #575, #580 ) ;
#178 = DIRECTION ( 'NONE',  ( 0.000000000000000000, 0.000000000000000000, 1.000000000000000000 ) ) ;
#179 = EDGE_LOOP ( 'NONE', ( #346, #503 ) ) ;
#180 = DIRECTION ( 'NONE',  ( -0.000000000000000000, -0.000000000000000000, -1.000000000000000000 ) ) ;
#181 = DIRECTION ( 'NONE',  ( -0.7071067811865470176, -0.7071067811865479058, 0.000000000000000000 ) ) ;
#182 = ORIENTED_EDGE ( 'NONE', *, *, #585, .T. ) ;
#183 = CYLINDRICAL_SURFACE ( 'NONE', #434, 0.1500000000000002998 ) ;
#184 = VERTEX_POINT ( 'NONE', #377 ) ;
#185 = VECTOR ( 'NONE', #240, 39.37007874015748143 ) ;
#186 = CARTESIAN_POINT ( 'NONE',  ( 5.999999999999996447, 7.000000000000000888, 0.5000000000000000000 ) ) ;
#187 = EDGE_CURVE ( 'NONE', #263, #184, #526, .T. ) ;
#188 = ORIENTED_EDGE ( 'NONE', *, *, #359, .T. ) ;
#189 = CARTESIAN_POINT ( 'NONE',  ( -6.000000000000002665, 5.999999999999999112, 0.5000000000000000000 ) ) ;
#190 = ORIENTED_EDGE ( 'NONE', *, *, #279, .T. ) ;
#191 = DIRECTION ( 'NONE',  ( -0.000000000000000000, -0.000000000000000000, -1.000000000000000000 ) ) ;
#192 = VERTEX_POINT ( 'NONE', #169 ) ;
#193 = EDGE_CURVE ( 'NONE', #3, #608, #96, .T. ) ;
#194 = CLOSED_SHELL ( 'NONE', ( #145, #372, #332, #351, #539, #415, #511, #275, #603, #313, #419, #235, #550, #557, #325, #85, #532, #246 ) ) ;
#195 = VECTOR ( 'NONE', #320, 39.37007874015748143 ) ;
#196 = DIRECTION ( 'NONE',  ( -1.000000000000000000, 0.000000000000000000, 0.000000000000000000 ) ) ;
#197 = ORIENTED_EDGE ( 'NONE', *, *, #212, .F. ) ;
#198 = FACE_BOUND ( 'NONE', #53, .T. ) ;
#199 =( CONVERSION_BASED_UNIT ( 'INCH', #500 ) LENGTH_UNIT ( ) NAMED_UNIT ( #451 ) );
#200 = DIRECTION ( 'NONE',  ( -0.000000000000000000, -0.000000000000000000, -1.000000000000000000 ) ) ;
#201 = SURFACE_STYLE_FILL_AREA ( #312 ) ;
#202 = COLOUR_RGB ( '',0.9372549019607843146, 0.9372549019607843146, 0.9372549019607843146 ) ;
#203 = LINE ( 'NONE', #106, #215 ) ;
#204 = ORIENTED_EDGE ( 'NONE', *, *, #55, .T. ) ;
#205 = EDGE_CURVE ( 'NONE', #534, #380, #21, .T. ) ;
#206 = PLANE ( 'NONE',  #109 ) ;
#207 = DIRECTION ( 'NONE',  ( -0.000000000000000000, -0.000000000000000000, -1.000000000000000000 ) ) ;
#208 = EDGE_CURVE ( 'NONE', #225, #166, #576, .T. ) ;
#209 = DIRECTION ( 'NONE',  ( -0.000000000000000000, -0.000000000000000000, -1.000000000000000000 ) ) ;
#210 = CARTESIAN_POINT ( 'NONE',  ( -6.000000000000001776, -7.000000000000000000, 0.000000000000000000 ) ) ;
#211 = ORIENTED_EDGE ( 'NONE', *, *, #193, .T. ) ;
#212 = EDGE_CURVE ( 'NONE', #297, #221, #32, .T. ) ;
#213 = DIRECTION ( 'NONE',  ( 9.106159978880878627E-17, -1.000000000000000000, 0.000000000000000000 ) ) ;
#214 = AXIS2_PLACEMENT_3D ( 'NONE', #130, #223, #196 ) ;
#215 = VECTOR ( 'NONE', #310, 39.37007874015748143 ) ;
#216 = ORIENTED_EDGE ( 'NONE', *, *, #7, .T. ) ;
#217 =( NAMED_UNIT ( * ) PLANE_ANGLE_UNIT ( ) SI_UNIT ( $, .RADIAN. ) );
#218 = CARTESIAN_POINT ( 'NONE',  ( -7.000000000000001776, 5.999999999999999112, 0.5000000000000000000 ) ) ;
#219 = ORIENTED_EDGE ( 'NONE', *, *, #523, .T. ) ;
#220 = CARTESIAN_POINT ( 'NONE',  ( 5.999999999999996447, -7.000000000000000000, 0.5000000000000000000 ) ) ;
#221 = VERTEX_POINT ( 'NONE', #616 ) ;
#222 = FILL_AREA_STYLE ('',( #565 ) ) ;
#223 = DIRECTION ( 'NONE',  ( -0.000000000000000000, -0.000000000000000000, -1.000000000000000000 ) ) ;
#224 = UNCERTAINTY_MEASURE_WITH_UNIT (LENGTH_MEASURE( 1.000000000000000082E-05 ), #537, 'distance_accuracy_value', 'NONE');
#225 = VERTEX_POINT ( 'NONE', #134 ) ;
#226 = VECTOR ( 'NONE', #453, 39.37007874015748143 ) ;
#227 = EDGE_CURVE ( 'NONE', #25, #22, #497, .T. ) ;
#228 = AXIS2_PLACEMENT_3D ( 'NONE', #324, #124, #87 ) ;
#229 = DIRECTION ( 'NONE',  ( 0.7071067811865470176, -0.7071067811865479058, 0.000000000000000000 ) ) ;
#230 = DIRECTION ( 'NONE',  ( 1.000000000000000000, 0.000000000000000000, 0.000000000000000000 ) ) ;
#231 = EDGE_LOOP ( 'NONE', ( #617, #600, #564, #561 ) ) ;
#232 = LINE ( 'NONE', #525, #195 ) ;
#233 = CYLINDRICAL_SURFACE ( 'NONE', #89, 0.1500000000000002998 ) ;
#234 = VERTEX_POINT ( 'NONE', #522 ) ;
#235 = ADVANCED_FACE ( 'NONE', ( #563 ), #26, .F. ) ;
#236 = DIRECTION ( 'NONE',  ( -1.000000000000000000, 0.000000000000000000, 0.000000000000000000 ) ) ;
#237 = ORIENTED_EDGE ( 'NONE', *, *, #105, .T. ) ;
#238 = AXIS2_PLACEMENT_3D ( 'NONE', #94, #48, #101 ) ;
#239 = VECTOR ( 'NONE', #417, 39.37007874015748143 ) ;
#240 = DIRECTION ( 'NONE',  ( -0.7071067811865467956, -0.7071067811865483499, -0.000000000000000000 ) ) ;
#241 = PRODUCT_DEFINITION_CONTEXT ( 'detailed design', #315, 'design' ) ;
#242 = ORIENTED_EDGE ( 'NONE', *, *, #76, .F. ) ;
#243 = DIRECTION ( 'NONE',  ( 1.000000000000000000, 0.000000000000000000, 0.000000000000000000 ) ) ;
#244 = VERTEX_POINT ( 'NONE', #68 ) ;
#245 = LENGTH_MEASURE_WITH_UNIT ( LENGTH_MEASURE( 0.02539999999999999897 ), #132 );
#246 = ADVANCED_FACE ( 'NONE', ( #265 ), #619, .F. ) ;
#247 = FACE_OUTER_BOUND ( 'NONE', #91, .T. ) ;
#248 = VERTEX_POINT ( 'NONE', #431 ) ;
#249 = APPLICATION_PROTOCOL_DEFINITION ( 'draft international standard', 'automotive_design', 1998, #374 ) ;
#250 = AXIS2_PLACEMENT_3D ( 'NONE', #382, #326, #379 ) ;
#251 = AXIS2_PLACEMENT_3D ( 'NONE', #347, #501, #541 ) ;
#252 = CARTESIAN_POINT ( 'NONE',  ( -5.850000000000002309, 5.999999999999999112, 0.5000000000000000000 ) ) ;
#253 = CARTESIAN_POINT ( 'NONE',  ( -6.000000000000002665, 7.000000000000000888, 0.5000000000000000000 ) ) ;
#254 = CYLINDRICAL_SURFACE ( 'NONE', #73, 0.1500000000000002998 ) ;
#255 = LINE ( 'NONE', #405, #487 ) ;
#256 = FACE_BOUND ( 'NONE', #386, .T. ) ;
#257 = EDGE_CURVE ( 'NONE', #79, #429, #137, .T. ) ;
#258 = DIRECTION ( 'NONE',  ( -1.000000000000000000, 0.000000000000000000, 0.000000000000000000 ) ) ;
#259 = ORIENTED_EDGE ( 'NONE', *, *, #187, .F. ) ;
#260 = CARTESIAN_POINT ( 'NONE',  ( 5.849999999999996980, -5.999999999999998224, 0.5000000000000000000 ) ) ;
#261 = CARTESIAN_POINT ( 'NONE',  ( 5.999999999999996447, -7.000000000000000000, 0.000000000000000000 ) ) ;
#262 = ORIENTED_EDGE ( 'NONE', *, *, #205, .F. ) ;
#263 = VERTEX_POINT ( 'NONE', #294 ) ;
#264 = EDGE_CURVE ( 'NONE', #380, #549, #392, .T. ) ;
#265 = FACE_OUTER_BOUND ( 'NONE', #287, .T. ) ;
#266 = DIMENSIONAL_EXPONENTS ( 1.000000000000000000, 0.000000000000000000, 0.000000000000000000, 0.000000000000000000, 0.000000000000000000, 0.000000000000000000, 0.000000000000000000 ) ;
#267 = DIRECTION ( 'NONE',  ( 0.000000000000000000, 0.000000000000000000, 1.000000000000000000 ) ) ;
#268 = AXIS2_PLACEMENT_3D ( 'NONE', #442, #486, #538 ) ;
#269 = AXIS2_PLACEMENT_3D ( 'NONE', #452, #504, #601 ) ;
#270 = EDGE_LOOP ( 'NONE', ( #574, #530, #93, #471 ) ) ;
#271 = DIRECTION ( 'NONE',  ( -0.000000000000000000, -0.000000000000000000, -1.000000000000000000 ) ) ;
#272 = ORIENTED_EDGE ( 'NONE', *, *, #63, .T. ) ;
#273 = SURFACE_STYLE_USAGE ( .BOTH. , #421 ) ;
#274 = CYLINDRICAL_SURFACE ( 'NONE', #343, 0.1500000000000002998 ) ;
#275 = ADVANCED_FACE ( 'NONE', ( #483 ), #331, .F. ) ;
#276 = ORIENTED_EDGE ( 'NONE', *, *, #208, .T. ) ;
#277 = CARTESIAN_POINT ( 'NONE',  ( -7.000000000000001776, 5.999999999999999112, 0.5000000000000000000 ) ) ;
#278 = LINE ( 'NONE', #512, #88 ) ;
#279 = EDGE_CURVE ( 'NONE', #475, #416, #578, .T. ) ;
#280 = ORIENTED_EDGE ( 'NONE', *, *, #170, .T. ) ;
#281 = COLOUR_RGB ( '',0.9372549019607843146, 0.9372549019607843146, 0.9372549019607843146 ) ;
#282 = DIRECTION ( 'NONE',  ( 1.000000000000000000, 0.000000000000000000, 0.000000000000000000 ) ) ;
#283 = CARTESIAN_POINT ( 'NONE',  ( 6.149999999999997691, -5.999999999999998224, 0.5000000000000000000 ) ) ;
#284 = ORIENTED_EDGE ( 'NONE', *, *, #35, .T. ) ;
#285 = EDGE_CURVE ( 'NONE', #234, #248, #149, .T. ) ;
#286 = CARTESIAN_POINT ( 'NONE',  ( -6.000000000000002665, 5.999999999999999112, 0.5000000000000000000 ) ) ;
#287 = EDGE_LOOP ( 'NONE', ( #37, #348, #219, #160 ) ) ;
#288 = DIRECTION ( 'NONE',  ( -0.000000000000000000, -0.000000000000000000, -1.000000000000000000 ) ) ;
#289 = ORIENTED_EDGE ( 'NONE', *, *, #227, .F. ) ;
#290 = CIRCLE ( 'NONE', #139, 0.1500000000000002998 ) ;
#291 = AXIS2_PLACEMENT_3D ( 'NONE', #167, #34, #120 ) ;
#292 = CARTESIAN_POINT ( 'NONE',  ( 5.849999999999996980, -5.999999999999998224, 0.5000000000000000000 ) ) ;
#293 = ORIENTED_EDGE ( 'NONE', *, *, #97, .F. ) ;
#294 = CARTESIAN_POINT ( 'NONE',  ( 6.149999999999996803, 6.000000000000004441, 0.5000000000000000000 ) ) ;
#295 = ORIENTED_EDGE ( 'NONE', *, *, #505, .F. ) ;
#296 = DIRECTION ( 'NONE',  ( 0.000000000000000000, 0.000000000000000000, -1.000000000000000000 ) ) ;
#297 = VERTEX_POINT ( 'NONE', #283 ) ;
#298 = CIRCLE ( 'NONE', #611, 0.1500000000000002998 ) ;
#299 = CIRCLE ( 'NONE', #269, 0.1500000000000002998 ) ;
#300 = CARTESIAN_POINT ( 'NONE',  ( 5.999999999999997335, -5.999999999999998224, 0.5000000000000000000 ) ) ;
#301 =( LENGTH_UNIT ( ) NAMED_UNIT ( * ) SI_UNIT ( $, .METRE. ) );
#302 = EDGE_CURVE ( 'NONE', #166, #79, #385, .T. ) ;
#303 = PLANE ( 'NONE',  #54 ) ;
#304 = CYLINDRICAL_SURFACE ( 'NONE', #507, 0.1500000000000002998 ) ;
#305 = EDGE_LOOP ( 'NONE', ( #211, #126 ) ) ;
#306 = PRODUCT_DEFINITION ( 'General', '', #567, #241 ) ;
#307 = FACE_BOUND ( 'NONE', #179, .T. ) ;
#308 = CARTESIAN_POINT ( 'NONE',  ( -6.000000000000002665, 5.999999999999999112, 0.5000000000000000000 ) ) ;
#309 = AXIS2_PLACEMENT_3D ( 'NONE', #424, #178, #172 ) ;
#310 = DIRECTION ( 'NONE',  ( 0.7071067811865467956, -0.7071067811865483499, 0.000000000000000000 ) ) ;
#311 = VECTOR ( 'NONE', #162, 39.37007874015748143 ) ;
#312 = FILL_AREA_STYLE ('',( #108 ) ) ;
#313 = ADVANCED_FACE ( 'NONE', ( #247 ), #635, .F. ) ;
#314 = FACE_BOUND ( 'NONE', #570, .T. ) ;
#315 = APPLICATION_CONTEXT ( 'automotive_design' ) ;
#316 = CARTESIAN_POINT ( 'NONE',  ( 5.999999999999996447, -7.000000000000000000, 0.000000000000000000 ) ) ;
#317 = CARTESIAN_POINT ( 'NONE',  ( -7.000000000000000888, -5.999999999999998224, 0.5000000000000000000 ) ) ;
#318 = CARTESIAN_POINT ( 'NONE',  ( -7.000000000000000888, -5.999999999999998224, 0.000000000000000000 ) ) ;
#319 = EDGE_LOOP ( 'NONE', ( #204, #393, #432, #558 ) ) ;
#320 = DIRECTION ( 'NONE',  ( -0.000000000000000000, -0.000000000000000000, -1.000000000000000000 ) ) ;
#321 = AXIS2_PLACEMENT_3D ( 'NONE', #527, #389, #579 ) ;
#322 = CARTESIAN_POINT ( 'NONE',  ( 5.999999999999997335, -5.999999999999998224, 0.000000000000000000 ) ) ;
#323 = ORIENTED_EDGE ( 'NONE', *, *, #279, .F. ) ;
#324 = CARTESIAN_POINT ( 'NONE',  ( 5.999999999999996447, 6.000000000000004441, 0.000000000000000000 ) ) ;
#325 = ADVANCED_FACE ( 'NONE', ( #345 ), #183, .F. ) ;
#326 = DIRECTION ( 'NONE',  ( 0.000000000000000000, 0.000000000000000000, 1.000000000000000000 ) ) ;
#327 = EDGE_LOOP ( 'NONE', ( #342, #524, #587, #479 ) ) ;
#328 = DIRECTION ( 'NONE',  ( 0.000000000000000000, 0.000000000000000000, 1.000000000000000000 ) ) ;
#329 = ORIENTED_EDGE ( 'NONE', *, *, #115, .F. ) ;
#330 = FACE_OUTER_BOUND ( 'NONE', #609, .T. ) ;
#331 = PLANE ( 'NONE',  #238 ) ;
#332 = ADVANCED_FACE ( 'NONE', ( #335 ), #439, .F. ) ;
#333 = ORIENTED_EDGE ( 'NONE', *, *, #161, .F. ) ;
#334 = CIRCLE ( 'NONE', #128, 0.1500000000000002998 ) ;
#335 = FACE_OUTER_BOUND ( 'NONE', #638, .T. ) ;
#336 = EDGE_LOOP ( 'NONE', ( #536, #104, #289, #520 ) ) ;
#337 = DIRECTION ( 'NONE',  ( 0.000000000000000000, 0.000000000000000000, 1.000000000000000000 ) ) ;
#338 = DIRECTION ( 'NONE',  ( -0.000000000000000000, -0.000000000000000000, -1.000000000000000000 ) ) ;
#339 = ORIENTED_EDGE ( 'NONE', *, *, #427, .T. ) ;
#340 =( NAMED_UNIT ( * ) SI_UNIT ( $, .STERADIAN. ) SOLID_ANGLE_UNIT ( ) );
#341 = DIRECTION ( 'NONE',  ( 0.000000000000000000, 0.000000000000000000, 1.000000000000000000 ) ) ;
#342 = ORIENTED_EDGE ( 'NONE', *, *, #264, .T. ) ;
#343 = AXIS2_PLACEMENT_3D ( 'NONE', #418, #84, #368 ) ;
#344 = EDGE_CURVE ( 'NONE', #164, #469, #598, .T. ) ;
#345 = FACE_OUTER_BOUND ( 'NONE', #173, .T. ) ;
#346 = ORIENTED_EDGE ( 'NONE', *, *, #123, .T. ) ;
#347 = CARTESIAN_POINT ( 'NONE',  ( -6.000000000000002665, 7.000000000000000888, 0.5000000000000000000 ) ) ;
#348 = ORIENTED_EDGE ( 'NONE', *, *, #46, .T. ) ;
#349 = DIRECTION ( 'NONE',  ( -0.000000000000000000, -0.000000000000000000, -1.000000000000000000 ) ) ;
#350 = SURFACE_STYLE_USAGE ( .BOTH. , #364 ) ;
#351 = ADVANCED_FACE ( 'NONE', ( #444 ), #90, .F. ) ;
#352 = CIRCLE ( 'NONE', #71, 0.1500000000000002998 ) ;
#353 = VECTOR ( 'NONE', #481, 39.37007874015748143 ) ;
#354 =( GEOMETRIC_REPRESENTATION_CONTEXT ( 3 ) GLOBAL_UNCERTAINTY_ASSIGNED_CONTEXT ( ( #542 ) ) GLOBAL_UNIT_ASSIGNED_CONTEXT ( ( #465, #217, #174 ) ) REPRESENTATION_CONTEXT ( 'NONE', 'WORKASPACE' ) );
#355 = FACE_OUTER_BOUND ( 'NONE', #138, .T. ) ;
#356 = DIRECTION ( 'NONE',  ( -0.7071067811865471286, 0.7071067811865479058, -0.000000000000000000 ) ) ;
#357 = VERTEX_POINT ( 'NONE', #292 ) ;
#358 = FACE_OUTER_BOUND ( 'NONE', #634, .T. ) ;
#359 = EDGE_CURVE ( 'NONE', #469, #100, #92, .T. ) ;
#360 = FACE_BOUND ( 'NONE', #305, .T. ) ;
#361 = CARTESIAN_POINT ( 'NONE',  ( -7.000000000000000888, -5.999999999999998224, 0.000000000000000000 ) ) ;
#362 = VECTOR ( 'NONE', #496, 39.37007874015748143 ) ;
#363 = VECTOR ( 'NONE', #129, 39.37007874015748143 ) ;
#364 = SURFACE_SIDE_STYLE ('',( #201 ) ) ;
#365 = ORIENTED_EDGE ( 'NONE', *, *, #123, .F. ) ;
#366 = CARTESIAN_POINT ( 'NONE',  ( 5.999999999999996447, 7.000000000000000888, 0.5000000000000000000 ) ) ;
#367 = ADVANCED_BREP_SHAPE_REPRESENTATION ( 'safety_plate', ( #27, #612 ), #354 ) ;
#368 = DIRECTION ( 'NONE',  ( -1.000000000000000000, 0.000000000000000000, 0.000000000000000000 ) ) ;
#369 = ORIENTED_EDGE ( 'NONE', *, *, #427, .F. ) ;
#370 = CARTESIAN_POINT ( 'NONE',  ( -6.000000000000002665, 5.999999999999999112, 0.000000000000000000 ) ) ;
#371 = ORIENTED_EDGE ( 'NONE', *, *, #440, .F. ) ;
#372 = ADVANCED_FACE ( 'NONE', ( #36 ), #233, .F. ) ;
#373 = DIRECTION ( 'NONE',  ( 1.000000000000000000, 0.000000000000000000, 0.000000000000000000 ) ) ;
#374 = APPLICATION_CONTEXT ( 'automotive_design' ) ;
#375 = PLANE ( 'NONE',  #458 ) ;
#376 = CIRCLE ( 'NONE', #394, 0.1500000000000002998 ) ;
#377 = CARTESIAN_POINT ( 'NONE',  ( 5.849999999999996092, 6.000000000000004441, 0.5000000000000000000 ) ) ;
#378 = ORIENTED_EDGE ( 'NONE', *, *, #187, .T. ) ;
#379 = DIRECTION ( 'NONE',  ( 1.000000000000000000, 0.000000000000000000, 0.000000000000000000 ) ) ;
#380 = VERTEX_POINT ( 'NONE', #433 ) ;
#381 = EDGE_CURVE ( 'NONE', #47, #534, #632, .T. ) ;
#382 = CARTESIAN_POINT ( 'NONE',  ( 5.999999999999996447, 6.000000000000004441, 0.000000000000000000 ) ) ;
#383 = ORIENTED_EDGE ( 'NONE', *, *, #152, .F. ) ;
#384 =( NAMED_UNIT ( * ) PLANE_ANGLE_UNIT ( ) SI_UNIT ( $, .RADIAN. ) );
#385 = LINE ( 'NONE', #490, #546 ) ;
#386 = EDGE_LOOP ( 'NONE', ( #295, #259 ) ) ;
#387 = CARTESIAN_POINT ( 'NONE',  ( -6.000000000000001776, -7.000000000000000000, 0.5000000000000000000 ) ) ;
#388 = ORIENTED_EDGE ( 'NONE', *, *, #494, .F. ) ;
#389 = DIRECTION ( 'NONE',  ( -0.000000000000000000, -0.000000000000000000, -1.000000000000000000 ) ) ;
#390 = ORIENTED_EDGE ( 'NONE', *, *, #398, .T. ) ;
#391 = EDGE_CURVE ( 'NONE', #225, #33, #99, .T. ) ;
#392 = LINE ( 'NONE', #588, #353 ) ;
#393 = ORIENTED_EDGE ( 'NONE', *, *, #398, .F. ) ;
#394 = AXIS2_PLACEMENT_3D ( 'NONE', #456, #11, #18 ) ;
#395 = DIRECTION ( 'NONE',  ( 0.7071067811865471286, 0.7071067811865479058, 0.000000000000000000 ) ) ;
#396 = ORIENTED_EDGE ( 'NONE', *, *, #581, .F. ) ;
#397 = DIRECTION ( 'NONE',  ( 1.000000000000000000, 0.000000000000000000, 0.000000000000000000 ) ) ;
#398 = EDGE_CURVE ( 'NONE', #460, #244, #533, .T. ) ;
#399 = DIRECTION ( 'NONE',  ( 1.000000000000000000, 0.000000000000000000, 0.000000000000000000 ) ) ;
#400 = DIRECTION ( 'NONE',  ( -1.000000000000000000, 0.000000000000000000, -0.000000000000000000 ) ) ;
#401 = DIRECTION ( 'NONE',  ( 0.000000000000000000, 0.000000000000000000, 1.000000000000000000 ) ) ;
#402 = STYLED_ITEM ( 'NONE', ( #163 ), #27 ) ;
#403 = CIRCLE ( 'NONE', #508, 0.1500000000000002998 ) ;
#404 = DIRECTION ( 'NONE',  ( 0.000000000000000000, 0.000000000000000000, 1.000000000000000000 ) ) ;
#405 = CARTESIAN_POINT ( 'NONE',  ( 5.849999999999996092, 6.000000000000004441, 0.5000000000000000000 ) ) ;
#406 = CARTESIAN_POINT ( 'NONE',  ( 0.000000000000000000, 0.000000000000000000, 0.000000000000000000 ) ) ;
#407 = CARTESIAN_POINT ( 'NONE',  ( 6.999999999999996447, -5.999999999999998224, 0.5000000000000000000 ) ) ;
#408 = CARTESIAN_POINT ( 'NONE',  ( 6.999999999999996447, 5.999999999999999112, 0.5000000000000000000 ) ) ;
#409 = CARTESIAN_POINT ( 'NONE',  ( -6.000000000000001776, -5.999999999999998224, 0.5000000000000000000 ) ) ;
#410 = VECTOR ( 'NONE', #271, 39.37007874015748143 ) ;
#411 = AXIS2_PLACEMENT_3D ( 'NONE', #559, #618, #373 ) ;
#412 = DIRECTION ( 'NONE',  ( 1.000000000000000000, 0.000000000000000000, 0.000000000000000000 ) ) ;
#413 = ORIENTED_EDGE ( 'NONE', *, *, #639, .T. ) ;
#414 = CARTESIAN_POINT ( 'NONE',  ( -6.000000000000001776, -7.000000000000000000, 0.5000000000000000000 ) ) ;
#415 = ADVANCED_FACE ( 'NONE', ( #198, #112, #358, #360, #307 ), #455, .T. ) ;
#416 = VERTEX_POINT ( 'NONE', #604 ) ;
#417 = DIRECTION ( 'NONE',  ( -0.7071067811865471286, 0.7071067811865479058, -0.000000000000000000 ) ) ;
#418 = CARTESIAN_POINT ( 'NONE',  ( -6.000000000000001776, -5.999999999999998224, 0.5000000000000000000 ) ) ;
#419 = ADVANCED_FACE ( 'NONE', ( #58 ), #303, .F. ) ;
#420 = ORIENTED_EDGE ( 'NONE', *, *, #448, .T. ) ;
#421 = SURFACE_SIDE_STYLE ('',( #80 ) ) ;
#422 = DIRECTION ( 'NONE',  ( 0.000000000000000000, 0.000000000000000000, -1.000000000000000000 ) ) ;
#423 = MECHANICAL_DESIGN_GEOMETRIC_PRESENTATION_REPRESENTATION (  '', ( #402 ), #466 ) ;
#424 = CARTESIAN_POINT ( 'NONE',  ( 5.999999999999997335, -5.999999999999998224, 0.5000000000000000000 ) ) ;
#425 = ORIENTED_EDGE ( 'NONE', *, *, #581, .T. ) ;
#426 = DIRECTION ( 'NONE',  ( 0.000000000000000000, 0.000000000000000000, 1.000000000000000000 ) ) ;
#427 = EDGE_CURVE ( 'NONE', #22, #25, #299, .T. ) ;
#428 = DIRECTION ( 'NONE',  ( 0.7071067811865471286, 0.7071067811865479058, 0.000000000000000000 ) ) ;
#429 = VERTEX_POINT ( 'NONE', #495 ) ;
#430 = CARTESIAN_POINT ( 'NONE',  ( 6.999999999999996447, 5.999999999999999112, 0.5000000000000000000 ) ) ;
#431 = CARTESIAN_POINT ( 'NONE',  ( -7.000000000000001776, 5.999999999999999112, 0.5000000000000000000 ) ) ;
#432 = ORIENTED_EDGE ( 'NONE', *, *, #572, .F. ) ;
#433 = CARTESIAN_POINT ( 'NONE',  ( -6.000000000000002665, 7.000000000000000888, 0.000000000000000000 ) ) ;
#434 = AXIS2_PLACEMENT_3D ( 'NONE', #189, #637, #43 ) ;
#435 = ORIENTED_EDGE ( 'NONE', *, *, #152, .T. ) ;
#436 = AXIS2_PLACEMENT_3D ( 'NONE', #529, #191, #586 ) ;
#437 = VECTOR ( 'NONE', #349, 39.37007874015748143 ) ;
#438 = SHAPE_DEFINITION_REPRESENTATION ( #610, #367 ) ;
#439 = CYLINDRICAL_SURFACE ( 'NONE', #321, 0.1500000000000002998 ) ;
#440 = EDGE_CURVE ( 'NONE', #234, #380, #51, .T. ) ;
#441 = ORIENTED_EDGE ( 'NONE', *, *, #381, .T. ) ;
#442 = CARTESIAN_POINT ( 'NONE',  ( -7.000000000000000888, -5.999999999999998224, 0.5000000000000000000 ) ) ;
#443 = VERTEX_POINT ( 'NONE', #261 ) ;
#444 = FACE_OUTER_BOUND ( 'NONE', #336, .T. ) ;
#445 = ORIENTED_EDGE ( 'NONE', *, *, #227, .T. ) ;
#446 = AXIS2_PLACEMENT_3D ( 'NONE', #473, #624, #477 ) ;
#447 = VECTOR ( 'NONE', #209, 39.37007874015748143 ) ;
#448 = EDGE_CURVE ( 'NONE', #357, #493, #553, .T. ) ;
#449 = CARTESIAN_POINT ( 'NONE',  ( -6.150000000000003020, 5.999999999999999112, 0.5000000000000000000 ) ) ;
#450 = CARTESIAN_POINT ( 'NONE',  ( 6.999999999999996447, 5.999999999999999112, 0.000000000000000000 ) ) ;
#451 = DIMENSIONAL_EXPONENTS ( 1.000000000000000000, 0.000000000000000000, 0.000000000000000000, 0.000000000000000000, 0.000000000000000000, 0.000000000000000000, 0.000000000000000000 ) ;
#452 = CARTESIAN_POINT ( 'NONE',  ( -6.000000000000002665, 5.999999999999999112, 0.000000000000000000 ) ) ;
#453 = DIRECTION ( 'NONE',  ( -0.000000000000000000, 1.000000000000000000, -0.000000000000000000 ) ) ;
#454 = DIRECTION ( 'NONE',  ( -1.000000000000000000, 0.000000000000000000, 0.000000000000000000 ) ) ;
#455 = PLANE ( 'NONE',  #498 ) ;
#456 = CARTESIAN_POINT ( 'NONE',  ( 5.999999999999997335, -5.999999999999998224, 0.5000000000000000000 ) ) ;
#457 = ORIENTED_EDGE ( 'NONE', *, *, #133, .F. ) ;
#458 = AXIS2_PLACEMENT_3D ( 'NONE', #515, #422, #168 ) ;
#459 = LINE ( 'NONE', #449, #117 ) ;
#460 = VERTEX_POINT ( 'NONE', #596 ) ;
#461 = EDGE_CURVE ( 'NONE', #416, #25, #459, .T. ) ;
#462 = FACE_OUTER_BOUND ( 'NONE', #60, .T. ) ;
#463 =( NAMED_UNIT ( * ) SI_UNIT ( $, .STERADIAN. ) SOLID_ANGLE_UNIT ( ) );
#464 = FACE_OUTER_BOUND ( 'NONE', #17, .T. ) ;
#465 =( CONVERSION_BASED_UNIT ( 'INCH', #615 ) LENGTH_UNIT ( ) NAMED_UNIT ( #10 ) );
#466 =( GEOMETRIC_REPRESENTATION_CONTEXT ( 3 ) GLOBAL_UNCERTAINTY_ASSIGNED_CONTEXT ( ( #569 ) ) GLOBAL_UNIT_ASSIGNED_CONTEXT ( ( #199, #595, #463 ) ) REPRESENTATION_CONTEXT ( 'NONE', 'WORKASPACE' ) );
#467 = AXIS2_PLACEMENT_3D ( 'NONE', #408, #454, #13 ) ;
#468 = CARTESIAN_POINT ( 'NONE',  ( -6.150000000000002132, -5.999999999999998224, 0.5000000000000000000 ) ) ;
#469 = VERTEX_POINT ( 'NONE', #9 ) ;
#470 = CARTESIAN_POINT ( 'NONE',  ( 5.999999999999996447, -7.000000000000000000, 0.5000000000000000000 ) ) ;
#471 = ORIENTED_EDGE ( 'NONE', *, *, #485, .T. ) ;
#472 = PRESENTATION_STYLE_ASSIGNMENT (( #273 ) ) ;
#473 = CARTESIAN_POINT ( 'NONE',  ( -6.000000000000001776, -5.999999999999998224, 0.000000000000000000 ) ) ;
#474 = EDGE_CURVE ( 'NONE', #33, #443, #56, .T. ) ;
#475 = VERTEX_POINT ( 'NONE', #252 ) ;
#476 = AXIS2_PLACEMENT_3D ( 'NONE', #613, #267, #230 ) ;
#477 = DIRECTION ( 'NONE',  ( 1.000000000000000000, 0.000000000000000000, 0.000000000000000000 ) ) ;
#478 = VECTOR ( 'NONE', #200, 39.37007874015748143 ) ;
#479 = ORIENTED_EDGE ( 'NONE', *, *, #440, .T. ) ;
#480 = LINE ( 'NONE', #571, #239 ) ;
#481 = DIRECTION ( 'NONE',  ( -0.7071067811865467956, -0.7071067811865483499, -0.000000000000000000 ) ) ;
#482 = ORIENTED_EDGE ( 'NONE', *, *, #115, .T. ) ;
#483 = FACE_OUTER_BOUND ( 'NONE', #327, .T. ) ;
#484 = ORIENTED_EDGE ( 'NONE', *, *, #205, .T. ) ;
#485 = EDGE_CURVE ( 'NONE', #166, #443, #594, .T. ) ;
#486 = DIRECTION ( 'NONE',  ( 0.7071067811865483499, 0.7071067811865467956, -0.000000000000000000 ) ) ;
#487 = VECTOR ( 'NONE', #556, 39.37007874015748143 ) ;
#488 = ORIENTED_EDGE ( 'NONE', *, *, #63, .F. ) ;
#489 = VECTOR ( 'NONE', #143, 39.37007874015748143 ) ;
#490 = CARTESIAN_POINT ( 'NONE',  ( 5.999999999999996447, -7.000000000000000000, 0.5000000000000000000 ) ) ;
#491 = ORIENTED_EDGE ( 'NONE', *, *, #585, .F. ) ;
#492 = CARTESIAN_POINT ( 'NONE',  ( -7.000000000000001776, 5.999999999999999112, 0.5000000000000000000 ) ) ;
#493 = VERTEX_POINT ( 'NONE', #114 ) ;
#494 = EDGE_CURVE ( 'NONE', #614, #225, #203, .T. ) ;
#495 = CARTESIAN_POINT ( 'NONE',  ( 6.999999999999996447, -5.999999999999998224, 0.000000000000000000 ) ) ;
#496 = DIRECTION ( 'NONE',  ( 0.7071067811865467956, -0.7071067811865483499, 0.000000000000000000 ) ) ;
#497 = CIRCLE ( 'NONE', #566, 0.1500000000000002998 ) ;
#498 = AXIS2_PLACEMENT_3D ( 'NONE', #406, #296, #400 ) ;
#499 = DIRECTION ( 'NONE',  ( -0.000000000000000000, -0.000000000000000000, -1.000000000000000000 ) ) ;
#500 = LENGTH_MEASURE_WITH_UNIT ( LENGTH_MEASURE( 0.02539999999999999897 ), #301 );
#501 = DIRECTION ( 'NONE',  ( 0.000000000000000000, -1.000000000000000000, 0.000000000000000000 ) ) ;
#502 = CARTESIAN_POINT ( 'NONE',  ( 5.999999999999996447, 6.000000000000004441, 0.5000000000000000000 ) ) ;
#503 = ORIENTED_EDGE ( 'NONE', *, *, #599, .T. ) ;
#504 = DIRECTION ( 'NONE',  ( 0.000000000000000000, 0.000000000000000000, 1.000000000000000000 ) ) ;
#505 = EDGE_CURVE ( 'NONE', #184, #263, #403, .T. ) ;
#506 = ORIENTED_EDGE ( 'NONE', *, *, #35, .F. ) ;
#507 = AXIS2_PLACEMENT_3D ( 'NONE', #502, #59, #258 ) ;
#508 = AXIS2_PLACEMENT_3D ( 'NONE', #509, #404, #67 ) ;
#509 = CARTESIAN_POINT ( 'NONE',  ( 5.999999999999996447, 6.000000000000004441, 0.5000000000000000000 ) ) ;
#510 = DIRECTION ( 'NONE',  ( 1.000000000000000000, 0.000000000000000000, 0.000000000000000000 ) ) ;
#511 = ADVANCED_FACE ( 'NONE', ( #462 ), #158, .F. ) ;
#512 = CARTESIAN_POINT ( 'NONE',  ( -7.000000000000001776, 5.999999999999999112, 0.000000000000000000 ) ) ;
#513 = ORIENTED_EDGE ( 'NONE', *, *, #55, .F. ) ;
#514 = PRESENTATION_LAYER_ASSIGNMENT (  '', '', ( #75 ) ) ;
#515 = CARTESIAN_POINT ( 'NONE',  ( 0.000000000000000000, 0.000000000000000000, 0.5000000000000000000 ) ) ;
#516 = DIRECTION ( 'NONE',  ( 0.000000000000000000, 0.000000000000000000, 1.000000000000000000 ) ) ;
#517 = ORIENTED_EDGE ( 'NONE', *, *, #607, .T. ) ;
#518 = FACE_OUTER_BOUND ( 'NONE', #319, .T. ) ;
#519 = LINE ( 'NONE', #316, #30 ) ;
#520 = ORIENTED_EDGE ( 'NONE', *, *, #461, .F. ) ;
#521 = DIRECTION ( 'NONE',  ( -0.7071067811865480168, -0.7071067811865471286, 0.000000000000000000 ) ) ;
#522 = CARTESIAN_POINT ( 'NONE',  ( -6.000000000000002665, 7.000000000000000888, 0.5000000000000000000 ) ) ;
#523 = EDGE_CURVE ( 'NONE', #164, #192, #547, .T. ) ;
#524 = ORIENTED_EDGE ( 'NONE', *, *, #639, .F. ) ;
#525 = CARTESIAN_POINT ( 'NONE',  ( -5.850000000000002309, 5.999999999999999112, 0.5000000000000000000 ) ) ;
#526 = CIRCLE ( 'NONE', #476, 0.1500000000000002998 ) ;
#527 = CARTESIAN_POINT ( 'NONE',  ( 5.999999999999996447, 6.000000000000004441, 0.5000000000000000000 ) ) ;
#528 = ORIENTED_EDGE ( 'NONE', *, *, #105, .F. ) ;
#529 = CARTESIAN_POINT ( 'NONE',  ( -6.000000000000002665, 5.999999999999999112, 0.5000000000000000000 ) ) ;
#530 = ORIENTED_EDGE ( 'NONE', *, *, #257, .F. ) ;
#531 = APPLICATION_PROTOCOL_DEFINITION ( 'draft international standard', 'automotive_design', 1998, #315 ) ;
#532 = ADVANCED_FACE ( 'NONE', ( #544 ), #254, .F. ) ;
#533 = LINE ( 'NONE', #551, #478 ) ;
#534 = VERTEX_POINT ( 'NONE', #156 ) ;
#535 = DIRECTION ( 'NONE',  ( -0.000000000000000000, -0.000000000000000000, -1.000000000000000000 ) ) ;
#536 = ORIENTED_EDGE ( 'NONE', *, *, #76, .T. ) ;
#537 =( CONVERSION_BASED_UNIT ( 'INCH', #245 ) LENGTH_UNIT ( ) NAMED_UNIT ( #266 ) );
#538 = DIRECTION ( 'NONE',  ( -0.7071067811865467956, 0.7071067811865483499, 0.000000000000000000 ) ) ;
#539 = ADVANCED_FACE ( 'NONE', ( #355, #110, #256, #118, #314 ), #375, .F. ) ;
#540 = ORIENTED_EDGE ( 'NONE', *, *, #7, .F. ) ;
#541 = DIRECTION ( 'NONE',  ( 0.000000000000000000, -0.000000000000000000, -1.000000000000000000 ) ) ;
#542 = UNCERTAINTY_MEASURE_WITH_UNIT (LENGTH_MEASURE( 1.000000000000000082E-05 ), #465, 'distance_accuracy_value', 'NONE');
#543 = EDGE_LOOP ( 'NONE', ( #49, #378, #284, #584 ) ) ;
#544 = FACE_OUTER_BOUND ( 'NONE', #150, .T. ) ;
#545 = CARTESIAN_POINT ( 'NONE',  ( -5.850000000000002309, 5.999999999999999112, 0.000000000000000000 ) ) ;
#546 = VECTOR ( 'NONE', #395, 39.37007874015748143 ) ;
#547 = LINE ( 'NONE', #154, #437 ) ;
#548 = DIRECTION ( 'NONE',  ( 1.000000000000000000, 0.000000000000000000, 0.000000000000000000 ) ) ;
#549 = VERTEX_POINT ( 'NONE', #77 ) ;
#550 = ADVANCED_FACE ( 'NONE', ( #518 ), #623, .F. ) ;
#551 = CARTESIAN_POINT ( 'NONE',  ( 6.999999999999996447, 5.999999999999999112, 0.5000000000000000000 ) ) ;
#552 = PRODUCT_RELATED_PRODUCT_CATEGORY ( 'part', '', ( #72 ) ) ;
#553 = LINE ( 'NONE', #260, #148 ) ;
#554 = ORIENTED_EDGE ( 'NONE', *, *, #15, .F. ) ;
#555 = VECTOR ( 'NONE', #568, 39.37007874015748143 ) ;
#556 = DIRECTION ( 'NONE',  ( -0.000000000000000000, -0.000000000000000000, -1.000000000000000000 ) ) ;
#557 = ADVANCED_FACE ( 'NONE', ( #66 ), #206, .F. ) ;
#558 = ORIENTED_EDGE ( 'NONE', *, *, #257, .T. ) ;
#559 = CARTESIAN_POINT ( 'NONE',  ( 5.999999999999997335, -5.999999999999998224, 0.000000000000000000 ) ) ;
#560 = LINE ( 'NONE', #218, #155 ) ;
#561 = ORIENTED_EDGE ( 'NONE', *, *, #391, .T. ) ;
#562 = CARTESIAN_POINT ( 'NONE',  ( -6.000000000000001776, -5.999999999999998224, 0.000000000000000000 ) ) ;
#563 = FACE_OUTER_BOUND ( 'NONE', #270, .T. ) ;
#564 = ORIENTED_EDGE ( 'NONE', *, *, #208, .F. ) ;
#565 = FILL_AREA_STYLE_COLOUR ( '', #281 ) ;
#566 = AXIS2_PLACEMENT_3D ( 'NONE', #370, #328, #627 ) ;
#567 = PRODUCT_DEFINITION_FORMATION_WITH_SPECIFIED_SOURCE ( 'Symmetric', '', #72, .NOT_KNOWN. ) ;
#568 = DIRECTION ( 'NONE',  ( -1.000000000000000000, -0.000000000000000000, -0.000000000000000000 ) ) ;
#569 = UNCERTAINTY_MEASURE_WITH_UNIT (LENGTH_MEASURE( 1.000000000000000082E-05 ), #199, 'distance_accuracy_value', 'NONE');
#570 = EDGE_LOOP ( 'NONE', ( #577, #135 ) ) ;
#571 = CARTESIAN_POINT ( 'NONE',  ( 5.999999999999996447, 7.000000000000000888, 0.5000000000000000000 ) ) ;
#572 = EDGE_CURVE ( 'NONE', #79, #460, #23, .T. ) ;
#573 = CARTESIAN_POINT ( 'NONE',  ( 6.149999999999997691, -5.999999999999998224, 0.5000000000000000000 ) ) ;
#574 = ORIENTED_EDGE ( 'NONE', *, *, #161, .T. ) ;
#575 = CARTESIAN_POINT ( 'NONE',  ( 6.149999999999996803, 6.000000000000004441, 0.5000000000000000000 ) ) ;
#576 = LINE ( 'NONE', #414, #52 ) ;
#577 = ORIENTED_EDGE ( 'NONE', *, *, #344, .F. ) ;
#578 = CIRCLE ( 'NONE', #107, 0.1500000000000002998 ) ;
#579 = DIRECTION ( 'NONE',  ( -1.000000000000000000, 0.000000000000000000, 0.000000000000000000 ) ) ;
#580 = VECTOR ( 'NONE', #83, 39.37007874015748143 ) ;
#581 = EDGE_CURVE ( 'NONE', #460, #47, #480, .T. ) ;
#582 = ORIENTED_EDGE ( 'NONE', *, *, #212, .T. ) ;
#583 = CARTESIAN_POINT ( 'NONE',  ( 5.999999999999997335, -5.999999999999998224, 0.5000000000000000000 ) ) ;
#584 = ORIENTED_EDGE ( 'NONE', *, *, #629, .F. ) ;
#585 = EDGE_CURVE ( 'NONE', #221, #493, #633, .T. ) ;
#586 = DIRECTION ( 'NONE',  ( -1.000000000000000000, 0.000000000000000000, 0.000000000000000000 ) ) ;
#587 = ORIENTED_EDGE ( 'NONE', *, *, #285, .F. ) ;
#588 = CARTESIAN_POINT ( 'NONE',  ( -7.000000000000001776, 5.999999999999999112, 0.000000000000000000 ) ) ;
#589 = CIRCLE ( 'NONE', #309, 0.1500000000000002998 ) ;
#590 = EDGE_LOOP ( 'NONE', ( #272, #620, #396, #390 ) ) ;
#591 = VECTOR ( 'NONE', #535, 39.37007874015748143 ) ;
#592 = DIRECTION ( 'NONE',  ( -0.000000000000000000, -0.000000000000000000, -1.000000000000000000 ) ) ;
#593 = ORIENTED_EDGE ( 'NONE', *, *, #572, .T. ) ;
#594 = LINE ( 'NONE', #14, #311 ) ;
#595 =( NAMED_UNIT ( * ) PLANE_ANGLE_UNIT ( ) SI_UNIT ( $, .RADIAN. ) );
#596 = CARTESIAN_POINT ( 'NONE',  ( 6.999999999999996447, 5.999999999999999112, 0.5000000000000000000 ) ) ;
#597 = LINE ( 'NONE', #157, #2 ) ;
#598 = CIRCLE ( 'NONE', #12, 0.1500000000000002998 ) ;
#599 = EDGE_CURVE ( 'NONE', #100, #192, #334, .T. ) ;
#600 = ORIENTED_EDGE ( 'NONE', *, *, #485, .F. ) ;
#601 = DIRECTION ( 'NONE',  ( 1.000000000000000000, 0.000000000000000000, 0.000000000000000000 ) ) ;
#602 = LINE ( 'NONE', #361, #362 ) ;
#603 = ADVANCED_FACE ( 'NONE', ( #330 ), #626, .F. ) ;
#604 = CARTESIAN_POINT ( 'NONE',  ( -6.150000000000003020, 5.999999999999999112, 0.5000000000000000000 ) ) ;
#605 = DIRECTION ( 'NONE',  ( -1.000000000000000000, -0.000000000000000000, -0.000000000000000000 ) ) ;
#606 = ORIENTED_EDGE ( 'NONE', *, *, #133, .T. ) ;
#607 = EDGE_CURVE ( 'NONE', #263, #608, #177, .T. ) ;
#608 = VERTEX_POINT ( 'NONE', #136 ) ;
#609 = EDGE_LOOP ( 'NONE', ( #237, #122, #329, #413 ) ) ;
#610 = PRODUCT_DEFINITION_SHAPE ( 'NONE', 'NONE',  #306 ) ;
#611 = AXIS2_PLACEMENT_3D ( 'NONE', #308, #62, #548 ) ;
#612 = AXIS2_PLACEMENT_3D ( 'NONE', #38, #337, #50 ) ;
#613 = CARTESIAN_POINT ( 'NONE',  ( 5.999999999999996447, 6.000000000000004441, 0.5000000000000000000 ) ) ;
#614 = VERTEX_POINT ( 'NONE', #317 ) ;
#615 = LENGTH_MEASURE_WITH_UNIT ( LENGTH_MEASURE( 0.02539999999999999897 ), #74 );
#616 = CARTESIAN_POINT ( 'NONE',  ( 6.149999999999997691, -5.999999999999998224, 0.000000000000000000 ) ) ;
#617 = ORIENTED_EDGE ( 'NONE', *, *, #474, .T. ) ;
#618 = DIRECTION ( 'NONE',  ( 0.000000000000000000, 0.000000000000000000, 1.000000000000000000 ) ) ;
#619 = CYLINDRICAL_SURFACE ( 'NONE', #214, 0.1500000000000002998 ) ;
#620 = ORIENTED_EDGE ( 'NONE', *, *, #381, .F. ) ;
#621 = EDGE_CURVE ( 'NONE', #475, #22, #232, .T. ) ;
#622 = VECTOR ( 'NONE', #288, 39.37007874015748143 ) ;
#623 = PLANE ( 'NONE',  #467 ) ;
#624 = DIRECTION ( 'NONE',  ( 0.000000000000000000, 0.000000000000000000, 1.000000000000000000 ) ) ;
#625 = ORIENTED_EDGE ( 'NONE', *, *, #505, .T. ) ;
#626 = PLANE ( 'NONE',  #291 ) ;
#627 = DIRECTION ( 'NONE',  ( 1.000000000000000000, 0.000000000000000000, 0.000000000000000000 ) ) ;
#628 = ORIENTED_EDGE ( 'NONE', *, *, #523, .F. ) ;
#629 = EDGE_CURVE ( 'NONE', #608, #3, #31, .T. ) ;
#630 = DIRECTION ( 'NONE',  ( 0.000000000000000000, 0.000000000000000000, 1.000000000000000000 ) ) ;
#631 = ORIENTED_EDGE ( 'NONE', *, *, #474, .F. ) ;
#632 = LINE ( 'NONE', #186, #489 ) ;
#633 = CIRCLE ( 'NONE', #411, 0.1500000000000002998 ) ;
#634 = EDGE_LOOP ( 'NONE', ( #262, #488, #513, #333, #631, #540, #528, #636 ) ) ;
#635 = PLANE ( 'NONE',  #268 ) ;
#636 = ORIENTED_EDGE ( 'NONE', *, *, #264, .F. ) ;
#637 = DIRECTION ( 'NONE',  ( -0.000000000000000000, -0.000000000000000000, -1.000000000000000000 ) ) ;
#638 = EDGE_LOOP ( 'NONE', ( #625, #517, #142, #506 ) ) ;
#639 = EDGE_CURVE ( 'NONE', #248, #549, #29, .T. ) ;
ENDSEC;
END-ISO-10303-21;
