ISO-10303-21;
HEADER;
FILE_DESCRIPTION (( 'STEP AP214' ),
    '1' );
FILE_NAME ('small_emergency_button.STEP',
    '2026-09-04T22:08:28',
    ( '' ),
    ( '' ),
    'SwSTEP 2.0',
    'SolidWorks 2026',
    '' );
FILE_SCHEMA (( 'AUTOMOTIVE_DESIGN' ));
ENDSEC;

DATA;
#1 = FILL_AREA_STYLE ('',( #228 ) ) ;
#2 = ADVANCED_FACE ( 'NONE', ( #60, #105 ), #378, .F. ) ;
#3 = DIRECTION ( 'NONE',  ( 0.000000000000000000, 0.000000000000000000, -1.000000000000000000 ) ) ;
#4 = CYLINDRICAL_SURFACE ( 'NONE', #346, 12.04900000000000304 ) ;
#5 =( GEOMETRIC_REPRESENTATION_CONTEXT ( 3 ) GLOBAL_UNCERTAINTY_ASSIGNED_CONTEXT ( ( #271 ) ) GLOBAL_UNIT_ASSIGNED_CONTEXT ( ( #241, #84, #256 ) ) REPRESENTATION_CONTEXT ( 'NONE', 'WORKASPACE' ) );
#6 = CARTESIAN_POINT ( 'NONE',  ( -15.04899999999999771, -12.82699999999999996, 0.000000000000000000 ) ) ;
#7 = CARTESIAN_POINT ( 'NONE',  ( 1.475576928292646026E-15, 0.000000000000000000, 12.04900000000000304 ) ) ;
#8 =( LENGTH_UNIT ( ) NAMED_UNIT ( * ) SI_UNIT ( .MILLI., .METRE. ) );
#9 = VERTEX_POINT ( 'NONE', #299 ) ;
#10 = PRODUCT_CONTEXT ( 'NONE', #469, 'mechanical' ) ;
#11 = ORIENTED_EDGE ( 'NONE', *, *, #147, .T. ) ;
#12 =( NAMED_UNIT ( * ) PLANE_ANGLE_UNIT ( ) SI_UNIT ( $, .RADIAN. ) );
#13 = ORIENTED_EDGE ( 'NONE', *, *, #53, .F. ) ;
#14 = FILL_AREA_STYLE ('',( #276 ) ) ;
#15 = AXIS2_PLACEMENT_3D ( 'NONE', #305, #460, #110 ) ;
#16 = ORIENTED_EDGE ( 'NONE', *, *, #36, .T. ) ;
#17 = AXIS2_PLACEMENT_3D ( 'NONE', #347, #356, #497 ) ;
#18 = STYLED_ITEM ( 'NONE', ( #32 ), #414 ) ;
#19 = CARTESIAN_POINT ( 'NONE',  ( 0.000000000000000000, -7.747000000000005215, 0.000000000000000000 ) ) ;
#20 = ORIENTED_EDGE ( 'NONE', *, *, #429, .T. ) ;
#21 = SURFACE_STYLE_FILL_AREA ( #23 ) ;
#22 =( NAMED_UNIT ( * ) SI_UNIT ( $, .STERADIAN. ) SOLID_ANGLE_UNIT ( ) );
#23 = FILL_AREA_STYLE ('',( #412 ) ) ;
#24 = EDGE_LOOP ( 'NONE', ( #361, #172, #202, #160 ) ) ;
#25 = PRESENTATION_LAYER_ASSIGNMENT (  '', '', ( #245 ) ) ;
#26 = DIRECTION ( 'NONE',  ( -0.000000000000000000, -1.000000000000000000, -0.000000000000000000 ) ) ;
#27 = DIRECTION ( 'NONE',  ( 0.000000000000000000, -1.000000000000000000, -0.000000000000000000 ) ) ;
#28 = DIRECTION ( 'NONE',  ( 0.000000000000000000, 1.000000000000000000, 0.000000000000000000 ) ) ;
#29 = SURFACE_STYLE_FILL_AREA ( #98 ) ;
#30 =( LENGTH_UNIT ( ) NAMED_UNIT ( * ) SI_UNIT ( .MILLI., .METRE. ) );
#31 = FACE_OUTER_BOUND ( 'NONE', #192, .T. ) ;
#32 = PRESENTATION_STYLE_ASSIGNMENT (( #145 ) ) ;
#33 = DIRECTION ( 'NONE',  ( -0.000000000000000000, -1.000000000000000000, -0.000000000000000000 ) ) ;
#34 = SURFACE_SIDE_STYLE ('',( #390 ) ) ;
#35 = CARTESIAN_POINT ( 'NONE',  ( 0.000000000000000000, -17.90700000000000713, 0.000000000000000000 ) ) ;
#36 = EDGE_CURVE ( 'NONE', #400, #236, #115, .T. ) ;
#37 = DIRECTION ( 'NONE',  ( -0.000000000000000000, -1.000000000000000000, -0.000000000000000000 ) ) ;
#38 = EDGE_CURVE ( 'NONE', #403, #438, #418, .T. ) ;
#39 = PRESENTATION_LAYER_ASSIGNMENT (  '', '', ( #455 ) ) ;
#40 = LINE ( 'NONE', #267, #368 ) ;
#41 = MECHANICAL_DESIGN_GEOMETRIC_PRESENTATION_REPRESENTATION (  '', ( #18 ), #496 ) ;
#42 =( LENGTH_UNIT ( ) NAMED_UNIT ( * ) SI_UNIT ( .MILLI., .METRE. ) );
#43 = DIRECTION ( 'NONE',  ( 0.000000000000000000, 0.000000000000000000, -1.000000000000000000 ) ) ;
#44 = EDGE_CURVE ( 'NONE', #208, #330, #68, .T. ) ;
#45 = ADVANCED_FACE ( 'NONE', ( #31 ), #255, .T. ) ;
#46 = FACE_OUTER_BOUND ( 'NONE', #397, .T. ) ;
#47 = ORIENTED_EDGE ( 'NONE', *, *, #109, .T. ) ;
#48 = AXIS2_PLACEMENT_3D ( 'NONE', #379, #26, #140 ) ;
#49 = ORIENTED_EDGE ( 'NONE', *, *, #216, .F. ) ;
#50 = DIRECTION ( 'NONE',  ( 0.000000000000000000, 1.000000000000000000, 0.000000000000000000 ) ) ;
#51 =( GEOMETRIC_REPRESENTATION_CONTEXT ( 3 ) GLOBAL_UNCERTAINTY_ASSIGNED_CONTEXT ( ( #450 ) ) GLOBAL_UNIT_ASSIGNED_CONTEXT ( ( #321, #92, #207 ) ) REPRESENTATION_CONTEXT ( 'NONE', 'WORKASPACE' ) );
#52 = EDGE_LOOP ( 'NONE', ( #220, #88 ) ) ;
#53 = EDGE_CURVE ( 'NONE', #236, #400, #394, .T. ) ;
#54 = PRESENTATION_LAYER_ASSIGNMENT (  '', '', ( #365 ) ) ;
#55 = ORIENTED_EDGE ( 'NONE', *, *, #64, .F. ) ;
#56 = EDGE_LOOP ( 'NONE', ( #290, #214 ) ) ;
#57 = AXIS2_PLACEMENT_3D ( 'NONE', #124, #158, #318 ) ;
#58 = AXIS2_PLACEMENT_3D ( 'NONE', #422, #69, #189 ) ;
#59 = EDGE_CURVE ( 'NONE', #205, #252, #235, .T. ) ;
#60 = FACE_OUTER_BOUND ( 'NONE', #52, .T. ) ;
#61 = FILL_AREA_STYLE ('',( #99 ) ) ;
#62 = VECTOR ( 'NONE', #382, 1000.000000000000000 ) ;
#63 =( NAMED_UNIT ( * ) PLANE_ANGLE_UNIT ( ) SI_UNIT ( $, .RADIAN. ) );
#64 = EDGE_CURVE ( 'NONE', #165, #400, #463, .T. ) ;
#65 = CARTESIAN_POINT ( 'NONE',  ( 0.000000000000000000, 17.90699999999999292, 0.000000000000000000 ) ) ;
#66 =( LENGTH_UNIT ( ) NAMED_UNIT ( * ) SI_UNIT ( .MILLI., .METRE. ) );
#67 = PRESENTATION_LAYER_ASSIGNMENT (  '', '', ( #376 ) ) ;
#68 = LINE ( 'NONE', #215, #249 ) ;
#69 = DIRECTION ( 'NONE',  ( -0.000000000000000000, -1.000000000000000000, -0.000000000000000000 ) ) ;
#70 = VECTOR ( 'NONE', #292, 1000.000000000000000 ) ;
#71 = CARTESIAN_POINT ( 'NONE',  ( 0.000000000000000000, -12.82699999999999996, 0.000000000000000000 ) ) ;
#72 = UNCERTAINTY_MEASURE_WITH_UNIT (LENGTH_MEASURE( 1.000000000000000082E-05 ), #218, 'distance_accuracy_value', 'NONE');
#73 = DIRECTION ( 'NONE',  ( 0.000000000000000000, -0.000000000000000000, 1.000000000000000000 ) ) ;
#74 = FACE_OUTER_BOUND ( 'NONE', #95, .T. ) ;
#75 = FILL_AREA_STYLE_COLOUR ( '', #344 ) ;
#76 = CARTESIAN_POINT ( 'NONE',  ( 1.975232822344766212E-15, 17.90699999999999292, -16.12900000000000134 ) ) ;
#77 = DIRECTION ( 'NONE',  ( -0.000000000000000000, -1.000000000000000000, -0.000000000000000000 ) ) ;
#78 = AXIS2_PLACEMENT_3D ( 'NONE', #240, #81, #156 ) ;
#79 = DIRECTION ( 'NONE',  ( 0.000000000000000000, 0.000000000000000000, -1.000000000000000000 ) ) ;
#80 = AXIS2_PLACEMENT_3D ( 'NONE', #193, #107, #149 ) ;
#81 = DIRECTION ( 'NONE',  ( -0.000000000000000000, -1.000000000000000000, -0.000000000000000000 ) ) ;
#82 = PRESENTATION_LAYER_ASSIGNMENT (  '', '', ( #18 ) ) ;
#83 = FILL_AREA_STYLE_COLOUR ( '', #480 ) ;
#84 =( NAMED_UNIT ( * ) PLANE_ANGLE_UNIT ( ) SI_UNIT ( $, .RADIAN. ) );
#85 = APPLICATION_PROTOCOL_DEFINITION ( 'draft international standard', 'automotive_design', 1998, #469 ) ;
#86 = PRESENTATION_STYLE_ASSIGNMENT (( #482 ) ) ;
#87 = EDGE_CURVE ( 'NONE', #438, #90, #143, .T. ) ;
#88 = ORIENTED_EDGE ( 'NONE', *, *, #117, .F. ) ;
#89 = COLOUR_RGB ( '',1.000000000000000000, 0.9372549019607843146, 0.1372549019607843257 ) ;
#90 = VERTEX_POINT ( 'NONE', #499 ) ;
#91 = EDGE_CURVE ( 'NONE', #403, #123, #430, .T. ) ;
#92 =( NAMED_UNIT ( * ) PLANE_ANGLE_UNIT ( ) SI_UNIT ( $, .RADIAN. ) );
#93 = ORIENTED_EDGE ( 'NONE', *, *, #36, .F. ) ;
#94 = DIRECTION ( 'NONE',  ( -0.000000000000000000, -1.000000000000000000, -0.000000000000000000 ) ) ;
#95 = EDGE_LOOP ( 'NONE', ( #491, #452 ) ) ;
#96 =( NAMED_UNIT ( * ) SI_UNIT ( $, .STERADIAN. ) SOLID_ANGLE_UNIT ( ) );
#97 = ORIENTED_EDGE ( 'NONE', *, *, #126, .F. ) ;
#98 = FILL_AREA_STYLE ('',( #458 ) ) ;
#99 = FILL_AREA_STYLE_COLOUR ( '', #133 ) ;
#100 =( NAMED_UNIT ( * ) SI_UNIT ( $, .STERADIAN. ) SOLID_ANGLE_UNIT ( ) );
#101 = DIRECTION ( 'NONE',  ( 0.000000000000000000, 0.000000000000000000, 1.000000000000000000 ) ) ;
#102 = PRESENTATION_STYLE_ASSIGNMENT (( #383 ) ) ;
#103 = CIRCLE ( 'NONE', #407, 15.04900000000000482 ) ;
#104 = PLANE ( 'NONE',  #398 ) ;
#105 = FACE_BOUND ( 'NONE', #406, .T. ) ;
#106 =( NAMED_UNIT ( * ) SI_UNIT ( $, .STERADIAN. ) SOLID_ANGLE_UNIT ( ) );
#107 = DIRECTION ( 'NONE',  ( -0.000000000000000000, -1.000000000000000000, -0.000000000000000000 ) ) ;
#108 = DIRECTION ( 'NONE',  ( -0.000000000000000000, -1.000000000000000000, -0.000000000000000000 ) ) ;
#109 = EDGE_CURVE ( 'NONE', #123, #90, #40, .T. ) ;
#110 = DIRECTION ( 'NONE',  ( 0.000000000000000000, 0.000000000000000000, -1.000000000000000000 ) ) ;
#111 = PRESENTATION_STYLE_ASSIGNMENT (( #231 ) ) ;
#112 = CARTESIAN_POINT ( 'NONE',  ( 0.000000000000000000, 0.000000000000000000, 0.000000000000000000 ) ) ;
#113 = AXIS2_PLACEMENT_3D ( 'NONE', #198, #50, #366 ) ;
#114 = DIRECTION ( 'NONE',  ( -0.000000000000000000, -1.000000000000000000, -0.000000000000000000 ) ) ;
#115 = CIRCLE ( 'NONE', #425, 11.04899999999999949 ) ;
#116 = UNCERTAINTY_MEASURE_WITH_UNIT (LENGTH_MEASURE( 1.000000000000000082E-05 ), #42, 'distance_accuracy_value', 'NONE');
#117 = EDGE_CURVE ( 'NONE', #253, #205, #103, .T. ) ;
#118 = FACE_OUTER_BOUND ( 'NONE', #130, .T. ) ;
#119 = SHAPE_DEFINITION_REPRESENTATION ( #300, #410 ) ;
#120 = COLOUR_RGB ( '',1.000000000000000000, 0.9372549019607843146, 0.1372549019607843257 ) ;
#121 = DIRECTION ( 'NONE',  ( 0.000000000000000000, 0.000000000000000000, -1.000000000000000000 ) ) ;
#122 = SURFACE_STYLE_FILL_AREA ( #14 ) ;
#123 = VERTEX_POINT ( 'NONE', #309 ) ;
#124 = CARTESIAN_POINT ( 'NONE',  ( 0.000000000000000000, 0.000000000000000000, 0.000000000000000000 ) ) ;
#125 = DIRECTION ( 'NONE',  ( 0.000000000000000000, 0.000000000000000000, -1.000000000000000000 ) ) ;
#126 = EDGE_CURVE ( 'NONE', #9, #165, #328, .T. ) ;
#127 = VERTEX_POINT ( 'NONE', #159 ) ;
#128 = DIRECTION ( 'NONE',  ( -0.000000000000000000, -1.000000000000000000, -0.000000000000000000 ) ) ;
#129 = ORIENTED_EDGE ( 'NONE', *, *, #53, .T. ) ;
#130 = EDGE_LOOP ( 'NONE', ( #55, #132, #364, #93 ) ) ;
#131 = DIRECTION ( 'NONE',  ( 0.000000000000000000, 0.000000000000000000, -1.000000000000000000 ) ) ;
#132 = ORIENTED_EDGE ( 'NONE', *, *, #216, .T. ) ;
#133 = COLOUR_RGB ( '',0.8941176470588234615, 0.8941176470588234615, 0.8941176470588234615 ) ;
#134 = CARTESIAN_POINT ( 'NONE',  ( 0.000000000000000000, 0.000000000000000000, 0.000000000000000000 ) ) ;
#135 = CARTESIAN_POINT ( 'NONE',  ( 1.975232822344766212E-15, 17.90699999999999292, -16.12900000000000134 ) ) ;
#136 = DIRECTION ( 'NONE',  ( 0.000000000000000000, -0.000000000000000000, 1.000000000000000000 ) ) ;
#137 = DIRECTION ( 'NONE',  ( 0.000000000000000000, 0.000000000000000000, -1.000000000000000000 ) ) ;
#138 = EDGE_CURVE ( 'NONE', #225, #208, #478, .T. ) ;
#139 =( LENGTH_UNIT ( ) NAMED_UNIT ( * ) SI_UNIT ( .MILLI., .METRE. ) );
#140 = DIRECTION ( 'NONE',  ( 0.000000000000000000, 0.000000000000000000, -1.000000000000000000 ) ) ;
#141 = FILL_AREA_STYLE ('',( #413 ) ) ;
#142 = CIRCLE ( 'NONE', #298, 15.04899999999999771 ) ;
#143 = CIRCLE ( 'NONE', #17, 16.12900000000000134 ) ;
#144 =( GEOMETRIC_REPRESENTATION_CONTEXT ( 3 ) GLOBAL_UNCERTAINTY_ASSIGNED_CONTEXT ( ( #286 ) ) GLOBAL_UNIT_ASSIGNED_CONTEXT ( ( #266, #273, #320 ) ) REPRESENTATION_CONTEXT ( 'NONE', 'WORKASPACE' ) );
#145 = SURFACE_STYLE_USAGE ( .BOTH. , #311 ) ;
#146 = AXIS2_PLACEMENT_3D ( 'NONE', #494, #464, #462 ) ;
#147 = EDGE_CURVE ( 'NONE', #225, #127, #423, .T. ) ;
#148 = UNCERTAINTY_MEASURE_WITH_UNIT (LENGTH_MEASURE( 1.000000000000000082E-05 ), #139, 'distance_accuracy_value', 'NONE');
#149 = DIRECTION ( 'NONE',  ( 0.000000000000000000, 0.000000000000000000, -1.000000000000000000 ) ) ;
#150 = FILL_AREA_STYLE_COLOUR ( '', #459 ) ;
#151 = PRESENTATION_LAYER_ASSIGNMENT (  '', '', ( #421 ) ) ;
#152 = CARTESIAN_POINT ( 'NONE',  ( 0.000000000000000000, 1.142999999999992466, 0.000000000000000000 ) ) ;
#153 = UNCERTAINTY_MEASURE_WITH_UNIT (LENGTH_MEASURE( 1.000000000000000082E-05 ), #8, 'distance_accuracy_value', 'NONE');
#154 = DIRECTION ( 'NONE',  ( 0.000000000000000000, 0.000000000000000000, -1.000000000000000000 ) ) ;
#155 =( NAMED_UNIT ( * ) PLANE_ANGLE_UNIT ( ) SI_UNIT ( $, .RADIAN. ) );
#156 = DIRECTION ( 'NONE',  ( 0.000000000000000000, 0.000000000000000000, -1.000000000000000000 ) ) ;
#157 = STYLED_ITEM ( 'NONE', ( #339 ), #2 ) ;
#158 = DIRECTION ( 'NONE',  ( 0.000000000000000000, 0.000000000000000000, 1.000000000000000000 ) ) ;
#159 = CARTESIAN_POINT ( 'NONE',  ( 1.475576928292646026E-15, -7.747000000000005215, 12.04900000000000126 ) ) ;
#160 = ORIENTED_EDGE ( 'NONE', *, *, #161, .F. ) ;
#161 = EDGE_CURVE ( 'NONE', #405, #252, #142, .T. ) ;
#162 =( NAMED_UNIT ( * ) PLANE_ANGLE_UNIT ( ) SI_UNIT ( $, .RADIAN. ) );
#163 = ORIENTED_EDGE ( 'NONE', *, *, #317, .F. ) ;
#164 = SURFACE_STYLE_USAGE ( .BOTH. , #251 ) ;
#165 = VERTEX_POINT ( 'NONE', #261 ) ;
#166 = CARTESIAN_POINT ( 'NONE',  ( 0.000000000000000000, 0.000000000000000000, 0.000000000000000000 ) ) ;
#167 = CARTESIAN_POINT ( 'NONE',  ( 0.000000000000000000, -12.82699999999999996, -15.04899999999999771 ) ) ;
#168 = AXIS2_PLACEMENT_3D ( 'NONE', #112, #33, #43 ) ;
#169 = ORIENTED_EDGE ( 'NONE', *, *, #161, .T. ) ;
#170 = MECHANICAL_DESIGN_GEOMETRIC_PRESENTATION_REPRESENTATION (  '', ( #376 ), #481 ) ;
#171 = PRODUCT_RELATED_PRODUCT_CATEGORY ( 'part', '', ( #495 ) ) ;
#172 = ORIENTED_EDGE ( 'NONE', *, *, #117, .T. ) ;
#173 = LINE ( 'NONE', #331, #70 ) ;
#174 = SURFACE_STYLE_USAGE ( .BOTH. , #222 ) ;
#175 = AXIS2_PLACEMENT_3D ( 'NONE', #446, #336, #131 ) ;
#176 = DIRECTION ( 'NONE',  ( -0.000000000000000000, -1.000000000000000000, -0.000000000000000000 ) ) ;
#177 = ADVANCED_FACE ( 'NONE', ( #424, #466 ), #420, .F. ) ;
#178 = FACE_OUTER_BOUND ( 'NONE', #248, .T. ) ;
#179 = ORIENTED_EDGE ( 'NONE', *, *, #59, .F. ) ;
#180 = AXIS2_PLACEMENT_3D ( 'NONE', #19, #128, #125 ) ;
#181 = EDGE_CURVE ( 'NONE', #205, #253, #428, .T. ) ;
#182 = DIRECTION ( 'NONE',  ( 0.000000000000000000, 0.000000000000000000, -1.000000000000000000 ) ) ;
#183 = CLOSED_SHELL ( 'NONE', ( #362, #219, #498, #258, #414, #268, #401, #45, #2, #381, #177, #186, #278 ) ) ;
#184 = DIRECTION ( 'NONE',  ( 0.000000000000000000, 1.000000000000000000, 0.000000000000000000 ) ) ;
#185 =( NAMED_UNIT ( * ) PLANE_ANGLE_UNIT ( ) SI_UNIT ( $, .RADIAN. ) );
#186 = ADVANCED_FACE ( 'NONE', ( #118 ), #264, .T. ) ;
#187 = FILL_AREA_STYLE ('',( #150 ) ) ;
#188 = PRESENTATION_LAYER_ASSIGNMENT (  '', '', ( #409 ) ) ;
#189 = DIRECTION ( 'NONE',  ( 0.000000000000000000, 0.000000000000000000, -1.000000000000000000 ) ) ;
#190 = UNCERTAINTY_MEASURE_WITH_UNIT (LENGTH_MEASURE( 1.000000000000000082E-05 ), #30, 'distance_accuracy_value', 'NONE');
#191 = FACE_OUTER_BOUND ( 'NONE', #388, .T. ) ;
#192 = EDGE_LOOP ( 'NONE', ( #474, #285, #380, #246 ) ) ;
#193 = CARTESIAN_POINT ( 'NONE',  ( 0.000000000000000000, 1.142999999999992466, 0.000000000000000000 ) ) ;
#194 = AXIS2_PLACEMENT_3D ( 'NONE', #6, #232, #73 ) ;
#195 = DIRECTION ( 'NONE',  ( -0.000000000000000000, -1.000000000000000000, -0.000000000000000000 ) ) ;
#196 = PRESENTATION_LAYER_ASSIGNMENT (  '', '', ( #269 ) ) ;
#197 = CARTESIAN_POINT ( 'NONE',  ( 0.000000000000000000, 0.000000000000000000, -15.04900000000000126 ) ) ;
#198 = CARTESIAN_POINT ( 'NONE',  ( 0.000000000000000000, 17.90699999999999292, 0.000000000000000000 ) ) ;
#199 = AXIS2_PLACEMENT_3D ( 'NONE', #254, #176, #487 ) ;
#200 = EDGE_LOOP ( 'NONE', ( #97, #49 ) ) ;
#201 = SURFACE_STYLE_FILL_AREA ( #471 ) ;
#202 = ORIENTED_EDGE ( 'NONE', *, *, #59, .T. ) ;
#203 = COLOUR_RGB ( '',0.6941176470588235059, 0.09803921568627450844, 0.09803921568627450844 ) ;
#204 = CARTESIAN_POINT ( 'NONE',  ( 0.000000000000000000, 17.90699999999999292, 0.000000000000000000 ) ) ;
#205 = VERTEX_POINT ( 'NONE', #272 ) ;
#206 = VECTOR ( 'NONE', #293, 1000.000000000000114 ) ;
#207 =( NAMED_UNIT ( * ) SI_UNIT ( $, .STERADIAN. ) SOLID_ANGLE_UNIT ( ) );
#208 = VERTEX_POINT ( 'NONE', #426 ) ;
#209 = PRODUCT_DEFINITION_CONTEXT ( 'detailed design', #226, 'design' ) ;
#210 = AXIS2_PLACEMENT_3D ( 'NONE', #152, #312, #3 ) ;
#211 = DIRECTION ( 'NONE',  ( -0.000000000000000000, -1.000000000000000000, -0.000000000000000000 ) ) ;
#212 = ORIENTED_EDGE ( 'NONE', *, *, #334, .F. ) ;
#213 = MECHANICAL_DESIGN_GEOMETRIC_PRESENTATION_REPRESENTATION (  '', ( #245 ), #265 ) ;
#214 = ORIENTED_EDGE ( 'NONE', *, *, #87, .F. ) ;
#215 = CARTESIAN_POINT ( 'NONE',  ( 0.000000000000000000, 0.000000000000000000, -12.04900000000000304 ) ) ;
#216 = EDGE_CURVE ( 'NONE', #165, #9, #275, .T. ) ;
#217 = CONICAL_SURFACE ( 'NONE', #281, 16.12900000000000134, 0.06433485791409654375 ) ;
#218 =( LENGTH_UNIT ( ) NAMED_UNIT ( * ) SI_UNIT ( .MILLI., .METRE. ) );
#219 = ADVANCED_FACE ( 'NONE', ( #191 ), #385, .T. ) ;
#220 = ORIENTED_EDGE ( 'NONE', *, *, #181, .F. ) ;
#221 = CARTESIAN_POINT ( 'NONE',  ( 0.000000000000000000, -7.747000000000005215, -12.04900000000000126 ) ) ;
#222 = SURFACE_SIDE_STYLE ('',( #374 ) ) ;
#223 = COLOUR_RGB ( '',0.6941176470588235059, 0.09803921568627450844, 0.09803921568627450844 ) ;
#224 =( NAMED_UNIT ( * ) PLANE_ANGLE_UNIT ( ) SI_UNIT ( $, .RADIAN. ) );
#225 = VERTEX_POINT ( 'NONE', #437 ) ;
#226 = APPLICATION_CONTEXT ( 'automotive_design' ) ;
#227 = DIRECTION ( 'NONE',  ( 0.000000000000000000, 0.000000000000000000, -1.000000000000000000 ) ) ;
#228 = FILL_AREA_STYLE_COLOUR ( '', #120 ) ;
#229 = CARTESIAN_POINT ( 'NONE',  ( 0.000000000000000000, 0.000000000000000000, 0.000000000000000000 ) ) ;
#230 = ORIENTED_EDGE ( 'NONE', *, *, #44, .F. ) ;
#231 = SURFACE_STYLE_USAGE ( .BOTH. , #34 ) ;
#232 = DIRECTION ( 'NONE',  ( 0.000000000000000000, 1.000000000000000000, 0.000000000000000000 ) ) ;
#233 = EDGE_CURVE ( 'NONE', #127, #330, #247, .T. ) ;
#234 = FACE_OUTER_BOUND ( 'NONE', #323, .T. ) ;
#235 = LINE ( 'NONE', #197, #369 ) ;
#236 = VERTEX_POINT ( 'NONE', #443 ) ;
#237 = MECHANICAL_DESIGN_GEOMETRIC_PRESENTATION_REPRESENTATION (  '', ( #455 ), #415 ) ;
#238 = AXIS2_PLACEMENT_3D ( 'NONE', #35, #37, #319 ) ;
#239 =( NAMED_UNIT ( * ) SI_UNIT ( $, .STERADIAN. ) SOLID_ANGLE_UNIT ( ) );
#240 = CARTESIAN_POINT ( 'NONE',  ( 0.000000000000000000, -7.747000000000005215, 0.000000000000000000 ) ) ;
#241 =( LENGTH_UNIT ( ) NAMED_UNIT ( * ) SI_UNIT ( .MILLI., .METRE. ) );
#242 = CIRCLE ( 'NONE', #48, 12.04900000000000482 ) ;
#243 = ORIENTED_EDGE ( 'NONE', *, *, #138, .F. ) ;
#244 =( NAMED_UNIT ( * ) SI_UNIT ( $, .STERADIAN. ) SOLID_ANGLE_UNIT ( ) );
#245 = STYLED_ITEM ( 'NONE', ( #250 ), #410 ) ;
#246 = ORIENTED_EDGE ( 'NONE', *, *, #233, .F. ) ;
#247 = CIRCLE ( 'NONE', #180, 12.04900000000000126 ) ;
#248 = EDGE_LOOP ( 'NONE', ( #129, #16 ) ) ;
#249 = VECTOR ( 'NONE', #449, 1000.000000000000000 ) ;
#250 = PRESENTATION_STYLE_ASSIGNMENT (( #324 ) ) ;
#251 = SURFACE_SIDE_STYLE ('',( #363 ) ) ;
#252 = VERTEX_POINT ( 'NONE', #167 ) ;
#253 = VERTEX_POINT ( 'NONE', #402 ) ;
#254 = CARTESIAN_POINT ( 'NONE',  ( 0.000000000000000000, 1.142999999999992466, 0.000000000000000000 ) ) ;
#255 = CYLINDRICAL_SURFACE ( 'NONE', #168, 12.04900000000000304 ) ;
#256 =( NAMED_UNIT ( * ) SI_UNIT ( $, .STERADIAN. ) SOLID_ANGLE_UNIT ( ) );
#257 = AXIS2_PLACEMENT_3D ( 'NONE', #229, #114, #274 ) ;
#258 = ADVANCED_FACE ( 'NONE', ( #46 ), #354, .T. ) ;
#259 = SURFACE_SIDE_STYLE ('',( #341 ) ) ;
#260 = SURFACE_STYLE_FILL_AREA ( #187 ) ;
#261 = CARTESIAN_POINT ( 'NONE',  ( 1.353112248377910286E-15, -12.82699999999999996, 11.04899999999999771 ) ) ;
#262 = CIRCLE ( 'NONE', #175, 12.04900000000000126 ) ;
#263 = PLANE ( 'NONE',  #277 ) ;
#264 = CYLINDRICAL_SURFACE ( 'NONE', #257, 11.04899999999999949 ) ;
#265 =( GEOMETRIC_REPRESENTATION_CONTEXT ( 3 ) GLOBAL_UNCERTAINTY_ASSIGNED_CONTEXT ( ( #116 ) ) GLOBAL_UNIT_ASSIGNED_CONTEXT ( ( #42, #357, #355 ) ) REPRESENTATION_CONTEXT ( 'NONE', 'WORKASPACE' ) );
#266 =( LENGTH_UNIT ( ) NAMED_UNIT ( * ) SI_UNIT ( .MILLI., .METRE. ) );
#267 = CARTESIAN_POINT ( 'NONE',  ( 0.000000000000000000, 17.90699999999999292, 16.12900000000000134 ) ) ;
#268 = ADVANCED_FACE ( 'NONE', ( #473 ), #217, .T. ) ;
#269 = STYLED_ITEM ( 'NONE', ( #283 ), #258 ) ;
#270 = FACE_OUTER_BOUND ( 'NONE', #56, .T. ) ;
#271 = UNCERTAINTY_MEASURE_WITH_UNIT (LENGTH_MEASURE( 1.000000000000000082E-05 ), #241, 'distance_accuracy_value', 'NONE');
#272 = CARTESIAN_POINT ( 'NONE',  ( 0.000000000000000000, -7.747000000000005215, -15.04900000000000482 ) ) ;
#273 =( NAMED_UNIT ( * ) PLANE_ANGLE_UNIT ( ) SI_UNIT ( $, .RADIAN. ) );
#274 = DIRECTION ( 'NONE',  ( 0.000000000000000000, 0.000000000000000000, -1.000000000000000000 ) ) ;
#275 = CIRCLE ( 'NONE', #493, 11.04899999999999771 ) ;
#276 = FILL_AREA_STYLE_COLOUR ( '', #203 ) ;
#277 = AXIS2_PLACEMENT_3D ( 'NONE', #384, #184, #348 ) ;
#278 = ADVANCED_FACE ( 'NONE', ( #178 ), #104, .F. ) ;
#279 = FILL_AREA_STYLE_COLOUR ( '', #223 ) ;
#280 = ORIENTED_EDGE ( 'NONE', *, *, #87, .T. ) ;
#281 = AXIS2_PLACEMENT_3D ( 'NONE', #204, #28, #101 ) ;
#282 = ORIENTED_EDGE ( 'NONE', *, *, #91, .F. ) ;
#283 = PRESENTATION_STYLE_ASSIGNMENT (( #440 ) ) ;
#284 = PRODUCT_DEFINITION_FORMATION_WITH_SPECIFIED_SOURCE ( 'Symmetric', '', #495, .NOT_KNOWN. ) ;
#285 = ORIENTED_EDGE ( 'NONE', *, *, #138, .T. ) ;
#286 = UNCERTAINTY_MEASURE_WITH_UNIT (LENGTH_MEASURE( 1.000000000000000082E-05 ), #266, 'distance_accuracy_value', 'NONE');
#287 = SURFACE_STYLE_FILL_AREA ( #370 ) ;
#288 = EDGE_LOOP ( 'NONE', ( #303, #327, #13, #212 ) ) ;
#289 = CYLINDRICAL_SURFACE ( 'NONE', #395, 15.04900000000000126 ) ;
#290 = ORIENTED_EDGE ( 'NONE', *, *, #308, .F. ) ;
#291 = DIRECTION ( 'NONE',  ( -0.000000000000000000, -1.000000000000000000, -0.000000000000000000 ) ) ;
#292 = DIRECTION ( 'NONE',  ( -0.000000000000000000, -1.000000000000000000, -0.000000000000000000 ) ) ;
#293 = DIRECTION ( 'NONE',  ( 7.873313917834286929E-18, 0.9979312267261684077, -0.06429048704749805443 ) ) ;
#294 = PRESENTATION_LAYER_ASSIGNMENT (  '', '', ( #157 ) ) ;
#295 = DIRECTION ( 'NONE',  ( 0.000000000000000000, 0.000000000000000000, -1.000000000000000000 ) ) ;
#296 = DIRECTION ( 'NONE',  ( 0.000000000000000000, 0.000000000000000000, -1.000000000000000000 ) ) ;
#297 = FACE_OUTER_BOUND ( 'NONE', #288, .T. ) ;
#298 = AXIS2_PLACEMENT_3D ( 'NONE', #349, #195, #427 ) ;
#299 = CARTESIAN_POINT ( 'NONE',  ( 0.000000000000000000, -12.82699999999999996, -11.04899999999999771 ) ) ;
#300 = PRODUCT_DEFINITION_SHAPE ( 'NONE', 'NONE',  #435 ) ;
#301 =( LENGTH_UNIT ( ) NAMED_UNIT ( * ) SI_UNIT ( .MILLI., .METRE. ) );
#302 = UNCERTAINTY_MEASURE_WITH_UNIT (LENGTH_MEASURE( 1.000000000000000082E-05 ), #404, 'distance_accuracy_value', 'NONE');
#303 = ORIENTED_EDGE ( 'NONE', *, *, #126, .T. ) ;
#304 = CARTESIAN_POINT ( 'NONE',  ( 1.353112248377910484E-15, -17.90700000000000713, 11.04899999999999949 ) ) ;
#305 = CARTESIAN_POINT ( 'NONE',  ( 0.000000000000000000, -12.82699999999999996, 0.000000000000000000 ) ) ;
#306 =( GEOMETRIC_REPRESENTATION_CONTEXT ( 3 ) GLOBAL_UNCERTAINTY_ASSIGNED_CONTEXT ( ( #190 ) ) GLOBAL_UNIT_ASSIGNED_CONTEXT ( ( #30, #224, #96 ) ) REPRESENTATION_CONTEXT ( 'NONE', 'WORKASPACE' ) );
#307 = FACE_BOUND ( 'NONE', #444, .T. ) ;
#308 = EDGE_CURVE ( 'NONE', #90, #438, #485, .T. ) ;
#309 = CARTESIAN_POINT ( 'NONE',  ( 0.000000000000000000, 1.142999999999992466, 15.04900000000000482 ) ) ;
#310 = EDGE_CURVE ( 'NONE', #253, #405, #338, .T. ) ;
#311 = SURFACE_SIDE_STYLE ('',( #260 ) ) ;
#312 = DIRECTION ( 'NONE',  ( -0.000000000000000000, -1.000000000000000000, -0.000000000000000000 ) ) ;
#313 = MECHANICAL_DESIGN_GEOMETRIC_PRESENTATION_REPRESENTATION (  '', ( #465 ), #5 ) ;
#314 =( NAMED_UNIT ( * ) PLANE_ANGLE_UNIT ( ) SI_UNIT ( $, .RADIAN. ) );
#315 = UNCERTAINTY_MEASURE_WITH_UNIT (LENGTH_MEASURE( 1.000000000000000082E-05 ), #66, 'distance_accuracy_value', 'NONE');
#316 = DIRECTION ( 'NONE',  ( 0.000000000000000000, 0.9979312267261684077, 0.06429048704749805443 ) ) ;
#317 = EDGE_CURVE ( 'NONE', #330, #127, #262, .T. ) ;
#318 = DIRECTION ( 'NONE',  ( 1.000000000000000000, 0.000000000000000000, 0.000000000000000000 ) ) ;
#319 = DIRECTION ( 'NONE',  ( 0.000000000000000000, 0.000000000000000000, -1.000000000000000000 ) ) ;
#320 =( NAMED_UNIT ( * ) SI_UNIT ( $, .STERADIAN. ) SOLID_ANGLE_UNIT ( ) );
#321 =( LENGTH_UNIT ( ) NAMED_UNIT ( * ) SI_UNIT ( .MILLI., .METRE. ) );
#322 = ORIENTED_EDGE ( 'NONE', *, *, #342, .T. ) ;
#323 = EDGE_LOOP ( 'NONE', ( #322, #11, #163, #230 ) ) ;
#324 = SURFACE_STYLE_USAGE ( .BOTH. , #475 ) ;
#325 = DIRECTION ( 'NONE',  ( 0.000000000000000000, 0.000000000000000000, -1.000000000000000000 ) ) ;
#326 = EDGE_CURVE ( 'NONE', #123, #403, #461, .T. ) ;
#327 = ORIENTED_EDGE ( 'NONE', *, *, #64, .T. ) ;
#328 = CIRCLE ( 'NONE', #15, 11.04899999999999771 ) ;
#329 = SURFACE_SIDE_STYLE ('',( #122 ) ) ;
#330 = VERTEX_POINT ( 'NONE', #221 ) ;
#331 = CARTESIAN_POINT ( 'NONE',  ( 0.000000000000000000, 0.000000000000000000, -11.04899999999999949 ) ) ;
#332 = EDGE_LOOP ( 'NONE', ( #20, #169 ) ) ;
#333 = SURFACE_SIDE_STYLE ('',( #21 ) ) ;
#334 = EDGE_CURVE ( 'NONE', #9, #236, #173, .T. ) ;
#335 = ORIENTED_EDGE ( 'NONE', *, *, #429, .F. ) ;
#336 = DIRECTION ( 'NONE',  ( -0.000000000000000000, -1.000000000000000000, -0.000000000000000000 ) ) ;
#337 =( GEOMETRIC_REPRESENTATION_CONTEXT ( 3 ) GLOBAL_UNCERTAINTY_ASSIGNED_CONTEXT ( ( #315 ) ) GLOBAL_UNIT_ASSIGNED_CONTEXT ( ( #66, #185, #22 ) ) REPRESENTATION_CONTEXT ( 'NONE', 'WORKASPACE' ) );
#338 = LINE ( 'NONE', #416, #62 ) ;
#339 = PRESENTATION_STYLE_ASSIGNMENT (( #174 ) ) ;
#340 = COLOUR_RGB ( '',1.000000000000000000, 0.9372549019607843146, 0.1372549019607843257 ) ;
#341 = SURFACE_STYLE_FILL_AREA ( #61 ) ;
#342 = EDGE_CURVE ( 'NONE', #208, #225, #242, .T. ) ;
#343 = CARTESIAN_POINT ( 'NONE',  ( 1.909101895190809137E-15, 1.142999999999992466, -15.04900000000000482 ) ) ;
#344 = COLOUR_RGB ( '',1.000000000000000000, 0.9372549019607843146, 0.1372549019607843257 ) ;
#345 = CARTESIAN_POINT ( 'NONE',  ( 0.000000000000000000, -17.90700000000000713, 0.000000000000000000 ) ) ;
#346 = AXIS2_PLACEMENT_3D ( 'NONE', #166, #94, #121 ) ;
#347 = CARTESIAN_POINT ( 'NONE',  ( 0.000000000000000000, 17.90699999999999292, 0.000000000000000000 ) ) ;
#348 = DIRECTION ( 'NONE',  ( 0.000000000000000000, -0.000000000000000000, 1.000000000000000000 ) ) ;
#349 = CARTESIAN_POINT ( 'NONE',  ( 0.000000000000000000, -12.82699999999999996, 0.000000000000000000 ) ) ;
#350 = CARTESIAN_POINT ( 'NONE',  ( 0.000000000000000000, 0.000000000000000000, 0.000000000000000000 ) ) ;
#351 = DIRECTION ( 'NONE',  ( -0.000000000000000000, -1.000000000000000000, -0.000000000000000000 ) ) ;
#352 = CARTESIAN_POINT ( 'NONE',  ( 1.842970968036851668E-15, -12.82699999999999996, 15.04899999999999771 ) ) ;
#353 = CARTESIAN_POINT ( 'NONE',  ( 1.353112248377910484E-15, 0.000000000000000000, 11.04899999999999949 ) ) ;
#354 = CONICAL_SURFACE ( 'NONE', #113, 16.12900000000000134, 0.06433485791409654375 ) ;
#355 =( NAMED_UNIT ( * ) SI_UNIT ( $, .STERADIAN. ) SOLID_ANGLE_UNIT ( ) );
#356 = DIRECTION ( 'NONE',  ( -0.000000000000000000, -1.000000000000000000, -0.000000000000000000 ) ) ;
#357 =( NAMED_UNIT ( * ) PLANE_ANGLE_UNIT ( ) SI_UNIT ( $, .RADIAN. ) );
#358 = AXIS2_PLACEMENT_3D ( 'NONE', #134, #457, #295 ) ;
#359 =( NAMED_UNIT ( * ) SI_UNIT ( $, .STERADIAN. ) SOLID_ANGLE_UNIT ( ) );
#360 = ORIENTED_EDGE ( 'NONE', *, *, #308, .T. ) ;
#361 = ORIENTED_EDGE ( 'NONE', *, *, #310, .F. ) ;
#362 = ADVANCED_FACE ( 'NONE', ( #297 ), #490, .T. ) ;
#363 = SURFACE_STYLE_FILL_AREA ( #389 ) ;
#364 = ORIENTED_EDGE ( 'NONE', *, *, #334, .T. ) ;
#365 = STYLED_ITEM ( 'NONE', ( #102 ), #45 ) ;
#366 = DIRECTION ( 'NONE',  ( 0.000000000000000000, 0.000000000000000000, 1.000000000000000000 ) ) ;
#367 = ORIENTED_EDGE ( 'NONE', *, *, #38, .T. ) ;
#368 = VECTOR ( 'NONE', #316, 1000.000000000000114 ) ;
#369 = VECTOR ( 'NONE', #396, 1000.000000000000000 ) ;
#370 = FILL_AREA_STYLE ('',( #279 ) ) ;
#371 = MANIFOLD_SOLID_BREP ( 'Revolve1', #183 ) ;
#372 = ORIENTED_EDGE ( 'NONE', *, *, #342, .F. ) ;
#373 = FACE_OUTER_BOUND ( 'NONE', #24, .T. ) ;
#374 = SURFACE_STYLE_FILL_AREA ( #141 ) ;
#375 = CARTESIAN_POINT ( 'NONE',  ( -11.04899999999999949, -17.90700000000000713, 0.000000000000000000 ) ) ;
#376 = STYLED_ITEM ( 'NONE', ( #448 ), #381 ) ;
#377 = SURFACE_STYLE_USAGE ( .BOTH. , #259 ) ;
#378 = PLANE ( 'NONE',  #492 ) ;
#379 = CARTESIAN_POINT ( 'NONE',  ( 0.000000000000000000, 1.142999999999992466, 0.000000000000000000 ) ) ;
#380 = ORIENTED_EDGE ( 'NONE', *, *, #44, .T. ) ;
#381 = ADVANCED_FACE ( 'NONE', ( #373 ), #289, .T. ) ;
#382 = DIRECTION ( 'NONE',  ( -0.000000000000000000, -1.000000000000000000, -0.000000000000000000 ) ) ;
#383 = SURFACE_STYLE_USAGE ( .BOTH. , #454 ) ;
#384 = CARTESIAN_POINT ( 'NONE',  ( -15.04900000000000482, 1.142999999999992466, 0.000000000000000000 ) ) ;
#385 = CYLINDRICAL_SURFACE ( 'NONE', #442, 15.04900000000000126 ) ;
#386 = UNCERTAINTY_MEASURE_WITH_UNIT (LENGTH_MEASURE( 1.000000000000000082E-05 ), #301, 'distance_accuracy_value', 'NONE');
#387 = DIRECTION ( 'NONE',  ( -0.000000000000000000, -1.000000000000000000, -0.000000000000000000 ) ) ;
#388 = EDGE_LOOP ( 'NONE', ( #484, #434, #335, #179 ) ) ;
#389 = FILL_AREA_STYLE ('',( #75 ) ) ;
#390 = SURFACE_STYLE_FILL_AREA ( #1 ) ;
#391 = DIRECTION ( 'NONE',  ( -0.000000000000000000, -1.000000000000000000, -0.000000000000000000 ) ) ;
#392 = VECTOR ( 'NONE', #77, 1000.000000000000000 ) ;
#393 = ORIENTED_EDGE ( 'NONE', *, *, #233, .T. ) ;
#394 = CIRCLE ( 'NONE', #238, 11.04899999999999949 ) ;
#395 = AXIS2_PLACEMENT_3D ( 'NONE', #350, #108, #79 ) ;
#396 = DIRECTION ( 'NONE',  ( -0.000000000000000000, -1.000000000000000000, -0.000000000000000000 ) ) ;
#397 = EDGE_LOOP ( 'NONE', ( #282, #367, #280, #479 ) ) ;
#398 = AXIS2_PLACEMENT_3D ( 'NONE', #375, #408, #136 ) ;
#399 = CARTESIAN_POINT ( 'NONE',  ( 0.000000000000000000, 0.000000000000000000, 0.000000000000000000 ) ) ;
#400 = VERTEX_POINT ( 'NONE', #304 ) ;
#401 = ADVANCED_FACE ( 'NONE', ( #307, #74 ), #263, .F. ) ;
#402 = CARTESIAN_POINT ( 'NONE',  ( 1.842970968036852457E-15, -7.747000000000005215, 15.04900000000000482 ) ) ;
#403 = VERTEX_POINT ( 'NONE', #343 ) ;
#404 =( LENGTH_UNIT ( ) NAMED_UNIT ( * ) SI_UNIT ( .MILLI., .METRE. ) );
#405 = VERTEX_POINT ( 'NONE', #352 ) ;
#406 = EDGE_LOOP ( 'NONE', ( #476, #393 ) ) ;
#407 = AXIS2_PLACEMENT_3D ( 'NONE', #468, #351, #154 ) ;
#408 = DIRECTION ( 'NONE',  ( 0.000000000000000000, 1.000000000000000000, 0.000000000000000000 ) ) ;
#409 = STYLED_ITEM ( 'NONE', ( #111 ), #498 ) ;
#410 = ADVANCED_BREP_SHAPE_REPRESENTATION ( 'small_emergency_button', ( #371, #57 ), #431 ) ;
#411 = DIRECTION ( 'NONE',  ( -0.000000000000000000, -1.000000000000000000, -0.000000000000000000 ) ) ;
#412 = FILL_AREA_STYLE_COLOUR ( '', #89 ) ;
#413 = FILL_AREA_STYLE_COLOUR ( '', #340 ) ;
#414 = ADVANCED_FACE ( 'NONE', ( #270 ), #419, .F. ) ;
#415 =( GEOMETRIC_REPRESENTATION_CONTEXT ( 3 ) GLOBAL_UNCERTAINTY_ASSIGNED_CONTEXT ( ( #153 ) ) GLOBAL_UNIT_ASSIGNED_CONTEXT ( ( #8, #162, #359 ) ) REPRESENTATION_CONTEXT ( 'NONE', 'WORKASPACE' ) );
#416 = CARTESIAN_POINT ( 'NONE',  ( 1.842970968036852062E-15, 0.000000000000000000, 15.04900000000000126 ) ) ;
#417 = MECHANICAL_DESIGN_GEOMETRIC_PRESENTATION_REPRESENTATION (  '', ( #269 ), #51 ) ;
#418 = LINE ( 'NONE', #135, #206 ) ;
#419 = PLANE ( 'NONE',  #146 ) ;
#420 = PLANE ( 'NONE',  #194 ) ;
#421 = STYLED_ITEM ( 'NONE', ( #451 ), #371 ) ;
#422 = CARTESIAN_POINT ( 'NONE',  ( 0.000000000000000000, -12.82699999999999996, 0.000000000000000000 ) ) ;
#423 = LINE ( 'NONE', #7, #392 ) ;
#424 = FACE_BOUND ( 'NONE', #200, .T. ) ;
#425 = AXIS2_PLACEMENT_3D ( 'NONE', #345, #411, #296 ) ;
#426 = CARTESIAN_POINT ( 'NONE',  ( 0.000000000000000000, 1.142999999999992466, -12.04900000000000482 ) ) ;
#427 = DIRECTION ( 'NONE',  ( 0.000000000000000000, 0.000000000000000000, -1.000000000000000000 ) ) ;
#428 = CIRCLE ( 'NONE', #78, 15.04900000000000482 ) ;
#429 = EDGE_CURVE ( 'NONE', #252, #405, #432, .T. ) ;
#430 = CIRCLE ( 'NONE', #80, 15.04900000000000482 ) ;
#431 =( GEOMETRIC_REPRESENTATION_CONTEXT ( 3 ) GLOBAL_UNCERTAINTY_ASSIGNED_CONTEXT ( ( #302 ) ) GLOBAL_UNIT_ASSIGNED_CONTEXT ( ( #404, #12, #244 ) ) REPRESENTATION_CONTEXT ( 'NONE', 'WORKASPACE' ) );
#432 = CIRCLE ( 'NONE', #58, 15.04899999999999771 ) ;
#433 = SURFACE_SIDE_STYLE ('',( #287 ) ) ;
#434 = ORIENTED_EDGE ( 'NONE', *, *, #310, .T. ) ;
#435 = PRODUCT_DEFINITION ( 'General', '', #284, #209 ) ;
#436 = MECHANICAL_DESIGN_GEOMETRIC_PRESENTATION_REPRESENTATION (  '', ( #421 ), #306 ) ;
#437 = CARTESIAN_POINT ( 'NONE',  ( 1.475576928292646421E-15, 1.142999999999992466, 12.04900000000000659 ) ) ;
#438 = VERTEX_POINT ( 'NONE', #76 ) ;
#439 = MECHANICAL_DESIGN_GEOMETRIC_PRESENTATION_REPRESENTATION (  '', ( #365 ), #337 ) ;
#440 = SURFACE_STYLE_USAGE ( .BOTH. , #433 ) ;
#441 = ORIENTED_EDGE ( 'NONE', *, *, #326, .F. ) ;
#442 = AXIS2_PLACEMENT_3D ( 'NONE', #399, #211, #325 ) ;
#443 = CARTESIAN_POINT ( 'NONE',  ( 0.000000000000000000, -17.90700000000000713, -11.04899999999999949 ) ) ;
#444 = EDGE_LOOP ( 'NONE', ( #372, #243 ) ) ;
#445 = MECHANICAL_DESIGN_GEOMETRIC_PRESENTATION_REPRESENTATION (  '', ( #157 ), #467 ) ;
#446 = CARTESIAN_POINT ( 'NONE',  ( 0.000000000000000000, -7.747000000000005215, 0.000000000000000000 ) ) ;
#447 = EDGE_LOOP ( 'NONE', ( #483, #441, #47, #360 ) ) ;
#448 = PRESENTATION_STYLE_ASSIGNMENT (( #486 ) ) ;
#449 = DIRECTION ( 'NONE',  ( -0.000000000000000000, -1.000000000000000000, -0.000000000000000000 ) ) ;
#450 = UNCERTAINTY_MEASURE_WITH_UNIT (LENGTH_MEASURE( 1.000000000000000082E-05 ), #321, 'distance_accuracy_value', 'NONE');
#451 = PRESENTATION_STYLE_ASSIGNMENT (( #377 ) ) ;
#452 = ORIENTED_EDGE ( 'NONE', *, *, #91, .T. ) ;
#453 = COLOUR_RGB ( '',1.000000000000000000, 0.9372549019607843146, 0.1372549019607843257 ) ;
#454 = SURFACE_SIDE_STYLE ('',( #29 ) ) ;
#455 = STYLED_ITEM ( 'NONE', ( #477 ), #219 ) ;
#456 = VECTOR ( 'NONE', #391, 1000.000000000000000 ) ;
#457 = DIRECTION ( 'NONE',  ( -0.000000000000000000, -1.000000000000000000, -0.000000000000000000 ) ) ;
#458 = FILL_AREA_STYLE_COLOUR ( '', #453 ) ;
#459 = COLOUR_RGB ( '',0.6941176470588235059, 0.09803921568627450844, 0.09803921568627450844 ) ;
#460 = DIRECTION ( 'NONE',  ( -0.000000000000000000, -1.000000000000000000, -0.000000000000000000 ) ) ;
#461 = CIRCLE ( 'NONE', #199, 15.04900000000000482 ) ;
#462 = DIRECTION ( 'NONE',  ( 0.000000000000000000, 0.000000000000000000, -1.000000000000000000 ) ) ;
#463 = LINE ( 'NONE', #353, #456 ) ;
#464 = DIRECTION ( 'NONE',  ( 0.000000000000000000, -1.000000000000000000, -0.000000000000000000 ) ) ;
#465 = STYLED_ITEM ( 'NONE', ( #86 ), #268 ) ;
#466 = FACE_OUTER_BOUND ( 'NONE', #332, .T. ) ;
#467 =( GEOMETRIC_REPRESENTATION_CONTEXT ( 3 ) GLOBAL_UNCERTAINTY_ASSIGNED_CONTEXT ( ( #148 ) ) GLOBAL_UNIT_ASSIGNED_CONTEXT ( ( #139, #63, #100 ) ) REPRESENTATION_CONTEXT ( 'NONE', 'WORKASPACE' ) );
#468 = CARTESIAN_POINT ( 'NONE',  ( 0.000000000000000000, -7.747000000000005215, 0.000000000000000000 ) ) ;
#469 = APPLICATION_CONTEXT ( 'automotive_design' ) ;
#470 = APPLICATION_PROTOCOL_DEFINITION ( 'draft international standard', 'automotive_design', 1998, #226 ) ;
#471 = FILL_AREA_STYLE ('',( #83 ) ) ;
#472 = MECHANICAL_DESIGN_GEOMETRIC_PRESENTATION_REPRESENTATION (  '', ( #409 ), #144 ) ;
#473 = FACE_OUTER_BOUND ( 'NONE', #447, .T. ) ;
#474 = ORIENTED_EDGE ( 'NONE', *, *, #147, .F. ) ;
#475 = SURFACE_SIDE_STYLE ('',( #201 ) ) ;
#476 = ORIENTED_EDGE ( 'NONE', *, *, #317, .T. ) ;
#477 = PRESENTATION_STYLE_ASSIGNMENT (( #164 ) ) ;
#478 = CIRCLE ( 'NONE', #210, 12.04900000000000482 ) ;
#479 = ORIENTED_EDGE ( 'NONE', *, *, #109, .F. ) ;
#480 = COLOUR_RGB ( '',0.8941176470588234615, 0.8941176470588234615, 0.8941176470588234615 ) ;
#481 =( GEOMETRIC_REPRESENTATION_CONTEXT ( 3 ) GLOBAL_UNCERTAINTY_ASSIGNED_CONTEXT ( ( #72 ) ) GLOBAL_UNIT_ASSIGNED_CONTEXT ( ( #218, #314, #239 ) ) REPRESENTATION_CONTEXT ( 'NONE', 'WORKASPACE' ) );
#482 = SURFACE_STYLE_USAGE ( .BOTH. , #329 ) ;
#483 = ORIENTED_EDGE ( 'NONE', *, *, #38, .F. ) ;
#484 = ORIENTED_EDGE ( 'NONE', *, *, #181, .T. ) ;
#485 = CIRCLE ( 'NONE', #500, 16.12900000000000134 ) ;
#486 = SURFACE_STYLE_USAGE ( .BOTH. , #333 ) ;
#487 = DIRECTION ( 'NONE',  ( 0.000000000000000000, 0.000000000000000000, -1.000000000000000000 ) ) ;
#488 = CARTESIAN_POINT ( 'NONE',  ( -12.04900000000000126, -7.747000000000005215, 0.000000000000000000 ) ) ;
#489 = PRESENTATION_LAYER_ASSIGNMENT (  '', '', ( #465 ) ) ;
#490 = CYLINDRICAL_SURFACE ( 'NONE', #358, 11.04899999999999949 ) ;
#491 = ORIENTED_EDGE ( 'NONE', *, *, #326, .T. ) ;
#492 = AXIS2_PLACEMENT_3D ( 'NONE', #488, #27, #137 ) ;
#493 = AXIS2_PLACEMENT_3D ( 'NONE', #71, #387, #227 ) ;
#494 = CARTESIAN_POINT ( 'NONE',  ( 0.000000000000000000, 17.90699999999999292, 0.000000000000000000 ) ) ;
#495 = PRODUCT ( 'small_emergency_button', 'small_emergency_button', '', ( #10 ) ) ;
#496 =( GEOMETRIC_REPRESENTATION_CONTEXT ( 3 ) GLOBAL_UNCERTAINTY_ASSIGNED_CONTEXT ( ( #386 ) ) GLOBAL_UNIT_ASSIGNED_CONTEXT ( ( #301, #155, #106 ) ) REPRESENTATION_CONTEXT ( 'NONE', 'WORKASPACE' ) );
#497 = DIRECTION ( 'NONE',  ( 0.000000000000000000, 0.000000000000000000, -1.000000000000000000 ) ) ;
#498 = ADVANCED_FACE ( 'NONE', ( #234 ), #4, .T. ) ;
#499 = CARTESIAN_POINT ( 'NONE',  ( 0.000000000000000000, 17.90699999999999292, 16.12900000000000134 ) ) ;
#500 = AXIS2_PLACEMENT_3D ( 'NONE', #65, #291, #182 ) ;
ENDSEC;
END-ISO-10303-21;
