ISO-10303-21;
HEADER;
FILE_DESCRIPTION (( 'STEP AP214' ),
    '1' );
FILE_NAME ('spool_subassembly.STEP',
    '2026-09-04T22:01:27',
    ( '' ),
    ( '' ),
    'SwSTEP 2.0',
    'SolidWorks 2026',
    '' );
FILE_SCHEMA (( 'AUTOMOTIVE_DESIGN' ));
ENDSEC;

DATA;
#1 = PRODUCT_DEFINITION_SHAPE ( 'NONE', 'NONE',  #734 ) ;
#2 = PRODUCT_DEFINITION_CONTEXT ( 'detailed design', #248, 'design' ) ;
#3 = PROPERTY_DEFINITION_REPRESENTATION ( #422, #449 ) ;
#4 = AXIS2_PLACEMENT_3D ( 'NONE', #396, #603, #275 ) ;
#5 = ITEM_DEFINED_TRANSFORMATION ( 'NONE', 'NONE', #614,  #177 ) ;
#6 = APPLIED_EXTERNAL_IDENTIFICATION_ASSIGNMENT ( '91290A121_Alloy Steel Socket Head Screw_91290A121.STEP' , #628, #261,( #66) ) ;
#7 = DOCUMENT_TYPE ( 'geometry' ) ;
#8 = SHAPE_DEFINITION_REPRESENTATION ( #41, #378 ) ;
#9 = PRODUCT_DEFINITION_CONTEXT ( 'detailed design', #529, 'design' ) ;
#10 = ITEM_DEFINED_TRANSFORMATION ( 'NONE', 'NONE', #536,  #589 ) ;
#11 = APPLIED_DOCUMENT_REFERENCE ( #290,'',( #330) ) ;
#12 = DIRECTION ( 'NONE',  ( 1.000000000000000000, 0.000000000000000000, 0.000000000000000000 ) ) ;
#13 = CONTEXT_DEPENDENT_SHAPE_REPRESENTATION ( #319, #176 ) ;
#14 = PRODUCT_DEFINITION_SHAPE ( 'NONE', 'NONE',  #737 ) ;
#15 =( GEOMETRIC_REPRESENTATION_CONTEXT ( 3 ) GLOBAL_UNCERTAINTY_ASSIGNED_CONTEXT ( ( #552 ) ) GLOBAL_UNIT_ASSIGNED_CONTEXT ( ( #104, #233, #160 ) ) REPRESENTATION_CONTEXT ( 'NONE', 'WORKASPACE' ) );
#16 = APPLIED_DOCUMENT_REFERENCE ( #531,'',( #70) ) ;
#17 = AXIS2_PLACEMENT_3D ( 'NONE', #282, #288, #680 ) ;
#18 = CONTEXT_DEPENDENT_SHAPE_REPRESENTATION ( #280, #475 ) ;
#19 = APPLICATION_CONTEXT ( 'automotive_design' ) ;
#20 =( NAMED_UNIT ( * ) SI_UNIT ( $, .STERADIAN. ) SOLID_ANGLE_UNIT ( ) );
#21 =( REPRESENTATION_RELATIONSHIP ('NONE','NONE', #58, #449 ) REPRESENTATION_RELATIONSHIP_WITH_TRANSFORMATION ( #532 )SHAPE_REPRESENTATION_RELATIONSHIP( ) );
#22 = ITEM_DEFINED_TRANSFORMATION ( 'NONE', 'NONE', #207,  #544 ) ;
#23 = PROPERTY_DEFINITION ('external definition','', #300 ) ;
#24 = OBJECT_ROLE ('mandatory',$ ) ;
#25 = DOCUMENT_FILE ( '94180A331_Tapered Heat-Set Inserts for Plastic_94180A331.STEP' , '', '', #83, '' ,$ ) ;
#26 = DIRECTION ( 'NONE',  ( -0.02058111271645272911, 0.1076015920697425687, -0.9939810436740779132 ) ) ;
#27 = APPLICATION_CONTEXT ( 'automotive_design' ) ;
#28 = ROLE_ASSOCIATION ( #153, #543 ) ;
#29 = DIRECTION ( 'NONE',  ( -0.02058111271645274992, 0.1076015920697431100, -0.9939810436740778021 ) ) ;
#30 = APPLIED_EXTERNAL_IDENTIFICATION_ASSIGNMENT ( '94180A331_Tapered Heat-Set Inserts for Plastic_94180A331.STEP' , #43, #78,( #25) ) ;
#31 = DIRECTION ( 'NONE',  ( 0.02058111271645452975, -0.1076015920697396683, 0.9939810436740782462 ) ) ;
#32 = DOCUMENT_TYPE ( 'geometry' ) ;
#33 = PROPERTY_DEFINITION ('document property','', #466 ) ;
#34 = CARTESIAN_POINT ( 'NONE',  ( 123.1160514312509093, 68.24590284730977885, 245.1446187212067116 ) ) ;
#35 = IDENTIFICATION_ROLE ( 'external document id and location', $) ;
#36 = CARTESIAN_POINT ( 'NONE',  ( 0.000000000000000000, 0.000000000000000000, 0.000000000000000000 ) ) ;
#37 = ROLE_ASSOCIATION ( #610, #561 ) ;
#38 = PRODUCT_DEFINITION_SHAPE ( 'NONE', 'NONE',  #728 ) ;
#39 = CARTESIAN_POINT ( 'NONE',  ( 161.4089518343717486, 55.51786504944186618, 242.9738855425984525 ) ) ;
#40 = CARTESIAN_POINT ( 'NONE',  ( 0.000000000000000000, 0.000000000000000000, 0.000000000000000000 ) ) ;
#41 = PRODUCT_DEFINITION_SHAPE ( 'NONE', 'NONE',  #270 ) ;
#42 = APPLIED_DOCUMENT_REFERENCE ( #98,'',( #186) ) ;
#43 = IDENTIFICATION_ROLE ( 'external document id and location', $) ;
#44 = APPLICATION_PROTOCOL_DEFINITION ( 'draft international standard', 'automotive_design', 1998, #51 ) ;
#45 = PROPERTY_DEFINITION_REPRESENTATION ( #380, #559 ) ;
#46 = IDENTIFICATION_ROLE ( 'external document id and location', $) ;
#47 = PRODUCT_DEFINITION_SHAPE ( 'NONE', 'NONE',  #330 ) ;
#48 = EXTERNAL_SOURCE (IDENTIFIER('') ) ;
#49 = CONTEXT_DEPENDENT_SHAPE_REPRESENTATION ( #372, #135 ) ;
#50 = APPLICATION_PROTOCOL_DEFINITION ( 'draft international standard', 'automotive_design', 1998, #356 ) ;
#51 = APPLICATION_CONTEXT ( 'automotive_design' ) ;
#52 = DOCUMENT_TYPE ( 'geometry' ) ;
#53 = PRODUCT_DEFINITION_SHAPE ( 'NONE', 'NONE',  #729 ) ;
#54 = DIRECTION ( 'NONE',  ( 0.9997875695950113606, 0.001110622642017056183, -0.02058111271645291646 ) ) ;
#55 = APPLIED_DOCUMENT_REFERENCE ( #526,'',( #186) ) ;
#56 =( REPRESENTATION_RELATIONSHIP ('NONE','NONE', #58, #559 ) REPRESENTATION_RELATIONSHIP_WITH_TRANSFORMATION ( #283 )SHAPE_REPRESENTATION_RELATIONSHIP( ) );
#57 = PRODUCT_CONTEXT ( 'NONE', #51, 'mechanical' ) ;
#58 = SHAPE_REPRESENTATION ( 'spool_subassembly', ( #272, #535, #614, #222, #127, #647, #207, #394, #485, #150, #117, #626, #320, #417, #322, #657, #511, #698, #381, #437, #4, #416, #351, #17, #536, #223 ), #293 ) ;
#59 = PRODUCT_DEFINITION_CONTEXT ( 'detailed design', #88, 'design' ) ;
#60 = APPLIED_DOCUMENT_REFERENCE ( #466,'',( #186) ) ;
#61 = OBJECT_ROLE ('mandatory',$ ) ;
#62 = PRODUCT_RELATED_PRODUCT_CATEGORY ( 'part', '', ( #520 ) ) ;
#63 = SHAPE_REPRESENTATION ( '6408K111_Flexible Shaft Coupling Iron Hub_6408K111', ( #165 ), #269 ) ;
#64 = CONTEXT_DEPENDENT_SHAPE_REPRESENTATION ( #489, #540 ) ;
#65 = PROPERTY_DEFINITION ('external definition','', #218 ) ;
#66 = DOCUMENT_FILE ( '91290A121_Alloy Steel Socket Head Screw_91290A121.STEP' , '', '', #182, '' ,$ ) ;
#67 = PROPERTY_DEFINITION_REPRESENTATION ( #556, #559 ) ;
#68 = IDENTIFICATION_ROLE ( 'external document id and location', $) ;
#69 = PRODUCT_DEFINITION_SHAPE ( 'NONE', 'NONE',  #743 ) ;
#70 = PRODUCT_DEFINITION ( 'General', '', #510, #392 ) ;
#71 = APPLIED_EXTERNAL_IDENTIFICATION_ASSIGNMENT ( '8632T139_D-Profile Rotary Shaft_8632T139.STEP' , #35, #550,( #199) ) ;
#72 = EXTERNAL_SOURCE (IDENTIFIER('') ) ;
#73 = ITEM_DEFINED_TRANSFORMATION ( 'NONE', 'NONE', #394,  #670 ) ;
#74 = DIRECTION ( 'NONE',  ( 0.5004290982754209249, 0.8617965298000327401, 0.08293044569921689813 ) ) ;
#75 = PROPERTY_DEFINITION ('external definition','', #512 ) ;
#76 = DOCUMENT_FILE ( '91290A121_Alloy Steel Socket Head Screw_91290A121.STEP' , '', '', #285, '' ,$ ) ;
#77 = DIRECTION ( 'NONE',  ( -0.02058111271645276380, 0.1076015920697431794, -0.9939810436740779132 ) ) ;
#78 = EXTERNAL_SOURCE (IDENTIFIER('') ) ;
#79 = PROPERTY_DEFINITION_REPRESENTATION ( #386, #273 ) ;
#80 = PRODUCT_DEFINITION_FORMATION_WITH_SPECIFIED_SOURCE ( 'Symmetric', '', #503, .NOT_KNOWN. ) ;
#81 = CARTESIAN_POINT ( 'NONE',  ( 110.2310487910262253, 30.13880963508180955, 241.2861988534399416 ) ) ;
#82 = PRODUCT_RELATED_PRODUCT_CATEGORY ( 'part', '', ( #391 ) ) ;
#83 = DOCUMENT_TYPE ( 'geometry' ) ;
#84 = CONTEXT_DEPENDENT_SHAPE_REPRESENTATION ( #669, #685 ) ;
#85 = SHAPE_REPRESENTATION ( '1314-0016-0250 assembly.STEP', ( #589 ), #379 ) ;
#86 = DIRECTION ( 'NONE',  ( -0.8977067596650019077, -0.4396377067716646381, -0.02900448993370164860 ) ) ;
#87 = PRODUCT_DEFINITION_SHAPE ( 'NONE', 'NONE',  #186 ) ;
#88 = APPLICATION_CONTEXT ( 'automotive_design' ) ;
#89 = OBJECT_ROLE ('mandatory',$ ) ;
#90 = DIRECTION ( 'NONE',  ( 0.3713750872159439775, -0.9222358789404402346, -0.1075245469197782661 ) ) ;
#91 = DIRECTION ( 'NONE',  ( 1.000000000000000000, 0.000000000000000000, 0.000000000000000000 ) ) ;
#92 = APPLIED_DOCUMENT_REFERENCE ( #512,'',( #186) ) ;
#93 = PRODUCT_RELATED_PRODUCT_CATEGORY ( 'part', '', ( #503 ) ) ;
#94 = PROPERTY_DEFINITION ('document property','', #199 ) ;
#95 = OBJECT_ROLE ('mandatory',$ ) ;
#96 = APPLICATION_PROTOCOL_DEFINITION ( 'draft international standard', 'automotive_design', 1998, #27 ) ;
#97 = PRODUCT_DEFINITION_FORMATION_WITH_SPECIFIED_SOURCE ( 'Symmetric', '', #450, .NOT_KNOWN. ) ;
#98 = DOCUMENT_FILE ( '91290A121_Alloy Steel Socket Head Screw_91290A121.STEP' , '', '', #200, '' ,$ ) ;
#99 = PRODUCT_CONTEXT ( 'NONE', #19, 'mechanical' ) ;
#100 = APPLICATION_CONTEXT ( 'automotive_design' ) ;
#101 = PRODUCT_DEFINITION_SHAPE ( 'NONE', 'NONE',  #732 ) ;
#102 = PROPERTY_DEFINITION_REPRESENTATION ( #492, #559 ) ;
#103 = CARTESIAN_POINT ( 'NONE',  ( 148.5239491941470078, 17.41077183721401056, 239.1154656748316540 ) ) ;
#104 =( LENGTH_UNIT ( ) NAMED_UNIT ( * ) SI_UNIT ( .MILLI., .METRE. ) );
#105 = EXTERNAL_SOURCE (IDENTIFIER('') ) ;
#106 = PROPERTY_DEFINITION_REPRESENTATION ( #635, #559 ) ;
#107 = CARTESIAN_POINT ( 'NONE',  ( 162.8177289998129709, 48.15253607226793520, 311.0118879820889219 ) ) ;
#108 = PROPERTY_DEFINITION ('external definition','', #199 ) ;
#109 = ITEM_DEFINED_TRANSFORMATION ( 'NONE', 'NONE', #223,  #350 ) ;
#110 = IDENTIFICATION_ROLE ( 'external document id and location', $) ;
#111 = DIRECTION ( 'NONE',  ( 0.02058111271645305870, -0.1076015920697419997, 0.9939810436740779132 ) ) ;
#112 = PROPERTY_DEFINITION ('document property','', #98 ) ;
#113 = IDENTIFICATION_ROLE ( 'external document id and location', $) ;
#114 = PROPERTY_DEFINITION_REPRESENTATION ( #696, #559 ) ;
#115 = DOCUMENT_FILE ( '94180A331_Tapered Heat-Set Inserts for Plastic_94180A331.STEP' , '', '', #367, '' ,$ ) ;
#116 = DOCUMENT_TYPE ( 'geometry' ) ;
#117 = AXIS2_PLACEMENT_3D ( 'NONE', #646, #327, #74 ) ;
#118 = PRODUCT_DEFINITION_FORMATION_WITH_SPECIFIED_SOURCE ( 'Symmetric', '', #520, .NOT_KNOWN. ) ;
#119 = APPLICATION_PROTOCOL_DEFINITION ( 'draft international standard', 'automotive_design', 1998, #676 ) ;
#120 = OBJECT_ROLE ('mandatory',$ ) ;
#121 = CONTEXT_DEPENDENT_SHAPE_REPRESENTATION ( #21, #69 ) ;
#122 = APPLIED_DOCUMENT_REFERENCE ( #115,'',( #523) ) ;
#123 = PROPERTY_DEFINITION ('external definition','', #526 ) ;
#124 =( REPRESENTATION_RELATIONSHIP ('NONE','NONE', #58, #188 ) REPRESENTATION_RELATIONSHIP_WITH_TRANSFORMATION ( #22 )SHAPE_REPRESENTATION_RELATIONSHIP( ) );
#125 = PRODUCT_CONTEXT ( 'NONE', #441, 'mechanical' ) ;
#126 = OBJECT_ROLE ('mandatory',$ ) ;
#127 = AXIS2_PLACEMENT_3D ( 'NONE', #136, #496, #382 ) ;
#128 = PRODUCT_DEFINITION_FORMATION_WITH_SPECIFIED_SOURCE ( 'Symmetric', '', #391, .NOT_KNOWN. ) ;
#129 = DIRECTION ( 'NONE',  ( 1.000000000000000000, 0.000000000000000000, 0.000000000000000000 ) ) ;
#130 = EXTERNAL_SOURCE (IDENTIFIER('') ) ;
#131 = CARTESIAN_POINT ( 'NONE',  ( 138.2849575302508640, 29.94111765465201813, 361.1770918629050584 ) ) ;
#132 = PROPERTY_DEFINITION ('document property','', #587 ) ;
#133 = APPLIED_DOCUMENT_REFERENCE ( #199,'',( #383) ) ;
#134 = DIRECTION ( 'NONE',  ( 0.6899809371997542851, 0.7210133691589394322, 0.06376541221558912342 ) ) ;
#135 = PRODUCT_DEFINITION_SHAPE ( 'NONE', 'NONE',  #738 ) ;
#136 = CARTESIAN_POINT ( 'NONE',  ( 135.6580269556210965, 43.67516187185194099, 234.3074113843039754 ) ) ;
#137 = APPLIED_EXTERNAL_IDENTIFICATION_ASSIGNMENT ( '6408K111_Flexible Shaft Coupling Iron Hub_6408K111.STEP' , #146, #332,( #290) ) ;
#138 = DIRECTION ( 'NONE',  ( 0.000000000000000000, 0.000000000000000000, 1.000000000000000000 ) ) ;
#139 = CONTEXT_DEPENDENT_SHAPE_REPRESENTATION ( #555, #608 ) ;
#140 =( REPRESENTATION_RELATIONSHIP ('NONE','NONE', #58, #449 ) REPRESENTATION_RELATIONSHIP_WITH_TRANSFORMATION ( #235 )SHAPE_REPRESENTATION_RELATIONSHIP( ) );
#141 = CARTESIAN_POINT ( 'NONE',  ( 135.7887170213706156, 42.99189176220905040, 240.6191910116343990 ) ) ;
#142 = PROPERTY_DEFINITION ('document property','', #654 ) ;
#143 = CARTESIAN_POINT ( 'NONE',  ( 0.000000000000000000, 0.000000000000000000, 0.000000000000000000 ) ) ;
#144 = PRODUCT_DEFINITION ( 'General', '', #464, #145 ) ;
#145 = PRODUCT_DEFINITION_CONTEXT ( 'detailed design', #27, 'design' ) ;
#146 = IDENTIFICATION_ROLE ( 'external document id and location', $) ;
#147 = DIRECTION ( 'NONE',  ( 1.000000000000000000, 0.000000000000000000, 0.000000000000000000 ) ) ;
#148 = PRODUCT_DEFINITION_SHAPE ( 'NONE', 'NONE',  #170 ) ;
#149 = DIRECTION ( 'NONE',  ( 0.4445826380211523876, -0.8895036047259755607, -0.1054969911876560695 ) ) ;
#150 = AXIS2_PLACEMENT_3D ( 'NONE', #493, #554, #426 ) ;
#151 = APPLIED_EXTERNAL_IDENTIFICATION_ASSIGNMENT ( '6432K12_Set Screw Shaft Collar_6432K12.STEP' , #664, #630,( #654) ) ;
#152 = DIRECTION ( 'NONE',  ( 0.000000000000000000, 0.000000000000000000, 1.000000000000000000 ) ) ;
#153 = OBJECT_ROLE ('mandatory',$ ) ;
#154 = APPLICATION_PROTOCOL_DEFINITION ( 'draft international standard', 'automotive_design', 1998, #529 ) ;
#155 = PRODUCT_DEFINITION_SHAPE ( 'NONE', 'NONE',  #733 ) ;
#156 = DOCUMENT_FILE ( '94180A331_Tapered Heat-Set Inserts for Plastic_94180A331.STEP' , '', '', #251, '' ,$ ) ;
#157 = DOCUMENT_TYPE ( 'geometry' ) ;
#158 = DIRECTION ( 'NONE',  ( 1.000000000000000000, 0.000000000000000000, 0.000000000000000000 ) ) ;
#159 = SHAPE_REPRESENTATION ( '6408K84_18000 rpm Buna-N Rubber Spider for 1-5-64 OD Flexible Shaft Coupling Iron Hub_6408K84', ( #253 ), #194 ) ;
#160 =( NAMED_UNIT ( * ) SI_UNIT ( $, .STERADIAN. ) SOLID_ANGLE_UNIT ( ) );
#161 = ITEM_DEFINED_TRANSFORMATION ( 'NONE', 'NONE', #657,  #177 ) ;
#162 = DIRECTION ( 'NONE',  ( 0.9997875695950113606, 0.001110622642017167205, -0.02058111271645298584 ) ) ;
#163 = OBJECT_ROLE ('mandatory',$ ) ;
#164 = OBJECT_ROLE ('mandatory',$ ) ;
#165 = AXIS2_PLACEMENT_3D ( 'NONE', #40, #152, #277 ) ;
#166 = DIRECTION ( 'NONE',  ( 1.000000000000000000, 0.000000000000000000, 0.000000000000000000 ) ) ;
#167 = APPLIED_EXTERNAL_IDENTIFICATION_ASSIGNMENT ( '91290A121_Alloy Steel Socket Head Screw_91290A121.STEP' , #484, #701,( #512) ) ;
#168 = APPLIED_DOCUMENT_REFERENCE ( #460,'',( #186) ) ;
#169 = OBJECT_ROLE ('mandatory',$ ) ;
#170 = PRODUCT_DEFINITION ( 'General', '', #209, #178 ) ;
#171 = PRODUCT ( '1314-0016-0250 assembly.STEP', '1314-0016-0250 assembly.STEP', '', ( #623 ) ) ;
#172 = PRODUCT_CONTEXT ( 'NONE', #356, 'mechanical' ) ;
#173 = DOCUMENT_TYPE ( 'geometry' ) ;
#174 = ITEM_DEFINED_TRANSFORMATION ( 'NONE', 'NONE', #416,  #350 ) ;
#175 = PROPERTY_DEFINITION_REPRESENTATION ( #458, #159 ) ;
#176 = PRODUCT_DEFINITION_SHAPE ( 'NONE', 'NONE',  #744 ) ;
#177 = AXIS2_PLACEMENT_3D ( 'NONE', #143, #138, #91 ) ;
#178 = PRODUCT_DEFINITION_CONTEXT ( 'detailed design', #468, 'design' ) ;
#179 = PROPERTY_DEFINITION_REPRESENTATION ( #470, #449 ) ;
#180 = ITEM_DEFINED_TRANSFORMATION ( 'NONE', 'NONE', #127,  #544 ) ;
#181 = PROPERTY_DEFINITION ('external definition','', #599 ) ;
#182 = DOCUMENT_TYPE ( 'geometry' ) ;
#183 = APPLIED_DOCUMENT_REFERENCE ( #300,'',( #144) ) ;
#184 = DOCUMENT_FILE ( 'SpoolBig.STEP' , '', '', #600, '' ,$ ) ;
#185 =( NAMED_UNIT ( * ) SI_UNIT ( $, .STERADIAN. ) SOLID_ANGLE_UNIT ( ) );
#186 = PRODUCT_DEFINITION ( 'General', '', #128, #451 ) ;
#187 = EXTERNAL_SOURCE (IDENTIFIER('') ) ;
#188 = SHAPE_REPRESENTATION ( 'SpoolGuideLarge', ( #544 ), #368 ) ;
#189 = ITEM_DEFINED_TRANSFORMATION ( 'NONE', 'NONE', #150,  #165 ) ;
#190 = DIRECTION ( 'NONE',  ( 0.02058111271645273951, -0.1076015920697431100, 0.9939810436740779132 ) ) ;
#191 = EXTERNAL_SOURCE (IDENTIFIER('') ) ;
#192 = OBJECT_ROLE ('mandatory',$ ) ;
#193 = PROPERTY_DEFINITION ('document property','', #331 ) ;
#194 =( GEOMETRIC_REPRESENTATION_CONTEXT ( 3 ) GLOBAL_UNCERTAINTY_ASSIGNED_CONTEXT ( ( #384 ) ) GLOBAL_UNIT_ASSIGNED_CONTEXT ( ( #607, #557, #324 ) ) REPRESENTATION_CONTEXT ( 'NONE', 'WORKASPACE' ) );
#195 = PROPERTY_DEFINITION_REPRESENTATION ( #328, #449 ) ;
#196 = APPLIED_EXTERNAL_IDENTIFICATION_ASSIGNMENT ( '94180A331_Tapered Heat-Set Inserts for Plastic_94180A331.STEP' , #402, #388,( #499) ) ;
#197 = CARTESIAN_POINT ( 'NONE',  ( 137.2524457577643489, 35.33926653420993347, 311.3111228377348425 ) ) ;
#198 = PRODUCT_RELATED_PRODUCT_CATEGORY ( 'part', '', ( #171 ) ) ;
#199 = DOCUMENT_FILE ( '8632T139_D-Profile Rotary Shaft_8632T139.STEP' , '', '', #711, '' ,$ ) ;
#200 = DOCUMENT_TYPE ( 'geometry' ) ;
#201 = DIRECTION ( 'NONE',  ( 0.9997875695950112496, 0.001110622642017167205, -0.02058111271645272217 ) ) ;
#202 = PROPERTY_DEFINITION_REPRESENTATION ( #613, #63 ) ;
#203 = EXTERNAL_SOURCE (IDENTIFIER('') ) ;
#204 = CARTESIAN_POINT ( 'NONE',  ( 0.000000000000000000, 0.000000000000000000, 0.000000000000000000 ) ) ;
#205 = PRODUCT ( '8632T139_D-Profile Rotary Shaft_8632T139', '8632T139_D-Profile Rotary Shaft_8632T139', '', ( #576 ) ) ;
#206 = ITEM_DEFINED_TRANSFORMATION ( 'NONE', 'NONE', #320,  #350 ) ;
#207 = AXIS2_PLACEMENT_3D ( 'NONE', #197, #31, #652 ) ;
#208 =( NAMED_UNIT ( * ) SI_UNIT ( $, .STERADIAN. ) SOLID_ANGLE_UNIT ( ) );
#209 = PRODUCT_DEFINITION_FORMATION_WITH_SPECIFIED_SOURCE ( 'Symmetric', '', #719, .NOT_KNOWN. ) ;
#210 = APPLICATION_CONTEXT ( 'automotive_design' ) ;
#211 = OBJECT_ROLE ('mandatory',$ ) ;
#212 = CONTEXT_DEPENDENT_SHAPE_REPRESENTATION ( #215, #14 ) ;
#213 = DIRECTION ( 'NONE',  ( 0.02058111271645292339, -0.1076015920697420969, 0.9939810436740779132 ) ) ;
#214 = PROPERTY_DEFINITION ('external definition','', #373 ) ;
#215 =( REPRESENTATION_RELATIONSHIP ('NONE','NONE', #58, #559 ) REPRESENTATION_RELATIONSHIP_WITH_TRANSFORMATION ( #225 )SHAPE_REPRESENTATION_RELATIONSHIP( ) );
#216 = ITEM_DEFINED_TRANSFORMATION ( 'NONE', 'NONE', #437,  #177 ) ;
#217 = DIRECTION ( 'NONE',  ( -0.02058111271645276380, 0.1076015920697431794, -0.9939810436740779132 ) ) ;
#218 = DOCUMENT_FILE ( '94180A331_Tapered Heat-Set Inserts for Plastic_94180A331.STEP' , '', '', #157, '' ,$ ) ;
#219 = OBJECT_ROLE ('mandatory',$ ) ;
#220 = PROPERTY_DEFINITION ('document property','', #373 ) ;
#221 = CARTESIAN_POINT ( 'NONE',  ( 111.6398259564674333, 22.77348065790785370, 309.3242012929304678 ) ) ;
#222 = AXIS2_PLACEMENT_3D ( 'NONE', #713, #333, #431 ) ;
#223 = AXIS2_PLACEMENT_3D ( 'NONE', #286, #217, #398 ) ;
#224 = PRODUCT_DEFINITION_CONTEXT ( 'detailed design', #287, 'design' ) ;
#225 = ITEM_DEFINED_TRANSFORMATION ( 'NONE', 'NONE', #698,  #177 ) ;
#226 = DIRECTION ( 'NONE',  ( 0.9997875695950111385, 0.001110622642017111694, -0.02058111271645305176 ) ) ;
#227 = PROPERTY_DEFINITION ('document property','', #438 ) ;
#228 = DIRECTION ( 'NONE',  ( 0.000000000000000000, 0.000000000000000000, 1.000000000000000000 ) ) ;
#229 = DIRECTION ( 'NONE',  ( 0.000000000000000000, 0.000000000000000000, 1.000000000000000000 ) ) ;
#230 = IDENTIFICATION_ROLE ( 'external document id and location', $) ;
#231 = PROPERTY_DEFINITION ('external definition','', #98 ) ;
#232 = APPLIED_EXTERNAL_IDENTIFICATION_ASSIGNMENT ( 'SpoolGuideLarge.STEP' , #344, #642,( #531) ) ;
#233 =( NAMED_UNIT ( * ) PLANE_ANGLE_UNIT ( ) SI_UNIT ( $, .RADIAN. ) );
#234 = EXTERNAL_SOURCE (IDENTIFIER('') ) ;
#235 = ITEM_DEFINED_TRANSFORMATION ( 'NONE', 'NONE', #4,  #350 ) ;
#236 = UNCERTAINTY_MEASURE_WITH_UNIT (LENGTH_MEASURE( 1.000000000000000082E-05 ), #241, 'distance_accuracy_value', 'NONE');
#237 = ROLE_ASSOCIATION ( #192, #60 ) ;
#238 = APPLICATION_PROTOCOL_DEFINITION ( 'draft international standard', 'automotive_design', 1998, #569 ) ;
#239 = DOCUMENT_TYPE ( 'geometry' ) ;
#240 = APPLICATION_PROTOCOL_DEFINITION ( 'draft international standard', 'automotive_design', 1998, #100 ) ;
#241 =( LENGTH_UNIT ( ) NAMED_UNIT ( * ) SI_UNIT ( .MILLI., .METRE. ) );
#242 = OBJECT_ROLE ('mandatory',$ ) ;
#243 = AXIS2_PLACEMENT_3D ( 'NONE', #284, #229, #166 ) ;
#244 = APPLIED_EXTERNAL_IDENTIFICATION_ASSIGNMENT ( '94180A331_Tapered Heat-Set Inserts for Plastic_94180A331.STEP' , #46, #447,( #331) ) ;
#245 = PROPERTY_DEFINITION_REPRESENTATION ( #436, #559 ) ;
#246 = ITEM_DEFINED_TRANSFORMATION ( 'NONE', 'NONE', #647,  #574 ) ;
#247 =( LENGTH_UNIT ( ) NAMED_UNIT ( * ) SI_UNIT ( .MILLI., .METRE. ) );
#248 = APPLICATION_CONTEXT ( 'automotive_design' ) ;
#249 = CONTEXT_DEPENDENT_SHAPE_REPRESENTATION ( #689, #411 ) ;
#250 = DIRECTION ( 'NONE',  ( 0.000000000000000000, 0.000000000000000000, 1.000000000000000000 ) ) ;
#251 = DOCUMENT_TYPE ( 'geometry' ) ;
#252 =( NAMED_UNIT ( * ) PLANE_ANGLE_UNIT ( ) SI_UNIT ( $, .RADIAN. ) );
#253 = AXIS2_PLACEMENT_3D ( 'NONE', #465, #716, #329 ) ;
#254 = ROLE_ASSOCIATION ( #163, #537 ) ;
#255 =( NAMED_UNIT ( * ) SI_UNIT ( $, .STERADIAN. ) SOLID_ANGLE_UNIT ( ) );
#256 = OBJECT_ROLE ('mandatory',$ ) ;
#257 = DIRECTION ( 'NONE',  ( 0.02058111271645273951, -0.1076015920697431100, 0.9939810436740779132 ) ) ;
#258 = APPLIED_DOCUMENT_REFERENCE ( #599,'',( #330) ) ;
#259 = DIRECTION ( 'NONE',  ( 0.000000000000000000, 0.000000000000000000, 1.000000000000000000 ) ) ;
#260 = PROPERTY_DEFINITION ('external definition','', #587 ) ;
#261 = EXTERNAL_SOURCE (IDENTIFIER('') ) ;
#262 =( NAMED_UNIT ( * ) SI_UNIT ( $, .STERADIAN. ) SOLID_ANGLE_UNIT ( ) );
#263 = ROLE_ASSOCIATION ( #586, #712 ) ;
#264 = CARTESIAN_POINT ( 'NONE',  ( 122.8105951119253376, 68.13585525234458373, 244.7667899206738582 ) ) ;
#265 = DIRECTION ( 'NONE',  ( 0.000000000000000000, 0.000000000000000000, 1.000000000000000000 ) ) ;
#266 = PRODUCT_DEFINITION_SHAPE ( 'NONE', 'NONE',  #523 ) ;
#267 =( REPRESENTATION_RELATIONSHIP ('NONE','NONE', #58, #449 ) REPRESENTATION_RELATIONSHIP_WITH_TRANSFORMATION ( #206 )SHAPE_REPRESENTATION_RELATIONSHIP( ) );
#268 = UNCERTAINTY_MEASURE_WITH_UNIT (LENGTH_MEASURE( 1.000000000000000082E-05 ), #494, 'distance_accuracy_value', 'NONE');
#269 =( GEOMETRIC_REPRESENTATION_CONTEXT ( 3 ) GLOBAL_UNCERTAINTY_ASSIGNED_CONTEXT ( ( #509 ) ) GLOBAL_UNIT_ASSIGNED_CONTEXT ( ( #568, #435, #658 ) ) REPRESENTATION_CONTEXT ( 'NONE', 'WORKASPACE' ) );
#270 = PRODUCT_DEFINITION ( 'General', '', #97, #299 ) ;
#271 = DIRECTION ( 'NONE',  ( -0.8977067596650017967, -0.4396377067716645271, -0.02900448993370162432 ) ) ;
#272 = AXIS2_PLACEMENT_3D ( 'NONE', #621, #228, #158 ) ;
#273 = SHAPE_REPRESENTATION ( '6432K12_Set Screw Shaft Collar_6432K12', ( #670 ), #308 ) ;
#274 = CONTEXT_DEPENDENT_SHAPE_REPRESENTATION ( #478, #692 ) ;
#275 = DIRECTION ( 'NONE',  ( 0.9997875695950111385, 0.001110622642017111694, -0.02058111271645312809 ) ) ;
#276 = PROPERTY_DEFINITION ('external definition','', #184 ) ;
#277 = DIRECTION ( 'NONE',  ( 1.000000000000000000, 0.000000000000000000, 0.000000000000000000 ) ) ;
#278 = CONTEXT_DEPENDENT_SHAPE_REPRESENTATION ( #659, #641 ) ;
#279 = DIRECTION ( 'NONE',  ( 0.9997875695950112496, 0.001110622642017167205, -0.02058111271645272217 ) ) ;
#280 =( REPRESENTATION_RELATIONSHIP ('NONE','NONE', #58, #449 ) REPRESENTATION_RELATIONSHIP_WITH_TRANSFORMATION ( #109 )SHAPE_REPRESENTATION_RELATIONSHIP( ) );
#281 = PROPERTY_DEFINITION ('document property','', #76 ) ;
#282 = CARTESIAN_POINT ( 'NONE',  ( 148.5163341824419660, 17.45058442627978224, 238.7476926886722879 ) ) ;
#283 = ITEM_DEFINED_TRANSFORMATION ( 'NONE', 'NONE', #322,  #177 ) ;
#284 = CARTESIAN_POINT ( 'NONE',  ( 0.000000000000000000, 0.000000000000000000, 0.000000000000000000 ) ) ;
#285 = DOCUMENT_TYPE ( 'geometry' ) ;
#286 = CARTESIAN_POINT ( 'NONE',  ( 161.2512966189023302, 55.85351929245643987, 242.6412450446623552 ) ) ;
#287 = APPLICATION_CONTEXT ( 'automotive_design' ) ;
#288 = DIRECTION ( 'NONE',  ( -0.02058111271645278809, 0.1076015920697432765, -0.9939810436740776911 ) ) ;
#289 = PRODUCT_RELATED_PRODUCT_CATEGORY ( 'part', '', ( #450 ) ) ;
#290 = DOCUMENT_FILE ( '6408K111_Flexible Shaft Coupling Iron Hub_6408K111.STEP' , '', '', #173, '' ,$ ) ;
#291 = OBJECT_ROLE ('mandatory',$ ) ;
#292 = PROPERTY_DEFINITION ('document property','', #340 ) ;
#293 =( GEOMETRIC_REPRESENTATION_CONTEXT ( 3 ) GLOBAL_UNCERTAINTY_ASSIGNED_CONTEXT ( ( #442 ) ) GLOBAL_UNIT_ASSIGNED_CONTEXT ( ( #446, #665, #255 ) ) REPRESENTATION_CONTEXT ( 'NONE', 'WORKASPACE' ) );
#294 = SHAPE_REPRESENTATION ( '8632T139_D-Profile Rotary Shaft_8632T139', ( #243 ), #405 ) ;
#295 = APPLIED_EXTERNAL_IDENTIFICATION_ASSIGNMENT ( '91290A121_Alloy Steel Socket Head Screw_91290A121.STEP' , #469, #444,( #526) ) ;
#296 = ROLE_ASSOCIATION ( #461, #631 ) ;
#297 = APPLICATION_PROTOCOL_DEFINITION ( 'draft international standard', 'automotive_design', 1998, #287 ) ;
#298 =( REPRESENTATION_RELATIONSHIP ('NONE','NONE', #58, #159 ) REPRESENTATION_RELATIONSHIP_WITH_TRANSFORMATION ( #697 )SHAPE_REPRESENTATION_RELATIONSHIP( ) );
#299 = PRODUCT_DEFINITION_CONTEXT ( 'detailed design', #518, 'design' ) ;
#300 = DOCUMENT_FILE ( '1314-0016-0250 assembly.STEP.STEP' , '', '', #32, '' ,$ ) ;
#301 = PRODUCT_DEFINITION_SHAPE ( 'NONE', 'NONE',  #739 ) ;
#302 = APPLICATION_PROTOCOL_DEFINITION ( 'draft international standard', 'automotive_design', 1998, #88 ) ;
#303 = PRODUCT_DEFINITION ( 'General', '', #118, #224 ) ;
#304 = PROPERTY_DEFINITION_REPRESENTATION ( #123, #449 ) ;
#305 =( REPRESENTATION_RELATIONSHIP ('NONE','NONE', #58, #449 ) REPRESENTATION_RELATIONSHIP_WITH_TRANSFORMATION ( #174 )SHAPE_REPRESENTATION_RELATIONSHIP( ) );
#306 = ITEM_DEFINED_TRANSFORMATION ( 'NONE', 'NONE', #535,  #165 ) ;
#307 =( NAMED_UNIT ( * ) PLANE_ANGLE_UNIT ( ) SI_UNIT ( $, .RADIAN. ) );
#308 =( GEOMETRIC_REPRESENTATION_CONTEXT ( 3 ) GLOBAL_UNCERTAINTY_ASSIGNED_CONTEXT ( ( #236 ) ) GLOBAL_UNIT_ASSIGNED_CONTEXT ( ( #241, #362, #185 ) ) REPRESENTATION_CONTEXT ( 'NONE', 'WORKASPACE' ) );
#309 = PROPERTY_DEFINITION_REPRESENTATION ( #227, #188 ) ;
#310 = IDENTIFICATION_ROLE ( 'external document id and location', $) ;
#311 =( LENGTH_UNIT ( ) NAMED_UNIT ( * ) SI_UNIT ( .MILLI., .METRE. ) );
#312 = PROPERTY_DEFINITION_REPRESENTATION ( #582, #559 ) ;
#313 = PROPERTY_DEFINITION ('external definition','', #66 ) ;
#314 = OBJECT_ROLE ('mandatory',$ ) ;
#315 = DIRECTION ( 'NONE',  ( 0.02058111271645273951, -0.1076015920697431100, 0.9939810436740779132 ) ) ;
#316 = PROPERTY_DEFINITION ('external definition','', #438 ) ;
#317 = CONTEXT_DEPENDENT_SHAPE_REPRESENTATION ( #267, #101 ) ;
#318 = DIRECTION ( 'NONE',  ( -0.02058111271645276380, 0.1076015920697431794, -0.9939810436740779132 ) ) ;
#319 =( REPRESENTATION_RELATIONSHIP ('NONE','NONE', #58, #85 ) REPRESENTATION_RELATIONSHIP_WITH_TRANSFORMATION ( #10 )SHAPE_REPRESENTATION_RELATIONSHIP( ) );
#320 = AXIS2_PLACEMENT_3D ( 'NONE', #605, #77, #86 ) ;
#321 = CONTEXT_DEPENDENT_SHAPE_REPRESENTATION ( #124, #462 ) ;
#322 = AXIS2_PLACEMENT_3D ( 'NONE', #34, #661, #609 ) ;
#323 = DIRECTION ( 'NONE',  ( 0.02058111271645264931, -0.1076015920697425826, 0.9939810436740776911 ) ) ;
#324 =( NAMED_UNIT ( * ) SI_UNIT ( $, .STERADIAN. ) SOLID_ANGLE_UNIT ( ) );
#325 = OBJECT_ROLE ('mandatory',$ ) ;
#326 = APPLIED_DOCUMENT_REFERENCE ( #25,'',( #523) ) ;
#327 = DIRECTION ( 'NONE',  ( 0.02058111271645272564, -0.1076015920697430128, 0.9939810436740776911 ) ) ;
#328 = PROPERTY_DEFINITION ('document property','', #512 ) ;
#329 = DIRECTION ( 'NONE',  ( 1.000000000000000000, 0.000000000000000000, 0.000000000000000000 ) ) ;
#330 = PRODUCT_DEFINITION ( 'General', '', #486, #59 ) ;
#331 = DOCUMENT_FILE ( '94180A331_Tapered Heat-Set Inserts for Plastic_94180A331.STEP' , '', '', #645, '' ,$ ) ;
#332 = EXTERNAL_SOURCE (IDENTIFIER('') ) ;
#333 = DIRECTION ( 'NONE',  ( 0.02058111271645320789, -0.1076015920697423606, 0.9939810436740778021 ) ) ;
#334 = PROPERTY_DEFINITION ('document property','', #531 ) ;
#335 = ROLE_ASSOCIATION ( #564, #92 ) ;
#336 = APPLICATION_PROTOCOL_DEFINITION ( 'draft international standard', 'automotive_design', 1998, #468 ) ;
#337 = APPLIED_EXTERNAL_IDENTIFICATION_ASSIGNMENT ( '94180A331_Tapered Heat-Set Inserts for Plastic_94180A331.STEP' , #365, #203,( #156) ) ;
#338 = OBJECT_ROLE ('mandatory',$ ) ;
#339 =( NAMED_UNIT ( * ) PLANE_ANGLE_UNIT ( ) SI_UNIT ( $, .RADIAN. ) );
#340 = DOCUMENT_FILE ( '94180A331_Tapered Heat-Set Inserts for Plastic_94180A331.STEP' , '', '', #239, '' ,$ ) ;
#341 = CARTESIAN_POINT ( 'NONE',  ( 124.5248285966921031, 60.88057387013579103, 313.1826211606972379 ) ) ;
#342 = PRODUCT_RELATED_PRODUCT_CATEGORY ( 'part', '', ( #514 ) ) ;
#343 = PROPERTY_DEFINITION ('external definition','', #115 ) ;
#344 = IDENTIFICATION_ROLE ( 'external document id and location', $) ;
#345 = PROPERTY_DEFINITION_REPRESENTATION ( #65, #559 ) ;
#346 = ITEM_DEFINED_TRANSFORMATION ( 'NONE', 'NONE', #381,  #350 ) ;
#347 = PROPERTY_DEFINITION ('document property','', #184 ) ;
#348 = IDENTIFICATION_ROLE ( 'external document id and location', $) ;
#349 = APPLICATION_PROTOCOL_DEFINITION ( 'draft international standard', 'automotive_design', 1998, #681 ) ;
#350 = AXIS2_PLACEMENT_3D ( 'NONE', #684, #250, #639 ) ;
#351 = AXIS2_PLACEMENT_3D ( 'NONE', #221, #111, #226 ) ;
#352 = DIRECTION ( 'NONE',  ( -0.8955013655877389622, -0.4440779600065198895, -0.02953082570708721877 ) ) ;
#353 = IDENTIFICATION_ROLE ( 'external document id and location', $) ;
#354 = PROPERTY_DEFINITION ('document property','', #527 ) ;
#355 = PROPERTY_DEFINITION_REPRESENTATION ( #334, #188 ) ;
#356 = APPLICATION_CONTEXT ( 'automotive_design' ) ;
#357 = UNCERTAINTY_MEASURE_WITH_UNIT (LENGTH_MEASURE( 1.000000000000000082E-05 ), #563, 'distance_accuracy_value', 'NONE');
#358 = SHAPE_DEFINITION_REPRESENTATION ( #266, #559 ) ;
#359 = PRODUCT_DEFINITION_SHAPE ( 'NONE', 'NONE',  #723 ) ;
#360 = PROPERTY_DEFINITION_REPRESENTATION ( #132, #449 ) ;
#361 = ROLE_ASSOCIATION ( #61, #11 ) ;
#362 =( NAMED_UNIT ( * ) PLANE_ANGLE_UNIT ( ) SI_UNIT ( $, .RADIAN. ) );
#363 = CONTEXT_DEPENDENT_SHAPE_REPRESENTATION ( #305, #707 ) ;
#364 = APPLICATION_PROTOCOL_DEFINITION ( 'draft international standard', 'automotive_design', 1998, #518 ) ;
#365 = IDENTIFICATION_ROLE ( 'external document id and location', $) ;
#366 = PRODUCT_CONTEXT ( 'NONE', #569, 'mechanical' ) ;
#367 = DOCUMENT_TYPE ( 'geometry' ) ;
#368 =( GEOMETRIC_REPRESENTATION_CONTEXT ( 3 ) GLOBAL_UNCERTAINTY_ASSIGNED_CONTEXT ( ( #357 ) ) GLOBAL_UNIT_ASSIGNED_CONTEXT ( ( #563, #339, #476 ) ) REPRESENTATION_CONTEXT ( 'NONE', 'WORKASPACE' ) );
#369 = APPLIED_EXTERNAL_IDENTIFICATION_ASSIGNMENT ( '94180A331_Tapered Heat-Set Inserts for Plastic_94180A331.STEP' , #113, #542,( #115) ) ;
#370 = APPLIED_EXTERNAL_IDENTIFICATION_ASSIGNMENT ( '1314-0016-0250 assembly.STEP.STEP' , #348, #547,( #300) ) ;
#371 = PROPERTY_DEFINITION_REPRESENTATION ( #347, #378 ) ;
#372 =( REPRESENTATION_RELATIONSHIP ('NONE','NONE', #58, #449 ) REPRESENTATION_RELATIONSHIP_WITH_TRANSFORMATION ( #346 )SHAPE_REPRESENTATION_RELATIONSHIP( ) );
#373 = DOCUMENT_FILE ( '94180A331_Tapered Heat-Set Inserts for Plastic_94180A331.STEP' , '', '', #116, '' ,$ ) ;
#374 = CARTESIAN_POINT ( 'NONE',  ( 111.6322109447623347, 22.81329324697362182, 308.9564283067711585 ) ) ;
#375 = IDENTIFICATION_ROLE ( 'external document id and location', $) ;
#376 = ROLE_ASSOCIATION ( #291, #133 ) ;
#377 = DIRECTION ( 'NONE',  ( 0.02058111271645289911, -0.1076015920697419997, 0.9939810436740779132 ) ) ;
#378 = SHAPE_REPRESENTATION ( 'SpoolBig', ( #574 ), #602 ) ;
#379 =( GEOMETRIC_REPRESENTATION_CONTEXT ( 3 ) GLOBAL_UNCERTAINTY_ASSIGNED_CONTEXT ( ( #686 ) ) GLOBAL_UNIT_ASSIGNED_CONTEXT ( ( #673, #252, #208 ) ) REPRESENTATION_CONTEXT ( 'NONE', 'WORKASPACE' ) );
#380 = PROPERTY_DEFINITION ('document property','', #218 ) ;
#381 = AXIS2_PLACEMENT_3D ( 'NONE', #341, #477, #162 ) ;
#382 = DIRECTION ( 'NONE',  ( 0.4550057808947871041, -0.8842591538413633323, -0.1051450816732827781 ) ) ;
#383 = PRODUCT_DEFINITION ( 'General', '', #671, #2 ) ;
#384 = UNCERTAINTY_MEASURE_WITH_UNIT (LENGTH_MEASURE( 1.000000000000000082E-05 ), #607, 'distance_accuracy_value', 'NONE');
#385 = PROPERTY_DEFINITION_REPRESENTATION ( #142, #273 ) ;
#386 = PROPERTY_DEFINITION ('external definition','', #654 ) ;
#387 = CARTESIAN_POINT ( 'NONE',  ( 135.5103471813235103, 44.44725709574701256, 227.1751004054208636 ) ) ;
#388 = EXTERNAL_SOURCE (IDENTIFIER('') ) ;
#389 = ROLE_ASSOCIATION ( #169, #619 ) ;
#390 = DIRECTION ( 'NONE',  ( -0.8977067596650017967, -0.4396377067716645271, -0.02900448993370162432 ) ) ;
#391 = PRODUCT ( '91290A121_Alloy Steel Socket Head Screw_91290A121', '91290A121_Alloy Steel Socket Head Screw_91290A121', '', ( #504 ) ) ;
#392 = PRODUCT_DEFINITION_CONTEXT ( 'detailed design', #606, 'design' ) ;
#393 = APPLIED_DOCUMENT_REFERENCE ( #499,'',( #523) ) ;
#394 = AXIS2_PLACEMENT_3D ( 'NONE', #131, #377, #601 ) ;
#395 = APPLICATION_PROTOCOL_DEFINITION ( 'draft international standard', 'automotive_design', 1998, #19 ) ;
#396 = CARTESIAN_POINT ( 'NONE',  ( 149.9327263595882869, 10.04544286003999964, 307.1534681143222087 ) ) ;
#397 = ROLE_ASSOCIATION ( #95, #678 ) ;
#398 = DIRECTION ( 'NONE',  ( -0.8977067596650019077, -0.4396377067716646381, -0.02900448993370164860 ) ) ;
#399 = PRODUCT ( '6408K111_Flexible Shaft Coupling Iron Hub_6408K111', '6408K111_Flexible Shaft Coupling Iron Hub_6408K111', '', ( #172 ) ) ;
#400 = PROPERTY_DEFINITION_REPRESENTATION ( #528, #559 ) ;
#401 = PRODUCT_CONTEXT ( 'NONE', #210, 'mechanical' ) ;
#402 = IDENTIFICATION_ROLE ( 'external document id and location', $) ;
#403 = PROPERTY_DEFINITION ('document property','', #290 ) ;
#404 = DIRECTION ( 'NONE',  ( -0.02058111271645274992, 0.1076015920697431100, -0.9939810436740778021 ) ) ;
#405 =( GEOMETRIC_REPRESENTATION_CONTEXT ( 3 ) GLOBAL_UNCERTAINTY_ASSIGNED_CONTEXT ( ( #525 ) ) GLOBAL_UNIT_ASSIGNED_CONTEXT ( ( #311, #307, #20 ) ) REPRESENTATION_CONTEXT ( 'NONE', 'WORKASPACE' ) );
#406 = APPLIED_EXTERNAL_IDENTIFICATION_ASSIGNMENT ( 'SpoolGuideLarge.STEP' , #429, #72,( #438) ) ;
#407 = APPLICATION_CONTEXT ( 'automotive_design' ) ;
#408 = DOCUMENT_TYPE ( 'geometry' ) ;
#409 = ROLE_ASSOCIATION ( #211, #168 ) ;
#410 = PRODUCT_CONTEXT ( 'NONE', #100, 'mechanical' ) ;
#411 = PRODUCT_DEFINITION_SHAPE ( 'NONE', 'NONE',  #731 ) ;
#412 =( REPRESENTATION_RELATIONSHIP ('NONE','NONE', #58, #449 ) REPRESENTATION_RELATIONSHIP_WITH_TRANSFORMATION ( #443 )SHAPE_REPRESENTATION_RELATIONSHIP( ) );
#413 = ITEM_DEFINED_TRANSFORMATION ( 'NONE', 'NONE', #351,  #350 ) ;
#414 = PROPERTY_DEFINITION_REPRESENTATION ( #354, #159 ) ;
#415 = CARTESIAN_POINT ( 'NONE',  ( 0.000000000000000000, 0.000000000000000000, 0.000000000000000000 ) ) ;
#416 = AXIS2_PLACEMENT_3D ( 'NONE', #107, #213, #54 ) ;
#417 = AXIS2_PLACEMENT_3D ( 'NONE', #264, #318, #551 ) ;
#418 = APPLIED_EXTERNAL_IDENTIFICATION_ASSIGNMENT ( '94180A331_Tapered Heat-Set Inserts for Plastic_94180A331.STEP' , #624, #539,( #340) ) ;
#419 = PROPERTY_DEFINITION_REPRESENTATION ( #231, #449 ) ;
#420 = ROLE_ASSOCIATION ( #513, #393 ) ;
#421 = PROPERTY_DEFINITION_REPRESENTATION ( #427, #188 ) ;
#422 = PROPERTY_DEFINITION ('external definition','', #460 ) ;
#423 = APPLIED_DOCUMENT_REFERENCE ( #184,'',( #270) ) ;
#424 = DOCUMENT_TYPE ( 'geometry' ) ;
#425 = ITEM_DEFINED_TRANSFORMATION ( 'NONE', 'NONE', #117,  #177 ) ;
#426 = DIRECTION ( 'NONE',  ( 0.6899809371997518426, -0.7179560650879008854, -0.09200758069012524021 ) ) ;
#427 = PROPERTY_DEFINITION ('external definition','', #531 ) ;
#428 = OBJECT_ROLE ('mandatory',$ ) ;
#429 = IDENTIFICATION_ROLE ( 'external document id and location', $) ;
#430 =( REPRESENTATION_RELATIONSHIP ('NONE','NONE', #58, #449 ) REPRESENTATION_RELATIONSHIP_WITH_TRANSFORMATION ( #413 )SHAPE_REPRESENTATION_RELATIONSHIP( ) );
#431 = DIRECTION ( 'NONE',  ( 0.9997862820513410131, 0.0002745337675524317511, -0.02067159532222842544 ) ) ;
#432 = CONTEXT_DEPENDENT_SHAPE_REPRESENTATION ( #634, #53 ) ;
#433 = PROPERTY_DEFINITION_REPRESENTATION ( #316, #188 ) ;
#434 = DOCUMENT_TYPE ( 'geometry' ) ;
#435 =( NAMED_UNIT ( * ) PLANE_ANGLE_UNIT ( ) SI_UNIT ( $, .RADIAN. ) );
#436 = PROPERTY_DEFINITION ('external definition','', #499 ) ;
#437 = AXIS2_PLACEMENT_3D ( 'NONE', #103, #629, #581 ) ;
#438 = DOCUMENT_FILE ( 'SpoolGuideLarge.STEP' , '', '', #578, '' ,$ ) ;
#439 = APPLIED_EXTERNAL_IDENTIFICATION_ASSIGNMENT ( '91290A121_Alloy Steel Socket Head Screw_91290A121.STEP' , #508, #105,( #466) ) ;
#440 = CARTESIAN_POINT ( 'NONE',  ( 124.5172135849870187, 60.92038645920158757, 312.8148481745379286 ) ) ;
#441 = APPLICATION_CONTEXT ( 'automotive_design' ) ;
#442 = UNCERTAINTY_MEASURE_WITH_UNIT (LENGTH_MEASURE( 1.000000000000000082E-05 ), #446, 'distance_accuracy_value', 'NONE');
#443 = ITEM_DEFINED_TRANSFORMATION ( 'NONE', 'NONE', #417,  #350 ) ;
#444 = EXTERNAL_SOURCE (IDENTIFIER('') ) ;
#445 = PROPERTY_DEFINITION ('document property','', #25 ) ;
#446 =( LENGTH_UNIT ( ) NAMED_UNIT ( * ) SI_UNIT ( .MILLI., .METRE. ) );
#447 = EXTERNAL_SOURCE (IDENTIFIER('') ) ;
#448 = APPLICATION_PROTOCOL_DEFINITION ( 'draft international standard', 'automotive_design', 1998, #651 ) ;
#449 = SHAPE_REPRESENTATION ( '91290A121_Alloy Steel Socket Head Screw_91290A121', ( #350 ), #15 ) ;
#450 = PRODUCT ( 'SpoolBig', 'SpoolBig', '', ( #57 ) ) ;
#451 = PRODUCT_DEFINITION_CONTEXT ( 'detailed design', #651, 'design' ) ;
#452 = PROPERTY_DEFINITION_REPRESENTATION ( #281, #449 ) ;
#453 = APPLIED_EXTERNAL_IDENTIFICATION_ASSIGNMENT ( '91290A121_Alloy Steel Socket Head Screw_91290A121.STEP' , #110, #48,( #76) ) ;
#454 = APPLIED_EXTERNAL_IDENTIFICATION_ASSIGNMENT ( '94180A331_Tapered Heat-Set Inserts for Plastic_94180A331.STEP' , #310, #130,( #218) ) ;
#455 = APPLICATION_CONTEXT ( 'automotive_design' ) ;
#456 = DIRECTION ( 'NONE',  ( 0.000000000000000000, 0.000000000000000000, 1.000000000000000000 ) ) ;
#457 = PROPERTY_DEFINITION_REPRESENTATION ( #507, #449 ) ;
#458 = PROPERTY_DEFINITION ('external definition','', #527 ) ;
#459 = SHAPE_DEFINITION_REPRESENTATION ( #87, #449 ) ;
#460 = DOCUMENT_FILE ( '91290A121_Alloy Steel Socket Head Screw_91290A121.STEP' , '', '', #705, '' ,$ ) ;
#461 = OBJECT_ROLE ('mandatory',$ ) ;
#462 = PRODUCT_DEFINITION_SHAPE ( 'NONE', 'NONE',  #726 ) ;
#463 = PROPERTY_DEFINITION_REPRESENTATION ( #276, #378 ) ;
#464 = PRODUCT_DEFINITION_FORMATION_WITH_SPECIFIED_SOURCE ( 'Symmetric', '', #171, .NOT_KNOWN. ) ;
#465 = CARTESIAN_POINT ( 'NONE',  ( 0.000000000000000000, 0.000000000000000000, 0.000000000000000000 ) ) ;
#466 = DOCUMENT_FILE ( '91290A121_Alloy Steel Socket Head Screw_91290A121.STEP' , '', '', #52, '' ,$ ) ;
#467 = PROPERTY_DEFINITION_REPRESENTATION ( #497, #63 ) ;
#468 = APPLICATION_CONTEXT ( 'automotive_design' ) ;
#469 = IDENTIFICATION_ROLE ( 'external document id and location', $) ;
#470 = PROPERTY_DEFINITION ('document property','', #526 ) ;
#471 = PROPERTY_DEFINITION_REPRESENTATION ( #260, #449 ) ;
#472 = APPLIED_DOCUMENT_REFERENCE ( #527,'',( #303) ) ;
#473 = PROPERTY_DEFINITION_REPRESENTATION ( #480, #85 ) ;
#474 = SHAPE_DEFINITION_REPRESENTATION ( #679, #159 ) ;
#475 = PRODUCT_DEFINITION_SHAPE ( 'NONE', 'NONE',  #745 ) ;
#476 =( NAMED_UNIT ( * ) SI_UNIT ( $, .STERADIAN. ) SOLID_ANGLE_UNIT ( ) );
#477 = DIRECTION ( 'NONE',  ( 0.02058111271645300319, -0.1076015920697422079, 0.9939810436740779132 ) ) ;
#478 =( REPRESENTATION_RELATIONSHIP ('NONE','NONE', #58, #559 ) REPRESENTATION_RELATIONSHIP_WITH_TRANSFORMATION ( #161 )SHAPE_REPRESENTATION_RELATIONSHIP( ) );
#479 = ROLE_ASSOCIATION ( #126, #55 ) ;
#480 = PROPERTY_DEFINITION ('document property','', #300 ) ;
#481 = IDENTIFICATION_ROLE ( 'external document id and location', $) ;
#482 = IDENTIFICATION_ROLE ( 'external document id and location', $) ;
#483 = PROPERTY_DEFINITION_REPRESENTATION ( #445, #559 ) ;
#484 = IDENTIFICATION_ROLE ( 'external document id and location', $) ;
#485 = AXIS2_PLACEMENT_3D ( 'NONE', #488, #323, #90 ) ;
#486 = PRODUCT_DEFINITION_FORMATION_WITH_SPECIFIED_SOURCE ( 'Symmetric', '', #399, .NOT_KNOWN. ) ;
#487 = PROPERTY_DEFINITION_REPRESENTATION ( #94, #294 ) ;
#488 = CARTESIAN_POINT ( 'NONE',  ( 137.0302726459900100, 36.50082572060048136, 300.5810974712733241 ) ) ;
#489 =( REPRESENTATION_RELATIONSHIP ('NONE','NONE', #58, #188 ) REPRESENTATION_RELATIONSHIP_WITH_TRANSFORMATION ( #180 )SHAPE_REPRESENTATION_RELATIONSHIP( ) );
#490 = PRODUCT_RELATED_PRODUCT_CATEGORY ( 'part', '', ( #399 ) ) ;
#491 = ROLE_ASSOCIATION ( #338, #258 ) ;
#492 = PROPERTY_DEFINITION ('external definition','', #331 ) ;
#493 = CARTESIAN_POINT ( 'NONE',  ( 134.7851042491916473, 46.10942869336020777, 211.3989228987474860 ) ) ;
#494 =( LENGTH_UNIT ( ) NAMED_UNIT ( * ) SI_UNIT ( .MILLI., .METRE. ) );
#495 = APPLIED_DOCUMENT_REFERENCE ( #373,'',( #523) ) ;
#496 = DIRECTION ( 'NONE',  ( 0.02058111271645376647, -0.1076015920697402650, 0.9939810436740782462 ) ) ;
#497 = PROPERTY_DEFINITION ('external definition','', #290 ) ;
#498 = APPLIED_EXTERNAL_IDENTIFICATION_ASSIGNMENT ( '6408K111_Flexible Shaft Coupling Iron Hub_6408K111.STEP' , #68, #594,( #599) ) ;
#499 = DOCUMENT_FILE ( '94180A331_Tapered Heat-Set Inserts for Plastic_94180A331.STEP' , '', '', #434, '' ,$ ) ;
#500 = EXTERNAL_SOURCE (IDENTIFIER('') ) ;
#501 = CARTESIAN_POINT ( 'NONE',  ( 162.8101139881079291, 48.19234866133370332, 310.6441149959296695 ) ) ;
#502 = CONTEXT_DEPENDENT_SHAPE_REPRESENTATION ( #412, #155 ) ;
#503 = PRODUCT ( '6432K12_Set Screw Shaft Collar_6432K12', '6432K12_Set Screw Shaft Collar_6432K12', '', ( #99 ) ) ;
#504 = PRODUCT_CONTEXT ( 'NONE', #407, 'mechanical' ) ;
#505 =( REPRESENTATION_RELATIONSHIP ('NONE','NONE', #58, #559 ) REPRESENTATION_RELATIONSHIP_WITH_TRANSFORMATION ( #5 )SHAPE_REPRESENTATION_RELATIONSHIP( ) );
#506 =( NAMED_UNIT ( * ) PLANE_ANGLE_UNIT ( ) SI_UNIT ( $, .RADIAN. ) );
#507 = PROPERTY_DEFINITION ('external definition','', #76 ) ;
#508 = IDENTIFICATION_ROLE ( 'external document id and location', $) ;
#509 = UNCERTAINTY_MEASURE_WITH_UNIT (LENGTH_MEASURE( 1.000000000000000082E-05 ), #568, 'distance_accuracy_value', 'NONE');
#510 = PRODUCT_DEFINITION_FORMATION_WITH_SPECIFIED_SOURCE ( 'Symmetric', '', #514, .NOT_KNOWN. ) ;
#511 = AXIS2_PLACEMENT_3D ( 'NONE', #501, #190, #279 ) ;
#512 = DOCUMENT_FILE ( '91290A121_Alloy Steel Socket Head Screw_91290A121.STEP' , '', '', #524, '' ,$ ) ;
#513 = OBJECT_ROLE ('mandatory',$ ) ;
#514 = PRODUCT ( 'SpoolGuideLarge', 'SpoolGuideLarge', '', ( #366 ) ) ;
#515 = DIRECTION ( 'NONE',  ( 1.000000000000000000, 0.000000000000000000, 0.000000000000000000 ) ) ;
#516 = PROPERTY_DEFINITION_REPRESENTATION ( #534, #449 ) ;
#517 = PROPERTY_DEFINITION_REPRESENTATION ( #403, #63 ) ;
#518 = APPLICATION_CONTEXT ( 'automotive_design' ) ;
#519 = PROPERTY_DEFINITION_REPRESENTATION ( #313, #449 ) ;
#520 = PRODUCT ( '6408K84_18000 rpm Buna-N Rubber Spider for 1-5-64 OD Flexible Shaft Coupling Iron Hub_6408K84', '6408K84_18000 rpm Buna-N Rubber Spider for 1-5-64 OD Flexible Shaft Coupling Iron Hub_6408K84', '', ( #125 ) ) ;
#521 = CONTEXT_DEPENDENT_SHAPE_REPRESENTATION ( #505, #668 ) ;
#522 = APPLIED_EXTERNAL_IDENTIFICATION_ASSIGNMENT ( 'SpoolBig.STEP' , #375, #234,( #184) ) ;
#523 = PRODUCT_DEFINITION ( 'General', '', #687, #660 ) ;
#524 = DOCUMENT_TYPE ( 'geometry' ) ;
#525 = UNCERTAINTY_MEASURE_WITH_UNIT (LENGTH_MEASURE( 1.000000000000000082E-05 ), #311, 'distance_accuracy_value', 'NONE');
#526 = DOCUMENT_FILE ( '91290A121_Alloy Steel Socket Head Screw_91290A121.STEP' , '', '', #408, '' ,$ ) ;
#527 = DOCUMENT_FILE ( '6408K84_18000 rpm Buna-N Rubber Spider for 1-5-64 OD Flexible Shaft Coupling Iron Hub_6408K84.STEP' , '', '', #693, '' ,$ ) ;
#528 = PROPERTY_DEFINITION ('external definition','', #156 ) ;
#529 = APPLICATION_CONTEXT ( 'automotive_design' ) ;
#530 = APPLIED_DOCUMENT_REFERENCE ( #66,'',( #186) ) ;
#531 = DOCUMENT_FILE ( 'SpoolGuideLarge.STEP' , '', '', #718, '' ,$ ) ;
#532 = ITEM_DEFINED_TRANSFORMATION ( 'NONE', 'NONE', #17,  #350 ) ;
#533 = PROPERTY_DEFINITION_REPRESENTATION ( #343, #559 ) ;
#534 = PROPERTY_DEFINITION ('document property','', #66 ) ;
#535 = AXIS2_PLACEMENT_3D ( 'NONE', #387, #26, #134 ) ;
#536 = AXIS2_PLACEMENT_3D ( 'NONE', #570, #149, #352 ) ;
#537 = APPLIED_DOCUMENT_REFERENCE ( #438,'',( #70) ) ;
#538 =( NAMED_UNIT ( * ) SI_UNIT ( $, .STERADIAN. ) SOLID_ANGLE_UNIT ( ) );
#539 = EXTERNAL_SOURCE (IDENTIFIER('') ) ;
#540 = PRODUCT_DEFINITION_SHAPE ( 'NONE', 'NONE',  #724 ) ;
#541 = APPLICATION_PROTOCOL_DEFINITION ( 'draft international standard', 'automotive_design', 1998, #210 ) ;
#542 = EXTERNAL_SOURCE (IDENTIFIER('') ) ;
#543 = APPLIED_DOCUMENT_REFERENCE ( #76,'',( #186) ) ;
#544 = AXIS2_PLACEMENT_3D ( 'NONE', #36, #616, #147 ) ;
#545 = APPLIED_EXTERNAL_IDENTIFICATION_ASSIGNMENT ( '91290A121_Alloy Steel Socket Head Screw_91290A121.STEP' , #230, #595,( #98) ) ;
#546 = PROPERTY_DEFINITION_REPRESENTATION ( #108, #294 ) ;
#547 = EXTERNAL_SOURCE (IDENTIFIER('') ) ;
#548 = APPLICATION_PROTOCOL_DEFINITION ( 'draft international standard', 'automotive_design', 1998, #407 ) ;
#549 = ROLE_ASSOCIATION ( #120, #326 ) ;
#550 = EXTERNAL_SOURCE (IDENTIFIER('') ) ;
#551 = DIRECTION ( 'NONE',  ( -0.8977067596650019077, -0.4396377067716646381, -0.02900448993370164860 ) ) ;
#552 = UNCERTAINTY_MEASURE_WITH_UNIT (LENGTH_MEASURE( 1.000000000000000082E-05 ), #104, 'distance_accuracy_value', 'NONE');
#553 = ITEM_DEFINED_TRANSFORMATION ( 'NONE', 'NONE', #511,  #177 ) ;
#554 = DIRECTION ( 'NONE',  ( 0.02058111271645270135, -0.1076015920697425826, 0.9939810436740779132 ) ) ;
#555 =( REPRESENTATION_RELATIONSHIP ('NONE','NONE', #58, #273 ) REPRESENTATION_RELATIONSHIP_WITH_TRANSFORMATION ( #73 )SHAPE_REPRESENTATION_RELATIONSHIP( ) );
#556 = PROPERTY_DEFINITION ('document property','', #115 ) ;
#557 =( NAMED_UNIT ( * ) PLANE_ANGLE_UNIT ( ) SI_UNIT ( $, .RADIAN. ) );
#558 =( GEOMETRIC_REPRESENTATION_CONTEXT ( 3 ) GLOBAL_UNCERTAINTY_ASSIGNED_CONTEXT ( ( #268 ) ) GLOBAL_UNIT_ASSIGNED_CONTEXT ( ( #494, #506, #262 ) ) REPRESENTATION_CONTEXT ( 'NONE', 'WORKASPACE' ) );
#559 = SHAPE_REPRESENTATION ( '94180A331_Tapered Heat-Set Inserts for Plastic_94180A331', ( #177 ), #558 ) ;
#560 = PROPERTY_DEFINITION_REPRESENTATION ( #75, #449 ) ;
#561 = APPLIED_DOCUMENT_REFERENCE ( #340,'',( #523) ) ;
#562 = SHAPE_DEFINITION_REPRESENTATION ( #620, #85 ) ;
#563 =( LENGTH_UNIT ( ) NAMED_UNIT ( * ) SI_UNIT ( .MILLI., .METRE. ) );
#564 = OBJECT_ROLE ('mandatory',$ ) ;
#565 = PROPERTY_DEFINITION_REPRESENTATION ( #292, #559 ) ;
#566 = PRODUCT_DEFINITION_SHAPE ( 'NONE', 'NONE',  #721 ) ;
#567 = SHAPE_DEFINITION_REPRESENTATION ( #625, #273 ) ;
#568 =( LENGTH_UNIT ( ) NAMED_UNIT ( * ) SI_UNIT ( .MILLI., .METRE. ) );
#569 = APPLICATION_CONTEXT ( 'automotive_design' ) ;
#570 = CARTESIAN_POINT ( 'NONE',  ( 96.04218731184688806, 29.50461094572753851, 326.6936730814315410 ) ) ;
#571 =( NAMED_UNIT ( * ) PLANE_ANGLE_UNIT ( ) SI_UNIT ( $, .RADIAN. ) );
#572 = PRODUCT_RELATED_PRODUCT_CATEGORY ( 'part', '', ( #205 ) ) ;
#573 = PRODUCT_DEFINITION_SHAPE ( 'NONE', 'NONE',  #70 ) ;
#574 = AXIS2_PLACEMENT_3D ( 'NONE', #204, #265, #12 ) ;
#575 = APPLIED_EXTERNAL_IDENTIFICATION_ASSIGNMENT ( '6408K84_18000 rpm Buna-N Rubber Spider for 1-5-64 OD Flexible Shaft Coupling Iron Hub_6408K84.STEP' , #481, #191,( #527) ) ;
#576 = PRODUCT_CONTEXT ( 'NONE', #681, 'mechanical' ) ;
#577 = APPLIED_EXTERNAL_IDENTIFICATION_ASSIGNMENT ( '91290A121_Alloy Steel Socket Head Screw_91290A121.STEP' , #353, #187,( #587) ) ;
#578 = DOCUMENT_TYPE ( 'geometry' ) ;
#579 = EXTERNAL_SOURCE (IDENTIFIER('') ) ;
#580 = PROPERTY_DEFINITION_REPRESENTATION ( #592, #449 ) ;
#581 = DIRECTION ( 'NONE',  ( -0.8977067596650017967, -0.4396377067716645271, -0.02900448993370162432 ) ) ;
#582 = PROPERTY_DEFINITION ('external definition','', #25 ) ;
#583 = IDENTIFICATION_ROLE ( 'external document id and location', $) ;
#584 = ROLE_ASSOCIATION ( #89, #183 ) ;
#585 = CONTEXT_DEPENDENT_SHAPE_REPRESENTATION ( #636, #566 ) ;
#586 = OBJECT_ROLE ('mandatory',$ ) ;
#587 = DOCUMENT_FILE ( '91290A121_Alloy Steel Socket Head Screw_91290A121.STEP' , '', '', #424, '' ,$ ) ;
#588 = ROLE_ASSOCIATION ( #256, #122 ) ;
#589 = AXIS2_PLACEMENT_3D ( 'NONE', #415, #259, #129 ) ;
#590 = PRODUCT_DEFINITION_SHAPE ( 'NONE', 'NONE',  #725 ) ;
#591 = ROLE_ASSOCIATION ( #164, #530 ) ;
#592 = PROPERTY_DEFINITION ('external definition','', #466 ) ;
#593 = APPLICATION_PROTOCOL_DEFINITION ( 'draft international standard', 'automotive_design', 1998, #441 ) ;
#594 = EXTERNAL_SOURCE (IDENTIFIER('') ) ;
#595 = EXTERNAL_SOURCE (IDENTIFIER('') ) ;
#596 = PROPERTY_DEFINITION ('document property','', #460 ) ;
#597 =( REPRESENTATION_RELATIONSHIP ('NONE','NONE', #58, #559 ) REPRESENTATION_RELATIONSHIP_WITH_TRANSFORMATION ( #216 )SHAPE_REPRESENTATION_RELATIONSHIP( ) );
#598 = DIRECTION ( 'NONE',  ( 0.9997875695950112496, 0.001110622642017167205, -0.02058111271645272217 ) ) ;
#599 = DOCUMENT_FILE ( '6408K111_Flexible Shaft Coupling Iron Hub_6408K111.STEP' , '', '', #7, '' ,$ ) ;
#600 = DOCUMENT_TYPE ( 'geometry' ) ;
#601 = DIRECTION ( 'NONE',  ( 0.9641023454400639014, 0.2653861659002698659, 0.008766439740386360729 ) ) ;
#602 =( GEOMETRIC_REPRESENTATION_CONTEXT ( 3 ) GLOBAL_UNCERTAINTY_ASSIGNED_CONTEXT ( ( #677 ) ) GLOBAL_UNIT_ASSIGNED_CONTEXT ( ( #247, #571, #538 ) ) REPRESENTATION_CONTEXT ( 'NONE', 'WORKASPACE' ) );
#603 = DIRECTION ( 'NONE',  ( 0.02058111271645313850, -0.1076015920697421385, 0.9939810436740779132 ) ) ;
#604 = CONTEXT_DEPENDENT_SHAPE_REPRESENTATION ( #56, #1 ) ;
#605 = CARTESIAN_POINT ( 'NONE',  ( 110.3734739830855887, 29.88278057019882894, 240.8832933790571644 ) ) ;
#606 = APPLICATION_CONTEXT ( 'automotive_design' ) ;
#607 =( LENGTH_UNIT ( ) NAMED_UNIT ( * ) SI_UNIT ( .MILLI., .METRE. ) );
#608 = PRODUCT_DEFINITION_SHAPE ( 'NONE', 'NONE',  #727 ) ;
#609 = DIRECTION ( 'NONE',  ( -0.8977067596650017967, -0.4396377067716645271, -0.02900448993370162432 ) ) ;
#610 = OBJECT_ROLE ('mandatory',$ ) ;
#611 = APPLIED_DOCUMENT_REFERENCE ( #156,'',( #523) ) ;
#612 = APPLICATION_PROTOCOL_DEFINITION ( 'draft international standard', 'automotive_design', 1998, #455 ) ;
#613 = PROPERTY_DEFINITION ('document property','', #599 ) ;
#614 = AXIS2_PLACEMENT_3D ( 'NONE', #440, #257, #201 ) ;
#615 = ROLE_ASSOCIATION ( #325, #611 ) ;
#616 = DIRECTION ( 'NONE',  ( 0.000000000000000000, 0.000000000000000000, 1.000000000000000000 ) ) ;
#617 =( REPRESENTATION_RELATIONSHIP ('NONE','NONE', #58, #294 ) REPRESENTATION_RELATIONSHIP_WITH_TRANSFORMATION ( #644 )SHAPE_REPRESENTATION_RELATIONSHIP( ) );
#618 = CARTESIAN_POINT ( 'NONE',  ( 0.000000000000000000, 0.000000000000000000, 0.000000000000000000 ) ) ;
#619 = APPLIED_DOCUMENT_REFERENCE ( #218,'',( #523) ) ;
#620 = PRODUCT_DEFINITION_SHAPE ( 'NONE', 'NONE',  #144 ) ;
#621 = CARTESIAN_POINT ( 'NONE',  ( 0.000000000000000000, 0.000000000000000000, 0.000000000000000000 ) ) ;
#622 = PROPERTY_DEFINITION_REPRESENTATION ( #193, #559 ) ;
#623 = PRODUCT_CONTEXT ( 'NONE', #455, 'mechanical' ) ;
#624 = IDENTIFICATION_ROLE ( 'external document id and location', $) ;
#625 = PRODUCT_DEFINITION_SHAPE ( 'NONE', 'NONE',  #640 ) ;
#626 = AXIS2_PLACEMENT_3D ( 'NONE', #374, #315, #598 ) ;
#627 = PROPERTY_DEFINITION_REPRESENTATION ( #23, #85 ) ;
#628 = IDENTIFICATION_ROLE ( 'external document id and location', $) ;
#629 = DIRECTION ( 'NONE',  ( -0.02058111271645274992, 0.1076015920697431100, -0.9939810436740778021 ) ) ;
#630 = EXTERNAL_SOURCE (IDENTIFIER('') ) ;
#631 = APPLIED_DOCUMENT_REFERENCE ( #587,'',( #186) ) ;
#632 = ROLE_ASSOCIATION ( #428, #16 ) ;
#633 = PROPERTY_DEFINITION ('external definition','', #340 ) ;
#634 =( REPRESENTATION_RELATIONSHIP ('NONE','NONE', #58, #63 ) REPRESENTATION_RELATIONSHIP_WITH_TRANSFORMATION ( #189 )SHAPE_REPRESENTATION_RELATIONSHIP( ) );
#635 = PROPERTY_DEFINITION ('document property','', #156 ) ;
#636 =( REPRESENTATION_RELATIONSHIP ('NONE','NONE', #58, #63 ) REPRESENTATION_RELATIONSHIP_WITH_TRANSFORMATION ( #306 )SHAPE_REPRESENTATION_RELATIONSHIP( ) );
#637 = CONTEXT_DEPENDENT_SHAPE_REPRESENTATION ( #140, #702 ) ;
#638 = APPLICATION_PROTOCOL_DEFINITION ( 'draft international standard', 'automotive_design', 1998, #606 ) ;
#639 = DIRECTION ( 'NONE',  ( 1.000000000000000000, 0.000000000000000000, 0.000000000000000000 ) ) ;
#640 = PRODUCT_DEFINITION ( 'General', '', #80, #9 ) ;
#641 = PRODUCT_DEFINITION_SHAPE ( 'NONE', 'NONE',  #736 ) ;
#642 = EXTERNAL_SOURCE (IDENTIFIER('') ) ;
#643 = ROLE_ASSOCIATION ( #314, #423 ) ;
#644 = ITEM_DEFINED_TRANSFORMATION ( 'NONE', 'NONE', #485,  #243 ) ;
#645 = DOCUMENT_TYPE ( 'geometry' ) ;
#646 = CARTESIAN_POINT ( 'NONE',  ( 149.9251113478831883, 10.08525544910582283, 306.7856951281628994 ) ) ;
#647 = AXIS2_PLACEMENT_3D ( 'NONE', #141, #656, #708 ) ;
#648 = PRODUCT ( '94180A331_Tapered Heat-Set Inserts for Plastic_94180A331', '94180A331_Tapered Heat-Set Inserts for Plastic_94180A331', '', ( #410 ) ) ;
#649 = PRODUCT_RELATED_PRODUCT_CATEGORY ( 'part', '', ( #719 ) ) ;
#650 = ROLE_ASSOCIATION ( #242, #495 ) ;
#651 = APPLICATION_CONTEXT ( 'automotive_design' ) ;
#652 = DIRECTION ( 'NONE',  ( -0.8955013655878465428, -0.4440779600063051169, -0.02953082570705724622 ) ) ;
#653 = PRODUCT_DEFINITION_SHAPE ( 'NONE', 'NONE',  #742 ) ;
#654 = DOCUMENT_FILE ( '6432K12_Set Screw Shaft Collar_6432K12.STEP' , '', '', #704, '' ,$ ) ;
#655 = CONTEXT_DEPENDENT_SHAPE_REPRESENTATION ( #617, #38 ) ;
#656 = DIRECTION ( 'NONE',  ( 0.02058111271645348198, -0.1076015920697406536, 0.9939810436740779132 ) ) ;
#657 = AXIS2_PLACEMENT_3D ( 'NONE', #39, #29, #271 ) ;
#658 =( NAMED_UNIT ( * ) SI_UNIT ( $, .STERADIAN. ) SOLID_ANGLE_UNIT ( ) );
#659 =( REPRESENTATION_RELATIONSHIP ('NONE','NONE', #58, #559 ) REPRESENTATION_RELATIONSHIP_WITH_TRANSFORMATION ( #553 )SHAPE_REPRESENTATION_RELATIONSHIP( ) );
#660 = PRODUCT_DEFINITION_CONTEXT ( 'detailed design', #676, 'design' ) ;
#661 = DIRECTION ( 'NONE',  ( -0.02058111271645274992, 0.1076015920697431100, -0.9939810436740778021 ) ) ;
#662 = PRODUCT_DEFINITION_SHAPE ( 'NONE', 'NONE',  #383 ) ;
#663 = ROLE_ASSOCIATION ( #24, #42 ) ;
#664 = IDENTIFICATION_ROLE ( 'external document id and location', $) ;
#665 =( NAMED_UNIT ( * ) PLANE_ANGLE_UNIT ( ) SI_UNIT ( $, .RADIAN. ) );
#666 = CONTEXT_DEPENDENT_SHAPE_REPRESENTATION ( #597, #301 ) ;
#667 = SHAPE_DEFINITION_REPRESENTATION ( #148, #58 ) ;
#668 = PRODUCT_DEFINITION_SHAPE ( 'NONE', 'NONE',  #722 ) ;
#669 =( REPRESENTATION_RELATIONSHIP ('NONE','NONE', #58, #559 ) REPRESENTATION_RELATIONSHIP_WITH_TRANSFORMATION ( #425 )SHAPE_REPRESENTATION_RELATIONSHIP( ) );
#670 = AXIS2_PLACEMENT_3D ( 'NONE', #618, #456, #515 ) ;
#671 = PRODUCT_DEFINITION_FORMATION_WITH_SPECIFIED_SOURCE ( 'Symmetric', '', #205, .NOT_KNOWN. ) ;
#672 = PROPERTY_DEFINITION_REPRESENTATION ( #112, #449 ) ;
#673 =( LENGTH_UNIT ( ) NAMED_UNIT ( * ) SI_UNIT ( .MILLI., .METRE. ) );
#674 = PRODUCT_RELATED_PRODUCT_CATEGORY ( 'part', '', ( #648 ) ) ;
#675 = APPLICATION_PROTOCOL_DEFINITION ( 'draft international standard', 'automotive_design', 1998, #248 ) ;
#676 = APPLICATION_CONTEXT ( 'automotive_design' ) ;
#677 = UNCERTAINTY_MEASURE_WITH_UNIT (LENGTH_MEASURE( 1.000000000000000082E-05 ), #247, 'distance_accuracy_value', 'NONE');
#678 = APPLIED_DOCUMENT_REFERENCE ( #331,'',( #523) ) ;
#679 = PRODUCT_DEFINITION_SHAPE ( 'NONE', 'NONE',  #303 ) ;
#680 = DIRECTION ( 'NONE',  ( 0.9296253074934139882, 0.3679309792163848458, 0.02058111271645280543 ) ) ;
#681 = APPLICATION_CONTEXT ( 'automotive_design' ) ;
#682 = PROPERTY_DEFINITION_REPRESENTATION ( #633, #559 ) ;
#683 = SHAPE_DEFINITION_REPRESENTATION ( #662, #294 ) ;
#684 = CARTESIAN_POINT ( 'NONE',  ( 0.000000000000000000, 0.000000000000000000, 0.000000000000000000 ) ) ;
#685 = PRODUCT_DEFINITION_SHAPE ( 'NONE', 'NONE',  #730 ) ;
#686 = UNCERTAINTY_MEASURE_WITH_UNIT (LENGTH_MEASURE( 1.000000000000000082E-05 ), #673, 'distance_accuracy_value', 'NONE');
#687 = PRODUCT_DEFINITION_FORMATION_WITH_SPECIFIED_SOURCE ( 'Symmetric', '', #648, .NOT_KNOWN. ) ;
#688 = SHAPE_DEFINITION_REPRESENTATION ( #47, #63 ) ;
#689 =( REPRESENTATION_RELATIONSHIP ('NONE','NONE', #58, #559 ) REPRESENTATION_RELATIONSHIP_WITH_TRANSFORMATION ( #706 )SHAPE_REPRESENTATION_RELATIONSHIP( ) );
#690 = PROPERTY_DEFINITION_REPRESENTATION ( #596, #449 ) ;
#691 = SHAPE_DEFINITION_REPRESENTATION ( #573, #188 ) ;
#692 = PRODUCT_DEFINITION_SHAPE ( 'NONE', 'NONE',  #735 ) ;
#693 = DOCUMENT_TYPE ( 'geometry' ) ;
#694 = CONTEXT_DEPENDENT_SHAPE_REPRESENTATION ( #430, #653 ) ;
#695 = ROLE_ASSOCIATION ( #219, #472 ) ;
#696 = PROPERTY_DEFINITION ('document property','', #499 ) ;
#697 = ITEM_DEFINED_TRANSFORMATION ( 'NONE', 'NONE', #222,  #253 ) ;
#698 = AXIS2_PLACEMENT_3D ( 'NONE', #81, #404, #390 ) ;
#699 = PROPERTY_DEFINITION_REPRESENTATION ( #33, #449 ) ;
#700 = CONTEXT_DEPENDENT_SHAPE_REPRESENTATION ( #714, #590 ) ;
#701 = EXTERNAL_SOURCE (IDENTIFIER('') ) ;
#702 = PRODUCT_DEFINITION_SHAPE ( 'NONE', 'NONE',  #740 ) ;
#703 = PROPERTY_DEFINITION_REPRESENTATION ( #214, #559 ) ;
#704 = DOCUMENT_TYPE ( 'geometry' ) ;
#705 = DOCUMENT_TYPE ( 'geometry' ) ;
#706 = ITEM_DEFINED_TRANSFORMATION ( 'NONE', 'NONE', #626,  #177 ) ;
#707 = PRODUCT_DEFINITION_SHAPE ( 'NONE', 'NONE',  #741 ) ;
#708 = DIRECTION ( 'NONE',  ( 0.4445826380209302320, -0.8895036047260858059, -0.1054969911876618566 ) ) ;
#709 = APPLIED_EXTERNAL_IDENTIFICATION_ASSIGNMENT ( '94180A331_Tapered Heat-Set Inserts for Plastic_94180A331.STEP' , #583, #500,( #373) ) ;
#710 = APPLIED_EXTERNAL_IDENTIFICATION_ASSIGNMENT ( '91290A121_Alloy Steel Socket Head Screw_91290A121.STEP' , #482, #579,( #460) ) ;
#711 = DOCUMENT_TYPE ( 'geometry' ) ;
#712 = APPLIED_DOCUMENT_REFERENCE ( #654,'',( #640) ) ;
#713 = CARTESIAN_POINT ( 'NONE',  ( 135.2952484729275113, 45.40462847914206179, 219.5531659707573340 ) ) ;
#714 =( REPRESENTATION_RELATIONSHIP ('NONE','NONE', #58, #378 ) REPRESENTATION_RELATIONSHIP_WITH_TRANSFORMATION ( #246 )SHAPE_REPRESENTATION_RELATIONSHIP( ) );
#715 = PROPERTY_DEFINITION_REPRESENTATION ( #181, #63 ) ;
#716 = DIRECTION ( 'NONE',  ( 0.000000000000000000, 0.000000000000000000, 1.000000000000000000 ) ) ;
#717 = PROPERTY_DEFINITION_REPRESENTATION ( #220, #559 ) ;
#718 = DOCUMENT_TYPE ( 'geometry' ) ;
#719 = PRODUCT ( 'spool_subassembly', 'spool_subassembly', '', ( #401 ) ) ;
#720 = CONTEXT_DEPENDENT_SHAPE_REPRESENTATION ( #298, #359 ) ;
#721 = NEXT_ASSEMBLY_USAGE_OCCURRENCE ( 'NAUO12', ' ', ' ', #170, #330, $ ) ;
#722 = NEXT_ASSEMBLY_USAGE_OCCURRENCE ( 'NAUO13', ' ', ' ', #170, #523, $ ) ;
#723 = NEXT_ASSEMBLY_USAGE_OCCURRENCE ( 'NAUO14', ' ', ' ', #170, #303, $ ) ;
#724 = NEXT_ASSEMBLY_USAGE_OCCURRENCE ( 'NAUO15', ' ', ' ', #170, #70, $ ) ;
#725 = NEXT_ASSEMBLY_USAGE_OCCURRENCE ( 'NAUO16', ' ', ' ', #170, #270, $ ) ;
#726 = NEXT_ASSEMBLY_USAGE_OCCURRENCE ( 'NAUO17', ' ', ' ', #170, #70, $ ) ;
#727 = NEXT_ASSEMBLY_USAGE_OCCURRENCE ( 'NAUO18', ' ', ' ', #170, #640, $ ) ;
#728 = NEXT_ASSEMBLY_USAGE_OCCURRENCE ( 'NAUO19', ' ', ' ', #170, #383, $ ) ;
#729 = NEXT_ASSEMBLY_USAGE_OCCURRENCE ( 'NAUO20', ' ', ' ', #170, #330, $ ) ;
#730 = NEXT_ASSEMBLY_USAGE_OCCURRENCE ( 'NAUO21', ' ', ' ', #170, #523, $ ) ;
#731 = NEXT_ASSEMBLY_USAGE_OCCURRENCE ( 'NAUO22', ' ', ' ', #170, #523, $ ) ;
#732 = NEXT_ASSEMBLY_USAGE_OCCURRENCE ( 'NAUO23', ' ', ' ', #170, #186, $ ) ;
#733 = NEXT_ASSEMBLY_USAGE_OCCURRENCE ( 'NAUO24', ' ', ' ', #170, #186, $ ) ;
#734 = NEXT_ASSEMBLY_USAGE_OCCURRENCE ( 'NAUO25', ' ', ' ', #170, #523, $ ) ;
#735 = NEXT_ASSEMBLY_USAGE_OCCURRENCE ( 'NAUO26', ' ', ' ', #170, #523, $ ) ;
#736 = NEXT_ASSEMBLY_USAGE_OCCURRENCE ( 'NAUO27', ' ', ' ', #170, #523, $ ) ;
#737 = NEXT_ASSEMBLY_USAGE_OCCURRENCE ( 'NAUO28', ' ', ' ', #170, #523, $ ) ;
#738 = NEXT_ASSEMBLY_USAGE_OCCURRENCE ( 'NAUO29', ' ', ' ', #170, #186, $ ) ;
#739 = NEXT_ASSEMBLY_USAGE_OCCURRENCE ( 'NAUO30', ' ', ' ', #170, #523, $ ) ;
#740 = NEXT_ASSEMBLY_USAGE_OCCURRENCE ( 'NAUO31', ' ', ' ', #170, #186, $ ) ;
#741 = NEXT_ASSEMBLY_USAGE_OCCURRENCE ( 'NAUO32', ' ', ' ', #170, #186, $ ) ;
#742 = NEXT_ASSEMBLY_USAGE_OCCURRENCE ( 'NAUO33', ' ', ' ', #170, #186, $ ) ;
#743 = NEXT_ASSEMBLY_USAGE_OCCURRENCE ( 'NAUO34', ' ', ' ', #170, #186, $ ) ;
#744 = NEXT_ASSEMBLY_USAGE_OCCURRENCE ( 'NAUO35', ' ', ' ', #170, #144, $ ) ;
#745 = NEXT_ASSEMBLY_USAGE_OCCURRENCE ( 'NAUO36', ' ', ' ', #170, #186, $ ) ;
ENDSEC;
END-ISO-10303-21;
