ISO-10303-21;
HEADER;
FILE_DESCRIPTION (( 'STEP AP214' ),
    '1' );
FILE_NAME ('SpoolGuideLarge.STEP',
    '2026-09-04T22:01:24',
    ( '' ),
    ( '' ),
    'SwSTEP 2.0',
    'SolidWorks 2026',
    '' );
FILE_SCHEMA (( 'AUTOMOTIVE_DESIGN' ));
ENDSEC;

DATA;
#1 = CIRCLE ( 'NONE', #462, 0.08858267716535431213 ) ;
#2 =( NAMED_UNIT ( * ) PLANE_ANGLE_UNIT ( ) SI_UNIT ( $, .RADIAN. ) );
#3 = STYLED_ITEM ( 'NONE', ( #481 ), #31 ) ;
#4 = VECTOR ( 'NONE', #211, 39.37007874015748143 ) ;
#5 = FILL_AREA_STYLE ('',( #345 ) ) ;
#6 = ORIENTED_EDGE ( 'NONE', *, *, #530, .T. ) ;
#7 = DIRECTION ( 'NONE',  ( 1.000000000000000000, 0.000000000000000000, 0.000000000000000000 ) ) ;
#8 = DIRECTION ( 'NONE',  ( -1.000000000000000000, 0.000000000000000000, 0.000000000000000000 ) ) ;
#9 = ORIENTED_EDGE ( 'NONE', *, *, #86, .F. ) ;
#10 = COLOUR_RGB ( '',0.8588235294117646523, 0.8588235294117646523, 0.8588235294117646523 ) ;
#11 = PRESENTATION_LAYER_ASSIGNMENT (  '', '', ( #304 ) ) ;
#12 = CIRCLE ( 'NONE', #240, 0.08858267716535427050 ) ;
#13 = ORIENTED_EDGE ( 'NONE', *, *, #416, .T. ) ;
#14 = CARTESIAN_POINT ( 'NONE',  ( -0.08858267716535403458, 1.124999999999999556, 0.2500000000000000000 ) ) ;
#15 = ORIENTED_EDGE ( 'NONE', *, *, #194, .F. ) ;
#16 = DIRECTION ( 'NONE',  ( 0.000000000000000000, 0.000000000000000000, 1.000000000000000000 ) ) ;
#17 = CYLINDRICAL_SURFACE ( 'NONE', #50, 0.08858267716535427050 ) ;
#18 =( LENGTH_UNIT ( ) NAMED_UNIT ( * ) SI_UNIT ( $, .METRE. ) );
#19 = EDGE_LOOP ( 'NONE', ( #235, #91, #297, #361 ) ) ;
#20 = DIRECTION ( 'NONE',  ( 1.000000000000000000, 0.000000000000000000, -0.000000000000000000 ) ) ;
#21 =( GEOMETRIC_REPRESENTATION_CONTEXT ( 3 ) GLOBAL_UNCERTAINTY_ASSIGNED_CONTEXT ( ( #767 ) ) GLOBAL_UNIT_ASSIGNED_CONTEXT ( ( #119, #491, #680 ) ) REPRESENTATION_CONTEXT ( 'NONE', 'WORKASPACE' ) );
#22 = SURFACE_SIDE_STYLE ('',( #309 ) ) ;
#23 = STYLED_ITEM ( 'NONE', ( #618 ), #109 ) ;
#24 = AXIS2_PLACEMENT_3D ( 'NONE', #305, #192, #542 ) ;
#25 = ORIENTED_EDGE ( 'NONE', *, *, #771, .F. ) ;
#26 = DIRECTION ( 'NONE',  ( -1.000000000000000000, 0.000000000000000000, 0.000000000000000000 ) ) ;
#27 = DIRECTION ( 'NONE',  ( 0.000000000000000000, 0.000000000000000000, 1.000000000000000000 ) ) ;
#28 = CYLINDRICAL_SURFACE ( 'NONE', #335, 0.08858267716535431213 ) ;
#29 = VERTEX_POINT ( 'NONE', #233 ) ;
#30 = DIRECTION ( 'NONE',  ( 1.000000000000000000, 0.000000000000000000, 0.000000000000000000 ) ) ;
#31 = ADVANCED_FACE ( 'NONE', ( #156 ), #121, .T. ) ;
#32 = PRESENTATION_STYLE_ASSIGNMENT (( #327 ) ) ;
#33 =( LENGTH_UNIT ( ) NAMED_UNIT ( * ) SI_UNIT ( $, .METRE. ) );
#34 = VERTEX_POINT ( 'NONE', #339 ) ;
#35 = SURFACE_STYLE_USAGE ( .BOTH. , #41 ) ;
#36 = AXIS2_PLACEMENT_3D ( 'NONE', #522, #137, #398 ) ;
#37 = STYLED_ITEM ( 'NONE', ( #32 ), #360 ) ;
#38 = CARTESIAN_POINT ( 'NONE',  ( 0.000000000000000000, 0.000000000000000000, 0.000000000000000000 ) ) ;
#39 = CARTESIAN_POINT ( 'NONE',  ( 0.000000000000000000, 0.000000000000000000, 0.2500000000000000000 ) ) ;
#40 = CARTESIAN_POINT ( 'NONE',  ( -1.124999999999999778, -2.731847993664263218E-16, 0.000000000000000000 ) ) ;
#41 = SURFACE_SIDE_STYLE ('',( #633 ) ) ;
#42 = EDGE_CURVE ( 'NONE', #59, #544, #599, .T. ) ;
#43 = DIRECTION ( 'NONE',  ( -1.000000000000000000, 0.000000000000000000, 0.000000000000000000 ) ) ;
#44 =( NAMED_UNIT ( * ) PLANE_ANGLE_UNIT ( ) SI_UNIT ( $, .RADIAN. ) );
#45 = CARTESIAN_POINT ( 'NONE',  ( 1.125000000000000222, 2.360730441728178273E-18, 0.000000000000000000 ) ) ;
#46 = VECTOR ( 'NONE', #768, 39.37007874015748143 ) ;
#47 = COLOUR_RGB ( '',0.8588235294117646523, 0.8588235294117646523, 0.8588235294117646523 ) ;
#48 = FILL_AREA_STYLE_COLOUR ( '', #47 ) ;
#49 = DIMENSIONAL_EXPONENTS ( 1.000000000000000000, 0.000000000000000000, 0.000000000000000000, 0.000000000000000000, 0.000000000000000000, 0.000000000000000000, 0.000000000000000000 ) ;
#50 = AXIS2_PLACEMENT_3D ( 'NONE', #201, #322, #635 ) ;
#51 =( NAMED_UNIT ( * ) PLANE_ANGLE_UNIT ( ) SI_UNIT ( $, .RADIAN. ) );
#52 =( NAMED_UNIT ( * ) PLANE_ANGLE_UNIT ( ) SI_UNIT ( $, .RADIAN. ) );
#53 = ADVANCED_FACE ( 'NONE', ( #756 ), #706, .F. ) ;
#54 = DIRECTION ( 'NONE',  ( 1.000000000000000000, 0.000000000000000000, 0.000000000000000000 ) ) ;
#55 =( NAMED_UNIT ( * ) PLANE_ANGLE_UNIT ( ) SI_UNIT ( $, .RADIAN. ) );
#56 = DIRECTION ( 'NONE',  ( 1.000000000000000000, 0.000000000000000000, 0.000000000000000000 ) ) ;
#57 = DIMENSIONAL_EXPONENTS ( 1.000000000000000000, 0.000000000000000000, 0.000000000000000000, 0.000000000000000000, 0.000000000000000000, 0.000000000000000000, 0.000000000000000000 ) ;
#58 = AXIS2_PLACEMENT_3D ( 'NONE', #140, #135, #386 ) ;
#59 = VERTEX_POINT ( 'NONE', #485 ) ;
#60 = AXIS2_PLACEMENT_3D ( 'NONE', #560, #731, #125 ) ;
#61 = CIRCLE ( 'NONE', #24, 0.08858267716535431213 ) ;
#62 = CARTESIAN_POINT ( 'NONE',  ( 2.731847993664263218E-16, 1.124999999999999556, 0.2500000000000000000 ) ) ;
#63 = DIRECTION ( 'NONE',  ( -1.000000000000000000, 0.000000000000000000, 0.000000000000000000 ) ) ;
#64 = DIRECTION ( 'NONE',  ( 0.000000000000000000, 0.000000000000000000, 1.000000000000000000 ) ) ;
#65 = FACE_BOUND ( 'NONE', #726, .T. ) ;
#66 = FILL_AREA_STYLE ('',( #77 ) ) ;
#67 = VERTEX_POINT ( 'NONE', #671 ) ;
#68 = LINE ( 'NONE', #14, #356 ) ;
#69 = PRODUCT_RELATED_PRODUCT_CATEGORY ( 'part', '', ( #501 ) ) ;
#70 = AXIS2_PLACEMENT_3D ( 'NONE', #279, #179, #7 ) ;
#71 = MECHANICAL_DESIGN_GEOMETRIC_PRESENTATION_REPRESENTATION (  '', ( #23 ), #590 ) ;
#72 = LENGTH_MEASURE_WITH_UNIT ( LENGTH_MEASURE( 0.02539999999999999897 ), #667 );
#73 = FACE_OUTER_BOUND ( 'NONE', #329, .T. ) ;
#74 = ORIENTED_EDGE ( 'NONE', *, *, #241, .T. ) ;
#75 =( LENGTH_UNIT ( ) NAMED_UNIT ( * ) SI_UNIT ( $, .METRE. ) );
#76 = DIRECTION ( 'NONE',  ( 1.000000000000000000, 0.000000000000000000, 0.000000000000000000 ) ) ;
#77 = FILL_AREA_STYLE_COLOUR ( '', #301 ) ;
#78 = ORIENTED_EDGE ( 'NONE', *, *, #168, .T. ) ;
#79 =( NAMED_UNIT ( * ) SI_UNIT ( $, .STERADIAN. ) SOLID_ANGLE_UNIT ( ) );
#80 = CARTESIAN_POINT ( 'NONE',  ( -1.124999999999999778, -2.731847993664263218E-16, 0.2500000000000000000 ) ) ;
#81 = ORIENTED_EDGE ( 'NONE', *, *, #416, .F. ) ;
#82 = CARTESIAN_POINT ( 'NONE',  ( -0.08858267716535403458, -1.125000000000000444, 0.000000000000000000 ) ) ;
#83 = DIRECTION ( 'NONE',  ( 1.000000000000000000, 0.000000000000000000, 0.000000000000000000 ) ) ;
#84 = PRESENTATION_STYLE_ASSIGNMENT (( #35 ) ) ;
#85 = PRESENTATION_LAYER_ASSIGNMENT (  '', '', ( #23 ) ) ;
#86 = EDGE_CURVE ( 'NONE', #587, #650, #526, .T. ) ;
#87 = EDGE_LOOP ( 'NONE', ( #247, #336 ) ) ;
#88 = CARTESIAN_POINT ( 'NONE',  ( 0.08858267716535457581, 1.124999999999999556, 0.2500000000000000000 ) ) ;
#89 =( NAMED_UNIT ( * ) PLANE_ANGLE_UNIT ( ) SI_UNIT ( $, .RADIAN. ) );
#90 = AXIS2_PLACEMENT_3D ( 'NONE', #593, #659, #160 ) ;
#91 = ORIENTED_EDGE ( 'NONE', *, *, #116, .T. ) ;
#92 =( LENGTH_UNIT ( ) NAMED_UNIT ( * ) SI_UNIT ( $, .METRE. ) );
#93 = FACE_OUTER_BOUND ( 'NONE', #624, .T. ) ;
#94 = DIRECTION ( 'NONE',  ( 1.000000000000000000, 0.000000000000000000, 0.000000000000000000 ) ) ;
#95 = ORIENTED_EDGE ( 'NONE', *, *, #187, .F. ) ;
#96 =( CONVERSION_BASED_UNIT ( 'INCH', #503 ) LENGTH_UNIT ( ) NAMED_UNIT ( #379 ) );
#97 = ADVANCED_FACE ( 'NONE', ( #242 ), #557, .F. ) ;
#98 = CARTESIAN_POINT ( 'NONE',  ( 0.000000000000000000, 0.000000000000000000, 0.000000000000000000 ) ) ;
#99 =( GEOMETRIC_REPRESENTATION_CONTEXT ( 3 ) GLOBAL_UNCERTAINTY_ASSIGNED_CONTEXT ( ( #533 ) ) GLOBAL_UNIT_ASSIGNED_CONTEXT ( ( #531, #2, #230 ) ) REPRESENTATION_CONTEXT ( 'NONE', 'WORKASPACE' ) );
#100 = MECHANICAL_DESIGN_GEOMETRIC_PRESENTATION_REPRESENTATION (  '', ( #750 ), #287 ) ;
#101 = CIRCLE ( 'NONE', #548, 0.08858267716535427050 ) ;
#102 = ORIENTED_EDGE ( 'NONE', *, *, #681, .T. ) ;
#103 = CARTESIAN_POINT ( 'NONE',  ( 2.731847993664263218E-16, 1.124999999999999556, 0.000000000000000000 ) ) ;
#104 =( CONVERSION_BASED_UNIT ( 'INCH', #400 ) LENGTH_UNIT ( ) NAMED_UNIT ( #106 ) );
#105 = VERTEX_POINT ( 'NONE', #129 ) ;
#106 = DIMENSIONAL_EXPONENTS ( 1.000000000000000000, 0.000000000000000000, 0.000000000000000000, 0.000000000000000000, 0.000000000000000000, 0.000000000000000000, 0.000000000000000000 ) ;
#107 = LENGTH_MEASURE_WITH_UNIT ( LENGTH_MEASURE( 0.02539999999999999897 ), #285 );
#108 = CIRCLE ( 'NONE', #58, 0.6250000000000000000 ) ;
#109 = ADVANCED_FACE ( 'NONE', ( #73 ), #490, .F. ) ;
#110 = CARTESIAN_POINT ( 'NONE',  ( -4.849999999999999645, 0.000000000000000000, 0.000000000000000000 ) ) ;
#111 = FACE_OUTER_BOUND ( 'NONE', #169, .T. ) ;
#112 = FILL_AREA_STYLE_COLOUR ( '', #577 ) ;
#113 =( GEOMETRIC_REPRESENTATION_CONTEXT ( 3 ) GLOBAL_UNCERTAINTY_ASSIGNED_CONTEXT ( ( #655 ) ) GLOBAL_UNIT_ASSIGNED_CONTEXT ( ( #620, #311, #745 ) ) REPRESENTATION_CONTEXT ( 'NONE', 'WORKASPACE' ) );
#114 = ORIENTED_EDGE ( 'NONE', *, *, #695, .T. ) ;
#115 = LINE ( 'NONE', #652, #714 ) ;
#116 = EDGE_CURVE ( 'NONE', #744, #105, #265, .T. ) ;
#117 = EDGE_LOOP ( 'NONE', ( #498, #741 ) ) ;
#118 = CIRCLE ( 'NONE', #317, 4.849999999999999645 ) ;
#119 =( CONVERSION_BASED_UNIT ( 'INCH', #307 ) LENGTH_UNIT ( ) NAMED_UNIT ( #623 ) );
#120 = MECHANICAL_DESIGN_GEOMETRIC_PRESENTATION_REPRESENTATION (  '', ( #464 ), #180 ) ;
#121 = CYLINDRICAL_SURFACE ( 'NONE', #432, 4.849999999999999645 ) ;
#122 = DIRECTION ( 'NONE',  ( 1.000000000000000000, 0.000000000000000000, 0.000000000000000000 ) ) ;
#123 = ORIENTED_EDGE ( 'NONE', *, *, #282, .F. ) ;
#124 = CARTESIAN_POINT ( 'NONE',  ( 0.6250000000000000000, 7.654042494670957853E-17, 0.000000000000000000 ) ) ;
#125 = DIRECTION ( 'NONE',  ( -1.000000000000000000, 0.000000000000000000, 0.000000000000000000 ) ) ;
#126 = EDGE_CURVE ( 'NONE', #683, #145, #165, .T. ) ;
#127 = CIRCLE ( 'NONE', #431, 0.08858267716535431213 ) ;
#128 = DIRECTION ( 'NONE',  ( 0.000000000000000000, 0.000000000000000000, 1.000000000000000000 ) ) ;
#129 = CARTESIAN_POINT ( 'NONE',  ( 0.08858267716535457581, 1.124999999999999556, 0.000000000000000000 ) ) ;
#130 = ORIENTED_EDGE ( 'NONE', *, *, #428, .F. ) ;
#131 = FACE_OUTER_BOUND ( 'NONE', #390, .T. ) ;
#132 = CARTESIAN_POINT ( 'NONE',  ( 2.731847993664263218E-16, 1.124999999999999556, 0.2500000000000000000 ) ) ;
#133 = ORIENTED_EDGE ( 'NONE', *, *, #747, .F. ) ;
#134 = FILL_AREA_STYLE_COLOUR ( '', #595 ) ;
#135 = DIRECTION ( 'NONE',  ( 0.000000000000000000, 0.000000000000000000, 1.000000000000000000 ) ) ;
#136 = ADVANCED_FACE ( 'NONE', ( #323 ), #319, .F. ) ;
#137 = DIRECTION ( 'NONE',  ( -0.000000000000000000, -0.000000000000000000, -1.000000000000000000 ) ) ;
#138 = ORIENTED_EDGE ( 'NONE', *, *, #389, .T. ) ;
#139 = DIRECTION ( 'NONE',  ( -0.000000000000000000, -0.000000000000000000, -1.000000000000000000 ) ) ;
#140 = CARTESIAN_POINT ( 'NONE',  ( 0.000000000000000000, 0.000000000000000000, 0.2500000000000000000 ) ) ;
#141 = CIRCLE ( 'NONE', #546, 0.08858267716535431213 ) ;
#142 = MECHANICAL_DESIGN_GEOMETRIC_PRESENTATION_REPRESENTATION (  '', ( #37 ), #592 ) ;
#143 = ORIENTED_EDGE ( 'NONE', *, *, #672, .T. ) ;
#144 = SURFACE_STYLE_USAGE ( .BOTH. , #631 ) ;
#145 = VERTEX_POINT ( 'NONE', #582 ) ;
#146 = AXIS2_PLACEMENT_3D ( 'NONE', #457, #698, #30 ) ;
#147 = UNCERTAINTY_MEASURE_WITH_UNIT (LENGTH_MEASURE( 1.000000000000000082E-05 ), #583, 'distance_accuracy_value', 'NONE');
#148 =( NAMED_UNIT ( * ) SI_UNIT ( $, .STERADIAN. ) SOLID_ANGLE_UNIT ( ) );
#149 =( CONVERSION_BASED_UNIT ( 'INCH', #647 ) LENGTH_UNIT ( ) NAMED_UNIT ( #642 ) );
#150 = DIRECTION ( 'NONE',  ( -0.000000000000000000, -0.000000000000000000, -1.000000000000000000 ) ) ;
#151 = CIRCLE ( 'NONE', #644, 0.6250000000000000000 ) ;
#152 =( GEOMETRIC_REPRESENTATION_CONTEXT ( 3 ) GLOBAL_UNCERTAINTY_ASSIGNED_CONTEXT ( ( #699 ) ) GLOBAL_UNIT_ASSIGNED_CONTEXT ( ( #174, #219, #600 ) ) REPRESENTATION_CONTEXT ( 'NONE', 'WORKASPACE' ) );
#153 =( GEOMETRIC_REPRESENTATION_CONTEXT ( 3 ) GLOBAL_UNCERTAINTY_ASSIGNED_CONTEXT ( ( #216 ) ) GLOBAL_UNIT_ASSIGNED_CONTEXT ( ( #709, #55, #224 ) ) REPRESENTATION_CONTEXT ( 'NONE', 'WORKASPACE' ) );
#154 = CARTESIAN_POINT ( 'NONE',  ( 0.000000000000000000, 0.000000000000000000, 0.2500000000000000000 ) ) ;
#155 = CARTESIAN_POINT ( 'NONE',  ( -1.124999999999999778, -2.731847993664263218E-16, 0.2500000000000000000 ) ) ;
#156 = FACE_OUTER_BOUND ( 'NONE', #203, .T. ) ;
#157 = CARTESIAN_POINT ( 'NONE',  ( 0.08858267716535457581, -1.125000000000000444, 0.2500000000000000000 ) ) ;
#158 = EDGE_CURVE ( 'NONE', #650, #734, #636, .T. ) ;
#159 = DIRECTION ( 'NONE',  ( -1.000000000000000000, 0.000000000000000000, 0.000000000000000000 ) ) ;
#160 = DIRECTION ( 'NONE',  ( 1.000000000000000000, 0.000000000000000000, 0.000000000000000000 ) ) ;
#161 = UNCERTAINTY_MEASURE_WITH_UNIT (LENGTH_MEASURE( 1.000000000000000082E-05 ), #621, 'distance_accuracy_value', 'NONE');
#162 = CARTESIAN_POINT ( 'NONE',  ( 0.000000000000000000, 0.000000000000000000, 0.000000000000000000 ) ) ;
#163 = SURFACE_STYLE_USAGE ( .BOTH. , #662 ) ;
#164 = STYLED_ITEM ( 'NONE', ( #616 ), #733 ) ;
#165 = CIRCLE ( 'NONE', #562, 0.08858267716535427050 ) ;
#166 = DIMENSIONAL_EXPONENTS ( 1.000000000000000000, 0.000000000000000000, 0.000000000000000000, 0.000000000000000000, 0.000000000000000000, 0.000000000000000000, 0.000000000000000000 ) ;
#167 = DIRECTION ( 'NONE',  ( 0.000000000000000000, 0.000000000000000000, 1.000000000000000000 ) ) ;
#168 = EDGE_CURVE ( 'NONE', #451, #441, #613, .T. ) ;
#169 = EDGE_LOOP ( 'NONE', ( #475, #619, #114, #392 ) ) ;
#170 = CARTESIAN_POINT ( 'NONE',  ( -0.08858267716535403458, 1.124999999999999556, 0.000000000000000000 ) ) ;
#171 =( LENGTH_UNIT ( ) NAMED_UNIT ( * ) SI_UNIT ( $, .METRE. ) );
#172 =( NAMED_UNIT ( * ) SI_UNIT ( $, .STERADIAN. ) SOLID_ANGLE_UNIT ( ) );
#173 = PRESENTATION_STYLE_ASSIGNMENT (( #559 ) ) ;
#174 =( CONVERSION_BASED_UNIT ( 'INCH', #456 ) LENGTH_UNIT ( ) NAMED_UNIT ( #396 ) );
#175 = AXIS2_PLACEMENT_3D ( 'NONE', #576, #261, #625 ) ;
#176 = PRESENTATION_LAYER_ASSIGNMENT (  '', '', ( #237 ) ) ;
#177 = UNCERTAINTY_MEASURE_WITH_UNIT (LENGTH_MEASURE( 1.000000000000000082E-05 ), #314, 'distance_accuracy_value', 'NONE');
#178 = ORIENTED_EDGE ( 'NONE', *, *, #42, .F. ) ;
#179 = DIRECTION ( 'NONE',  ( 0.000000000000000000, 0.000000000000000000, 1.000000000000000000 ) ) ;
#180 =( GEOMETRIC_REPRESENTATION_CONTEXT ( 3 ) GLOBAL_UNCERTAINTY_ASSIGNED_CONTEXT ( ( #209 ) ) GLOBAL_UNIT_ASSIGNED_CONTEXT ( ( #632, #89, #742 ) ) REPRESENTATION_CONTEXT ( 'NONE', 'WORKASPACE' ) );
#181 = CIRCLE ( 'NONE', #239, 0.08858267716535427050 ) ;
#182 = FILL_AREA_STYLE_COLOUR ( '', #420 ) ;
#183 = ORIENTED_EDGE ( 'NONE', *, *, #471, .T. ) ;
#184 = FILL_AREA_STYLE_COLOUR ( '', #760 ) ;
#185 = PLANE ( 'NONE',  #266 ) ;
#186 =( NAMED_UNIT ( * ) SI_UNIT ( $, .STERADIAN. ) SOLID_ANGLE_UNIT ( ) );
#187 = EDGE_CURVE ( 'NONE', #34, #549, #228, .T. ) ;
#188 = DIRECTION ( 'NONE',  ( 1.000000000000000000, 0.000000000000000000, 0.000000000000000000 ) ) ;
#189 = DIRECTION ( 'NONE',  ( 1.000000000000000000, 0.000000000000000000, 0.000000000000000000 ) ) ;
#190 = ORIENTED_EDGE ( 'NONE', *, *, #158, .F. ) ;
#191 = AXIS2_PLACEMENT_3D ( 'NONE', #341, #594, #54 ) ;
#192 = DIRECTION ( 'NONE',  ( 0.000000000000000000, 0.000000000000000000, 1.000000000000000000 ) ) ;
#193 = ORIENTED_EDGE ( 'NONE', *, *, #42, .T. ) ;
#194 = EDGE_CURVE ( 'NONE', #34, #751, #748, .T. ) ;
#195 = PLANE ( 'NONE',  #348 ) ;
#196 = VERTEX_POINT ( 'NONE', #202 ) ;
#197 = FILL_AREA_STYLE ('',( #134 ) ) ;
#198 =( LENGTH_UNIT ( ) NAMED_UNIT ( * ) SI_UNIT ( $, .METRE. ) );
#199 = FILL_AREA_STYLE ('',( #743 ) ) ;
#200 = EDGE_LOOP ( 'NONE', ( #13, #260 ) ) ;
#201 = CARTESIAN_POINT ( 'NONE',  ( -1.124999999999999778, -2.731847993664263218E-16, 0.2500000000000000000 ) ) ;
#202 = CARTESIAN_POINT ( 'NONE',  ( 1.213582677165354395, 1.320897964677362766E-17, 0.2500000000000000000 ) ) ;
#203 = EDGE_LOOP ( 'NONE', ( #516, #710, #193, #231 ) ) ;
#204 = FILL_AREA_STYLE_COLOUR ( '', #10 ) ;
#205 = DIMENSIONAL_EXPONENTS ( 1.000000000000000000, 0.000000000000000000, 0.000000000000000000, 0.000000000000000000, 0.000000000000000000, 0.000000000000000000, 0.000000000000000000 ) ;
#206 = CARTESIAN_POINT ( 'NONE',  ( 0.08858267716535457581, 1.124999999999999556, 0.2500000000000000000 ) ) ;
#207 = PRESENTATION_STYLE_ASSIGNMENT (( #753 ) ) ;
#208 = AXIS2_PLACEMENT_3D ( 'NONE', #638, #139, #26 ) ;
#209 = UNCERTAINTY_MEASURE_WITH_UNIT (LENGTH_MEASURE( 1.000000000000000082E-05 ), #632, 'distance_accuracy_value', 'NONE');
#210 = FILL_AREA_STYLE ('',( #754 ) ) ;
#211 = DIRECTION ( 'NONE',  ( -0.000000000000000000, -0.000000000000000000, -1.000000000000000000 ) ) ;
#212 = CARTESIAN_POINT ( 'NONE',  ( 1.125000000000000222, 2.360730441728178273E-18, 0.2500000000000000000 ) ) ;
#213 = DIRECTION ( 'NONE',  ( 1.000000000000000000, 0.000000000000000000, 0.000000000000000000 ) ) ;
#214 = COLOUR_RGB ( '',0.8588235294117646523, 0.8588235294117646523, 0.8588235294117646523 ) ;
#215 =( NAMED_UNIT ( * ) SI_UNIT ( $, .STERADIAN. ) SOLID_ANGLE_UNIT ( ) );
#216 = UNCERTAINTY_MEASURE_WITH_UNIT (LENGTH_MEASURE( 1.000000000000000082E-05 ), #709, 'distance_accuracy_value', 'NONE');
#217 = EDGE_CURVE ( 'NONE', #67, #196, #101, .T. ) ;
#218 = DIRECTION ( 'NONE',  ( -0.000000000000000000, -0.000000000000000000, -1.000000000000000000 ) ) ;
#219 =( NAMED_UNIT ( * ) PLANE_ANGLE_UNIT ( ) SI_UNIT ( $, .RADIAN. ) );
#220 =( CONVERSION_BASED_UNIT ( 'INCH', #270 ) LENGTH_UNIT ( ) NAMED_UNIT ( #57 ) );
#221 = CARTESIAN_POINT ( 'NONE',  ( -1.036417322834645605, -2.623365501613808440E-16, 0.000000000000000000 ) ) ;
#222 = PRESENTATION_STYLE_ASSIGNMENT (( #283 ) ) ;
#223 =( LENGTH_UNIT ( ) NAMED_UNIT ( * ) SI_UNIT ( $, .METRE. ) );
#224 =( NAMED_UNIT ( * ) SI_UNIT ( $, .STERADIAN. ) SOLID_ANGLE_UNIT ( ) );
#225 = EDGE_CURVE ( 'NONE', #482, #105, #347, .T. ) ;
#226 = CIRCLE ( 'NONE', #191, 4.849999999999999645 ) ;
#227 = CLOSED_SHELL ( 'NONE', ( #733, #136, #97, #251, #53, #31, #296, #360, #264, #109, #272, #326, #639, #755 ) ) ;
#228 = CIRCLE ( 'NONE', #658, 0.6250000000000000000 ) ;
#229 = ORIENTED_EDGE ( 'NONE', *, *, #338, .T. ) ;
#230 =( NAMED_UNIT ( * ) SI_UNIT ( $, .STERADIAN. ) SOLID_ANGLE_UNIT ( ) );
#231 = ORIENTED_EDGE ( 'NONE', *, *, #504, .F. ) ;
#232 =( CONVERSION_BASED_UNIT ( 'INCH', #298 ) LENGTH_UNIT ( ) NAMED_UNIT ( #555 ) );
#233 = CARTESIAN_POINT ( 'NONE',  ( 0.08858267716535457581, -1.125000000000000444, 0.000000000000000000 ) ) ;
#234 = DIMENSIONAL_EXPONENTS ( 1.000000000000000000, 0.000000000000000000, 0.000000000000000000, 0.000000000000000000, 0.000000000000000000, 0.000000000000000000, 0.000000000000000000 ) ;
#235 = ORIENTED_EDGE ( 'NONE', *, *, #443, .T. ) ;
#236 = PRESENTATION_STYLE_ASSIGNMENT (( #737 ) ) ;
#237 = STYLED_ITEM ( 'NONE', ( #84 ), #136 ) ;
#238 = ORIENTED_EDGE ( 'NONE', *, *, #241, .F. ) ;
#239 = AXIS2_PLACEMENT_3D ( 'NONE', #363, #128, #76 ) ;
#240 = AXIS2_PLACEMENT_3D ( 'NONE', #40, #27, #268 ) ;
#241 = EDGE_CURVE ( 'NONE', #549, #679, #450, .T. ) ;
#242 = FACE_OUTER_BOUND ( 'NONE', #691, .T. ) ;
#243 = APPLICATION_CONTEXT ( 'automotive_design' ) ;
#244 = DIRECTION ( 'NONE',  ( -0.000000000000000000, -0.000000000000000000, -1.000000000000000000 ) ) ;
#245 =( NAMED_UNIT ( * ) PLANE_ANGLE_UNIT ( ) SI_UNIT ( $, .RADIAN. ) );
#246 = STYLED_ITEM ( 'NONE', ( #707 ), #273 ) ;
#247 = ORIENTED_EDGE ( 'NONE', *, *, #126, .F. ) ;
#248 = DIRECTION ( 'NONE',  ( 0.000000000000000000, 0.000000000000000000, 1.000000000000000000 ) ) ;
#249 = SURFACE_SIDE_STYLE ('',( #378 ) ) ;
#250 = FILL_AREA_STYLE_COLOUR ( '', #357 ) ;
#251 = ADVANCED_FACE ( 'NONE', ( #627 ), #28, .F. ) ;
#252 = ORIENTED_EDGE ( 'NONE', *, *, #660, .T. ) ;
#253 = AXIS2_PLACEMENT_3D ( 'NONE', #155, #648, #404 ) ;
#254 = PRESENTATION_LAYER_ASSIGNMENT (  '', '', ( #406 ) ) ;
#255 = ORIENTED_EDGE ( 'NONE', *, *, #338, .F. ) ;
#256 = CARTESIAN_POINT ( 'NONE',  ( 2.731847993664263218E-16, 1.124999999999999556, 0.2500000000000000000 ) ) ;
#257 = DIRECTION ( 'NONE',  ( 0.000000000000000000, 0.000000000000000000, 1.000000000000000000 ) ) ;
#258 = ORIENTED_EDGE ( 'NONE', *, *, #428, .T. ) ;
#259 = DIRECTION ( 'NONE',  ( 0.000000000000000000, 0.000000000000000000, 1.000000000000000000 ) ) ;
#260 = ORIENTED_EDGE ( 'NONE', *, *, #713, .T. ) ;
#261 = DIRECTION ( 'NONE',  ( -0.000000000000000000, -0.000000000000000000, -1.000000000000000000 ) ) ;
#262 = DIRECTION ( 'NONE',  ( 1.000000000000000000, 0.000000000000000000, -0.000000000000000000 ) ) ;
#263 = STYLED_ITEM ( 'NONE', ( #661 ), #639 ) ;
#264 = ADVANCED_FACE ( 'NONE', ( #532 ), #535, .T. ) ;
#265 = LINE ( 'NONE', #206, #370 ) ;
#266 = AXIS2_PLACEMENT_3D ( 'NONE', #313, #480, #20 ) ;
#267 = DIRECTION ( 'NONE',  ( 0.000000000000000000, 0.000000000000000000, 1.000000000000000000 ) ) ;
#268 = DIRECTION ( 'NONE',  ( 1.000000000000000000, 0.000000000000000000, 0.000000000000000000 ) ) ;
#269 = DIRECTION ( 'NONE',  ( 1.000000000000000000, 0.000000000000000000, 0.000000000000000000 ) ) ;
#270 = LENGTH_MEASURE_WITH_UNIT ( LENGTH_MEASURE( 0.02539999999999999897 ), #223 );
#271 = DIRECTION ( 'NONE',  ( 0.000000000000000000, 0.000000000000000000, 1.000000000000000000 ) ) ;
#272 = ADVANCED_FACE ( 'NONE', ( #111 ), #412, .F. ) ;
#273 = ADVANCED_BREP_SHAPE_REPRESENTATION ( 'SpoolGuideLarge', ( #721, #90 ), #455 ) ;
#274 = DIRECTION ( 'NONE',  ( 1.000000000000000000, 0.000000000000000000, 0.000000000000000000 ) ) ;
#275 = CIRCLE ( 'NONE', #666, 0.08858267716535431213 ) ;
#276 = COLOUR_RGB ( '',0.8588235294117646523, 0.8588235294117646523, 0.8588235294117646523 ) ;
#277 = SURFACE_STYLE_USAGE ( .BOTH. , #292 ) ;
#278 = UNCERTAINTY_MEASURE_WITH_UNIT (LENGTH_MEASURE( 1.000000000000000082E-05 ), #712, 'distance_accuracy_value', 'NONE');
#279 = CARTESIAN_POINT ( 'NONE',  ( 1.125000000000000222, 2.360730441728178273E-18, 0.000000000000000000 ) ) ;
#280 = DIRECTION ( 'NONE',  ( -0.000000000000000000, -0.000000000000000000, -1.000000000000000000 ) ) ;
#281 = SURFACE_STYLE_FILL_AREA ( #401 ) ;
#282 = EDGE_CURVE ( 'NONE', #650, #587, #61, .T. ) ;
#283 = SURFACE_STYLE_USAGE ( .BOTH. , #694 ) ;
#284 = DIRECTION ( 'NONE',  ( 0.000000000000000000, 0.000000000000000000, 1.000000000000000000 ) ) ;
#285 =( LENGTH_UNIT ( ) NAMED_UNIT ( * ) SI_UNIT ( $, .METRE. ) );
#286 = VECTOR ( 'NONE', #711, 39.37007874015748143 ) ;
#287 =( GEOMETRIC_REPRESENTATION_CONTEXT ( 3 ) GLOBAL_UNCERTAINTY_ASSIGNED_CONTEXT ( ( #147 ) ) GLOBAL_UNIT_ASSIGNED_CONTEXT ( ( #583, #44, #215 ) ) REPRESENTATION_CONTEXT ( 'NONE', 'WORKASPACE' ) );
#288 = PRESENTATION_LAYER_ASSIGNMENT (  '', '', ( #448 ) ) ;
#289 = ORIENTED_EDGE ( 'NONE', *, *, #713, .F. ) ;
#290 =( LENGTH_UNIT ( ) NAMED_UNIT ( * ) SI_UNIT ( $, .METRE. ) );
#291 = DIRECTION ( 'NONE',  ( -1.000000000000000000, 0.000000000000000000, 0.000000000000000000 ) ) ;
#292 = SURFACE_SIDE_STYLE ('',( #580 ) ) ;
#293 =( GEOMETRIC_REPRESENTATION_CONTEXT ( 3 ) GLOBAL_UNCERTAINTY_ASSIGNED_CONTEXT ( ( #393 ) ) GLOBAL_UNIT_ASSIGNED_CONTEXT ( ( #220, #52, #653 ) ) REPRESENTATION_CONTEXT ( 'NONE', 'WORKASPACE' ) );
#294 = ORIENTED_EDGE ( 'NONE', *, *, #724, .T. ) ;
#295 = SURFACE_STYLE_USAGE ( .BOTH. , #372 ) ;
#296 = ADVANCED_FACE ( 'NONE', ( #65, #728, #299, #427, #495, #720 ), #185, .T. ) ;
#297 = ORIENTED_EDGE ( 'NONE', *, *, #225, .F. ) ;
#298 = LENGTH_MEASURE_WITH_UNIT ( LENGTH_MEASURE( 0.02539999999999999897 ), #290 );
#299 = FACE_OUTER_BOUND ( 'NONE', #493, .T. ) ;
#300 = AXIS2_PLACEMENT_3D ( 'NONE', #39, #447, #684 ) ;
#301 = COLOUR_RGB ( '',0.8588235294117646523, 0.8588235294117646523, 0.8588235294117646523 ) ;
#302 = ORIENTED_EDGE ( 'NONE', *, *, #504, .T. ) ;
#303 = DIRECTION ( 'NONE',  ( -0.000000000000000000, -0.000000000000000000, -1.000000000000000000 ) ) ;
#304 = STYLED_ITEM ( 'NONE', ( #717 ), #264 ) ;
#305 = CARTESIAN_POINT ( 'NONE',  ( 2.731847993664263218E-16, -1.125000000000000444, 0.2500000000000000000 ) ) ;
#306 = EDGE_LOOP ( 'NONE', ( #438, #673, #630, #324 ) ) ;
#307 = LENGTH_MEASURE_WITH_UNIT ( LENGTH_MEASURE( 0.02539999999999999897 ), #75 );
#308 = EDGE_CURVE ( 'NONE', #196, #67, #181, .T. ) ;
#309 = SURFACE_STYLE_FILL_AREA ( #66 ) ;
#310 = VERTEX_POINT ( 'NONE', #736 ) ;
#311 =( NAMED_UNIT ( * ) PLANE_ANGLE_UNIT ( ) SI_UNIT ( $, .RADIAN. ) );
#312 = DIMENSIONAL_EXPONENTS ( 1.000000000000000000, 0.000000000000000000, 0.000000000000000000, 0.000000000000000000, 0.000000000000000000, 0.000000000000000000, 0.000000000000000000 ) ;
#313 = CARTESIAN_POINT ( 'NONE',  ( 0.000000000000000000, 0.000000000000000000, 0.2500000000000000000 ) ) ;
#314 =( CONVERSION_BASED_UNIT ( 'INCH', #622 ) LENGTH_UNIT ( ) NAMED_UNIT ( #515 ) );
#315 = ORIENTED_EDGE ( 'NONE', *, *, #747, .T. ) ;
#316 = FILL_AREA_STYLE ('',( #204 ) ) ;
#317 = AXIS2_PLACEMENT_3D ( 'NONE', #727, #16, #188 ) ;
#318 = MECHANICAL_DESIGN_GEOMETRIC_PRESENTATION_REPRESENTATION (  '', ( #406 ), #703 ) ;
#319 = CYLINDRICAL_SURFACE ( 'NONE', #36, 0.08858267716535427050 ) ;
#320 = ORIENTED_EDGE ( 'NONE', *, *, #217, .F. ) ;
#321 =( LENGTH_UNIT ( ) NAMED_UNIT ( * ) SI_UNIT ( $, .METRE. ) );
#322 = DIRECTION ( 'NONE',  ( -0.000000000000000000, -0.000000000000000000, -1.000000000000000000 ) ) ;
#323 = FACE_OUTER_BOUND ( 'NONE', #306, .T. ) ;
#324 = ORIENTED_EDGE ( 'NONE', *, *, #530, .F. ) ;
#325 = CARTESIAN_POINT ( 'NONE',  ( -0.6250000000000000000, 0.000000000000000000, 0.000000000000000000 ) ) ;
#326 = ADVANCED_FACE ( 'NONE', ( #556 ), #17, .F. ) ;
#327 = SURFACE_STYLE_USAGE ( .BOTH. , #570 ) ;
#328 = CARTESIAN_POINT ( 'NONE',  ( -0.08858267716535403458, -1.125000000000000444, 0.2500000000000000000 ) ) ;
#329 = EDGE_LOOP ( 'NONE', ( #238, #258, #597, #25 ) ) ;
#330 = PRODUCT_DEFINITION_CONTEXT ( 'detailed design', #352, 'design' ) ;
#331 = LINE ( 'NONE', #578, #488 ) ;
#332 = CIRCLE ( 'NONE', #70, 0.08858267716535427050 ) ;
#333 = AXIS2_PLACEMENT_3D ( 'NONE', #38, #267, #520 ) ;
#334 = DIRECTION ( 'NONE',  ( -0.000000000000000000, -0.000000000000000000, -1.000000000000000000 ) ) ;
#335 = AXIS2_PLACEMENT_3D ( 'NONE', #62, #280, #527 ) ;
#336 = ORIENTED_EDGE ( 'NONE', *, *, #649, .F. ) ;
#337 =( NAMED_UNIT ( * ) SI_UNIT ( $, .STERADIAN. ) SOLID_ANGLE_UNIT ( ) );
#338 = EDGE_CURVE ( 'NONE', #683, #441, #641, .T. ) ;
#339 = CARTESIAN_POINT ( 'NONE',  ( -0.6250000000000000000, 0.000000000000000000, 0.2500000000000000000 ) ) ;
#340 = PRODUCT_CONTEXT ( 'NONE', #243, 'mechanical' ) ;
#341 = CARTESIAN_POINT ( 'NONE',  ( 0.000000000000000000, 0.000000000000000000, 0.2500000000000000000 ) ) ;
#342 = LENGTH_MEASURE_WITH_UNIT ( LENGTH_MEASURE( 0.02539999999999999897 ), #171 );
#343 = ORIENTED_EDGE ( 'NONE', *, *, #609, .F. ) ;
#344 = AXIS2_PLACEMENT_3D ( 'NONE', #212, #461, #704 ) ;
#345 = FILL_AREA_STYLE_COLOUR ( '', #276 ) ;
#346 =( GEOMETRIC_REPRESENTATION_CONTEXT ( 3 ) GLOBAL_UNCERTAINTY_ASSIGNED_CONTEXT ( ( #524 ) ) GLOBAL_UNIT_ASSIGNED_CONTEXT ( ( #149, #643, #337 ) ) REPRESENTATION_CONTEXT ( 'NONE', 'WORKASPACE' ) );
#347 = CIRCLE ( 'NONE', #565, 0.08858267716535431213 ) ;
#348 = AXIS2_PLACEMENT_3D ( 'NONE', #98, #700, #262 ) ;
#349 = CARTESIAN_POINT ( 'NONE',  ( 1.036417322834645827, 2.360730441728178273E-18, 0.2500000000000000000 ) ) ;
#350 = LINE ( 'NONE', #536, #496 ) ;
#351 = CIRCLE ( 'NONE', #146, 0.6250000000000000000 ) ;
#352 = APPLICATION_CONTEXT ( 'automotive_design' ) ;
#353 = LINE ( 'NONE', #476, #46 ) ;
#354 = PRESENTATION_STYLE_ASSIGNMENT (( #765 ) ) ;
#355 = FILL_AREA_STYLE ('',( #665 ) ) ;
#356 = VECTOR ( 'NONE', #303, 39.37007874015748143 ) ;
#357 = COLOUR_RGB ( '',0.8588235294117646523, 0.8588235294117646523, 0.8588235294117646523 ) ;
#358 =( GEOMETRIC_REPRESENTATION_CONTEXT ( 3 ) GLOBAL_UNCERTAINTY_ASSIGNED_CONTEXT ( ( #161 ) ) GLOBAL_UNIT_ASSIGNED_CONTEXT ( ( #621, #676, #617 ) ) REPRESENTATION_CONTEXT ( 'NONE', 'WORKASPACE' ) );
#359 = SURFACE_STYLE_FILL_AREA ( #730 ) ;
#360 = ADVANCED_FACE ( 'NONE', ( #93, #514, #746, #505, #508, #626 ), #195, .F. ) ;
#361 = ORIENTED_EDGE ( 'NONE', *, *, #695, .F. ) ;
#362 = CYLINDRICAL_SURFACE ( 'NONE', #175, 0.08858267716535431213 ) ;
#363 = CARTESIAN_POINT ( 'NONE',  ( 1.125000000000000222, 2.360730441728178273E-18, 0.2500000000000000000 ) ) ;
#364 = CARTESIAN_POINT ( 'NONE',  ( 2.731847993664263218E-16, -1.125000000000000444, 0.2500000000000000000 ) ) ;
#365 = DIMENSIONAL_EXPONENTS ( 1.000000000000000000, 0.000000000000000000, 0.000000000000000000, 0.000000000000000000, 0.000000000000000000, 0.000000000000000000, 0.000000000000000000 ) ;
#366 = VERTEX_POINT ( 'NONE', #740 ) ;
#367 = DIRECTION ( 'NONE',  ( -0.000000000000000000, -0.000000000000000000, -1.000000000000000000 ) ) ;
#368 = LENGTH_MEASURE_WITH_UNIT ( LENGTH_MEASURE( 0.02539999999999999897 ), #18 );
#369 = MECHANICAL_DESIGN_GEOMETRIC_PRESENTATION_REPRESENTATION (  '', ( #263 ), #99 ) ;
#370 = VECTOR ( 'NONE', #150, 39.37007874015748143 ) ;
#371 = EDGE_LOOP ( 'NONE', ( #421, #78 ) ) ;
#372 = SURFACE_SIDE_STYLE ('',( #723 ) ) ;
#373 = MECHANICAL_DESIGN_GEOMETRIC_PRESENTATION_REPRESENTATION (  '', ( #678 ), #358 ) ;
#374 =( NAMED_UNIT ( * ) SI_UNIT ( $, .STERADIAN. ) SOLID_ANGLE_UNIT ( ) );
#375 = SURFACE_STYLE_FILL_AREA ( #440 ) ;
#376 = ORIENTED_EDGE ( 'NONE', *, *, #443, .F. ) ;
#377 =( NAMED_UNIT ( * ) PLANE_ANGLE_UNIT ( ) SI_UNIT ( $, .RADIAN. ) );
#378 = SURFACE_STYLE_FILL_AREA ( #670 ) ;
#379 = DIMENSIONAL_EXPONENTS ( 1.000000000000000000, 0.000000000000000000, 0.000000000000000000, 0.000000000000000000, 0.000000000000000000, 0.000000000000000000, 0.000000000000000000 ) ;
#380 = ORIENTED_EDGE ( 'NONE', *, *, #168, .F. ) ;
#381 = CARTESIAN_POINT ( 'NONE',  ( -1.213582677165354173, -2.731847993664263218E-16, 0.000000000000000000 ) ) ;
#382 = DIRECTION ( 'NONE',  ( -0.000000000000000000, -0.000000000000000000, -1.000000000000000000 ) ) ;
#383 = PRESENTATION_LAYER_ASSIGNMENT (  '', '', ( #749 ) ) ;
#384 = ORIENTED_EDGE ( 'NONE', *, *, #187, .T. ) ;
#385 = VECTOR ( 'NONE', #685, 39.37007874015748143 ) ;
#386 = DIRECTION ( 'NONE',  ( 1.000000000000000000, 0.000000000000000000, 0.000000000000000000 ) ) ;
#387 = CIRCLE ( 'NONE', #692, 0.08858267716535431213 ) ;
#388 = DIRECTION ( 'NONE',  ( -0.000000000000000000, -0.000000000000000000, -1.000000000000000000 ) ) ;
#389 = EDGE_CURVE ( 'NONE', #587, #29, #331, .T. ) ;
#390 = EDGE_LOOP ( 'NONE', ( #687, #138, #81, #190 ) ) ;
#391 = CYLINDRICAL_SURFACE ( 'NONE', #208, 0.08858267716535431213 ) ;
#392 = ORIENTED_EDGE ( 'NONE', *, *, #672, .F. ) ;
#393 = UNCERTAINTY_MEASURE_WITH_UNIT (LENGTH_MEASURE( 1.000000000000000082E-05 ), #220, 'distance_accuracy_value', 'NONE');
#394 = PRODUCT_DEFINITION ( 'General', '', #605, #330 ) ;
#395 = STYLED_ITEM ( 'NONE', ( #434 ), #721 ) ;
#396 = DIMENSIONAL_EXPONENTS ( 1.000000000000000000, 0.000000000000000000, 0.000000000000000000, 0.000000000000000000, 0.000000000000000000, 0.000000000000000000, 0.000000000000000000 ) ;
#397 = PRESENTATION_LAYER_ASSIGNMENT (  '', '', ( #3 ) ) ;
#398 = DIRECTION ( 'NONE',  ( -1.000000000000000000, 0.000000000000000000, 0.000000000000000000 ) ) ;
#399 = FILL_AREA_STYLE_COLOUR ( '', #588 ) ;
#400 = LENGTH_MEASURE_WITH_UNIT ( LENGTH_MEASURE( 0.02539999999999999897 ), #705 );
#401 = FILL_AREA_STYLE ('',( #399 ) ) ;
#402 = SURFACE_STYLE_FILL_AREA ( #5 ) ;
#403 = SURFACE_STYLE_USAGE ( .BOTH. , #529 ) ;
#404 = DIRECTION ( 'NONE',  ( 1.000000000000000000, 0.000000000000000000, 0.000000000000000000 ) ) ;
#405 = MECHANICAL_DESIGN_GEOMETRIC_PRESENTATION_REPRESENTATION (  '', ( #749 ), #113 ) ;
#406 = STYLED_ITEM ( 'NONE', ( #236 ), #97 ) ;
#407 = COLOUR_RGB ( '',0.8588235294117646523, 0.8588235294117646523, 0.8588235294117646523 ) ;
#408 = EDGE_CURVE ( 'NONE', #441, #451, #12, .T. ) ;
#409 = UNCERTAINTY_MEASURE_WITH_UNIT (LENGTH_MEASURE( 1.000000000000000082E-05 ), #232, 'distance_accuracy_value', 'NONE');
#410 = CARTESIAN_POINT ( 'NONE',  ( 1.036417322834645827, 2.360730441728178273E-18, 0.000000000000000000 ) ) ;
#411 = DIMENSIONAL_EXPONENTS ( 1.000000000000000000, 0.000000000000000000, 0.000000000000000000, 0.000000000000000000, 0.000000000000000000, 0.000000000000000000, 0.000000000000000000 ) ;
#412 = CYLINDRICAL_SURFACE ( 'NONE', #614, 0.08858267716535431213 ) ;
#413 = VERTEX_POINT ( 'NONE', #693 ) ;
#414 =( LENGTH_UNIT ( ) NAMED_UNIT ( * ) SI_UNIT ( $, .METRE. ) );
#415 = DIRECTION ( 'NONE',  ( 1.000000000000000000, 0.000000000000000000, 0.000000000000000000 ) ) ;
#416 = EDGE_CURVE ( 'NONE', #734, #29, #387, .T. ) ;
#417 = VECTOR ( 'NONE', #367, 39.37007874015748143 ) ;
#418 = CIRCLE ( 'NONE', #575, 0.08858267716535427050 ) ;
#419 = PRESENTATION_LAYER_ASSIGNMENT (  '', '', ( #750 ) ) ;
#420 = COLOUR_RGB ( '',0.8588235294117646523, 0.8588235294117646523, 0.8588235294117646523 ) ;
#421 = ORIENTED_EDGE ( 'NONE', *, *, #408, .T. ) ;
#422 = SURFACE_STYLE_USAGE ( .BOTH. , #550 ) ;
#423 = LENGTH_MEASURE_WITH_UNIT ( LENGTH_MEASURE( 0.02539999999999999897 ), #484 );
#424 = SURFACE_SIDE_STYLE ('',( #375 ) ) ;
#425 = ORIENTED_EDGE ( 'NONE', *, *, #408, .F. ) ;
#426 = CARTESIAN_POINT ( 'NONE',  ( 2.731847993664263218E-16, 1.124999999999999556, 0.000000000000000000 ) ) ;
#427 = FACE_BOUND ( 'NONE', #465, .T. ) ;
#428 = EDGE_CURVE ( 'NONE', #549, #34, #108, .T. ) ;
#429 = CARTESIAN_POINT ( 'NONE',  ( 2.731847993664263218E-16, -1.125000000000000444, 0.000000000000000000 ) ) ;
#430 =( NAMED_UNIT ( * ) PLANE_ANGLE_UNIT ( ) SI_UNIT ( $, .RADIAN. ) );
#431 = AXIS2_PLACEMENT_3D ( 'NONE', #256, #284, #274 ) ;
#432 = AXIS2_PLACEMENT_3D ( 'NONE', #154, #467, #159 ) ;
#433 = EDGE_LOOP ( 'NONE', ( #634, #510, #229, #380 ) ) ;
#434 = PRESENTATION_STYLE_ASSIGNMENT (( #422 ) ) ;
#435 = AXIS2_PLACEMENT_3D ( 'NONE', #770, #718, #291 ) ;
#436 = FILL_AREA_STYLE_COLOUR ( '', #690 ) ;
#437 =( NAMED_UNIT ( * ) SI_UNIT ( $, .STERADIAN. ) SOLID_ANGLE_UNIT ( ) );
#438 = ORIENTED_EDGE ( 'NONE', *, *, #217, .T. ) ;
#439 = CARTESIAN_POINT ( 'NONE',  ( 2.731847993664263218E-16, -1.125000000000000444, 0.000000000000000000 ) ) ;
#440 = FILL_AREA_STYLE ('',( #250 ) ) ;
#441 = VERTEX_POINT ( 'NONE', #381 ) ;
#442 =( CONVERSION_BASED_UNIT ( 'INCH', #581 ) LENGTH_UNIT ( ) NAMED_UNIT ( #312 ) );
#443 = EDGE_CURVE ( 'NONE', #413, #744, #127, .T. ) ;
#444 = SURFACE_STYLE_FILL_AREA ( #199 ) ;
#445 = MECHANICAL_DESIGN_GEOMETRIC_PRESENTATION_REPRESENTATION (  '', ( #164 ), #523 ) ;
#446 = ORIENTED_EDGE ( 'NONE', *, *, #478, .F. ) ;
#447 = DIRECTION ( 'NONE',  ( 0.000000000000000000, 0.000000000000000000, 1.000000000000000000 ) ) ;
#448 = STYLED_ITEM ( 'NONE', ( #354 ), #272 ) ;
#449 = PRESENTATION_LAYER_ASSIGNMENT (  '', '', ( #37 ) ) ;
#450 = LINE ( 'NONE', #463, #629 ) ;
#451 = VERTEX_POINT ( 'NONE', #221 ) ;
#452 = UNCERTAINTY_MEASURE_WITH_UNIT (LENGTH_MEASURE( 1.000000000000000082E-05 ), #104, 'distance_accuracy_value', 'NONE');
#453 = MECHANICAL_DESIGN_GEOMETRIC_PRESENTATION_REPRESENTATION (  '', ( #246 ), #293 ) ;
#454 = CARTESIAN_POINT ( 'NONE',  ( -1.124999999999999778, -2.731847993664263218E-16, 0.2500000000000000000 ) ) ;
#455 =( GEOMETRIC_REPRESENTATION_CONTEXT ( 3 ) GLOBAL_UNCERTAINTY_ASSIGNED_CONTEXT ( ( #602 ) ) GLOBAL_UNIT_ASSIGNED_CONTEXT ( ( #96, #377, #79 ) ) REPRESENTATION_CONTEXT ( 'NONE', 'WORKASPACE' ) );
#456 = LENGTH_MEASURE_WITH_UNIT ( LENGTH_MEASURE( 0.02539999999999999897 ), #414 );
#457 = CARTESIAN_POINT ( 'NONE',  ( 0.000000000000000000, 0.000000000000000000, 0.000000000000000000 ) ) ;
#458 = CARTESIAN_POINT ( 'NONE',  ( -1.213582677165354173, -2.731847993664263218E-16, 0.2500000000000000000 ) ) ;
#459 = DIMENSIONAL_EXPONENTS ( 1.000000000000000000, 0.000000000000000000, 0.000000000000000000, 0.000000000000000000, 0.000000000000000000, 0.000000000000000000, 0.000000000000000000 ) ;
#460 = SURFACE_STYLE_FILL_AREA ( #355 ) ;
#461 = DIRECTION ( 'NONE',  ( -0.000000000000000000, -0.000000000000000000, -1.000000000000000000 ) ) ;
#462 = AXIS2_PLACEMENT_3D ( 'NONE', #426, #64, #122 ) ;
#463 = CARTESIAN_POINT ( 'NONE',  ( 0.6250000000000000000, 7.654042494670957853E-17, 0.2500000000000000000 ) ) ;
#464 = STYLED_ITEM ( 'NONE', ( #173 ), #326 ) ;
#465 = EDGE_LOOP ( 'NONE', ( #95, #130 ) ) ;
#466 = CARTESIAN_POINT ( 'NONE',  ( 0.6250000000000000000, 7.654042494670957853E-17, 0.2500000000000000000 ) ) ;
#467 = DIRECTION ( 'NONE',  ( -0.000000000000000000, -0.000000000000000000, -1.000000000000000000 ) ) ;
#468 = UNCERTAINTY_MEASURE_WITH_UNIT (LENGTH_MEASURE( 1.000000000000000082E-05 ), #442, 'distance_accuracy_value', 'NONE');
#469 = DIRECTION ( 'NONE',  ( 0.000000000000000000, 0.000000000000000000, 1.000000000000000000 ) ) ;
#470 = DIMENSIONAL_EXPONENTS ( 1.000000000000000000, 0.000000000000000000, 0.000000000000000000, 0.000000000000000000, 0.000000000000000000, 0.000000000000000000, 0.000000000000000000 ) ;
#471 = EDGE_CURVE ( 'NONE', #366, #615, #418, .T. ) ;
#472 = SURFACE_SIDE_STYLE ('',( #281 ) ) ;
#473 =( NAMED_UNIT ( * ) SI_UNIT ( $, .STERADIAN. ) SOLID_ANGLE_UNIT ( ) );
#474 = AXIS2_PLACEMENT_3D ( 'NONE', #579, #574, #506 ) ;
#475 = ORIENTED_EDGE ( 'NONE', *, *, #116, .F. ) ;
#476 = CARTESIAN_POINT ( 'NONE',  ( 4.849999999999999645, 5.939536975864662969E-16, 0.2500000000000000000 ) ) ;
#477 = FILL_AREA_STYLE ('',( #112 ) ) ;
#478 = EDGE_CURVE ( 'NONE', #196, #366, #350, .T. ) ;
#479 = ORIENTED_EDGE ( 'NONE', *, *, #308, .T. ) ;
#480 = DIRECTION ( 'NONE',  ( 0.000000000000000000, 0.000000000000000000, 1.000000000000000000 ) ) ;
#481 = PRESENTATION_STYLE_ASSIGNMENT (( #277 ) ) ;
#482 = VERTEX_POINT ( 'NONE', #170 ) ;
#483 = FILL_AREA_STYLE ('',( #184 ) ) ;
#484 =( LENGTH_UNIT ( ) NAMED_UNIT ( * ) SI_UNIT ( $, .METRE. ) );
#485 = CARTESIAN_POINT ( 'NONE',  ( 4.849999999999999645, 5.939536975864662969E-16, 0.000000000000000000 ) ) ;
#486 = MECHANICAL_DESIGN_GEOMETRIC_PRESENTATION_REPRESENTATION (  '', ( #3 ), #152 ) ;
#487 = COLOUR_RGB ( '',0.8588235294117646523, 0.8588235294117646523, 0.8588235294117646523 ) ;
#488 = VECTOR ( 'NONE', #500, 39.37007874015748143 ) ;
#489 = ORIENTED_EDGE ( 'NONE', *, *, #586, .F. ) ;
#490 = CYLINDRICAL_SURFACE ( 'NONE', #512, 0.6250000000000000000 ) ;
#491 =( NAMED_UNIT ( * ) PLANE_ANGLE_UNIT ( ) SI_UNIT ( $, .RADIAN. ) );
#492 = PRESENTATION_STYLE_ASSIGNMENT (( #612 ) ) ;
#493 = EDGE_LOOP ( 'NONE', ( #315, #729 ) ) ;
#494 = SURFACE_STYLE_FILL_AREA ( #554 ) ;
#495 = FACE_BOUND ( 'NONE', #87, .T. ) ;
#496 = VECTOR ( 'NONE', #764, 39.37007874015748143 ) ;
#497 = AXIS2_PLACEMENT_3D ( 'NONE', #364, #608, #189 ) ;
#498 = ORIENTED_EDGE ( 'NONE', *, *, #538, .T. ) ;
#499 = PRESENTATION_LAYER_ASSIGNMENT (  '', '', ( #678 ) ) ;
#500 = DIRECTION ( 'NONE',  ( -0.000000000000000000, -0.000000000000000000, -1.000000000000000000 ) ) ;
#501 = PRODUCT ( 'SpoolGuideLarge', 'SpoolGuideLarge', '', ( #340 ) ) ;
#502 = ORIENTED_EDGE ( 'NONE', *, *, #158, .T. ) ;
#503 = LENGTH_MEASURE_WITH_UNIT ( LENGTH_MEASURE( 0.02539999999999999897 ), #92 );
#504 = EDGE_CURVE ( 'NONE', #739, #544, #115, .T. ) ;
#505 = FACE_BOUND ( 'NONE', #371, .T. ) ;
#506 = DIRECTION ( 'NONE',  ( 1.000000000000000000, 0.000000000000000000, 0.000000000000000000 ) ) ;
#507 = ORIENTED_EDGE ( 'NONE', *, *, #724, .F. ) ;
#508 = FACE_BOUND ( 'NONE', #637, .T. ) ;
#509 = DIRECTION ( 'NONE',  ( 0.000000000000000000, 0.000000000000000000, 1.000000000000000000 ) ) ;
#510 = ORIENTED_EDGE ( 'NONE', *, *, #649, .T. ) ;
#511 = CARTESIAN_POINT ( 'NONE',  ( -4.849999999999999645, 0.000000000000000000, 0.2500000000000000000 ) ) ;
#512 = AXIS2_PLACEMENT_3D ( 'NONE', #675, #388, #43 ) ;
#513 = MECHANICAL_DESIGN_GEOMETRIC_PRESENTATION_REPRESENTATION (  '', ( #304 ), #153 ) ;
#514 = FACE_BOUND ( 'NONE', #117, .T. ) ;
#515 = DIMENSIONAL_EXPONENTS ( 1.000000000000000000, 0.000000000000000000, 0.000000000000000000, 0.000000000000000000, 0.000000000000000000, 0.000000000000000000, 0.000000000000000000 ) ;
#516 = ORIENTED_EDGE ( 'NONE', *, *, #551, .F. ) ;
#517 = LENGTH_MEASURE_WITH_UNIT ( LENGTH_MEASURE( 0.02539999999999999897 ), #321 );
#518 =( NAMED_UNIT ( * ) PLANE_ANGLE_UNIT ( ) SI_UNIT ( $, .RADIAN. ) );
#519 = CARTESIAN_POINT ( 'NONE',  ( -0.6250000000000000000, 0.000000000000000000, 0.2500000000000000000 ) ) ;
#520 = DIRECTION ( 'NONE',  ( 1.000000000000000000, 0.000000000000000000, 0.000000000000000000 ) ) ;
#521 = CYLINDRICAL_SURFACE ( 'NONE', #344, 0.08858267716535427050 ) ;
#522 = CARTESIAN_POINT ( 'NONE',  ( 1.125000000000000222, 2.360730441728178273E-18, 0.2500000000000000000 ) ) ;
#523 =( GEOMETRIC_REPRESENTATION_CONTEXT ( 3 ) GLOBAL_UNCERTAINTY_ASSIGNED_CONTEXT ( ( #409 ) ) GLOBAL_UNIT_ASSIGNED_CONTEXT ( ( #232, #607, #172 ) ) REPRESENTATION_CONTEXT ( 'NONE', 'WORKASPACE' ) );
#524 = UNCERTAINTY_MEASURE_WITH_UNIT (LENGTH_MEASURE( 1.000000000000000082E-05 ), #149, 'distance_accuracy_value', 'NONE');
#525 = DIRECTION ( 'NONE',  ( 0.000000000000000000, 0.000000000000000000, 1.000000000000000000 ) ) ;
#526 = CIRCLE ( 'NONE', #497, 0.08858267716535431213 ) ;
#527 = DIRECTION ( 'NONE',  ( -1.000000000000000000, 0.000000000000000000, 0.000000000000000000 ) ) ;
#528 = STYLED_ITEM ( 'NONE', ( #222 ), #251 ) ;
#529 = SURFACE_SIDE_STYLE ('',( #688 ) ) ;
#530 = EDGE_CURVE ( 'NONE', #67, #615, #585, .T. ) ;
#531 =( CONVERSION_BASED_UNIT ( 'INCH', #715 ) LENGTH_UNIT ( ) NAMED_UNIT ( #234 ) );
#532 = FACE_OUTER_BOUND ( 'NONE', #553, .T. ) ;
#533 = UNCERTAINTY_MEASURE_WITH_UNIT (LENGTH_MEASURE( 1.000000000000000082E-05 ), #531, 'distance_accuracy_value', 'NONE');
#534 = SURFACE_STYLE_USAGE ( .BOTH. , #472 ) ;
#535 = CYLINDRICAL_SURFACE ( 'NONE', #435, 4.849999999999999645 ) ;
#536 = CARTESIAN_POINT ( 'NONE',  ( 1.213582677165354395, 1.320897964677362458E-17, 0.2500000000000000000 ) ) ;
#537 = COLOUR_RGB ( '',0.8588235294117646523, 0.8588235294117646523, 0.8588235294117646523 ) ;
#538 = EDGE_CURVE ( 'NONE', #751, #679, #151, .T. ) ;
#539 = SURFACE_SIDE_STYLE ('',( #664 ) ) ;
#540 = SURFACE_SIDE_STYLE ('',( #460 ) ) ;
#541 = EDGE_LOOP ( 'NONE', ( #572, #143 ) ) ;
#542 = DIRECTION ( 'NONE',  ( 1.000000000000000000, 0.000000000000000000, 0.000000000000000000 ) ) ;
#543 =( CONVERSION_BASED_UNIT ( 'INCH', #368 ) LENGTH_UNIT ( ) NAMED_UNIT ( #205 ) );
#544 = VERTEX_POINT ( 'NONE', #110 ) ;
#545 = SURFACE_SIDE_STYLE ('',( #359 ) ) ;
#546 = AXIS2_PLACEMENT_3D ( 'NONE', #708, #167, #596 ) ;
#547 = AXIS2_PLACEMENT_3D ( 'NONE', #80, #677, #63 ) ;
#548 = AXIS2_PLACEMENT_3D ( 'NONE', #701, #567, #758 ) ;
#549 = VERTEX_POINT ( 'NONE', #466 ) ;
#550 = SURFACE_SIDE_STYLE ('',( #494 ) ) ;
#551 = EDGE_CURVE ( 'NONE', #310, #739, #226, .T. ) ;
#552 =( NAMED_UNIT ( * ) PLANE_ANGLE_UNIT ( ) SI_UNIT ( $, .RADIAN. ) );
#553 = EDGE_LOOP ( 'NONE', ( #343, #133, #302, #294 ) ) ;
#554 = FILL_AREA_STYLE ('',( #604 ) ) ;
#555 = DIMENSIONAL_EXPONENTS ( 1.000000000000000000, 0.000000000000000000, 0.000000000000000000, 0.000000000000000000, 0.000000000000000000, 0.000000000000000000, 0.000000000000000000 ) ;
#556 = FACE_OUTER_BOUND ( 'NONE', #433, .T. ) ;
#557 = CYLINDRICAL_SURFACE ( 'NONE', #547, 0.08858267716535427050 ) ;
#558 = EDGE_LOOP ( 'NONE', ( #603, #606, #502, #289 ) ) ;
#559 = SURFACE_STYLE_USAGE ( .BOTH. , #249 ) ;
#560 = CARTESIAN_POINT ( 'NONE',  ( 0.000000000000000000, 0.000000000000000000, 0.2500000000000000000 ) ) ;
#561 = CIRCLE ( 'NONE', #253, 0.08858267716535427050 ) ;
#562 = AXIS2_PLACEMENT_3D ( 'NONE', #454, #257, #269 ) ;
#563 = EDGE_LOOP ( 'NONE', ( #384, #74, #696, #15 ) ) ;
#564 = PRESENTATION_STYLE_ASSIGNMENT (( #144 ) ) ;
#565 = AXIS2_PLACEMENT_3D ( 'NONE', #103, #271, #213 ) ;
#566 = SURFACE_STYLE_FILL_AREA ( #210 ) ;
#567 = DIRECTION ( 'NONE',  ( 0.000000000000000000, 0.000000000000000000, 1.000000000000000000 ) ) ;
#568 = EDGE_LOOP ( 'NONE', ( #446, #479, #6, #610 ) ) ;
#569 = PRESENTATION_LAYER_ASSIGNMENT (  '', '', ( #246 ) ) ;
#570 = SURFACE_SIDE_STYLE ('',( #566 ) ) ;
#571 = CARTESIAN_POINT ( 'NONE',  ( 0.000000000000000000, 0.000000000000000000, 0.2500000000000000000 ) ) ;
#572 = ORIENTED_EDGE ( 'NONE', *, *, #225, .T. ) ;
#573 = SURFACE_STYLE_FILL_AREA ( #316 ) ;
#574 = DIRECTION ( 'NONE',  ( 0.000000000000000000, 0.000000000000000000, 1.000000000000000000 ) ) ;
#575 = AXIS2_PLACEMENT_3D ( 'NONE', #45, #525, #656 ) ;
#576 = CARTESIAN_POINT ( 'NONE',  ( 2.731847993664263218E-16, -1.125000000000000444, 0.2500000000000000000 ) ) ;
#577 = COLOUR_RGB ( '',0.8588235294117646523, 0.8588235294117646523, 0.8588235294117646523 ) ;
#578 = CARTESIAN_POINT ( 'NONE',  ( 0.08858267716535457581, -1.125000000000000444, 0.2500000000000000000 ) ) ;
#579 = CARTESIAN_POINT ( 'NONE',  ( -1.124999999999999778, -2.731847993664263218E-16, 0.000000000000000000 ) ) ;
#580 = SURFACE_STYLE_FILL_AREA ( #766 ) ;
#581 = LENGTH_MEASURE_WITH_UNIT ( LENGTH_MEASURE( 0.02539999999999999897 ), #198 );
#582 = CARTESIAN_POINT ( 'NONE',  ( -1.036417322834645605, -2.623365501613808440E-16, 0.2500000000000000000 ) ) ;
#583 =( CONVERSION_BASED_UNIT ( 'INCH', #645 ) LENGTH_UNIT ( ) NAMED_UNIT ( #459 ) );
#584 = APPLICATION_PROTOCOL_DEFINITION ( 'draft international standard', 'automotive_design', 1998, #243 ) ;
#585 = LINE ( 'NONE', #349, #286 ) ;
#586 = EDGE_CURVE ( 'NONE', #744, #413, #141, .T. ) ;
#587 = VERTEX_POINT ( 'NONE', #157 ) ;
#588 = COLOUR_RGB ( '',0.8588235294117646523, 0.8588235294117646523, 0.8588235294117646523 ) ;
#589 = CARTESIAN_POINT ( 'NONE',  ( -0.08858267716535403458, -1.125000000000000444, 0.2500000000000000000 ) ) ;
#590 =( GEOMETRIC_REPRESENTATION_CONTEXT ( 3 ) GLOBAL_UNCERTAINTY_ASSIGNED_CONTEXT ( ( #177 ) ) GLOBAL_UNIT_ASSIGNED_CONTEXT ( ( #314, #245, #186 ) ) REPRESENTATION_CONTEXT ( 'NONE', 'WORKASPACE' ) );
#591 = PRESENTATION_LAYER_ASSIGNMENT (  '', '', ( #528 ) ) ;
#592 =( GEOMETRIC_REPRESENTATION_CONTEXT ( 3 ) GLOBAL_UNCERTAINTY_ASSIGNED_CONTEXT ( ( #468 ) ) GLOBAL_UNIT_ASSIGNED_CONTEXT ( ( #442, #518, #148 ) ) REPRESENTATION_CONTEXT ( 'NONE', 'WORKASPACE' ) );
#593 = CARTESIAN_POINT ( 'NONE',  ( 0.000000000000000000, 0.000000000000000000, 0.000000000000000000 ) ) ;
#594 = DIRECTION ( 'NONE',  ( 0.000000000000000000, 0.000000000000000000, 1.000000000000000000 ) ) ;
#595 = COLOUR_RGB ( '',0.8941176470588234615, 0.8941176470588234615, 0.8941176470588234615 ) ;
#596 = DIRECTION ( 'NONE',  ( 1.000000000000000000, 0.000000000000000000, 0.000000000000000000 ) ) ;
#597 = ORIENTED_EDGE ( 'NONE', *, *, #194, .T. ) ;
#598 = PRESENTATION_LAYER_ASSIGNMENT (  '', '', ( #263 ) ) ;
#599 = CIRCLE ( 'NONE', #333, 4.849999999999999645 ) ;
#600 =( NAMED_UNIT ( * ) SI_UNIT ( $, .STERADIAN. ) SOLID_ANGLE_UNIT ( ) );
#601 =( GEOMETRIC_REPRESENTATION_CONTEXT ( 3 ) GLOBAL_UNCERTAINTY_ASSIGNED_CONTEXT ( ( #278 ) ) GLOBAL_UNIT_ASSIGNED_CONTEXT ( ( #712, #51, #473 ) ) REPRESENTATION_CONTEXT ( 'NONE', 'WORKASPACE' ) );
#602 = UNCERTAINTY_MEASURE_WITH_UNIT (LENGTH_MEASURE( 1.000000000000000082E-05 ), #96, 'distance_accuracy_value', 'NONE');
#603 = ORIENTED_EDGE ( 'NONE', *, *, #389, .F. ) ;
#604 = FILL_AREA_STYLE_COLOUR ( '', #537 ) ;
#605 = PRODUCT_DEFINITION_FORMATION_WITH_SPECIFIED_SOURCE ( 'Symmetric', '', #501, .NOT_KNOWN. ) ;
#606 = ORIENTED_EDGE ( 'NONE', *, *, #86, .T. ) ;
#607 =( NAMED_UNIT ( * ) PLANE_ANGLE_UNIT ( ) SI_UNIT ( $, .RADIAN. ) );
#608 = DIRECTION ( 'NONE',  ( 0.000000000000000000, 0.000000000000000000, 1.000000000000000000 ) ) ;
#609 = EDGE_CURVE ( 'NONE', #310, #59, #353, .T. ) ;
#610 = ORIENTED_EDGE ( 'NONE', *, *, #471, .F. ) ;
#611 = CARTESIAN_POINT ( 'NONE',  ( -1.213582677165354173, -2.731847993664263218E-16, 0.2500000000000000000 ) ) ;
#612 = SURFACE_STYLE_USAGE ( .BOTH. , #545 ) ;
#613 = CIRCLE ( 'NONE', #474, 0.08858267716535427050 ) ;
#614 = AXIS2_PLACEMENT_3D ( 'NONE', #132, #244, #8 ) ;
#615 = VERTEX_POINT ( 'NONE', #410 ) ;
#616 = PRESENTATION_STYLE_ASSIGNMENT (( #295 ) ) ;
#617 =( NAMED_UNIT ( * ) SI_UNIT ( $, .STERADIAN. ) SOLID_ANGLE_UNIT ( ) );
#618 = PRESENTATION_STYLE_ASSIGNMENT (( #686 ) ) ;
#619 = ORIENTED_EDGE ( 'NONE', *, *, #586, .T. ) ;
#620 =( CONVERSION_BASED_UNIT ( 'INCH', #517 ) LENGTH_UNIT ( ) NAMED_UNIT ( #365 ) );
#621 =( CONVERSION_BASED_UNIT ( 'INCH', #423 ) LENGTH_UNIT ( ) NAMED_UNIT ( #470 ) );
#622 = LENGTH_MEASURE_WITH_UNIT ( LENGTH_MEASURE( 0.02539999999999999897 ), #682 );
#623 = DIMENSIONAL_EXPONENTS ( 1.000000000000000000, 0.000000000000000000, 0.000000000000000000, 0.000000000000000000, 0.000000000000000000, 0.000000000000000000, 0.000000000000000000 ) ;
#624 = EDGE_LOOP ( 'NONE', ( #507, #178 ) ) ;
#625 = DIRECTION ( 'NONE',  ( -1.000000000000000000, 0.000000000000000000, 0.000000000000000000 ) ) ;
#626 = FACE_BOUND ( 'NONE', #200, .T. ) ;
#627 = FACE_OUTER_BOUND ( 'NONE', #19, .T. ) ;
#628 = CIRCLE ( 'NONE', #300, 4.849999999999999645 ) ;
#629 = VECTOR ( 'NONE', #382, 39.37007874015748143 ) ;
#630 = ORIENTED_EDGE ( 'NONE', *, *, #660, .F. ) ;
#631 = SURFACE_SIDE_STYLE ('',( #573 ) ) ;
#632 =( CONVERSION_BASED_UNIT ( 'INCH', #72 ) LENGTH_UNIT ( ) NAMED_UNIT ( #411 ) );
#633 = SURFACE_STYLE_FILL_AREA ( #697 ) ;
#634 = ORIENTED_EDGE ( 'NONE', *, *, #681, .F. ) ;
#635 = DIRECTION ( 'NONE',  ( -1.000000000000000000, 0.000000000000000000, 0.000000000000000000 ) ) ;
#636 = LINE ( 'NONE', #328, #657 ) ;
#637 = EDGE_LOOP ( 'NONE', ( #252, #183 ) ) ;
#638 = CARTESIAN_POINT ( 'NONE',  ( 2.731847993664263218E-16, -1.125000000000000444, 0.2500000000000000000 ) ) ;
#639 = ADVANCED_FACE ( 'NONE', ( #757 ), #521, .F. ) ;
#640 = UNCERTAINTY_MEASURE_WITH_UNIT (LENGTH_MEASURE( 1.000000000000000082E-05 ), #543, 'distance_accuracy_value', 'NONE');
#641 = LINE ( 'NONE', #458, #385 ) ;
#642 = DIMENSIONAL_EXPONENTS ( 1.000000000000000000, 0.000000000000000000, 0.000000000000000000, 0.000000000000000000, 0.000000000000000000, 0.000000000000000000, 0.000000000000000000 ) ;
#643 =( NAMED_UNIT ( * ) PLANE_ANGLE_UNIT ( ) SI_UNIT ( $, .RADIAN. ) );
#644 = AXIS2_PLACEMENT_3D ( 'NONE', #162, #469, #56 ) ;
#645 = LENGTH_MEASURE_WITH_UNIT ( LENGTH_MEASURE( 0.02539999999999999897 ), #761 );
#646 = MECHANICAL_DESIGN_GEOMETRIC_PRESENTATION_REPRESENTATION (  '', ( #448 ), #738 ) ;
#647 = LENGTH_MEASURE_WITH_UNIT ( LENGTH_MEASURE( 0.02539999999999999897 ), #33 );
#648 = DIRECTION ( 'NONE',  ( 0.000000000000000000, 0.000000000000000000, 1.000000000000000000 ) ) ;
#649 = EDGE_CURVE ( 'NONE', #145, #683, #561, .T. ) ;
#650 = VERTEX_POINT ( 'NONE', #589 ) ;
#651 = SHAPE_DEFINITION_REPRESENTATION ( #732, #273 ) ;
#652 = CARTESIAN_POINT ( 'NONE',  ( -4.849999999999999645, 0.000000000000000000, 0.2500000000000000000 ) ) ;
#653 =( NAMED_UNIT ( * ) SI_UNIT ( $, .STERADIAN. ) SOLID_ANGLE_UNIT ( ) );
#654 = PRESENTATION_LAYER_ASSIGNMENT (  '', '', ( #395 ) ) ;
#655 = UNCERTAINTY_MEASURE_WITH_UNIT (LENGTH_MEASURE( 1.000000000000000082E-05 ), #620, 'distance_accuracy_value', 'NONE');
#656 = DIRECTION ( 'NONE',  ( 1.000000000000000000, 0.000000000000000000, 0.000000000000000000 ) ) ;
#657 = VECTOR ( 'NONE', #334, 39.37007874015748143 ) ;
#658 = AXIS2_PLACEMENT_3D ( 'NONE', #571, #509, #94 ) ;
#659 = DIRECTION ( 'NONE',  ( 0.000000000000000000, 0.000000000000000000, 1.000000000000000000 ) ) ;
#660 = EDGE_CURVE ( 'NONE', #615, #366, #332, .T. ) ;
#661 = PRESENTATION_STYLE_ASSIGNMENT (( #534 ) ) ;
#662 = SURFACE_SIDE_STYLE ('',( #402 ) ) ;
#663 = ORIENTED_EDGE ( 'NONE', *, *, #126, .T. ) ;
#664 = SURFACE_STYLE_FILL_AREA ( #477 ) ;
#665 = FILL_AREA_STYLE_COLOUR ( '', #763 ) ;
#666 = AXIS2_PLACEMENT_3D ( 'NONE', #429, #248, #415 ) ;
#667 =( LENGTH_UNIT ( ) NAMED_UNIT ( * ) SI_UNIT ( $, .METRE. ) );
#668 = MECHANICAL_DESIGN_GEOMETRIC_PRESENTATION_REPRESENTATION (  '', ( #528 ), #601 ) ;
#669 = EDGE_LOOP ( 'NONE', ( #376, #489 ) ) ;
#670 = FILL_AREA_STYLE ('',( #182 ) ) ;
#671 = CARTESIAN_POINT ( 'NONE',  ( 1.036417322834645827, 2.360730441728178273E-18, 0.2500000000000000000 ) ) ;
#672 = EDGE_CURVE ( 'NONE', #105, #482, #1, .T. ) ;
#673 = ORIENTED_EDGE ( 'NONE', *, *, #478, .T. ) ;
#674 = LINE ( 'NONE', #735, #417 ) ;
#675 = CARTESIAN_POINT ( 'NONE',  ( 0.000000000000000000, 0.000000000000000000, 0.2500000000000000000 ) ) ;
#676 =( NAMED_UNIT ( * ) PLANE_ANGLE_UNIT ( ) SI_UNIT ( $, .RADIAN. ) );
#677 = DIRECTION ( 'NONE',  ( -0.000000000000000000, -0.000000000000000000, -1.000000000000000000 ) ) ;
#678 = STYLED_ITEM ( 'NONE', ( #492 ), #296 ) ;
#679 = VERTEX_POINT ( 'NONE', #124 ) ;
#680 =( NAMED_UNIT ( * ) SI_UNIT ( $, .STERADIAN. ) SOLID_ANGLE_UNIT ( ) );
#681 = EDGE_CURVE ( 'NONE', #145, #451, #674, .T. ) ;
#682 =( LENGTH_UNIT ( ) NAMED_UNIT ( * ) SI_UNIT ( $, .METRE. ) );
#683 = VERTEX_POINT ( 'NONE', #611 ) ;
#684 = DIRECTION ( 'NONE',  ( 1.000000000000000000, 0.000000000000000000, 0.000000000000000000 ) ) ;
#685 = DIRECTION ( 'NONE',  ( -0.000000000000000000, -0.000000000000000000, -1.000000000000000000 ) ) ;
#686 = SURFACE_STYLE_USAGE ( .BOTH. , #424 ) ;
#687 = ORIENTED_EDGE ( 'NONE', *, *, #282, .T. ) ;
#688 = SURFACE_STYLE_FILL_AREA ( #197 ) ;
#689 = FILL_AREA_STYLE_COLOUR ( '', #214 ) ;
#690 = COLOUR_RGB ( '',0.8588235294117646523, 0.8588235294117646523, 0.8588235294117646523 ) ;
#691 = EDGE_LOOP ( 'NONE', ( #663, #102, #425, #255 ) ) ;
#692 = AXIS2_PLACEMENT_3D ( 'NONE', #439, #259, #83 ) ;
#693 = CARTESIAN_POINT ( 'NONE',  ( -0.08858267716535403458, 1.124999999999999556, 0.2500000000000000000 ) ) ;
#694 = SURFACE_SIDE_STYLE ('',( #444 ) ) ;
#695 = EDGE_CURVE ( 'NONE', #413, #482, #68, .T. ) ;
#696 = ORIENTED_EDGE ( 'NONE', *, *, #538, .F. ) ;
#697 = FILL_AREA_STYLE ('',( #689 ) ) ;
#698 = DIRECTION ( 'NONE',  ( 0.000000000000000000, 0.000000000000000000, 1.000000000000000000 ) ) ;
#699 = UNCERTAINTY_MEASURE_WITH_UNIT (LENGTH_MEASURE( 1.000000000000000082E-05 ), #174, 'distance_accuracy_value', 'NONE');
#700 = DIRECTION ( 'NONE',  ( 0.000000000000000000, 0.000000000000000000, 1.000000000000000000 ) ) ;
#701 = CARTESIAN_POINT ( 'NONE',  ( 1.125000000000000222, 2.360730441728178273E-18, 0.2500000000000000000 ) ) ;
#702 = MECHANICAL_DESIGN_GEOMETRIC_PRESENTATION_REPRESENTATION (  '', ( #395 ), #21 ) ;
#703 =( GEOMETRIC_REPRESENTATION_CONTEXT ( 3 ) GLOBAL_UNCERTAINTY_ASSIGNED_CONTEXT ( ( #640 ) ) GLOBAL_UNIT_ASSIGNED_CONTEXT ( ( #543, #430, #437 ) ) REPRESENTATION_CONTEXT ( 'NONE', 'WORKASPACE' ) );
#704 = DIRECTION ( 'NONE',  ( -1.000000000000000000, 0.000000000000000000, 0.000000000000000000 ) ) ;
#705 =( LENGTH_UNIT ( ) NAMED_UNIT ( * ) SI_UNIT ( $, .METRE. ) );
#706 = CYLINDRICAL_SURFACE ( 'NONE', #60, 0.6250000000000000000 ) ;
#707 = PRESENTATION_STYLE_ASSIGNMENT (( #403 ) ) ;
#708 = CARTESIAN_POINT ( 'NONE',  ( 2.731847993664263218E-16, 1.124999999999999556, 0.2500000000000000000 ) ) ;
#709 =( CONVERSION_BASED_UNIT ( 'INCH', #107 ) LENGTH_UNIT ( ) NAMED_UNIT ( #49 ) );
#710 = ORIENTED_EDGE ( 'NONE', *, *, #609, .T. ) ;
#711 = DIRECTION ( 'NONE',  ( -0.000000000000000000, -0.000000000000000000, -1.000000000000000000 ) ) ;
#712 =( CONVERSION_BASED_UNIT ( 'INCH', #342 ) LENGTH_UNIT ( ) NAMED_UNIT ( #166 ) );
#713 = EDGE_CURVE ( 'NONE', #29, #734, #275, .T. ) ;
#714 = VECTOR ( 'NONE', #218, 39.37007874015748143 ) ;
#715 = LENGTH_MEASURE_WITH_UNIT ( LENGTH_MEASURE( 0.02539999999999999897 ), #769 );
#716 = PRESENTATION_LAYER_ASSIGNMENT (  '', '', ( #464 ) ) ;
#717 = PRESENTATION_STYLE_ASSIGNMENT (( #163 ) ) ;
#718 = DIRECTION ( 'NONE',  ( -0.000000000000000000, -0.000000000000000000, -1.000000000000000000 ) ) ;
#719 = ORIENTED_EDGE ( 'NONE', *, *, #308, .F. ) ;
#720 = FACE_BOUND ( 'NONE', #722, .T. ) ;
#721 = MANIFOLD_SOLID_BREP ( 'Boss-Extrude1', #227 ) ;
#722 = EDGE_LOOP ( 'NONE', ( #123, #9 ) ) ;
#723 = SURFACE_STYLE_FILL_AREA ( #483 ) ;
#724 = EDGE_CURVE ( 'NONE', #544, #59, #118, .T. ) ;
#725 = MECHANICAL_DESIGN_GEOMETRIC_PRESENTATION_REPRESENTATION (  '', ( #237 ), #346 ) ;
#726 = EDGE_LOOP ( 'NONE', ( #320, #719 ) ) ;
#727 = CARTESIAN_POINT ( 'NONE',  ( 0.000000000000000000, 0.000000000000000000, 0.000000000000000000 ) ) ;
#728 = FACE_BOUND ( 'NONE', #669, .T. ) ;
#729 = ORIENTED_EDGE ( 'NONE', *, *, #551, .T. ) ;
#730 = FILL_AREA_STYLE ('',( #436 ) ) ;
#731 = DIRECTION ( 'NONE',  ( -0.000000000000000000, -0.000000000000000000, -1.000000000000000000 ) ) ;
#732 = PRODUCT_DEFINITION_SHAPE ( 'NONE', 'NONE',  #394 ) ;
#733 = ADVANCED_FACE ( 'NONE', ( #131 ), #362, .F. ) ;
#734 = VERTEX_POINT ( 'NONE', #82 ) ;
#735 = CARTESIAN_POINT ( 'NONE',  ( -1.036417322834645605, -2.623365501613808440E-16, 0.2500000000000000000 ) ) ;
#736 = CARTESIAN_POINT ( 'NONE',  ( 4.849999999999999645, 5.939536975864662969E-16, 0.2500000000000000000 ) ) ;
#737 = SURFACE_STYLE_USAGE ( .BOTH. , #22 ) ;
#738 =( GEOMETRIC_REPRESENTATION_CONTEXT ( 3 ) GLOBAL_UNCERTAINTY_ASSIGNED_CONTEXT ( ( #452 ) ) GLOBAL_UNIT_ASSIGNED_CONTEXT ( ( #104, #552, #374 ) ) REPRESENTATION_CONTEXT ( 'NONE', 'WORKASPACE' ) );
#739 = VERTEX_POINT ( 'NONE', #511 ) ;
#740 = CARTESIAN_POINT ( 'NONE',  ( 1.213582677165354395, 1.320897964677362766E-17, 0.000000000000000000 ) ) ;
#741 = ORIENTED_EDGE ( 'NONE', *, *, #771, .T. ) ;
#742 =( NAMED_UNIT ( * ) SI_UNIT ( $, .STERADIAN. ) SOLID_ANGLE_UNIT ( ) );
#743 = FILL_AREA_STYLE_COLOUR ( '', #407 ) ;
#744 = VERTEX_POINT ( 'NONE', #88 ) ;
#745 =( NAMED_UNIT ( * ) SI_UNIT ( $, .STERADIAN. ) SOLID_ANGLE_UNIT ( ) );
#746 = FACE_BOUND ( 'NONE', #541, .T. ) ;
#747 = EDGE_CURVE ( 'NONE', #739, #310, #628, .T. ) ;
#748 = LINE ( 'NONE', #519, #4 ) ;
#749 = STYLED_ITEM ( 'NONE', ( #564 ), #755 ) ;
#750 = STYLED_ITEM ( 'NONE', ( #207 ), #53 ) ;
#751 = VERTEX_POINT ( 'NONE', #325 ) ;
#752 = FACE_OUTER_BOUND ( 'NONE', #558, .T. ) ;
#753 = SURFACE_STYLE_USAGE ( .BOTH. , #540 ) ;
#754 = FILL_AREA_STYLE_COLOUR ( '', #487 ) ;
#755 = ADVANCED_FACE ( 'NONE', ( #752 ), #391, .F. ) ;
#756 = FACE_OUTER_BOUND ( 'NONE', #563, .T. ) ;
#757 = FACE_OUTER_BOUND ( 'NONE', #568, .T. ) ;
#758 = DIRECTION ( 'NONE',  ( 1.000000000000000000, 0.000000000000000000, 0.000000000000000000 ) ) ;
#759 = PRESENTATION_LAYER_ASSIGNMENT (  '', '', ( #164 ) ) ;
#760 = COLOUR_RGB ( '',0.8588235294117646523, 0.8588235294117646523, 0.8588235294117646523 ) ;
#761 =( LENGTH_UNIT ( ) NAMED_UNIT ( * ) SI_UNIT ( $, .METRE. ) );
#762 = APPLICATION_PROTOCOL_DEFINITION ( 'draft international standard', 'automotive_design', 1998, #352 ) ;
#763 = COLOUR_RGB ( '',0.8588235294117646523, 0.8588235294117646523, 0.8588235294117646523 ) ;
#764 = DIRECTION ( 'NONE',  ( -0.000000000000000000, -0.000000000000000000, -1.000000000000000000 ) ) ;
#765 = SURFACE_STYLE_USAGE ( .BOTH. , #539 ) ;
#766 = FILL_AREA_STYLE ('',( #48 ) ) ;
#767 = UNCERTAINTY_MEASURE_WITH_UNIT (LENGTH_MEASURE( 1.000000000000000082E-05 ), #119, 'distance_accuracy_value', 'NONE');
#768 = DIRECTION ( 'NONE',  ( -0.000000000000000000, -0.000000000000000000, -1.000000000000000000 ) ) ;
#769 =( LENGTH_UNIT ( ) NAMED_UNIT ( * ) SI_UNIT ( $, .METRE. ) );
#770 = CARTESIAN_POINT ( 'NONE',  ( 0.000000000000000000, 0.000000000000000000, 0.2500000000000000000 ) ) ;
#771 = EDGE_CURVE ( 'NONE', #679, #751, #351, .T. ) ;
ENDSEC;
END-ISO-10303-21;
