ISO-10303-21;
HEADER;
FILE_DESCRIPTION (( 'STEP AP214' ),
    '1' );
FILE_NAME ('SPROUT_assembly.STEP',
    '2026-09-04T22:08:39',
    ( '' ),
    ( '' ),
    'SwSTEP 2.0',
    'SolidWorks 2026',
    '' );
FILE_SCHEMA (( 'AUTOMOTIVE_DESIGN' ));
ENDSEC;

DATA;
#1 = DIRECTION ( 'NONE',  ( 1.000000000000000000, 0.000000000000000000, 0.000000000000000000 ) ) ;
#2 = DIMENSIONAL_EXPONENTS ( 1.000000000000000000, 0.000000000000000000, 0.000000000000000000, 0.000000000000000000, 0.000000000000000000, 0.000000000000000000, 0.000000000000000000 ) ;
#3 = PRODUCT_DEFINITION_SHAPE ( 'NONE', 'NONE',  #63 ) ;
#4 =( NAMED_UNIT ( * ) SI_UNIT ( $, .STERADIAN. ) SOLID_ANGLE_UNIT ( ) );
#5 = LENGTH_MEASURE_WITH_UNIT ( LENGTH_MEASURE( 0.02539999999999999897 ), #85 );
#6 = PRODUCT_CONTEXT ( 'NONE', #62, 'mechanical' ) ;
#7 =( LENGTH_UNIT ( ) NAMED_UNIT ( * ) SI_UNIT ( $, .METRE. ) );
#8 = PROPERTY_DEFINITION ('external definition','', #76 ) ;
#9 = ROLE_ASSOCIATION ( #93, #47 ) ;
#10 = SHAPE_DEFINITION_REPRESENTATION ( #3, #112 ) ;
#11 = PROPERTY_DEFINITION ('external definition','', #59 ) ;
#12 = PRODUCT_DEFINITION ( 'General', '', #90, #55 ) ;
#13 = DIRECTION ( 'NONE',  ( 1.000000000000000000, -1.486666982485951165E-32, -1.224646799147352961E-16 ) ) ;
#14 = DIRECTION ( 'NONE',  ( 0.000000000000000000, 0.000000000000000000, 1.000000000000000000 ) ) ;
#15 = PRODUCT_DEFINITION ( 'General', '', #42, #49 ) ;
#16 =( CONVERSION_BASED_UNIT ( 'INCH', #5 ) LENGTH_UNIT ( ) NAMED_UNIT ( #2 ) );
#17 = PRODUCT_DEFINITION_SHAPE ( 'NONE', 'NONE',  #116 ) ;
#18 =( NAMED_UNIT ( * ) SI_UNIT ( $, .STERADIAN. ) SOLID_ANGLE_UNIT ( ) );
#19 =( GEOMETRIC_REPRESENTATION_CONTEXT ( 3 ) GLOBAL_UNCERTAINTY_ASSIGNED_CONTEXT ( ( #29 ) ) GLOBAL_UNIT_ASSIGNED_CONTEXT ( ( #44, #70, #45 ) ) REPRESENTATION_CONTEXT ( 'NONE', 'WORKASPACE' ) );
#20 = APPLIED_EXTERNAL_IDENTIFICATION_ASSIGNMENT ( 'compute_box.STEP' , #72, #83,( #76) ) ;
#21 = SHAPE_REPRESENTATION ( 'SPROUT_assembly', ( #36, #82, #104 ), #40 ) ;
#22 =( LENGTH_UNIT ( ) NAMED_UNIT ( * ) SI_UNIT ( $, .METRE. ) );
#23 = DIRECTION ( 'NONE',  ( 0.000000000000000000, 0.000000000000000000, 1.000000000000000000 ) ) ;
#24 = DIRECTION ( 'NONE',  ( 1.000000000000000000, 0.000000000000000000, 0.000000000000000000 ) ) ;
#25 =( REPRESENTATION_RELATIONSHIP ('NONE','NONE', #21, #112 ) REPRESENTATION_RELATIONSHIP_WITH_TRANSFORMATION ( #73 )SHAPE_REPRESENTATION_RELATIONSHIP( ) );
#26 = CONTEXT_DEPENDENT_SHAPE_REPRESENTATION ( #25, #17 ) ;
#27 = PRODUCT_RELATED_PRODUCT_CATEGORY ( 'part', '', ( #35 ) ) ;
#28 = APPLICATION_CONTEXT ( 'automotive_design' ) ;
#29 = UNCERTAINTY_MEASURE_WITH_UNIT (LENGTH_MEASURE( 1.000000000000000082E-05 ), #44, 'distance_accuracy_value', 'NONE');
#30 = PRODUCT_DEFINITION_SHAPE ( 'NONE', 'NONE',  #117 ) ;
#31 = PROPERTY_DEFINITION_REPRESENTATION ( #95, #114 ) ;
#32 = APPLICATION_PROTOCOL_DEFINITION ( 'draft international standard', 'automotive_design', 1998, #57 ) ;
#33 = DIRECTION ( 'NONE',  ( 1.000000000000000000, 0.000000000000000000, 0.000000000000000000 ) ) ;
#34 = DIRECTION ( 'NONE',  ( 3.697785493223493933E-32, -1.000000000000000000, 3.771356811665851964E-16 ) ) ;
#35 = PRODUCT ( 'compute_box', 'compute_box', '', ( #96 ) ) ;
#36 = AXIS2_PLACEMENT_3D ( 'NONE', #98, #37, #1 ) ;
#37 = DIRECTION ( 'NONE',  ( 0.000000000000000000, 0.000000000000000000, 1.000000000000000000 ) ) ;
#38 = APPLICATION_PROTOCOL_DEFINITION ( 'draft international standard', 'automotive_design', 1998, #69 ) ;
#39 = PRODUCT_RELATED_PRODUCT_CATEGORY ( 'part', '', ( #51 ) ) ;
#40 =( GEOMETRIC_REPRESENTATION_CONTEXT ( 3 ) GLOBAL_UNCERTAINTY_ASSIGNED_CONTEXT ( ( #79 ) ) GLOBAL_UNIT_ASSIGNED_CONTEXT ( ( #43, #54, #18 ) ) REPRESENTATION_CONTEXT ( 'NONE', 'WORKASPACE' ) );
#41 = PRODUCT_DEFINITION_CONTEXT ( 'detailed design', #57, 'design' ) ;
#42 = PRODUCT_DEFINITION_FORMATION_WITH_SPECIFIED_SOURCE ( 'Symmetric', '', #51, .NOT_KNOWN. ) ;
#43 =( CONVERSION_BASED_UNIT ( 'INCH', #53 ) LENGTH_UNIT ( ) NAMED_UNIT ( #78 ) );
#44 =( CONVERSION_BASED_UNIT ( 'INCH', #56 ) LENGTH_UNIT ( ) NAMED_UNIT ( #101 ) );
#45 =( NAMED_UNIT ( * ) SI_UNIT ( $, .STERADIAN. ) SOLID_ANGLE_UNIT ( ) );
#46 =( GEOMETRIC_REPRESENTATION_CONTEXT ( 3 ) GLOBAL_UNCERTAINTY_ASSIGNED_CONTEXT ( ( #110 ) ) GLOBAL_UNIT_ASSIGNED_CONTEXT ( ( #16, #111, #4 ) ) REPRESENTATION_CONTEXT ( 'NONE', 'WORKASPACE' ) );
#47 = APPLIED_DOCUMENT_REFERENCE ( #76,'',( #12) ) ;
#48 = PRODUCT_DEFINITION_SHAPE ( 'NONE', 'NONE',  #12 ) ;
#49 = PRODUCT_DEFINITION_CONTEXT ( 'detailed design', #113, 'design' ) ;
#50 = PROPERTY_DEFINITION_REPRESENTATION ( #11, #112 ) ;
#51 = PRODUCT ( 'SPROUT_assembly', 'SPROUT_assembly', '', ( #6 ) ) ;
#52 = AXIS2_PLACEMENT_3D ( 'NONE', #103, #23, #81 ) ;
#53 = LENGTH_MEASURE_WITH_UNIT ( LENGTH_MEASURE( 0.02539999999999999897 ), #22 );
#54 =( NAMED_UNIT ( * ) PLANE_ANGLE_UNIT ( ) SI_UNIT ( $, .RADIAN. ) );
#55 = PRODUCT_DEFINITION_CONTEXT ( 'detailed design', #100, 'design' ) ;
#56 = LENGTH_MEASURE_WITH_UNIT ( LENGTH_MEASURE( 0.02539999999999999897 ), #7 );
#57 = APPLICATION_CONTEXT ( 'automotive_design' ) ;
#58 = CARTESIAN_POINT ( 'NONE',  ( 0.000000000000000000, 0.000000000000000000, 0.000000000000000000 ) ) ;
#59 = DOCUMENT_FILE ( 'Base_assembly.STEP' , '', '', #115, '' ,$ ) ;
#60 = APPLIED_EXTERNAL_IDENTIFICATION_ASSIGNMENT ( 'Base_assembly.STEP' , #67, #109,( #59) ) ;
#61 = SHAPE_DEFINITION_REPRESENTATION ( #92, #21 ) ;
#62 = APPLICATION_CONTEXT ( 'automotive_design' ) ;
#63 = PRODUCT_DEFINITION ( 'General', '', #106, #41 ) ;
#64 = SHAPE_DEFINITION_REPRESENTATION ( #48, #114 ) ;
#65 = PRODUCT_CONTEXT ( 'NONE', #28, 'mechanical' ) ;
#66 = ROLE_ASSOCIATION ( #86, #88 ) ;
#67 = IDENTIFICATION_ROLE ( 'external document id and location', $) ;
#68 = PROPERTY_DEFINITION ('document property','', #59 ) ;
#69 = APPLICATION_CONTEXT ( 'automotive_design' ) ;
#70 =( NAMED_UNIT ( * ) PLANE_ANGLE_UNIT ( ) SI_UNIT ( $, .RADIAN. ) );
#71 =( REPRESENTATION_RELATIONSHIP ('NONE','NONE', #21, #114 ) REPRESENTATION_RELATIONSHIP_WITH_TRANSFORMATION ( #108 )SHAPE_REPRESENTATION_RELATIONSHIP( ) );
#72 = IDENTIFICATION_ROLE ( 'external document id and location', $) ;
#73 = ITEM_DEFINED_TRANSFORMATION ( 'NONE', 'NONE', #82,  #97 ) ;
#74 = PRODUCT ( 'Base_assembly', 'Base_assembly', '', ( #65 ) ) ;
#75 = PRODUCT_RELATED_PRODUCT_CATEGORY ( 'part', '', ( #74 ) ) ;
#76 = DOCUMENT_FILE ( 'compute_box.STEP' , '', '', #84, '' ,$ ) ;
#77 = PROPERTY_DEFINITION_REPRESENTATION ( #68, #112 ) ;
#78 = DIMENSIONAL_EXPONENTS ( 1.000000000000000000, 0.000000000000000000, 0.000000000000000000, 0.000000000000000000, 0.000000000000000000, 0.000000000000000000, 0.000000000000000000 ) ;
#79 = UNCERTAINTY_MEASURE_WITH_UNIT (LENGTH_MEASURE( 1.000000000000000082E-05 ), #43, 'distance_accuracy_value', 'NONE');
#80 = CARTESIAN_POINT ( 'NONE',  ( 0.000000000000000000, 0.000000000000000000, 0.000000000000000000 ) ) ;
#81 = DIRECTION ( 'NONE',  ( 1.000000000000000000, 0.000000000000000000, 0.000000000000000000 ) ) ;
#82 = AXIS2_PLACEMENT_3D ( 'NONE', #87, #13, #34 ) ;
#83 = EXTERNAL_SOURCE (IDENTIFIER('') ) ;
#84 = DOCUMENT_TYPE ( 'geometry' ) ;
#85 =( LENGTH_UNIT ( ) NAMED_UNIT ( * ) SI_UNIT ( $, .METRE. ) );
#86 = OBJECT_ROLE ('mandatory',$ ) ;
#87 = CARTESIAN_POINT ( 'NONE',  ( 0.000000000000000000, -10.69141082465313808, 0.3240449547265491503 ) ) ;
#88 = APPLIED_DOCUMENT_REFERENCE ( #59,'',( #63) ) ;
#89 = APPLICATION_PROTOCOL_DEFINITION ( 'draft international standard', 'automotive_design', 1998, #100 ) ;
#90 = PRODUCT_DEFINITION_FORMATION_WITH_SPECIFIED_SOURCE ( 'Symmetric', '', #35, .NOT_KNOWN. ) ;
#91 = CONTEXT_DEPENDENT_SHAPE_REPRESENTATION ( #71, #30 ) ;
#92 = PRODUCT_DEFINITION_SHAPE ( 'NONE', 'NONE',  #15 ) ;
#93 = OBJECT_ROLE ('mandatory',$ ) ;
#94 = APPLICATION_PROTOCOL_DEFINITION ( 'draft international standard', 'automotive_design', 1998, #62 ) ;
#95 = PROPERTY_DEFINITION ('document property','', #76 ) ;
#96 = PRODUCT_CONTEXT ( 'NONE', #69, 'mechanical' ) ;
#97 = AXIS2_PLACEMENT_3D ( 'NONE', #80, #14, #33 ) ;
#98 = CARTESIAN_POINT ( 'NONE',  ( 0.000000000000000000, 0.000000000000000000, 0.000000000000000000 ) ) ;
#99 = APPLICATION_PROTOCOL_DEFINITION ( 'draft international standard', 'automotive_design', 1998, #28 ) ;
#100 = APPLICATION_CONTEXT ( 'automotive_design' ) ;
#101 = DIMENSIONAL_EXPONENTS ( 1.000000000000000000, 0.000000000000000000, 0.000000000000000000, 0.000000000000000000, 0.000000000000000000, 0.000000000000000000, 0.000000000000000000 ) ;
#102 = DIRECTION ( 'NONE',  ( 0.000000000000000000, 0.000000000000000000, 1.000000000000000000 ) ) ;
#103 = CARTESIAN_POINT ( 'NONE',  ( 0.000000000000000000, 0.000000000000000000, 0.000000000000000000 ) ) ;
#104 = AXIS2_PLACEMENT_3D ( 'NONE', #58, #102, #24 ) ;
#105 = APPLICATION_PROTOCOL_DEFINITION ( 'draft international standard', 'automotive_design', 1998, #113 ) ;
#106 = PRODUCT_DEFINITION_FORMATION_WITH_SPECIFIED_SOURCE ( 'Symmetric', '', #74, .NOT_KNOWN. ) ;
#107 = PROPERTY_DEFINITION_REPRESENTATION ( #8, #114 ) ;
#108 = ITEM_DEFINED_TRANSFORMATION ( 'NONE', 'NONE', #104,  #52 ) ;
#109 = EXTERNAL_SOURCE (IDENTIFIER('') ) ;
#110 = UNCERTAINTY_MEASURE_WITH_UNIT (LENGTH_MEASURE( 1.000000000000000082E-05 ), #16, 'distance_accuracy_value', 'NONE');
#111 =( NAMED_UNIT ( * ) PLANE_ANGLE_UNIT ( ) SI_UNIT ( $, .RADIAN. ) );
#112 = SHAPE_REPRESENTATION ( 'Base_assembly', ( #97 ), #19 ) ;
#113 = APPLICATION_CONTEXT ( 'automotive_design' ) ;
#114 = SHAPE_REPRESENTATION ( 'compute_box', ( #52 ), #46 ) ;
#115 = DOCUMENT_TYPE ( 'geometry' ) ;
#116 = NEXT_ASSEMBLY_USAGE_OCCURRENCE ( 'NAUO169', ' ', ' ', #15, #63, $ ) ;
#117 = NEXT_ASSEMBLY_USAGE_OCCURRENCE ( 'NAUO170', ' ', ' ', #15, #12, $ ) ;
ENDSEC;
END-ISO-10303-21;
